<svg height="128.876" viewBox="0 0 33.308 128.876" width="33.308" xmlns="http://www.w3.org/2000/svg" xmlns:xlink="http://www.w3.org/1999/xlink"><clipPath id="a"><path d="m1325 593h33.307v30.876h-33.307z"/></clipPath><clipPath id="b"><path d="m1149 591.124h33.307v30.876h-33.307z"/></clipPath><g clip-path="url(#a)" fill="#40290a" transform="translate(-1325 -593)"><path d="m15.179 45.054a3.874 3.874 0 0 1 -3.325-3.325v-12.114h-.713a2.265 2.265 0 0 0 -2.256 2.256v20.308l4.342-4.3h15.965a2.292 2.292 0 0 0 2.256-2.293v-.527z" transform="translate(1317.33 571.698)"/><path d="m44.6 8.885h-20.724a2.6 2.6 0 0 0 -2.59 2.59v16.782a2.6 2.6 0 0 0 2.59 2.6h17.68l5.633 3.934v-23.316a2.6 2.6 0 0 0 -2.59-2.59z" transform="translate(1309.902 584.115)"/></g><path d="m33.948 7.686h-3.2v1.922a.642.642 0 0 1 -.641.641h-1.283a.642.642 0 0 1 -.641-.641v-1.922h-15.373v1.922a.642.642 0 0 1 -.641.641h-1.28a.642.642 0 0 1 -.641-.641v-1.922h-3.2a3.212 3.212 0 0 0 -3.2 3.2v21.781a3.212 3.212 0 0 0 3.2 3.2h26.9a3.212 3.212 0 0 0 3.2-3.2v-21.778a3.212 3.212 0 0 0 -3.2-3.203zm.641 24.02a1.606 1.606 0 0 1 -1.6 1.6h-24.982a1.606 1.606 0 0 1 -1.6-1.6v-14.412a.642.642 0 0 1 .641-.641h26.9a.642.642 0 0 1 .641.641zm-21.779-25.941a.642.642 0 0 0 -.641-.641h-1.28a.642.642 0 0 0 -.641.641v1.921h2.562zm17.935 0a.642.642 0 0 0 -.641-.641h-1.28a.642.642 0 0 0 -.641.641v1.921h2.562z" fill="#40290a" transform="translate(-3.843 43.941)"/><g clip-path="url(#b)" transform="translate(-1149 -493.124)"><path d="m32.514 5.948h-26.963a3.181 3.181 0 0 0 -3.172 3.172v19.826a3.181 3.181 0 0 0 3.172 3.172h26.963a3.181 3.181 0 0 0 3.172-3.172v-19.826a3.181 3.181 0 0 0 -3.172-3.172zm-.4 6.741-13.081 8.723-13.085-8.723v-3.173l13.085 8.724 13.085-8.724v3.172z" fill="#40290a" transform="translate(1146.621 587.529)"/></g></svg>