<?xml version="1.0" encoding="UTF-8" standalone="no"?><!DOCTYPE svg PUBLIC "-//W3C//DTD SVG 1.1//EN" "http://www.w3.org/Graphics/SVG/1.1/DTD/svg11.dtd"><svg width="100%" height="100%" viewBox="0 0 359 359" version="1.1" xmlns="http://www.w3.org/2000/svg" xmlns:xlink="http://www.w3.org/1999/xlink" xml:space="preserve" xmlns:serif="http://www.serif.com/" style="fill-rule:evenodd;clip-rule:evenodd;stroke-linejoin:round;stroke-miterlimit:1.41421;"><circle cx="179.13" cy="178.976" r="178.971" style="fill:none;"/><clipPath id="_clip1"><circle cx="179.13" cy="178.976" r="178.971"/></clipPath><g clip-path="url(#_clip1)"><g><g><g><g><circle cx="213.375" cy="149.117" r="9.402" style="fill:#40290a;"/><g><circle cx="197.546" cy="173.843" r="9.402" style="fill:#40290a;"/><circle cx="229.204" cy="173.843" r="9.402" style="fill:#40290a;"/><circle cx="260.861" cy="173.843" r="9.402" style="fill:#40290a;"/><circle cx="292.519" cy="173.843" r="9.402" style="fill:#40290a;"/><circle cx="324.177" cy="173.843" r="9.402" style="fill:#40290a;"/><circle cx="355.834" cy="173.843" r="9.402" style="fill:#40290a;"/></g><g><circle cx="181.717" cy="198.57" r="9.402" style="fill:#40290a;"/><circle cx="213.375" cy="198.57" r="9.402" style="fill:#40290a;"/><circle cx="245.033" cy="198.57" r="9.402" style="fill:#40290a;"/><circle cx="276.69" cy="198.57" r="9.402" style="fill:#40290a;"/><circle cx="308.348" cy="198.57" r="9.402" style="fill:#40290a;"/><circle cx="340.005" cy="198.57" r="9.402" style="fill:#40290a;"/></g><g><circle cx="165.888" cy="223.296" r="9.402" style="fill:#40290a;"/><circle cx="197.546" cy="223.296" r="9.402" style="fill:#40290a;"/><circle cx="229.204" cy="223.296" r="9.402" style="fill:#40290a;"/><circle cx="260.861" cy="223.296" r="9.402" style="fill:#40290a;"/><circle cx="292.519" cy="223.296" r="9.402" style="fill:#40290a;"/><circle cx="324.177" cy="223.296" r="9.402" style="fill:#40290a;"/><circle cx="355.834" cy="223.296" r="9.402" style="fill:#40290a;"/></g><g><circle cx="150.06" cy="248.023" r="9.402" style="fill:#40290a;"/><circle cx="181.717" cy="248.023" r="9.402" style="fill:#40290a;"/><circle cx="213.375" cy="248.023" r="9.402" style="fill:#40290a;"/><circle cx="245.033" cy="248.023" r="9.402" style="fill:#40290a;"/><circle cx="276.69" cy="248.023" r="9.402" style="fill:#40290a;"/><circle cx="308.348" cy="248.023" r="9.402" style="fill:#40290a;"/><circle cx="340.005" cy="248.023" r="9.402" style="fill:#40290a;"/></g><g><circle cx="134.231" cy="272.749" r="9.402" style="fill:#40290a;"/><circle cx="165.888" cy="272.749" r="9.402" style="fill:#40290a;"/><circle cx="197.546" cy="272.749" r="9.402" style="fill:#40290a;"/><circle cx="229.204" cy="272.749" r="9.402" style="fill:#40290a;"/><circle cx="260.861" cy="272.749" r="9.402" style="fill:#40290a;"/><circle cx="292.519" cy="272.749" r="9.402" style="fill:#40290a;"/><circle cx="324.177" cy="272.749" r="9.402" style="fill:#40290a;"/><circle cx="355.834" cy="272.749" r="9.402" style="fill:#40290a;"/></g><g><circle cx="118.402" cy="297.476" r="9.402" style="fill:#40290a;"/><circle cx="150.06" cy="297.476" r="9.402" style="fill:#40290a;"/><circle cx="181.717" cy="297.476" r="9.402" style="fill:#40290a;"/><circle cx="213.375" cy="297.476" r="9.402" style="fill:#40290a;"/><circle cx="245.033" cy="297.476" r="9.402" style="fill:#40290a;"/><circle cx="276.69" cy="297.476" r="9.402" style="fill:#40290a;"/><circle cx="308.348" cy="297.476" r="9.402" style="fill:#40290a;"/><circle cx="340.005" cy="297.476" r="9.402" style="fill:#40290a;"/></g><g><circle cx="102.573" cy="322.202" r="9.402" style="fill:#40290a;"/><circle cx="134.231" cy="322.202" r="9.402" style="fill:#40290a;"/><circle cx="165.888" cy="322.202" r="9.402" style="fill:#40290a;"/><circle cx="197.546" cy="322.202" r="9.402" style="fill:#40290a;"/><circle cx="229.204" cy="322.202" r="9.402" style="fill:#40290a;"/><circle cx="260.861" cy="322.202" r="9.402" style="fill:#40290a;"/><circle cx="292.519" cy="322.202" r="9.402" style="fill:#40290a;"/><circle cx="324.177" cy="322.202" r="9.402" style="fill:#40290a;"/></g><g><circle cx="355.834" cy="322.202" r="9.402" style="fill:#40290a;"/></g><g><circle cx="86.744" cy="346.928" r="9.402" style="fill:#40290a;"/><circle cx="118.402" cy="346.928" r="9.402" style="fill:#40290a;"/><circle cx="150.06" cy="346.928" r="9.402" style="fill:#40290a;"/><circle cx="181.717" cy="346.928" r="9.402" style="fill:#40290a;"/><circle cx="213.375" cy="346.928" r="9.402" style="fill:#40290a;"/><circle cx="245.033" cy="346.928" r="9.402" style="fill:#40290a;"/><circle cx="276.69" cy="346.928" r="9.402" style="fill:#40290a;"/><circle cx="308.348" cy="346.928" r="9.402" style="fill:#40290a;"/></g><g><circle cx="340.005" cy="346.928" r="9.402" style="fill:#40290a;"/></g><circle cx="245.033" cy="149.117" r="9.402" style="fill:#40290a;"/><circle cx="276.69" cy="149.117" r="9.402" style="fill:#40290a;"/><circle cx="308.348" cy="149.117" r="9.402" style="fill:#40290a;"/><circle cx="340.005" cy="149.117" r="9.402" style="fill:#40290a;"/></g><g><g><circle cx="7.172" cy="173.843" r="9.402" style="fill:#40290a;"/><circle cx="38.83" cy="173.843" r="9.402" style="fill:#40290a;"/><circle cx="70.488" cy="173.843" r="9.402" style="fill:#40290a;"/><circle cx="102.145" cy="173.843" r="9.402" style="fill:#40290a;"/><circle cx="133.803" cy="173.843" r="9.402" style="fill:#40290a;"/><circle cx="165.461" cy="173.843" r="9.402" style="fill:#40290a;"/></g><g><circle cx="-8.656" cy="198.57" r="9.402" style="fill:#40290a;"/><circle cx="23.001" cy="198.57" r="9.402" style="fill:#40290a;"/><circle cx="54.659" cy="198.57" r="9.402" style="fill:#40290a;"/><circle cx="86.317" cy="198.57" r="9.402" style="fill:#40290a;"/><circle cx="117.974" cy="198.57" r="9.402" style="fill:#40290a;"/><circle cx="149.632" cy="198.57" r="9.402" style="fill:#40290a;"/></g><g><circle cx="7.172" cy="223.296" r="9.402" style="fill:#40290a;"/><circle cx="38.83" cy="223.296" r="9.402" style="fill:#40290a;"/><circle cx="70.488" cy="223.296" r="9.402" style="fill:#40290a;"/><circle cx="102.145" cy="223.296" r="9.402" style="fill:#40290a;"/><circle cx="133.803" cy="223.296" r="9.402" style="fill:#40290a;"/></g><g><circle cx="-8.656" cy="248.023" r="9.402" style="fill:#40290a;"/><circle cx="23.001" cy="248.023" r="9.402" style="fill:#40290a;"/><circle cx="54.659" cy="248.023" r="9.402" style="fill:#40290a;"/><circle cx="86.317" cy="248.023" r="9.402" style="fill:#40290a;"/><circle cx="117.974" cy="248.023" r="9.402" style="fill:#40290a;"/></g><g><circle cx="7.172" cy="272.749" r="9.402" style="fill:#40290a;"/><circle cx="38.83" cy="272.749" r="9.402" style="fill:#40290a;"/><circle cx="70.488" cy="272.749" r="9.402" style="fill:#40290a;"/><circle cx="102.145" cy="272.749" r="9.402" style="fill:#40290a;"/></g><g><circle cx="-8.656" cy="297.476" r="9.402" style="fill:#40290a;"/><circle cx="23.001" cy="297.476" r="9.402" style="fill:#40290a;"/><circle cx="54.659" cy="297.476" r="9.402" style="fill:#40290a;"/><circle cx="86.317" cy="297.476" r="9.402" style="fill:#40290a;"/></g><g><circle cx="7.172" cy="322.202" r="9.402" style="fill:#40290a;"/><circle cx="38.83" cy="322.202" r="9.402" style="fill:#40290a;"/><circle cx="70.488" cy="322.202" r="9.402" style="fill:#40290a;"/></g><g><circle cx="-8.656" cy="346.928" r="9.402" style="fill:#40290a;"/><circle cx="23.001" cy="346.928" r="9.402" style="fill:#40290a;"/><circle cx="54.659" cy="346.928" r="9.402" style="fill:#40290a;"/></g><circle cx="-8.656" cy="149.117" r="9.402" style="fill:#40290a;"/><circle cx="23.001" cy="149.117" r="9.402" style="fill:#40290a;"/><circle cx="54.659" cy="149.117" r="9.402" style="fill:#40290a;"/><circle cx="86.317" cy="149.117" r="9.402" style="fill:#40290a;"/><circle cx="117.974" cy="149.117" r="9.402" style="fill:#40290a;"/><circle cx="149.632" cy="149.117" r="9.402" style="fill:#40290a;"/><circle cx="181.289" cy="149.117" r="9.402" style="fill:#40290a;"/></g></g></g><g><g><g><circle cx="308.365" cy="-0.684" r="9.402" style="fill:#40290a;"/><circle cx="340.022" cy="-0.684" r="9.402" style="fill:#40290a;"/></g><g><circle cx="292.536" cy="24.042" r="9.402" style="fill:#40290a;"/><circle cx="324.194" cy="24.042" r="9.402" style="fill:#40290a;"/><circle cx="355.851" cy="24.042" r="9.402" style="fill:#40290a;"/></g><g><circle cx="276.707" cy="48.769" r="9.402" style="fill:#40290a;"/><circle cx="308.365" cy="48.769" r="9.402" style="fill:#40290a;"/><circle cx="340.022" cy="48.769" r="9.402" style="fill:#40290a;"/></g><g><circle cx="260.878" cy="73.495" r="9.402" style="fill:#40290a;"/><circle cx="292.536" cy="73.495" r="9.402" style="fill:#40290a;"/><circle cx="324.194" cy="73.495" r="9.402" style="fill:#40290a;"/><circle cx="355.851" cy="73.495" r="9.402" style="fill:#40290a;"/></g><g><circle cx="245.049" cy="98.222" r="9.402" style="fill:#40290a;"/><circle cx="276.707" cy="98.222" r="9.402" style="fill:#40290a;"/><circle cx="308.365" cy="98.222" r="9.402" style="fill:#40290a;"/><circle cx="340.022" cy="98.222" r="9.402" style="fill:#40290a;"/></g><g><circle cx="229.221" cy="122.948" r="9.402" style="fill:#40290a;"/><circle cx="260.878" cy="122.948" r="9.402" style="fill:#40290a;"/><circle cx="292.536" cy="122.948" r="9.402" style="fill:#40290a;"/><circle cx="324.194" cy="122.948" r="9.402" style="fill:#40290a;"/><circle cx="355.851" cy="122.948" r="9.402" style="fill:#40290a;"/></g></g><g><g><circle cx="-8.639" cy="-0.684" r="9.402" style="fill:#40290a;"/><circle cx="23.018" cy="-0.684" r="9.402" style="fill:#40290a;"/></g><g><circle cx="54.676" cy="-0.684" r="9.402" style="fill:#40290a;"/><circle cx="86.333" cy="-0.684" r="9.402" style="fill:#40290a;"/><circle cx="117.991" cy="-0.684" r="9.402" style="fill:#40290a;"/><circle cx="149.649" cy="-0.684" r="9.402" style="fill:#40290a;"/><circle cx="181.306" cy="-0.684" r="9.402" style="fill:#40290a;"/><circle cx="212.964" cy="-0.684" r="9.402" style="fill:#40290a;"/><circle cx="244.622" cy="-0.684" r="9.402" style="fill:#40290a;"/><circle cx="276.279" cy="-0.684" r="9.402" style="fill:#40290a;"/></g><g><circle cx="7.189" cy="24.042" r="9.402" style="fill:#40290a;"/></g><g><circle cx="38.847" cy="24.042" r="9.402" style="fill:#40290a;"/><circle cx="70.505" cy="24.042" r="9.402" style="fill:#40290a;"/><circle cx="102.162" cy="24.042" r="9.402" style="fill:#40290a;"/><circle cx="133.82" cy="24.042" r="9.402" style="fill:#40290a;"/><circle cx="165.478" cy="24.042" r="9.402" style="fill:#40290a;"/><circle cx="197.135" cy="24.042" r="9.402" style="fill:#40290a;"/><circle cx="228.793" cy="24.042" r="9.402" style="fill:#40290a;"/><circle cx="260.45" cy="24.042" r="9.402" style="fill:#40290a;"/></g><g><circle cx="-8.639" cy="48.769" r="9.402" style="fill:#40290a;"/></g><g><circle cx="23.018" cy="48.769" r="9.402" style="fill:#40290a;"/><circle cx="54.676" cy="48.769" r="9.402" style="fill:#40290a;"/><circle cx="86.333" cy="48.769" r="9.402" style="fill:#40290a;"/><circle cx="117.991" cy="48.769" r="9.402" style="fill:#40290a;"/><circle cx="149.649" cy="48.769" r="9.402" style="fill:#40290a;"/><circle cx="181.306" cy="48.769" r="9.402" style="fill:#40290a;"/><circle cx="212.964" cy="48.769" r="9.402" style="fill:#40290a;"/><circle cx="244.622" cy="48.769" r="9.402" style="fill:#40290a;"/></g><g><circle cx="7.189" cy="73.495" r="9.402" style="fill:#40290a;"/><circle cx="38.847" cy="73.495" r="9.402" style="fill:#40290a;"/><circle cx="70.505" cy="73.495" r="9.402" style="fill:#40290a;"/><circle cx="102.162" cy="73.495" r="9.402" style="fill:#40290a;"/><circle cx="133.82" cy="73.495" r="9.402" style="fill:#40290a;"/><circle cx="165.478" cy="73.495" r="9.402" style="fill:#40290a;"/><circle cx="197.135" cy="73.495" r="9.402" style="fill:#40290a;"/><circle cx="228.793" cy="73.495" r="9.402" style="fill:#40290a;"/></g><g><circle cx="-8.639" cy="98.222" r="9.402" style="fill:#40290a;"/><circle cx="23.018" cy="98.222" r="9.402" style="fill:#40290a;"/><circle cx="54.676" cy="98.222" r="9.402" style="fill:#40290a;"/><circle cx="86.333" cy="98.222" r="9.402" style="fill:#40290a;"/><circle cx="117.991" cy="98.222" r="9.402" style="fill:#40290a;"/><circle cx="149.649" cy="98.222" r="9.402" style="fill:#40290a;"/><circle cx="181.306" cy="98.222" r="9.402" style="fill:#40290a;"/><circle cx="212.964" cy="98.222" r="9.402" style="fill:#40290a;"/></g><g><circle cx="7.189" cy="122.948" r="9.402" style="fill:#40290a;"/><circle cx="38.847" cy="122.948" r="9.402" style="fill:#40290a;"/><circle cx="70.505" cy="122.948" r="9.402" style="fill:#40290a;"/><circle cx="102.162" cy="122.948" r="9.402" style="fill:#40290a;"/><circle cx="133.82" cy="122.948" r="9.402" style="fill:#40290a;"/><circle cx="165.478" cy="122.948" r="9.402" style="fill:#40290a;"/><circle cx="197.135" cy="122.948" r="9.402" style="fill:#40290a;"/></g></g></g></g></g></svg>