<svg clip-rule="evenodd" fill-rule="evenodd" stroke-linejoin="round" stroke-miterlimit="1.41421" viewBox="0 0 359 359"
     xmlns="http://www.w3.org/2000/svg">
    <clipPath id="a">
        <circle clip-rule="evenodd" cx="179.166" cy="178.976" r="178.971"/>
    </clipPath>
    <circle cx="179.166" cy="178.976" fill="none" r="178.971"/>
    <g clip-path="url(#a)" fill="#40290a">
        <circle cx="210.931" cy="145.121" r="6.531"/>
        <circle cx="89.991" cy="334.043" r="6.531"/>
        <circle cx="265.904" cy="334.043" r="6.531"/>
        <circle cx="199.937" cy="162.296" r="6.531"/>
        <circle cx="221.926" cy="162.296" r="6.531"/>
        <circle cx="243.915" cy="162.296" r="6.531"/>
        <circle cx="265.904" cy="162.296" r="6.531"/>
        <circle cx="287.893" cy="162.296" r="6.531"/>
        <circle cx="309.882" cy="162.296" r="6.531"/>
        <circle cx="331.871" cy="162.296" r="6.531"/>
        <circle cx="353.86" cy="162.296" r="6.531"/>
        <circle cx="78.997" cy="351.217" r="6.531"/>
        <circle cx="100.986" cy="351.217" r="6.531"/>
        <circle cx="122.975" cy="351.217" r="6.531"/>
        <circle cx="144.964" cy="351.217" r="6.531"/>
        <circle cx="166.953" cy="351.217" r="6.531"/>
        <circle cx="188.942" cy="351.217" r="6.531"/>
        <circle cx="210.931" cy="351.217" r="6.531"/>
        <circle cx="232.92" cy="351.217" r="6.531"/>
        <circle cx="254.909" cy="351.217" r="6.531"/>
        <circle cx="276.898" cy="351.217" r="6.531"/>
        <circle cx="298.887" cy="351.217" r="6.531"/>
        <circle cx="320.876" cy="351.217" r="6.531"/>
        <circle cx="342.865" cy="351.217" r="6.531"/>
        <circle cx="364.854" cy="351.217" r="6.531"/>
        <circle cx="188.942" cy="179.47" r="6.531"/>
        <circle cx="210.931" cy="179.47" r="6.531"/>
        <circle cx="232.92" cy="179.47" r="6.531"/>
        <circle cx="254.909" cy="179.47" r="6.531"/>
        <circle cx="276.898" cy="179.47" r="6.531"/>
        <circle cx="298.887" cy="179.47" r="6.531"/>
        <circle cx="320.876" cy="179.47" r="6.531"/>
        <circle cx="342.865" cy="179.47" r="6.531"/>
        <circle cx="364.854" cy="179.47" r="6.531"/>
        <circle cx="177.947" cy="196.645" r="6.531"/>
        <circle cx="199.937" cy="196.645" r="6.531"/>
        <circle cx="221.926" cy="196.645" r="6.531"/>
        <circle cx="243.915" cy="196.645" r="6.531"/>
        <circle cx="265.904" cy="196.645" r="6.531"/>
        <circle cx="287.893" cy="196.645" r="6.531"/>
        <circle cx="309.882" cy="196.645" r="6.531"/>
        <circle cx="331.871" cy="196.645" r="6.531"/>
        <circle cx="353.86" cy="196.645" r="6.531"/>
        <circle cx="166.953" cy="213.82" r="6.531"/>
        <circle cx="188.942" cy="213.82" r="6.531"/>
        <circle cx="210.931" cy="213.82" r="6.531"/>
        <circle cx="232.92" cy="213.82" r="6.531"/>
        <circle cx="254.909" cy="213.82" r="6.531"/>
        <circle cx="276.898" cy="213.82" r="6.531"/>
        <circle cx="298.887" cy="213.82" r="6.531"/>
        <circle cx="320.876" cy="213.82" r="6.531"/>
        <circle cx="342.865" cy="213.82" r="6.531"/>
        <circle cx="364.854" cy="213.82" r="6.531"/>
        <circle cx="155.958" cy="230.994" r="6.531"/>
        <circle cx="177.947" cy="230.994" r="6.531"/>
        <circle cx="199.937" cy="230.994" r="6.531"/>
        <circle cx="221.926" cy="230.994" r="6.531"/>
        <circle cx="243.915" cy="230.994" r="6.531"/>
        <circle cx="265.904" cy="230.994" r="6.531"/>
        <circle cx="287.893" cy="230.994" r="6.531"/>
        <circle cx="309.882" cy="230.994" r="6.531"/>
        <circle cx="331.871" cy="230.994" r="6.531"/>
        <circle cx="353.86" cy="230.994" r="6.531"/>
        <circle cx="144.964" cy="248.169" r="6.531"/>
        <circle cx="166.953" cy="248.169" r="6.531"/>
        <circle cx="188.942" cy="248.169" r="6.531"/>
        <circle cx="210.931" cy="248.169" r="6.531"/>
        <circle cx="232.92" cy="248.169" r="6.531"/>
        <circle cx="254.909" cy="248.169" r="6.531"/>
        <circle cx="276.898" cy="248.169" r="6.531"/>
        <circle cx="298.887" cy="248.169" r="6.531"/>
        <circle cx="320.876" cy="248.169" r="6.531"/>
        <circle cx="342.865" cy="248.169" r="6.531"/>
        <circle cx="364.854" cy="248.169" r="6.531"/>
        <circle cx="133.969" cy="265.344" r="6.531"/>
        <circle cx="155.958" cy="265.344" r="6.531"/>
        <circle cx="177.947" cy="265.344" r="6.531"/>
        <circle cx="199.937" cy="265.344" r="6.531"/>
        <circle cx="221.926" cy="265.344" r="6.531"/>
        <circle cx="243.915" cy="265.344" r="6.531"/>
        <circle cx="265.904" cy="265.344" r="6.531"/>
        <circle cx="287.893" cy="265.344" r="6.531"/>
        <circle cx="309.882" cy="265.344" r="6.531"/>
        <circle cx="331.871" cy="265.344" r="6.531"/>
        <circle cx="353.86" cy="265.344" r="6.531"/>
        <circle cx="122.975" cy="282.519" r="6.531"/>
        <circle cx="144.964" cy="282.519" r="6.531"/>
        <circle cx="166.953" cy="282.519" r="6.531"/>
        <circle cx="188.942" cy="282.519" r="6.531"/>
        <circle cx="210.931" cy="282.519" r="6.531"/>
        <circle cx="232.92" cy="282.519" r="6.531"/>
        <circle cx="254.909" cy="282.519" r="6.531"/>
        <circle cx="276.898" cy="282.519" r="6.531"/>
        <circle cx="298.887" cy="282.519" r="6.531"/>
        <circle cx="320.876" cy="282.519" r="6.531"/>
        <circle cx="342.865" cy="282.519" r="6.531"/>
        <circle cx="364.854" cy="282.519" r="6.531"/>
        <circle cx="111.98" cy="299.693" r="6.531"/>
        <circle cx="133.969" cy="299.693" r="6.531"/>
        <circle cx="155.958" cy="299.693" r="6.531"/>
        <circle cx="177.947" cy="299.693" r="6.531"/>
        <circle cx="199.937" cy="299.693" r="6.531"/>
        <circle cx="221.926" cy="299.693" r="6.531"/>
        <circle cx="243.915" cy="299.693" r="6.531"/>
        <circle cx="265.904" cy="299.693" r="6.531"/>
        <circle cx="287.893" cy="299.693" r="6.531"/>
        <circle cx="309.882" cy="299.693" r="6.531"/>
        <circle cx="331.871" cy="299.693" r="6.531"/>
        <circle cx="353.86" cy="299.693" r="6.531"/>
        <circle cx="100.986" cy="316.868" r="6.531"/>
        <circle cx="122.975" cy="316.868" r="6.531"/>
        <circle cx="144.964" cy="316.868" r="6.531"/>
        <circle cx="166.953" cy="316.868" r="6.531"/>
        <circle cx="188.942" cy="316.868" r="6.531"/>
        <circle cx="210.931" cy="316.868" r="6.531"/>
        <circle cx="232.92" cy="316.868" r="6.531"/>
        <circle cx="254.909" cy="316.868" r="6.531"/>
        <circle cx="276.898" cy="316.868" r="6.531"/>
        <circle cx="298.887" cy="316.868" r="6.531"/>
        <circle cx="320.876" cy="316.868" r="6.531"/>
        <circle cx="342.865" cy="316.868" r="6.531"/>
        <circle cx="364.854" cy="316.868" r="6.531"/>
        <circle cx="232.92" cy="145.121" r="6.531"/>
        <circle cx="111.98" cy="334.043" r="6.531"/>
        <circle cx="287.893" cy="334.043" r="6.531"/>
        <circle cx="254.909" cy="145.121" r="6.531"/>
        <circle cx="133.969" cy="334.043" r="6.531"/>
        <circle cx="309.882" cy="334.043" r="6.531"/>
        <circle cx="276.898" cy="145.121" r="6.531"/>
        <circle cx="155.958" cy="334.043" r="6.531"/>
        <circle cx="331.871" cy="334.043" r="6.531"/>
        <circle cx="298.887" cy="145.121" r="6.531"/>
        <circle cx="177.947" cy="334.043" r="6.531"/>
        <circle cx="353.86" cy="334.043" r="6.531"/>
        <circle cx="320.876" cy="145.121" r="6.531"/>
        <circle cx="199.937" cy="334.043" r="6.531"/>
        <circle cx="342.865" cy="145.121" r="6.531"/>
        <circle cx="221.926" cy="334.043" r="6.531"/>
        <circle cx="364.854" cy="145.121" r="6.531"/>
        <circle cx="243.915" cy="334.043" r="6.531"/>
        <circle cx="34.722" cy="145.121" r="6.531"/>
        <circle cx="1.738" cy="162.296" r="6.531"/>
        <circle cx="23.727" cy="162.296" r="6.531"/>
        <circle cx="45.716" cy="162.296" r="6.531"/>
        <circle cx="67.705" cy="162.296" r="6.531"/>
        <circle cx="89.694" cy="162.296" r="6.531"/>
        <circle cx="111.683" cy="162.296" r="6.531"/>
        <circle cx="133.672" cy="162.296" r="6.531"/>
        <circle cx="155.661" cy="162.296" r="6.531"/>
        <circle cx="177.65" cy="162.296" r="6.531"/>
        <circle cx="12.732" cy="351.217" r="6.531"/>
        <circle cx="34.722" cy="351.217" r="6.531"/>
        <circle cx="56.711" cy="351.217" r="6.531"/>
        <circle cx="12.732" cy="179.47" r="6.531"/>
        <circle cx="34.722" cy="179.47" r="6.531"/>
        <circle cx="56.711" cy="179.47" r="6.531"/>
        <circle cx="78.7" cy="179.47" r="6.531"/>
        <circle cx="100.689" cy="179.47" r="6.531"/>
        <circle cx="122.678" cy="179.47" r="6.531"/>
        <circle cx="144.667" cy="179.47" r="6.531"/>
        <circle cx="166.656" cy="179.47" r="6.531"/>
        <circle cx="1.738" cy="196.645" r="6.531"/>
        <circle cx="23.727" cy="196.645" r="6.531"/>
        <circle cx="45.716" cy="196.645" r="6.531"/>
        <circle cx="67.705" cy="196.645" r="6.531"/>
        <circle cx="89.694" cy="196.645" r="6.531"/>
        <circle cx="111.683" cy="196.645" r="6.531"/>
        <circle cx="133.672" cy="196.645" r="6.531"/>
        <circle cx="155.661" cy="196.645" r="6.531"/>
        <circle cx="12.732" cy="213.82" r="6.531"/>
        <circle cx="34.722" cy="213.82" r="6.531"/>
        <circle cx="56.711" cy="213.82" r="6.531"/>
        <circle cx="78.7" cy="213.82" r="6.531"/>
        <circle cx="100.689" cy="213.82" r="6.531"/>
        <circle cx="122.678" cy="213.82" r="6.531"/>
        <circle cx="144.667" cy="213.82" r="6.531"/>
        <circle cx="1.738" cy="230.994" r="6.531"/>
        <circle cx="23.727" cy="230.994" r="6.531"/>
        <circle cx="45.716" cy="230.994" r="6.531"/>
        <circle cx="67.705" cy="230.994" r="6.531"/>
        <circle cx="89.694" cy="230.994" r="6.531"/>
        <circle cx="111.683" cy="230.994" r="6.531"/>
        <circle cx="133.672" cy="230.994" r="6.531"/>
        <circle cx="12.732" cy="248.169" r="6.531"/>
        <circle cx="34.722" cy="248.169" r="6.531"/>
        <circle cx="56.711" cy="248.169" r="6.531"/>
        <circle cx="78.7" cy="248.169" r="6.531"/>
        <circle cx="100.689" cy="248.169" r="6.531"/>
        <circle cx="122.678" cy="248.169" r="6.531"/>
        <circle cx="1.738" cy="265.344" r="6.531"/>
        <circle cx="23.727" cy="265.344" r="6.531"/>
        <circle cx="45.716" cy="265.344" r="6.531"/>
        <circle cx="67.705" cy="265.344" r="6.531"/>
        <circle cx="89.694" cy="265.344" r="6.531"/>
        <circle cx="111.683" cy="265.344" r="6.531"/>
        <circle cx="12.732" cy="282.519" r="6.531"/>
        <circle cx="34.722" cy="282.519" r="6.531"/>
        <circle cx="56.711" cy="282.519" r="6.531"/>
        <circle cx="78.7" cy="282.519" r="6.531"/>
        <circle cx="100.689" cy="282.519" r="6.531"/>
        <circle cx="1.738" cy="299.693" r="6.531"/>
        <circle cx="23.727" cy="299.693" r="6.531"/>
        <circle cx="45.716" cy="299.693" r="6.531"/>
        <circle cx="67.705" cy="299.693" r="6.531"/>
        <circle cx="89.694" cy="299.693" r="6.531"/>
        <circle cx="12.732" cy="316.868" r="6.531"/>
        <circle cx="34.722" cy="316.868" r="6.531"/>
        <circle cx="56.711" cy="316.868" r="6.531"/>
        <circle cx="78.7" cy="316.868" r="6.531"/>
        <circle cx="56.711" cy="145.121" r="6.531"/>
        <circle cx="78.7" cy="145.121" r="6.531"/>
        <circle cx="100.689" cy="145.121" r="6.531"/>
        <circle cx="122.678" cy="145.121" r="6.531"/>
        <circle cx="1.738" cy="334.043" r="6.531"/>
        <circle cx="144.667" cy="145.121" r="6.531"/>
        <circle cx="23.727" cy="334.043" r="6.531"/>
        <circle cx="166.656" cy="145.121" r="6.531"/>
        <circle cx="45.716" cy="334.043" r="6.531"/>
        <circle cx="12.732" cy="145.121" r="6.531"/>
        <circle cx="188.645" cy="145.121" r="6.531"/>
        <circle cx="67.705" cy="334.043" r="6.531"/>
        <circle cx="298.899" cy="6.721" r="6.531"/>
        <circle cx="320.888" cy="6.721" r="6.531"/>
        <circle cx="342.877" cy="6.721" r="6.531"/>
        <circle cx="364.866" cy="6.721" r="6.531"/>
        <circle cx="287.904" cy="23.896" r="6.531"/>
        <circle cx="309.893" cy="23.896" r="6.531"/>
        <circle cx="331.883" cy="23.896" r="6.531"/>
        <circle cx="353.872" cy="23.896" r="6.531"/>
        <circle cx="276.91" cy="41.071" r="6.531"/>
        <circle cx="298.899" cy="41.071" r="6.531"/>
        <circle cx="320.888" cy="41.071" r="6.531"/>
        <circle cx="342.877" cy="41.071" r="6.531"/>
        <circle cx="364.866" cy="41.071" r="6.531"/>
        <circle cx="265.915" cy="58.245" r="6.531"/>
        <circle cx="287.904" cy="58.245" r="6.531"/>
        <circle cx="309.893" cy="58.245" r="6.531"/>
        <circle cx="331.883" cy="58.245" r="6.531"/>
        <circle cx="353.872" cy="58.245" r="6.531"/>
        <circle cx="254.921" cy="75.42" r="6.531"/>
        <circle cx="276.91" cy="75.42" r="6.531"/>
        <circle cx="298.899" cy="75.42" r="6.531"/>
        <circle cx="320.888" cy="75.42" r="6.531"/>
        <circle cx="342.877" cy="75.42" r="6.531"/>
        <circle cx="364.866" cy="75.42" r="6.531"/>
        <circle cx="243.926" cy="92.595" r="6.531"/>
        <circle cx="265.915" cy="92.595" r="6.531"/>
        <circle cx="287.904" cy="92.595" r="6.531"/>
        <circle cx="309.893" cy="92.595" r="6.531"/>
        <circle cx="331.883" cy="92.595" r="6.531"/>
        <circle cx="353.872" cy="92.595" r="6.531"/>
        <circle cx="232.932" cy="109.769" r="6.531"/>
        <circle cx="254.921" cy="109.769" r="6.531"/>
        <circle cx="276.91" cy="109.769" r="6.531"/>
        <circle cx="298.899" cy="109.769" r="6.531"/>
        <circle cx="320.888" cy="109.769" r="6.531"/>
        <circle cx="342.877" cy="109.769" r="6.531"/>
        <circle cx="364.866" cy="109.769" r="6.531"/>
        <circle cx="221.937" cy="126.944" r="6.531"/>
        <circle cx="243.926" cy="126.944" r="6.531"/>
        <circle cx="265.915" cy="126.944" r="6.531"/>
        <circle cx="287.904" cy="126.944" r="6.531"/>
        <circle cx="309.893" cy="126.944" r="6.531"/>
        <circle cx="331.883" cy="126.944" r="6.531"/>
        <circle cx="353.872" cy="126.944" r="6.531"/>
        <circle cx="12.744" cy="6.721" r="6.531"/>
        <circle cx="34.733" cy="6.721" r="6.531"/>
        <circle cx="56.722" cy="6.721" r="6.531"/>
        <circle cx="78.711" cy="6.721" r="6.531"/>
        <circle cx="100.7" cy="6.721" r="6.531"/>
        <circle cx="122.689" cy="6.721" r="6.531"/>
        <circle cx="144.678" cy="6.721" r="6.531"/>
        <circle cx="166.668" cy="6.721" r="6.531"/>
        <circle cx="188.657" cy="6.721" r="6.531"/>
        <circle cx="210.646" cy="6.721" r="6.531"/>
        <circle cx="232.635" cy="6.721" r="6.531"/>
        <circle cx="254.624" cy="6.721" r="6.531"/>
        <circle cx="276.613" cy="6.721" r="6.531"/>
        <circle cx="1.75" cy="23.896" r="6.531"/>
        <circle cx="23.739" cy="23.896" r="6.531"/>
        <circle cx="45.728" cy="23.896" r="6.531"/>
        <circle cx="67.717" cy="23.896" r="6.531"/>
        <circle cx="89.706" cy="23.896" r="6.531"/>
        <circle cx="111.695" cy="23.896" r="6.531"/>
        <circle cx="133.684" cy="23.896" r="6.531"/>
        <circle cx="155.673" cy="23.896" r="6.531"/>
        <circle cx="177.662" cy="23.896" r="6.531"/>
        <circle cx="199.651" cy="23.896" r="6.531"/>
        <circle cx="221.64" cy="23.896" r="6.531"/>
        <circle cx="243.629" cy="23.896" r="6.531"/>
        <circle cx="265.618" cy="23.896" r="6.531"/>
        <circle cx="12.744" cy="41.071" r="6.531"/>
        <circle cx="34.733" cy="41.071" r="6.531"/>
        <circle cx="56.722" cy="41.071" r="6.531"/>
        <circle cx="78.711" cy="41.071" r="6.531"/>
        <circle cx="100.7" cy="41.071" r="6.531"/>
        <circle cx="122.689" cy="41.071" r="6.531"/>
        <circle cx="144.678" cy="41.071" r="6.531"/>
        <circle cx="166.668" cy="41.071" r="6.531"/>
        <circle cx="188.657" cy="41.071" r="6.531"/>
        <circle cx="210.646" cy="41.071" r="6.531"/>
        <circle cx="232.635" cy="41.071" r="6.531"/>
        <circle cx="254.624" cy="41.071" r="6.531"/>
        <circle cx="1.75" cy="58.245" r="6.531"/>
        <circle cx="23.739" cy="58.245" r="6.531"/>
        <circle cx="45.728" cy="58.245" r="6.531"/>
        <circle cx="67.717" cy="58.245" r="6.531"/>
        <circle cx="89.706" cy="58.245" r="6.531"/>
        <circle cx="111.695" cy="58.245" r="6.531"/>
        <circle cx="133.684" cy="58.245" r="6.531"/>
        <circle cx="155.673" cy="58.245" r="6.531"/>
        <circle cx="177.662" cy="58.245" r="6.531"/>
        <circle cx="199.651" cy="58.245" r="6.531"/>
        <circle cx="221.64" cy="58.245" r="6.531"/>
        <circle cx="243.629" cy="58.245" r="6.531"/>
        <circle cx="12.744" cy="75.42" r="6.531"/>
        <circle cx="34.733" cy="75.42" r="6.531"/>
        <circle cx="56.722" cy="75.42" r="6.531"/>
        <circle cx="78.711" cy="75.42" r="6.531"/>
        <circle cx="100.7" cy="75.42" r="6.531"/>
        <circle cx="122.689" cy="75.42" r="6.531"/>
        <circle cx="144.678" cy="75.42" r="6.531"/>
        <circle cx="166.668" cy="75.42" r="6.531"/>
        <circle cx="188.657" cy="75.42" r="6.531"/>
        <circle cx="210.646" cy="75.42" r="6.531"/>
        <circle cx="232.635" cy="75.42" r="6.531"/>
        <circle cx="1.75" cy="92.595" r="6.531"/>
        <circle cx="23.739" cy="92.595" r="6.531"/>
        <circle cx="45.728" cy="92.595" r="6.531"/>
        <circle cx="67.717" cy="92.595" r="6.531"/>
        <circle cx="89.706" cy="92.595" r="6.531"/>
        <circle cx="111.695" cy="92.595" r="6.531"/>
        <circle cx="133.684" cy="92.595" r="6.531"/>
        <circle cx="155.673" cy="92.595" r="6.531"/>
        <circle cx="177.662" cy="92.595" r="6.531"/>
        <circle cx="199.651" cy="92.595" r="6.531"/>
        <circle cx="221.64" cy="92.595" r="6.531"/>
        <circle cx="12.744" cy="109.769" r="6.531"/>
        <circle cx="34.733" cy="109.769" r="6.531"/>
        <circle cx="56.722" cy="109.769" r="6.531"/>
        <circle cx="78.711" cy="109.769" r="6.531"/>
        <circle cx="100.7" cy="109.769" r="6.531"/>
        <circle cx="122.689" cy="109.769" r="6.531"/>
        <circle cx="144.678" cy="109.769" r="6.531"/>
        <circle cx="166.668" cy="109.769" r="6.531"/>
        <circle cx="188.657" cy="109.769" r="6.531"/>
        <circle cx="210.646" cy="109.769" r="6.531"/>
        <circle cx="1.75" cy="126.944" r="6.531"/>
        <circle cx="23.739" cy="126.944" r="6.531"/>
        <circle cx="45.728" cy="126.944" r="6.531"/>
        <circle cx="67.717" cy="126.944" r="6.531"/>
        <circle cx="89.706" cy="126.944" r="6.531"/>
        <circle cx="111.695" cy="126.944" r="6.531"/>
        <circle cx="133.684" cy="126.944" r="6.531"/>
        <circle cx="155.673" cy="126.944" r="6.531"/>
        <circle cx="177.662" cy="126.944" r="6.531"/>
        <circle cx="199.651" cy="126.944" r="6.531"/>
    </g>
</svg>