<svg clip-rule="evenodd" fill-rule="evenodd" stroke-linejoin="round" stroke-miterlimit="1.41421" viewBox="0 0 359 359"
     xmlns="http://www.w3.org/2000/svg">
    <clipPath id="a">
        <circle clip-rule="evenodd" cx="179.202" cy="178.976" r="178.971"/>
    </clipPath>
    <circle cx="179.202" cy="178.976" fill="none" r="178.971"/>
    <g clip-path="url(#a)" fill="#40290a">
        <circle cx="209.238" cy="142.334" r="4.529"/>
        <circle cx="125.376" cy="273.337" r="4.529"/>
        <circle cx="331.219" cy="142.334" r="4.529"/>
        <circle cx="247.357" cy="273.337" r="4.529"/>
        <circle cx="201.614" cy="154.244" r="4.529"/>
        <circle cx="216.862" cy="154.244" r="4.529"/>
        <circle cx="232.109" cy="154.244" r="4.529"/>
        <circle cx="247.357" cy="154.244" r="4.529"/>
        <circle cx="262.605" cy="154.244" r="4.529"/>
        <circle cx="277.852" cy="154.244" r="4.529"/>
        <circle cx="293.1" cy="154.244" r="4.529"/>
        <circle cx="308.348" cy="154.244" r="4.529"/>
        <circle cx="117.752" cy="285.246" r="4.529"/>
        <circle cx="133" cy="285.246" r="4.529"/>
        <circle cx="148.247" cy="285.246" r="4.529"/>
        <circle cx="163.495" cy="285.246" r="4.529"/>
        <circle cx="178.743" cy="285.246" r="4.529"/>
        <circle cx="193.99" cy="285.246" r="4.529"/>
        <circle cx="209.238" cy="285.246" r="4.529"/>
        <circle cx="224.486" cy="285.246" r="4.529"/>
        <circle cx="323.595" cy="154.244" r="4.529"/>
        <circle cx="338.843" cy="154.244" r="4.529"/>
        <circle cx="354.091" cy="154.244" r="4.529"/>
        <circle cx="239.733" cy="285.246" r="4.529"/>
        <circle cx="254.981" cy="285.246" r="4.529"/>
        <circle cx="270.229" cy="285.246" r="4.529"/>
        <circle cx="285.476" cy="285.246" r="4.529"/>
        <circle cx="300.724" cy="285.246" r="4.529"/>
        <circle cx="315.972" cy="285.246" r="4.529"/>
        <circle cx="331.219" cy="285.246" r="4.529"/>
        <circle cx="346.467" cy="285.246" r="4.529"/>
        <circle cx="193.99" cy="166.153" r="4.529"/>
        <circle cx="209.238" cy="166.153" r="4.529"/>
        <circle cx="224.486" cy="166.153" r="4.529"/>
        <circle cx="239.733" cy="166.153" r="4.529"/>
        <circle cx="254.981" cy="166.153" r="4.529"/>
        <circle cx="270.229" cy="166.153" r="4.529"/>
        <circle cx="285.476" cy="166.153" r="4.529"/>
        <circle cx="300.724" cy="166.153" r="4.529"/>
        <circle cx="110.128" cy="297.155" r="4.529"/>
        <circle cx="125.376" cy="297.155" r="4.529"/>
        <circle cx="140.624" cy="297.155" r="4.529"/>
        <circle cx="155.871" cy="297.155" r="4.529"/>
        <circle cx="171.119" cy="297.155" r="4.529"/>
        <circle cx="186.366" cy="297.155" r="4.529"/>
        <circle cx="201.614" cy="297.155" r="4.529"/>
        <circle cx="216.862" cy="297.155" r="4.529"/>
        <circle cx="315.972" cy="166.153" r="4.529"/>
        <circle cx="331.219" cy="166.153" r="4.529"/>
        <circle cx="346.467" cy="166.153" r="4.529"/>
        <circle cx="361.715" cy="166.153" r="4.529"/>
        <circle cx="232.109" cy="297.155" r="4.529"/>
        <circle cx="247.357" cy="297.155" r="4.529"/>
        <circle cx="262.605" cy="297.155" r="4.529"/>
        <circle cx="277.852" cy="297.155" r="4.529"/>
        <circle cx="293.1" cy="297.155" r="4.529"/>
        <circle cx="308.348" cy="297.155" r="4.529"/>
        <circle cx="323.595" cy="297.155" r="4.529"/>
        <circle cx="338.843" cy="297.155" r="4.529"/>
        <circle cx="186.366" cy="178.062" r="4.529"/>
        <circle cx="201.614" cy="178.062" r="4.529"/>
        <circle cx="216.862" cy="178.062" r="4.529"/>
        <circle cx="232.109" cy="178.062" r="4.529"/>
        <circle cx="247.357" cy="178.062" r="4.529"/>
        <circle cx="262.605" cy="178.062" r="4.529"/>
        <circle cx="277.852" cy="178.062" r="4.529"/>
        <circle cx="293.1" cy="178.062" r="4.529"/>
        <circle cx="102.504" cy="309.065" r="4.529"/>
        <circle cx="117.752" cy="309.065" r="4.529"/>
        <circle cx="133" cy="309.065" r="4.529"/>
        <circle cx="148.247" cy="309.065" r="4.529"/>
        <circle cx="163.495" cy="309.065" r="4.529"/>
        <circle cx="178.743" cy="309.065" r="4.529"/>
        <circle cx="193.99" cy="309.065" r="4.529"/>
        <circle cx="209.238" cy="309.065" r="4.529"/>
        <circle cx="308.348" cy="178.062" r="4.529"/>
        <circle cx="323.595" cy="178.062" r="4.529"/>
        <circle cx="338.843" cy="178.062" r="4.529"/>
        <circle cx="354.091" cy="178.062" r="4.529"/>
        <circle cx="224.486" cy="309.065" r="4.529"/>
        <circle cx="239.733" cy="309.065" r="4.529"/>
        <circle cx="254.981" cy="309.065" r="4.529"/>
        <circle cx="270.229" cy="309.065" r="4.529"/>
        <circle cx="285.476" cy="309.065" r="4.529"/>
        <circle cx="300.724" cy="309.065" r="4.529"/>
        <circle cx="315.972" cy="309.065" r="4.529"/>
        <circle cx="331.219" cy="309.065" r="4.529"/>
        <circle cx="178.743" cy="189.972" r="4.529"/>
        <circle cx="193.99" cy="189.972" r="4.529"/>
        <circle cx="209.238" cy="189.972" r="4.529"/>
        <circle cx="224.486" cy="189.972" r="4.529"/>
        <circle cx="239.733" cy="189.972" r="4.529"/>
        <circle cx="254.981" cy="189.972" r="4.529"/>
        <circle cx="270.229" cy="189.972" r="4.529"/>
        <circle cx="285.476" cy="189.972" r="4.529"/>
        <circle cx="94.881" cy="320.974" r="4.529"/>
        <circle cx="110.128" cy="320.974" r="4.529"/>
        <circle cx="125.376" cy="320.974" r="4.529"/>
        <circle cx="140.624" cy="320.974" r="4.529"/>
        <circle cx="155.871" cy="320.974" r="4.529"/>
        <circle cx="171.119" cy="320.974" r="4.529"/>
        <circle cx="186.366" cy="320.974" r="4.529"/>
        <circle cx="201.614" cy="320.974" r="4.529"/>
        <circle cx="300.724" cy="189.972" r="4.529"/>
        <circle cx="315.972" cy="189.972" r="4.529"/>
        <circle cx="331.219" cy="189.972" r="4.529"/>
        <circle cx="346.467" cy="189.972" r="4.529"/>
        <circle cx="361.715" cy="189.972" r="4.529"/>
        <circle cx="216.862" cy="320.974" r="4.529"/>
        <circle cx="232.109" cy="320.974" r="4.529"/>
        <circle cx="247.357" cy="320.974" r="4.529"/>
        <circle cx="262.605" cy="320.974" r="4.529"/>
        <circle cx="277.852" cy="320.974" r="4.529"/>
        <circle cx="293.1" cy="320.974" r="4.529"/>
        <circle cx="308.348" cy="320.974" r="4.529"/>
        <circle cx="323.595" cy="320.974" r="4.529"/>
        <circle cx="171.119" cy="201.881" r="4.529"/>
        <circle cx="186.366" cy="201.881" r="4.529"/>
        <circle cx="201.614" cy="201.881" r="4.529"/>
        <circle cx="216.862" cy="201.881" r="4.529"/>
        <circle cx="232.109" cy="201.881" r="4.529"/>
        <circle cx="247.357" cy="201.881" r="4.529"/>
        <circle cx="262.605" cy="201.881" r="4.529"/>
        <circle cx="277.852" cy="201.881" r="4.529"/>
        <circle cx="87.257" cy="332.883" r="4.529"/>
        <circle cx="102.504" cy="332.883" r="4.529"/>
        <circle cx="117.752" cy="332.883" r="4.529"/>
        <circle cx="133" cy="332.883" r="4.529"/>
        <circle cx="148.247" cy="332.883" r="4.529"/>
        <circle cx="163.495" cy="332.883" r="4.529"/>
        <circle cx="178.743" cy="332.883" r="4.529"/>
        <circle cx="193.99" cy="332.883" r="4.529"/>
        <circle cx="293.1" cy="201.881" r="4.529"/>
        <circle cx="308.348" cy="201.881" r="4.529"/>
        <circle cx="323.595" cy="201.881" r="4.529"/>
        <circle cx="338.843" cy="201.881" r="4.529"/>
        <circle cx="354.091" cy="201.881" r="4.529"/>
        <circle cx="209.238" cy="332.883" r="4.529"/>
        <circle cx="224.486" cy="332.883" r="4.529"/>
        <circle cx="239.733" cy="332.883" r="4.529"/>
        <circle cx="254.981" cy="332.883" r="4.529"/>
        <circle cx="270.229" cy="332.883" r="4.529"/>
        <circle cx="285.476" cy="332.883" r="4.529"/>
        <circle cx="300.724" cy="332.883" r="4.529"/>
        <circle cx="315.972" cy="332.883" r="4.529"/>
        <circle cx="163.495" cy="213.79" r="4.529"/>
        <circle cx="178.743" cy="213.79" r="4.529"/>
        <circle cx="193.99" cy="213.79" r="4.529"/>
        <circle cx="209.238" cy="213.79" r="4.529"/>
        <circle cx="224.486" cy="213.79" r="4.529"/>
        <circle cx="239.733" cy="213.79" r="4.529"/>
        <circle cx="254.981" cy="213.79" r="4.529"/>
        <circle cx="270.229" cy="213.79" r="4.529"/>
        <circle cx="79.633" cy="344.793" r="4.529"/>
        <circle cx="94.881" cy="344.793" r="4.529"/>
        <circle cx="110.128" cy="344.793" r="4.529"/>
        <circle cx="125.376" cy="344.793" r="4.529"/>
        <circle cx="140.624" cy="344.793" r="4.529"/>
        <circle cx="155.871" cy="344.793" r="4.529"/>
        <circle cx="171.119" cy="344.793" r="4.529"/>
        <circle cx="186.366" cy="344.793" r="4.529"/>
        <circle cx="285.476" cy="213.79" r="4.529"/>
        <circle cx="300.724" cy="213.79" r="4.529"/>
        <circle cx="315.972" cy="213.79" r="4.529"/>
        <circle cx="331.219" cy="213.79" r="4.529"/>
        <circle cx="346.467" cy="213.79" r="4.529"/>
        <circle cx="361.715" cy="213.79" r="4.529"/>
        <circle cx="201.614" cy="344.793" r="4.529"/>
        <circle cx="216.862" cy="344.793" r="4.529"/>
        <circle cx="232.109" cy="344.793" r="4.529"/>
        <circle cx="247.357" cy="344.793" r="4.529"/>
        <circle cx="262.605" cy="344.793" r="4.529"/>
        <circle cx="277.852" cy="344.793" r="4.529"/>
        <circle cx="293.1" cy="344.793" r="4.529"/>
        <circle cx="308.348" cy="344.793" r="4.529"/>
        <circle cx="155.871" cy="225.7" r="4.529"/>
        <circle cx="171.119" cy="225.7" r="4.529"/>
        <circle cx="186.366" cy="225.7" r="4.529"/>
        <circle cx="201.614" cy="225.7" r="4.529"/>
        <circle cx="216.862" cy="225.7" r="4.529"/>
        <circle cx="232.109" cy="225.7" r="4.529"/>
        <circle cx="247.357" cy="225.7" r="4.529"/>
        <circle cx="262.605" cy="225.7" r="4.529"/>
        <circle cx="72.009" cy="356.702" r="4.529"/>
        <circle cx="87.257" cy="356.702" r="4.529"/>
        <circle cx="102.504" cy="356.702" r="4.529"/>
        <circle cx="117.752" cy="356.702" r="4.529"/>
        <circle cx="133" cy="356.702" r="4.529"/>
        <circle cx="148.247" cy="356.702" r="4.529"/>
        <circle cx="163.495" cy="356.702" r="4.529"/>
        <circle cx="178.743" cy="356.702" r="4.529"/>
        <circle cx="277.852" cy="225.7" r="4.529"/>
        <circle cx="293.1" cy="225.7" r="4.529"/>
        <circle cx="308.348" cy="225.7" r="4.529"/>
        <circle cx="323.595" cy="225.7" r="4.529"/>
        <circle cx="338.843" cy="225.7" r="4.529"/>
        <circle cx="354.091" cy="225.7" r="4.529"/>
        <circle cx="193.99" cy="356.702" r="4.529"/>
        <circle cx="209.238" cy="356.702" r="4.529"/>
        <circle cx="224.486" cy="356.702" r="4.529"/>
        <circle cx="239.733" cy="356.702" r="4.529"/>
        <circle cx="254.981" cy="356.702" r="4.529"/>
        <circle cx="270.229" cy="356.702" r="4.529"/>
        <circle cx="285.476" cy="356.702" r="4.529"/>
        <circle cx="300.724" cy="356.702" r="4.529"/>
        <circle cx="148.247" cy="237.609" r="4.529"/>
        <circle cx="163.495" cy="237.609" r="4.529"/>
        <circle cx="178.743" cy="237.609" r="4.529"/>
        <circle cx="193.99" cy="237.609" r="4.529"/>
        <circle cx="209.238" cy="237.609" r="4.529"/>
        <circle cx="224.486" cy="237.609" r="4.529"/>
        <circle cx="239.733" cy="237.609" r="4.529"/>
        <circle cx="254.981" cy="237.609" r="4.529"/>
        <circle cx="270.229" cy="237.609" r="4.529"/>
        <circle cx="285.476" cy="237.609" r="4.529"/>
        <circle cx="300.724" cy="237.609" r="4.529"/>
        <circle cx="315.972" cy="237.609" r="4.529"/>
        <circle cx="331.219" cy="237.609" r="4.529"/>
        <circle cx="346.467" cy="237.609" r="4.529"/>
        <circle cx="361.715" cy="237.609" r="4.529"/>
        <circle cx="140.624" cy="249.518" r="4.529"/>
        <circle cx="155.871" cy="249.518" r="4.529"/>
        <circle cx="171.119" cy="249.518" r="4.529"/>
        <circle cx="186.366" cy="249.518" r="4.529"/>
        <circle cx="201.614" cy="249.518" r="4.529"/>
        <circle cx="216.862" cy="249.518" r="4.529"/>
        <circle cx="232.109" cy="249.518" r="4.529"/>
        <circle cx="247.357" cy="249.518" r="4.529"/>
        <circle cx="262.605" cy="249.518" r="4.529"/>
        <circle cx="277.852" cy="249.518" r="4.529"/>
        <circle cx="293.1" cy="249.518" r="4.529"/>
        <circle cx="308.348" cy="249.518" r="4.529"/>
        <circle cx="323.595" cy="249.518" r="4.529"/>
        <circle cx="338.843" cy="249.518" r="4.529"/>
        <circle cx="354.091" cy="249.518" r="4.529"/>
        <circle cx="133" cy="261.428" r="4.529"/>
        <circle cx="148.247" cy="261.428" r="4.529"/>
        <circle cx="163.495" cy="261.428" r="4.529"/>
        <circle cx="178.743" cy="261.428" r="4.529"/>
        <circle cx="193.99" cy="261.428" r="4.529"/>
        <circle cx="209.238" cy="261.428" r="4.529"/>
        <circle cx="224.486" cy="261.428" r="4.529"/>
        <circle cx="239.733" cy="261.428" r="4.529"/>
        <circle cx="254.981" cy="261.428" r="4.529"/>
        <circle cx="270.229" cy="261.428" r="4.529"/>
        <circle cx="285.476" cy="261.428" r="4.529"/>
        <circle cx="300.724" cy="261.428" r="4.529"/>
        <circle cx="315.972" cy="261.428" r="4.529"/>
        <circle cx="331.219" cy="261.428" r="4.529"/>
        <circle cx="346.467" cy="261.428" r="4.529"/>
        <circle cx="361.715" cy="261.428" r="4.529"/>
        <circle cx="224.486" cy="142.334" r="4.529"/>
        <circle cx="140.624" cy="273.337" r="4.529"/>
        <circle cx="346.467" cy="142.334" r="4.529"/>
        <circle cx="262.605" cy="273.337" r="4.529"/>
        <circle cx="239.733" cy="142.334" r="4.529"/>
        <circle cx="155.871" cy="273.337" r="4.529"/>
        <circle cx="361.715" cy="142.334" r="4.529"/>
        <circle cx="277.852" cy="273.337" r="4.529"/>
        <circle cx="254.981" cy="142.334" r="4.529"/>
        <circle cx="171.119" cy="273.337" r="4.529"/>
        <circle cx="293.1" cy="273.337" r="4.529"/>
        <circle cx="270.229" cy="142.334" r="4.529"/>
        <circle cx="186.366" cy="273.337" r="4.529"/>
        <circle cx="308.348" cy="273.337" r="4.529"/>
        <circle cx="285.476" cy="142.334" r="4.529"/>
        <circle cx="201.614" cy="273.337" r="4.529"/>
        <circle cx="323.595" cy="273.337" r="4.529"/>
        <circle cx="300.724" cy="142.334" r="4.529"/>
        <circle cx="216.862" cy="273.337" r="4.529"/>
        <circle cx="338.843" cy="273.337" r="4.529"/>
        <circle cx="315.972" cy="142.334" r="4.529"/>
        <circle cx="232.109" cy="273.337" r="4.529"/>
        <circle cx="354.091" cy="273.337" r="4.529"/>
        <circle cx="87.051" cy="142.334" r="4.529"/>
        <circle cx="3.189" cy="273.337" r="4.529"/>
        <circle cx="3.189" cy="154.244" r="4.529"/>
        <circle cx="18.436" cy="154.244" r="4.529"/>
        <circle cx="33.684" cy="154.244" r="4.529"/>
        <circle cx="48.932" cy="154.244" r="4.529"/>
        <circle cx="64.179" cy="154.244" r="4.529"/>
        <circle cx="79.427" cy="154.244" r="4.529"/>
        <circle cx="94.674" cy="154.244" r="4.529"/>
        <circle cx="109.922" cy="154.244" r="4.529"/>
        <circle cx="125.17" cy="154.244" r="4.529"/>
        <circle cx="140.417" cy="154.244" r="4.529"/>
        <circle cx="155.665" cy="154.244" r="4.529"/>
        <circle cx="170.913" cy="154.244" r="4.529"/>
        <circle cx="186.16" cy="154.244" r="4.529"/>
        <circle cx="-4.435" cy="285.246" r="4.529"/>
        <circle cx="10.812" cy="285.246" r="4.529"/>
        <circle cx="26.06" cy="285.246" r="4.529"/>
        <circle cx="41.308" cy="285.246" r="4.529"/>
        <circle cx="56.555" cy="285.246" r="4.529"/>
        <circle cx="71.803" cy="285.246" r="4.529"/>
        <circle cx="87.051" cy="285.246" r="4.529"/>
        <circle cx="102.298" cy="285.246" r="4.529"/>
        <circle cx="-4.435" cy="166.153" r="4.529"/>
        <circle cx="10.812" cy="166.153" r="4.529"/>
        <circle cx="26.06" cy="166.153" r="4.529"/>
        <circle cx="41.308" cy="166.153" r="4.529"/>
        <circle cx="56.555" cy="166.153" r="4.529"/>
        <circle cx="71.803" cy="166.153" r="4.529"/>
        <circle cx="87.051" cy="166.153" r="4.529"/>
        <circle cx="102.298" cy="166.153" r="4.529"/>
        <circle cx="117.546" cy="166.153" r="4.529"/>
        <circle cx="132.794" cy="166.153" r="4.529"/>
        <circle cx="148.041" cy="166.153" r="4.529"/>
        <circle cx="163.289" cy="166.153" r="4.529"/>
        <circle cx="178.537" cy="166.153" r="4.529"/>
        <circle cx="3.189" cy="297.155" r="4.529"/>
        <circle cx="18.436" cy="297.155" r="4.529"/>
        <circle cx="33.684" cy="297.155" r="4.529"/>
        <circle cx="48.932" cy="297.155" r="4.529"/>
        <circle cx="64.179" cy="297.155" r="4.529"/>
        <circle cx="79.427" cy="297.155" r="4.529"/>
        <circle cx="94.674" cy="297.155" r="4.529"/>
        <circle cx="3.189" cy="178.062" r="4.529"/>
        <circle cx="18.436" cy="178.062" r="4.529"/>
        <circle cx="33.684" cy="178.062" r="4.529"/>
        <circle cx="48.932" cy="178.062" r="4.529"/>
        <circle cx="64.179" cy="178.062" r="4.529"/>
        <circle cx="79.427" cy="178.062" r="4.529"/>
        <circle cx="94.674" cy="178.062" r="4.529"/>
        <circle cx="109.922" cy="178.062" r="4.529"/>
        <circle cx="125.17" cy="178.062" r="4.529"/>
        <circle cx="140.417" cy="178.062" r="4.529"/>
        <circle cx="155.665" cy="178.062" r="4.529"/>
        <circle cx="170.913" cy="178.062" r="4.529"/>
        <circle cx="-4.435" cy="309.065" r="4.529"/>
        <circle cx="10.812" cy="309.065" r="4.529"/>
        <circle cx="26.06" cy="309.065" r="4.529"/>
        <circle cx="41.308" cy="309.065" r="4.529"/>
        <circle cx="56.555" cy="309.065" r="4.529"/>
        <circle cx="71.803" cy="309.065" r="4.529"/>
        <circle cx="87.051" cy="309.065" r="4.529"/>
        <circle cx="-4.435" cy="189.972" r="4.529"/>
        <circle cx="10.812" cy="189.972" r="4.529"/>
        <circle cx="26.06" cy="189.972" r="4.529"/>
        <circle cx="41.308" cy="189.972" r="4.529"/>
        <circle cx="56.555" cy="189.972" r="4.529"/>
        <circle cx="71.803" cy="189.972" r="4.529"/>
        <circle cx="87.051" cy="189.972" r="4.529"/>
        <circle cx="102.298" cy="189.972" r="4.529"/>
        <circle cx="117.546" cy="189.972" r="4.529"/>
        <circle cx="132.794" cy="189.972" r="4.529"/>
        <circle cx="148.041" cy="189.972" r="4.529"/>
        <circle cx="163.289" cy="189.972" r="4.529"/>
        <circle cx="3.189" cy="320.974" r="4.529"/>
        <circle cx="18.436" cy="320.974" r="4.529"/>
        <circle cx="33.684" cy="320.974" r="4.529"/>
        <circle cx="48.932" cy="320.974" r="4.529"/>
        <circle cx="64.179" cy="320.974" r="4.529"/>
        <circle cx="79.427" cy="320.974" r="4.529"/>
        <circle cx="3.189" cy="201.881" r="4.529"/>
        <circle cx="18.436" cy="201.881" r="4.529"/>
        <circle cx="33.684" cy="201.881" r="4.529"/>
        <circle cx="48.932" cy="201.881" r="4.529"/>
        <circle cx="64.179" cy="201.881" r="4.529"/>
        <circle cx="79.427" cy="201.881" r="4.529"/>
        <circle cx="94.674" cy="201.881" r="4.529"/>
        <circle cx="109.922" cy="201.881" r="4.529"/>
        <circle cx="125.17" cy="201.881" r="4.529"/>
        <circle cx="140.417" cy="201.881" r="4.529"/>
        <circle cx="155.665" cy="201.881" r="4.529"/>
        <circle cx="-4.435" cy="332.883" r="4.529"/>
        <circle cx="10.812" cy="332.883" r="4.529"/>
        <circle cx="26.06" cy="332.883" r="4.529"/>
        <circle cx="41.308" cy="332.883" r="4.529"/>
        <circle cx="56.555" cy="332.883" r="4.529"/>
        <circle cx="71.803" cy="332.883" r="4.529"/>
        <circle cx="-4.435" cy="213.79" r="4.529"/>
        <circle cx="10.812" cy="213.79" r="4.529"/>
        <circle cx="26.06" cy="213.79" r="4.529"/>
        <circle cx="41.308" cy="213.79" r="4.529"/>
        <circle cx="56.555" cy="213.79" r="4.529"/>
        <circle cx="71.803" cy="213.79" r="4.529"/>
        <circle cx="87.051" cy="213.79" r="4.529"/>
        <circle cx="102.298" cy="213.79" r="4.529"/>
        <circle cx="117.546" cy="213.79" r="4.529"/>
        <circle cx="132.794" cy="213.79" r="4.529"/>
        <circle cx="148.041" cy="213.79" r="4.529"/>
        <circle cx="3.189" cy="344.793" r="4.529"/>
        <circle cx="18.436" cy="344.793" r="4.529"/>
        <circle cx="33.684" cy="344.793" r="4.529"/>
        <circle cx="48.932" cy="344.793" r="4.529"/>
        <circle cx="64.179" cy="344.793" r="4.529"/>
        <circle cx="3.189" cy="225.7" r="4.529"/>
        <circle cx="18.436" cy="225.7" r="4.529"/>
        <circle cx="33.684" cy="225.7" r="4.529"/>
        <circle cx="48.932" cy="225.7" r="4.529"/>
        <circle cx="64.179" cy="225.7" r="4.529"/>
        <circle cx="79.427" cy="225.7" r="4.529"/>
        <circle cx="94.674" cy="225.7" r="4.529"/>
        <circle cx="109.922" cy="225.7" r="4.529"/>
        <circle cx="125.17" cy="225.7" r="4.529"/>
        <circle cx="140.417" cy="225.7" r="4.529"/>
        <circle cx="-4.435" cy="356.702" r="4.529"/>
        <circle cx="10.812" cy="356.702" r="4.529"/>
        <circle cx="26.06" cy="356.702" r="4.529"/>
        <circle cx="41.308" cy="356.702" r="4.529"/>
        <circle cx="56.555" cy="356.702" r="4.529"/>
        <circle cx="-4.435" cy="237.609" r="4.529"/>
        <circle cx="10.812" cy="237.609" r="4.529"/>
        <circle cx="26.06" cy="237.609" r="4.529"/>
        <circle cx="41.308" cy="237.609" r="4.529"/>
        <circle cx="56.555" cy="237.609" r="4.529"/>
        <circle cx="71.803" cy="237.609" r="4.529"/>
        <circle cx="87.051" cy="237.609" r="4.529"/>
        <circle cx="102.298" cy="237.609" r="4.529"/>
        <circle cx="117.546" cy="237.609" r="4.529"/>
        <circle cx="132.794" cy="237.609" r="4.529"/>
        <circle cx="3.189" cy="249.518" r="4.529"/>
        <circle cx="18.436" cy="249.518" r="4.529"/>
        <circle cx="33.684" cy="249.518" r="4.529"/>
        <circle cx="48.932" cy="249.518" r="4.529"/>
        <circle cx="64.179" cy="249.518" r="4.529"/>
        <circle cx="79.427" cy="249.518" r="4.529"/>
        <circle cx="94.674" cy="249.518" r="4.529"/>
        <circle cx="109.922" cy="249.518" r="4.529"/>
        <circle cx="125.17" cy="249.518" r="4.529"/>
        <circle cx="-4.435" cy="261.428" r="4.529"/>
        <circle cx="10.812" cy="261.428" r="4.529"/>
        <circle cx="26.06" cy="261.428" r="4.529"/>
        <circle cx="41.308" cy="261.428" r="4.529"/>
        <circle cx="56.555" cy="261.428" r="4.529"/>
        <circle cx="71.803" cy="261.428" r="4.529"/>
        <circle cx="87.051" cy="261.428" r="4.529"/>
        <circle cx="102.298" cy="261.428" r="4.529"/>
        <circle cx="117.546" cy="261.428" r="4.529"/>
        <circle cx="102.298" cy="142.334" r="4.529"/>
        <circle cx="18.436" cy="273.337" r="4.529"/>
        <circle cx="-4.435" cy="142.334" r="4.529"/>
        <circle cx="117.546" cy="142.334" r="4.529"/>
        <circle cx="33.684" cy="273.337" r="4.529"/>
        <circle cx="10.812" cy="142.334" r="4.529"/>
        <circle cx="132.794" cy="142.334" r="4.529"/>
        <circle cx="48.932" cy="273.337" r="4.529"/>
        <circle cx="26.06" cy="142.334" r="4.529"/>
        <circle cx="148.041" cy="142.334" r="4.529"/>
        <circle cx="64.179" cy="273.337" r="4.529"/>
        <circle cx="41.308" cy="142.334" r="4.529"/>
        <circle cx="163.289" cy="142.334" r="4.529"/>
        <circle cx="79.427" cy="273.337" r="4.529"/>
        <circle cx="56.555" cy="142.334" r="4.529"/>
        <circle cx="178.537" cy="142.334" r="4.529"/>
        <circle cx="94.674" cy="273.337" r="4.529"/>
        <circle cx="71.803" cy="142.334" r="4.529"/>
        <circle cx="193.784" cy="142.334" r="4.529"/>
        <circle cx="109.922" cy="273.337" r="4.529"/>
        <circle cx="293.108" cy="10.637" r="4.529"/>
        <circle cx="285.484" cy="22.547" r="4.529"/>
        <circle cx="300.732" cy="22.547" r="4.529"/>
        <circle cx="315.98" cy="22.547" r="4.529"/>
        <circle cx="331.227" cy="22.547" r="4.529"/>
        <circle cx="346.475" cy="22.547" r="4.529"/>
        <circle cx="361.723" cy="22.547" r="4.529"/>
        <circle cx="277.861" cy="34.456" r="4.529"/>
        <circle cx="293.108" cy="34.456" r="4.529"/>
        <circle cx="308.356" cy="34.456" r="4.529"/>
        <circle cx="323.604" cy="34.456" r="4.529"/>
        <circle cx="338.851" cy="34.456" r="4.529"/>
        <circle cx="354.099" cy="34.456" r="4.529"/>
        <circle cx="270.237" cy="46.365" r="4.529"/>
        <circle cx="285.484" cy="46.365" r="4.529"/>
        <circle cx="300.732" cy="46.365" r="4.529"/>
        <circle cx="315.98" cy="46.365" r="4.529"/>
        <circle cx="331.227" cy="46.365" r="4.529"/>
        <circle cx="346.475" cy="46.365" r="4.529"/>
        <circle cx="361.723" cy="46.365" r="4.529"/>
        <circle cx="262.613" cy="58.275" r="4.529"/>
        <circle cx="277.861" cy="58.275" r="4.529"/>
        <circle cx="293.108" cy="58.275" r="4.529"/>
        <circle cx="308.356" cy="58.275" r="4.529"/>
        <circle cx="323.604" cy="58.275" r="4.529"/>
        <circle cx="338.851" cy="58.275" r="4.529"/>
        <circle cx="354.099" cy="58.275" r="4.529"/>
        <circle cx="254.989" cy="70.184" r="4.529"/>
        <circle cx="270.237" cy="70.184" r="4.529"/>
        <circle cx="285.484" cy="70.184" r="4.529"/>
        <circle cx="300.732" cy="70.184" r="4.529"/>
        <circle cx="315.98" cy="70.184" r="4.529"/>
        <circle cx="331.227" cy="70.184" r="4.529"/>
        <circle cx="346.475" cy="70.184" r="4.529"/>
        <circle cx="361.723" cy="70.184" r="4.529"/>
        <circle cx="247.365" cy="82.093" r="4.529"/>
        <circle cx="262.613" cy="82.093" r="4.529"/>
        <circle cx="277.861" cy="82.093" r="4.529"/>
        <circle cx="293.108" cy="82.093" r="4.529"/>
        <circle cx="308.356" cy="82.093" r="4.529"/>
        <circle cx="323.604" cy="82.093" r="4.529"/>
        <circle cx="338.851" cy="82.093" r="4.529"/>
        <circle cx="354.099" cy="82.093" r="4.529"/>
        <circle cx="239.741" cy="94.003" r="4.529"/>
        <circle cx="254.989" cy="94.003" r="4.529"/>
        <circle cx="270.237" cy="94.003" r="4.529"/>
        <circle cx="285.484" cy="94.003" r="4.529"/>
        <circle cx="300.732" cy="94.003" r="4.529"/>
        <circle cx="315.98" cy="94.003" r="4.529"/>
        <circle cx="331.227" cy="94.003" r="4.529"/>
        <circle cx="346.475" cy="94.003" r="4.529"/>
        <circle cx="361.723" cy="94.003" r="4.529"/>
        <circle cx="232.118" cy="105.912" r="4.529"/>
        <circle cx="247.365" cy="105.912" r="4.529"/>
        <circle cx="262.613" cy="105.912" r="4.529"/>
        <circle cx="277.861" cy="105.912" r="4.529"/>
        <circle cx="293.108" cy="105.912" r="4.529"/>
        <circle cx="308.356" cy="105.912" r="4.529"/>
        <circle cx="323.604" cy="105.912" r="4.529"/>
        <circle cx="338.851" cy="105.912" r="4.529"/>
        <circle cx="354.099" cy="105.912" r="4.529"/>
        <circle cx="224.494" cy="117.821" r="4.529"/>
        <circle cx="239.741" cy="117.821" r="4.529"/>
        <circle cx="254.989" cy="117.821" r="4.529"/>
        <circle cx="270.237" cy="117.821" r="4.529"/>
        <circle cx="285.484" cy="117.821" r="4.529"/>
        <circle cx="300.732" cy="117.821" r="4.529"/>
        <circle cx="315.98" cy="117.821" r="4.529"/>
        <circle cx="331.227" cy="117.821" r="4.529"/>
        <circle cx="346.475" cy="117.821" r="4.529"/>
        <circle cx="361.723" cy="117.821" r="4.529"/>
        <circle cx="300.732" cy="-1.272" r="4.529"/>
        <circle cx="315.98" cy="-1.272" r="4.529"/>
        <circle cx="331.227" cy="-1.272" r="4.529"/>
        <circle cx="346.475" cy="-1.272" r="4.529"/>
        <circle cx="361.723" cy="-1.272" r="4.529"/>
        <circle cx="216.87" cy="129.73" r="4.529"/>
        <circle cx="232.118" cy="129.73" r="4.529"/>
        <circle cx="247.365" cy="129.73" r="4.529"/>
        <circle cx="262.613" cy="129.73" r="4.529"/>
        <circle cx="277.861" cy="129.73" r="4.529"/>
        <circle cx="293.108" cy="129.73" r="4.529"/>
        <circle cx="308.356" cy="129.73" r="4.529"/>
        <circle cx="323.604" cy="129.73" r="4.529"/>
        <circle cx="338.851" cy="129.73" r="4.529"/>
        <circle cx="354.099" cy="129.73" r="4.529"/>
        <circle cx="308.356" cy="10.637" r="4.529"/>
        <circle cx="323.604" cy="10.637" r="4.529"/>
        <circle cx="338.851" cy="10.637" r="4.529"/>
        <circle cx="354.099" cy="10.637" r="4.529"/>
        <circle cx="48.94" cy="10.637" r="4.529"/>
        <circle cx="170.921" cy="10.637" r="4.529"/>
        <circle cx="41.316" cy="22.547" r="4.529"/>
        <circle cx="56.563" cy="22.547" r="4.529"/>
        <circle cx="71.811" cy="22.547" r="4.529"/>
        <circle cx="87.059" cy="22.547" r="4.529"/>
        <circle cx="102.306" cy="22.547" r="4.529"/>
        <circle cx="117.554" cy="22.547" r="4.529"/>
        <circle cx="132.802" cy="22.547" r="4.529"/>
        <circle cx="148.049" cy="22.547" r="4.529"/>
        <circle cx="163.297" cy="22.547" r="4.529"/>
        <circle cx="178.545" cy="22.547" r="4.529"/>
        <circle cx="193.792" cy="22.547" r="4.529"/>
        <circle cx="209.04" cy="22.547" r="4.529"/>
        <circle cx="224.288" cy="22.547" r="4.529"/>
        <circle cx="239.535" cy="22.547" r="4.529"/>
        <circle cx="254.783" cy="22.547" r="4.529"/>
        <circle cx="270.031" cy="22.547" r="4.529"/>
        <circle cx="33.692" cy="34.456" r="4.529"/>
        <circle cx="48.94" cy="34.456" r="4.529"/>
        <circle cx="64.187" cy="34.456" r="4.529"/>
        <circle cx="79.435" cy="34.456" r="4.529"/>
        <circle cx="94.683" cy="34.456" r="4.529"/>
        <circle cx="109.93" cy="34.456" r="4.529"/>
        <circle cx="125.178" cy="34.456" r="4.529"/>
        <circle cx="140.426" cy="34.456" r="4.529"/>
        <circle cx="155.673" cy="34.456" r="4.529"/>
        <circle cx="170.921" cy="34.456" r="4.529"/>
        <circle cx="186.169" cy="34.456" r="4.529"/>
        <circle cx="201.416" cy="34.456" r="4.529"/>
        <circle cx="216.664" cy="34.456" r="4.529"/>
        <circle cx="231.912" cy="34.456" r="4.529"/>
        <circle cx="247.159" cy="34.456" r="4.529"/>
        <circle cx="262.407" cy="34.456" r="4.529"/>
        <circle cx="26.068" cy="46.365" r="4.529"/>
        <circle cx="41.316" cy="46.365" r="4.529"/>
        <circle cx="56.563" cy="46.365" r="4.529"/>
        <circle cx="71.811" cy="46.365" r="4.529"/>
        <circle cx="87.059" cy="46.365" r="4.529"/>
        <circle cx="102.306" cy="46.365" r="4.529"/>
        <circle cx="117.554" cy="46.365" r="4.529"/>
        <circle cx="132.802" cy="46.365" r="4.529"/>
        <circle cx="148.049" cy="46.365" r="4.529"/>
        <circle cx="163.297" cy="46.365" r="4.529"/>
        <circle cx="178.545" cy="46.365" r="4.529"/>
        <circle cx="193.792" cy="46.365" r="4.529"/>
        <circle cx="209.04" cy="46.365" r="4.529"/>
        <circle cx="224.288" cy="46.365" r="4.529"/>
        <circle cx="239.535" cy="46.365" r="4.529"/>
        <circle cx="254.783" cy="46.365" r="4.529"/>
        <circle cx="18.444" cy="58.275" r="4.529"/>
        <circle cx="33.692" cy="58.275" r="4.529"/>
        <circle cx="48.94" cy="58.275" r="4.529"/>
        <circle cx="64.187" cy="58.275" r="4.529"/>
        <circle cx="79.435" cy="58.275" r="4.529"/>
        <circle cx="94.683" cy="58.275" r="4.529"/>
        <circle cx="109.93" cy="58.275" r="4.529"/>
        <circle cx="125.178" cy="58.275" r="4.529"/>
        <circle cx="140.426" cy="58.275" r="4.529"/>
        <circle cx="155.673" cy="58.275" r="4.529"/>
        <circle cx="170.921" cy="58.275" r="4.529"/>
        <circle cx="186.169" cy="58.275" r="4.529"/>
        <circle cx="201.416" cy="58.275" r="4.529"/>
        <circle cx="216.664" cy="58.275" r="4.529"/>
        <circle cx="231.912" cy="58.275" r="4.529"/>
        <circle cx="247.159" cy="58.275" r="4.529"/>
        <circle cx="10.821" cy="70.184" r="4.529"/>
        <circle cx="26.068" cy="70.184" r="4.529"/>
        <circle cx="41.316" cy="70.184" r="4.529"/>
        <circle cx="56.563" cy="70.184" r="4.529"/>
        <circle cx="71.811" cy="70.184" r="4.529"/>
        <circle cx="87.059" cy="70.184" r="4.529"/>
        <circle cx="102.306" cy="70.184" r="4.529"/>
        <circle cx="117.554" cy="70.184" r="4.529"/>
        <circle cx="132.802" cy="70.184" r="4.529"/>
        <circle cx="148.049" cy="70.184" r="4.529"/>
        <circle cx="163.297" cy="70.184" r="4.529"/>
        <circle cx="178.545" cy="70.184" r="4.529"/>
        <circle cx="193.792" cy="70.184" r="4.529"/>
        <circle cx="209.04" cy="70.184" r="4.529"/>
        <circle cx="224.288" cy="70.184" r="4.529"/>
        <circle cx="239.535" cy="70.184" r="4.529"/>
        <circle cx="3.197" cy="82.093" r="4.529"/>
        <circle cx="18.444" cy="82.093" r="4.529"/>
        <circle cx="33.692" cy="82.093" r="4.529"/>
        <circle cx="48.94" cy="82.093" r="4.529"/>
        <circle cx="64.187" cy="82.093" r="4.529"/>
        <circle cx="79.435" cy="82.093" r="4.529"/>
        <circle cx="94.683" cy="82.093" r="4.529"/>
        <circle cx="109.93" cy="82.093" r="4.529"/>
        <circle cx="125.178" cy="82.093" r="4.529"/>
        <circle cx="140.426" cy="82.093" r="4.529"/>
        <circle cx="155.673" cy="82.093" r="4.529"/>
        <circle cx="170.921" cy="82.093" r="4.529"/>
        <circle cx="186.169" cy="82.093" r="4.529"/>
        <circle cx="201.416" cy="82.093" r="4.529"/>
        <circle cx="216.664" cy="82.093" r="4.529"/>
        <circle cx="231.912" cy="82.093" r="4.529"/>
        <circle cx="-4.427" cy="94.003" r="4.529"/>
        <circle cx="10.821" cy="94.003" r="4.529"/>
        <circle cx="26.068" cy="94.003" r="4.529"/>
        <circle cx="41.316" cy="94.003" r="4.529"/>
        <circle cx="56.563" cy="94.003" r="4.529"/>
        <circle cx="71.811" cy="94.003" r="4.529"/>
        <circle cx="87.059" cy="94.003" r="4.529"/>
        <circle cx="102.306" cy="94.003" r="4.529"/>
        <circle cx="117.554" cy="94.003" r="4.529"/>
        <circle cx="132.802" cy="94.003" r="4.529"/>
        <circle cx="148.049" cy="94.003" r="4.529"/>
        <circle cx="163.297" cy="94.003" r="4.529"/>
        <circle cx="178.545" cy="94.003" r="4.529"/>
        <circle cx="193.792" cy="94.003" r="4.529"/>
        <circle cx="209.04" cy="94.003" r="4.529"/>
        <circle cx="224.288" cy="94.003" r="4.529"/>
        <circle cx="3.197" cy="105.912" r="4.529"/>
        <circle cx="18.444" cy="105.912" r="4.529"/>
        <circle cx="33.692" cy="105.912" r="4.529"/>
        <circle cx="48.94" cy="105.912" r="4.529"/>
        <circle cx="64.187" cy="105.912" r="4.529"/>
        <circle cx="79.435" cy="105.912" r="4.529"/>
        <circle cx="94.683" cy="105.912" r="4.529"/>
        <circle cx="109.93" cy="105.912" r="4.529"/>
        <circle cx="125.178" cy="105.912" r="4.529"/>
        <circle cx="140.426" cy="105.912" r="4.529"/>
        <circle cx="155.673" cy="105.912" r="4.529"/>
        <circle cx="170.921" cy="105.912" r="4.529"/>
        <circle cx="186.169" cy="105.912" r="4.529"/>
        <circle cx="201.416" cy="105.912" r="4.529"/>
        <circle cx="216.664" cy="105.912" r="4.529"/>
        <circle cx="-4.427" cy="117.821" r="4.529"/>
        <circle cx="10.821" cy="117.821" r="4.529"/>
        <circle cx="26.068" cy="117.821" r="4.529"/>
        <circle cx="41.316" cy="117.821" r="4.529"/>
        <circle cx="56.563" cy="117.821" r="4.529"/>
        <circle cx="71.811" cy="117.821" r="4.529"/>
        <circle cx="87.059" cy="117.821" r="4.529"/>
        <circle cx="102.306" cy="117.821" r="4.529"/>
        <circle cx="117.554" cy="117.821" r="4.529"/>
        <circle cx="132.802" cy="117.821" r="4.529"/>
        <circle cx="148.049" cy="117.821" r="4.529"/>
        <circle cx="163.297" cy="117.821" r="4.529"/>
        <circle cx="178.545" cy="117.821" r="4.529"/>
        <circle cx="193.792" cy="117.821" r="4.529"/>
        <circle cx="209.04" cy="117.821" r="4.529"/>
        <circle cx="56.563" cy="-1.272" r="4.529"/>
        <circle cx="71.811" cy="-1.272" r="4.529"/>
        <circle cx="87.059" cy="-1.272" r="4.529"/>
        <circle cx="102.306" cy="-1.272" r="4.529"/>
        <circle cx="117.554" cy="-1.272" r="4.529"/>
        <circle cx="132.802" cy="-1.272" r="4.529"/>
        <circle cx="148.049" cy="-1.272" r="4.529"/>
        <circle cx="163.297" cy="-1.272" r="4.529"/>
        <circle cx="3.197" cy="129.73" r="4.529"/>
        <circle cx="18.444" cy="129.73" r="4.529"/>
        <circle cx="33.692" cy="129.73" r="4.529"/>
        <circle cx="48.94" cy="129.73" r="4.529"/>
        <circle cx="64.187" cy="129.73" r="4.529"/>
        <circle cx="79.435" cy="129.73" r="4.529"/>
        <circle cx="178.545" cy="-1.272" r="4.529"/>
        <circle cx="193.792" cy="-1.272" r="4.529"/>
        <circle cx="209.04" cy="-1.272" r="4.529"/>
        <circle cx="224.288" cy="-1.272" r="4.529"/>
        <circle cx="239.535" cy="-1.272" r="4.529"/>
        <circle cx="254.783" cy="-1.272" r="4.529"/>
        <circle cx="270.031" cy="-1.272" r="4.529"/>
        <circle cx="285.278" cy="-1.272" r="4.529"/>
        <circle cx="94.683" cy="129.73" r="4.529"/>
        <circle cx="109.93" cy="129.73" r="4.529"/>
        <circle cx="125.178" cy="129.73" r="4.529"/>
        <circle cx="140.426" cy="129.73" r="4.529"/>
        <circle cx="155.673" cy="129.73" r="4.529"/>
        <circle cx="170.921" cy="129.73" r="4.529"/>
        <circle cx="186.169" cy="129.73" r="4.529"/>
        <circle cx="201.416" cy="129.73" r="4.529"/>
        <circle cx="64.187" cy="10.637" r="4.529"/>
        <circle cx="186.169" cy="10.637" r="4.529"/>
        <circle cx="79.435" cy="10.637" r="4.529"/>
        <circle cx="201.416" cy="10.637" r="4.529"/>
        <circle cx="94.683" cy="10.637" r="4.529"/>
        <circle cx="216.664" cy="10.637" r="4.529"/>
        <circle cx="109.93" cy="10.637" r="4.529"/>
        <circle cx="231.912" cy="10.637" r="4.529"/>
        <circle cx="125.178" cy="10.637" r="4.529"/>
        <circle cx="247.159" cy="10.637" r="4.529"/>
        <circle cx="140.426" cy="10.637" r="4.529"/>
        <circle cx="262.407" cy="10.637" r="4.529"/>
        <circle cx="155.673" cy="10.637" r="4.529"/>
        <circle cx="277.654" cy="10.637" r="4.529"/>
    </g>
</svg>