<svg clip-rule="evenodd" fill-rule="evenodd" stroke-linejoin="round" stroke-miterlimit="1.41421" viewBox="0 0 359 359"
     xmlns="http://www.w3.org/2000/svg">
    <clipPath id="a">
        <circle clip-rule="evenodd" cx="179.094" cy="178.976" r="178.971"/>
    </clipPath>
    <circle cx="179.094" cy="178.976" fill="none" r="178.971"/>
    <g clip-path="url(#a)" fill="#40290a">
        <circle cx="215.76" cy="153.018" r="12.206"/>
        <circle cx="195.212" cy="185.117" r="12.206"/>
        <circle cx="236.308" cy="185.117" r="12.206"/>
        <circle cx="277.405" cy="185.117" r="12.206"/>
        <circle cx="318.502" cy="185.117" r="12.206"/>
        <circle cx="359.598" cy="185.117" r="12.206"/>
        <circle cx="174.663" cy="217.216" r="12.206"/>
        <circle cx="215.76" cy="217.216" r="12.206"/>
        <circle cx="256.857" cy="217.216" r="12.206"/>
        <circle cx="297.953" cy="217.216" r="12.206"/>
        <circle cx="339.05" cy="217.216" r="12.206"/>
        <circle cx="154.115" cy="249.315" r="12.206"/>
        <circle cx="195.212" cy="249.315" r="12.206"/>
        <circle cx="236.308" cy="249.315" r="12.206"/>
        <circle cx="277.405" cy="249.315" r="12.206"/>
        <circle cx="318.502" cy="249.315" r="12.206"/>
        <circle cx="359.598" cy="249.315" r="12.206"/>
        <circle cx="133.567" cy="281.414" r="12.206"/>
        <circle cx="174.663" cy="281.414" r="12.206"/>
        <circle cx="215.76" cy="281.414" r="12.206"/>
        <circle cx="256.857" cy="281.414" r="12.206"/>
        <circle cx="297.953" cy="281.414" r="12.206"/>
        <circle cx="339.05" cy="281.414" r="12.206"/>
        <circle cx="113.018" cy="313.513" r="12.206"/>
        <circle cx="154.115" cy="313.513" r="12.206"/>
        <circle cx="195.212" cy="313.513" r="12.206"/>
        <circle cx="236.308" cy="313.513" r="12.206"/>
        <circle cx="277.405" cy="313.513" r="12.206"/>
        <circle cx="318.502" cy="313.513" r="12.206"/>
        <circle cx="359.598" cy="313.513" r="12.206"/>
        <circle cx="92.47" cy="345.612" r="12.206"/>
        <circle cx="133.567" cy="345.612" r="12.206"/>
        <circle cx="174.663" cy="345.612" r="12.206"/>
        <circle cx="215.76" cy="345.612" r="12.206"/>
        <circle cx="256.857" cy="345.612" r="12.206"/>
        <circle cx="297.953" cy="345.612" r="12.206"/>
        <circle cx="339.05" cy="345.612" r="12.206"/>
        <circle cx="256.857" cy="153.018" r="12.206"/>
        <circle cx="297.953" cy="153.018" r="12.206"/>
        <circle cx="339.05" cy="153.018" r="12.206"/>
        <circle cx="-10.827" cy="185.117" r="12.206"/>
        <circle cx="30.269" cy="185.117" r="12.206"/>
        <circle cx="71.366" cy="185.117" r="12.206"/>
        <circle cx="112.463" cy="185.117" r="12.206"/>
        <circle cx="153.559" cy="185.117" r="12.206"/>
        <circle cx="9.721" cy="217.216" r="12.206"/>
        <circle cx="50.818" cy="217.216" r="12.206"/>
        <circle cx="91.914" cy="217.216" r="12.206"/>
        <circle cx="133.011" cy="217.216" r="12.206"/>
        <circle cx="-10.827" cy="249.315" r="12.206"/>
        <circle cx="30.269" cy="249.315" r="12.206"/>
        <circle cx="71.366" cy="249.315" r="12.206"/>
        <circle cx="112.463" cy="249.315" r="12.206"/>
        <circle cx="9.721" cy="281.414" r="12.206"/>
        <circle cx="50.818" cy="281.414" r="12.206"/>
        <circle cx="91.914" cy="281.414" r="12.206"/>
        <circle cx="-10.827" cy="313.513" r="12.206"/>
        <circle cx="30.269" cy="313.513" r="12.206"/>
        <circle cx="71.366" cy="313.513" r="12.206"/>
        <circle cx="9.721" cy="345.612" r="12.206"/>
        <circle cx="50.818" cy="345.612" r="12.206"/>
        <circle cx="9.721" cy="153.018" r="12.206"/>
        <circle cx="50.818" cy="153.018" r="12.206"/>
        <circle cx="91.914" cy="153.018" r="12.206"/>
        <circle cx="133.011" cy="153.018" r="12.206"/>
        <circle cx="174.108" cy="153.018" r="12.206"/>
        <circle cx="318.524" cy="-9.349" r="12.206"/>
        <circle cx="359.62" cy="-9.349" r="12.206"/>
        <circle cx="297.975" cy="22.75" r="12.206"/>
        <circle cx="339.072" cy="22.75" r="12.206"/>
        <circle cx="277.427" cy="54.849" r="12.206"/>
        <circle cx="318.524" cy="54.849" r="12.206"/>
        <circle cx="359.62" cy="54.849" r="12.206"/>
        <circle cx="256.879" cy="86.948" r="12.206"/>
        <circle cx="297.975" cy="86.948" r="12.206"/>
        <circle cx="339.072" cy="86.948" r="12.206"/>
        <circle cx="236.33" cy="119.047" r="12.206"/>
        <circle cx="277.427" cy="119.047" r="12.206"/>
        <circle cx="318.524" cy="119.047" r="12.206"/>
        <circle cx="359.62" cy="119.047" r="12.206"/>
        <circle cx="-10.805" cy="-9.349" r="12.206"/>
        <circle cx="30.291" cy="-9.349" r="12.206"/>
        <circle cx="71.388" cy="-9.349" r="12.206"/>
        <circle cx="112.485" cy="-9.349" r="12.206"/>
        <circle cx="153.581" cy="-9.349" r="12.206"/>
        <circle cx="194.678" cy="-9.349" r="12.206"/>
        <circle cx="235.775" cy="-9.349" r="12.206"/>
        <circle cx="276.871" cy="-9.349" r="12.206"/>
        <circle cx="9.743" cy="22.75" r="12.206"/>
        <circle cx="50.84" cy="22.75" r="12.206"/>
        <circle cx="91.936" cy="22.75" r="12.206"/>
        <circle cx="133.033" cy="22.75" r="12.206"/>
        <circle cx="174.13" cy="22.75" r="12.206"/>
        <circle cx="215.226" cy="22.75" r="12.206"/>
        <circle cx="256.323" cy="22.75" r="12.206"/>
        <circle cx="-10.805" cy="54.849" r="12.206"/>
        <circle cx="30.291" cy="54.849" r="12.206"/>
        <circle cx="71.388" cy="54.849" r="12.206"/>
        <circle cx="112.485" cy="54.849" r="12.206"/>
        <circle cx="153.581" cy="54.849" r="12.206"/>
        <circle cx="194.678" cy="54.849" r="12.206"/>
        <circle cx="235.775" cy="54.849" r="12.206"/>
        <circle cx="9.743" cy="86.948" r="12.206"/>
        <circle cx="50.84" cy="86.948" r="12.206"/>
        <circle cx="91.936" cy="86.948" r="12.206"/>
        <circle cx="133.033" cy="86.948" r="12.206"/>
        <circle cx="174.13" cy="86.948" r="12.206"/>
        <circle cx="215.226" cy="86.948" r="12.206"/>
        <circle cx="-10.805" cy="119.047" r="12.206"/>
        <circle cx="30.291" cy="119.047" r="12.206"/>
        <circle cx="71.388" cy="119.047" r="12.206"/>
        <circle cx="112.485" cy="119.047" r="12.206"/>
        <circle cx="153.581" cy="119.047" r="12.206"/>
        <circle cx="194.678" cy="119.047" r="12.206"/>
    </g>
</svg>