<svg viewBox="0 0 2615.51 2615.51" xmlns="http://www.w3.org/2000/svg"><path d="m2615.51 2615.51h-2615.51v-2615.51h2615.51zm-1530-1381.87c-6.19-7.84-10.14-12.89-14.13-17.9-47.72-60-100.35-115-163.6-158.81-76.29-52.83-159.14-83.55-254.06-74.14-54.81 5.44-99 29.72-133.14 71.64-10.34 12.69-17.83 29.16-22 45.12-11.47 43.71-4.66 86.79 12.39 127.85 30.76 74.09 81.2 135.69 129.17 198.75 3.31 4.35 8.28 7.88 13.18 10.47 9.88 5.23 17.54-.06 16.46-11.08-1-10.84-3.15-21.58-4-32.42-4.24-54.88.89-108.08 30.1-156.48 23.53-39 58.53-58.74 103.91-59.43 70.9-1.08 133 24 189 65.66 34.77 25.83 52.86 64.07 72.94 100.78 41 74.87 81 150.29 123.63 224.18 64.26 111.3 130.95 221.21 183.06 339 39.72 89.81 70.59 182 73.75 281.35 1.75 55-3.39 108.94-28.28 159.19-17.39 35.1-43.55 61.35-81.77 72.36-45.3 13-90.64 11.84-134.41-7-88.37-38.09-136.62-145.82-111-244.49 13.08-50.29 44.06-85.58 86.61-113.33 25.85-16.85 49.79-36.58 74.73-54.84 7.64-5.6 8.65-11.21 4-19.83-14.92-27.72-37.67-47.38-63.77-65.76-8.22 10.65-16.2 20.35-23.47 30.55-42 58.85-85.58 116.63-125.09 177.1-35 53.63-51.58 114.22-49 178.82 3.59 91 47.83 154.63 131.67 190 57.3 24.16 117 25.63 177.32 14.78 100.17-18 178.92-66.89 224.16-161.12 34.42-71.71 37-147 20.71-223.61-17.24-81-53.21-154.45-91.57-227-50.25-95.11-102.47-189.33-148.54-286.45-86-181.37-150.7-369.45-160-572.6-3.11-68-3.72-136 9.33-203.24 13.25-68.22 44.4-125.35 104.86-163.31 58.58-36.78 123-43 190.11-36.46 40.21 3.94 74.25 20.42 100.26 50.49 54.3 62.78 75.23 135.93 58.71 217.63-9.4 46.52-36 80-85.35 90-37.72 7.57-72.24-.86-104.83-21.18-37.48-23.37-38.94-56.62-26.47-87.07 11.47-28 26.66-53.56 50.2-73.88 9.94-8.59 17.2-20.47 24.76-31.48 1.78-2.59 1.29-8.8-.67-11.56-17.06-24-51.18-36.22-77.92-24a170.21 170.21 0 0 0 -50.35 35.9c-32.63 33.8-52.65 75.44-66.06 120.29-17.94 60-.64 110.08 44.73 150.94 42.48 38.26 94.27 55.26 150.22 60.26 133.33 11.92 223.67-57.31 245.19-182.62 15.53-90.46-1.92-176.79-35.79-260.65a21.56 21.56 0 0 0 -5.92-8.29c-19.74-16.34-40-32.07-59.48-48.72-20.8-17.78-43.11-32.15-69.87-39.56-50.06-13.87-100.59-19.75-152.57-14.69-130.44 12.61-251.56 113.25-287.2 239.59-15.33 54.3-17.84 110-17.19 165.86.95 82.78 2.8 165.56 4.1 248.34.12 7.56-.97 15.14-1.73 26.1zm758.2-626.08c6.16-2.55 18.75-5.65 29-12.34 55.5-36.27 109.13-75.05 157.56-120.64 12.5-11.76 16.84-23.65 13.17-41.43-18-87.15-60.08-156.35-141.81-197.3-43.09-21.58-89.3-31.83-137-35.88-3.45-.29-8.88 4.05-10.83 7.62-13.56 24.82-26.06 50.2-39.65 75-9.83 17.94-21.09 35.1-31.2 52.89-16.92 29.78-29.17 61.39-34.76 95.26-1 5.82-.94 13.89 2.34 17.86 5.94 7.21 14.28 12.74 22.31 17.89 21.18 13.56 43.17 10.24 56.38-11 11.4-18.33 19.93-38.57 28.57-58.47s15-40.88 24-60.69c9.11-20.21 22.73-37.33 43.37-47.14 4.08-1.94 10.51-2.68 14.34-.83 46.79 22.68 84.23 55.14 107.16 103 4.56 9.51 4.22 16.47-3.2 23-24.44 21.53-48.74 43.23-73.74 64.1-20.72 17.29-43.29 32.43-63.34 50.42-28.6 25.65-28.15 31.54-2.29 60.45 8.91 9.99 19 18.07 39.65 18.23zm-1020.52-25.81c24.19 16.7 46.87 32.07 69.24 47.87 36.7 25.92 74.05 50.61 115.82 67.94 7.64 3.17 13 3.14 17.71-4 7.11-10.91 15.23-21.26 21.44-32.65 15.43-28.31 15.14-28.56-10.83-46.8q-87.12-61.17-174.47-122c-3.64-2.52-10.34-3.69-14.31-2.14-21.38 8.33-43.94 15.18-63.18 27.19-93.5 58.32-136.61 191.65-83.73 312.04 1.73 4 8 7.55 12.6 8.34 21 3.56 42.25 5.84 63.35 9 53.39 7.92 106.74 16.16 160.15 23.92 4.8.7 11.35.62 14.71-2.07 17.44-13.94 25.64-54.92 16.71-76.55-4.4-10.71-10.48-15.84-23.26-16.17-58.79-1.69-117.45-4.95-174.87-19.73-12.52-3.22-16.89-9.16-17.23-21.45-1.72-61.91 29.58-108.27 70.15-152.74zm1256.42 492.88c-1.25-12.45-3.62-34.51-5.63-56.62-.77-8.51-4.36-12.45-13.24-14.58-30.9-7.41-61.62-15.63-92.19-24.31-44.38-12.59-88.55-26-132.9-38.66-3.66-1.06-10.49-1.17-11.68.8-11.81 19.53-27.66 37.24-27.67 62.29 0 14.65 4.27 25.38 19.07 30.15 10.34 3.34 20.4 8 31 10 30.35 5.8 61 10.21 91.34 15.83 20.68 3.82 40.93 9.58 57 24.2 3.77 3.44 7.84 9.35 7.62 13.93-2.3 49-19.33 91.85-56.5 125-15.62 13.92-31.53 14.88-49.44 4-10.72-6.51-20.54-14.65-30.12-22.82-27.51-23.46-54.3-47.78-82.18-70.79-13.35-11-28.53-19.81-42.88-29.61-6.6-4.5-11.91-3.24-16.78 3-10.66 13.77-21.91 27.1-32.16 41.16-1.71 2.35-1.06 8.64 1 11.13 10.88 13.49 21.64 27.3 34.09 39.28 33.86 32.58 68.53 64.32 102.91 96.35 7 6.52 14 13 21.32 19.27 19.21 16.47 40.62 20.09 64.63 11.74 31.23-10.86 59-27.53 85.44-47.13 27.1-20.1 45.76-46 57.79-77.38 14.32-37.52 19.3-76.58 20.16-126.23zm-1197.33-613.63c15.13 8.18 28.64 14.38 40.93 22.43s23.7 17.75 35.12 27.17c15.47 12.75 30.06 26.62 46 38.73 15.2 11.55 30.82 23 47.72 31.74 33.72 17.33 62.6 10.63 88.23-17.4 4.92-5.38 6.73-10.22 1.72-15.78-13.91-15.41-26.42-32.72-42.58-45.31-20.49-16-44.84-26.88-66-42.07-20.72-14.85-39.63-32.23-59.18-48.69-6.11-5.15-5-10.5-.63-16.94 26.83-39.81 60.38-72.51 103.47-93.82 41.35-20.44 31.91-24.34 56.69 15.65 17.37 28 30.18 58.86 45.48 88.21 12.93 24.8 27.67 48.29 48.83 67.35 8.7 7.84 16.72 9.11 25.44 2.2 11.91-9.44 22.58-20.56 35-29.2 9.17-6.39 10.08-11.65 5-21.16-31.85-60-65.31-119.31-93.81-180.88-14.39-31.09-32.14-39.17-64.82-35.66-66.9 7.19-127 26.9-173.4 77.78-45.57 50.01-65.95 111.65-79.21 175.65zm690.64-30.58.06-1c2.62 0 5.23.06 7.84 0 24.51-.59 25.85-.34 30.41-23.81 15.12-77.75 29.29-155.69 43.31-233.64.74-4.12-2-10.87-5.31-13.36-17.68-13.14-34.59-28.95-54.51-37.18-80.3-33.19-160.81-29.17-239.57 6.38-29.09 13.12-53.3 33.05-69 61.69-2.3 4.2-4.36 10.09-3.27 14.36 15.06 59 29.91 118.16 46.69 176.72 4.52 15.78 14.28 30.45 23.52 44.39 11.46 17.28 28.79 17.62 46.73 11.58 5.73-1.93 12.32-3.76 16.32-7.81 5-5.07 11.2-12.56 10.87-18.69-.91-17.21-3-34.83-8.1-51.22-8.12-26.15-20.54-51-28.29-77.21-7-23.61-10.16-48.34-14.94-72.58-1.42-7.2 1.84-11.47 8.69-13.64 13.67-4.34 27-10 40.95-13.11 38.81-8.62 77.63-10.37 115.94 3.46 8.46 3.06 12.74 7.28 11.41 17.15-3.43 25.45-5.83 51-9 76.52q-8 64.79-16.55 129.5c-1.57 11.77 4.35 17.33 14.59 18.89s20.82 1.81 31.21 2.62zm495.62 498.08c13.93.64 27.89.89 41.78 2.06 8.37.71 13.5-1.61 17.86-9.32 13.91-24.63 28.83-48.68 43-73.15 2.07-3.57 2.87-8.12 3.36-12.32 10.18-88.34-17.07-163.58-77.5-228.43-16.86-18.1-30.17-26.58-56.79-17.15-40 14.18-82.9 20-123.77 32.12-24.78 7.35-49.47 17.43-71.64 30.59-27.75 16.46-29.89 39.61-10.44 65.18 2.37 3.11 5.17 5.9 7.52 9 5.28 7 11.75 8.49 20.56 7.39 32.46-4 60.33-19.34 88.33-34.44 30.85-16.65 63.19-26.73 98.76-25.21 9.32.4 15.23 3.34 19.74 11.64a226.71 226.71 0 0 1 26.37 81.56c2.62 21.55 1.26 42.53-7.74 62.73-4.36 9.79-10.29 15.27-21.87 14-40.66-4.37-81.4-8.1-122.07-12.42-30.84-3.27-61.67-6.42-92.23 1.32-4 1-9.84 5.58-10 8.82-.83 12.52-.22 25.22.79 37.77.85 10.67 6.92 16.56 18 19.13 68.44 16.02 137.67 26.29 207.98 29.13zm-694.41 500.8.68.24c0 11.32-.9 22.74.36 33.91.69 6.06 3.5 14.34 8.07 17.07 19.3 11.52 38.56 25.06 59.76 31.1 79.4 22.63 153.5 8.57 220.86-39.26 19.46-13.82 34.51-31.7 45.5-53.09 4.44-8.66 5.41-16.59 2.49-26.14q-30.21-98.64-59.5-197.59c-6.07-20.42-5.63-20.55-27-18.74-50.68 4.29-67.72 29.46-50 76.84 8.81 23.56 21.46 45.67 31.77 68.7 9.58 21.4 18.37 43.16 27.48 64.78 6 14.26.53 23.87-12 31.37-35.55 21.35-73.87 31.28-115 25.4-13.71-2-26.94-9-39.62-15.22-3.68-1.82-6.87-9.22-6.56-13.81 4.45-64.74 9.09-129.47 14.91-194.09 1.07-11.88-3.23-16.87-12.86-17.83a440.5 440.5 0 0 0 -45.54-1.73c-18.37.1-18.8.45-20.89 19-7.78 69.69-15.29 139.4-22.91 209.09zm-169.3 835.32 2 .46c.48 7.82.41 15.72 1.55 23.44 2.49 16.82 9.89 30.56 26.23 38 29.67 13.46 61.86 4.42 78.73-23.55 6.88-11.41 12.7-24.15 15.72-37 6.42-27.5 8.3-56.23 16.43-83.12 10.62-35.14-5.24-57-30.37-76.52-.35-.27-.67-.56-1-.85-18-15.36-24.8-15.34-43.83-.28-7.5 5.92-14.61 15.09-23 16.58-18 3.19-19.87 15-21.2 28.79-.25 2.59-1 5.14-1.44 7.7q-9.93 53.15-19.82 106.35z" fill="#008001"/><g fill="#fff"><path d="m1085.54 1233.64c.76-11 1.85-18.54 1.73-26.1-1.3-82.78-3.15-165.56-4.1-248.34-.65-55.88 1.86-111.56 17.19-165.86 35.64-126.34 156.76-226.98 287.24-239.68 52-5.06 102.51.82 152.57 14.69 26.76 7.41 49.07 21.78 69.87 39.56 19.47 16.65 39.74 32.38 59.48 48.72a21.56 21.56 0 0 1 5.92 8.29c33.87 83.86 51.32 170.19 35.79 260.65-21.52 125.31-111.86 194.54-245.19 182.62-56-5-107.74-22-150.22-60.26-45.37-40.86-62.67-90.89-44.73-150.94 13.41-44.85 33.43-86.49 66.06-120.29a170.21 170.21 0 0 1 50.35-35.9c26.74-12.25 60.86-.06 77.92 24 2 2.76 2.45 9 .67 11.56-7.56 11-14.82 22.89-24.76 31.48-23.54 20.32-38.73 45.85-50.2 73.88-12.47 30.45-11 63.7 26.47 87.07 32.59 20.32 67.11 28.75 104.83 21.18 49.31-9.91 76-43.44 85.35-90 16.52-81.7-4.41-154.85-58.71-217.63-26-30.07-60-46.55-100.26-50.49-67.1-6.57-131.53-.32-190.11 36.46-60.46 38-91.61 95.09-104.86 163.31-13 67.24-12.44 135.21-9.33 203.24 9.32 203.15 74 391.23 160 572.6 46.07 97.12 98.29 191.34 148.54 286.45 38.36 72.6 74.33 146.06 91.57 227 16.3 76.59 13.71 151.9-20.71 223.61-45.24 94.23-124 143.09-224.16 161.12-60.27 10.85-120 9.38-177.32-14.78-83.84-35.34-128.08-99-131.67-190-2.55-64.6 14-125.19 49-178.82 39.51-60.47 83.12-118.25 125.09-177.1 7.27-10.2 15.25-19.9 23.47-30.55 26.1 18.38 48.85 38 63.77 65.76 4.65 8.62 3.64 14.23-4 19.83-24.94 18.26-48.88 38-74.73 54.84-42.55 27.75-73.53 63-86.61 113.33-25.67 98.67 22.58 206.4 111 244.49 43.77 18.87 89.11 20.06 134.41 7 38.22-11 64.38-37.26 81.77-72.36 24.89-50.25 30-104.2 28.28-159.19-3.16-99.36-34-191.54-73.75-281.35-52.11-117.82-118.8-227.73-183.06-339-42.65-73.89-82.68-149.31-123.63-224.18-20.08-36.71-38.17-75-72.94-100.78-56-41.64-118.1-66.74-189-65.66-45.38.69-80.38 20.42-103.91 59.43-29.21 48.4-34.34 101.6-30.1 156.48.83 10.84 2.93 21.58 4 32.42 1.08 11-6.58 16.31-16.46 11.08-4.9-2.59-9.87-6.12-13.18-10.47-48-63.06-98.41-124.66-129.17-198.75-17.05-41.06-23.86-84.14-12.39-127.85 4.18-16 11.67-32.43 22-45.12 34.15-41.92 78.33-66.2 133.14-71.64 94.92-9.41 177.77 21.31 254.06 74.14 63.25 43.8 115.88 98.85 163.6 158.81 3.98 5.1 7.93 10.15 14.12 17.99z"/><path d="m1843.74 607.56c-20.65-.16-30.73-8.24-39.65-18.22-25.86-28.91-26.31-34.8 2.29-60.45 20-18 42.62-33.13 63.34-50.42 25-20.87 49.3-42.57 73.74-64.1 7.42-6.53 7.76-13.49 3.2-23-22.93-47.87-60.37-80.33-107.16-103-3.83-1.85-10.26-1.11-14.34.83-20.64 9.81-34.26 26.93-43.37 47.14-8.93 19.81-15.31 40.75-24 60.69s-17.17 40.14-28.57 58.47c-13.21 21.24-35.2 24.56-56.38 11-8-5.15-16.37-10.68-22.31-17.89-3.28-4-3.3-12-2.34-17.86 5.59-33.87 17.84-65.48 34.76-95.26 10.11-17.79 21.37-35 31.2-52.89 13.59-24.8 26.09-50.18 39.65-75 2-3.57 7.38-7.91 10.83-7.62 47.68 4.05 93.89 14.3 137 35.88 81.73 41 123.81 110.15 141.81 197.3 3.67 17.78-.67 29.67-13.17 41.43-48.43 45.59-102.06 84.37-157.56 120.64-10.22 6.68-22.81 9.77-28.97 12.33z"/><path d="m823.19 581.75c-40.57 44.47-71.87 90.83-70.15 152.74.34 12.29 4.71 18.23 17.23 21.45 57.42 14.78 116.08 18 174.87 19.73 12.78.36 18.85 5.46 23.26 16.14 8.93 21.63.73 62.61-16.71 76.55-3.36 2.69-9.91 2.77-14.71 2.07-53.41-7.76-106.76-16-160.15-23.92-21.1-3.13-42.33-5.41-63.35-9-4.64-.79-10.87-4.38-12.6-8.34-52.88-120.36-9.77-253.69 83.73-312.06 19.24-12 41.8-18.86 63.18-27.19 4-1.55 10.67-.38 14.31 2.14q87.49 60.62 174.47 122c26 18.24 26.26 18.49 10.83 46.8-6.21 11.39-14.33 21.74-21.44 32.65-4.69 7.19-10.07 7.22-17.71 4-41.77-17.33-79.12-42-115.82-67.94-22.37-15.75-45.05-31.12-69.24-47.82z"/><path d="m2079.61 1074.63c-.86 49.65-5.84 88.71-20.26 126.29-12 31.34-30.69 57.28-57.79 77.38-26.41 19.6-54.21 36.27-85.44 47.13-24 8.35-45.42 4.73-64.63-11.74-7.27-6.23-14.31-12.75-21.32-19.27-34.38-32-69.05-63.77-102.91-96.35-12.45-12-23.21-25.79-34.09-39.28-2-2.49-2.66-8.78-1-11.13 10.25-14.06 21.5-27.39 32.16-41.16 4.87-6.29 10.18-7.55 16.78-3 14.35 9.8 29.53 18.6 42.88 29.61 27.88 23 54.67 47.33 82.18 70.79 9.58 8.17 19.4 16.31 30.12 22.82 17.91 10.89 33.82 9.93 49.44-4 37.17-33.12 54.2-76 56.5-125 .22-4.58-3.85-10.49-7.62-13.93-16.05-14.62-36.3-20.38-57-24.2-30.38-5.62-61-10-91.34-15.83-10.57-2-20.63-6.71-31-10-14.8-4.77-19.08-15.5-19.07-30.15 0-25 15.86-42.76 27.67-62.29 1.19-2 8-1.86 11.68-.8 44.35 12.71 88.52 26.07 132.9 38.66 30.57 8.68 61.29 16.9 92.19 24.31 8.88 2.13 12.47 6.07 13.24 14.58 2.12 22.05 4.48 44.11 5.73 56.56z"/><path d="m882.28 461c13.26-64.05 33.64-125.65 79.21-175.65 46.36-50.88 106.5-70.59 173.4-77.78 32.68-3.51 50.43 4.57 64.82 35.66 28.5 61.57 62 120.87 93.81 180.88 5 9.51 4.14 14.77-5 21.16-12.42 8.64-23.09 19.76-35 29.2-8.72 6.91-16.74 5.64-25.44-2.2-21.16-19.06-35.9-42.55-48.83-67.35-15.3-29.35-28.11-60.18-45.48-88.21-24.78-40-15.34-36.09-56.69-15.65-43.09 21.31-76.64 54-103.47 93.82-4.35 6.44-5.48 11.79.63 16.94 19.55 16.46 38.46 33.84 59.18 48.69 21.19 15.19 45.54 26.11 66 42.07 16.16 12.59 28.67 29.9 42.58 45.31 5 5.56 3.2 10.4-1.72 15.78-25.63 28-54.51 34.73-88.23 17.4-16.9-8.69-32.52-20.19-47.72-31.74-15.94-12.11-30.53-26-46-38.73-11.42-9.42-22.77-19.09-35.12-27.17s-25.8-14.24-40.93-22.43z"/><path d="m1572.92 430.43c-10.39-.81-20.87-1-31.15-2.6s-16.16-7.12-14.59-18.89q8.61-64.71 16.55-129.5c3.15-25.49 5.55-51.07 9-76.52 1.33-9.87-3-14.09-11.41-17.15-38.31-13.83-77.13-12.08-115.94-3.46-13.93 3.09-27.28 8.77-40.95 13.11-6.85 2.17-10.11 6.44-8.69 13.64 4.78 24.24 8 49 14.94 72.58 7.75 26.23 20.17 51.06 28.29 77.21 5.08 16.39 7.19 34 8.1 51.22.33 6.13-5.85 13.62-10.87 18.69-4 4.05-10.59 5.88-16.32 7.81-17.94 6-35.27 5.7-46.73-11.58-9.24-13.94-19-28.61-23.52-44.39-16.8-58.6-31.63-117.68-46.71-176.72-1.09-4.27 1-10.16 3.27-14.36 15.66-28.64 39.87-48.57 69-61.69 78.76-35.55 159.27-39.57 239.57-6.38 19.92 8.23 36.83 24 54.51 37.18 3.35 2.49 6 9.24 5.31 13.36-14 77.95-28.19 155.89-43.31 233.64-4.56 23.47-5.9 23.22-30.41 23.81-2.61.07-5.22 0-7.84 0z"/><path d="m2068.54 928.5c-70.31-2.84-139.55-13.11-208-29.07-11-2.57-17.1-8.46-18-19.13-1-12.55-1.62-25.25-.79-37.77.21-3.24 6-7.81 10-8.82 30.56-7.74 61.39-4.59 92.23-1.32 40.67 4.32 81.41 8.05 122.07 12.42 11.58 1.24 17.51-4.24 21.87-14 9-20.2 10.36-41.18 7.74-62.73a226.71 226.71 0 0 0 -26.37-81.56c-4.51-8.3-10.42-11.24-19.74-11.64-35.57-1.52-67.91 8.56-98.76 25.21-28 15.1-55.87 30.4-88.33 34.44-8.81 1.1-15.28-.36-20.56-7.39-2.35-3.13-5.15-5.92-7.52-9-19.45-25.57-17.31-48.72 10.44-65.18 22.17-13.16 46.86-23.24 71.64-30.59 40.87-12.1 83.76-17.94 123.77-32.12 26.62-9.43 39.93-1 56.79 17.15 60.43 64.85 87.68 140.09 77.5 228.43-.49 4.2-1.29 8.75-3.36 12.32-14.2 24.47-29.12 48.52-43 73.15-4.36 7.71-9.49 10-17.86 9.32-13.87-1.23-27.83-1.48-41.76-2.12z"/><path d="m1374.13 1429.3c7.62-69.69 15.13-139.4 22.94-209.07 2.09-18.57 2.52-18.92 20.89-19a440.5 440.5 0 0 1 45.54 1.73c9.63 1 13.93 6 12.86 17.83-5.82 64.62-10.46 129.35-14.91 194.09-.31 4.59 2.88 12 6.56 13.81 12.68 6.26 25.91 13.26 39.62 15.22 41.11 5.88 79.43-4.05 115-25.4 12.51-7.5 18-17.11 12-31.37-9.11-21.62-17.9-43.38-27.48-64.78-10.31-23-23-45.14-31.77-68.7-17.73-47.38-.69-72.55 50-76.84 21.39-1.81 21-1.68 27 18.74q29.37 98.91 59.5 197.59c2.92 9.55 2 17.48-2.49 26.14-11 21.39-26 39.27-45.5 53.09-67.36 47.83-141.46 61.89-220.86 39.26-21.2-6-40.46-19.58-59.76-31.1-4.57-2.73-7.38-11-8.07-17.07-1.26-11.17-.36-22.59-.36-33.91z"/><path d="m1204.83 2264.62q9.89-53.2 19.79-106.42c.48-2.56 1.19-5.11 1.44-7.7 1.33-13.78 3.25-25.6 21.2-28.79 8.38-1.49 15.49-10.66 23-16.58 19-15.06 25.85-15.08 43.83.28.33.29.65.58 1 .85 25.13 19.52 41 41.38 30.37 76.52-8.13 26.89-10 55.62-16.43 83.12-3 12.9-8.84 25.64-15.72 37-16.87 28-49.06 37-78.73 23.55-16.34-7.42-23.74-21.16-26.23-38-1.14-7.72-1.07-15.62-1.55-23.44z"/></g></svg>