<?xml version="1.0" encoding="UTF-8" standalone="no"?><!DOCTYPE svg PUBLIC "-//W3C//DTD SVG 1.1//EN"
        "http://www.w3.org/Graphics/SVG/1.1/DTD/svg11.dtd">
<svg width="100%" height="100%" viewBox="0 0 2616 2616" version="1.1" xmlns="http://www.w3.org/2000/svg"
     xml:space="preserve"
     style="fill-rule:evenodd;clip-rule:evenodd;stroke-linejoin:round;stroke-miterlimit:1.41421;"><circle cx="1307.76" cy="1307.76" r="1307.76" style="fill:#008001;"/>
    <g><path d="M1084.58,1285.89c0.65,-9.483 1.583,-15.982 1.48,-22.499c-1.112,-71.359 -2.694,-142.718 -3.507,-214.077c-0.556,-48.17 1.591,-96.168 14.703,-142.976c30.483,-108.909 134.078,-195.664 245.678,-206.612c44.476,-4.362 87.677,0.707 130.494,12.663c22.888,6.388 41.97,18.775 59.76,34.102c16.653,14.353 33.99,27.913 50.874,41.999c2.23,1.94 3.966,4.39 5.063,7.146c28.969,72.29 43.895,146.709 30.612,224.688c-18.407,108.021 -95.675,167.699 -209.713,157.424c-47.897,-4.31 -92.151,-18.965 -128.484,-51.946c-38.805,-35.222 -53.602,-78.35 -38.258,-130.115c11.47,-38.662 28.593,-74.557 56.502,-103.693c12.359,-12.879 26.955,-23.369 43.064,-30.947c22.871,-10.56 52.054,-0.052 66.646,20.688c1.71,2.38 2.095,7.759 0.573,9.965c-6.466,9.483 -12.676,19.732 -21.177,27.137c-20.134,17.517 -33.126,39.524 -42.937,63.687c-10.665,26.249 -9.408,54.911 22.64,75.057c27.875,17.516 57.4,24.783 89.662,18.258c42.175,-8.543 65.003,-37.447 73,-77.583c14.13,-70.428 -3.772,-133.485 -50.215,-187.604c-22.238,-25.921 -51.318,-40.127 -85.753,-43.524c-57.391,-5.663 -112.498,-0.275 -162.602,31.43c-51.712,32.757 -78.355,81.971 -89.687,140.778c-11.119,57.963 -10.64,116.555 -7.98,175.199c7.971,175.122 63.292,337.253 136.849,493.599c39.404,83.721 84.068,164.941 127.047,246.929c32.809,62.583 63.575,125.908 78.32,195.681c13.942,66.023 11.726,130.942 -17.713,192.758c-38.694,81.23 -106.058,123.348 -191.726,138.891c-51.549,9.353 -102.636,8.086 -151.663,-12.741c-71.708,-30.464 -109.547,-85.341 -112.618,-163.786c-2.181,-55.687 11.975,-107.917 41.91,-154.148c33.793,-52.127 71.093,-101.935 106.991,-152.666c6.218,-8.793 13.043,-17.154 20.074,-26.335c22.323,15.844 41.781,32.757 54.542,56.687c3.978,7.431 3.114,12.267 -3.421,17.094c-21.331,15.741 -41.807,32.758 -63.917,47.274c-36.393,23.921 -62.89,54.308 -74.078,97.694c-21.956,85.057 19.313,177.923 94.939,210.758c37.437,16.266 76.216,17.292 114.962,6.034c32.69,-9.482 55.064,-32.119 69.938,-62.376c21.289,-43.317 25.659,-89.824 24.188,-137.227c-2.703,-85.651 -29.08,-165.113 -63.079,-242.532c-44.57,-101.565 -101.61,-196.311 -156.572,-292.229c-36.479,-63.695 -70.717,-128.71 -105.741,-193.25c-17.175,-31.645 -32.647,-64.652 -62.386,-86.875c-47.898,-35.895 -101.012,-57.532 -161.653,-56.601c-38.814,0.595 -68.75,17.603 -88.875,51.23c-24.984,41.723 -29.371,87.583 -25.745,134.891c0.71,9.344 2.506,18.602 3.421,27.947c0.924,9.482 -5.628,14.06 -14.078,9.551c-4.191,-2.232 -8.442,-5.275 -11.273,-9.025c-41.055,-54.36 -84.171,-107.461 -110.48,-171.329c-14.583,-35.395 -20.407,-72.531 -10.597,-110.21c3.575,-13.793 9.981,-27.956 18.817,-38.895c29.208,-36.137 66.996,-57.067 113.875,-61.756c81.186,-8.112 152.048,18.37 217.299,63.911c54.098,37.757 99.113,85.212 139.928,136.899c3.404,4.396 6.783,8.749 12.077,15.508Z" style="fill:#fff;fill-rule:nonzero;"/>
        <path d="M1733.08,746.188c-17.662,-0.138 -26.283,-7.103 -33.913,-15.707c-22.118,-24.921 -22.503,-29.998 1.959,-52.109c17.106,-15.517 36.453,-28.559 54.175,-43.464c21.383,-17.99 42.167,-36.697 63.07,-55.256c6.347,-5.629 6.638,-11.629 2.737,-19.827c-19.612,-41.265 -51.634,-69.247 -91.654,-88.789c-3.276,-1.595 -8.776,-0.957 -12.265,0.716c-17.654,8.456 -29.303,23.214 -37.095,40.636c-7.638,17.077 -13.095,35.127 -20.527,52.316c-7.433,17.189 -14.686,34.602 -24.436,50.403c-11.299,18.31 -30.107,21.172 -48.223,9.483c-6.842,-4.44 -14.001,-9.207 -19.081,-15.422c-2.806,-3.448 -2.823,-10.344 -2.002,-15.396c4.781,-29.197 15.259,-56.446 29.731,-82.117c8.647,-15.336 18.277,-30.171 26.685,-45.593c11.624,-21.378 22.315,-43.256 33.913,-64.652c1.711,-3.078 6.312,-6.819 9.263,-6.569c40.781,3.491 80.305,12.327 117.177,30.93c69.904,35.343 105.895,94.953 121.291,170.079c3.139,15.326 -0.573,25.576 -11.265,35.713c-41.422,39.3 -87.292,72.73 -134.762,103.996c-8.741,5.758 -19.509,8.422 -24.778,10.629Z"
              style="fill:#fff;fill-rule:nonzero;"/>
        <path d="M860.193,723.939c-34.7,38.334 -61.471,78.298 -60,131.666c0.291,10.595 4.028,15.715 14.737,18.491c49.112,12.741 99.284,15.516 149.567,17.008c10.931,0.31 16.123,4.706 19.895,13.913c7.638,18.646 0.624,53.972 -14.292,65.988c-2.874,2.319 -8.477,2.388 -12.582,1.785c-45.682,-6.69 -91.313,-13.793 -136.977,-20.62c-18.047,-2.698 -36.205,-4.664 -54.184,-7.758c-3.969,-0.681 -9.297,-3.776 -10.777,-7.19c-45.228,-103.754 -8.356,-218.688 71.615,-269.005c16.456,-10.344 35.752,-16.258 54.038,-23.439c3.421,-1.336 9.126,-0.327 12.24,1.845c49.887,34.838 99.629,69.894 149.225,105.168c22.238,15.723 22.46,15.939 9.263,40.343c-5.312,9.818 -12.257,18.74 -18.338,28.145c-4.011,6.198 -8.613,6.224 -15.147,3.448c-35.727,-14.939 -67.672,-36.205 -99.062,-58.566c-19.133,-13.577 -38.531,-26.826 -59.221,-41.222Z"
              style="fill:#fff;fill-rule:nonzero;"/>
        <path d="M1934.82,1148.82c-0.735,42.8 -4.995,76.471 -17.328,108.866c-10.264,27.016 -26.25,49.377 -49.428,66.704c-22.589,16.896 -46.367,31.266 -73.078,40.628c-20.527,7.198 -38.848,4.077 -55.278,-10.121c-6.218,-5.37 -12.24,-10.991 -18.235,-16.611c-29.406,-27.585 -59.059,-54.972 -88.02,-83.057c-10.648,-10.344 -19.851,-22.231 -29.157,-33.86c-1.711,-2.147 -2.275,-7.569 -0.856,-9.595c8.767,-12.12 18.39,-23.611 27.507,-35.481c4.165,-5.422 8.707,-6.508 14.352,-2.586c12.274,8.448 25.257,16.034 36.676,25.525c23.846,19.827 46.759,40.8 70.289,61.023c8.194,7.043 16.593,14.06 25.762,19.672c15.318,9.387 28.926,8.56 42.286,-3.449c31.792,-28.55 46.357,-65.514 48.325,-107.753c0.188,-3.948 -3.293,-9.043 -6.518,-12.008c-13.727,-12.603 -31.047,-17.569 -48.752,-20.862c-25.984,-4.844 -52.174,-8.62 -78.124,-13.646c-9.04,-1.724 -17.645,-5.784 -26.514,-8.62c-12.659,-4.112 -16.32,-13.361 -16.311,-25.99c0,-21.551 13.565,-36.861 23.666,-53.696c1.018,-1.724 6.843,-1.603 9.99,-0.69c37.933,10.957 75.712,22.474 113.67,33.326c26.147,7.483 52.422,14.569 78.851,20.956c7.595,1.837 10.666,5.233 11.324,12.569c1.814,19.008 3.832,38.024 4.901,48.756Z"
              style="fill:#fff;fill-rule:nonzero;"/>
        <path d="M910.733,619.848c11.341,-55.213 28.772,-108.314 67.749,-151.415c39.651,-43.86 91.09,-60.851 148.31,-67.049c27.951,-3.026 43.133,3.94 55.44,30.74c24.377,53.075 53.029,104.194 80.237,155.924c4.276,8.198 3.541,12.732 -4.277,18.241c-10.623,7.448 -19.749,17.033 -29.935,25.171c-7.459,5.957 -14.318,4.862 -21.759,-1.896c-18.099,-16.431 -30.706,-36.68 -41.765,-58.058c-13.086,-25.301 -24.043,-51.877 -38.899,-76.04c-21.195,-34.481 -13.121,-31.111 -48.488,-13.491c-36.855,18.37 -65.55,46.55 -88.498,80.876c-3.721,5.551 -4.687,10.163 0.539,14.603c16.721,14.189 32.895,29.171 50.617,41.972c18.124,13.094 38.95,22.508 56.45,36.266c13.822,10.853 24.521,25.774 36.419,39.058c4.276,4.793 2.737,8.965 -1.471,13.603c-21.922,24.137 -46.623,29.938 -75.464,14.999c-14.455,-7.491 -27.815,-17.404 -40.815,-27.36c-13.634,-10.44 -26.113,-22.413 -39.344,-33.387c-9.768,-8.12 -19.476,-16.456 -30.039,-23.421c-10.563,-6.965 -22.067,-12.276 -35.007,-19.336Z"
              style="fill:#fff;fill-rule:nonzero;"/>
        <path d="M1501.44,593.496c-8.886,-0.698 -17.85,-0.862 -26.643,-2.241c-8.792,-1.379 -13.821,-6.138 -12.478,-16.284c4.909,-37.188 9.627,-74.399 14.155,-111.633c2.694,-21.973 4.747,-44.024 7.698,-65.962c1.137,-8.509 -2.566,-12.146 -9.759,-14.784c-32.767,-11.922 -65.97,-10.414 -99.165,-2.983c-11.914,2.664 -23.332,7.56 -35.024,11.301c-5.859,1.871 -8.648,5.552 -7.433,11.758c4.088,20.896 6.842,42.24 12.778,62.567c6.629,22.611 17.252,44.015 24.197,66.557c4.345,14.129 6.15,29.309 6.928,44.153c0.282,5.284 -5.004,11.741 -9.297,16.112c-3.422,3.491 -9.058,5.068 -13.959,6.732c-15.344,5.172 -30.167,4.914 -39.968,-9.982c-7.903,-12.017 -16.251,-24.663 -20.117,-38.266c-14.369,-50.515 -27.053,-101.444 -39.951,-152.338c-0.933,-3.681 0.855,-8.758 2.796,-12.379c13.394,-24.688 34.101,-41.868 59.016,-53.178c67.364,-30.645 136.225,-34.111 204.906,-5.5c17.038,7.094 31.501,20.689 46.623,32.05c2.865,2.147 5.132,7.965 4.542,11.517c-11.975,67.195 -24.112,134.382 -37.044,201.405c-3.9,20.232 -5.046,20.016 -26.01,20.525c-2.232,0.06 -4.464,0 -6.705,0l-0.086,0.853Z"
              style="fill:#fff;fill-rule:nonzero;"/>
        <path d="M1925.35,1022.85c-60.137,-2.448 -119.358,-11.301 -177.904,-25.059c-9.408,-2.216 -14.625,-7.293 -15.395,-16.491c-0.855,-10.819 -1.386,-21.766 -0.676,-32.559c0.18,-2.793 5.132,-6.732 8.553,-7.603c26.138,-6.672 52.507,-3.957 78.885,-1.138c34.785,3.724 69.631,6.939 104.407,10.706c9.905,1.069 14.977,-3.655 18.706,-12.068c7.698,-17.413 8.861,-35.498 6.62,-54.075c-3.014,-24.668 -10.669,-48.531 -22.554,-70.307c-3.858,-7.155 -8.913,-9.69 -16.884,-10.034c-30.423,-1.311 -58.084,7.379 -84.47,21.731c-23.949,13.017 -47.786,26.206 -75.549,29.689c-7.536,0.948 -13.07,-0.311 -17.586,-6.371c-2.01,-2.698 -4.404,-5.103 -6.431,-7.758c-16.636,-22.042 -14.806,-41.998 8.929,-56.187c18.962,-11.344 40.08,-20.034 61.274,-26.37c34.956,-10.43 71.641,-15.464 105.861,-27.688c22.769,-8.129 34.153,-0.862 48.573,14.784c51.686,55.902 74.993,120.762 66.286,196.913c-0.419,3.621 -1.103,7.543 -2.873,10.621c-12.146,21.094 -24.907,41.825 -36.779,63.057c-3.729,6.646 -8.116,8.62 -15.275,8.034c-11.863,-1.06 -23.804,-1.276 -35.718,-1.827Z"
              style="fill:#fff;fill-rule:nonzero;"/>
        <path d="M1331.41,1454.55c6.517,-60.075 12.941,-120.167 19.621,-180.225c1.787,-16.008 2.155,-16.31 17.867,-16.379c13,-0.18 26.001,0.318 38.951,1.492c8.236,0.862 11.914,5.172 10.999,15.37c-4.978,55.704 -8.947,111.503 -12.753,167.311c-0.265,3.957 2.464,10.345 5.611,11.905c10.845,5.396 22.161,11.43 33.887,13.12c35.162,5.069 67.937,-3.491 98.361,-21.896c10.699,-6.465 15.395,-14.749 10.263,-27.041c-7.792,-18.638 -15.31,-37.395 -23.504,-55.843c-8.818,-19.827 -19.672,-38.912 -27.173,-59.221c-15.164,-40.843 -0.59,-62.541 42.766,-66.239c18.295,-1.56 17.961,-1.448 23.093,16.155c16.747,56.842 33.71,113.618 50.891,170.328c2.497,8.233 1.71,15.069 -2.13,22.534c-9.408,18.439 -22.238,33.852 -38.917,45.765c-57.613,41.231 -120.991,53.351 -188.902,33.843c-18.133,-5.172 -34.606,-16.878 -51.114,-26.809c-3.908,-2.353 -6.312,-9.482 -6.902,-14.715c-1.078,-9.629 -0.308,-19.473 -0.308,-29.231l-0.607,-0.224Z"
              style="fill:#fff;fill-rule:nonzero;"/>
        <path d="M1186.61,2174.62c5.639,-30.573 11.281,-61.152 16.926,-91.737c0.411,-2.207 1.018,-4.405 1.232,-6.638c1.137,-11.879 2.78,-22.068 18.132,-24.818c7.168,-1.284 13.249,-9.189 19.672,-14.292c16.251,-12.982 22.11,-13 37.488,0.241c0.283,0.25 0.556,0.5 0.856,0.733c21.494,16.827 35.067,35.671 25.975,65.963c-6.953,23.18 -8.553,47.946 -14.052,71.652c-2.566,11.12 -7.561,22.102 -13.446,31.895c-14.429,24.137 -41.961,31.895 -67.338,20.301c-13.976,-6.397 -20.305,-18.241 -22.435,-32.758c-0.975,-6.655 -0.915,-13.465 -1.325,-20.206l-1.685,-0.336Z"
              style="fill:#fff;fill-rule:nonzero;"/></g></svg>