<svg id="Capa_1" data-name="Capa 1" xmlns="http://www.w3.org/2000/svg" viewBox="0 0 292.6 113.49"><defs><style>.cls-1{fill:#3f2a13;}</style></defs><title>logo_chabnichim</title><path class="cls-1" d="M158.69,103.78h2.16v1.75h.05a3.17,3.17,0,0,1,1.41-1.47,4.61,4.61,0,0,1,2.32-.56,4.91,4.91,0,0,1,1.57.25,3.54,3.54,0,0,1,1.31.78,3.64,3.64,0,0,1,.9,1.35,5.23,5.23,0,0,1,.34,2v7.3h-2.16v-6.7a3.83,3.83,0,0,0-.21-1.35,2.5,2.5,0,0,0-.58-.91,2.14,2.14,0,0,0-.82-.51,3.17,3.17,0,0,0-1-.15,3.64,3.64,0,0,0-1.25.21,2.61,2.61,0,0,0-1,.69,3.15,3.15,0,0,0-.67,1.18,5.36,5.36,0,0,0-.24,1.7v5.84h-2.16Z" transform="translate(-27.35 -19)"/><path class="cls-1" d="M182.65,114.84H180.5v-1.75h-.05a3.19,3.19,0,0,1-1.41,1.48,4.74,4.74,0,0,1-2.32.56,5.08,5.08,0,0,1-1.58-.25,3.63,3.63,0,0,1-1.31-.78,3.74,3.74,0,0,1-.89-1.35,5,5,0,0,1-.34-2v-7.3h2.15v6.7a3.85,3.85,0,0,0,.22,1.35,2.36,2.36,0,0,0,.57.91,2.15,2.15,0,0,0,.83.5,2.86,2.86,0,0,0,1,.16,3.37,3.37,0,0,0,1.24-.22,2.55,2.55,0,0,0,1-.68,3.23,3.23,0,0,0,.67-1.18,5.41,5.41,0,0,0,.24-1.7V103.5h2.15Z" transform="translate(-27.35 -19)"/><path class="cls-1" d="M188.13,110a2.81,2.81,0,0,0,.33,1.35,3.16,3.16,0,0,0,.84,1,4,4,0,0,0,1.23.67,4.34,4.34,0,0,0,1.43.24,3.24,3.24,0,0,0,1.75-.46,5.84,5.84,0,0,0,1.36-1.24l1.63,1.25a6,6,0,0,1-5,2.32,6.16,6.16,0,0,1-2.43-.46,5.31,5.31,0,0,1-1.84-1.25,5.7,5.7,0,0,1-1.16-1.89,6.72,6.72,0,0,1-.41-2.36,6.12,6.12,0,0,1,.45-2.36,5.85,5.85,0,0,1,1.22-1.89,5.73,5.73,0,0,1,1.85-1.26,6,6,0,0,1,2.35-.45,5.65,5.65,0,0,1,2.55.53,5.15,5.15,0,0,1,1.71,1.37,5.61,5.61,0,0,1,1,1.92,7.93,7.93,0,0,1,.3,2.16V110Zm6.8-1.72a4.56,4.56,0,0,0-.23-1.32,2.81,2.81,0,0,0-1.63-1.74,3.83,3.83,0,0,0-1.42-.25,3.5,3.5,0,0,0-2.56,1.08,3.63,3.63,0,0,0-.71,1.07,3,3,0,0,0-.25,1.16Z" transform="translate(-27.35 -19)"/><path class="cls-1" d="M206.44,106.35a3.36,3.36,0,0,0-.94-.81,2.82,2.82,0,0,0-1.38-.32,2.7,2.7,0,0,0-1.33.32,1,1,0,0,0-.56.95,1.08,1.08,0,0,0,.32.81,2.38,2.38,0,0,0,.77.5,4.11,4.11,0,0,0,.94.29l.86.17a9.58,9.58,0,0,1,1.31.41,3.39,3.39,0,0,1,1,.62,2.69,2.69,0,0,1,.7.93,3.37,3.37,0,0,1,.25,1.34,3.14,3.14,0,0,1-.41,1.64,3.42,3.42,0,0,1-1.05,1.12,4.62,4.62,0,0,1-1.47.62,7.85,7.85,0,0,1-1.67.19,6.49,6.49,0,0,1-2.47-.43,4.55,4.55,0,0,1-1.91-1.58l1.63-1.34a6.65,6.65,0,0,0,1.17.93,2.92,2.92,0,0,0,1.58.41,4,4,0,0,0,.83-.09,2.4,2.4,0,0,0,.74-.26,1.67,1.67,0,0,0,.53-.45,1.16,1.16,0,0,0-.1-1.43,2.29,2.29,0,0,0-.72-.49,6,6,0,0,0-.88-.29l-.83-.17c-.46-.12-.9-.24-1.31-.39A3.88,3.88,0,0,1,201,109a2.59,2.59,0,0,1-.76-.91,3,3,0,0,1-.29-1.37,3.05,3.05,0,0,1,.37-1.54,3.42,3.42,0,0,1,1-1.09,4.32,4.32,0,0,1,1.39-.64,5.62,5.62,0,0,1,1.57-.22,5.71,5.71,0,0,1,2.2.43,3.55,3.55,0,0,1,1.68,1.44Z" transform="translate(-27.35 -19)"/><path class="cls-1" d="M217.71,105.36h-3.08v5.15c0,.32,0,.63,0,.95a2.15,2.15,0,0,0,.18.83,1.29,1.29,0,0,0,.48.6,1.63,1.63,0,0,0,.94.23,5.39,5.39,0,0,0,.79-.07,2.26,2.26,0,0,0,.74-.27v2a2.7,2.7,0,0,1-1,.29,7,7,0,0,1-.94.09,4.35,4.35,0,0,1-1.93-.35,2.35,2.35,0,0,1-1-.9,2.91,2.91,0,0,1-.38-1.23c0-.45-.06-.91-.06-1.37v-5.92H210V103.5h2.49V97.79h2.16v5.71h3.08Z" transform="translate(-27.35 -19)"/><path class="cls-1" d="M221.09,103.78h2.15v1.75h0a2.88,2.88,0,0,1,.57-.82,4.09,4.09,0,0,1,.8-.64,5,5,0,0,1,1-.42,3.88,3.88,0,0,1,1.06-.15,3.11,3.11,0,0,1,.95.14l-.09,2.32a5,5,0,0,0-.53-.12,3.05,3.05,0,0,0-.52,0,3.17,3.17,0,0,0-2.42.89,3.88,3.88,0,0,0-.84,2.75v5.7h-2.15Z" transform="translate(-27.35 -19)"/><path class="cls-1" d="M230.59,104.89a6,6,0,0,1,2.1-1.26,7.22,7.22,0,0,1,2.4-.42,6.49,6.49,0,0,1,2.14.31,4.17,4.17,0,0,1,1.47.84,3.25,3.25,0,0,1,.85,1.21,3.82,3.82,0,0,1,.28,1.42v5.79c0,.4,0,.77,0,1.1s0,.66.07,1H238c0-.57-.07-1.15-.07-1.72h-.05a4.15,4.15,0,0,1-1.7,1.55,5.26,5.26,0,0,1-2.27.46,5,5,0,0,1-1.51-.22,3.75,3.75,0,0,1-1.26-.64,3.08,3.08,0,0,1-.85-1.07,3.67,3.67,0,0,1,.18-3.31,3.65,3.65,0,0,1,1.34-1.21,6.39,6.39,0,0,1,2-.67,13.25,13.25,0,0,1,2.43-.21h1.58v-.47a2.35,2.35,0,0,0-.17-.86,2.31,2.31,0,0,0-.5-.78,2.45,2.45,0,0,0-.84-.55,3.14,3.14,0,0,0-1.2-.21,4.43,4.43,0,0,0-1.09.12,5,5,0,0,0-.85.3,4,4,0,0,0-.69.42l-.6.46Zm6.08,4.49a14,14,0,0,0-1.57.09,5.8,5.8,0,0,0-1.46.32,2.8,2.8,0,0,0-1.08.67,1.52,1.52,0,0,0-.42,1.1,1.54,1.54,0,0,0,.66,1.41,3.2,3.2,0,0,0,1.79.44,3.4,3.4,0,0,0,1.5-.3,2.85,2.85,0,0,0,1-.78,3.11,3.11,0,0,0,.55-1.07,4.23,4.23,0,0,0,.17-1.16v-.72Z" transform="translate(-27.35 -19)"/><path class="cls-1" d="M250.81,103.78h2v1.78h.05a1.9,1.9,0,0,1,.37-.6,4,4,0,0,1,.77-.69,5.13,5.13,0,0,1,1.1-.55,4.15,4.15,0,0,1,1.4-.22,4.05,4.05,0,0,1,2.13.52,4,4,0,0,1,1.41,1.58,3.66,3.66,0,0,1,1.56-1.58,4.32,4.32,0,0,1,2-.52,4.65,4.65,0,0,1,2.15.43,3.49,3.49,0,0,1,1.32,1.13,4.42,4.42,0,0,1,.66,1.61,9.44,9.44,0,0,1,.18,1.85v6.61h-2.16v-6.32a8.25,8.25,0,0,0-.08-1.24,3,3,0,0,0-.35-1.06,2,2,0,0,0-.74-.73,2.58,2.58,0,0,0-1.27-.27,2.52,2.52,0,0,0-2.22.95,4.19,4.19,0,0,0-.67,2.47v6.2H258.3v-5.94a13.35,13.35,0,0,0-.08-1.48,3.51,3.51,0,0,0-.34-1.16,1.82,1.82,0,0,0-.71-.77,2.53,2.53,0,0,0-1.26-.27,2.85,2.85,0,0,0-1.11.22,2.67,2.67,0,0,0-1,.69,3.32,3.32,0,0,0-.65,1.16,5.16,5.16,0,0,0-.23,1.66v5.89h-2.16Z" transform="translate(-27.35 -19)"/><path class="cls-1" d="M271.77,99.2a1.26,1.26,0,0,1,.37-.91,1.24,1.24,0,0,1,.9-.37,1.28,1.28,0,1,1,0,2.55,1.24,1.24,0,0,1-.9-.37A1.26,1.26,0,0,1,271.77,99.2Zm.2,4.58h2.15v11.35H272Z" transform="translate(-27.35 -19)"/><path class="cls-1" d="M279.77,110a2.92,2.92,0,0,0,.32,1.35,3.32,3.32,0,0,0,.85,1,3.9,3.9,0,0,0,1.22.67,4.4,4.4,0,0,0,1.44.24,3.24,3.24,0,0,0,1.75-.46,5.84,5.84,0,0,0,1.36-1.24l1.63,1.25a6,6,0,0,1-5,2.32,6.16,6.16,0,0,1-2.43-.46,5.31,5.31,0,0,1-1.84-1.25,5.7,5.7,0,0,1-1.16-1.89,6.72,6.72,0,0,1-.41-2.36,6.12,6.12,0,0,1,.45-2.36,5.85,5.85,0,0,1,1.22-1.89,5.62,5.62,0,0,1,1.85-1.26,6,6,0,0,1,2.35-.45,5.58,5.58,0,0,1,2.54.53,5.09,5.09,0,0,1,1.72,1.37,5.61,5.61,0,0,1,1,1.92,8.33,8.33,0,0,1,.29,2.16V110Zm6.8-1.72a4.92,4.92,0,0,0-.23-1.32,2.92,2.92,0,0,0-.61-1,2.77,2.77,0,0,0-1-.7,3.87,3.87,0,0,0-1.42-.25,3.54,3.54,0,0,0-3.27,2.15,2.85,2.85,0,0,0-.25,1.16Z" transform="translate(-27.35 -19)"/><path class="cls-1" d="M292.22,98.08h2.15v17h-2.15Z" transform="translate(-27.35 -19)"/><path class="cls-1" d="M153.31,68.07a10.85,10.85,0,0,0-3-2.26,8.37,8.37,0,0,0-3.75-.77,8.22,8.22,0,0,0-3.69.77,7.37,7.37,0,0,0-2.63,2.12,9.26,9.26,0,0,0-1.6,3.09,11.87,11.87,0,0,0-.55,3.63,10.18,10.18,0,0,0,.63,3.58,9,9,0,0,0,1.78,3,8.11,8.11,0,0,0,2.74,2,8.72,8.72,0,0,0,3.61.72,8.17,8.17,0,0,0,3.72-.78,9.35,9.35,0,0,0,2.86-2.26l3.66,3.67a11.59,11.59,0,0,1-4.66,3.2,16.31,16.31,0,0,1-5.64,1,15.44,15.44,0,0,1-5.75-1,13.14,13.14,0,0,1-4.49-2.89,12.62,12.62,0,0,1-2.92-4.46,15.44,15.44,0,0,1-1-5.75,15.64,15.64,0,0,1,1-5.78A12.92,12.92,0,0,1,141,61.29a15.22,15.22,0,0,1,5.81-1.06,15.54,15.54,0,0,1,5.7,1.06,12.49,12.49,0,0,1,4.72,3.23Z" transform="translate(-27.35 -19)"/><path class="cls-1" d="M162.81,47.32H168V65h.12a7.52,7.52,0,0,1,3.37-3.52A11.15,11.15,0,0,1,177,60.17a11.78,11.78,0,0,1,3.75.6,8.49,8.49,0,0,1,3.15,1.86,9,9,0,0,1,2.15,3.24,12.41,12.41,0,0,1,.8,4.66V88H181.7V72a8.89,8.89,0,0,0-.52-3.23,5.94,5.94,0,0,0-1.37-2.18,5.17,5.17,0,0,0-2-1.2,7.16,7.16,0,0,0-2.31-.37,8.52,8.52,0,0,0-3,.51,6.14,6.14,0,0,0-2.4,1.64A7.56,7.56,0,0,0,168.53,70,12.91,12.91,0,0,0,168,74V88h-5.15Z" transform="translate(-27.35 -19)"/><path class="cls-1" d="M194.51,64.18a14.27,14.27,0,0,1,5-3,17.46,17.46,0,0,1,5.73-1,15.57,15.57,0,0,1,5.12.75,9.9,9.9,0,0,1,3.52,2,8,8,0,0,1,2,2.89,9,9,0,0,1,.66,3.4V83.06c0,1,0,1.84.05,2.64s.1,1.56.18,2.29h-4.58c-.12-1.38-.17-2.75-.17-4.12H212a9.93,9.93,0,0,1-4.06,3.72,12.91,12.91,0,0,1-5.44,1.08,12.53,12.53,0,0,1-3.6-.51,8.86,8.86,0,0,1-3-1.55,7.21,7.21,0,0,1-2-2.54,8.83,8.83,0,0,1,.43-7.93,8.87,8.87,0,0,1,3.2-2.89,15.53,15.53,0,0,1,4.75-1.6,32.51,32.51,0,0,1,5.81-.49h3.78V70a5.62,5.62,0,0,0-3.61-5.24,7.67,7.67,0,0,0-2.86-.49,10.53,10.53,0,0,0-2.6.29,11.76,11.76,0,0,0-2,.71,9.06,9.06,0,0,0-1.66,1l-1.43,1.08ZM209,74.94a34.43,34.43,0,0,0-3.75.2,14.64,14.64,0,0,0-3.49.77,6.7,6.7,0,0,0-2.57,1.6,3.63,3.63,0,0,0-1,2.64,3.71,3.71,0,0,0,1.57,3.37,7.67,7.67,0,0,0,4.26,1,8.39,8.39,0,0,0,3.61-.71,6.85,6.85,0,0,0,2.4-1.86,7.3,7.3,0,0,0,1.32-2.55,9.94,9.94,0,0,0,.4-2.78V74.94Z" transform="translate(-27.35 -19)"/><path class="cls-1" d="M224.9,47.32h5.15V64.75h.11a9.41,9.41,0,0,1,4-3.35,12.6,12.6,0,0,1,5.49-1.23,14.48,14.48,0,0,1,5.7,1.09,12.77,12.77,0,0,1,4.35,3,13.38,13.38,0,0,1,2.77,4.53,15.9,15.9,0,0,1,1,5.63,15.71,15.71,0,0,1-1,5.61,13.63,13.63,0,0,1-2.77,4.52,12.6,12.6,0,0,1-4.35,3,14.48,14.48,0,0,1-5.7,1.08,12.67,12.67,0,0,1-5.35-1.2,9.75,9.75,0,0,1-4.09-3.38h-.11V88H224.9ZM239,83.87a9.21,9.21,0,0,0,3.72-.72,8.09,8.09,0,0,0,2.81-2,8.63,8.63,0,0,0,1.77-3,11.81,11.81,0,0,0,0-7.61,8.58,8.58,0,0,0-1.77-3,8.07,8.07,0,0,0-2.81-1.94,10,10,0,0,0-7.44,0,8.12,8.12,0,0,0-2.8,1.94,8.58,8.58,0,0,0-1.77,3,11.81,11.81,0,0,0,0,7.61,8.63,8.63,0,0,0,1.77,3,8.15,8.15,0,0,0,2.8,2A9.28,9.28,0,0,0,239,83.87Z" transform="translate(-27.35 -19)"/><path class="cls-1" d="M274.68,65.32H267.3V77.63c0,.76,0,1.51.06,2.26a5.93,5.93,0,0,0,.42,2,3.23,3.23,0,0,0,1.15,1.43,3.85,3.85,0,0,0,2.26.55,10.41,10.41,0,0,0,1.89-.18,5.19,5.19,0,0,0,1.77-.63v4.7a6.71,6.71,0,0,1-2.37.71,16.82,16.82,0,0,1-2.26.2,10.27,10.27,0,0,1-4.61-.83,5.56,5.56,0,0,1-2.4-2.14,7,7,0,0,1-.92-3c-.1-1.09-.14-2.18-.14-3.29V65.32H256.2V60.86h5.95V47.32h5.15V60.86h7.38Z" transform="translate(-27.35 -19)"/><path class="cls-1" d="M282.34,50.09a2.62,2.62,0,0,1,.82-1.94,2.75,2.75,0,1,1,0,3.88A2.62,2.62,0,0,1,282.34,50.09Zm.18,10.77h5.15V88h-5.15Z" transform="translate(-27.35 -19)"/><path class="cls-1" d="M316.06,68.07a10.85,10.85,0,0,0-3-2.26A8.37,8.37,0,0,0,309.3,65a8.22,8.22,0,0,0-3.69.77A7.45,7.45,0,0,0,303,67.93a9.26,9.26,0,0,0-1.6,3.09,11.87,11.87,0,0,0-.55,3.63,10.18,10.18,0,0,0,.63,3.58,9,9,0,0,0,1.78,3,8.21,8.21,0,0,0,2.74,2,8.72,8.72,0,0,0,3.61.72,8.17,8.17,0,0,0,3.72-.78,9.35,9.35,0,0,0,2.86-2.26l3.66,3.67a11.59,11.59,0,0,1-4.66,3.2,16.23,16.23,0,0,1-5.64,1,15.44,15.44,0,0,1-5.75-1,13.14,13.14,0,0,1-4.49-2.89,12.76,12.76,0,0,1-2.92-4.46,15.44,15.44,0,0,1-1-5.75,15.64,15.64,0,0,1,1-5.78,12.92,12.92,0,0,1,7.35-7.47,15.26,15.26,0,0,1,5.81-1.06,15.47,15.47,0,0,1,5.7,1.06A12.49,12.49,0,0,1,320,64.52Z" transform="translate(-27.35 -19)"/><path class="cls-1" d="M94.46,25.63c-2.19,2.19-4.31,4.32-6.57,6.57l-6.6-6.61c2.11-2.1,4.27-4.26,6.56-6.56l6.61,6.6" transform="translate(-27.35 -19)"/><path class="cls-1" d="M67.16,25.6l-6.62,6.63-6.61-6.61L60.56,19c2.14,2.14,4.26,4.27,6.6,6.6" transform="translate(-27.35 -19)"/><path class="cls-1" d="M93.94,25.63,87.37,32.2l-6.6-6.61c2.11-2.1,4.27-4.26,6.56-6.56l6.61,6.6" transform="translate(-27.35 -19)"/><path class="cls-1" d="M66.64,25.6,60,32.23l-6.61-6.61L60,19c2.14,2.14,4.26,4.27,6.6,6.6" transform="translate(-27.35 -19)"/><path class="cls-1" d="M59.31,93.9,73.94,79.38l8.21,8.28,13.95,14.1L73.74,124.15l-4.67-4.71-17.6-17.76Zm58.86-13.72-5.26-5.31.07-.07-4.15-4.15,0,0L104,65.9l0,0-3.9-3.9-7.36-7.45-1.18-1.19-.11.11-.25-.25L78.13,66.34l4.15,4.15,9.08-9.07,4.41,4.46-9,9L90.93,79l9-9,4.74,4.79-9,9,4.15,4.15L108.77,79l5,5L100.91,96.94l-.75.75L86.23,83.62,74,71.24l-2,2c-5.57,5.51-11.19,11.09-16.69,16.55L47.42,97.6,33.83,83.87l4.77-4.74,9,9L51.76,84l-9-9,4.45-4.42,9,9,4.15-4.15-9-9,4.78-4.75,9,9,4.15-4.15L56.17,53.4l-.92.92L44.78,64.72C38.94,70.51,31.23,78.14,29,80.37s-2.27,4.69.34,7.31S52.42,111,64.89,123.58l8.83,8.91,2.09-2.09,29.26-29.3s11.15-11.19,13.14-13.17,2.77-4.94,0-7.75" transform="translate(-27.35 -19)"/><rect class="cls-1" x="63.37" y="91.78" width="20.84" height="20.84" transform="translate(-78.01 63.11) rotate(-45)"/><rect class="cls-1" x="61.99" y="31.9" width="24.06" height="24.06" transform="translate(-36.74 46.2) rotate(-45)"/></svg>