<svg id="Capa_1" data-name="Capa 1" xmlns="http://www.w3.org/2000/svg" viewBox="0 0 479.05 334.21"><defs><style>.cls-1{fill:#5f4500;}.cls-2{fill:#f5a800;}.cls-3{fill:#e1dddb;}.cls-4{fill:#f28e00;}</style></defs><title>logo_bats_il maya</title><path class="cls-1" d="M525,186.44l-16.07-59.53-.49-1.7-1.23-1.28L464.67,79.27l-.75-.69L463,78,409.5,47.92l-.58-.32-.71-.24L349.65,28.41l-.81-.23L348,28.1l-61.48-4.83-.73-.05-.75.11-60.84,8.06h-.27l-.27.11L163.28,44.2l-1.31.26-1.15.73-51.71,33.7-.62.46-.56.54L64.6,123.64,63.26,125l-.48,1.85L46.91,186.47l-.47,1.85.53,1.82,16.19,59.5.48,1.77L65,252.73l43,44,.69.73.86.42,53,30.65.75.44.84.26,59,16.64.3.11.31.05,61,11.22,1,.22,1.13-.11,61.67-7.58.83-.13.78-.32L408,327.72l.64-.25.62-.42,51.33-32.24.56-.34.54-.43,44.28-41.6,1.46-1.38.51-1.85,17.09-59,.51-1.9Zm-2.36,2.38-.21.73-17.07,58.94-.18.67-.15.48-.37.33-.47.53s-44.37,41.58-44.4,41.58l-.16.17-.17.09-.13.11-.22.15-51.3,32.2-.22.16-.16.1-.19.08a1.4,1.4,0,0,0-.18.12l-57.79,21.59-.3.13-.19.06h-.21l-.32,0-61.7,7.53-.4.1-.27,0-.27,0-.4-.1-61-11.23-.11,0-.18-.06-.11,0-59-16.62-.32-.13-.18-.06-.22-.13-.3-.16-53-30.59-.33-.23-.22-.12-.12-.14-.3-.3-43-44-.46-.49-.32-.34-.13-.4-.19-.67L49.52,189.43l-.19-.66-.13-.45.13-.46.16-.7,15.89-59.64.27-1.21L66,126l.5-.51L109.8,81.71l.22-.18.13-.15.16-.11.27-.15,51.73-33.71.38-.27L163,47l.34-.09.46-.1L224.21,34.1l.13-.05s0,0,.14-.07h.08l60.84-8,.27,0,.19-.05.18.05.32,0,61.47,4.8.27,0h.21l.24.09.27.08,58.54,18.91.32.13h.16l.14.17.23.11,53.52,30.09.34.15.24.11.19.23.26.28,42.47,44.63.51.46.3.38.1.37.16.7,16.16,59.5.16.7.16.46Z" transform="translate(-46.44 -23.22)"/><polygon class="cls-1" points="471.71 165.08 454.65 224.03 410.33 265.63 359.02 297.84 301.28 319.48 239.56 327.1 178.54 315.82 119.55 299.15 66.56 268.5 23.55 224.59 7.36 165.08 23.18 105.39 66.56 61.6 118.26 27.9 178.68 15.17 239.56 7.12 301.07 11.91 359.59 30.91 413.12 60.96 455.61 105.53 471.71 165.08"/><path class="cls-2" d="M163.33,159.24a9.29,9.29,0,0,1,.86-.83c-5.09-5-7.64-7.51-12.68-12.53a181.55,181.55,0,0,1,13.56-12.94c2.87.43,4.27.68,7.08,1.23l-.3-.26c-3.5-.69-5.3-1-8.92-1.44a177,177,0,0,0-13.61,13.13c5.55,5.51,8.39,8.22,14,13.64m-23.47-20.83c-5.17-3.86-7.8-5.76-13-9.61,5-4.86,7.66-7.16,13-11.61,2.69-.1,4-.18,6.65-.21-.29-.17-.43-.27-.64-.4-3.32,0-5,.08-8.31.29-5.32,4.53-8,6.83-13,11.79,5.8,4.21,8.69,6.33,14.46,10.59.35-.35.54-.54.88-.84m86.59-34.16c-.88-.32-1.36-.59-2.29-.89.18.28.27.41.45.71l1.23.45c.27-.08.37-.18.61-.27m-57.25,13c-2.68-4.91-3.91-7.37-6.49-12.3-.79-.18-1.23-.24-2.08-.46,2.49,4.88,3.8,7.32,6.37,12.09-2.14,3.14-3.21,4.74-5.23,7.93,1.7-1.13,2.58-1.67,4.32-2.74,1.16-1.85,1.77-2.73,3.11-4.52M332.31,93.48c2.46,4.23,3.59,6.4,5.66,10.72.08-.11.13-.11.24-.16a122.46,122.46,0,0,0-6.62-12.39A163,163,0,0,0,312,83.59c.24.67.35,1,.56,1.62a163,163,0,0,1,19.77,8.27m-126.48-7c1.49-1.16,2.32-1.74,3.83-2.92-.41-.7-.67-1-1.13-1.66-1.9,1.42-2.78,2.12-4.66,3.56A276.23,276.23,0,0,0,209.39,113c.54-.29.83-.43,1.36-.77-2.38-10.16-3.32-15.31-4.92-25.7M324.6,72.64c.08-2.46.08-3.78.13-6.3,3.38-.53,5.09-.86,8.55-1.32a170.55,170.55,0,0,1,16.87,6.49c2.23,2.76,3.28,4.19,5.26,7,2.81-4.7,4.26-7,7.26-11.68-.51-.41-.81-.61-1.31-1-2.73,4.29-4.05,6.4-6.65,10.69-2-2.79-3.08-4.21-5.3-7-6.73-2.78-10.13-4.1-17.1-6.46-3.45.54-5.23.8-8.65,1.48,0,2.89,0,4.4,0,7.34a10,10,0,0,1,1,.7M179.49,121c4.41,4.19,6.61,6.28,10.93,10.56a143.56,143.56,0,0,0,1.74,15.73,143,143,0,0,0-11.44,9,143.73,143.73,0,0,0-17.14,19.87c.5.44.85.73,1.41,1.18a144.93,144.93,0,0,1,17.72-20.46c4.44-3.75,6.72-5.55,11.35-8.87a141.43,141.43,0,0,1-1.65-15.7c-4.57-4.58-6.89-6.84-11.61-11.28-.47,0-.74,0-1.31,0m82.26-57.55a206.22,206.22,0,0,0-29.51,5.18c.11.66.16,1,.3,1.68a197.08,197.08,0,0,1,26-4.82c1.2-.83,1.84-1.24,3.19-2m147.94,83.31c2.78,0,4.15.05,7,.12q19.1-18.79,38.2-37.69c-.53-.3-.77-.51-1.25-.8-14.58,14.7-21.86,22-36.55,36.56-4-.15-5.86-.18-9.75-.09.91.72,1.42,1.12,2.33,1.9M425.9,90.53c-.51-.32-.78-.47-1.29-.82-7.5,8.75-11.2,13.2-18.59,22.1-6.93,12.4-10.59,18.51-18.11,30.62A131.75,131.75,0,0,0,373,136.89c-.45.61-.66.88-1.09,1.55a153.68,153.68,0,0,1,15.72,5.84c7.68-12,11.32-18.11,18.38-30.42,7.86-9.4,11.82-14,19.86-23.33M396,72c-.27,2.46-.41,3.7-.79,6.13-3.45,2.55-5.16,3.86-8.43,6.51-5.11.64-7.56,1-12.38,1.87-.13.9-.16,1.35-.27,2.18,5.09-1,7.69-1.37,13-2,3.3-2.65,5-3.94,8.52-6.46.43-3,.64-4.47,1-7.5-.27-.3-.37-.4-.64-.72m36.52,100.31a5.23,5.23,0,0,1-.54-.75c-3.54,2.95-5.28,4.36-8.82,7.28-11.22-12.65-17.44-18.14-30.6-27.29a16.27,16.27,0,0,0-1.22,1.26c13.37,9.27,19.63,14.84,31,27.78,4.1-3.28,6.11-5,10.19-8.28M214.48,137.56c-4.18,1.69-6.27,2.59-10.39,4.6.15.64.26.92.45,1.56,4.63-2.23,6.94-3.26,11.66-5.15-1.58-5.7-2.31-8.62-3.57-14.46-.83-.86-1.18-1.27-2-2.11,1.36,6.32,2.17,9.37,3.88,15.56m-5-73.76a323.58,323.58,0,0,1,43.16,57.84c-4.21,1.18-6.35,1.85-10.5,3.35l.8,1.56c4.4-1.59,6.62-2.31,11.1-3.57a322,322,0,0,0-43.92-59.45,2.5,2.5,0,0,1-.64.27m4.24,60.63c.47.53.72.78,1.22,1.32a147.89,147.89,0,0,1,21.28-10.38c-.32-.61-.51-.94-.89-1.56a150.31,150.31,0,0,0-21.61,10.62M351.85,99.49c-1.29,5.3-1.94,7.9-3.3,13.2-4.93,3.17-7.31,4.83-11.81,8.25a137.56,137.56,0,0,0-18-.67,133.61,133.61,0,0,0-14.84-5.57c-.19.52-.32.75-.51,1.26a147.64,147.64,0,0,1,15.94,6.09,143.45,143.45,0,0,1,17.85.77A127.32,127.32,0,0,1,349,114.57c1.5-5.64,2.26-8.44,3.59-14.07a8.52,8.52,0,0,0-.69-1M294.88,61a192.7,192.7,0,0,0-22.53.26c.38,10.76.62,16.13,1.12,26.94,2.29,11.67,3.39,17.57,5.31,29.31-5.14.42-7.77.73-12.91,1.52a15.88,15.88,0,0,0,.19,1.69,125.86,125.86,0,0,1,13.81-1.61c-1.84-11.78-2.88-17.61-5.05-29.39-.52-10.8-.67-16.13-1-26.95a203.07,203.07,0,0,1,22.34-.06c.81-5.22,1.23-7.87,2.11-13.1-.66,0-1,0-1.68.05-.72,4.56-1.08,6.78-1.72,11.34" transform="translate(-46.44 -23.22)"/><path class="cls-3" d="M165.93,119.88c-2.6,1.63-3.88,2.46-6.43,4.16,2-3.27,3.09-4.88,5.28-8.08-2.71-4.81-4-7.27-6.57-12.18-5-1-7.66-1.42-12.89-2.17-7.2,1.45-10.79,2.32-18.13,4.39-5.33,5.2-8,7.91-12.91,13.5-5.74,6-8.52,9.09-13.83,15.59,12.78,7.18,19.07,10.88,31.61,18.35C143.29,163.1,149,167.81,160.6,177a145.14,145.14,0,0,1,18-21.25,143.28,143.28,0,0,1,11.58-9.27,146.4,146.4,0,0,1-1.77-15.81c-4.63-4.5-7-6.66-11.79-11.09-4.24,0-6.37,0-10.72.27M135,116.62c3.35-.23,5-.33,8.36-.43,1.85,1.22,2.76,1.84,4.64,3,.05,3.94.15,5.84.42,9.67-4.84,3.89-7.26,5.89-11.94,10.27-5.85-4.24-8.74-6.33-14.61-10.49,5.1-5,7.72-7.47,13.13-12m38.74,30.77c-5.25,4.43-7.79,6.65-12.7,11.53-5.71-5.37-8.54-8.1-14.14-13.54A181.06,181.06,0,0,1,160.68,132c3.65.51,5.47.76,9,1.4,2,1.73,3,2.62,4.91,4.42-.49,3.88-.62,5.81-.81,9.61m18.11-78.63c-2.62.61-4,1-6.61,1.71a278.79,278.79,0,0,0,9.07,40.3,194.25,194.25,0,0,0,6.44,31.13c4.8-2.38,7.15-3.48,12-5.46-1.74-6.14-2.54-9.25-4-15.58,1.1,1.1,1.61,1.67,2.66,2.72a151.34,151.34,0,0,1,22.41-11.14c2.5,4.55,3.75,6.82,6.17,11.4,4.5-1.69,6.78-2.41,11.36-3.75a323.53,323.53,0,0,0-45.28-58.86c-5.82,2.79-8.63,4.34-14.23,7.53m15.68,43.11c-2.66-10.88-3.86-16.37-5.68-27.5,1.88-1.49,2.81-2.19,4.69-3.58,6.11,8.2,9,12.41,14.62,20.84,1.48.54,2.17.77,3.62,1.31a158.81,158.81,0,0,0-17.25,8.93M226.7,55.63c.91,4.79,1.36,7.21,2.3,12a211.18,211.18,0,0,1,31.22-5.79c-2.79,1.78-4.19,2.73-6.92,4.53,3.14,9,4.61,13.47,7.45,22.53,1,11.5,1.56,17.18,3,28.64,5.63-.91,8.44-1.28,14.16-1.76-2.07-11.74-3.2-17.6-5.58-29.31-.62-10.75-.89-16.19-1.37-26.94a211.31,211.31,0,0,1,22.78-.37c.74-5.28,1.15-7.85,2-13.08A218.33,218.33,0,0,0,263,49.63a214.3,214.3,0,0,0-36.27,6M342.1,84.27A162.54,162.54,0,0,0,322.83,70v-7.4c3.4-.64,5.11-.91,8.68-1.41,7.05,2.27,10.5,3.56,17.31,6.32,2.22,2.78,3.32,4.15,5.41,7,2.76-4.71,4.21-7.06,7.13-11.73-7-5.07-10.69-7.56-18.3-12.17a223.75,223.75,0,0,0-25.75-.21,197.5,197.5,0,0,0-12.7,15.81c2.65,6.13,3.89,9.16,6.13,15.33a172.46,172.46,0,0,1,20.34,8.14A134,134,0,0,1,337.86,102c-3.08,2.71-4.53,4-7.45,6.89-4.68-1.39-7.05-2-11.84-3.08-4.58-2.17-7-3.16-11.87-5-2,4.61-2.94,6.89-4.72,11.59a135.74,135.74,0,0,1,16.43,5.86,154.86,154.86,0,0,1,18.19.66c4.53-3.45,6.86-5.11,11.82-8.33,1.39-5.6,2.09-8.43,3.38-14.11a142.94,142.94,0,0,0-9.7-12.25m48.35-21.54c-4.55.38-6.82.61-11.28,1.18-1.47,3.15-2.22,4.74-3.72,7.93,1.13,2.23,1.69,3.32,2.76,5.55,2.24.18,3.4.31,5.71.54-4.11,1.12-6.11,1.74-10.13,3-.13,1.47-.19,2.22-.35,3.61,5.14-.94,7.77-1.39,13.13-2.09,3.32-2.65,5-3.94,8.5-6.57.37-3,.56-4.44.88-7.42-2.17-2.35-3.25-3.48-5.5-5.73m35.31,23.42c-7-4.66-10.53-6.81-17.87-10.88-6.23,12.83-9.51,19.26-16.1,31.91-8,10.88-11.81,16.32-19.42,27.36a140.94,140.94,0,0,1,16.1,5.83c7.43-12.13,11-18.27,17.82-30.73,7.72-9.46,11.6-14.14,19.47-23.49m-1.36,90.77c4-3.37,6.06-5,10.05-8.48-9.7-11.43-15-16.59-26.34-25.62,3.8-.09,5.79,0,9.75.05q18.86-19,37.51-38.16c-3.64-2.27-5.58-3.32-9.27-5.38-2.19-2.38-3.32-3.54-5.57-5.87-10.21,12.89-15.3,19.29-25.72,32.05-9.06,9.26-13.51,14-22.38,23.36,13.75,9.41,20.26,15,32,28" transform="translate(-46.44 -23.22)"/><path class="cls-3" d="M194.15,236.39c-1,.83-1.52,1.24-2.51,2.07a289.77,289.77,0,0,0,4.49,41.64,325,325,0,0,0,25.48-34.68,169.87,169.87,0,0,0,18.87,5.09c-4.37,14.44-6.67,21.63-11.58,35.93-1.29,12.76-1.93,19.05-3,31.83-7.42-1.39-11.1-2.28-18.41-4.23,3.38-12.06,5-18.07,8.39-30.14,2.65-6,4-9.06,6.59-15.14A335.91,335.91,0,0,1,184.86,309a390.66,390.66,0,0,1-4.42-58.25c-7.18,18.86-10.7,28.37-17.55,47.37-6.44-3-9.62-4.67-16-8.09,5.29-10.64,7.94-15.92,13.19-26.58,5.87-14.79,8.92-22.1,15.11-36.73a179.35,179.35,0,0,0,18.94,9.64" transform="translate(-46.44 -23.22)"/><path class="cls-3" d="M271.94,255.89c5-.4,7.42-.72,12.39-1.38a451.06,451.06,0,0,0,26.52,69.33c-6.86.83-10.3,1.15-17.2,1.58-1.07-5.15-1.58-7.69-2.61-12.86a226,226,0,0,1-32.2.75c-.35-1.47-.51-2.23-.88-3.67-2.92,6-4.53,9-7.74,14.86-7.34-1.41-10.93-2.22-18.14-4.1a292.7,292.7,0,0,0,19.43-27.27,411.17,411.17,0,0,0,15.4-38.77l5,1.53m-9.16,45.41a212.55,212.55,0,0,0,22.3-.69c-1.27-1-1.88-1.53-3.17-2.52-1.79-10-2.65-15-4.13-25.08-2.11.56-3.13.86-5.23,1.32-3.63,10.87-5.59,16.33-9.77,27" transform="translate(-46.44 -23.22)"/><path class="cls-3" d="M312.07,254.78a241.21,241.21,0,0,0,17.47,24.31c-.19,2.76-.29,4.14-.54,6.94a246.36,246.36,0,0,0,13-37.73c5.25-1.21,7.91-1.87,13.06-3.38-3.66,18.36-6.25,27.63-12.92,45.87,2.84,10.91,4.2,16.3,7.12,27.14a197.93,197.93,0,0,1-20.84,4c-1.34-9.7-2-14.57-3.38-24.29,1.75.5,2.66.69,4.37,1.17-14.36-15.65-20.76-24-31.62-41.28,5.74-1,8.6-1.45,14.28-2.74" transform="translate(-46.44 -23.22)"/><path class="cls-3" d="M376.39,236.77c4.32-2.76,6.41-4.18,10.58-7.24a404.41,404.41,0,0,0,53.22,49.12c-5.84,4.16-8.82,6.16-14.88,9.91-3.15-4.07-4.71-6.13-7.79-10.24a232,232,0,0,1-28.69,16.19c-.95-1.15-1.4-1.77-2.33-2.89-.17,6.8-.3,10.2-.7,17.07-7.18,2.22-10.74,3.21-18,5a318.37,318.37,0,0,0,6-33.74c-.35-17-.83-25.39-2.52-42.09,2.07-.37,3.11-.61,5.14-1.07m10.93,45.12a204.57,204.57,0,0,0,19.75-11.44c-1.55-.27-2.33-.38-3.86-.7-5.9-8.09-8.75-12.16-14.31-20.41-1.68,1.53-2.46,2.22-4.21,3.69,1.37,11.5,1.89,17.28,2.63,28.86" transform="translate(-46.44 -23.22)"/><path class="cls-3" d="M224.06,270.91A340.94,340.94,0,0,1,187.4,310.8c.22,1.07.29,1.64.45,2.79,14.5-13.48,21.17-20.66,33.26-35.67,1.2-2.81,1.74-4.2,2.95-7m-42.42-17.66c-7.07,18.92-10.47,28.4-17.2,47.48-5.81-2.65-8.73-4.05-14.47-7.07a9.66,9.66,0,0,1-.65,1.34c6.41,3.34,9.65,5,16.25,7.84,6.29-18.26,9.47-27.3,16.1-45.49,0-1.63,0-2.46,0-4.1m105.65,49-1.62-1.23a.65.65,0,0,0,.06.23c.51.41.78.6,1.29,1l.27,0m101.85-47.83c1.32-1.21,2-1.79,3.25-3-.37-.6-.59-.91-1-1.53-1.64,1.55-2.47,2.3-4.13,3.84,1.42,11.4,2,17.22,2.76,28.82.75-.4,1.13-.61,1.9-1-.8-10.91-1.37-16.38-2.74-27.09M275.92,277.69c1.67-.43,2.44-.61,4.1-1.1a18.68,18.68,0,0,1-.32-1.85c-2.09.62-3.16.89-5.25,1.44-3.53,10.89-5.44,16.28-9.62,27,.86,0,1.29,0,2.15,0,3.85-10.12,5.65-15.27,8.94-25.53m133.86-6.78c-.78-.12-1.21-.16-1.93-.32a.45.45,0,0,0,.11.2c.65.09,1,.18,1.61.28a1.3,1.3,0,0,0,.21-.16m-21.2,38.48c-6.21,2-9.32,3-15.59,4.55-.13.58-.19.91-.32,1.5,7.29-1.85,10.9-2.95,18.09-5.28.32-6.14.4-9.19.53-15.27-.85-1-1.25-1.53-2.11-2.55-.08,6.78-.22,10.21-.6,17.05m-29.49-62.54c-.83.24-1.24.4-2.09.64-3.56,17.82-6.05,26.77-12.41,44.48,2.92,10.82,4.35,16.29,7.32,27.12-7.62,1.82-11.44,2.59-19.13,3.85a9.84,9.84,0,0,1,.18,1.52c8.5-1.44,12.68-2.29,21-4.36-3-10.82-4.55-16.27-7.52-27.06,6.59-18.41,9-27.67,12.62-46.19m33.57,47.77a12.22,12.22,0,0,0,1,1.24,231,231,0,0,0,27.57-15.92c-.38-.52-.56-.81-1-1.29a215.27,215.27,0,0,1-27.62,16m-1.47-63.73c-.24.15-.41.26-.73.5a409,409,0,0,0,52.59,47.39c-5.33,3.84-8.06,5.69-13.55,9.22a11,11,0,0,1,.94,1.15c6.08-3.88,9.05-5.89,14.86-10.17a415.92,415.92,0,0,1-54.11-48.09M252.43,326.48c-6.43-1.13-9.57-1.8-15.86-3.36-.38.49-.57.73-.91,1.21,7.31,1.8,11,2.57,18.37,3.81,2.85-5.25,4.24-7.93,6.83-13.35-.32-1.28-.45-1.92-.74-3.27-3,6.06-4.56,9-7.69,15M241.6,254c-4.17,13.91-6.32,20.83-10.93,34.59-1.26,12.73-1.79,19.13-2.73,31.83-6.72-1.2-10.08-2-16.72-3.56-.19.56-.27.86-.46,1.42,7.47,1.85,11.21,2.68,18.65,4,.94-12.78,1.42-19.16,2.54-31.91,4.75-14.31,7-21.54,11.21-36-.65-.18-.91-.21-1.56-.35m45,3.81a457,457,0,0,0,26.72,67.49c-6.25.86-9.44,1.15-15.73,1.66.11.61.19.89.35,1.5,6.93-.54,10.39-.89,17.25-1.87a462.85,462.85,0,0,1-27.7-68.86l-.89.08m-24.43,57.47c.14.58.24.94.42,1.61a245.38,245.38,0,0,0,31.06-1.05c-.11-.67-.22-1-.37-1.6a230,230,0,0,1-31.11,1" transform="translate(-46.44 -23.22)"/><path class="cls-3" d="M194.15,236.39c-1,.83-1.52,1.24-2.51,2.07a289.77,289.77,0,0,0,4.49,41.64,325,325,0,0,0,25.48-34.68,169.87,169.87,0,0,0,18.87,5.09c-4.37,14.44-6.67,21.63-11.58,35.93-1.29,12.76-1.93,19.05-3,31.83-7.42-1.39-11.1-2.28-18.41-4.23,3.38-12.06,5-18.07,8.39-30.14,2.65-6,4-9.06,6.59-15.14A335.91,335.91,0,0,1,184.86,309a390.66,390.66,0,0,1-4.42-58.25c-7.18,18.86-10.7,28.37-17.55,47.37-6.44-3-9.62-4.67-16-8.09,5.29-10.64,7.94-15.92,13.19-26.58,5.87-14.79,8.92-22.1,15.11-36.73a179.35,179.35,0,0,0,18.94,9.64" transform="translate(-46.44 -23.22)"/><path class="cls-3" d="M271.94,255.89c5-.4,7.42-.72,12.39-1.38a451.06,451.06,0,0,0,26.52,69.33c-6.86.83-10.3,1.15-17.2,1.58-1.07-5.15-1.58-7.69-2.61-12.86a226,226,0,0,1-32.2.75c-.35-1.47-.51-2.23-.88-3.67-2.92,6-4.53,9-7.74,14.86-7.34-1.41-10.93-2.22-18.14-4.1a292.7,292.7,0,0,0,19.43-27.27,411.17,411.17,0,0,0,15.4-38.77l5,1.53m-9.16,45.41a212.55,212.55,0,0,0,22.3-.69c-1.27-1-1.88-1.53-3.17-2.52-1.79-10-2.65-15-4.13-25.08-2.11.56-3.13.86-5.23,1.32-3.63,10.87-5.59,16.33-9.77,27" transform="translate(-46.44 -23.22)"/><path class="cls-3" d="M312.07,254.78a241.21,241.21,0,0,0,17.47,24.31c-.19,2.76-.29,4.14-.54,6.94a246.36,246.36,0,0,0,13-37.73c5.25-1.21,7.91-1.87,13.06-3.38-3.66,18.36-6.25,27.63-12.92,45.87,2.84,10.91,4.2,16.3,7.12,27.14a197.93,197.93,0,0,1-20.84,4c-1.34-9.7-2-14.57-3.38-24.29,1.75.5,2.66.69,4.37,1.17-14.36-15.65-20.76-24-31.62-41.28,5.74-1,8.6-1.45,14.28-2.74" transform="translate(-46.44 -23.22)"/><path class="cls-3" d="M376.39,236.77c4.32-2.76,6.41-4.18,10.58-7.24a404.41,404.41,0,0,0,53.22,49.12c-5.84,4.16-8.82,6.16-14.88,9.91-3.15-4.07-4.71-6.13-7.79-10.24a232,232,0,0,1-28.69,16.19c-.95-1.15-1.4-1.77-2.33-2.89-.17,6.8-.3,10.2-.7,17.07-7.18,2.22-10.74,3.21-18,5a318.37,318.37,0,0,0,6-33.74c-.35-17-.83-25.39-2.52-42.09,2.07-.37,3.11-.61,5.14-1.07m10.93,45.12a204.57,204.57,0,0,0,19.75-11.44c-1.55-.27-2.33-.38-3.86-.7-5.9-8.09-8.75-12.16-14.31-20.41-1.68,1.53-2.46,2.22-4.21,3.69,1.37,11.5,1.89,17.28,2.63,28.86" transform="translate(-46.44 -23.22)"/><rect class="cls-4" x="86.8" y="183.03" width="12.21" height="12.21"/><rect class="cls-4" x="74.59" y="170.83" width="12.21" height="12.2"/><rect class="cls-4" x="74.59" y="195.25" width="12.21" height="12.2"/><rect class="cls-4" x="62.4" y="158.6" width="12.2" height="12.23"/><rect class="cls-4" x="62.4" y="207.44" width="12.2" height="12.21"/><rect class="cls-4" x="50.16" y="170.83" width="12.24" height="12.2"/><rect class="cls-4" x="50.16" y="195.25" width="12.24" height="12.2"/><rect class="cls-4" x="37.99" y="183.03" width="12.17" height="12.21"/><path class="cls-4" d="M385.94,204.37a153.92,153.92,0,0,0-48.6-4.91A498.62,498.62,0,0,0,287.26,205c-16.75,4.08-33.12,7.4-50.29,9.89a103.35,103.35,0,0,1-49.37-18.27c17.86,5,31.34,6.59,49.94,6.1,17.06-2.19,33.41-5.27,50.16-9.05a500.3,500.3,0,0,1,50.06-7.07c18.94,3.48,31.81,8.33,48.18,17.74" transform="translate(-46.44 -23.22)"/><rect class="cls-4" x="62.47" y="182.98" width="12.17" height="12.21"/><rect class="cls-4" x="432.51" y="183.03" width="12.2" height="12.21"/><rect class="cls-4" x="420.27" y="170.83" width="12.24" height="12.2"/><rect class="cls-4" x="420.27" y="195.25" width="12.24" height="12.2"/><rect class="cls-4" x="408.11" y="158.6" width="12.17" height="12.23"/><rect class="cls-4" x="408.11" y="207.44" width="12.17" height="12.21"/><rect class="cls-4" x="395.88" y="170.83" width="12.21" height="12.2"/><rect class="cls-4" x="395.88" y="195.25" width="12.21" height="12.2"/><rect class="cls-4" x="383.69" y="183.03" width="12.19" height="12.21"/><rect class="cls-4" x="408.13" y="182.98" width="12.24" height="12.21"/></svg>