<svg viewBox="0 0 833.871 209.244" xmlns="http://www.w3.org/2000/svg"><g fill="#3f2b15" transform="translate(-46.51 -463.643)"><path d="m740.454 600.093a206.051 206.051 0 0 1 -28.177-.41c-10.111-.756-15.188-7.227-15.188-19.326v-116.006h14.181a12.442 12.442 0 0 1 9.1 3.958 12.888 12.888 0 0 1 3.956 9.469v17.748h16.125v5.534a12.49 12.49 0 0 1 -3.935 9.584 13.053 13.053 0 0 1 -9.422 3.82h-2.768v58.368c0 4.527 2.607 6.747 7.846 6.747h8.279z"/><path d="m748.8 464.351h14.181a13.592 13.592 0 0 1 13.424 13.427v8.279h-27.605zm0 30.763h14.181a12.79 12.79 0 0 1 9.422 3.934 12.589 12.589 0 0 1 4 9.422v91.623h-27.603z"/><path d="m797.974 585.8c-8.187-9.446-12.555-23.329-12.555-40.161q0-26.454 12.626-40.644c8.461-9.7 20.148-14.591 35.175-14.591 12.352 0 22.643 2.972 30.739 9.057 8.167 5.784 13.586 14.316 16.422 25.432l-16.994-.068c-3.454 0-7.89-1.213-9.9-3.181a53 53 0 0 0 -7.3-5.625 22.237 22.237 0 0 0 -11.39-2.769c-6.883 0-12.007 2.059-15.392 6.336q-7.134 7.479-7.136 25.664c0 12.12 2.38 20.743 7.136 26.05l-.091-.114c3.384 4.229 8.509 6.311 15.345 6.311a22.872 22.872 0 0 0 11.483-2.745 49 49 0 0 0 7.2-5.534c2.012-2.058 6.45-3.272 9.926-3.272l17.04-.021c-2.836 11.069-8.281 19.6-16.4 25.432-8.234 6.038-18.481 9.057-30.83 9.057-14.978 0-26.686-4.824-35.104-14.614z"/><path d="m255.167 585.8c-8.167-9.446-12.5-23.329-12.5-40.161q0-26.454 12.59-40.644c8.462-9.7 20.184-14.591 35.154-14.591 12.362 0 22.6 2.972 30.784 9.057 8.143 5.784 13.53 14.316 16.467 25.432l-17.05-.068c-3.487 0-7.89-1.213-9.949-3.181a50.8 50.8 0 0 0 -7.251-5.625 22.333 22.333 0 0 0 -11.424-2.769c-6.872 0-11.961 2.059-15.416 6.336-4.721 4.986-7.054 13.541-7.054 25.664s2.333 20.743 7.054 26.05l-.068-.114c3.42 4.229 8.521 6.311 15.392 6.311a22.344 22.344 0 0 0 11.425-2.745c.789-.227 5.7-4.026 7.227-5.534 2.047-2.058 6.509-3.272 9.928-3.272l17.038-.021c-2.847 11.069-8.29 19.6-16.422 25.432-8.176 6.038-18.411 9.057-30.772 9.057-14.981 0-26.736-4.824-35.153-14.614z"/><path d="m472.412 623.584a12.766 12.766 0 0 1 -3.958 9.469 12.9 12.9 0 0 1 -9.434 3.979h-13.459v-98.324c0-18.366 5.419-30.968 16.216-37.648a65.17 65.17 0 0 1 35.072-10.06 57.244 57.244 0 0 1 20 3.729 37.37 37.37 0 0 1 15.931 10.865q11.817 15.369 11.813 39.475c0 16.6-3.935 29.985-11.813 40.231-7.891 10.041-18.011 14.982-30.4 14.982a39.948 39.948 0 0 1 -17.335-3.522 29.266 29.266 0 0 1 -12.636-12.237zm46.314-78.7c0-10.291-2.082-18.16-6.153-23.718-4.049-5.557-9.869-8.3-17.438-8.3-7.308 0-12.968 2.745-17.018 8.3-3.843 4.963-5.705 12.877-5.705 23.718 0 10 2.024 17.43 6.071 22.46 4.094 5.49 9.881 8.279 17.441 8.279a19.584 19.584 0 0 0 16.649-8.279c4.071-5.513 6.153-12.993 6.153-22.462z"/><path d="m658.824 464.649h14.228a13.206 13.206 0 0 1 9.446 3.728 12.524 12.524 0 0 1 3.979 9.286v122.751h-27.653z"/><path d="m629 566.473 18.914.115c-3.019 11.047-8.644 19.327-16.788 25.09-8.279 5.97-18.56 8.827-30.933 8.692q-22.488-.209-34.972-14.982-12.485-14.306-12.178-40.757.274-25.283 12.694-39.315 12.78-14.478 35.269-14.2c15.78.115 27.994 5.01 36.526 14.547 8.3 9.857 12.394 23.443 12.19 40.779 0 1.1-.023 2.014-.023 2.792v1.578a6.214 6.214 0 0 1 -.457 2.766l-68.261-.754c.171 8.165 2.094 14.2 5.717 18.228 3.387 4.232 8.476 6.108 15.324 6.45a21.68 21.68 0 0 0 13.471-3.637c.916-.571 4.621-3.749 6.371-5.031a14.013 14.013 0 0 1 7.136-2.361zm-47.813-31.425 40.253.412c-.469-7.092-2.241-12.328-5.34-15.827-3.352-3.706-8.235-5.558-14.591-5.673-5.787-.091-10.511 1.693-14.216 5.4-3.737 3.612-5.763 8.873-6.105 15.688z"/><path d="m409.915 548.039a78.1 78.1 0 0 1 -15.392 5.122l-9.08 1.944c-4.712 1.373-7.731 2.654-10.247 5.124-2.412 2.471-2.768 5.809-2.768 8.715a12.927 12.927 0 0 0 3.546 9.469c2.377 2.1 5.832 3.155 10.258 3.155 7.375 0 13.151-2.1 17.383-6.312 4.185-4.209 6.3-9.972 6.3-17.383zm6.323 48.534a48.574 48.574 0 0 1 -17.553 5.305 149.679 149.679 0 0 1 -16.411 1.007 41.411 41.411 0 0 1 -24.825-7.708c-7.113-5.1-10.671-13.609-10.671-25.455q0-16.536 9.663-23.65c6.439-4.733 14.685-7.684 24.655-9.492 1.647-.274 8.68-1.349 11.059-1.577 11.584-1.578 17.383-5.033 17.383-10.293a10.528 10.528 0 0 0 -6.406-9.469c-4.447-1.646-13.265-2.194-19.759 2.607-2.79 2.059-8.132 6.93-11.163 8.211-3.773 1.717-23.614.939-23.614.939 1.042-8.143 6.988-17.521 13.288-22.757a49.456 49.456 0 0 1 31.564-11.483c14.753 0 23.306 3.3 30.66 8.3 7.649 5.239 11.445 12.6 11.445 22.072v35.931c0 10.521-1.9 18.8-5.693 24.678-3.832 5.881-8.394 10.204-13.622 12.834z"/><path d="m533.7 672.186h-4.93a4.7 4.7 0 0 1 -3.454-1.258 4.092 4.092 0 0 1 -1.337-3.248v-18.18c0-2.15-.652-3.749-2.024-4.689a7.616 7.616 0 0 0 -4.586-1.531 6.987 6.987 0 0 0 -4.471 1.531 5.342 5.342 0 0 0 -2.058 4.689v22.69h-9.84v-20.865c0-6.037 1.7-10.108 5-12.167a22.436 22.436 0 0 1 11.083-3.339 21.951 21.951 0 0 1 11.424 3.089c3.476 2.012 5.192 6.174 5.192 12.417z"/><path d="m570.792 636.575v20.925c0 6.359-1.668 10.429-5.157 12.465a23.011 23.011 0 0 1 -11.425 2.906 24.164 24.164 0 0 1 -11.045-3.18c-3.328-1.968-5.033-6.062-5.033-12.191v-20.925h9.834v22.755a5.448 5.448 0 0 0 2.026 4.713 7.524 7.524 0 0 0 4.527 1.463 7.747 7.747 0 0 0 4.563-1.463 5.355 5.355 0 0 0 2.058-4.713v-18.157a4.461 4.461 0 0 1 1.305-3.249 5.126 5.126 0 0 1 3.487-1.349z"/><path d="m612.567 660.476h9.56a4.967 4.967 0 0 0 2.106 3.979 10.257 10.257 0 0 0 5.66 1.325 9.721 9.721 0 0 0 4.392-.936 2.91 2.91 0 0 0 1.669-2.516c0-1.646-1.943-2.836-5.946-3.637a24.1 24.1 0 0 1 -3.752-.824c-5.031-1.1-8.279-2.539-10-4.139a7.83 7.83 0 0 1 -2.845-6.382 10.423 10.423 0 0 1 4.082-8.438c2.848-2.059 6.494-3.089 11.024-3.089 4.9 0 8.736 1.03 11.663 3.089a11.628 11.628 0 0 1 4.391 8.668h-6.082a4.406 4.406 0 0 1 -4.026-2.288c-.412-.366-.824-.687-1.213-1.052a7.566 7.566 0 0 0 -4.642-1.211 8.492 8.492 0 0 0 -4.185.8 2.729 2.729 0 0 0 -1.293 2.4c0 1.44 2.424 2.63 7.307 3.635.642.161 1.052.3 1.464.412a12.039 12.039 0 0 0 1.237.115c4.8 1.166 8.141 2.494 9.993 4a8.4 8.4 0 0 1 2.7 6.4 10.614 10.614 0 0 1 -4.55 9.172c-2.79 1.946-7 2.906-12.671 2.906-5.328 0-9.354-1.007-11.972-3.066-2.733-2.058-4.073-5.03-4.073-9.012z"/><path d="m666.9 672.186a68.3 68.3 0 0 1 -10.087-.091c-3.591-.3-5.352-2.471-5.352-6.589v-39.339h5.054a4.661 4.661 0 0 1 3.2 1.328 4.433 4.433 0 0 1 1.419 3.246v5.993h5.766v1.83a4.205 4.205 0 0 1 -1.443 3.339 4.777 4.777 0 0 1 -3.337 1.235h-.984v19.853c0 1.508.937 2.265 2.789 2.265h2.975z"/><path d="m670.605 672.186v-17.2a22.1 22.1 0 0 1 1.646-8.783 14.748 14.748 0 0 1 4.436-5.74 18.259 18.259 0 0 1 6.313-2.951 30.042 30.042 0 0 1 7.364-.937h1.213l.183 9.537h-3.225c-2.792 0-4.757.618-6.085 1.853-1.281 1.213-1.967 3.2-1.967 5.923v18.3z"/><path d="m700.337 669.029a13.309 13.309 0 0 1 -4.277-6.5 28.636 28.636 0 0 1 -1.257-8.485 24.369 24.369 0 0 1 1.051-7.251 14.55 14.55 0 0 1 3.27-6.038 15.139 15.139 0 0 1 9.492-4.78 23.079 23.079 0 0 1 10.385.893 14.277 14.277 0 0 1 7.935 6.951 21.557 21.557 0 0 1 2.356 10.338 24.956 24.956 0 0 1 -.937 7.342 19.912 19.912 0 0 1 -2.539 5.239 14.127 14.127 0 0 1 -8.647 5.443 18.931 18.931 0 0 1 -9.33.227 16.771 16.771 0 0 1 -7.502-3.379zm6.724-23.627c-2.012 2.106-2.881 5.146-2.653 9.172.182 4.117.939 6.93 2.4 8.555a6.06 6.06 0 0 0 2.949 1.829 7.1 7.1 0 0 0 8.167-2.883c1.075-1.6 1.761-4.276 1.829-7.775 0-3.249-.527-5.626-1.6-7.272a7.185 7.185 0 0 0 -3.75-3.066 7.033 7.033 0 0 0 -4.232-.091 8.876 8.876 0 0 0 -3.11 1.529z"/><path d="m825.627 672.186v-36.686c0-3.18.824-5.581 2.606-7.227 1.694-1.464 4.507-2.242 8.326-2.242a3045.648 3045.648 0 0 0 4.642.274v7.319h-2.515a5.9 5.9 0 0 0 -2.813.548 2.566 2.566 0 0 0 -.686 2.15v2.471h6.013v1.967a4.125 4.125 0 0 1 -1.393 3.247 4.558 4.558 0 0 1 -3.249 1.281h-1.372v26.9z"/><path d="m860.575 633.3-17.268 18.37m27.744-29.208-8.806 8.417h-4.736l4.026-6.792a5.763 5.763 0 0 1 1.007-.983 3.033 3.033 0 0 1 2.059-.642z"/><path d="m600.939 661.572h6.561a14.547 14.547 0 0 1 -5.74 8.326 18.115 18.115 0 0 1 -10.7 2.974c-5.216 0-9.263-1.555-12.214-4.827q-4.374-4.63-4.368-13.424c0-5.514 1.382-9.835 4.23-12.992 2.927-3.248 6.977-4.848 12.249-4.848 5.489 0 9.719 1.555 12.75 4.71 2.892 3.2 4.367 7.687 4.367 13.427v1.394a4.072 4.072 0 0 1 -.112.915h-23.778c.126 2.745.8 4.689 2.105 5.994 1.166 1.417 2.928 2.035 5.305 2.15a8.1 8.1 0 0 0 4.7-1.328c.309-.183 1.567-1.19 2.207-1.647a4.684 4.684 0 0 1 2.438-.824zm-16.755-10.172h14a8.136 8.136 0 0 0 -1.888-5.193 7.606 7.606 0 0 0 -10 0 7.285 7.285 0 0 0 -2.112 5.193z"/><path d="m871.1 661.572h6.588a14.628 14.628 0 0 1 -5.764 8.326c-2.791 2.014-6.382 2.974-10.7 2.974-5.169 0-9.307-1.555-12.258-4.827q-4.29-4.63-4.3-13.424c0-5.514 1.417-9.835 4.208-12.992 2.973-3.248 7.045-4.848 12.259-4.848 5.443 0 9.722 1.555 12.717 4.71 2.881 3.2 4.368 7.687 4.368 13.427v1.394a4.153 4.153 0 0 1 -.068.915h-23.775c.071 2.745.757 4.689 2.038 5.994 1.187 1.417 3.019 2.035 5.372 2.15a8.215 8.215 0 0 0 4.689-1.328c.253-.183 1.6-1.19 2.106-1.647a5.043 5.043 0 0 1 2.52-.824zm-16.725-10.172h14a8.257 8.257 0 0 0 -1.9-5.193 7 7 0 0 0 -5.145-1.876 6.894 6.894 0 0 0 -4.916 1.876 7.117 7.117 0 0 0 -2.039 5.193z"/><path d="m811.722 654.347a28.683 28.683 0 0 1 -5.513 1.691l-3.225.686a7.282 7.282 0 0 0 -3.658 1.693 3.874 3.874 0 0 0 -1.007 2.972 4.253 4.253 0 0 0 1.257 3.157 5.044 5.044 0 0 0 3.682 1.122 8.6 8.6 0 0 0 6.176-2.105 7.847 7.847 0 0 0 2.288-5.879zm2.2 16.375a19.9 19.9 0 0 1 -6.221 1.829 57.178 57.178 0 0 1 -5.855.321 15.274 15.274 0 0 1 -8.874-2.562c-2.562-1.785-3.752-4.642-3.752-8.691 0-3.705 1.052-6.359 3.408-8a21.433 21.433 0 0 1 8.806-3.179c.6-.114 3.087-.459 3.888-.573 4.232-.5 6.243-1.691 6.243-3.408a3.548 3.548 0 0 0 -2.309-3.27 8.437 8.437 0 0 0 -7.045.961 32.119 32.119 0 0 1 -3.934 2.745c-1.373.571-8.462.274-8.462.274a13.622 13.622 0 0 1 4.757-7.731 18.539 18.539 0 0 1 11.3-3.865c5.237 0 8.209 1.12 10.886 2.813a8.523 8.523 0 0 1 4.07 7.525v12.146c0 3.52-.686 6.335-2.058 8.347a11.963 11.963 0 0 1 -4.853 4.318z"/><path d="m757.059 667.93c-2.974-3.11-4.438-7.822-4.438-13.492 0-5.9 1.419-10.476 4.482-13.678 2.951-3.248 7.092-4.894 12.42-4.894a18.579 18.579 0 0 1 10.865 3.042 14.612 14.612 0 0 1 5.9 8.6l-6.085-.047a6 6 0 0 1 -3.52-1.075 13.279 13.279 0 0 0 -2.586-1.876 7.925 7.925 0 0 0 -4-.96c-2.471 0-4.277.709-5.467 2.126-1.693 1.717-2.538 4.6-2.538 8.671 0 4.023.845 7 2.538 8.735h-.023a6.832 6.832 0 0 0 5.422 2.082 9.531 9.531 0 0 0 4.07-.847 21.59 21.59 0 0 0 2.539-1.921 5.886 5.886 0 0 1 3.522-1.119h6.085a14.454 14.454 0 0 1 -5.855 8.529 18.372 18.372 0 0 1 -10.888 3.066c-5.354 0-9.471-1.602-12.443-4.942z"/><path d="m198.707 548.245s17.693-11.551 17.693-31.724c0-20.857-22.619-26.485-22.619-26.485l-50.158 50.157a14.207 14.207 0 0 0 -3.874-3.888l49.824-49.883s-5.6-22.6-26.4-22.6c-15.032 0-25.286 9.82-29.542 14.829 2.094-.738 20.315 14.447 20.453 31.873.067 11.3-8.5 20.484-14.611 25.6a14.573 14.573 0 0 0 -6.17-2.206c-.364-15.731-1.109-54.143.271-55.2a33 33 0 0 0 -2.169 2.811s-11.733-17.885-31.928-17.885c-20.8 0-26.451 22.643-26.451 22.643l50.136 50.127a14.352 14.352 0 0 0 -3.868 4l-50.244-50.24s-22.54 5.672-22.54 26.44c0 20.194 17.827 31.929 17.827 31.929s-17.689 11.571-17.689 31.814c0 20.79 22.6 26.438 22.6 26.438l50.542-50.6a14.387 14.387 0 0 0 4.1 3.758l-50.496 50.456s5.672 22.573 26.464 22.573c20.15 0 31.781-17.633 31.781-17.633s11.709 17.795 31.905 17.795c20.812 0 26.463-22.575 26.463-22.575l-50.707-50.71a14.335 14.335 0 0 0 4.06-3.831l50.628 50.606s22.54-5.649 22.54-26.392c-.002-20.263-17.821-31.997-17.821-31.997zm-29.069-22.667c17.509.091 32.719 18.435 31.894 20.448-.551 1.432-40.109.624-55.682.25a13.733 13.733 0 0 0 -2.063-5.841c5.054-6.115 14.36-14.961 25.851-14.857zm-60.928-15c.159-17.451 18.478-32.683 20.493-31.861 1.409.6.646 39.433.276 55.227a14.466 14.466 0 0 0 -6.031 2.287c-6.117-5.081-14.813-14.302-14.738-25.656zm-47.15 35.77c-.8-2.059 14.432-20.354 31.87-20.492 11.406-.06 20.651 8.7 25.708 14.813a13.865 13.865 0 0 0 -1.988 5.929c-15.54.372-54.994 1.18-55.59-.253zm31.87 24.882c-17.506-.091-32.763-18.48-31.916-20.424.58-1.49 40.323-.686 55.805-.315a13.881 13.881 0 0 0 2.275 5.423c-4.972 6.124-14.436 15.392-26.164 15.316zm35.977 46.932c-1.978.777-20.308-14.408-20.435-32-.069-11.651 9.11-21.062 15.221-26.035a14.591 14.591 0 0 0 5.473 1.833c.368 15.191 1.208 55.589-.259 56.202zm24.895-32c-.111 17.542-18.455 32.683-20.445 31.929-1.422-.577-.616-41.011-.265-56.144a14.521 14.521 0 0 0 5.366-1.869c6.125 4.949 15.442 14.395 15.342 26.087zm15.336-15.277c-11.69.106-21.083-9.057-26.054-15.185a13.9 13.9 0 0 0 2.2-5.53c15.448-.366 55.115-1.164 55.7.29.804 1.994-14.384 20.313-31.846 20.428z"/></g></svg>