<?xml version="1.0" encoding="utf-8"?>
<!-- Generator: Adobe Illustrator 23.0.2, SVG Export Plug-In . SVG Version: 6.00 Build 0)  -->
<svg version="1.1" id="Capa_1" xmlns="http://www.w3.org/2000/svg" xmlns:xlink="http://www.w3.org/1999/xlink" x="0px" y="0px"
	 viewBox="0 0 479 334.2" style="enable-background:new 0 0 479 334.2;" xml:space="preserve">
<style type="text/css">
	.st0{fill:#40290A;}
	.st1{fill:#FFFFFF;}
	.st2{fill:#E1DDDB;}
</style>
<title>logo_bats_il maya</title>
<path class="st0" d="M478.6,163.2l-16.1-59.5L462,102l-1.2-1.3L418.2,56l-0.8-0.7l-0.9-0.6l-53.5-30.1l-0.6-0.3l-0.7-0.2L303.2,5.2
	L302.4,5l-0.8-0.1l-61.5-4.8l-0.7,0l-0.8,0.1l-60.8,8.1h-0.3l-0.3,0.1L116.8,21l-1.3,0.3l-1.1,0.7L62.7,55.7l-0.6,0.5l-0.6,0.5
	l-43.3,43.8l-1.3,1.4l-0.5,1.8L0.5,163.2L0,165.1l0.5,1.8l16.2,59.5l0.5,1.8l1.4,1.3l43,44l0.7,0.7l0.9,0.4l53,30.6l0.8,0.4l0.8,0.3
	l59,16.6l0.3,0.1l0.3,0l61,11.2l1,0.2l1.1-0.1l61.7-7.6l0.8-0.1l0.8-0.3l57.8-21.6l0.6-0.2l0.6-0.4l51.3-32.2l0.6-0.3l0.5-0.4
	l44.3-41.6l1.5-1.4l0.5-1.9l17.1-59l0.5-1.9L478.6,163.2z M476.2,165.6l-0.2,0.7l-17.1,58.9l-0.2,0.7l-0.1,0.5l-0.4,0.3l-0.5,0.5
	c0,0-44.4,41.6-44.4,41.6l-0.2,0.2l-0.2,0.1l-0.1,0.1l-0.2,0.1l-51.3,32.2l-0.2,0.2l-0.2,0.1l-0.2,0.1c-0.1,0-0.1,0.1-0.2,0.1
	l-57.8,21.6l-0.3,0.1l-0.2,0.1h-0.2h-0.3l-61.7,7.5l-0.4,0.1h-0.3h-0.3l-0.4-0.1l-61-11.2h-0.1l-0.2-0.1h-0.1l-59-16.6l-0.3-0.1
	l-0.2-0.1l-0.2-0.1l-0.3-0.2l-53-30.6l-0.3-0.2l-0.2-0.1l-0.1-0.1l-0.3-0.3l-43-44l-0.5-0.5l-0.3-0.3l-0.1-0.4l-0.2-0.7L3.1,166.2
	l-0.2-0.7l-0.1-0.4l0.1-0.5l0.2-0.7l15.9-59.6l0.3-1.2l0.3-0.3l0.5-0.5l43.3-43.8l0.2-0.2l0.1-0.2l0.2-0.1l0.3-0.2l51.7-33.7
	l0.4-0.3l0.3-0.1l0.3-0.1l0.5-0.1l60.4-12.7l0.1,0c0,0,0,0,0.1-0.1h0.1l60.8-8h0.3l0.2,0l0.2,0h0.3l61.5,4.8h0.3h0.2l0.2,0.1
	l0.3,0.1l58.5,18.9l0.3,0.1h0.2l0.1,0.2l0.2,0.1l53.5,30.1l0.3,0.2l0.2,0.1l0.2,0.2l0.3,0.3l42.5,44.6l0.5,0.5l0.3,0.4l0.1,0.4
	l0.2,0.7L476,164l0.2,0.7l0.2,0.5L476.2,165.6z"/>
<polygon class="st0" points="471.7,165.1 454.6,224 410.3,265.6 359,297.8 301.3,319.5 239.6,327.1 178.5,315.8 119.6,299.1 
	66.6,268.5 23.5,224.6 7.4,165.1 23.2,105.4 66.6,61.6 118.3,27.9 178.7,15.2 239.6,7.1 301.1,11.9 359.6,30.9 413.1,61 
	455.6,105.5 "/>
<path class="st1" d="M119.5,96.7c-2.6,1.6-3.9,2.5-6.4,4.2c2-3.3,3.1-4.9,5.3-8.1c-2.7-4.8-4-7.3-6.6-12.2c-5-1-7.7-1.4-12.9-2.2
	c-7.2,1.4-10.8,2.3-18.1,4.4c-5.3,5.2-8,7.9-12.9,13.5c-5.7,6-8.5,9.1-13.8,15.6c12.8,7.2,19.1,10.9,31.6,18.4
	c11.2,9.7,16.9,14.4,28.5,23.6c5.3-7.6,11.3-14.8,18-21.2c3.7-3.3,7.6-6.4,11.6-9.3c-0.9-5.2-1.5-10.5-1.8-15.8
	c-4.6-4.5-7-6.7-11.8-11.1C125.9,96.4,123.8,96.4,119.5,96.7 M88.6,93.4c3.4-0.2,5-0.3,8.4-0.4c1.9,1.2,2.8,1.8,4.6,3
	c0.1,3.9,0.1,5.8,0.4,9.7c-4.8,3.9-7.3,5.9-11.9,10.3c-5.9-4.2-8.7-6.3-14.6-10.5C80.5,100.4,83.1,97.9,88.6,93.4 M127.3,124.2
	c-5.2,4.4-7.8,6.6-12.7,11.5c-5.7-5.4-8.5-8.1-14.1-13.5c4.4-4.7,9-9.2,13.8-13.4c3.6,0.5,5.5,0.8,9,1.4c2,1.7,3,2.6,4.9,4.4
	C127.7,118.5,127.5,120.4,127.3,124.2 M145.4,45.6c-2.6,0.6-4,1-6.6,1.7c2,13.6,5.1,27.1,9.1,40.3c1.3,10.5,3.4,20.9,6.4,31.1
	c4.8-2.4,7.1-3.5,12-5.5c-1.7-6.1-2.5-9.2-4-15.6c1.1,1.1,1.6,1.7,2.7,2.7c7.1-4.3,14.6-8.1,22.4-11.1c2.5,4.6,3.8,6.8,6.2,11.4
	c4.5-1.7,6.8-2.4,11.4-3.8c-12.8-21.3-28-41-45.3-58.9C153.9,40.8,151,42.4,145.4,45.6 M161.1,88.7c-2.7-10.9-3.9-16.4-5.7-27.5
	c1.9-1.5,2.8-2.2,4.7-3.6c6.1,8.2,9,12.4,14.6,20.8c1.5,0.5,2.2,0.8,3.6,1.3C172.4,82.4,166.7,85.4,161.1,88.7 M180.3,32.4
	c0.9,4.8,1.4,7.2,2.3,12c10.2-2.7,20.7-4.6,31.2-5.8c-2.8,1.8-4.2,2.7-6.9,4.5c3.1,9,4.6,13.5,7.4,22.5c1,11.5,1.6,17.2,3,28.6
	c5.6-0.9,8.4-1.3,14.2-1.8c-2.1-11.7-3.2-17.6-5.6-29.3c-0.6-10.8-0.9-16.2-1.4-26.9c7.6-0.5,15.2-0.7,22.8-0.4
	c0.7-5.3,1.1-7.9,2-13.1c-11,0.4-21.9,1.5-32.7,3.5C204.3,27.4,192.2,29.4,180.3,32.4 M295.7,61c-6.1-5.2-12.5-10-19.3-14.3v-7.4
	c3.4-0.6,5.1-0.9,8.7-1.4c7,2.3,10.5,3.6,17.3,6.3c2.2,2.8,3.3,4.2,5.4,7c2.8-4.7,4.2-7.1,7.1-11.7c-7-5.1-10.7-7.6-18.3-12.2
	c-8.6-0.6-17.2-0.6-25.8-0.2c-4.5,5-8.7,10.3-12.7,15.8c2.6,6.1,3.9,9.2,6.1,15.3c6.9,2.3,13.7,5,20.3,8.1c2.5,4,4.7,8.1,6.8,12.3
	c-3.1,2.7-4.5,4-7.5,6.9c-4.7-1.4-7-2-11.8-3.1c-4.6-2.2-7-3.2-11.9-5c-2,4.6-2.9,6.9-4.7,11.6c5.6,1.6,11.1,3.6,16.4,5.9
	c6.1-0.1,12.1,0.1,18.2,0.7c4.5-3.4,6.9-5.1,11.8-8.3c1.4-5.6,2.1-8.4,3.4-14.1C302.4,69,299.1,64.9,295.7,61 M344,39.5
	c-4.5,0.4-6.8,0.6-11.3,1.2c-1.5,3.2-2.2,4.7-3.7,7.9c1.1,2.2,1.7,3.3,2.8,5.6c2.2,0.2,3.4,0.3,5.7,0.5c-4.1,1.1-6.1,1.7-10.1,3
	c-0.1,1.5-0.2,2.2-0.4,3.6c5.1-0.9,7.8-1.4,13.1-2.1c3.3-2.7,5-3.9,8.5-6.6c0.4-3,0.6-4.4,0.9-7.4C347.3,42.9,346.3,41.7,344,39.5
	 M379.3,62.9c-7-4.7-10.5-6.8-17.9-10.9c-6.2,12.8-9.5,19.3-16.1,31.9c-8,10.9-11.8,16.3-19.4,27.4c5.5,1.6,10.9,3.6,16.1,5.8
	c7.4-12.1,11-18.3,17.8-30.7C367.6,76.9,371.4,72.2,379.3,62.9 M378,153.7c4-3.4,6.1-5,10-8.5c-9.7-11.4-15-16.6-26.3-25.6
	c3.8-0.1,5.8,0,9.8,0.1c12.6-12.7,25.1-25.4,37.5-38.2c-3.6-2.3-5.6-3.3-9.3-5.4c-2.2-2.4-3.3-3.5-5.6-5.9
	c-10.2,12.9-15.3,19.3-25.7,32.1c-9.1,9.3-13.5,14-22.4,23.4C359.7,135,366.2,140.6,378,153.7"/>
<path class="st2" d="M147.7,213.2c-1,0.8-1.5,1.2-2.5,2.1c0.5,14,2,27.9,4.5,41.6c9.3-11,17.8-22.6,25.5-34.7
	c6.2,2.1,12.5,3.8,18.9,5.1c-4.4,14.4-6.7,21.6-11.6,35.9c-1.3,12.8-1.9,19-3,31.8c-7.4-1.4-11.1-2.3-18.4-4.2
	c3.4-12.1,5-18.1,8.4-30.1c2.6-6,4-9.1,6.6-15.1c-11.4,14.4-24,27.9-37.6,40.2c-2.9-19.3-4.4-38.8-4.4-58.2
	c-7.2,18.9-10.7,28.4-17.6,47.4c-6.4-3-9.6-4.7-16-8.1c5.3-10.6,7.9-15.9,13.2-26.6c5.9-14.8,8.9-22.1,15.1-36.7
	C134.9,207.1,141.2,210.3,147.7,213.2"/>
<path class="st2" d="M225.5,232.7c5-0.4,7.4-0.7,12.4-1.4c6.9,23.8,15.8,47,26.5,69.3c-6.9,0.8-10.3,1.1-17.2,1.6
	c-1.1-5.1-1.6-7.7-2.6-12.9c-10.7,1-21.5,1.3-32.2,0.8c-0.4-1.5-0.5-2.2-0.9-3.7c-2.9,6-4.5,9-7.7,14.9c-7.3-1.4-10.9-2.2-18.1-4.1
	c7-8.7,13.5-17.8,19.4-27.3c5.8-12.7,10.9-25.6,15.4-38.8L225.5,232.7 M216.3,278.1c7.4,0.2,14.9-0.1,22.3-0.7
	c-1.3-1-1.9-1.5-3.2-2.5c-1.8-10-2.6-15-4.1-25.1c-2.1,0.6-3.1,0.9-5.2,1.3C222.4,262,220.5,267.4,216.3,278.1"/>
<path class="st2" d="M265.6,231.6c5.3,8.5,11.1,16.6,17.5,24.3c-0.2,2.8-0.3,4.1-0.5,6.9c5.3-12.2,9.7-24.8,13-37.7
	c5.2-1.2,7.9-1.9,13.1-3.4c-3.7,18.4-6.2,27.6-12.9,45.9c2.8,10.9,4.2,16.3,7.1,27.1c-6.9,1.7-13.8,3-20.8,4
	c-1.3-9.7-2-14.6-3.4-24.3c1.8,0.5,2.7,0.7,4.4,1.2c-14.4-15.6-20.8-24-31.6-41.3C257.1,233.3,259.9,232.9,265.6,231.6"/>
<path class="st2" d="M330,213.6c4.3-2.8,6.4-4.2,10.6-7.2c16.2,17.9,34,34.4,53.2,49.1c-5.8,4.2-8.8,6.2-14.9,9.9
	c-3.1-4.1-4.7-6.1-7.8-10.2c-9.2,6.1-18.8,11.5-28.7,16.2c-1-1.1-1.4-1.8-2.3-2.9c-0.2,6.8-0.3,10.2-0.7,17.1
	c-7.2,2.2-10.7,3.2-18,5c2.6-11.1,4.6-22.4,6-33.7c-0.4-17-0.8-25.4-2.5-42.1C326.9,214.3,327.9,214,330,213.6 M340.9,258.7
	c6.8-3.4,13.4-7.3,19.8-11.4c-1.5-0.3-2.3-0.4-3.9-0.7c-5.9-8.1-8.8-12.2-14.3-20.4c-1.7,1.5-2.5,2.2-4.2,3.7
	C339.7,241.3,340.2,247.1,340.9,258.7"/>
<path class="st1" d="M147.7,213.2c-1,0.8-1.5,1.2-2.5,2.1c0.5,14,2,27.9,4.5,41.6c9.3-11,17.8-22.6,25.5-34.7
	c6.2,2.1,12.5,3.8,18.9,5.1c-4.4,14.4-6.7,21.6-11.6,35.9c-1.3,12.8-1.9,19-3,31.8c-7.4-1.4-11.1-2.3-18.4-4.2
	c3.4-12.1,5-18.1,8.4-30.1c2.6-6,4-9.1,6.6-15.1c-11.4,14.4-24,27.9-37.6,40.2c-2.9-19.3-4.4-38.8-4.4-58.2
	c-7.2,18.9-10.7,28.4-17.6,47.4c-6.4-3-9.6-4.7-16-8.1c5.3-10.6,7.9-15.9,13.2-26.6c5.9-14.8,8.9-22.1,15.1-36.7
	C134.9,207.1,141.2,210.3,147.7,213.2"/>
<path class="st1" d="M225.5,232.7c5-0.4,7.4-0.7,12.4-1.4c6.9,23.8,15.8,47,26.5,69.3c-6.9,0.8-10.3,1.1-17.2,1.6
	c-1.1-5.1-1.6-7.7-2.6-12.9c-10.7,1-21.5,1.3-32.2,0.8c-0.4-1.5-0.5-2.2-0.9-3.7c-2.9,6-4.5,9-7.7,14.9c-7.3-1.4-10.9-2.2-18.1-4.1
	c7-8.7,13.5-17.8,19.4-27.3c5.8-12.7,10.9-25.6,15.4-38.8L225.5,232.7 M216.3,278.1c7.4,0.2,14.9-0.1,22.3-0.7
	c-1.3-1-1.9-1.5-3.2-2.5c-1.8-10-2.6-15-4.1-25.1c-2.1,0.6-3.1,0.9-5.2,1.3C222.4,262,220.5,267.4,216.3,278.1"/>
<path class="st1" d="M265.6,231.6c5.3,8.5,11.1,16.6,17.5,24.3c-0.2,2.8-0.3,4.1-0.5,6.9c5.3-12.2,9.7-24.8,13-37.7
	c5.2-1.2,7.9-1.9,13.1-3.4c-3.7,18.4-6.2,27.6-12.9,45.9c2.8,10.9,4.2,16.3,7.1,27.1c-6.9,1.7-13.8,3-20.8,4
	c-1.3-9.7-2-14.6-3.4-24.3c1.8,0.5,2.7,0.7,4.4,1.2c-14.4-15.6-20.8-24-31.6-41.3C257.1,233.3,259.9,232.9,265.6,231.6"/>
<path class="st1" d="M330,213.6c4.3-2.8,6.4-4.2,10.6-7.2c16.2,17.9,34,34.4,53.2,49.1c-5.8,4.2-8.8,6.2-14.9,9.9
	c-3.1-4.1-4.7-6.1-7.8-10.2c-9.2,6.1-18.8,11.5-28.7,16.2c-1-1.1-1.4-1.8-2.3-2.9c-0.2,6.8-0.3,10.2-0.7,17.1
	c-7.2,2.2-10.7,3.2-18,5c2.6-11.1,4.6-22.4,6-33.7c-0.4-17-0.8-25.4-2.5-42.1C326.9,214.3,327.9,214,330,213.6 M340.9,258.7
	c6.8-3.4,13.4-7.3,19.8-11.4c-1.5-0.3-2.3-0.4-3.9-0.7c-5.9-8.1-8.8-12.2-14.3-20.4c-1.7,1.5-2.5,2.2-4.2,3.7
	C339.7,241.3,340.2,247.1,340.9,258.7"/>
<rect x="86.8" y="183" class="st1" width="12.2" height="12.2"/>
<rect x="74.6" y="170.8" class="st1" width="12.2" height="12.2"/>
<rect x="74.6" y="195.2" class="st1" width="12.2" height="12.2"/>
<rect x="62.4" y="158.6" class="st1" width="12.2" height="12.2"/>
<rect x="62.4" y="207.4" class="st1" width="12.2" height="12.2"/>
<rect x="50.2" y="170.8" class="st1" width="12.2" height="12.2"/>
<rect x="50.2" y="195.2" class="st1" width="12.2" height="12.2"/>
<rect x="38" y="183" class="st1" width="12.2" height="12.2"/>
<path class="st1" d="M339.5,181.1c-15.8-4.2-32.2-5.9-48.6-4.9c-16.8,1-33.5,2.9-50.1,5.5c-16.8,4.1-33.1,7.4-50.3,9.9
	c-17.8-1.7-34.8-8-49.4-18.3c17.9,5,31.3,6.6,49.9,6.1c17.1-2.2,33.4-5.3,50.2-9.1c16.6-3.2,33.3-5.6,50.1-7.1
	C310.3,166.9,323.1,171.7,339.5,181.1"/>
<rect x="62.5" y="183" class="st1" width="12.2" height="12.2"/>
<rect x="432.5" y="183" class="st1" width="12.2" height="12.2"/>
<rect x="420.3" y="170.8" class="st1" width="12.2" height="12.2"/>
<rect x="420.3" y="195.2" class="st1" width="12.2" height="12.2"/>
<rect x="408.1" y="158.6" class="st1" width="12.2" height="12.2"/>
<rect x="408.1" y="207.4" class="st1" width="12.2" height="12.2"/>
<rect x="395.9" y="170.8" class="st1" width="12.2" height="12.2"/>
<rect x="395.9" y="195.2" class="st1" width="12.2" height="12.2"/>
<rect x="383.7" y="183" class="st1" width="12.2" height="12.2"/>
<rect x="408.1" y="183" class="st1" width="12.2" height="12.2"/>
</svg>
