<svg id="Layer_1" data-name="Layer 1" xmlns="http://www.w3.org/2000/svg" viewBox="0 0 182.94 236.19"><defs><style>.cls-1,.cls-2{fill:#4f6f19;stroke:#4f6f19;}.cls-1{stroke-width:0.85px;}.cls-3{fill:#f5f5f5;}</style></defs><title>logo_yomol_a_tel_batsil_maya</title><path class="cls-1" d="M151.83,238v.48c-3.16,2.48-4.91,3.73-5.26,3.73-.67,0-1.24-.69-1.72-2.07L149.4,235h.43Z" transform="translate(-26.52 -30.38)"/><path class="cls-1" d="M42.74,234.51c1.66.61,2.48,1.25,2.48,1.9q-1.69,4-5.66,12.28.4,8.4.63,16.38c0,.69-.42,1-1.27,1a8.3,8.3,0,0,1-2.15-.44v-.26q-1-16.94-1-16.93-6.21-11.61-6.33-12.13A6.43,6.43,0,0,1,32,234.9h.23q.44.1,3.19,5.18a32.91,32.91,0,0,1,2.23,4.36q4.24-9.33,4.73-9.93Z" transform="translate(-26.52 -30.38)"/><path class="cls-1" d="M54.34,234.53c3.93,0,6.39.92,7.36,2.76a13.84,13.84,0,0,1,1.7,5.55,70.82,70.82,0,0,1,.82,9.55v.85q0,9.24-5.65,12.19a8.41,8.41,0,0,1-3.15.68h-.33q-4.48,0-7.19-7.4a43.5,43.5,0,0,1-1.83-12.19q0-9.35,6.13-11.64A9.64,9.64,0,0,1,54.34,234.53Zm-4.42,10.86a42.14,42.14,0,0,0,2,12.45c.91,2.41,2.16,3.62,3.77,3.62,1.66-.18,2.58-.45,2.73-.82a4.53,4.53,0,0,0,1.35-2.47,21.13,21.13,0,0,0,.63-5.85v-.09q0-7.89-1.47-11.77a3.69,3.69,0,0,0-3.21-2.25h-.13a8,8,0,0,0-4.2,1.88,4.64,4.64,0,0,0-1.34,2.72Q49.92,244.33,49.92,245.39Z" transform="translate(-26.52 -30.38)"/><path class="cls-1" d="M68.73,234.53c1.7,0,2.55.16,2.55.49L76,245.12h-.47l4.76-10.59c2.64,0,4,.23,4,.55q.36,22.71.36,27.58l.07,1.65-.07,1.37a2.27,2.27,0,0,1-1.53.46c-1.64,0-2.45-.2-2.45-.59l-.36-23.3v.26h.62q-4.38,8.38-4.78,8.77h-.5l-4.91-7.75h.61v17.1c0,3.6-.19,5.4-.58,5.4l-.48.11h-.65c-1.45-.09-2.17-.3-2.17-.64l0-26.25v-4.17C67.45,234.72,67.88,234.53,68.73,234.53Z" transform="translate(-26.52 -30.38)"/><path class="cls-1" d="M96.1,234.53c3.93,0,6.39.92,7.36,2.76a13.68,13.68,0,0,1,1.7,5.55,70.82,70.82,0,0,1,.82,9.55v.85q0,9.24-5.65,12.19a8.41,8.41,0,0,1-3.15.68h-.33q-4.48,0-7.18-7.4a43.16,43.16,0,0,1-1.84-12.19q0-9.35,6.13-11.64A9.64,9.64,0,0,1,96.1,234.53Zm-4.42,10.86a42.14,42.14,0,0,0,2,12.45q1.36,3.62,3.76,3.62c1.67-.18,2.58-.45,2.73-.82a4.4,4.4,0,0,0,1.35-2.47,20.69,20.69,0,0,0,.64-5.85v-.09q0-7.89-1.47-11.77a3.7,3.7,0,0,0-3.21-2.25h-.13a8.05,8.05,0,0,0-4.21,1.88,4.69,4.69,0,0,0-1.33,2.72Q91.68,244.33,91.68,245.39Z" transform="translate(-26.52 -30.38)"/><path class="cls-1" d="M110.41,234.44A10.25,10.25,0,0,1,113,235l-.16,27.52q7.58-.6,10.81-.77.6,0,.75,1.83c0,1.34-.24,2-.62,2l-14.28.54-.28-.29V235.41C109.18,234.77,109.59,234.44,110.41,234.44Z" transform="translate(-26.52 -30.38)"/><path class="cls-1" d="M138.31,234.64h.13c.62,0,1.51.54,2.65,1.6l7.1,28.76a4.74,4.74,0,0,1-2.49,1.11h-.17c-.76,0-1.24-.69-1.45-2.07l-1.72-6.77h.32c-4.53.56-6.87.87-7,.92q-1.32,5.44-1.87,6.95l-.23.23H133a6,6,0,0,1-2.34-1q6.84-29,7.07-29.51Zm1.27,7.82-2.89,11.66,4.85-.56v.26l-2.62-11.36Z" transform="translate(-26.52 -30.38)"/><path class="cls-1" d="M171.45,234.49c.39,0,.69.75.9,2.24,0,.52-.38.78-1.15.78l-5,.3-.2,27.56a1,1,0,0,1-1.07.74h-.1a7.48,7.48,0,0,1-2.44-.55V238l-4.47.25-.53.18a9.36,9.36,0,0,1-.4-2.81v-.11a1.83,1.83,0,0,1,.31-.86Z" transform="translate(-26.52 -30.38)"/><path class="cls-1" d="M176.35,234.53q13.54.14,13.55.85c.21.07.31.64.31,1.7,0,.64-.45,1-1.36,1l-6.18-.1a30.14,30.14,0,0,0-3.08.12l.06,3.61V250l7.26.27a4,4,0,0,1,.55,1.8v0c0,.83-.65,1.23-2,1.23a45.64,45.64,0,0,1-5.92.2v6.12l0,2.68h-.37l5.49-.05c3.45,0,5.18.2,5.18.59a2.73,2.73,0,0,1,.32,1.43v1l-.32.31-11.42.49a13.36,13.36,0,0,1-3-.54V235.08C175.43,234.8,175.74,234.62,176.35,234.53Z" transform="translate(-26.52 -30.38)"/><path class="cls-1" d="M195,234.44a10.25,10.25,0,0,1,2.55.55l-.16,27.52q7.58-.6,10.81-.77.6,0,.75,1.83c0,1.34-.24,2-.61,2l-14.29.54-.28-.29V235.41C193.73,234.77,194.14,234.44,195,234.44Z" transform="translate(-26.52 -30.38)"/><path class="cls-2" d="M62.08,40.52s22.64-8.15,59.06-9.59c0,0,29-1.55,55,12,0,0,24.08,12.45,29,32.11,0,0,2.87,8,3.83,28.76,0,0-2.45,51.68-10.18,65.7,0,0-5.21,12.57-27.13,15.81,0,0-19.27,4.84-52.06,4.48,0,0-39.06-.54-58.82-14,0,0-24.09-16.35-32.17-53,0,0-5-25.87,2.87-56.61,0,0,5.33-20.72,30.61-25.63" transform="translate(-26.52 -30.38)"/><path class="cls-3" d="M66.64,58.73s41-15.58,72.36-15c0,0,30.43-.37,46.35,16.88,0,0,14.26,16.9,14.62,37.5,0,0,1.56,24.92-12.34,52.71,0,0-7.66,16.65-16.4,22.76,0,0-3.48,3.11-15,3.83a188.25,188.25,0,0,1-51.87-4.07S77.53,168.21,60.64,150A60.45,60.45,0,0,1,45.2,115.15a81.76,81.76,0,0,1,0-15.46s.83-5.86,1-10.54c0,0,.11-10.17,3.82-18.08,0,0,3.83-9.47,16.66-12.34" transform="translate(-26.52 -30.38)"/><path class="cls-2" d="M79.33,69S104,61.36,116.22,91.79c0,0,3.83,12.46,6.72,22.51,0,0,2.27,8.76,11.74,19.66,0,0,6.59,7.07,14.75,8,0,0,4.31.85,6.94-.95,0,0,3.83-3,7.9,1.14,0,0,3.84,4.36-1.44,9.39,0,0-3.34,3.55-11.49,3.94,0,0-18.58,1.69-32.25-21.43,0,0-3.58-5.38-7.65-16.88,0,0-1.68-8.51-10.54-24,0,0-7.55-16.42-23.12-14.73,0,0-5,.23-4.07-3.72A9.42,9.42,0,0,1,79.33,69" transform="translate(-26.52 -30.38)"/></svg>