<?xml version="1.0" encoding="utf-8"?>
<!-- Generator: Adobe Illustrator 23.0.2, SVG Export Plug-In . SVG Version: 6.00 Build 0)  -->
<svg version="1.1" id="Layer_1" xmlns="http://www.w3.org/2000/svg" xmlns:xlink="http://www.w3.org/1999/xlink" x="0px" y="0px"
	 viewBox="0 0 182.9 236.2" style="enable-background:new 0 0 182.9 236.2;" xml:space="preserve">
<style type="text/css">
	.st0{fill:#40290A;stroke:#40290A;stroke-width:0.85;}
	.st1{fill:#40290A;stroke:#40290A;}
	.st2{fill:#FFFFFF;}
</style>
<title>logo_yomol_a_tel_batsil_maya</title>
<path class="st0" d="M125.3,207.6v0.5c-3.2,2.5-4.9,3.7-5.3,3.7c-0.7,0-1.2-0.7-1.7-2.1l4.5-5.1h0.4L125.3,207.6z"/>
<path class="st0" d="M16.2,204.1c1.7,0.6,2.5,1.2,2.5,1.9c-1.1,2.7-3,6.8-5.7,12.3c0.3,5.6,0.5,11.1,0.6,16.4c0,0.7-0.4,1-1.3,1
	c-0.7-0.1-1.5-0.2-2.2-0.4V235c-0.7-11.3-1-16.9-1-16.9c-4.1-7.7-6.2-11.8-6.3-12.1c0.7-0.7,1.6-1.1,2.6-1.4h0.2
	c0.3,0.1,1.4,1.8,3.2,5.2c0.9,1.4,1.6,2.9,2.2,4.4c2.8-6.2,4.4-9.5,4.7-9.9L16.2,204.1z"/>
<path class="st0" d="M27.8,204.1c3.9,0,6.4,0.9,7.4,2.8c1,1.7,1.5,3.6,1.7,5.6c0.5,3.2,0.8,6.4,0.8,9.6v0.9c0,6.2-1.9,10.2-5.7,12.2
	c-1,0.4-2.1,0.7-3.2,0.7h-0.3c-3,0-5.4-2.5-7.2-7.4c-1.2-4-1.8-8.1-1.8-12.2c0-6.2,2-10.1,6.1-11.6
	C26.4,204.3,27.1,204.2,27.8,204.1z M23.4,215c0,4.2,0.7,8.4,2,12.4c0.9,2.4,2.2,3.6,3.8,3.6c1.7-0.2,2.6-0.5,2.7-0.8
	c0.7-0.7,1.2-1.5,1.3-2.5c0.5-1.9,0.7-3.9,0.6-5.9v-0.1c0-5.3-0.5-9.2-1.5-11.8c-0.6-1.3-1.8-2.2-3.2-2.2h-0.1
	c-1.6,0.2-3,0.9-4.2,1.9c-0.7,0.7-1.2,1.7-1.3,2.7C23.4,213.4,23.4,214.3,23.4,215z"/>
<path class="st0" d="M42.2,204.1c1.7,0,2.6,0.2,2.6,0.5l4.7,10.1H49l4.8-10.6c2.6,0,4,0.2,4,0.6c0.2,15.1,0.4,24.3,0.4,27.6l0.1,1.6
	l-0.1,1.4c-0.4,0.3-1,0.5-1.5,0.5c-1.6,0-2.4-0.2-2.4-0.6l-0.4-23.3v0.3h0.6c-2.9,5.6-4.5,8.5-4.8,8.8h-0.5l-4.9-7.8h0.6v17.1
	c0,3.6-0.2,5.4-0.6,5.4l-0.5,0.1h-0.7c-1.4-0.1-2.2-0.3-2.2-0.6v-26.2v-4.2C40.9,204.3,41.4,204.1,42.2,204.1z"/>
<path class="st0" d="M69.6,204.1c3.9,0,6.4,0.9,7.4,2.8c1,1.7,1.5,3.6,1.7,5.6c0.5,3.2,0.8,6.4,0.8,9.6v0.9c0,6.2-1.9,10.2-5.6,12.2
	c-1,0.4-2.1,0.7-3.2,0.7h-0.3c-3,0-5.4-2.5-7.2-7.4c-1.2-4-1.8-8.1-1.8-12.2c0-6.2,2-10.1,6.1-11.6
	C68.1,204.3,68.9,204.2,69.6,204.1z M65.2,215c0,4.2,0.7,8.4,2,12.4c0.9,2.4,2.2,3.6,3.8,3.6c1.7-0.2,2.6-0.5,2.7-0.8
	c0.7-0.7,1.2-1.5,1.3-2.5c0.5-1.9,0.7-3.9,0.6-5.9v-0.1c0-5.3-0.5-9.2-1.5-11.8c-0.6-1.3-1.8-2.2-3.2-2.2h-0.1
	c-1.6,0.2-3,0.9-4.2,1.9c-0.7,0.7-1.2,1.7-1.3,2.7C65.2,213.4,65.2,214.3,65.2,215z"/>
<path class="st0" d="M83.9,204.1c0.9,0.1,1.8,0.3,2.6,0.6l-0.2,27.5c5.1-0.4,8.7-0.7,10.8-0.8c0.4,0,0.6,0.6,0.8,1.8
	c0,1.3-0.2,2-0.6,2L83,235.7l-0.3-0.3V205C82.7,204.4,83.1,204.1,83.9,204.1z"/>
<path class="st0" d="M111.8,204.3h0.1c0.6,0,1.5,0.5,2.6,1.6l7.1,28.8c-0.7,0.6-1.6,1-2.5,1.1H119c-0.8,0-1.2-0.7-1.4-2.1l-1.7-6.8
	h0.3c-4.5,0.6-6.9,0.9-7,0.9c-0.9,3.6-1.5,5.9-1.9,7l-0.2,0.2h-0.6c-0.8-0.2-1.6-0.5-2.3-1c4.6-19.3,6.9-29.2,7.1-29.5L111.8,204.3z
	 M113.1,212.1l-2.9,11.7l4.9-0.6v0.3l-2.6-11.4H113.1z"/>
<path class="st0" d="M144.9,204.1c0.4,0,0.7,0.8,0.9,2.2c0,0.5-0.4,0.8-1.1,0.8l-5,0.3l-0.2,27.6c-0.1,0.5-0.6,0.8-1.1,0.7h-0.1
	c-0.8,0-1.7-0.2-2.4-0.5v-27.6l-4.5,0.2l-0.5,0.2c-0.3-0.9-0.4-1.9-0.4-2.8v-0.1c0-0.3,0.1-0.6,0.3-0.9L144.9,204.1z"/>
<path class="st0" d="M149.8,204.1c9,0.1,13.5,0.4,13.6,0.9c0.2,0.1,0.3,0.6,0.3,1.7c0,0.6-0.4,1-1.4,1l-6.2-0.1c-1,0-2.1,0-3.1,0.1
	l0.1,3.6v8.3l7.3,0.3c0.3,0.5,0.5,1.2,0.6,1.8l0,0c0,0.8-0.6,1.2-2,1.2c-2,0.2-3.9,0.3-5.9,0.2v6.1v2.7h-0.4l5.5,0
	c3.4,0,5.2,0.2,5.2,0.6c0.2,0.4,0.3,0.9,0.3,1.4v1l-0.3,0.3l-11.4,0.5c-1-0.1-2-0.2-3-0.5v-30.4
	C148.9,204.4,149.2,204.2,149.8,204.1z"/>
<path class="st0" d="M168.5,204.1c0.9,0.1,1.7,0.3,2.6,0.6l-0.2,27.5c5.1-0.4,8.7-0.7,10.8-0.8c0.4,0,0.6,0.6,0.8,1.8
	c0,1.3-0.2,2-0.6,2l-14.3,0.5l-0.3-0.3V205C167.2,204.4,167.6,204.1,168.5,204.1z"/>
<path class="st1" d="M35.6,10.1c0,0,22.6-8.1,59.1-9.6c0,0,29-1.5,55,12c0,0,24.1,12.5,29,32.1c0,0,2.9,8,3.8,28.8
	c0,0-2.4,51.7-10.2,65.7c0,0-5.2,12.6-27.1,15.8c0,0-19.3,4.8-52.1,4.5c0,0-39.1-0.5-58.8-14c0,0-24.1-16.4-32.2-53
	c0,0-5-25.9,2.9-56.6C5,35.8,10.3,15.1,35.6,10.1"/>
<path class="st2" d="M40.1,28.4c0,0,41-15.6,72.4-15c0,0,30.4-0.4,46.4,16.9c0,0,14.3,16.9,14.6,37.5c0,0,1.6,24.9-12.3,52.7
	c0,0-7.7,16.6-16.4,22.8c0,0-3.5,3.1-15,3.8c-17.4,1.1-34.9-0.3-51.9-4.1c0,0-26.8-5.1-43.7-23.3c-8.8-9.6-14.2-21.9-15.4-34.8
	c-0.5-5.1-0.5-10.3,0-15.5c0,0,0.8-5.9,1-10.5c0,0,0.1-10.2,3.8-18.1C23.5,40.7,27.3,31.2,40.1,28.4"/>
<path class="st1" d="M52.8,38.6c0,0,24.7-7.6,36.9,22.8c0,0,3.8,12.5,6.7,22.5c0,0,2.3,8.8,11.7,19.7c0,0,6.6,7.1,14.8,8
	c0,0,4.3,0.9,6.9-0.9c0,0,3.8-3,7.9,1.1c0,0,3.8,4.4-1.4,9.4c0,0-3.3,3.6-11.5,3.9c0,0-18.6,1.7-32.2-21.4c0,0-3.6-5.4-7.6-16.9
	c0,0-1.7-8.5-10.5-24c0,0-7.6-16.4-23.1-14.7c0,0-5,0.2-4.1-3.7C48.1,41.7,50.2,39.6,52.8,38.6"/>
</svg>
