<svg clip-rule="evenodd" fill-rule="evenodd" stroke-linejoin="round" stroke-miterlimit="1.41421" viewBox="0 0 1920 1969"
     xmlns="http://www.w3.org/2000/svg">
    <clipPath id="a">
        <path clip-rule="evenodd" d="m717.711 1115.6h464.578v339.754h-464.578z"/>
    </clipPath>
    <path d="m-50.864 1629.77v-1527.83s41.439 68.73 51.223 87.727c8.06 15.658 27.518 30.166 35.347 39.261 4.579 4.675 8.457 9.988 11.514 15.774 11.513 24.178 31.316 89 55.035 129.527 29.359 50.429 87.042 125.037 121.7 172.7 27.978 38.57 62.173 72.88 86.352 113.869s36.612 96.829 58.949 133.556c19.688 32.469 56.186 66.664 74.492 86.352 10.823 11.514 19.918 28.208 35.346 31.432 31.433 6.563 118.475.575 153.13 7.829 21.415 4.376 39.952 27.518 55.035 35.347 10.938 5.757 26.481 2.994 35.347 11.513 14.968 15.083 36.612 62.174 54.919 78.523 14.507 13.011 54.92 19.688 54.92 19.688s44.557-20.84 66.777-31.432c30.167-14.392 78.523-42.6 113.87-54.92 31.969-9.938 64.882-16.536 98.211-19.688 8.174-.806 15.428 9.326 23.026 7.829 10.478-1.957 25.676-14.161 39.261-19.573 19.688-7.83 58.258-17.731 78.522-27.518 16-7.714 26.251-25.905 43.176-31.432 37.341-9.702 75.431-16.25 113.869-19.573 7.6 0 19 5.182 19.688 11.514s-18.306 20.954-15.773 27.517 24.292 7.138 31.432 11.514 5.3 15.428 11.514 15.658c26.645.769 53.22-3.128 78.522-11.513 23.026-9.787 48.357-37.3 58.833-47.09 2.994-2.879 6.333-8.405 3.916-11.513-6.563-9.211-41.91-30.166-43.177-43.291s23.027-24.639 35.347-35.231c24.178-20.379 88.309-65.512 109.955-86.466 10.507-10.689 17.362-24.438 19.573-39.262 3.338-20.263-8.52-58.833 0-82.436s46.859-33.274 51.12-58.834c5.182-31.432-19-89-19.688-129.643.357-38.475 5.658-76.745 15.773-113.868 4.571-21.078 15.505-40.252 31.317-54.92 25.558-20.264 96.827-54.92 121.7-66.779 9.036-2.132 27.518-3.914 27.518-3.914v914.864l-258.462 11.847 4.03 141.387-94.3 11.514-3.914 11.513 90.149 79.559 86.467 51.12 19.572 47.091 55.036 23.028 3.915 86.466-326.199 28.102-113.869 215.994 39.261 51.005-11.513 23.6-3.915 70.694v51s-113.178-92.108-141.386-117.783c-11.514-10.017-16-25.79-27.4-35.346-34.541-28.785-134.248-100.743-180.647-137.472-33.5-26.366-72.65-63.44-98.21-82.437-16.934-12.681-35.383-23.201-54.92-31.316-25.23-10.59-51.569-18.315-78.522-23.028-7.6 0-4.375 17.617-11.514 19.574-15.832 2.129-31.94.793-47.205-3.915-15.531-5.316-30.109-13.091-43.176-23.027-2.993-2.763 6.909-8.865 3.916-11.513-7.856-6.358-17.361-10.352-27.4-11.515-10.184.723-19.854 4.769-27.518 11.515-23.6 20.379-68.505 83.127-113.869 109.954-56.3 33.39-178 74.033-223.823 90.381-16.057 6.902-33.612 9.597-51 7.83-22.22-3.916-60.906-22.222-82.437-31.432-16.413-6.114-32.186-13.827-47.09-23.028-7.6-5.64-6.448-22.1-15.774-23.025-30.05-4.606-128.836 0-164.874-3.916-18.03-3.495-51-19.688-51-19.688v-.001z"
          fill="#40290a"/>
    <g clip-path="url(#a)">
        <path d="m931.545 1115.6-78.07 30h-69.439l-66.325 55.609v105.413l24.262 43.894h42.065v49.184h69.435v55.654h78.07l75.43-55.654 79.506 28.1 37.637-77.284 58.178-71.056-19.589-78.251-54.616-55.609v-30h-76.407l-52.48 30z"
              fill="#eba00c" fill-rule="nonzero"/>
    </g>
</svg>