<svg clip-rule="evenodd" fill-rule="evenodd" stroke-linejoin="round" stroke-miterlimit="1.414" viewBox="0 0 1502 1342"
     xmlns="http://www.w3.org/2000/svg">
    <clipPath id="a">
        <path clip-rule="evenodd"
              d="m0 1087.35v-1087.34s30.912 36.095 38.25 50.342c6.045 11.744 17.285 36.55 23.157 43.371 3.434 3.507 35.643 21.578 53.432 51.973 22.02 37.822 65.282 93.778 91.275 129.525 20.984 28.927 46.63 54.66 64.764 85.402 18.135 30.741 27.459 72.621 44.212 100.167 14.766 24.351 42.14 49.998 55.869 64.764 8.117 8.635 14.939 21.156 26.51 23.574 23.574 4.922 88.856.431 114.847 5.871 16.061 3.282 29.964 20.639 41.276 26.511 8.204 4.317 19.861 2.245 26.511 8.634 11.226 11.313 27.459 46.631 41.189 58.893 10.88 9.758 41.19 14.766 41.19 14.766s33.418-15.63 50.083-23.574c22.625-10.794 58.892-31.95 85.402-41.19 23.977-7.454 48.662-12.402 73.658-14.766 6.131-.605 11.571 6.994 17.27 5.871 7.858-1.467 19.257-10.62 29.446-14.679 14.766-5.873 43.693-13.299 58.891-20.639 12-5.785 19.688-19.429 32.382-23.574 28.006-7.276 56.573-12.187 85.402-14.68 5.7 0 14.25 3.887 14.766 8.636s-13.73 15.715-11.83 20.638c1.9 4.922 18.219 5.353 23.574 8.635s3.975 11.571 8.636 11.744c19.983.576 39.915-2.346 58.891-8.635 17.27-7.34 36.268-27.975 44.125-35.318 2.245-2.159 4.75-6.303 2.937-8.634-4.922-6.909-31.433-22.625-32.383-32.469-.95-9.843 17.27-18.479 26.51-26.423 18.134-15.284 66.232-49.134 82.467-64.849 7.88-8.017 13.021-18.329 14.679-29.447 2.504-15.197-6.39-44.125 0-61.827s35.145-24.955 38.34-44.125c3.887-23.574-14.25-66.75-14.766-97.233.268-28.856 4.244-57.558 11.83-85.401 3.428-15.808 11.629-30.189 23.488-41.19 19.168-15.198 114.925-30.664 114.925-30.664v690.781l-196.858 11.897 3.022 76.04-70.725 8.636-2.935 8.634 67.612 59.67 64.85 38.34 14.679 35.318 41.277 17.271 2.936 64.849-244.649 21.077-85.402 161.995 29.446 38.254-8.635 17.7-2.936 53.021v38.25s-84.884-69.081-106.04-88.338c-8.635-7.512-12-19.342-20.55-26.509-25.905-21.589-100.686-75.557-135.485-103.104-25.125-19.775-54.487-47.58-73.657-61.828-12.701-9.511-26.538-17.401-41.19-23.487-18.923-7.942-38.677-13.736-58.892-17.271-5.7 0-3.281 13.213-8.635 14.681-11.874 1.596-23.955.594-35.404-2.937-11.648-3.987-22.582-9.818-32.382-17.27-2.245-2.072 5.182-6.649 2.937-8.635-5.892-4.768-13.021-7.764-20.55-8.636-7.638.542-14.891 3.577-20.639 8.636-17.7 15.285-51.378 62.346-85.401 82.466-42.225 25.042-133.5 55.525-167.868 67.786-12.042 5.176-25.209 7.197-38.25 5.872-16.665-2.937-45.679-16.666-61.827-23.574-12.31-4.585-24.14-10.37-35.318-17.271-5.7-4.23-4.836-16.575-11.83-17.269-22.538-3.454-96.627 0-123.656-2.937-13.522-2.621-38.25-14.766-38.25-14.766z"/>
    </clipPath>
    <path d="m0 1087.35v-1087.34s30.912 36.095 38.25 50.342c6.045 11.744 17.285 36.55 23.157 43.371 3.434 3.507 35.643 21.578 53.432 51.973 22.02 37.822 65.282 93.778 91.275 129.525 20.984 28.927 46.63 54.66 64.764 85.402 18.135 30.741 27.459 72.621 44.212 100.167 14.766 24.351 42.14 49.998 55.869 64.764 8.117 8.635 14.939 21.156 26.51 23.574 23.574 4.922 88.856.431 114.847 5.871 16.061 3.282 29.964 20.639 41.276 26.511 8.204 4.317 19.861 2.245 26.511 8.634 11.226 11.313 27.459 46.631 41.189 58.893 10.88 9.758 41.19 14.766 41.19 14.766s33.418-15.63 50.083-23.574c22.625-10.794 58.892-31.95 85.402-41.19 23.977-7.454 48.662-12.402 73.658-14.766 6.131-.605 11.571 6.994 17.27 5.871 7.858-1.467 19.257-10.62 29.446-14.679 14.766-5.873 43.693-13.299 58.891-20.639 12-5.785 19.688-19.429 32.382-23.574 28.006-7.276 56.573-12.187 85.402-14.68 5.7 0 14.25 3.887 14.766 8.636s-13.73 15.715-11.83 20.638c1.9 4.922 18.219 5.353 23.574 8.635s3.975 11.571 8.636 11.744c19.983.576 39.915-2.346 58.891-8.635 17.27-7.34 36.268-27.975 44.125-35.318 2.245-2.159 4.75-6.303 2.937-8.634-4.922-6.909-31.433-22.625-32.383-32.469-.95-9.843 17.27-18.479 26.51-26.423 18.134-15.284 66.232-49.134 82.467-64.849 7.88-8.017 13.021-18.329 14.679-29.447 2.504-15.197-6.39-44.125 0-61.827s35.145-24.955 38.34-44.125c3.887-23.574-14.25-66.75-14.766-97.233.268-28.856 4.244-57.558 11.83-85.401 3.428-15.808 11.629-30.189 23.488-41.19 19.168-15.198 114.925-30.664 114.925-30.664v690.781l-196.858 11.897 3.022 76.04-70.725 8.636-2.935 8.634 67.612 59.67 64.85 38.34 14.679 35.318 41.277 17.271 2.936 64.849-244.649 21.077-85.402 161.995 29.446 38.254-8.635 17.7-2.936 53.021v38.25s-84.884-69.081-106.04-88.338c-8.635-7.512-12-19.342-20.55-26.509-25.905-21.589-100.686-75.557-135.485-103.104-25.125-19.775-54.487-47.58-73.657-61.828-12.701-9.511-26.538-17.401-41.19-23.487-18.923-7.942-38.677-13.736-58.892-17.271-5.7 0-3.281 13.213-8.635 14.681-11.874 1.596-23.955.594-35.404-2.937-11.648-3.987-22.582-9.818-32.382-17.27-2.245-2.072 5.182-6.649 2.937-8.635-5.892-4.768-13.021-7.764-20.55-8.636-7.638.542-14.891 3.577-20.639 8.636-17.7 15.285-51.378 62.346-85.401 82.466-42.225 25.042-133.5 55.525-167.868 67.786-12.042 5.176-25.209 7.197-38.25 5.872-16.665-2.937-45.679-16.666-61.827-23.574-12.31-4.585-24.14-10.37-35.318-17.271-5.7-4.23-4.836-16.575-11.83-17.269-22.538-3.454-96.627 0-123.656-2.937-13.522-2.621-38.25-14.766-38.25-14.766z"
          fill="#40290a"/>
    <g clip-path="url(#a)">
        <path d="m736.807 701.717-58.553 22.5h-52.079l-49.744 41.707v79.06l18.197 32.92h31.549v36.888h52.076v41.741h58.552l56.573-41.741 59.629 21.075 28.228-57.963 43.634-53.292-14.692-58.688-40.962-41.707v-22.5h-57.305l-39.36 22.5z"
              fill="#eba00c" fill-rule="nonzero"/>
    </g>
</svg>