<?xml version="1.0" encoding="UTF-8" standalone="no"?><!DOCTYPE svg PUBLIC "-//W3C//DTD SVG 1.1//EN"
        "http://www.w3.org/Graphics/SVG/1.1/DTD/svg11.dtd">
<svg xmlns:serif="http://www.serif.com/" width="100%" height="100%" viewBox="0 0 1920 1969" version="1.1"
     xmlns="http://www.w3.org/2000/svg" xml:space="preserve"
     style="fill-rule:evenodd;clip-rule:evenodd;stroke-linejoin:round;stroke-miterlimit:1.41421;"><rect id="Artboard1" x="0" y="0" width="1920" height="1969" style="fill:none;"/>
    <clipPath id="_clip1"><rect id="Artboard11" serif:id="Artboard1" x="0" y="0" width="1920" height="1969"/></clipPath>
    <g clip-path="url(#_clip1)"><path d="M260.588,130.492c5.531,0.078 10.047,4.499 10.086,9.874c-2.521,16.36 -18.541,63.859 -25.289,88.437c-5.34,19.605 -10.012,39.353 -14.833,59.033c-6.675,25.803 -19.357,78.634 -25.29,95.861c-1.335,3.892 -8.529,3.531 -10.086,7.207c-4.092,11.941 -6.584,24.344 -7.416,36.903c-1.262,22.487 -0.89,67.968 0,98.312c0.742,27.893 4.227,63.858 5.043,83.535c1.743,11.422 1.743,23.031 0,34.452c-3.414,12.686 -18.54,27.822 -20.246,41.732c-1.706,13.911 6.527,27.894 10.16,41.804c4.599,18.019 13.869,52.832 17.65,66.382c1.409,4.973 3.486,9.802 5.043,14.416c3.414,10.234 8.899,34.812 15.202,46.704c5.191,9.802 17.725,18.885 22.768,24.578c2.949,2.927 5.448,6.253 7.417,9.875c7.416,15.136 20.172,55.715 35.45,81.085c18.912,31.569 56.068,78.275 78.392,108.112c18.022,24.146 40.049,45.624 55.624,71.284c15.574,25.659 23.583,60.616 37.971,83.607c12.682,20.326 36.192,41.732 47.984,54.057c6.971,7.208 12.83,17.659 22.768,19.677c20.247,4.109 76.314,0.36 98.637,4.901c13.795,2.74 25.735,17.227 35.451,22.128c7.045,3.604 17.057,1.874 22.768,7.207c9.642,9.442 23.584,38.922 35.376,49.156c9.345,8.145 35.376,12.325 35.376,12.325c0,0 28.701,-13.046 43.014,-19.677c19.432,-9.009 50.58,-26.668 73.349,-34.38c20.592,-6.221 41.793,-10.352 63.262,-12.325c5.265,-0.505 9.938,5.838 14.832,4.901c6.749,-1.225 16.539,-8.865 25.29,-12.253c12.682,-4.902 37.526,-11.1 50.579,-17.226c10.306,-4.83 16.909,-16.217 27.812,-19.677c24.053,-6.074 48.588,-10.173 73.348,-12.253c4.895,0 12.238,3.244 12.681,7.208c0.444,3.964 -11.791,13.117 -10.16,17.226c1.632,4.108 15.648,4.468 20.247,7.208c4.599,2.739 3.414,9.658 7.417,9.802c17.163,0.481 34.281,-1.958 50.579,-7.208c14.832,-6.126 31.149,-23.35 37.897,-29.478c1.929,-1.803 4.079,-5.262 2.523,-7.208c-4.228,-5.766 -26.996,-18.884 -27.813,-27.1c-0.816,-8.217 14.833,-15.425 22.769,-22.055c15.574,-12.758 56.884,-41.012 70.827,-54.129c6.768,-6.691 11.183,-15.298 12.608,-24.578c2.15,-12.685 -5.489,-36.831 0,-51.606c5.488,-14.776 30.183,-20.83 32.928,-36.831c3.338,-19.677 -12.239,-55.715 -12.682,-81.158c0.23,-24.086 3.645,-48.043 10.16,-71.283c2.944,-13.195 9.987,-25.199 20.173,-34.38c16.463,-12.686 62.37,-34.381 78.392,-41.805c5.821,-1.334 11.753,-2.154 17.726,-2.45c27.811,-7.207 118.661,-28.83 149.216,-39.281c12.609,-4.253 19.654,-20.903 32.855,-22.127c29.666,-2.884 115.918,4.108 146.696,4.901c12.644,0.799 25.328,0.799 37.971,0c4.154,-0.649 8.01,-5.334 10.086,-7.207c2.076,-1.874 3.264,-3.244 2.522,-4.974c-0.741,-1.729 -9.864,-4.685 -7.416,-7.207c6.346,-5.501 14.312,-8.931 22.768,-9.802c8.693,1.741 16.637,6.016 22.767,12.253c10.89,9.204 20.269,19.972 27.812,31.93c2.374,5.837 -7.416,11.1 -7.416,17.226c0,6.126 8.38,12.757 7.416,19.676c-2.207,15.539 -7.362,30.545 -15.202,44.256c-12.608,20.037 -48.058,52.397 -60.665,76.185c-10.754,20.11 -12.682,49.588 -15.202,66.382c-1.706,11.316 3.414,26.163 0,34.38c-3.414,8.216 -14.833,12.325 -20.172,14.415c-3.04,1.44 -8.01,-1.658 -10.16,0c-2.541,2.612 -3.499,6.335 -2.522,9.802c1.705,4.108 6.081,13.983 12.682,14.774c6.601,0.79 21.878,-9.01 27.811,-9.875c3.313,-0.168 6.359,1.844 7.416,4.901c0.107,5.339 -1.673,10.556 -5.043,14.774c-5.043,5.334 -19.801,11.46 -25.289,17.227c-3.945,5.032 -6.498,10.963 -7.416,17.226c0,2.234 2.817,5.622 5.117,4.901c5.043,-1.658 20.618,-14.415 25.29,-14.774c4.671,-0.358 3.189,8.145 2.521,12.325c-1.261,7.208 -6.971,21.191 -10.16,31.927c-7.416,25.803 -29.072,95.861 -35.375,122.889c-2.967,12.83 -1.262,32.795 -2.523,39.354c0,1.585 -4.524,1.514 -5.043,0c-2.151,-6.197 -3.414,-25.804 -7.417,-36.903c-4.002,-11.099 -14.832,-18.379 -17.649,-29.479c-2.817,-11.099 2.892,-31.569 2.522,-39.353c-0.609,-2.985 -2.463,-5.596 -5.118,-7.208c-1.631,-0.793 -4.079,0.865 -5.043,2.451c-1.631,2.883 -1.705,10.74 -5.043,14.774c-8.757,8.725 -18.044,16.932 -27.812,24.578c-11.441,8.43 -22.407,17.453 -32.851,27.028c-3.929,4.541 -2.374,11.821 -5.118,17.153c-7.416,14.415 -37.897,68.832 -37.897,68.832c0,0 -25.735,-13.118 -32.851,-12.253c-7.117,0.866 -25.29,31.927 -25.29,31.927l-278.262,22.128l2.596,88.509l-60.743,7.208l-2.521,7.207l58.069,49.805l55.697,32.002l12.607,29.479l35.451,14.416l2.522,54.129l-210.119,17.592l-73.348,135.215l25.29,31.929l-7.416,14.774l-2.522,44.255l0,31.927c0,0 -72.903,-57.661 -91.073,-73.733c-7.416,-6.271 -10.306,-16.145 -17.649,-22.127c-22.25,-18.02 -86.475,-63.067 -116.363,-86.059c-21.579,-16.506 -46.797,-39.715 -63.261,-51.607c-10.908,-7.938 -22.792,-14.524 -35.376,-19.604c-16.252,-6.63 -33.218,-11.465 -50.58,-14.416c-4.895,0 -2.818,11.029 -7.417,12.254c-10.198,1.332 -20.573,0.496 -30.406,-2.451c-10.005,-3.328 -19.395,-8.195 -27.812,-14.415c-1.928,-1.73 4.451,-5.55 2.523,-7.208c-5.061,-3.979 -11.183,-6.48 -17.65,-7.208c-6.56,0.452 -12.789,2.985 -17.725,7.208c-15.202,12.758 -44.128,52.039 -73.348,68.833c-36.266,20.902 -114.658,46.345 -144.175,56.579c-10.343,4.321 -21.651,6.008 -32.851,4.902c-14.313,-2.451 -39.232,-13.911 -53.101,-19.677c-10.573,-3.827 -20.733,-8.656 -30.333,-14.416c-4.895,-3.53 -4.153,-13.834 -10.161,-14.413c-19.356,-2.884 -82.988,0 -106.202,-2.452c-11.614,-2.188 -22.737,-6.361 -32.851,-12.325c-12.682,-6.125 -27.886,-17.802 -43.015,-24.577c-15.129,-6.775 -35.376,-8.576 -50.58,-17.227c-15.205,-8.65 -28.627,-28.83 -40.493,-34.379c-9.048,-4.398 -20.321,1.585 -30.333,0c-14.833,-2.452 -40.42,-9.803 -60.666,-14.416c-22.249,-5.259 -53.101,-9.01 -70.827,-17.153c-14.832,-6.775 -23.584,-25.803 -35.449,-32.002c-10.457,-5.477 -24.027,-1.297 -35.376,-4.901c-29.665,-9.369 -102.865,-31.929 -141.652,-51.606c-33.596,-17.082 -68.676,-48.363 -90.999,-66.382c-15.648,-12.541 -32.484,-33.948 -43.015,-41.731c-5.904,-3.987 -13.102,-5.755 -20.246,-4.973c-8.01,0.864 -18.245,12.252 -27.812,9.874c-37.527,-9.443 -153.445,-42.237 -197.275,-66.383c-30.185,-16.651 -40.42,-57.66 -65.709,-78.635c-25.289,-20.974 -58.589,-34.812 -86.03,-49.156c-25.512,-13.406 -57.403,-17.37 -78.392,-36.902c-27.366,-25.37 -67.859,-84.762 -85.956,-115.322c-12.385,-20.902 -28.701,-54.129 -22.768,-68.832c5.934,-14.703 47.168,-13.118 58.145,-19.676c6.155,-3.677 12.014,-14.416 7.416,-19.678c-5.862,-7.208 -37.082,-18.019 -42.941,-24.578c-3.782,-4.108 3.56,-10.883 7.417,-14.414c6.303,-6.198 24.844,-11.1 30.332,-22.128c7.416,-15.208 18.541,-52.903 15.202,-68.832c-3.041,-14.415 -27.217,-14.848 -35.45,-27.029c-10.902,-16.433 -25.66,-56.579 -30.332,-71.283c-1.706,-5.55 -1.262,-17.226 2.522,-17.226c3.783,0 16.019,15.136 20.246,17.226c2.151,1.009 6.082,-2.811 5.043,-4.901c-3.337,-7.207 -21.507,-25.011 -25.289,-36.903c-3.783,-11.892 5.488,-28.254 2.521,-34.38c-2.967,-6.127 -15.202,1.945 -20.172,-2.451c-7.417,-6.775 -18.17,-28.83 -25.29,-37.983c-4.301,-5.623 -15.202,-13.839 -17.725,-18.593c-1.632,-2.955 4.747,-7.208 2.522,-9.802c-15.202,-18.019 -67.415,-65.589 -93.594,-98.311c-24.326,-30.561 -45.537,-78.275 -63.191,-98.312c-10.605,-11.965 -31.742,-10.811 -43.015,-22.127c-11.273,-11.316 -16.464,-38.921 -25.29,-46.706c-6.897,-6.054 -19.727,4.397 -27.811,0c-12.121,-8.656 -22.419,-19.495 -30.333,-31.926c-3.929,-6.415 0,-15.064 -2.596,-22.127c-2.596,-7.063 -10.531,-18.452 -12.608,-24.578c-1.334,-3.893 3.041,-9.515 0,-12.325c-6.748,-6.127 -28.627,-16.793 -40.493,-24.578c-10.457,-7.208 -20.618,-14.415 -30.333,-22.127c-9.715,-7.712 -23.139,-20.037 -30.332,-27.028c-4.672,-4.541 -8.825,-14.416 -12.682,-14.416c-3.857,0 -4.154,16.073 -10.086,14.416c-10.531,-2.451 -43.016,-24.146 -53.102,-29.479c-2.373,-1.225 -6.526,0 -7.416,-2.451c-0.889,-2.451 1.78,-10.163 0,-14.774c-2.966,-7.208 -16.464,-20.037 -17.724,-29.479c-1.261,-9.441 5.117,-18.811 10.086,-27.028c4.968,-8.217 18.986,-20.471 22.768,-27.029c2.077,-3.604 0.445,-8.217 0,-12.325c-0.815,-8.144 0,-25.443 -5.043,-36.831c-5.641,-12.498 -14.32,-23.481 -25.29,-32.001c-6.748,-3.748 -14.832,5.696 -22.768,4.973c-7.935,-0.724 -22.249,-2.019 -27.811,-9.874c-6.749,-9.37 -5.043,-35.606 -12.682,-46.706c-7.639,-11.1 -23.584,-15.136 -32.855,-19.605c-7.416,-3.531 -16.241,-2.882 -22.767,-7.208c-8.825,-6.126 -24.252,-16.865 -30.333,-29.478c-6.497,-17.332 -9.908,-35.612 -10.086,-54.057c0,-11.748 12.608,-27.029 7.417,-34.453c-5.192,-7.423 -30.333,-9.009 -37.972,-9.802c-2.967,-0.36 -5.862,3.676 -7.417,4.901c-1.555,1.225 -1.409,2.955 -2.522,2.451c-8.877,-4.022 -17.345,-8.848 -25.289,-14.416c-9.659,-6.903 -18.186,-15.19 -25.29,-24.577c-8.01,-11.895 -11.644,-33.299 -22.769,-46.706c-12.238,-14.774 -39.603,-32.001 -50.579,-41.804c-6.058,-4.741 -11.098,-10.595 -14.833,-17.226c-2.447,-6.054 3.264,-13.839 0,-19.677c-5.861,-10.595 -29.072,-30.704 -35.375,-44.182c-5.266,-11.244 1.26,-28.831 -2.522,-36.903c-3.263,-7.208 -16.836,-7.208 -20.247,-12.253c-3.411,-5.045 2.67,-13.695 0,-19.677c-8.01,-18.019 -39.603,-67.175 -48.058,-88.509c-4.821,-12.253 0,-26.452 -2.522,-39.282c-3.795,-13.5 -8.757,-26.665 -14.833,-39.353c-6.377,-14.774 -20.246,-33.155 -22.768,-49.156c-2.521,-16.001 6.304,-35.244 7.417,-46.705c0.816,-7.208 4.005,-15.857 0,-22.128c-6.885,-8.604 -15.819,-15.456 -26.031,-19.965c-6.23,-2.666 -14.833,1.73 -20.247,-2.45c-11.347,-9.009 -36.637,-41.372 -48.058,-51.606c-5.076,-5.828 -12.403,-9.375 -20.247,-9.803c-7.416,0.793 -15.797,17.299 -25.289,14.415c-12.163,-3.243 -34.561,-25.803 -48.059,-34.38c-10.383,-6.63 -26.921,-13.91 -32.851,-17.226c-1.038,-0.576 -1.409,-2.09 -2.522,-2.45c-2.966,-0.793 -13.498,-7.208 -14.833,-2.451c-8.751,34.001 -15.487,68.462 -20.172,103.213c-0.142,8.448 1.578,16.829 5.043,24.578c2.373,7.208 9.122,12.395 10.086,19.677c3.414,25.443 4.672,103.213 10.16,132.764c2.967,16.216 15.575,33.587 22.768,44.182c6.095,7.137 12.845,13.72 20.166,19.67c13.497,13.911 44.498,43.246 60.743,63.931c13.602,18.573 25.443,38.306 35.376,58.958c2.892,5.983 -2.448,15.208 2.521,19.677c4.969,4.468 24.474,1.225 30.333,9.802c8.454,12.325 11.421,50.018 20.247,63.931c6.748,10.668 26.18,10.668 32.928,19.677c6.749,9.01 5.411,26.236 7.417,34.38c1.261,5.045 4.302,9.658 5.043,14.774c0.741,5.116 -1.187,13.189 0,19.677c2.151,11.028 4.45,32.722 12.682,46.705c8.232,13.983 29.665,27.389 37.897,39.282c6.304,9.37 3.93,22.559 10.16,32.001c8.786,11.035 18.979,20.941 30.333,29.479c2.67,2.09 8.9,-0.72 10.086,2.451c1.706,4.469 -1.706,16.793 0,24.578c2.955,7.556 6.347,14.943 10.161,22.127c2.892,8.576 4.153,22.127 7.416,29.479c2.67,5.838 10.531,16.361 12.608,14.415c2.076,-1.946 0.89,-17.659 0,-24.578c-0.89,-6.919 -4.598,-13.117 -5.043,-17.226c0,-2.595 0.371,-8.865 2.522,-7.208c12.221,9.357 23.273,20.073 32.928,31.93c4.08,6.271 0.371,16.793 2.522,22.127c2.151,5.334 9.27,6.126 10.086,9.802c0.815,3.676 -6.081,8 -5.043,12.325c1.706,7.208 12.239,19.244 14.833,29.479c2.903,10.393 3.783,21.222 2.596,31.929c-1.113,7.208 -11.793,12.541 -10.161,19.677c6.859,19.87 16.199,38.847 27.811,56.507c5.192,7.208 18.541,7.208 22.768,14.774c4.227,7.566 0.816,25.154 5.043,36.903c5.488,15.136 21.508,40.506 27.886,54.056c4.079,8.722 10.086,17.443 10.086,27.029c0,12.685 -10.531,35.244 -10.086,49.156c0.162,12.499 4.599,24.598 12.608,34.38c11.648,11.38 25.382,20.547 40.493,27.028c4.45,1.586 8.232,-5.549 10.086,-9.802c1.854,-4.252 -0.445,-16.793 2.522,-19.677c2.967,-2.883 11.569,-1.081 14.833,2.451c8.38,8.217 26.551,37.695 35.375,46.704c4.45,4.541 14.388,2.019 17.725,7.208c3.338,5.19 2.151,19.893 5.043,29.479c2.832,10.34 7.098,20.258 12.682,29.48c8.01,12.252 31.594,29.911 35.377,44.254c3.782,14.343 -4.228,31.137 -12.682,41.733c-8.455,10.595 -28.627,15.568 -37.898,22.127c-6.749,4.829 -12.682,13.983 -17.725,17.226c-3.56,2.306 -8.974,4.613 -12.608,2.451c-6.303,-3.676 -20.988,-13.767 -25.289,-24.578c-7.416,-18.019 -10.16,-65.949 -17.725,-83.536c-4.598,-10.739 -18.096,-15.568 -27.812,-22.127c-9.715,-6.559 -21.804,-9.442 -30.332,-17.226c-29.666,-27.029 -123.112,-120.799 -149.218,-145.017c-1.853,-1.657 -6.377,2.163 -7.416,0c-2.076,-3.676 -2.521,-19.676 -5.043,-22.127c-2.521,-2.451 -6.674,9.73 -10.086,7.207c-3.411,-2.523 -10.976,-19.677 -14.832,-24.578c-2.373,-2.811 -8.232,-1.73 -10.086,-4.973c-4.228,-7.208 -15.426,-25.299 -14.833,-39.281c0.445,-25.011 20.692,-77.842 17.725,-110.637c-2.744,-30.777 -25.735,-70.058 -35.376,-85.987c-4.227,-7.207 -16.242,-4.901 -22.768,-9.874c-23.658,-18.019 -97.008,-82.743 -118.661,-98.312c-3.709,-2.594 -8.158,4.325 -12.682,4.901c-5.862,0.866 -16.464,4.181 -22.769,0c-9.27,-6.126 -24.399,-29.478 -32.851,-36.83c-4.747,-4.181 -12.385,-3.819 -17.725,-7.208c-6.749,-4.541 -14.165,-14.415 -22.694,-19.676c-10.605,-6.56 -32.038,-13.551 -40.493,-19.677c-5.411,-3.965 -6.082,-11.894 -10.086,-17.227c-12.239,-15.928 -53.547,-64.868 -63.262,-78.634c-1.334,-1.946 2.67,-5.262 5.043,-4.901c8.455,1.225 31.594,11.894 45.537,12.253c13.942,0.358 29.072,-11.028 37.972,-9.802c7.416,1.081 9.641,13.478 14.832,17.226c5.671,2.356 11.627,4.003 17.725,4.901c7.416,2.451 20.247,10.236 25.29,9.802c5.043,-0.433 5.488,-9.369 5.043,-12.253c-0.445,-2.883 -4.747,-3.818 -7.416,-4.901c-4.228,-1.657 -12.754,-1.439 -17.725,-4.973c-6.304,-4.468 -19.802,-15.928 -20.247,-22.127c-0.445,-6.198 13.943,-9.009 17.725,-14.415c2.931,-6.195 4.642,-12.869 5.043,-19.677c1.059,-9.917 2.743,-19.762 5.043,-29.479c3.414,-9.874 18.689,-19.031 15.202,-29.479c-4.672,-13.982 -30.778,-39.353 -43.015,-54.129c-9.715,-11.749 -20.172,-22.992 -30.332,-34.381c-16.465,-18.451 -52.286,-60.254 -68.305,-76.185c-8.01,-8.001 -19.131,-12.325 -27.812,-19.677c-18.733,-15.247 -36.608,-31.463 -53.546,-48.578c-3.189,-3.819 1.854,-10.164 0,-14.416c-1.854,-4.251 -11.422,-10.234 -12.608,-17.152c-2.151,-11.895 4.598,-40.146 0,-54.129c-4.228,-12.685 -23.584,-16.794 -27.886,-29.479c-5.411,-16.361 0,-54.057 -5.043,-68.832c-3.041,-10.595 -20.766,-10.595 -25.289,-20.11c-4.524,-9.514 1.779,-26.884 -2.522,-39.353c-4.598,-13.55 -19.357,-31.927 -25.29,-41.804c-4.03,-5.425 -7.413,-11.276 -10.086,-17.442c-2.646,-6.898 -3.512,-14.324 -2.522,-21.623c1.632,-7.784 12.163,-17.226 12.608,-24.578c-0.72,-7.549 -4.319,-14.57 -10.086,-19.676c-4.598,-4.901 -14.462,-4.036 -17.725,-9.875c-4.673,-8.144 -4.895,-26.74 -10.086,-39.281c-5.19,-12.542 -19.436,-30.124 -22.774,-39.566c-0.619,-5.856 0.247,-11.771 2.522,-17.226l0,-2.451l343.973,7.208l-17.725,34.38l27.811,14.415l508.318,221.201l308.595,14.415l90.999,2.523l0,-66.383l242.812,4.901c0,0 28.256,29.912 40.493,41.805c10.532,10.235 22.249,19.244 32.851,29.479c14.314,13.91 37.898,39.353 53.102,54.056c11.977,12.147 24.628,23.648 37.897,34.453c16.464,12.685 48.058,26.596 60.743,41.732c11.05,13.334 9.715,37.263 15.202,49.155c3.929,8.577 14.832,13.118 17.649,22.128c3.414,12.325 -3.041,35.317 2.522,51.606c8.002,18.835 19.126,36.268 32.929,51.606c6.229,7.208 17.502,7.208 25.289,12.326c9.642,6.558 23.139,22.127 32.852,27.028c7.416,3.818 17.725,-1.225 25.289,2.451c9.271,4.541 21.879,19.676 30.333,24.577c6.007,3.46 14.017,1.875 20.247,4.901c9.27,4.541 25.735,18.884 35.376,22.128c7.505,3.071 16.136,2.142 22.768,-2.451c15.498,-17.405 29.07,-36.345 40.493,-56.507c8.825,-15.425 12.608,-38.129 20.247,-49.156c6.62,-7.912 15.379,-13.877 25.29,-17.226c6.229,-2.379 14.017,2.667 20.247,0c6.229,-2.667 11.272,-16.938 20.172,-17.226c13.498,-0.36 42.199,11.894 60.743,14.774c16.687,2.595 35.376,-4.758 50.579,2.451c19.802,9.442 47.614,35.244 68.305,54.057c20.692,18.812 41.31,36.038 55.623,59.032c18.541,29.479 45.536,95.429 55.623,117.988c2.448,5.406 1.038,12.686 5.043,17.153c5.933,6.559 22.249,12.758 30.333,22.128c11.421,13.118 29.665,44.687 37.971,56.579c3.338,4.901 5.192,11.317 10.086,14.415c4.894,3.099 19.431,5.334 25.29,9.874c5.494,4.263 9.127,10.395 10.16,17.153c0.816,6.559 -6.526,14.415 -5.043,22.128c1.632,8.649 12.608,20.902 14.833,29.479c2.076,7.208 -2.892,15.352 0,22.127c5.933,13.983 26.551,43.821 35.45,61.481c7.416,14.415 7.416,35.244 17.65,44.254c10.233,9.011 34.189,4.901 45.536,9.802c9.271,4.037 13.349,15.929 22.769,19.677c11.347,4.469 32.483,2.451 45.536,7.208c13.053,4.757 19.95,18.956 32.851,22.127c18.096,4.541 57.774,0.793 75.87,4.901c12.533,2.883 22.249,19.244 32.854,19.677c10.605,0.433 23.961,-14.701 30.71,-15.926Z" style="fill:#40290a;"/>
        <clipPath id="_clip2"><path d="M225.89,1756.79l0,-907.033c0,0 25.786,30.109 31.907,41.994c5.042,9.796 14.419,30.489 19.317,36.179c2.864,2.925 29.732,18 44.572,43.354c18.368,31.551 54.456,78.228 76.139,108.047c17.504,24.13 38.898,45.596 54.025,71.24c15.127,25.644 22.905,60.579 36.88,83.557c12.318,20.313 35.152,41.707 46.605,54.025c6.771,7.203 12.461,17.648 22.114,19.665c19.665,4.106 74.121,0.359 95.802,4.897c13.398,2.738 24.996,17.217 34.432,22.115c6.843,3.601 16.567,1.873 22.115,7.202c9.364,9.437 22.905,38.899 34.358,49.127c9.076,8.14 34.36,12.318 34.36,12.318c0,0 27.877,-13.038 41.778,-19.665c18.873,-9.004 49.126,-26.652 71.24,-34.36c20.001,-6.218 40.593,-10.345 61.444,-12.317c5.114,-0.505 9.652,5.834 14.406,4.897c6.555,-1.223 16.064,-8.859 24.564,-12.245c12.317,-4.899 36.447,-11.093 49.125,-17.216c10.01,-4.826 16.423,-16.207 27.012,-19.665c23.362,-6.069 47.192,-10.166 71.241,-12.246c4.754,0 11.887,3.243 12.317,7.204c0.43,3.962 -11.453,13.109 -9.868,17.216c1.585,4.106 15.198,4.465 19.665,7.203c4.467,2.738 3.315,9.652 7.203,9.797c16.67,0.48 33.297,-1.957 49.126,-7.203c14.406,-6.123 30.254,-23.337 36.808,-29.462c1.873,-1.801 3.962,-5.258 2.45,-7.202c-4.106,-5.764 -26.221,-18.873 -27.013,-27.085c-0.793,-8.211 14.406,-15.415 22.114,-22.041c15.127,-12.75 55.249,-40.987 68.792,-54.096c6.573,-6.688 10.862,-15.29 12.245,-24.564c2.088,-12.677 -5.331,-36.808 0,-51.575c5.33,-14.766 29.317,-20.816 31.982,-36.808c3.242,-19.664 -11.887,-55.681 -12.317,-81.109c0.223,-24.071 3.54,-48.013 9.868,-71.239c2.859,-13.187 9.7,-25.183 19.593,-34.36c15.989,-12.678 95.868,-25.579 95.868,-25.579l0,576.233l-164.215,9.924l2.521,63.43l-58.997,7.204l-2.448,7.203l56.4,49.775l54.096,31.982l12.245,29.462l34.433,14.407l2.449,54.095l-204.081,17.582l-71.24,135.132l24.563,31.911l-7.203,14.765l-2.449,44.229l0,31.907c0,0 -70.808,-57.626 -88.456,-73.689c-7.203,-6.267 -10.01,-16.135 -17.142,-22.114c-21.61,-18.009 -83.99,-63.027 -113.019,-86.006c-20.958,-16.496 -45.451,-39.691 -61.442,-51.576c-10.595,-7.934 -22.138,-14.515 -34.36,-19.592c-15.785,-6.625 -32.264,-11.458 -49.126,-14.407c-4.755,0 -2.737,11.022 -7.204,12.246c-9.905,1.332 -19.982,0.496 -29.533,-2.45c-9.716,-3.326 -18.837,-8.19 -27.012,-14.406c-1.873,-1.728 4.323,-5.546 2.45,-7.203c-4.915,-3.977 -10.862,-6.477 -17.142,-7.204c-6.372,0.452 -12.422,2.984 -17.217,7.204c-14.765,12.75 -42.858,52.008 -71.239,68.791c-35.223,20.89 -111.363,46.318 -140.032,56.546c-10.045,4.317 -21.028,6.003 -31.907,4.898c-13.902,-2.45 -38.104,-13.902 -51.575,-19.665c-10.268,-3.825 -20.137,-8.65 -29.461,-14.407c-4.755,-3.529 -4.034,-13.826 -9.868,-14.405c-18.801,-2.882 -80.604,0 -103.151,-2.45c-11.28,-2.187 -31.907,-12.318 -31.907,-12.318l0,-0.001Z"/></clipPath>
        <g clip-path="url(#_clip2)"><path d="M840.516,1435.11l-48.843,18.769l-43.443,0l-41.496,34.791l0,65.95l15.18,27.461l26.317,0l0,30.771l43.441,0l0,34.819l48.843,0l47.191,-34.819l49.741,17.58l23.548,-48.351l36.398,-44.455l-12.256,-48.956l-34.169,-34.791l0,-18.769l-47.803,0l-32.833,18.769l-29.816,-18.769Z" style="fill:#eba00c;fill-rule:nonzero;"/></g></g></svg>