<?xml version="1.0" encoding="UTF-8" standalone="no"?><!DOCTYPE svg PUBLIC "-//W3C//DTD SVG 1.1//EN"
        "http://www.w3.org/Graphics/SVG/1.1/DTD/svg11.dtd">
<svg width="100%" height="100%" viewBox="0 0 1502 1342" version="1.1" xmlns="http://www.w3.org/2000/svg"
     xml:space="preserve"
     style="fill-rule:evenodd;clip-rule:evenodd;stroke-linejoin:round;stroke-miterlimit:1.41421;"><path d="M0,1087.35l0,-1087.34c0,0 30.912,36.095 38.25,50.342c6.045,11.744 17.285,36.55 23.157,43.371c3.434,3.507 35.643,21.578 53.432,51.973c22.02,37.822 65.282,93.778 91.275,129.525c20.984,28.927 46.63,54.66 64.764,85.402c18.135,30.741 27.459,72.621 44.212,100.167c14.766,24.351 42.14,49.998 55.869,64.764c8.117,8.635 14.939,21.156 26.51,23.574c23.574,4.922 88.856,0.431 114.847,5.871c16.061,3.282 29.964,20.639 41.276,26.511c8.204,4.317 19.861,2.245 26.511,8.634c11.226,11.313 27.459,46.631 41.189,58.893c10.88,9.758 41.19,14.766 41.19,14.766c0,0 33.418,-15.63 50.083,-23.574c22.625,-10.794 58.892,-31.95 85.402,-41.19c23.977,-7.454 48.662,-12.402 73.658,-14.766c6.131,-0.605 11.571,6.994 17.27,5.871c7.858,-1.467 19.257,-10.62 29.446,-14.679c14.766,-5.873 43.693,-13.299 58.891,-20.639c12,-5.785 19.688,-19.429 32.382,-23.574c28.006,-7.276 56.573,-12.187 85.402,-14.68c5.7,0 14.25,3.887 14.766,8.636c0.516,4.749 -13.73,15.715 -11.83,20.638c1.9,4.922 18.219,5.353 23.574,8.635c5.355,3.282 3.975,11.571 8.636,11.744c19.983,0.576 39.915,-2.346 58.891,-8.635c17.27,-7.34 36.268,-27.975 44.125,-35.318c2.245,-2.159 4.75,-6.303 2.937,-8.634c-4.922,-6.909 -31.433,-22.625 -32.383,-32.469c-0.95,-9.843 17.27,-18.479 26.51,-26.423c18.134,-15.284 66.232,-49.134 82.467,-64.849c7.88,-8.017 13.021,-18.329 14.679,-29.447c2.504,-15.197 -6.39,-44.125 0,-61.827c6.39,-17.702 35.145,-24.955 38.34,-44.125c3.887,-23.574 -14.25,-66.75 -14.766,-97.233c0.268,-28.856 4.244,-57.558 11.83,-85.401c3.428,-15.808 11.629,-30.189 23.488,-41.19c19.168,-15.198 114.925,-30.664 114.925,-30.664l0,690.781l-196.858,11.897l3.022,76.04l-70.725,8.636l-2.935,8.634l67.612,59.67l64.85,38.34l14.679,35.318l41.277,17.271l2.936,64.849l-244.649,21.077l-85.402,161.995l29.446,38.254l-8.635,17.7l-2.936,53.021l0,38.25c0,0 -84.884,-69.081 -106.04,-88.338c-8.635,-7.512 -12,-19.342 -20.55,-26.509c-25.905,-21.589 -100.686,-75.557 -135.485,-103.104c-25.125,-19.775 -54.487,-47.58 -73.657,-61.828c-12.701,-9.511 -26.538,-17.401 -41.19,-23.487c-18.923,-7.942 -38.677,-13.736 -58.892,-17.271c-5.7,0 -3.281,13.213 -8.635,14.681c-11.874,1.596 -23.955,0.594 -35.404,-2.937c-11.648,-3.987 -22.582,-9.818 -32.382,-17.27c-2.245,-2.072 5.182,-6.649 2.937,-8.635c-5.892,-4.768 -13.021,-7.764 -20.55,-8.636c-7.638,0.542 -14.891,3.577 -20.639,8.636c-17.7,15.285 -51.378,62.346 -85.401,82.466c-42.225,25.042 -133.5,55.525 -167.868,67.786c-12.042,5.176 -25.209,7.197 -38.25,5.872c-16.665,-2.937 -45.679,-16.666 -61.827,-23.574c-12.31,-4.585 -24.14,-10.37 -35.318,-17.271c-5.7,-4.23 -4.836,-16.575 -11.83,-17.269c-22.538,-3.454 -96.627,0 -123.656,-2.937c-13.522,-2.621 -38.25,-14.766 -38.25,-14.766l0,0Z" style="fill:#40290a;"/>
    <clipPath id="_clip1"><path d="M0,1087.35l0,-1087.34c0,0 30.912,36.095 38.25,50.342c6.045,11.744 17.285,36.55 23.157,43.371c3.434,3.507 35.643,21.578 53.432,51.973c22.02,37.822 65.282,93.778 91.275,129.525c20.984,28.927 46.63,54.66 64.764,85.402c18.135,30.741 27.459,72.621 44.212,100.167c14.766,24.351 42.14,49.998 55.869,64.764c8.117,8.635 14.939,21.156 26.51,23.574c23.574,4.922 88.856,0.431 114.847,5.871c16.061,3.282 29.964,20.639 41.276,26.511c8.204,4.317 19.861,2.245 26.511,8.634c11.226,11.313 27.459,46.631 41.189,58.893c10.88,9.758 41.19,14.766 41.19,14.766c0,0 33.418,-15.63 50.083,-23.574c22.625,-10.794 58.892,-31.95 85.402,-41.19c23.977,-7.454 48.662,-12.402 73.658,-14.766c6.131,-0.605 11.571,6.994 17.27,5.871c7.858,-1.467 19.257,-10.62 29.446,-14.679c14.766,-5.873 43.693,-13.299 58.891,-20.639c12,-5.785 19.688,-19.429 32.382,-23.574c28.006,-7.276 56.573,-12.187 85.402,-14.68c5.7,0 14.25,3.887 14.766,8.636c0.516,4.749 -13.73,15.715 -11.83,20.638c1.9,4.922 18.219,5.353 23.574,8.635c5.355,3.282 3.975,11.571 8.636,11.744c19.983,0.576 39.915,-2.346 58.891,-8.635c17.27,-7.34 36.268,-27.975 44.125,-35.318c2.245,-2.159 4.75,-6.303 2.937,-8.634c-4.922,-6.909 -31.433,-22.625 -32.383,-32.469c-0.95,-9.843 17.27,-18.479 26.51,-26.423c18.134,-15.284 66.232,-49.134 82.467,-64.849c7.88,-8.017 13.021,-18.329 14.679,-29.447c2.504,-15.197 -6.39,-44.125 0,-61.827c6.39,-17.702 35.145,-24.955 38.34,-44.125c3.887,-23.574 -14.25,-66.75 -14.766,-97.233c0.268,-28.856 4.244,-57.558 11.83,-85.401c3.428,-15.808 11.629,-30.189 23.488,-41.19c19.168,-15.198 114.925,-30.664 114.925,-30.664l0,690.781l-196.858,11.897l3.022,76.04l-70.725,8.636l-2.935,8.634l67.612,59.67l64.85,38.34l14.679,35.318l41.277,17.271l2.936,64.849l-244.649,21.077l-85.402,161.995l29.446,38.254l-8.635,17.7l-2.936,53.021l0,38.25c0,0 -84.884,-69.081 -106.04,-88.338c-8.635,-7.512 -12,-19.342 -20.55,-26.509c-25.905,-21.589 -100.686,-75.557 -135.485,-103.104c-25.125,-19.775 -54.487,-47.58 -73.657,-61.828c-12.701,-9.511 -26.538,-17.401 -41.19,-23.487c-18.923,-7.942 -38.677,-13.736 -58.892,-17.271c-5.7,0 -3.281,13.213 -8.635,14.681c-11.874,1.596 -23.955,0.594 -35.404,-2.937c-11.648,-3.987 -22.582,-9.818 -32.382,-17.27c-2.245,-2.072 5.182,-6.649 2.937,-8.635c-5.892,-4.768 -13.021,-7.764 -20.55,-8.636c-7.638,0.542 -14.891,3.577 -20.639,8.636c-17.7,15.285 -51.378,62.346 -85.401,82.466c-42.225,25.042 -133.5,55.525 -167.868,67.786c-12.042,5.176 -25.209,7.197 -38.25,5.872c-16.665,-2.937 -45.679,-16.666 -61.827,-23.574c-12.31,-4.585 -24.14,-10.37 -35.318,-17.271c-5.7,-4.23 -4.836,-16.575 -11.83,-17.269c-22.538,-3.454 -96.627,0 -123.656,-2.937c-13.522,-2.621 -38.25,-14.766 -38.25,-14.766l0,0Z"/></clipPath>
    <g clip-path="url(#_clip1)"><path d="M736.807,701.717l-58.553,22.5l-52.079,0l-49.744,41.707l0,79.06l18.197,32.92l31.549,0l0,36.888l52.076,0l0,41.741l58.552,0l56.573,-41.741l59.629,21.075l28.228,-57.963l43.634,-53.292l-14.692,-58.688l-40.962,-41.707l0,-22.5l-57.305,0l-39.36,22.5l-35.743,-22.5Z" style="fill:#eba00c;fill-rule:nonzero;"/></g></svg>