<svg width="100%" height="100%" viewBox="0 0 1724 1229" version="1.1" xmlns="http://www.w3.org/2000/svg"
     xml:space="preserve" fill-rule="evenodd" clip-rule="evenodd" stroke-linejoin="round" stroke-miterlimit="1.41421"><rect id="Artboard1" x="0" y="0" width="1723.85" height="1228.56" fill="none"/>
    <clipPath id="_clip1"><rect x="0" y="0" width="1723.85" height="1228.56"/></clipPath>
    <g clip-path="url(#_clip1)"><path d="M-369.852,-954.907c11.421,13.118 368.521,994.938 372.302,1008.49c1.409,4.973 3.486,9.802 5.043,14.415c3.414,10.235 8.899,34.813 15.202,46.705c5.191,9.802 17.725,18.884 22.768,24.578c2.95,2.926 5.448,6.253 7.417,9.874c7.416,15.136 20.172,55.715 35.45,81.086c18.912,31.569 56.068,78.274 78.393,108.112c18.021,24.145 40.048,45.624 55.623,71.283c15.574,25.66 23.583,60.616 37.971,83.608c12.682,20.326 36.192,41.732 47.984,54.057c6.971,7.208 12.83,17.658 22.768,19.677c20.247,4.108 76.315,0.36 98.637,4.901c13.795,2.739 25.735,17.226 35.451,22.127c7.045,3.604 17.057,1.875 22.768,7.208c9.642,9.442 23.584,38.921 35.376,49.156c9.345,8.145 35.376,12.325 35.376,12.325c0,0 28.702,-13.046 43.014,-19.677c19.432,-9.01 50.581,-26.668 73.349,-34.381c20.593,-6.221 41.793,-10.351 63.262,-12.324c5.265,-0.505 9.938,5.838 14.832,4.901c6.749,-1.225 16.539,-8.865 25.29,-12.253c12.682,-4.902 37.526,-11.1 50.579,-17.227c10.307,-4.829 16.91,-16.217 27.812,-19.677c24.053,-6.073 48.588,-10.172 73.348,-12.253c4.895,0 12.238,3.244 12.682,7.208c0.443,3.964 -11.792,13.118 -10.16,17.226c1.631,4.109 15.647,4.469 20.246,7.208c4.599,2.74 3.414,9.658 7.417,9.802c17.163,0.482 34.281,-1.958 50.579,-7.207c14.832,-6.127 31.149,-23.35 37.897,-29.479c1.929,-1.802 4.08,-5.261 2.523,-7.207c-4.228,-5.766 -26.996,-18.884 -27.812,-27.101c-0.817,-8.216 14.832,-15.424 22.768,-22.055c15.574,-12.757 56.884,-41.011 70.827,-54.128c6.768,-6.692 11.183,-15.299 12.608,-24.579c2.15,-12.685 -5.488,-36.83 0,-51.606c5.488,-14.775 30.184,-20.83 32.928,-36.83c3.338,-19.677 -12.238,-55.715 -12.682,-81.158c0.23,-24.086 3.645,-48.043 10.161,-71.283c2.943,-13.195 9.986,-25.199 20.172,-34.38c16.463,-12.686 62.371,-34.381 78.392,-41.805c5.821,-1.334 11.754,-2.155 17.726,-2.45c27.812,-7.207 118.662,-28.83 149.216,-39.282c12.609,-4.252 19.655,-20.902 32.855,-22.127c29.666,-2.883 115.918,4.108 146.696,4.901c12.644,0.8 25.328,0.8 37.972,0c4.153,-0.648 8.01,-5.333 10.086,-7.207c2.076,-1.874 3.263,-3.243 2.521,-4.973c-0.741,-1.73 -9.863,-4.685 -7.416,-7.207c6.346,-5.502 14.312,-8.931 22.768,-9.802c8.693,1.74 16.637,6.015 22.768,12.253c10.89,9.204 20.268,19.971 27.811,31.929c2.374,5.838 -7.416,11.1 -7.416,17.226c0,6.126 8.38,12.757 7.416,19.677c-2.207,15.538 -7.362,30.545 -15.202,44.255c-12.608,20.038 -48.057,52.397 -60.665,76.186c-10.754,20.109 -12.682,49.588 -15.202,66.381c-1.706,11.317 3.414,26.164 0,34.38c-3.414,8.217 -14.833,12.325 -20.172,14.415c-3.04,1.44 -8.01,-1.657 -10.16,0c-2.541,2.613 -3.499,6.335 -2.522,9.803c1.705,4.108 6.081,13.983 12.682,14.773c6.601,0.791 21.878,-9.009 27.811,-9.874c3.314,-0.168 6.359,1.844 7.417,4.901c0.107,5.339 -1.674,10.555 -5.044,14.774c-5.043,5.333 -19.801,11.46 -25.289,17.226c-3.945,5.032 -6.498,10.964 -7.416,17.227c0,2.234 2.817,5.622 5.117,4.901c5.043,-1.658 20.618,-14.415 25.29,-14.774c4.672,-0.359 3.189,8.144 2.521,12.325c-1.261,7.208 -6.971,21.19 -10.16,31.926c-7.416,25.804 -29.072,95.861 -35.375,122.89c-2.967,12.83 -1.262,32.795 -2.523,39.354c0,1.585 -4.524,1.513 -5.043,0c-2.151,-6.198 -3.414,-25.804 -7.416,-36.903c-4.003,-11.099 -14.833,-18.379 -17.65,-29.479c-2.817,-11.1 2.892,-31.569 2.522,-39.353c-0.609,-2.985 -2.462,-5.596 -5.118,-7.208c-1.631,-0.793 -4.079,0.865 -5.043,2.45c-1.631,2.884 -1.705,10.74 -5.043,14.774c-8.757,8.725 -18.044,16.933 -27.811,24.578c-11.442,8.431 -22.408,17.453 -32.852,27.029c-3.929,4.541 -2.374,11.82 -5.117,17.152c-7.417,14.416 -37.898,68.833 -37.898,68.833c0,0 -25.735,-13.118 -32.851,-12.253c-7.117,0.865 -25.29,31.927 -25.29,31.927l-278.262,22.127l2.596,88.51l-60.742,7.208l-2.522,7.207l58.069,49.805l55.697,32.002l12.608,29.479l35.451,14.416l2.521,54.129l-210.118,17.592l-73.348,135.214l25.289,31.93l-7.416,14.774l-2.522,44.255l0,31.927c0,0 -72.902,-57.661 -91.072,-73.734c-7.417,-6.271 -10.307,-16.145 -17.65,-22.127c-22.249,-18.02 -86.475,-63.066 -116.363,-86.059c-21.578,-16.505 -46.797,-39.714 -63.261,-51.606c-10.908,-7.938 -22.792,-14.524 -35.376,-19.604c-16.252,-6.63 -33.218,-11.466 -50.58,-14.416c-4.895,0 -2.818,11.028 -7.416,12.253c-10.199,1.333 -20.574,0.497 -30.407,-2.45c-10.005,-3.328 -19.395,-8.195 -27.812,-14.416c-1.928,-1.729 4.451,-5.549 2.523,-7.207c-5.061,-3.98 -11.183,-6.48 -17.65,-7.208c-6.56,0.451 -12.789,2.985 -17.725,7.208c-15.202,12.758 -44.127,52.039 -73.348,68.832c-36.266,20.903 -114.658,46.346 -144.174,56.58c-10.344,4.321 -21.651,6.008 -32.852,4.902c-14.313,-2.452 -39.232,-13.912 -53.101,-19.677c-10.573,-3.828 -20.732,-8.656 -30.333,-14.416c-4.895,-3.531 -4.153,-13.835 -10.16,-14.414c-19.357,-2.883 -82.989,0 -106.203,-2.451c-11.614,-2.188 -22.737,-6.361 -32.851,-12.325c-12.682,-6.126 -27.886,-17.803 -43.015,-24.577c-15.129,-6.775 -35.376,-8.577 -50.58,-17.227c-15.204,-8.65 -28.626,-28.83 -40.493,-34.38c-9.048,-4.397 -20.321,1.585 -30.332,0c-14.834,-2.451 -40.42,-9.803 -60.667,-14.416c-22.249,-5.258 -53.101,-9.009 -70.826,-17.152c-14.832,-6.775 -23.584,-25.803 -35.45,-32.002c-10.457,-5.478 -24.027,-1.298 -35.376,-4.901c-29.665,-9.37 -102.865,-31.93 -141.652,-51.606c-33.596,-17.082 -68.676,-48.364 -90.999,-66.382c-15.648,-12.542 -32.483,-33.948 -43.015,-41.732c-5.904,-3.986 -13.102,-5.754 -20.246,-4.973c-8.01,0.865 -18.244,12.253 -27.812,9.874c-37.526,-9.442 -153.445,-42.237 -197.275,-66.382c-30.185,-16.652 -40.42,-57.661 -65.709,-78.635c-25.289,-20.975 -58.589,-34.813 -86.03,-49.156c-25.512,-13.406 -57.402,-17.37 -78.392,-36.902c-27.366,-25.371 -67.859,-84.762 -85.956,-115.322c-12.385,-20.902 -28.701,-54.129 -22.768,-68.832c5.934,-14.703 47.169,-13.118 58.145,-19.677c6.155,-3.676 12.014,-14.416 7.416,-19.677c-5.862,-7.208 -37.082,-18.019 -42.941,-24.578c-3.782,-4.108 3.56,-10.883 7.417,-14.415c6.303,-6.197 24.845,-11.099 30.333,-22.127c7.416,-15.208 18.541,-52.904 15.201,-68.833c-3.041,-14.415 -27.217,-14.847 -35.449,-27.028c-10.903,-16.434 -25.661,-56.58 -30.333,-71.284c-1.706,-5.549 -1.261,-17.225 2.522,-17.225c3.783,0 16.019,15.136 20.246,17.225c2.151,1.01 6.082,-2.81 5.043,-4.901c-3.337,-7.207 -21.507,-25.01 -25.289,-36.902c-3.783,-11.893 5.488,-28.255 2.521,-34.381c-2.967,-6.126 -15.202,1.946 -20.172,-2.45c-7.417,-6.775 -18.17,-28.83 -25.29,-37.984c-4.301,-5.622 -15.202,-13.838 -17.725,-18.592c-1.631,-2.955 4.747,-7.208 2.522,-9.802c-15.202,-18.02 -67.415,-65.59 -93.594,-98.312c-24.325,-30.56 -45.536,-78.274 -63.19,-98.312c-10.606,-11.964 -31.743,-10.811 -43.016,-22.127c-11.273,-11.315 -16.464,-38.921 -25.289,-46.705c-6.898,-6.054 -19.728,4.396 -27.812,0c-12.121,-8.656 -22.419,-19.495 -30.333,-31.927c-3.929,-6.414 0,-15.063 -2.596,-22.127c-2.595,-7.063 -10.531,-18.451 -12.607,-24.577c-1.335,-3.893 3.041,-9.516 0,-12.325c-6.749,-6.127 -28.627,-16.794 -40.494,-24.578c-10.457,-7.208 -20.618,-14.415 -30.333,-22.127c-9.715,-7.712 -23.138,-20.037 -30.332,-27.029c-4.672,-4.541 -8.825,-14.415 -12.682,-14.415c-3.857,0 -4.154,16.073 -10.086,14.415c-10.531,-2.451 -43.015,-24.146 -53.101,-29.479c-2.373,-1.225 -6.527,0 -7.416,-2.45c-0.89,-2.451 1.779,-10.163 0,-14.774c-2.967,-7.208 -16.465,-20.038 -17.725,-29.479c-1.261,-9.442 5.117,-18.812 10.086,-27.029c4.968,-8.217 18.986,-20.47 22.768,-27.028c2.077,-3.604 0.445,-8.217 0,-12.325c-0.815,-8.145 0,-25.443 -5.043,-36.831c-5.641,-12.498 -14.32,-23.481 -25.29,-32.002c-6.748,-3.748 -14.832,5.697 -22.767,4.973c-7.936,-0.723 -22.25,-2.018 -27.812,-9.874c-6.749,-9.369 -5.043,-35.605 -12.682,-46.705c-7.639,-11.1 -23.584,-15.137 -32.854,-19.605c-7.416,-3.531 -16.242,-2.883 -22.768,-7.208c-8.825,-6.126 -24.252,-16.866 -30.333,-29.479c-6.497,-17.331 -9.907,-35.612 -10.086,-54.056c0,-11.749 12.608,-27.029 7.417,-34.453c-5.191,-7.424 -30.333,-9.009 -37.972,-9.803c-2.967,-0.36 -5.862,3.676 -7.417,4.901c-1.555,1.226 -1.409,2.956 -2.521,2.451c-8.878,-4.021 -17.345,-8.848 -25.29,-14.415c-9.659,-6.904 -18.186,-15.191 -25.29,-24.578c-8.01,-11.894 -11.643,-33.299 -22.768,-46.705c-12.239,-14.774 -39.604,-32.002 -50.58,-41.804c-6.058,-4.742 -11.098,-10.595 -14.833,-17.226c-2.447,-6.055 3.264,-13.839 0,-19.677c-5.861,-10.595 -29.072,-30.705 -35.375,-44.183c-5.266,-11.244 1.26,-28.83 -2.522,-36.903c-3.263,-7.207 -16.835,-7.207 -20.247,-12.252c-3.411,-5.046 2.67,-13.695 0,-19.677c-8.01,-18.019 -39.603,-67.175 -48.058,-88.509c-4.821,-12.253 0,-26.453 -2.522,-39.282c-3.795,-13.5 -8.757,-26.665 -14.833,-39.354c-6.377,-14.773 -20.246,-33.154 -22.767,-49.155c-2.522,-16.001 6.303,-35.245 7.416,-46.706c0.816,-7.208 4.005,-15.856 0,-22.127c-6.885,-8.605 -15.819,-15.457 -26.031,-19.965c-6.229,-2.667 -14.833,1.73 -20.247,-2.45c-11.347,-9.01 -36.637,-41.372 -48.058,-51.607c-5.076,-5.827 -12.403,-9.375 -20.247,-9.802c-7.416,0.793 -15.797,17.298 -25.289,14.415c-12.163,-3.244 -34.561,-25.803 -48.059,-34.38c-10.383,-6.631 -26.921,-13.911 -32.851,-17.226c-1.038,-0.577 -1.409,-2.09 -2.522,-2.451c-2.966,-0.792 -13.498,-7.208 -14.832,-2.45c-8.752,34 -15.488,68.461 -20.173,103.212c-0.142,8.449 1.578,16.829 5.043,24.579c2.373,7.208 9.122,12.395 10.086,19.676c3.414,25.443 4.673,103.213 10.161,132.764c2.966,16.217 15.574,33.588 22.768,44.183c6.095,7.136 12.844,13.72 20.165,19.67c13.497,13.91 44.498,43.245 60.743,63.931c13.602,18.573 25.443,38.306 35.376,58.958c2.892,5.983 -2.448,15.208 2.521,19.677c4.969,4.468 24.475,1.225 30.333,9.802c8.454,12.325 11.421,50.018 20.247,63.931c6.749,10.667 26.18,10.667 32.928,19.677c6.749,9.009 5.411,26.235 7.417,34.38c1.261,5.045 4.302,9.658 5.043,14.774c0.742,5.115 -1.186,13.189 0,19.676c2.151,11.028 4.45,32.723 12.682,46.706c8.232,13.983 29.665,27.388 37.898,39.281c6.303,9.37 3.929,22.56 10.16,32.002c8.785,11.035 18.978,20.94 30.332,29.479c2.67,2.09 8.9,-0.721 10.086,2.451c1.706,4.468 -1.705,16.793 0,24.577c2.955,7.557 6.347,14.944 10.161,22.127c2.892,8.577 4.153,22.128 7.416,29.479c2.67,5.839 10.531,16.362 12.608,14.415c2.077,-1.946 0.89,-17.658 0,-24.577c-0.89,-6.92 -4.598,-13.118 -5.043,-17.226c0,-2.595 0.371,-8.866 2.522,-7.208c12.222,9.356 23.273,20.073 32.928,31.93c4.08,6.27 0.371,16.793 2.522,22.127c2.151,5.333 9.271,6.126 10.086,9.802c0.816,3.676 -6.081,8 -5.043,12.324c1.706,7.208 12.239,19.245 14.833,29.479c2.903,10.393 3.783,21.223 2.596,31.93c-1.113,7.207 -11.793,12.541 -10.161,19.677c6.859,19.869 16.199,38.847 27.812,56.507c5.191,7.208 18.541,7.208 22.767,14.774c4.227,7.566 0.817,25.154 5.043,36.902c5.489,15.137 21.508,40.507 27.886,54.057c4.079,8.722 10.086,17.442 10.086,27.029c0,12.685 -10.531,35.244 -10.086,49.155c0.163,12.5 4.599,24.598 12.608,34.38c11.649,11.381 25.382,20.548 40.493,27.029c4.45,1.585 8.232,-5.55 10.086,-9.802c1.854,-4.253 -0.445,-16.794 2.522,-19.677c2.967,-2.883 11.57,-1.081 14.833,2.45c8.38,8.217 26.551,37.696 35.376,46.705c4.449,4.541 14.387,2.018 17.724,7.208c3.338,5.189 2.151,19.893 5.043,29.479c2.832,10.34 7.098,20.257 12.682,29.479c8.01,12.253 31.594,29.912 35.377,44.255c3.782,14.343 -4.228,31.136 -12.682,41.732c-8.455,10.596 -28.627,15.568 -37.898,22.128c-6.748,4.829 -12.682,13.982 -17.725,17.226c-3.56,2.306 -8.974,4.612 -12.607,2.451c-6.304,-3.676 -20.989,-13.767 -25.29,-24.578c-7.416,-18.019 -10.16,-65.949 -17.725,-83.536c-4.598,-10.74 -18.096,-15.569 -27.812,-22.127c-9.715,-6.559 -21.804,-9.443 -30.332,-17.226c-29.666,-27.029 -123.112,-120.8 -149.217,-145.017c-1.854,-1.658 -6.377,2.162 -7.416,0c-2.077,-3.676 -2.522,-19.677 -5.043,-22.128c-2.522,-2.451 -6.675,9.73 -10.086,7.208c-3.412,-2.523 -10.977,-19.677 -14.833,-24.578c-2.373,-2.811 -8.232,-1.73 -10.086,-4.973c-4.228,-7.208 -15.426,-25.299 -14.833,-39.282c0.445,-25.01 20.692,-77.842 17.725,-110.637c-2.744,-30.776 -25.735,-70.057 -35.376,-85.986c-4.227,-7.208 -16.242,-4.901 -22.768,-9.875c-23.658,-18.019 -97.008,-82.743 -118.661,-98.311c-3.708,-2.595 -8.158,4.325 -12.682,4.901c-5.862,0.865 -16.464,4.181 -22.769,0c-9.27,-6.127 -24.399,-29.479 -32.851,-36.831c-4.747,-4.18 -12.385,-3.818 -17.725,-7.207c-6.748,-4.541 -14.165,-14.415 -22.694,-19.677c-10.605,-6.559 -32.038,-13.55 -40.493,-19.676c-5.411,-3.965 -6.081,-11.895 -10.086,-17.227c-12.239,-15.929 -53.546,-64.868 -63.261,-78.635c-1.335,-1.946 2.67,-5.261 5.043,-4.901c8.454,1.226 31.594,11.895 45.536,12.253c13.943,0.359 29.072,-11.027 37.972,-9.802c7.416,1.081 9.641,13.478 14.832,17.227c5.672,2.356 11.627,4.002 17.725,4.901c7.416,2.451 20.247,10.235 25.29,9.802c5.043,-0.433 5.488,-9.37 5.043,-12.253c-0.445,-2.883 -4.747,-3.819 -7.416,-4.901c-4.228,-1.658 -12.754,-1.44 -17.725,-4.973c-6.304,-4.468 -19.802,-15.929 -20.247,-22.127c-0.445,-6.198 13.943,-9.01 17.725,-14.415c2.932,-6.195 4.642,-12.869 5.043,-19.677c1.059,-9.917 2.743,-19.762 5.043,-29.479c3.414,-9.874 18.689,-19.031 15.202,-29.479c-4.672,-13.983 -30.778,-39.354 -43.015,-54.13c-9.715,-11.748 -20.172,-22.992 -30.332,-34.38c-16.465,-18.451 -52.285,-60.255 -68.305,-76.186c-8.01,-8 -19.131,-12.325 -27.812,-19.676c-18.733,-15.247 -36.608,-31.463 -53.546,-48.579c-3.189,-3.818 1.854,-10.163 0,-14.415c-1.854,-4.252 -11.421,-10.235 -12.608,-17.153c-2.151,-11.894 4.598,-40.146 0,-54.128c-4.227,-12.686 -23.584,-16.794 -27.886,-29.479c-5.41,-16.362 0,-54.057 -5.043,-68.833c-3.041,-10.595 -20.765,-10.595 -25.289,-20.109c-4.524,-9.514 1.779,-26.884 -2.522,-39.354c-4.598,-13.55 -19.357,-31.926 -25.29,-41.803c-4.029,-5.425 -7.413,-11.276 -10.086,-17.442c-2.646,-6.899 -3.512,-14.324 -2.522,-21.623c1.632,-7.785 12.163,-17.226 12.608,-24.578c-0.72,-7.549 -4.319,-14.571 -10.086,-19.677c-4.598,-4.901 -14.462,-4.036 -17.725,-9.874c-4.672,-8.144 -4.895,-26.74 -10.086,-39.281c-5.19,-12.542 -19.436,-30.125 -22.773,-39.567c-0.62,-5.855 0.246,-11.77 2.521,-17.226l0,-2.451l343.973,7.208l-17.725,34.381l27.812,14.415l508.317,221.201l308.595,14.415l90.999,2.523l0,-66.383l242.812,4.901c0,0 28.256,29.912 40.493,41.804c10.532,10.235 22.25,19.245 32.851,29.479c14.314,13.911 37.898,39.354 53.102,54.057c11.977,12.146 24.629,23.648 37.897,34.453c16.465,12.685 48.058,26.596 60.743,41.731c11.05,13.334 9.716,37.264 15.202,49.156c3.929,8.576 14.832,13.118 17.649,22.128c3.414,12.324 -3.041,35.317 2.522,51.606c8.002,18.834 19.126,36.267 32.929,51.606c6.229,7.208 17.502,7.208 25.289,12.325c9.642,6.559 23.139,22.127 32.852,27.028c7.416,3.819 17.725,-1.225 25.29,2.451c9.27,4.541 21.878,19.677 30.332,24.578c6.008,3.46 14.017,1.874 20.247,4.901c9.27,4.541 25.735,18.884 35.376,22.128c7.505,3.071 16.137,2.142 22.768,-2.451c15.498,-17.405 29.07,-36.345 40.494,-56.508c8.824,-15.424 12.607,-38.128 20.246,-49.155c6.62,-7.912 15.379,-13.878 25.29,-17.226c6.23,-2.379 14.017,2.667 20.247,0c6.229,-2.667 11.272,-16.938 20.172,-17.226c13.498,-0.361 42.2,11.894 60.743,14.774c16.687,2.595 35.377,-4.758 50.58,2.451c19.801,9.442 47.613,35.244 68.305,54.056c20.691,18.812 41.309,36.038 55.622,59.033c18.541,29.479 45.536,95.429 55.623,117.988c2.448,5.406 1.038,12.686 5.043,17.153c5.933,6.558 22.249,12.757 30.333,22.127Z" fill="#40290a"/>
        <clipPath id="_clip2"><path d="M225.89,1016.35l0,-907.033c0,0 25.786,30.11 31.907,41.994c5.042,9.797 14.419,30.49 19.317,36.179c2.864,2.926 29.732,18 44.572,43.355c18.368,31.55 54.456,78.227 76.139,108.047c17.504,24.13 38.898,45.596 54.025,71.24c15.127,25.643 22.905,60.579 36.88,83.557c12.318,20.313 35.152,41.707 46.605,54.024c6.771,7.204 12.461,17.648 22.114,19.665c19.665,4.106 74.121,0.36 95.802,4.898c13.398,2.738 24.996,17.216 34.432,22.115c6.843,3.601 16.567,1.872 22.115,7.202c9.364,9.437 22.905,38.898 34.358,49.127c9.076,8.14 34.36,12.317 34.36,12.317c0,0 27.877,-13.038 41.778,-19.664c18.873,-9.005 49.126,-26.652 71.24,-34.36c20.001,-6.218 40.593,-10.346 61.444,-12.318c5.114,-0.504 9.652,5.835 14.406,4.898c6.555,-1.224 16.064,-8.859 24.564,-12.245c12.317,-4.899 36.447,-11.094 49.125,-17.217c10.01,-4.825 16.423,-16.207 27.012,-19.664c23.362,-6.07 47.192,-10.167 71.241,-12.246c4.754,0 11.887,3.242 12.317,7.204c0.43,3.961 -11.453,13.109 -9.868,17.216c1.585,4.105 15.198,4.465 19.665,7.203c4.467,2.737 3.315,9.652 7.203,9.796c16.67,0.481 33.297,-1.957 49.126,-7.203c14.406,-6.123 30.254,-23.336 36.808,-29.461c1.873,-1.801 3.962,-5.258 2.45,-7.203c-4.106,-5.763 -26.221,-18.873 -27.013,-27.084c-0.793,-8.211 14.406,-15.415 22.114,-22.042c15.127,-12.749 55.249,-40.986 68.792,-54.095c6.573,-6.688 10.862,-15.29 12.245,-24.564c2.088,-12.677 -5.331,-36.808 0,-51.575c5.33,-14.766 29.317,-20.817 31.982,-36.808c3.242,-19.665 -11.887,-55.681 -12.317,-81.109c0.223,-24.071 3.54,-48.014 9.868,-71.24c2.859,-13.186 9.7,-25.183 19.593,-34.359c15.989,-12.678 95.868,-25.58 95.868,-25.58l0,576.233l-164.215,9.924l2.521,63.431l-58.997,7.204l-2.448,7.202l56.4,49.776l54.096,31.982l12.245,29.461l34.433,14.407l2.449,54.096l-204.081,17.582l-71.24,135.132l24.563,31.911l-7.203,14.765l-2.449,44.228l0,31.908c0,0 -70.808,-57.626 -88.456,-73.69c-7.203,-6.266 -10.01,-16.134 -17.142,-22.113c-21.61,-18.009 -83.99,-63.028 -113.019,-86.007c-20.958,-16.496 -45.451,-39.69 -61.442,-51.575c-10.595,-7.934 -22.138,-14.516 -34.36,-19.593c-15.785,-6.625 -32.264,-11.458 -49.126,-14.407c-4.755,0 -2.737,11.022 -7.204,12.247c-9.905,1.331 -19.982,0.495 -29.533,-2.45c-9.716,-3.326 -18.837,-8.19 -27.012,-14.406c-1.873,-1.729 4.323,-5.547 2.45,-7.203c-4.915,-3.978 -10.862,-6.477 -17.142,-7.204c-6.372,0.452 -12.422,2.984 -17.217,7.204c-14.765,12.75 -42.858,52.007 -71.239,68.791c-35.223,20.889 -111.363,46.317 -140.032,56.545c-10.045,4.318 -21.028,6.004 -31.907,4.898c-13.902,-2.449 -38.104,-13.902 -51.575,-19.664c-10.268,-3.825 -20.137,-8.651 -29.461,-14.407c-4.755,-3.529 -4.034,-13.827 -9.868,-14.406c-18.801,-2.881 -80.604,0 -103.151,-2.45c-11.28,-2.186 -31.907,-12.317 -31.907,-12.317l0,-0.002Z"/></clipPath>
        <g clip-path="url(#_clip2)"><path d="M840.516,694.663l-48.843,18.769l-43.443,0l-41.496,34.791l0,65.95l15.18,27.461l26.317,0l0,30.771l43.441,0l0,34.82l48.843,0l47.191,-34.82l49.741,17.581l23.548,-48.352l36.398,-44.455l-12.256,-48.956l-34.169,-34.791l0,-18.769l-47.803,0l-32.833,18.769l-29.816,-18.769Z" fill="#eba00c" fill-rule="nonzero"/></g>
        <text x="724.649" y="797.146" font-family="'Qualion-Bold', 'Qualion'" font-weight="700" font-size="32.177px"
              fill="#fff">C<tspan x="749.972" y="797.146">h</tspan>il<tspan x="787.588px 807.634px"
                                                                            y="797.146px 797.146px">ón</tspan>, C<tspan
                x="872.085" y="797.146">h</tspan>iap
            <tspan x="939.625px 957.644px" y="797.146px 797.146px">as</tspan></text></g></svg>