<svg xmlns="http://www.w3.org/2000/svg" width="1920" height="1969" viewBox="0 0 1920 1969">
    <defs>
        <clipPath id="a">
            <rect width="1920" height="1969" transform="translate(-1 501)" fill="#fff" stroke="#707070"
                  stroke-width="1"/>
        </clipPath>
    </defs>
    <g transform="translate(1 -501)" clip-path="url(#a)">
        <path d="M4468.4,2090.042a15.889,15.889,0,0,1,15.658,15.773c-3.914,26.135-28.784,102.01-39.261,141.271-8.29,31.317-15.543,62.863-23.027,94.3-10.363,41.219-30.05,125.612-39.262,153.13-2.072,6.217-13.24,5.641-15.658,11.513a234.239,234.239,0,0,0-11.513,58.949c-1.958,35.922-1.381,108.573,0,157.045,1.152,44.558,6.563,102.009,7.83,133.441a187.559,187.559,0,0,1,0,55.034c-5.3,20.264-28.783,44.443-31.431,66.664s10.132,44.558,15.773,66.778c7.139,28.784,21.531,84.394,27.4,106.04,2.188,7.944,5.412,15.658,7.829,23.027,5.3,16.349,13.816,55.61,23.6,74.607,8.06,15.658,27.518,30.166,35.347,39.261a67.836,67.836,0,0,1,11.514,15.774c11.513,24.178,31.316,89,55.035,129.527,29.359,50.429,87.042,125.037,121.7,172.7,27.978,38.57,62.173,72.88,86.352,113.869s36.612,96.829,58.949,133.556c19.688,32.469,56.186,66.664,74.492,86.352,10.823,11.514,19.918,28.208,35.346,31.432,31.433,6.563,118.475.575,153.13,7.829,21.415,4.376,39.952,27.518,55.035,35.347,10.938,5.757,26.481,2.994,35.347,11.513,14.968,15.083,36.612,62.174,54.919,78.523,14.507,13.011,54.92,19.688,54.92,19.688s44.557-20.84,66.777-31.432c30.167-14.392,78.523-42.6,113.87-54.92a484.511,484.511,0,0,1,98.211-19.688c8.174-.806,15.428,9.326,23.026,7.829,10.478-1.957,25.676-14.161,39.261-19.573,19.688-7.83,58.258-17.731,78.522-27.518,16-7.714,26.251-25.905,43.176-31.432a688.7,688.7,0,0,1,113.869-19.573c7.6,0,19,5.182,19.688,11.514s-18.306,20.954-15.773,27.517,24.292,7.138,31.432,11.514,5.3,15.428,11.514,15.658a228.644,228.644,0,0,0,78.522-11.513c23.026-9.787,48.357-37.3,58.833-47.09,2.994-2.879,6.333-8.405,3.916-11.513-6.563-9.211-41.91-30.166-43.177-43.291s23.027-24.639,35.347-35.231c24.178-20.379,88.309-65.512,109.955-86.466a70.93,70.93,0,0,0,19.573-39.262c3.338-20.263-8.52-58.833,0-82.436s46.859-33.274,51.12-58.834c5.182-31.432-19-89-19.688-129.643a448.961,448.961,0,0,1,15.773-113.868,105.348,105.348,0,0,1,31.317-54.92c25.558-20.264,96.827-54.92,121.7-66.779a153.924,153.924,0,0,1,27.518-3.914c43.176-11.513,184.216-46.054,231.651-62.749,19.574-6.793,30.512-33.39,51.005-35.346,46.055-4.606,179.957,6.562,227.738,7.829a453.982,453.982,0,0,0,58.949,0c6.448-1.036,12.435-8.52,15.658-11.513s5.066-5.181,3.915-7.944-15.313-7.484-11.513-11.513a63.09,63.09,0,0,1,35.346-15.658A67.8,67.8,0,0,1,7000.8,3090.8a219.9,219.9,0,0,1,43.176,51.005c3.685,9.325-11.513,17.731-11.513,27.517s13.01,20.378,11.513,31.432a202.545,202.545,0,0,1-23.6,70.694c-19.573,32.008-74.607,83.7-94.18,121.7-16.695,32.123-19.688,79.213-23.6,106.039-2.648,18.077,5.3,41.794,0,54.919s-23.027,19.688-31.316,23.027c-4.72,2.3-12.435-2.648-15.773,0a16.464,16.464,0,0,0-3.915,15.658c2.647,6.563,9.44,22.337,19.688,23.6s33.965-14.392,43.175-15.774a11.514,11.514,0,0,1,11.514,7.829,37.3,37.3,0,0,1-7.83,23.6c-7.829,8.52-30.74,18.307-39.26,27.518a59.179,59.179,0,0,0-11.513,27.518c0,3.569,4.374,8.981,7.944,7.829,7.829-2.648,32.008-23.027,39.261-23.6s4.951,13.01,3.915,19.688c-1.958,11.514-10.823,33.85-15.773,51-11.514,41.219-45.133,153.13-54.919,196.306-4.606,20.494-1.958,52.387-3.916,62.864,0,2.532-7.023,2.418-7.829,0-3.339-9.9-5.3-41.219-11.514-58.949s-23.027-29.359-27.4-47.09,4.49-50.429,3.915-62.864a17.613,17.613,0,0,0-7.945-11.514c-2.532-1.266-6.332,1.382-7.829,3.915-2.532,4.606-2.647,17.156-7.829,23.6a487.457,487.457,0,0,1-43.176,39.261,621.4,621.4,0,0,0-51,43.176c-6.1,7.254-3.686,18.882-7.945,27.4-11.514,23.027-58.834,109.954-58.834,109.954s-39.952-20.955-51-19.573-39.261,51-39.261,51l-431.987,35.347,4.03,141.387-94.3,11.514-3.914,11.513,90.149,79.559,86.467,51.12,19.572,47.091,55.036,23.028,3.915,86.466L5929,4614.612l-113.869,215.994,39.261,51.005-11.513,23.6-3.915,70.694v51s-113.178-92.108-141.386-117.783c-11.514-10.017-16-25.79-27.4-35.346-34.541-28.785-134.248-100.743-180.647-137.472-33.5-26.366-72.65-63.44-98.21-82.437a254.505,254.505,0,0,0-54.92-31.316,365.57,365.57,0,0,0-78.522-23.028c-7.6,0-4.375,17.617-11.514,19.574a110.307,110.307,0,0,1-47.205-3.915,153.4,153.4,0,0,1-43.176-23.027c-2.993-2.763,6.909-8.865,3.916-11.513a53.31,53.31,0,0,0-27.4-11.515,46.634,46.634,0,0,0-27.518,11.515c-23.6,20.379-68.505,83.127-113.869,109.954-56.3,33.39-178,74.033-223.823,90.381a102.823,102.823,0,0,1-51,7.83c-22.22-3.916-60.906-22.222-82.437-31.432a267.251,267.251,0,0,1-47.09-23.028c-7.6-5.64-6.448-22.1-15.774-23.025-30.05-4.606-128.836,0-164.874-3.916a155.3,155.3,0,0,1-51-19.688c-19.688-9.785-43.291-28.438-66.778-39.26s-54.919-13.7-78.523-27.518-44.441-46.054-62.863-54.919c-14.047-7.024-31.547,2.532-47.09,0-23.028-3.916-62.75-15.659-94.181-23.028-34.541-8.4-82.437-14.392-109.955-27.4-23.026-10.822-36.613-41.218-55.034-51.12-16.234-8.75-37.3-2.073-54.919-7.829-46.054-14.967-159.693-51.005-219.908-82.437-52.156-27.287-106.615-77.256-141.271-106.039-24.293-20.034-50.429-54.229-66.778-66.663a46.059,46.059,0,0,0-31.432-7.944c-12.435,1.381-28.323,19.573-43.176,15.773-58.258-15.083-238.215-67.47-306.26-106.04-46.86-26.6-62.749-92.108-102.009-125.613s-90.957-55.61-133.557-78.523c-39.607-21.415-89.115-27.747-121.7-58.948-42.485-40.527-105.348-135.4-133.442-184.217-19.227-33.389-44.557-86.466-35.346-109.953s73.226-20.955,90.266-31.432c9.556-5.873,18.652-23.028,11.513-31.433-9.1-11.514-57.568-28.784-66.663-39.261-5.872-6.562,5.527-17.385,11.514-23.026,9.786-9.9,38.57-17.731,47.09-35.347,11.513-24.293,28.784-84.509,23.6-109.954-4.721-23.027-42.254-23.718-55.034-43.176-16.925-26.251-39.837-90.381-47.09-113.869-2.648-8.865-1.958-27.517,3.915-27.517s24.869,24.179,31.432,27.517c3.339,1.612,9.441-4.49,7.829-7.829-5.181-11.513-33.389-39.952-39.261-58.949s8.52-45.134,3.914-54.92-23.6,3.108-31.316-3.914c-11.514-10.823-28.208-46.054-39.261-60.676-6.677-8.981-23.6-22.106-27.517-29.7-2.533-4.72,7.369-11.514,3.915-15.658-23.6-28.784-104.658-104.773-145.3-157.044-37.764-48.818-70.693-125.037-98.1-157.045-16.464-19.112-49.278-17.27-66.779-35.346s-25.56-62.173-39.261-74.608c-10.708-9.671-30.626,7.023-43.176,0a182.362,182.362,0,0,1-47.09-51c-6.1-10.247,0-24.063-4.03-35.346s-16.349-29.475-19.573-39.261c-2.072-6.218,4.721-15.2,0-19.688-10.477-9.787-44.442-26.826-62.864-39.261-16.234-11.514-32.008-23.027-47.09-35.346s-35.922-32.008-47.09-43.176c-7.253-7.254-13.7-23.027-19.688-23.027s-6.448,25.675-15.658,23.027c-16.349-3.915-66.779-38.571-82.437-47.09-3.684-1.957-10.132,0-11.513-3.915s2.763-16.234,0-23.6c-4.605-11.514-25.56-32.008-27.517-47.09s7.945-30.05,15.658-43.176,29.475-32.7,35.347-43.176c3.224-5.757.691-13.126,0-19.688-1.266-13.01,0-40.643-7.829-58.834a134.713,134.713,0,0,0-39.261-51.12c-10.477-5.987-23.027,9.1-35.346,7.944s-34.541-3.224-43.176-15.773c-10.477-14.967-7.829-56.877-19.688-74.608s-36.613-24.179-51.005-31.317c-11.513-5.641-25.214-4.605-35.346-11.514-13.7-9.786-37.649-26.942-47.09-47.09a259.4,259.4,0,0,1-15.658-86.351c0-18.767,19.573-43.176,11.514-55.035s-47.09-14.392-58.949-15.659c-4.606-.575-9.1,5.872-11.514,7.829s-2.188,4.721-3.915,3.915a241.807,241.807,0,0,1-39.261-23.027,184.222,184.222,0,0,1-39.261-39.261c-12.435-19-18.076-53.192-35.347-74.608-19-23.6-61.482-51.12-78.522-66.778a92.111,92.111,0,0,1-23.027-27.518c-3.8-9.671,5.066-22.106,0-31.432-9.1-16.925-45.133-49.048-54.919-70.578-8.175-17.961,1.957-46.054-3.915-58.949-5.066-11.514-26.136-11.514-31.432-19.573s4.145-21.876,0-31.432c-12.435-28.784-61.482-107.306-74.608-141.386-7.484-19.573,0-42.255-3.915-62.749a397,397,0,0,0-23.027-62.864c-9.9-23.6-31.432-52.962-35.346-78.522s9.786-56.3,11.514-74.608c1.266-11.514,6.217-25.33,0-35.347a107.54,107.54,0,0,0-40.412-31.892c-9.671-4.26-23.027,2.763-31.432-3.914-17.616-14.392-56.877-66.088-74.608-82.437a44.442,44.442,0,0,0-31.432-15.659c-11.513,1.267-24.524,27.633-39.261,23.027-18.882-5.181-53.653-41.218-74.608-54.919-16.119-10.592-41.794-22.221-51-27.517-1.612-.921-2.188-3.339-3.915-3.915-4.605-1.266-20.955-11.514-23.027-3.914a1462.205,1462.205,0,0,0-31.317,164.873,94.641,94.641,0,0,0,7.829,39.262c3.684,11.514,14.162,19.8,15.658,31.432,5.3,40.643,7.254,164.874,15.774,212.079,4.605,25.905,24.178,53.653,35.346,70.578A244.628,244.628,0,0,0,570.15,994.3c20.954,22.221,69.081,69.081,94.3,102.125a602.125,602.125,0,0,1,54.92,94.18c4.49,9.557-3.8,24.294,3.914,31.432s37.995,1.957,47.09,15.658c13.125,19.688,17.731,79.9,31.432,102.125,10.477,17.04,40.643,17.04,51.12,31.432s8.4,41.909,11.514,54.919c1.957,8.059,6.678,15.428,7.829,23.6s-1.842,21.069,0,31.432c3.339,17.616,6.908,52.271,19.688,74.608s46.054,43.751,58.834,62.749c9.786,14.968,6.1,36.037,15.773,51.12a263.2,263.2,0,0,0,47.09,47.09c4.145,3.339,13.816-1.151,15.658,3.915,2.648,7.138-2.648,26.826,0,39.261a342.112,342.112,0,0,0,15.774,35.346c4.49,13.7,6.447,35.347,11.513,47.09,4.145,9.326,16.349,26.136,19.573,23.027s1.382-28.208,0-39.261-7.138-20.954-7.829-27.517c0-4.145.576-14.162,3.915-11.514a309.148,309.148,0,0,1,51.12,51.005c6.333,10.017.576,26.826,3.915,35.346s14.392,9.786,15.658,15.658-9.441,12.78-7.829,19.688c2.648,11.514,19,30.741,23.027,47.09a138.159,138.159,0,0,1,4.03,51.005c-1.727,11.513-18.307,20.033-15.774,31.432a409.53,409.53,0,0,0,43.176,90.265c8.059,11.514,28.784,11.514,35.346,23.6s1.267,40.182,7.829,58.949c8.52,24.179,33.39,64.706,43.291,86.351,6.332,13.932,15.658,27.863,15.658,43.176,0,20.264-16.349,56.3-15.658,78.522a90.034,90.034,0,0,0,19.573,54.919,205.971,205.971,0,0,0,62.864,43.176c6.908,2.533,12.78-8.865,15.658-15.658s-.691-26.826,3.915-31.432,17.961-1.727,23.027,3.914c13.01,13.126,41.219,60.216,54.919,74.607,6.908,7.254,22.336,3.224,27.517,11.514s3.339,31.777,7.829,47.09a188.358,188.358,0,0,0,19.688,47.091c12.435,19.573,49.048,47.781,54.92,70.693s-6.563,49.738-19.688,66.664-44.442,24.869-58.834,35.347c-10.477,7.714-19.688,22.336-27.517,27.517-5.527,3.684-13.932,7.368-19.573,3.915-9.786-5.872-32.583-21.991-39.261-39.261-11.513-28.784-15.773-105.348-27.517-133.442-7.138-17.155-28.093-24.869-43.176-35.346s-33.85-15.083-47.09-27.517c-46.054-43.176-191.124-192.967-231.652-231.652-2.878-2.648-9.9,3.454-11.513,0-3.224-5.872-3.915-31.432-7.829-35.347s-10.362,15.543-15.658,11.513-17.04-31.432-23.027-39.261c-3.684-4.49-12.78-2.763-15.658-7.944-6.563-11.514-23.948-40.413-23.027-62.749.691-39.952,32.123-124.346,27.517-176.733-4.26-49.163-39.952-111.911-54.919-137.356-6.563-11.514-25.215-7.829-35.346-15.774-36.728-28.784-150.6-132.175-184.216-157.044-5.757-4.145-12.665,6.908-19.688,7.829-9.1,1.382-25.56,6.678-35.347,0-14.392-9.787-37.879-47.09-51-58.834-7.369-6.678-19.227-6.1-27.517-11.513-10.477-7.254-21.991-23.027-35.231-31.432-16.464-10.478-49.738-21.646-62.864-31.432-8.4-6.333-9.441-19-15.658-27.518-19-25.445-83.128-103.621-98.21-125.612-2.072-3.109,4.145-8.405,7.829-7.829,13.125,1.957,49.048,19,70.693,19.573s45.133-17.616,58.949-15.658c11.514,1.727,14.968,21.53,23.027,27.518a113.172,113.172,0,0,0,27.517,7.829c11.513,3.915,31.432,16.35,39.261,15.658s8.52-14.967,7.829-19.573-7.369-6.1-11.513-7.829c-6.563-2.648-19.8-2.3-27.517-7.944-9.786-7.138-30.741-25.445-31.432-35.346s21.645-14.392,27.517-23.027a87.155,87.155,0,0,0,7.829-31.432,389.3,389.3,0,0,1,7.829-47.091c5.3-15.773,29.014-30.4,23.6-47.09-7.253-22.336-47.781-62.864-66.778-86.467-15.083-18.767-31.317-36.728-47.09-54.92-25.56-29.474-81.17-96.252-106.04-121.7-12.435-12.78-29.7-19.688-43.176-31.432a1056.47,1056.47,0,0,1-83.128-77.6c-4.951-6.1,2.878-16.235,0-23.027s-17.731-16.349-19.573-27.4c-3.339-19,7.138-64.13,0-86.466-6.563-20.264-36.613-26.827-43.291-47.09-8.4-26.136,0-86.352-7.829-109.954-4.721-16.925-32.238-16.925-39.261-32.123s2.763-42.945-3.915-62.864c-7.138-21.645-30.05-51-39.261-66.778a141.393,141.393,0,0,1-15.658-27.862,71.96,71.96,0,0,1-3.915-34.541c2.533-12.435,18.882-27.517,19.573-39.261a48.587,48.587,0,0,0-15.658-31.432c-7.138-7.829-22.451-6.447-27.517-15.773-7.254-13.01-7.6-42.715-15.658-62.749S5.527,232.335.346,217.252a57.567,57.567,0,0,1,3.915-27.517V185.82l534,11.514-27.517,54.92,43.176,23.027,789.137,353.35,479.078,23.027,141.271,4.03V549.647l376.953,7.829s43.866,47.781,62.864,66.779c16.35,16.349,34.541,30.741,51,47.09,22.221,22.221,58.834,62.864,82.437,86.351a737.877,737.877,0,0,0,58.834,55.035c25.56,20.264,74.607,42.485,94.3,66.663,17.155,21.3,15.083,59.525,23.6,78.522,6.1,13.7,23.026,20.955,27.4,35.347,5.3,19.688-4.721,56.416,3.915,82.437a297.972,297.972,0,0,0,51.12,82.436c9.671,11.514,27.172,11.514,39.261,19.689,14.968,10.477,35.922,35.346,51,43.175,11.513,6.1,27.517-1.957,39.261,3.915,14.392,7.254,33.965,31.432,47.09,39.261,9.326,5.527,21.761,2.994,31.432,7.829,14.392,7.253,39.952,30.165,54.919,35.347a36.5,36.5,0,0,0,35.347-3.915,524.755,524.755,0,0,0,62.864-90.266c13.7-24.639,19.573-60.907,31.432-78.522a87.733,87.733,0,0,1,39.261-27.517c9.671-3.8,21.761,4.26,31.432,0s17.5-27.057,31.317-27.517c20.955-.576,65.512,19,94.3,23.6,25.906,4.145,54.92-7.6,78.522,3.915,30.741,15.083,73.917,56.3,106.04,86.351s64.131,57.568,86.351,94.3c28.784,47.09,70.693,152.439,86.352,188.476,3.8,8.635,1.612,20.264,7.829,27.4,9.211,10.477,34.541,20.379,47.09,35.347,17.731,20.955,46.054,71.384,58.949,90.381,5.182,7.829,8.06,18.077,15.658,23.027s30.165,8.52,39.261,15.773a43.179,43.179,0,0,1,15.773,27.4c1.266,10.477-10.132,23.027-7.829,35.347,2.533,13.817,19.573,33.389,23.027,47.09,3.224,11.514-4.49,24.524,0,35.347,9.211,22.336,41.219,70,55.035,98.21,11.513,23.027,11.513,56.3,27.4,70.693s53.077,7.829,70.693,15.658c14.392,6.448,20.724,25.445,35.347,31.432,17.616,7.138,50.429,3.915,70.693,11.514s30.971,30.281,51,35.346c28.093,7.254,89.69,1.266,117.783,7.829,19.458,4.605,34.541,30.741,51.005,31.432S4457.922,2092,4468.4,2090.042Z"
              transform="translate(-4406.979 -2556.953)" fill="#40290a" fill-rule="evenodd"/>
    </g>
</svg>