<svg viewBox="0 0 1920 1969" xmlns="http://www.w3.org/2000/svg" fill-rule="evenodd" clip-rule="evenodd"
     stroke-linejoin="round" stroke-miterlimit="1.414">
    <path d="M-50.864 1629.77V101.94S-9.425 170.67.359 189.667c8.06 15.658 27.518 30.166 35.347 39.261a67.82 67.82 0 0 1 11.514 15.774c11.513 24.178 31.316 89 55.035 129.527 29.359 50.429 87.042 125.037 121.7 172.7 27.978 38.57 62.173 72.88 86.352 113.869 24.179 40.989 36.612 96.829 58.949 133.556 19.688 32.469 56.186 66.664 74.492 86.352 10.823 11.514 19.918 28.208 35.346 31.432 31.433 6.563 118.475.575 153.13 7.829 21.415 4.376 39.952 27.518 55.035 35.347 10.938 5.757 26.481 2.994 35.347 11.513 14.968 15.083 36.612 62.174 54.919 78.523 14.507 13.011 54.92 19.688 54.92 19.688s44.557-20.84 66.777-31.432c30.167-14.392 78.523-42.6 113.87-54.92a484.518 484.518 0 0 1 98.211-19.688c8.174-.806 15.428 9.326 23.026 7.829 10.478-1.957 25.676-14.161 39.261-19.573 19.688-7.83 58.258-17.731 78.522-27.518 16-7.714 26.251-25.905 43.176-31.432a688.684 688.684 0 0 1 113.869-19.573c7.6 0 19 5.182 19.688 11.514.688 6.332-18.306 20.954-15.773 27.517 2.533 6.563 24.292 7.138 31.432 11.514 7.14 4.376 5.3 15.428 11.514 15.658a228.65 228.65 0 0 0 78.522-11.513c23.026-9.787 48.357-37.3 58.833-47.09 2.994-2.879 6.333-8.405 3.916-11.513-6.563-9.211-41.91-30.166-43.177-43.291-1.267-13.125 23.027-24.639 35.347-35.231 24.178-20.379 88.309-65.512 109.955-86.466a70.935 70.935 0 0 0 19.573-39.262c3.338-20.263-8.52-58.833 0-82.436 8.52-23.603 46.859-33.274 51.12-58.834 5.182-31.432-19-89-19.688-129.643a448.99 448.99 0 0 1 15.773-113.868 105.369 105.369 0 0 1 31.317-54.92c25.558-20.264 96.827-54.92 121.7-66.779 9.036-2.132 27.518-3.914 27.518-3.914v914.864l-258.462 11.847 4.03 141.387-94.3 11.514-3.914 11.513 90.149 79.559 86.467 51.12 19.572 47.091 55.036 23.028 3.915 86.466-326.199 28.102-113.869 215.994 39.261 51.005-11.513 23.6-3.915 70.694v51s-113.178-92.108-141.386-117.783c-11.514-10.017-16-25.79-27.4-35.346-34.541-28.785-134.248-100.743-180.647-137.472-33.5-26.366-72.65-63.44-98.21-82.437a254.474 254.474 0 0 0-54.92-31.316 365.594 365.594 0 0 0-78.522-23.028c-7.6 0-4.375 17.617-11.514 19.574a110.3 110.3 0 0 1-47.205-3.915 153.414 153.414 0 0 1-43.176-23.027c-2.993-2.763 6.909-8.865 3.916-11.513a53.31 53.31 0 0 0-27.4-11.515 46.646 46.646 0 0 0-27.518 11.515c-23.6 20.379-68.505 83.127-113.869 109.954-56.3 33.39-178 74.033-223.823 90.381a102.828 102.828 0 0 1-51 7.83c-22.22-3.916-60.906-22.222-82.437-31.432a267.203 267.203 0 0 1-47.09-23.028c-7.6-5.64-6.448-22.1-15.774-23.025-30.05-4.606-128.836 0-164.874-3.916-18.03-3.495-51-19.688-51-19.688z"
          fill="#40290a"/>
</svg>