<?xml version="1.0" encoding="utf-8"?>
<!-- Generator: Adobe Illustrator 23.0.2, SVG Export Plug-In . SVG Version: 6.00 Build 0)  -->
<svg version="1.1" id="Layer_1" xmlns="http://www.w3.org/2000/svg" xmlns:xlink="http://www.w3.org/1999/xlink" x="0px" y="0px"
	 viewBox="0 0 283.8 53.5" style="enable-background:new 0 0 283.8 53.5;" xml:space="preserve">
<style type="text/css">
	.st0{fill:#40290A;}
</style>
<g transform="translate(-18.06 -16.25)">
	<path class="st0" d="M50.7,51.7h-7.1l-1.4-2.3l-0.1-0.1l-8-12.6l-7.6,12.3h4.3v2.8H18.1v-2.8H23l9.4-14.9L23,19.3h-4.9v-2.8H25
		l1.6,2.4l7.5,11.9l7.4-11.5h-4.1v-2.8h12.2v2.8h-4.7l-8.9,14.2l9.8,15.4h5L50.7,51.7z"/>
	<path class="st0" d="M93.2,51.7h-12v-2.8h4.2l-3.7-10.4H68.2L64.5,49v2.6h-7.8v-2.8h4.5l11.2-32.4h10.2v2.8h-4.2l10.4,29.6h4.4
		V51.7z M69.2,35.7h11.7L75,18.5L69.2,35.7z"/>
	<path class="st0" d="M108.4,51.7h-8v-2.8h4.6V19.3h-4.6v-2.8h15.1c3.7,0,6.6,0.9,8.7,2.7c2.2,2,3.3,4.8,3.2,7.8
		c0.1,2.9-1,5.6-3.1,7.6c-2.3,2-5.2,3-8.2,2.8h-7.7L108.4,51.7z M108.4,34.5h6.6c2.9,0,5.1-0.6,6.7-1.8c1.6-1.4,2.4-3.4,2.3-5.5
		c0-2.8-0.7-4.9-2.1-6.1c-1.4-1.2-3.8-1.9-6.8-1.9h-6.7L108.4,34.5z"/>
	<path class="st0" d="M150.7,51.8c-4.7,0.1-9.2-1.7-12.4-5c-3.3-3.4-5.1-8.1-4.9-12.8c-0.2-4.7,1.6-9.3,4.9-12.7
		c3.3-3.4,7.8-5.2,12.4-5.1c4.7-0.1,9.2,1.7,12.5,5c3.3,3.4,5.1,8,4.9,12.8c0.2,4.7-1.6,9.3-4.9,12.7
		C159.9,50.1,155.4,51.9,150.7,51.8z M150.7,19.2c-3.8-0.1-7.5,1.4-10.1,4.2c-2.7,2.9-4.1,6.7-4,10.7c-0.1,3.9,1.3,7.7,4,10.6
		c2.6,2.8,6.3,4.3,10.1,4.2c3.8,0.1,7.5-1.4,10.1-4.2c2.7-2.9,4.1-6.7,4-10.6c0.1-3.9-1.3-7.7-3.9-10.6
		C158.2,20.6,154.5,19.1,150.7,19.2z"/>
	<path class="st0" d="M203.9,51.8h-3.1l-0.1-0.1l-20.4-31v28.2h4.9v2.8h-7.8V19.3h-4.6v-2.8h8.6l0.1,0.1c1.7,2.6,3.3,5.3,5,7.9
		s3.3,5.1,5,7.6s3.4,5.1,5.1,7.7s3.1,4.8,4.6,7.1V16.5h7.4v2.8H204L203.9,51.8z"/>
	<path class="st0" d="M231.6,51.7h-8.1v-2.8h4.8V19.3h-9.5v8.6h-2.9V16.5h28.1v7.4h-2.9v-4.6h-9.5L231.6,51.7z"/>
	<path class="st0" d="M285.6,51.8c-5.1,0-9.3-1.6-12.5-4.9s-4.8-7.6-4.8-12.9s1.6-9.5,4.8-12.8c3.3-3.3,7.8-5.1,12.4-5
		c2.3,0,4.6,0.5,6.7,1.5c2.1,0.9,4,2.4,5.5,4.2v-2.1h2.8v8.4h-2.8V28c-0.5-2.6-2.1-5-4.4-6.4c-2.3-1.5-5.1-2.4-7.9-2.4
		c-3.7-0.1-7.3,1.4-9.9,4.1c-2.6,2.9-4.1,6.7-3.9,10.7c-0.1,3.9,1.3,7.7,3.9,10.7c2.6,2.8,6.2,4.3,10,4.2c2.8,0.1,5.6-0.8,8-2.4
		c2.5-2,4.4-4.8,5.4-7.9l0.1-0.3l2.8,1.6l-0.1,0.2c-1.6,4.1-3.8,7.2-6.6,9C292.3,50.9,289,51.9,285.6,51.8z"/>
	<g>
		<path class="st0" d="M184.8,66.9h-2v-5.2c0-0.3-0.1-0.6-0.3-0.8c-0.2-0.2-0.5-0.3-0.8-0.3c-0.4,0-0.8,0.1-1.2,0.3
			c-0.4,0.2-0.8,0.5-1.1,0.8V66h1.1v0.9h-2.1v-6h-1.2V60h2.2v0.8c0.3-0.2,0.6-0.5,1-0.6c0.4-0.2,0.9-0.3,1.4-0.3
			c0.5,0,1,0.2,1.4,0.5c0.4,0.4,0.6,0.9,0.5,1.4V66h1.1L184.8,66.9z"/>
		<path class="st0" d="M191.3,67c-0.5,0-1-0.1-1.3-0.5c-0.4-0.3-0.5-0.8-0.5-1.3v-4.4h-1.2v-0.9h2.1V65c0,0.3,0.1,0.5,0.2,0.8
			c0.2,0.2,0.5,0.3,0.7,0.2c0.4,0,0.9-0.1,1.2-0.3c0.4-0.2,0.8-0.5,1.1-0.8v-5h1v6h1.1v0.9h-2.1V66l-0.4,0.2
			c-0.2,0.1-0.4,0.2-0.6,0.3C192.3,66.8,191.8,67,191.3,67L191.3,67z"/>
		<path class="st0" d="M202.9,67.1c-1,0-1.9-0.3-2.6-1c-0.7-0.7-1-1.6-1-2.6c0-1,0.3-1.9,1-2.6c0.7-0.7,1.6-1,2.5-1
			c0.9,0,1.8,0.3,2.4,1c0.7,0.8,1,1.8,1,2.8v0.1h-6c0,0.6,0.3,1.3,0.8,1.7c0.5,0.5,1.2,0.8,1.9,0.8c0.2,0,0.3,0,0.5-0.1L204,66
			l0.6-0.2l0.1-0.1l0.2,0.8h-0.1c-0.3,0.1-0.5,0.2-0.7,0.2s-0.4,0.1-0.6,0.2C203.3,67,203.1,67,202.9,67.1z M200.4,62.8h4.9
			c-0.1-0.6-0.4-1.1-0.8-1.5c-0.5-0.4-1.1-0.7-1.7-0.6c-0.7,0-1.3,0.3-1.8,0.8C200.7,61.8,200.4,62.3,200.4,62.8L200.4,62.8z"/>
		<path class="st0" d="M212.7,67.1c-0.4,0-0.8-0.1-1.2-0.2c-0.3-0.1-0.5-0.3-0.7-0.6v0.6h-0.9v-2.6h0.9v0.1c0,0.5,0.2,1,0.6,1.3
			c0.8,0.6,1.8,0.7,2.6,0.1c0.3-0.2,0.5-0.5,0.5-0.9c0-0.3-0.1-0.6-0.4-0.8c-0.5-0.3-1-0.4-1.5-0.5c-0.6-0.1-1.3-0.3-1.8-0.6
			c-0.4-0.3-0.6-0.8-0.6-1.4c0-0.6,0.2-1.1,0.6-1.5c0.4-0.4,1-0.6,1.6-0.5c0.4,0,0.7,0.1,1.1,0.2c0.2,0.1,0.5,0.3,0.6,0.5v-0.3h0.9
			v2.2h-0.9v-0.1c0-0.4-0.2-0.8-0.5-1.1c-0.3-0.3-0.8-0.5-1.2-0.4c-0.4,0-0.7,0.1-1,0.3c-0.2,0.2-0.4,0.5-0.4,0.8
			c0,0.3,0.1,0.5,0.3,0.7c0.4,0.2,0.9,0.3,1.4,0.4c0.7,0.1,1.4,0.3,2,0.8c0.3,0.4,0.5,0.9,0.5,1.4c0,0.6-0.2,1.2-0.7,1.6
			C214.1,66.9,213.4,67.1,212.7,67.1L212.7,67.1z"/>
		<path class="st0" d="M221.8,67c-0.4,0-0.7-0.1-1-0.3c-0.2-0.3-0.3-0.6-0.3-1v-4.8h-1.2v-0.9h1.2v-1.5h1V60h1.4v0.9h-1.4v4.7
			c0,0.3,0.1,0.4,0.1,0.5c0.1,0.1,0.2,0.1,0.4,0.1l0.9-0.2v0.9L221.8,67z"/>
		<path class="st0" d="M230.6,66.9h-2.4v-6H227V60h2.2v0.9c0.1-0.1,0.1-0.2,0.2-0.3c0.1-0.2,0.3-0.3,0.5-0.4
			c0.1-0.1,0.3-0.1,0.4-0.2c0.2-0.1,0.3-0.1,0.5-0.1l0.5-0.1c0.2,0,0.3,0,0.5,0h0.4v1H232c-0.7-0.1-1.4,0.1-2,0.6
			c-0.5,0.5-0.7,1.2-0.6,1.8V66h1.4L230.6,66.9z"/>
		<path class="st0" d="M239,67.1c-0.9,0-1.8-0.3-2.4-1c-0.7-0.7-1-1.6-1-2.6c0-1,0.3-1.9,1-2.6c1.3-1.4,3.4-1.4,4.8-0.1
			c0,0,0.1,0.1,0.1,0.1c0.7,0.7,1,1.6,1,2.6c0,1-0.3,1.9-1,2.6C240.8,66.7,239.9,67.1,239,67.1z M239,60.7c-0.7,0-1.3,0.3-1.8,0.8
			c-0.5,0.6-0.7,1.3-0.7,2c0,0.7,0.2,1.4,0.7,2c0.9,1,2.4,1,3.4,0.1c0,0,0.1-0.1,0.1-0.1c0.9-1.2,0.9-2.8,0-3.9
			C240.3,61,239.7,60.7,239,60.7z"/>
		<path class="st0" d="M253.7,69.8h-0.3v-0.9h0.1c0.2,0,0.4,0,0.6-0.1c0.2-0.1,0.3-0.1,0.4-0.3c0.2-0.3,0.4-0.7,0.3-1.1v-6.6h-1.2
			v-0.9h2.2v7.6c0,0.6-0.2,1.2-0.6,1.6c-0.2,0.2-0.5,0.3-0.7,0.4C254.3,69.7,254,69.8,253.7,69.8z M255.2,58.3
			c-0.2,0-0.4-0.1-0.5-0.2c-0.1-0.1-0.2-0.3-0.2-0.5c0-0.2,0.1-0.4,0.2-0.5c0.2-0.3,0.7-0.3,0.9-0.1c0,0,0,0,0.1,0.1
			c0.1,0.1,0.2,0.3,0.2,0.5c0,0.2-0.1,0.4-0.2,0.5C255.6,58.2,255.4,58.3,255.2,58.3z"/>
		<path class="st0" d="M262.4,67c-0.6,0-1.2-0.2-1.6-0.6c-0.4-0.4-0.6-0.9-0.6-1.5c0-0.6,0.3-1.2,0.7-1.6c0.5-0.4,1.2-0.7,1.9-0.6
			c0.6,0,1.3,0.2,1.9,0.5v-1.4c0-0.4-0.1-0.7-0.4-0.9c-0.4-0.2-0.8-0.3-1.2-0.3c-0.1,0-0.3,0-0.4,0.1l-0.5,0.1l-0.5,0.2h-0.1
			l-0.3-0.7l0.1,0l0.6-0.2c0.2-0.1,0.4-0.1,0.6-0.2c0.2,0,0.4-0.1,0.6-0.1c0.7,0,1.3,0.1,1.9,0.5c0.5,0.4,0.7,0.9,0.7,1.5V66h1.1
			v0.9h-2.1v-0.8c-0.3,0.2-0.6,0.4-1,0.6C263.3,66.9,262.8,67,262.4,67L262.4,67z M262.9,63.5c-0.5,0-0.9,0.1-1.3,0.4
			c-0.3,0.3-0.5,0.6-0.5,1c0,0.3,0.1,0.6,0.4,0.9c0.3,0.3,0.6,0.4,1,0.4c0.4,0,0.8-0.1,1.1-0.3c0.4-0.2,0.7-0.4,1-0.7V64
			c-0.2-0.2-0.5-0.3-0.8-0.4C263.6,63.5,263.3,63.5,262.9,63.5L262.9,63.5z"/>
		<path class="st0" d="M274.6,67c-0.9,0-1.8-0.4-2.4-1.2v1.1h-1v-9H270V57h2.2v4c0.3-0.4,0.6-0.7,1-0.9c0.4-0.2,1-0.4,1.5-0.4
			c0.9,0,1.8,0.3,2.5,1c0.7,0.7,1,1.6,1,2.5c0,1-0.3,1.9-1,2.6C276.5,66.6,275.5,67,274.6,67L274.6,67z M274.7,60.7
			c-0.7,0-1.3,0.3-1.8,0.8c-0.5,0.5-0.8,1.3-0.7,2c0,0.7,0.2,1.5,0.7,2c0.4,0.5,1.1,0.8,1.8,0.8c0.7,0,1.3-0.3,1.8-0.8
			c0.5-0.6,0.7-1.3,0.7-2c0-0.7-0.2-1.4-0.7-1.9C276,60.9,275.3,60.6,274.7,60.7L274.7,60.7z"/>
		<path class="st0" d="M285.5,67.1c-0.9,0-1.8-0.3-2.5-1c-0.7-0.7-1-1.6-1-2.6c0-1,0.3-1.9,1-2.6c1.3-1.4,3.4-1.4,4.8-0.1
			c0,0,0.1,0.1,0.1,0.1c0.7,0.7,1,1.6,1,2.6c0,1-0.3,1.9-1,2.6C287.4,66.7,286.5,67.1,285.5,67.1L285.5,67.1z M285.5,60.7
			c-0.7,0-1.3,0.3-1.8,0.8c-0.5,0.6-0.7,1.3-0.7,2c0,0.7,0.2,1.4,0.7,2c0.9,1,2.4,1,3.4,0.1c0,0,0.1-0.1,0.1-0.1
			c0.5-0.6,0.7-1.3,0.7-2c0-0.7-0.2-1.4-0.7-2C286.9,60.9,286.2,60.7,285.5,60.7L285.5,60.7z M285.1,59.3h-0.8l1.6-2.4h1.2
			L285.1,59.3z"/>
		<path class="st0" d="M300.5,66.9h-2v-5.2c0-0.3-0.1-0.6-0.3-0.8c-0.2-0.2-0.5-0.3-0.8-0.3c-0.4,0-0.8,0.1-1.2,0.3
			c-0.4,0.2-0.8,0.5-1.1,0.8V66h1.1v0.9h-2.1v-6h-1.2V60h2.2v0.8c0.3-0.2,0.6-0.5,1-0.6c0.4-0.2,0.9-0.3,1.4-0.3
			c0.5,0,1,0.2,1.4,0.5c0.4,0.4,0.6,0.9,0.5,1.4V66h1V66.9z"/>
	</g>
	<path class="st0" d="M262,51.5h-12.1v-2.8h4.4V19.3h-4.4v-2.8H262v2.8h-4.4v29.5h4.4V51.5z"/>
</g>
</svg>
