<svg id="Capa_1" data-name="Capa 1" xmlns="http://www.w3.org/2000/svg" viewBox="0 0 283.75 53.51"><defs><style>.cls-1{fill:#260859;}.cls-2{fill:#863399;}</style></defs><title>xapontic_nuestro_jabon_batsil_maya</title><path class="cls-1" d="M50.66,51.67H43.57l-1.38-2.31-.12-.11-8-12.65L26.43,48.87h4.34v2.8H18.06v-2.8H23l9.4-14.94L23,19.26H18.06v-2.8H25l1.61,2.41L34.1,30.81l7.37-11.55H37.38v-2.8H49.54v2.8H44.82L35.88,33.47l9.81,15.4h5Z" transform="translate(-18.06 -16.25)"/><path class="cls-1" d="M93.24,51.67h-12v-2.8h4.24L81.82,38.48H68.17L64.55,49.05v2.62H56.8v-2.8h4.47L72.46,16.46H82.71v2.8H78.47l10.4,29.61h4.37Zm-24.08-16H80.88L75.05,18.55Z" transform="translate(-18.06 -16.25)"/><path class="cls-1" d="M108.37,51.67h-8v-2.8H105V19.26h-4.6v-2.8h15.12c3.66,0,6.57.91,8.65,2.72a9.83,9.83,0,0,1,3.16,7.75,9.83,9.83,0,0,1-3.1,7.6h0a11.75,11.75,0,0,1-8.2,2.82h-7.67Zm0-17.12H115c2.9,0,5.13-.62,6.65-1.83a6.67,6.67,0,0,0,2.3-5.48c0-2.84-.71-4.89-2.11-6.1h0c-1.44-1.25-3.75-1.88-6.84-1.88h-6.65Z" transform="translate(-18.06 -16.25)"/><path class="cls-1" d="M150.7,51.82a16.76,16.76,0,0,1-12.45-5A17.68,17.68,0,0,1,133.32,34a17.39,17.39,0,0,1,4.93-12.71,16.69,16.69,0,0,1,12.45-5.08,16.89,16.89,0,0,1,12.46,5A17.69,17.69,0,0,1,168.09,34a17.39,17.39,0,0,1-4.93,12.7A16.73,16.73,0,0,1,150.7,51.82Zm0-32.61a13.39,13.39,0,0,0-10.09,4.18,15,15,0,0,0-4,10.65,14.86,14.86,0,0,0,4,10.6,13.36,13.36,0,0,0,10.09,4.23,13.21,13.21,0,0,0,10.09-4.18,14.89,14.89,0,0,0,4-10.65,15,15,0,0,0-3.94-10.6A13.35,13.35,0,0,0,150.7,19.21Z" transform="translate(-18.06 -16.25)"/><path class="cls-1" d="M203.92,51.8h-3.09l-.07-.11-20.36-31V48.87h4.91v2.8h-7.82V19.26h-4.65v-2.8h8.57l.07.11c1.66,2.64,3.34,5.28,5,7.85s3.34,5.1,5,7.58,3.42,5.13,5.06,7.65,3.07,4.77,4.55,7.12V16.46h7.4v2.8H204Z" transform="translate(-18.06 -16.25)"/><path class="cls-2" d="M231.57,51.67h-8.12v-2.8h4.75V19.26h-9.51V27.9h-2.86V16.46h28.11v7.35h-2.86V19.26h-9.51Z" transform="translate(-18.06 -16.25)"/><path class="cls-2" d="M285.57,51.82c-5.13,0-9.32-1.64-12.46-4.88s-4.78-7.61-4.78-12.9,1.61-9.53,4.78-12.8a16.6,16.6,0,0,1,12.41-5,17.56,17.56,0,0,1,6.71,1.47,14.53,14.53,0,0,1,5.46,4.18V19.81h2.81v8.36h-2.81l0-.2a9.6,9.6,0,0,0-4.35-6.4,14.26,14.26,0,0,0-7.88-2.36,12.92,12.92,0,0,0-9.89,4.12A15.18,15.18,0,0,0,271.64,34a15.08,15.08,0,0,0,3.94,10.65,13.15,13.15,0,0,0,10,4.18,13.57,13.57,0,0,0,8-2.36A16.69,16.69,0,0,0,299,38.56l.1-.28,2.75,1.61-.08.2c-1.58,4.14-3.78,7.16-6.56,9h0A17.3,17.3,0,0,1,285.57,51.82Z" transform="translate(-18.06 -16.25)"/><path class="cls-1" d="M184.81,66.87h-2V61.72a1,1,0,0,0-.26-.77,1,1,0,0,0-.75-.28,2.66,2.66,0,0,0-1.21.33,5.23,5.23,0,0,0-1.12.76V66h1.09v.89h-2.07v-6h-1.21v-.89h2.19v.76a5.06,5.06,0,0,1,1-.63,3.2,3.2,0,0,1,1.39-.31,1.92,1.92,0,0,1,1.36.5,1.86,1.86,0,0,1,.54,1.37V66h1.05Z" transform="translate(-18.06 -16.25)"/><path class="cls-1" d="M191.3,67a1.75,1.75,0,0,1-1.32-.48,1.69,1.69,0,0,1-.51-1.31V60.83h-1.16v-.89h2.15v5.11a1.06,1.06,0,0,0,.25.75,1,1,0,0,0,.72.25,2.61,2.61,0,0,0,1.24-.34,4.79,4.79,0,0,0,1.09-.78v-5h1v6h1.15v.89h-2.13v-.8l-.35.24q-.28.16-.63.33A3.38,3.38,0,0,1,191.3,67Z" transform="translate(-18.06 -16.25)"/><path class="cls-1" d="M202.89,67.06a3.41,3.41,0,0,1-2.55-1,3.57,3.57,0,0,1-1-2.61,3.64,3.64,0,0,1,1-2.61,3.36,3.36,0,0,1,2.53-1,3.23,3.23,0,0,1,2.44,1,4.26,4.26,0,0,1,1,2.79v.13h-6a2.81,2.81,0,0,0,.75,1.74,2.58,2.58,0,0,0,1.94.79,1.73,1.73,0,0,0,.47-.07L204,66l.61-.22.12-.05.25.78-.11,0c-.27.11-.51.19-.71.25s-.43.12-.65.17A2.47,2.47,0,0,1,202.89,67.06Zm-2.54-4.25h4.91a2.73,2.73,0,0,0-.77-1.54,2.37,2.37,0,0,0-1.7-.64,2.32,2.32,0,0,0-1.79.79A2.77,2.77,0,0,0,200.35,62.81Z" transform="translate(-18.06 -16.25)"/><path class="cls-1" d="M212.74,67.08a2.91,2.91,0,0,1-1.19-.24,2.08,2.08,0,0,1-.74-.57v.6h-.89V64.3h.89v.13a1.78,1.78,0,0,0,.55,1.34,2.32,2.32,0,0,0,2.65.14,1.1,1.1,0,0,0,.48-.89.89.89,0,0,0-.35-.79,3.72,3.72,0,0,0-1.47-.47,4.12,4.12,0,0,1-1.79-.63,1.59,1.59,0,0,1-.6-1.37,1.81,1.81,0,0,1,.65-1.46,2.38,2.38,0,0,1,1.58-.54,2.67,2.67,0,0,1,1.08.22,2.57,2.57,0,0,1,.64.47v-.31h.86V62.3h-.86v-.13a1.45,1.45,0,0,0-.5-1.11,1.7,1.7,0,0,0-1.21-.44,1.37,1.37,0,0,0-1,.33,1,1,0,0,0-.36.78.81.81,0,0,0,.32.71,4.49,4.49,0,0,0,1.37.41,4.23,4.23,0,0,1,2,.75,1.83,1.83,0,0,1,.5,1.35,1.85,1.85,0,0,1-.72,1.55h0A3.08,3.08,0,0,1,212.74,67.08Z" transform="translate(-18.06 -16.25)"/><path class="cls-1" d="M221.77,67h0a1.34,1.34,0,0,1-1-.35,1.45,1.45,0,0,1-.33-1V60.83h-1.18v-.89h1.18V58.45l1,0v1.51h1.4v.89h-1.4V65.5c0,.3.06.43.11.48a.47.47,0,0,0,.38.13l.91-.15v.89Z" transform="translate(-18.06 -16.25)"/><path class="cls-1" d="M230.64,66.87h-2.35v-6H227v-.89h2.25v.89c.06-.08.13-.17.22-.27a1.72,1.72,0,0,1,.48-.39,3.05,3.05,0,0,1,.44-.19,3.34,3.34,0,0,1,.52-.14l.53-.08a2.93,2.93,0,0,1,.51,0l.38,0v.95H232a3,3,0,0,0-2,.57,2.33,2.33,0,0,0-.65,1.83V66h1.37Z" transform="translate(-18.06 -16.25)"/><path class="cls-1" d="M239,67.06a3.21,3.21,0,0,1-2.45-1,3.69,3.69,0,0,1-1-2.6,3.63,3.63,0,0,1,1-2.59,3.4,3.4,0,0,1,4.93,0,3.66,3.66,0,0,1,1,2.59,3.72,3.72,0,0,1-1,2.6h0A3.3,3.3,0,0,1,239,67.06Zm0-6.39a2.21,2.21,0,0,0-1.75.77,2.88,2.88,0,0,0-.7,2,2.83,2.83,0,0,0,.69,2,2.39,2.39,0,0,0,3.51,0,3.16,3.16,0,0,0,0-3.94h0A2.27,2.27,0,0,0,239,60.67Z" transform="translate(-18.06 -16.25)"/><path class="cls-1" d="M253.69,69.76h-.29v-.89h.14a1.28,1.28,0,0,0,.61-.07.92.92,0,0,0,.41-.27,1.69,1.69,0,0,0,.32-1.14V60.83h-1.22v-.89h2.2v7.63a2.1,2.1,0,0,1-.6,1.62,2,2,0,0,1-.74.44A2.37,2.37,0,0,1,253.69,69.76Zm1.48-11.49a.65.65,0,0,1-.48-.2.69.69,0,0,1-.2-.48.7.7,0,0,1,.2-.5.67.67,0,0,1,1,0,.69.69,0,0,1,.2.48.72.72,0,0,1-.2.5h0A.66.66,0,0,1,255.17,58.27Z" transform="translate(-18.06 -16.25)"/><path class="cls-1" d="M262.4,67a2.14,2.14,0,0,1-1.57-.62,2.08,2.08,0,0,1-.63-1.48,2,2,0,0,1,.72-1.57,2.84,2.84,0,0,1,1.9-.62,4.27,4.27,0,0,1,1.86.47V61.78a1,1,0,0,0-.42-.94,2.16,2.16,0,0,0-1.23-.31,1.85,1.85,0,0,0-.44.06l-.48.11-.53.17-.11,0-.28-.66.12-.05.58-.21a4.45,4.45,0,0,1,.58-.15,2.44,2.44,0,0,1,.59-.07,3.26,3.26,0,0,1,1.92.49,1.79,1.79,0,0,1,.68,1.53V66h1.11v.89h-2.09v-.8a4.34,4.34,0,0,1-1,.6A3.24,3.24,0,0,1,262.4,67Zm.55-3.49a1.85,1.85,0,0,0-1.3.42,1.33,1.33,0,0,0-.45,1,1.16,1.16,0,0,0,.36.86,1.35,1.35,0,0,0,1,.37,2.49,2.49,0,0,0,1.14-.3,3.27,3.27,0,0,0,1-.72V64a4.09,4.09,0,0,0-.79-.38A3.09,3.09,0,0,0,263,63.48Z" transform="translate(-18.06 -16.25)"/><path class="cls-1" d="M274.58,67a3,3,0,0,1-2.4-1.19v1.09h-1v-9H270V57h2.19v4a3,3,0,0,1,1-.9,3.13,3.13,0,0,1,1.46-.37,3.33,3.33,0,0,1,2.48,1,3.44,3.44,0,0,1,1,2.53,3.69,3.69,0,0,1-1,2.65h0A3.39,3.39,0,0,1,274.58,67Zm.08-6.35a2.32,2.32,0,0,0-1.75.76,2.69,2.69,0,0,0-.74,2,2.84,2.84,0,0,0,.71,2,2.31,2.31,0,0,0,1.75.75,2.25,2.25,0,0,0,1.78-.78,2.91,2.91,0,0,0,.7-2,2.79,2.79,0,0,0-.68-1.93A2.32,2.32,0,0,0,274.66,60.62Z" transform="translate(-18.06 -16.25)"/><path class="cls-1" d="M285.54,67.06a3.21,3.21,0,0,1-2.45-1,3.68,3.68,0,0,1-1-2.6,3.62,3.62,0,0,1,1-2.59,3.4,3.4,0,0,1,4.93,0,3.66,3.66,0,0,1,1,2.59,3.72,3.72,0,0,1-1,2.6h0A3.3,3.3,0,0,1,285.54,67.06Zm0-6.39a2.24,2.24,0,0,0-1.75.77,2.86,2.86,0,0,0-.7,2,2.81,2.81,0,0,0,.69,2,2.39,2.39,0,0,0,3.51,0,2.84,2.84,0,0,0,.7-2,2.87,2.87,0,0,0-.68-2h0A2.27,2.27,0,0,0,285.54,60.67Zm-.44-1.37h-.83l1.57-2.43H287Z" transform="translate(-18.06 -16.25)"/><path class="cls-1" d="M300.49,66.87h-2V61.72a1.05,1.05,0,0,0-.26-.77,1,1,0,0,0-.76-.28,2.69,2.69,0,0,0-1.21.33,4.92,4.92,0,0,0-1.11.76V66h1.08v.89h-2.07v-6h-1.21v-.89h2.2v.76a5,5,0,0,1,1-.63,3.24,3.24,0,0,1,1.39-.31,1.92,1.92,0,0,1,1.36.5,1.86,1.86,0,0,1,.54,1.37V66h1.05Z" transform="translate(-18.06 -16.25)"/><path class="cls-2" d="M262,51.52H249.91v-2.8h4.35V19.26h-4.35v-2.8H262v2.8h-4.4V48.72H262Z" transform="translate(-18.06 -16.25)"/></svg>