<svg viewBox="0 0 283.75 53.51" xmlns="http://www.w3.org/2000/svg">
    <g transform="translate(-18.06 -16.25)">
        <path d="m50.66 51.67h-7.09l-1.38-2.31-.12-.11-8-12.65-7.64 12.27h4.34v2.8h-12.71v-2.8h4.94l9.4-14.94-9.4-14.67h-4.94v-2.8h6.94l1.61 2.41 7.49 11.94 7.37-11.55h-4.09v-2.8h12.16v2.8h-4.72l-8.94 14.21 9.81 15.4h5z"
              fill="#260859"/>
        <path d="m93.24 51.67h-12v-2.8h4.24l-3.66-10.39h-13.65l-3.62 10.57v2.62h-7.75v-2.8h4.47l11.19-32.41h10.25v2.8h-4.24l10.4 29.61h4.37zm-24.08-16h11.72l-5.83-17.12z"
              fill="#260859"/>
        <path d="m108.37 51.67h-8v-2.8h4.63v-29.61h-4.6v-2.8h15.12c3.66 0 6.57.91 8.65 2.72a9.83 9.83 0 0 1 3.16 7.75 9.83 9.83 0 0 1 -3.1 7.6 11.75 11.75 0 0 1 -8.2 2.82h-7.67zm0-17.12h6.63c2.9 0 5.13-.62 6.65-1.83a6.67 6.67 0 0 0 2.3-5.48c0-2.84-.71-4.89-2.11-6.1-1.44-1.25-3.75-1.88-6.84-1.88h-6.65z"
              fill="#260859"/>
        <path d="m150.7 51.82a16.76 16.76 0 0 1 -12.45-5 17.68 17.68 0 0 1 -4.93-12.82 17.39 17.39 0 0 1 4.93-12.71 16.69 16.69 0 0 1 12.45-5.08 16.89 16.89 0 0 1 12.46 5 17.69 17.69 0 0 1 4.93 12.79 17.39 17.39 0 0 1 -4.93 12.7 16.73 16.73 0 0 1 -12.46 5.12zm0-32.61a13.39 13.39 0 0 0 -10.09 4.18 15 15 0 0 0 -4 10.65 14.86 14.86 0 0 0 4 10.6 13.36 13.36 0 0 0 10.09 4.23 13.21 13.21 0 0 0 10.09-4.18 14.89 14.89 0 0 0 4-10.65 15 15 0 0 0 -3.94-10.6 13.35 13.35 0 0 0 -10.15-4.23z"
              fill="#260859"/>
        <path d="m203.92 51.8h-3.09l-.07-.11-20.36-31v28.18h4.91v2.8h-7.82v-32.41h-4.65v-2.8h8.57l.07.11c1.66 2.64 3.34 5.28 5 7.85s3.34 5.1 5 7.58 3.42 5.13 5.06 7.65 3.07 4.77 4.55 7.12v-30.31h7.4v2.8h-4.49z"
              fill="#260859"/>
        <path d="m231.57 51.67h-8.12v-2.8h4.75v-29.61h-9.51v8.64h-2.86v-11.44h28.11v7.35h-2.86v-4.55h-9.51z"
              fill="#863399"/>
        <path d="m285.57 51.82c-5.13 0-9.32-1.64-12.46-4.88s-4.78-7.61-4.78-12.9 1.61-9.53 4.78-12.8a16.6 16.6 0 0 1 12.41-5 17.56 17.56 0 0 1 6.71 1.47 14.53 14.53 0 0 1 5.46 4.18v-2.08h2.81v8.36h-2.81v-.2a9.6 9.6 0 0 0 -4.35-6.4 14.26 14.26 0 0 0 -7.88-2.36 12.92 12.92 0 0 0 -9.89 4.12 15.18 15.18 0 0 0 -3.93 10.67 15.08 15.08 0 0 0 3.94 10.65 13.15 13.15 0 0 0 10 4.18 13.57 13.57 0 0 0 8-2.36 16.69 16.69 0 0 0 5.42-7.91l.1-.28 2.75 1.61-.08.2c-1.58 4.14-3.78 7.16-6.56 9a17.3 17.3 0 0 1 -9.64 2.73z"
              fill="#863399"/>
        <g fill="#260859">
            <path d="m184.81 66.87h-2v-5.15a1 1 0 0 0 -.26-.77 1 1 0 0 0 -.75-.28 2.66 2.66 0 0 0 -1.21.33 5.23 5.23 0 0 0 -1.12.76v4.24h1.09v.89h-2.07v-6h-1.21v-.89h2.19v.76a5.06 5.06 0 0 1 1-.63 3.2 3.2 0 0 1 1.39-.31 1.92 1.92 0 0 1 1.36.5 1.86 1.86 0 0 1 .54 1.37v4.31h1.05z"/>
            <path d="m191.3 67a1.75 1.75 0 0 1 -1.32-.48 1.69 1.69 0 0 1 -.51-1.31v-4.38h-1.16v-.89h2.15v5.11a1.06 1.06 0 0 0 .25.75 1 1 0 0 0 .72.25 2.61 2.61 0 0 0 1.24-.34 4.79 4.79 0 0 0 1.09-.78v-5h1v6h1.15v.89h-2.13v-.8l-.35.24q-.28.16-.63.33a3.38 3.38 0 0 1 -1.5.41z"/>
            <path d="m202.89 67.06a3.41 3.41 0 0 1 -2.55-1 3.57 3.57 0 0 1 -1-2.61 3.64 3.64 0 0 1 1-2.61 3.36 3.36 0 0 1 2.53-1 3.23 3.23 0 0 1 2.44 1 4.26 4.26 0 0 1 1 2.79v.13h-6a2.81 2.81 0 0 0 .75 1.74 2.58 2.58 0 0 0 1.94.79 1.73 1.73 0 0 0 .47-.07l.53-.22.61-.22.12-.05.25.78h-.11c-.27.11-.51.19-.71.25s-.43.12-.65.17a2.47 2.47 0 0 1 -.62.13zm-2.54-4.25h4.91a2.73 2.73 0 0 0 -.77-1.54 2.37 2.37 0 0 0 -1.7-.64 2.32 2.32 0 0 0 -1.79.79 2.77 2.77 0 0 0 -.65 1.39z"/>
            <path d="m212.74 67.08a2.91 2.91 0 0 1 -1.19-.24 2.08 2.08 0 0 1 -.74-.57v.6h-.89v-2.57h.89v.13a1.78 1.78 0 0 0 .55 1.34 2.32 2.32 0 0 0 2.65.14 1.1 1.1 0 0 0 .48-.89.89.89 0 0 0 -.35-.79 3.72 3.72 0 0 0 -1.47-.47 4.12 4.12 0 0 1 -1.79-.63 1.59 1.59 0 0 1 -.6-1.37 1.81 1.81 0 0 1 .65-1.46 2.38 2.38 0 0 1 1.58-.54 2.67 2.67 0 0 1 1.08.22 2.57 2.57 0 0 1 .64.47v-.31h.86v2.16h-.86v-.13a1.45 1.45 0 0 0 -.5-1.11 1.7 1.7 0 0 0 -1.21-.44 1.37 1.37 0 0 0 -1 .33 1 1 0 0 0 -.36.78.81.81 0 0 0 .32.71 4.49 4.49 0 0 0 1.37.41 4.23 4.23 0 0 1 2 .75 1.83 1.83 0 0 1 .5 1.35 1.85 1.85 0 0 1 -.72 1.55 3.08 3.08 0 0 1 -1.89.58z"/>
            <path d="m221.77 67a1.34 1.34 0 0 1 -1-.35 1.45 1.45 0 0 1 -.33-1v-4.82h-1.18v-.89h1.18v-1.49h1v1.51h1.4v.89h-1.4v4.65c0 .3.06.43.11.48a.47.47 0 0 0 .38.13l.91-.15v.89z"/>
            <path d="m230.64 66.87h-2.35v-6h-1.29v-.89h2.25v.89c.06-.08.13-.17.22-.27a1.72 1.72 0 0 1 .48-.39 3.05 3.05 0 0 1 .44-.19 3.34 3.34 0 0 1 .52-.14l.53-.08a2.93 2.93 0 0 1 .51 0h.38v.95h-.33a3 3 0 0 0 -2 .57 2.33 2.33 0 0 0 -.65 1.83v2.85h1.37z"/>
            <path d="m239 67.06a3.21 3.21 0 0 1 -2.45-1 3.69 3.69 0 0 1 -1-2.6 3.63 3.63 0 0 1 1-2.59 3.4 3.4 0 0 1 4.93 0 3.66 3.66 0 0 1 1 2.59 3.72 3.72 0 0 1 -1 2.6 3.3 3.3 0 0 1 -2.48 1zm0-6.39a2.21 2.21 0 0 0 -1.75.77 2.88 2.88 0 0 0 -.7 2 2.83 2.83 0 0 0 .69 2 2.39 2.39 0 0 0 3.51 0 3.16 3.16 0 0 0 0-3.94 2.27 2.27 0 0 0 -1.75-.83z"/>
            <path d="m253.69 69.76h-.29v-.89h.14a1.28 1.28 0 0 0 .61-.07.92.92 0 0 0 .41-.27 1.69 1.69 0 0 0 .32-1.14v-6.56h-1.22v-.89h2.2v7.63a2.1 2.1 0 0 1 -.6 1.62 2 2 0 0 1 -.74.44 2.37 2.37 0 0 1 -.83.13zm1.48-11.49a.65.65 0 0 1 -.48-.2.69.69 0 0 1 -.2-.48.7.7 0 0 1 .2-.5.67.67 0 0 1 1 0 .69.69 0 0 1 .2.48.72.72 0 0 1 -.2.5.66.66 0 0 1 -.52.2z"/>
            <path d="m262.4 67a2.14 2.14 0 0 1 -1.57-.62 2.08 2.08 0 0 1 -.63-1.48 2 2 0 0 1 .72-1.57 2.84 2.84 0 0 1 1.9-.62 4.27 4.27 0 0 1 1.86.47v-1.4a1 1 0 0 0 -.42-.94 2.16 2.16 0 0 0 -1.23-.31 1.85 1.85 0 0 0 -.44.06l-.48.11-.53.17h-.11l-.28-.66.12-.05.58-.21a4.45 4.45 0 0 1 .58-.15 2.44 2.44 0 0 1 .59-.07 3.26 3.26 0 0 1 1.92.49 1.79 1.79 0 0 1 .68 1.53v4.25h1.11v.89h-2.09v-.8a4.34 4.34 0 0 1 -1 .6 3.24 3.24 0 0 1 -1.28.31zm.55-3.49a1.85 1.85 0 0 0 -1.3.42 1.33 1.33 0 0 0 -.45 1 1.16 1.16 0 0 0 .36.86 1.35 1.35 0 0 0 1 .37 2.49 2.49 0 0 0 1.14-.3 3.27 3.27 0 0 0 1-.72v-1.14a4.09 4.09 0 0 0 -.79-.38 3.09 3.09 0 0 0 -.91-.14z"/>
            <path d="m274.58 67a3 3 0 0 1 -2.4-1.19v1.09h-1v-9h-1.18v-.9h2.19v4a3 3 0 0 1 1-.9 3.13 3.13 0 0 1 1.46-.37 3.33 3.33 0 0 1 2.48 1 3.44 3.44 0 0 1 1 2.53 3.69 3.69 0 0 1 -1 2.65 3.39 3.39 0 0 1 -2.55 1.09zm.08-6.35a2.32 2.32 0 0 0 -1.75.76 2.69 2.69 0 0 0 -.74 2 2.84 2.84 0 0 0 .71 2 2.31 2.31 0 0 0 1.75.75 2.25 2.25 0 0 0 1.78-.78 2.91 2.91 0 0 0 .7-2 2.79 2.79 0 0 0 -.68-1.93 2.32 2.32 0 0 0 -1.77-.83z"/>
            <path d="m285.54 67.06a3.21 3.21 0 0 1 -2.45-1 3.68 3.68 0 0 1 -1-2.6 3.62 3.62 0 0 1 1-2.59 3.4 3.4 0 0 1 4.93 0 3.66 3.66 0 0 1 1 2.59 3.72 3.72 0 0 1 -1 2.6 3.3 3.3 0 0 1 -2.48 1zm0-6.39a2.24 2.24 0 0 0 -1.75.77 2.86 2.86 0 0 0 -.7 2 2.81 2.81 0 0 0 .69 2 2.39 2.39 0 0 0 3.51 0 2.84 2.84 0 0 0 .7-2 2.87 2.87 0 0 0 -.68-2 2.27 2.27 0 0 0 -1.77-.77zm-.44-1.37h-.83l1.57-2.43h1.16z"/>
            <path d="m300.49 66.87h-2v-5.15a1.05 1.05 0 0 0 -.26-.77 1 1 0 0 0 -.76-.28 2.69 2.69 0 0 0 -1.21.33 4.92 4.92 0 0 0 -1.11.76v4.24h1.08v.89h-2.07v-6h-1.21v-.89h2.2v.76a5 5 0 0 1 1-.63 3.24 3.24 0 0 1 1.39-.31 1.92 1.92 0 0 1 1.36.5 1.86 1.86 0 0 1 .54 1.37v4.31h1.05z"/>
        </g>
        <path d="m262 51.52h-12.09v-2.8h4.35v-29.46h-4.35v-2.8h12.09v2.8h-4.4v29.46h4.4z" fill="#863399"/>
    </g>
</svg>