<svg clip-rule="evenodd" fill-rule="evenodd" stroke-linejoin="round" stroke-miterlimit="1.41421" viewBox="0 0 64 64"
     xmlns="http://www.w3.org/2000/svg">
    <g fill-rule="nonzero">
        <path d="m63.858 34.588v-34.56h-63.858v63.858h63.858v-18.631c-.142 0 0-10.667 0-10.667" fill="#006fcf"/>
        <path d="m56.036 31.033h4.835v-11.236h-5.262v1.565l-.996-1.565h-4.551v1.991l-.853-1.991h-8.391c-.285 0-.569.143-.854.143-.284 0-.426.142-.711.284-.284.142-.426.142-.711.284v-.711h-24.035l-.711 1.849-.712-1.849h-5.688v1.991l-.854-1.991h-4.551l-1.991 4.836v6.4h3.271l.569-1.565h1.138l.569 1.565h25.031v-1.422l.995 1.422h6.969v-.853c.142.142.427.142.569.284s.427.142.569.284c.284.143.569.143.853.143h5.12l.569-1.565h1.138l.569 1.565h6.969v-1.423zm7.822 14.222v-10.524h-39.111l-.996 1.422-.995-1.422h-11.378v11.235h11.378l.995-1.422.996 1.422h7.111v-2.418h-.285c.996 0 1.849-.142 2.56-.426v2.986h5.12v-1.422l.996 1.422h21.191c.853-.284 1.707-.426 2.418-.853z"
              fill="#fff"/>
        <path d="m61.44 42.553h-3.84v1.564h3.698c1.564 0 2.56-.995 2.56-2.417 0-1.423-.854-2.134-2.276-2.134h-1.706c-.427 0-.712-.284-.712-.711s.285-.711.712-.711h3.271l.711-1.564h-3.84c-1.565 0-2.56.995-2.56 2.275 0 1.422.853 2.133 2.275 2.133h1.707c.427 0 .711.285.711.712.142.568-.142.853-.711.853zm-6.969 0h-3.84v1.564h3.698c1.564 0 2.56-.995 2.56-2.417 0-1.423-.853-2.134-2.276-2.134h-1.706c-.427 0-.711-.284-.711-.711s.284-.711.711-.711h3.271l.711-1.564h-3.84c-1.565 0-2.56.995-2.56 2.275 0 1.422.853 2.133 2.275 2.133h1.707c.427 0 .711.285.711.712.142.568-.284.853-.711.853zm-4.978-4.551v-1.565h-5.973v7.538h5.973v-1.564h-4.266v-1.565h4.124v-1.564h-4.124v-1.422h4.266zm-9.671 0c.711 0 .996.426.996.853s-.285.853-.996.853h-2.133v-1.848zm-2.133 3.271h.853l2.276 2.702h2.133l-2.56-2.844c1.28-.285 1.991-1.138 1.991-2.276 0-1.422-.995-2.418-2.56-2.418h-3.982v7.538h1.707zm-4.551-2.276c0 .569-.285.996-.996.996h-2.275v-1.991h2.133c.711 0 1.138.426 1.138.995zm-4.978-2.56v7.538h1.707v-2.56h2.275c1.565 0 2.702-.995 2.702-2.56 0-1.422-.995-2.56-2.56-2.56zm-2.56 7.538h2.133l-2.986-3.84 2.986-3.698h-2.133l-1.849 2.418-1.849-2.418h-2.133l2.987 3.698-2.987 3.698h2.133l1.849-2.418zm-6.4-5.973v-1.565h-5.973v7.538h5.973v-1.564h-4.267v-1.565h4.125v-1.564h-4.125v-1.422h4.267zm34.56-13.369 2.987 4.551h2.133v-7.538h-1.707v4.978l-.426-.711-2.703-4.267h-2.275v7.538h1.707v-5.12zm-7.396-.142.569-1.565.569 1.565.711 1.706h-2.56zm2.987 4.693h1.849l-3.271-7.538h-2.276l-3.271 7.538h1.849l.711-1.564h3.698zm-7.964 0 .711-1.564h-.427c-1.28 0-1.991-.854-1.991-2.134v-.142c0-1.28.711-2.133 1.991-2.133h1.849v-1.565h-1.991c-2.276 0-3.556 1.565-3.556 3.698v.142c0 2.276 1.28 3.698 3.414 3.698zm-6.4 0h1.706v-7.396h-1.706zm-3.698-5.973c.711 0 .995.426.995.853s-.284.853-.995.853h-2.133v-1.849zm-2.133 3.271h.853l2.275 2.702h2.134l-2.56-2.844c1.28-.285 1.991-1.138 1.991-2.276 0-1.422-.996-2.418-2.56-2.418h-3.982v7.538h1.706zm-3.129-3.271v-1.565h-5.974v7.538h5.974v-1.564h-4.267v-1.565h4.124v-1.564h-4.124v-1.423h4.267zm-12.943 5.973h1.565l2.133-6.116v6.116h1.707v-7.538h-2.845l-1.706 5.12-1.707-5.12h-2.844v7.538h1.706v-6.116zm-9.244-4.693.569-1.565.569 1.565.711 1.706h-2.56zm2.987 4.693h1.849l-3.272-7.538h-2.133l-3.271 7.538h1.849l.711-1.564h3.698z"
              fill="#006fcf"/>
    </g>
</svg>