<svg xmlns="http://www.w3.org/2000/svg" width="151.8" height="105.9">
    <path d="M150.9 52.5v.2l-5.5 18.7V71.7l-.2.1-.2.2-14 13.2h-.1v.1h-.1l-16.3 10.3h-.1l-.1.1-18.3 6.8h-.1l-.1.1h-.2L76.1 105h-.4l-19.4-3.5h-.1l-18.7-5.3h-.1V96h-.1l-.1-.1-16.8-9.7h-.1v-.1h-.1L20 86 6.5 72l-.2-.1v-.1l-.1-.2v-.2L1 52.7v-.2l-.1-.2V52L6 33v-.3l.2-.1.2-.2L20 18.5l.1-.1h.1L36.7 7.6l.1-.1h.1l.1-.1h.2l19.1-4a.1.1 0 0 0 .1 0L75.7.8H76l19.5 1.5H95.9l18.6 6h.1v.1h.1l17 9.6h.1l.1.2h.1l13.5 14.2.1.1.1.2.1.3 5.1 18.8v.3l.1.1v.2zm.7-.8l-5-18.8-.2-.6-.4-.4-13.5-14.1-.2-.3-.3-.1-17-9.6h-.1l-.3-.1-18.5-6-.3-.1h-.2L76 0h-.5L56.3 2.6h-.1L37 6.6l-.4.1-.4.3L20 17.6l-.2.2-.2.2L5.8 31.8l-.5.4-.1.6-5 19-.2.5.2.6 5.1 18.9.2.5.4.4 13.6 14 .2.2.3.1 16.8 9.7.2.2h.3l18.7 5.3h.2l19.3 3.6.3.1h.4l19.5-2.4h.3l.2-.2 18.4-6.8h.2l.1-.2L131.2 86l.2-.1.2-.2 14-13.2.5-.4.1-.6 5.4-18.7.2-.6-.2-.6z"
          fill="#604500"/>
    <path d="M149.5 52.3L144 71l-14 13.2-16.3 10.2-18.3 6.8-19.6 2.5-19.3-3.6-18.7-5.3L21 85 7.5 71 2.3 52.4l5-19 13.8-13.8L37.5 8.8l19.1-4L76 2.3l19.5 1.5 18.5 6 17 9.5 13.5 14.1 5 19z"
          fill="#604500"/>
    <path d="M78.7 12a60.8 60.8 0 0 0-7.1 0l.3 8.6c.8 3.7 1.1 5.6 1.7 9.3l-4 .5v.5a39.7 39.7 0 0 1 4.4-.5L72.4 21l-.3-8.6a63.7 63.7 0 0 1 7 0l.7-4.1h-.5l-.6 3.6m18 12.2l-1 4.2L92 31a43.4 43.4 0 0 0-5.7-.2 41.7 41.7 0 0 0-4.7-1.8l-.2.4a46 46 0 0 1 5 2 45.6 45.6 0 0 1 5.7.2 40.9 40.9 0 0 1 3.8-2.7l1.1-4.4a2.7 2.7 0 0 0-.2-.3M53 32l.4.4a47 47 0 0 1 6.7-3.3q0-.3-.2-.5a47.6 47.6 0 0 0-6.9 3.4m-1.3-19.2a102.5 102.5 0 0 1 13.6 18.3l-3.3 1 .3.5c1.4-.5 2-.7 3.5-1a102.1 102.1 0 0 0-14-19 .7.7 0 0 1-.1.2m1.6 23.3L50 37.7l.1.5 3.7-1.6-1.1-4.6-.7-.7 1.3 5m69 11a1.7 1.7 0 0 1-.1-.3l-2.8 2.3a45.9 45.9 0 0 0-9.7-8.6 5.2 5.2 0 0 0-.4.4 45 45 0 0 1 9.8 8.8l3.2-2.7m-11.5-31.7l-.3 1.9-2.6 2-4 .7v.6l4-.6 2.8-2a84 84 0 0 0 0-2.6m9.5 5.8l-.4-.2-5.9 7-5.7 9.7a41.8 41.8 0 0 0-4.7-1.8l-.4.5a48.7 48.7 0 0 1 5 1.9c2.5-3.9 3.6-5.8 5.9-9.7l6.2-7.4m-5.1 17.9h2.2l12.1-12-.4-.2-11.5 11.6h-3.1l.7.6M68.2 12.8a65.3 65.3 0 0 0-9.3 1.6v.5a62.5 62.5 0 0 1 8.3-1.5l1-.6M42.2 31l3.4 3.3a45 45 0 0 0 .6 5 45.7 45.7 0 0 0-3.6 2.9 45.7 45.7 0 0 0-5.5 6.3l.5.3a45.8 45.8 0 0 1 5.6-6.4 48 48 0 0 1 3.6-2.9 45 45 0 0 1-.5-5L42.6 31h-.4m46-15.3v-2l2.7-.5a53.3 53.3 0 0 1 5.3 2.1l1.7 2.2a104 104 0 0 1 2.3-3.7l-.4-.3-2.1 3.4-1.7-2.2c-2.1-.9-3.2-1.3-5.4-2l-2.8.4v2.3a3 3 0 0 1 .3.3M50.5 20l1.2-.9-.3-.5-1.5 1.1a87.5 87.5 0 0 0 1.7 8.7l.5-.2a90 90 0 0 1-1.6-8.1m40 2.2a39 39 0 0 1 1.9 3.4 38.5 38.5 0 0 0-2-4A51.6 51.6 0 0 0 84 19l.2.5a51.8 51.8 0 0 1 6.3 2.7m-51.7 7.5l-2-3.9-.7-.1 2 3.8-1.7 2.5 1.4-.9a17.1 17.1 0 0 1 1-1.4M57 25.7l-.7-.3.2.2.3.2.2-.1M29.6 36.5l-4.1-3 4-3.7h2.2l-.2-.2h-2.6a66 66 0 0 0-4.2 3.8l4.6 3.4.3-.3m7.4 6.6a3.2 3.2 0 0 1 .3-.3l-4-4a57 57 0 0 1 4.3-4l2.2.4V35l-2.9-.5a56.3 56.3 0 0 0-4.3 4.2L37 43"
          fill="#f6a800"/>
    <path d="M119.8 48.7L123 46a50.5 50.5 0 0 0-8.4-8.1h3.1l11.9-12-3-1.8-1.7-1.8a707 707 0 0 1-8.2 10.1 503 503 0 0 0-7 7.4 47 47 0 0 1 10 8.9m.5-28.8a67.5 67.5 0 0 0-5.7-3.4l-5 10.1c-2.6 3.4-3.8 5.2-6.2 8.7a44.5 44.5 0 0 1 5 1.8c2.4-3.8 3.6-5.8 5.7-9.7l6.2-7.5M109 12.5l-3.6.4-1.1 2.5.8 1.8 1.8.1-3.2 1v1.1l4-.6 2.8-2.1.2-2.4-1.7-1.8m-15.3 6.8a51.2 51.2 0 0 0-6.1-4.5v-2.3l2.7-.5c2.3.7 3.4 1.2 5.5 2l1.7 2.2c1-1.4 1.4-2.2 2.3-3.7A71 71 0 0 0 94 8.7a71.4 71.4 0 0 0-8.2-.1 61.6 61.6 0 0 0-4 5 73 73 0 0 1 2 4.9 55.2 55.2 0 0 1 6.4 2.5 43 43 0 0 1 2.1 4 52 52 0 0 0-2.3 2.2 52 52 0 0 0-3.8-1l-3.7-1.6a61 61 0 0 0-1.5 3.7 43.4 43.4 0 0 1 5.2 1.8 49 49 0 0 1 5.7.2l3.8-2.6 1-4.5a45 45 0 0 0-3-3.9m-36.6-9l.7 3.8a66.7 66.7 0 0 1 10-1.9l-2.2 1.5 2.3 7.1c.3 3.7.5 5.5 1 9.1l4.4-.6-1.7-9.2-.5-8.6a67 67 0 0 1 7.3-.1l.6-4.1a69.1 69.1 0 0 0-10.4 1 68 68 0 0 0-11.5 2m-6 17.8c-.9-3.5-1.3-5.2-1.8-8.7l1.4-1.2c2 2.6 2.9 4 4.7 6.6l1.1.5a50.5 50.5 0 0 0-5.4 2.8m-5-13.7L44 15a88.1 88.1 0 0 0 2.9 12.7 61.7 61.7 0 0 0 2 10 48 48 0 0 1 3.8-1.8l-1.3-5 .9.9a48.1 48.1 0 0 1 7-3.5c.9 1.4 1.3 2.1 2 3.6l3.6-1.2A102.4 102.4 0 0 0 50.6 12l-4.5 2.4m-5.7 25a53.7 53.7 0 0 0-4 3.6l-4.6-4.3a57.1 57.1 0 0 1 4.4-4.2l2.9.4 1.5 1.4a34 34 0 0 0-.2 3M28 29.6l2.6-.1 1.5 1 .1 3a56.4 56.4 0 0 0-3.8 3.2 398 398 0 0 0-4.6-3.3 63 63 0 0 1 4.2-3.8m9.8 1l-2 1.3 1.6-2.5c-.9-1.5-1.3-2.3-2-3.9l-4.2-.7-5.7 1.4a66.2 66.2 0 0 0-4.1 4.3 68.9 68.9 0 0 0-4.4 5c4 2.2 6 3.4 10 5.8l9 7.4A46 46 0 0 1 42 42a45.2 45.2 0 0 1 3.7-3 47 47 0 0 1-.6-5l-3.7-3.5-3.4.1m8.9 37l-.8.6a91.6 91.6 0 0 0 1.4 13.2 103.2 103.2 0 0 0 8.1-11 53.4 53.4 0 0 0 6 1.6 274 274 0 0 1-3.7 11.4l-1 10.1c-2.3-.4-3.4-.7-5.8-1.3l2.7-9.6 2-4.8A106.4 106.4 0 0 1 44 90.6 124 124 0 0 1 42.5 72l-5.6 15-5-2.5L36 76l4.8-11.6a56.7 56.7 0 0 0 6 3m21.8 20.6a67 67 0 0 0 7-.2l-1-.8-1.3-8-1.6.5-3.1 8.5m2.9-14.4a64 64 0 0 0 3.9-.4 143.1 143.1 0 0 0 8.4 22 77 77 0 0 1-5.5.5l-.8-4.1a72 72 0 0 1-10.2.2l-.3-1.1-2.4 4.7-5.8-1.3a92.7 92.7 0 0 0 6.2-8.7 130.4 130.4 0 0 0 4.9-12.3l1.6.5m12.7-.3a76 76 0 0 0 5.5 7.7l-.2 2.2a78 78 0 0 0 4.2-12l4-1a81.8 81.8 0 0 1-4 14.5l2.3 8.6a62.7 62.7 0 0 1-6.6 1.2L88.3 87l1.4.4a75.8 75.8 0 0 1-10-13l4.5-1M108 82a65 65 0 0 0 6.3-3.7c-.5 0-.8 0-1.2-.2-2-2.5-2.8-3.8-4.6-6.4l-1.3 1.1c.4 3.7.6 5.5.8 9.2m-3.4-14.3l3.3-2.3a128.3 128.3 0 0 0 16.9 15.5l-4.7 3.2-2.5-3.3a73.4 73.4 0 0 1-9.1 5.2l-.7-1-.3 5.5c-2.2.7-3.4 1-5.7 1.5a100.5 100.5 0 0 0 2-10.7c-.2-5.3-.3-8-.9-13.3l1.7-.3"
          fill="#e4e1df"/>
    <path d="M68.4 92.5l.1.6a78 78 0 0 0 9.8-.4v-.5a73.5 73.5 0 0 1-10 .3m7.8-18.2a145 145 0 0 0 8.5 21.4l-5 .5.1.5a71 71 0 0 0 5.5-.6 146.5 146.5 0 0 1-8.8-21.8H76m-14.3-1.2l-3.4 11-.9 10-5.3-1-.1.4 5.9 1.3.8-10.2c1.5-4.5 2.2-6.8 3.5-11.4h-.5M65.3 96l-5-1c-.2 0-.2.2-.3.3 2.3.6 3.4.8 5.8 1.2a80 80 0 0 0 2.1-4.2l-.2-1-2.4 4.7m44-30.3q-.2 0-.3.2a129.7 129.7 0 0 0 16.7 15 84.5 84.5 0 0 1-4.3 2.9 3.2 3.2 0 0 1 .3.4c2-1.3 2.9-1.9 4.7-3.3a132 132 0 0 1-17.2-15.2m.5 20.2a4 4 0 0 0 .3.4 73 73 0 0 0 8.8-5l-.3-.5a68.2 68.2 0 0 1-8.8 5.1M99.1 71c-.3 0-.4 0-.7.2a83 83 0 0 1-4 14l2.4 8.6c-2.4.6-3.6.9-6 1.3a3.4 3.4 0 0 1 0 .5l6.7-1.4-2.4-8.6a82.6 82.6 0 0 0 4-14.6m9.3 19.8c-2 .6-3 1-5 1.4v.5l5.7-1.7.2-4.8-.7-.8c0 2.1 0 3.2-.2 5.4m6.7-12.2l-.6-.1.6.1m-42.4 2.1l1.3-.3a5.5 5.5 0 0 1 0-.6l-1.7.5-3.1 8.5h.7a133 133 0 0 0 2.8-8m35.9-7.4l1-1a6 6 0 0 0-.3-.5l-1.3 1.3.9 9 .6-.2c-.3-3.5-.5-5.2-1-8.6M76.4 88.4l-.5-.4a.2.2 0 0 0 0 .1l.4.3h.1M42.8 73l-5.4 15c-1.8-.8-2.8-1.2-4.6-2.2a3.4 3.4 0 0 1-.2.4c2 1 3 1.6 5.2 2.5l5-14.4v-1.3m13.5 5.6A107.9 107.9 0 0 1 44.7 91l.1 1a90 90 0 0 0 10.6-11.4l.9-2.2"
          fill="#e4e1df"/>
    <path d="M46.8 67.5l-.8.7a91.6 91.6 0 0 0 1.4 13.2 103.2 103.2 0 0 0 8.1-11 53.4 53.4 0 0 0 6 1.6 274 274 0 0 1-3.7 11.4l-1 10.1c-2.3-.4-3.4-.7-5.8-1.3l2.7-9.6 2-4.8A106.4 106.4 0 0 1 44 90.6 124 124 0 0 1 42.5 72l-5.6 15-5-2.5L36 76l4.8-11.6a56.7 56.7 0 0 0 6 3m21.8 20.6a67 67 0 0 0 7-.2l-1-.8-1.3-8-1.6.5-3.1 8.5m2.9-14.4a64 64 0 0 0 3.9-.4 143.1 143.1 0 0 0 8.4 22 77 77 0 0 1-5.5.5l-.8-4.1a72 72 0 0 1-10.2.2l-.3-1.1-2.4 4.7-5.8-1.3a92.7 92.7 0 0 0 6.2-8.7 130.4 130.4 0 0 0 4.9-12.3l1.6.5m12.7-.3a76 76 0 0 0 5.5 7.7l-.2 2.2a78 78 0 0 0 4.2-12l4-1a81.8 81.8 0 0 1-4 14.5l2.3 8.6a62.7 62.7 0 0 1-6.6 1.2L88.3 87l1.4.4a75.8 75.8 0 0 1-10-13l4.5-1M108 82a65 65 0 0 0 6.3-3.7c-.5 0-.8 0-1.2-.2-2-2.5-2.8-3.8-4.6-6.4l-1.3 1.1c.4 3.7.6 5.5.8 9.2m-3.4-14.3l3.3-2.3a128.3 128.3 0 0 0 16.9 15.5l-4.7 3.2-2.5-3.3a73.4 73.4 0 0 1-9.1 5.2l-.7-1-.3 5.5c-2.2.7-3.4 1-5.7 1.5a100.5 100.5 0 0 0 2-10.7c-.2-5.3-.3-8-.9-13.3l1.7-.3"
          fill="#e4e1df"/>
    <path d="M27.5 58h3.9v3.9h-3.9zm-3.9-3.9h4V58h-4zm0 7.8h4v3.8h-4zm-3.8-11.6h3.8V54h-3.8zm0 15.4h3.8v4h-3.8zm-4-11.6h4V58h-4zm0 7.8h4v3.8h-4zM12 58H16v3.9H12z"
          fill="#f28d00" fill-rule="evenodd"/>
    <path d="M107.6 57.4a48.8 48.8 0 0 0-15.4-1.6 157.5 157.5 0 0 0-15.9 1.8C71 59 65.8 60 60.3 60.7A32.8 32.8 0 0 1 44.8 55a48.8 48.8 0 0 0 15.9 1.9C66 56.2 71 55.2 76.4 54a158.8 158.8 0 0 1 16-2.2 43.6 43.6 0 0 1 15.2 5.6"
          fill="#f28d00"/>
    <path d="M19.8 58h3.9v3.9h-3.9zm117.3 0h3.8v3.9h-3.8zm-4-3.9h4V58h-4zm0 7.8h4v3.8h-4zm-3.8-11.6h3.9V54h-3.9zm0 15.4h3.9v3.9h-3.9zm-3.9-11.6h4V58h-4zm0 7.8h4v3.8h-4zm-3.8-3.9h3.8v3.9h-3.8zM129.3 58h4v3.9h-4z"
          fill="#f28d00" fill-rule="evenodd"/>
</svg>