<?xml version="1.0" encoding="UTF-8" standalone="no"?><!DOCTYPE svg PUBLIC "-//W3C//DTD SVG 1.1//EN"
        "http://www.w3.org/Graphics/SVG/1.1/DTD/svg11.dtd">
<svg width="100%" height="100%" viewBox="0 0 107 75" version="1.1" xmlns="http://www.w3.org/2000/svg"
     xml:space="preserve"
     style="fill-rule:evenodd;clip-rule:evenodd;stroke-linejoin:round;stroke-miterlimit:1.41421;"><path d="M106.366,37.181l0,0.142l-3.877,13.244l0,0.212l-0.141,0.071l-0.141,0.142l-9.868,9.348l-0.071,0l0,0.071l-0.07,0l-11.49,7.294l-0.07,0l-0.071,0.071l-12.899,4.816l-0.071,0l-0.07,0.071l-0.141,0l-13.745,1.7l-0.282,0l-13.675,-2.479l-0.07,0l-13.181,-3.754l-0.071,0l0,-0.141l-0.07,0l-0.071,-0.071l-11.842,-6.87l-0.07,0l0,-0.071l-0.071,0l-0.141,-0.07l-9.515,-9.915l-0.141,-0.071l0,-0.071l-0.071,-0.142l0,-0.141l-3.665,-13.244l0,-0.142l-0.071,-0.141l0,-0.213l3.595,-13.456l0,-0.212l0.141,-0.071l0.141,-0.142l9.586,-9.844l0.071,-0.071l0.07,0l11.631,-7.649l0.07,-0.07l0.071,0l0.07,-0.071l0.141,0l13.463,-2.833c0.022,0.013 0.049,0.013 0.071,0l13.604,-1.841l0.211,0l13.746,1.062l0.281,0l13.111,4.249l0.071,0l0,0.071l0.07,0l11.983,6.799l0.071,0l0.07,0.142l0.07,0l9.516,10.056l0.071,0.071l0.07,0.142l0.071,0.212l3.595,13.315l0,0.212l0.07,0.071l0,0.141l-0.07,0.071Zm0.493,-0.566l-3.524,-13.315l-0.141,-0.425l-0.282,-0.283l-9.516,-9.986l-0.141,-0.212l-0.212,-0.071l-11.982,-6.799l-0.071,0l-0.211,-0.071l-13.041,-4.249l-0.211,-0.071l-0.141,0l-13.816,-1.133l-0.352,0l-13.534,1.841l-0.07,0l-13.534,2.833l-0.282,0.071l-0.282,0.213l-11.419,7.507l-0.14,0.141l-0.141,0.142l-9.728,9.773l-0.352,0.284l-0.071,0.424l-3.524,13.457l-0.141,0.354l0.141,0.425l3.595,13.385l0.141,0.354l0.282,0.283l9.586,9.915l0.141,0.142l0.211,0.071l11.842,6.869l0.141,0.142l0.212,0l13.181,3.754l0.141,0l13.604,2.549l0.212,0.071l0.281,0l13.746,-1.7l0.211,0l0.141,-0.141l12.97,-4.816l0.141,0l0.07,-0.142l11.49,-7.294l0.141,-0.071l0.141,-0.142l9.868,-9.348l0.352,-0.284l0.071,-0.425l3.806,-13.243l0.141,-0.425l-0.141,-0.425l0,0.071Z" style="fill:#604500;fill-rule:nonzero;"/>
    <path d="M105.379,37.04l-3.877,13.243l-9.868,9.349l-11.49,7.224l-12.899,4.815l-13.815,1.771l-13.605,-2.55l-13.181,-3.753l-11.842,-6.941l-9.515,-9.915l-3.666,-13.173l3.525,-13.456l9.727,-9.773l11.56,-7.649l13.463,-2.833l13.674,-1.77l13.746,1.062l13.04,4.25l11.983,6.728l9.515,9.985l3.525,13.456l0,-0.07Z"
          style="fill:#604500;fill-rule:nonzero;"/>
    <path d="M55.474,8.499c-1.667,-0.098 -3.338,-0.098 -5.005,0l0.212,6.09c0.563,2.621 0.775,3.966 1.198,6.587l-2.82,0.354l0,0.354c1.027,-0.176 2.062,-0.294 3.102,-0.354l-1.128,-6.657l-0.212,-6.091c1.644,-0.091 3.291,-0.091 4.935,0l0.493,-2.904l-0.352,0l-0.423,2.55m12.687,8.64l-0.704,2.974l-2.609,1.913c-1.334,-0.136 -2.676,-0.183 -4.017,-0.142c-1.078,-0.492 -2.184,-0.917 -3.313,-1.275l-0.141,0.284c1.201,0.402 2.378,0.875 3.524,1.416c1.341,-0.037 2.683,0.01 4.018,0.142c0.856,-0.688 1.75,-1.327 2.678,-1.913l0.776,-3.116c-0.042,-0.074 -0.089,-0.145 -0.141,-0.212m-30.874,5.524l0.282,0.283c1.51,-0.903 3.09,-1.685 4.723,-2.337c0,-0.142 -0.047,-0.26 -0.141,-0.354c-1.683,0.669 -3.31,1.475 -4.864,2.408m-0.916,-13.598c3.665,3.949 6.881,8.296 9.586,12.96l-2.326,0.709l0.212,0.354c0.987,-0.354 1.409,-0.496 2.467,-0.708c-2.761,-4.854 -6.072,-9.369 -9.868,-13.456c-0.016,0.05 -0.04,0.098 -0.071,0.141m1.128,16.502l-2.326,1.133l0.07,0.354l2.608,-1.133l-0.775,-3.258l-0.494,-0.496l0.917,3.541m48.636,7.791c-0.03,-0.069 -0.053,-0.14 -0.07,-0.213l-1.974,1.629c-1.981,-2.345 -4.283,-4.396 -6.837,-6.091c-0.099,0.09 -0.193,0.184 -0.282,0.284c2.594,1.725 4.922,3.825 6.908,6.232l2.255,-1.912m-8.106,-22.451l-0.211,1.346l-1.833,1.416l-2.82,0.496l0,0.425l2.82,-0.425l1.974,-1.416c0.009,-0.614 0.009,-1.228 0,-1.842m6.696,4.108l-0.282,-0.142l-4.159,4.958l-4.018,6.87c-1.077,-0.492 -2.184,-0.918 -3.312,-1.275l-0.282,0.354c1.198,0.383 2.375,0.832 3.524,1.345c1.762,-2.762 2.538,-4.107 4.159,-6.869l4.37,-5.241m-3.595,12.677l1.551,0l8.529,-8.499l-0.282,-0.141l-8.106,8.215l-2.185,0l0.493,0.425m-33.059,-18.697c-2.209,0.219 -4.4,0.597 -6.555,1.133l0,0.354c1.924,-0.486 3.879,-0.841 5.851,-1.062l0.704,-0.425m-18.326,12.89l2.396,2.337c0.075,1.187 0.217,2.369 0.423,3.541c-0.88,0.641 -1.727,1.327 -2.537,2.054c-1.426,1.365 -2.723,2.858 -3.877,4.461l0.352,0.213c1.173,-1.631 2.495,-3.148 3.948,-4.533c0.812,-0.725 1.659,-1.41 2.537,-2.053c-0.183,-1.173 -0.301,-2.356 -0.352,-3.542l-2.608,-2.478l-0.282,0m32.424,-10.836l0,-1.416l1.903,-0.355c1.271,0.429 2.518,0.925 3.736,1.488l1.198,1.558c0.522,-0.885 1.063,-1.759 1.621,-2.621l-0.281,-0.212l-1.481,2.408l-1.198,-1.558c-1.48,-0.638 -2.256,-0.921 -3.806,-1.417l-1.974,0.284l0,1.629c0.075,0.065 0.146,0.136 0.211,0.212m-26.503,3.045l0.846,-0.637l-0.211,-0.354l-1.058,0.779c0.296,2.073 0.696,4.129 1.199,6.161l0.352,-0.141c-0.463,-1.894 -0.839,-3.808 -1.128,-5.737m28.195,1.558c0.486,0.78 0.933,1.584 1.339,2.408c-0.414,-0.971 -0.885,-1.917 -1.409,-2.833c-1.46,-0.738 -2.967,-1.377 -4.512,-1.912l0.141,0.354c1.521,0.538 3.005,1.177 4.441,1.912m-36.442,5.312l-1.41,-2.762l-0.493,-0.071l1.41,2.691l-1.199,1.771l0.987,-0.638c0.219,-0.342 0.454,-0.673 0.705,-0.991m12.829,-2.833l-0.494,-0.212l0.141,0.141l0.212,0.142l0.141,-0.071m-19.314,7.649l-2.89,-2.125l2.82,-2.62l1.551,0l-0.141,-0.142l-1.833,0c-1.025,0.854 -2.013,1.752 -2.961,2.691l3.243,2.408l0.211,-0.212m5.216,4.674c0.066,-0.075 0.137,-0.146 0.212,-0.212l-2.82,-2.833c0.962,-0.996 1.973,-1.942 3.031,-2.833l1.551,0.283l0,-0.141l-2.044,-0.355c-1.062,0.937 -2.074,1.93 -3.031,2.975l3.101,3.045"
          style="fill:#f6a800;fill-rule:nonzero;"/>
    <path d="M84.444,34.49l2.256,-1.912c-1.747,-2.136 -3.734,-4.061 -5.921,-5.737l2.185,0l8.388,-8.498l-2.115,-1.275l-1.198,-1.275c-1.905,2.402 -3.832,4.787 -5.78,7.153c-1.662,1.73 -3.307,3.477 -4.934,5.241c2.637,1.752 5.01,3.875 7.049,6.303m0.352,-20.397c-1.299,-0.868 -2.64,-1.671 -4.018,-2.407l-3.524,7.153c-1.833,2.407 -2.679,3.682 -4.37,6.161c1.199,0.354 2.375,0.78 3.524,1.275c1.692,-2.691 2.537,-4.108 4.018,-6.87l4.37,-5.312m-7.895,-5.24l-2.537,0.283l-0.776,1.771l0.564,1.274l1.269,0.071l-2.255,0.708l0,0.779l2.819,-0.425l1.974,-1.487l0.141,-1.7l-1.199,-1.274m-10.784,4.816c-1.353,-1.168 -2.79,-2.233 -4.3,-3.187l0,-1.629l1.903,-0.354c1.621,0.495 2.397,0.849 3.877,1.416l1.198,1.558c0.705,-0.991 0.987,-1.558 1.622,-2.62c-1.319,-0.964 -2.683,-1.862 -4.089,-2.692c-1.923,-0.134 -3.853,-0.158 -5.78,-0.07c-1,1.13 -1.941,2.312 -2.819,3.541c0.511,1.139 0.981,2.296 1.41,3.47c1.538,0.495 3.045,1.087 4.511,1.771c0.542,0.917 1.036,1.863 1.48,2.832c-0.556,0.503 -1.097,1.023 -1.621,1.558c-0.884,-0.269 -1.777,-0.506 -2.679,-0.708l-2.608,-1.133c-0.381,0.862 -0.733,1.736 -1.057,2.62c1.247,0.347 2.471,0.773 3.665,1.275c1.341,-0.031 2.683,0.016 4.018,0.142l2.679,-1.841l0.704,-3.187c-0.654,-0.959 -1.36,-1.881 -2.114,-2.762m-25.799,-6.374l0.494,2.691c2.312,-0.628 4.668,-1.078 7.049,-1.346l-1.551,1.063l1.621,5.028c0.211,2.62 0.352,3.895 0.705,6.445l3.101,-0.425l-1.198,-6.516l-0.352,-6.091c1.712,-0.117 3.43,-0.141 5.145,-0.07l0.423,-2.904c-2.458,0.05 -4.908,0.287 -7.331,0.708c-2.737,0.238 -5.449,0.712 -8.106,1.417m-4.229,12.606c-0.634,-2.479 -0.916,-3.683 -1.269,-6.162l0.987,-0.849c1.41,1.841 2.044,2.832 3.313,4.674l0.775,0.354c-1.307,0.583 -2.578,1.246 -3.806,1.983m-3.524,-9.703l-1.481,0.425c0.46,3.045 1.143,6.051 2.045,8.995c0.274,2.395 0.746,4.764 1.409,7.082c0.874,-0.464 1.768,-0.89 2.679,-1.275l-0.916,-3.541l0.634,0.637c1.575,-0.959 3.225,-1.788 4.934,-2.479c0.634,0.992 0.916,1.488 1.41,2.55l2.537,-0.85c-2.842,-4.789 -6.224,-9.233 -10.079,-13.243l-3.172,1.699m-4.018,17.706c-0.982,0.802 -1.923,1.653 -2.82,2.549l-3.242,-3.045c0.981,-1.046 2.016,-2.039 3.101,-2.975l2.045,0.284l1.057,0.991c-0.078,0.706 -0.125,1.415 -0.141,2.125m-8.741,-6.87l1.833,-0.071l1.057,0.709l0.071,2.124c-0.926,0.716 -1.819,1.472 -2.679,2.267c-1.075,-0.787 -2.156,-1.566 -3.242,-2.338c0.946,-0.941 1.934,-1.839 2.96,-2.691m6.908,0.708l-1.409,0.921l1.127,-1.77c-0.634,-1.063 -0.916,-1.629 -1.409,-2.763l-2.961,-0.495l-4.018,0.991c-1.008,0.971 -1.972,1.988 -2.89,3.046c-1.09,1.129 -2.125,2.311 -3.101,3.541c2.819,1.558 4.229,2.408 7.049,4.107l6.343,5.241c1.253,-1.717 2.669,-3.306 4.23,-4.745c0.831,-0.754 1.702,-1.463 2.608,-2.125c-0.204,-1.172 -0.345,-2.354 -0.423,-3.541l-2.608,-2.478l-2.397,0.07m6.274,26.204l-0.564,0.425c0.103,3.136 0.433,6.261 0.987,9.349c2.072,-2.468 3.979,-5.07 5.709,-7.791c1.387,0.46 2.799,0.839 4.229,1.134c-0.81,2.71 -1.68,5.401 -2.608,8.073l-0.705,7.153c-1.621,-0.283 -2.396,-0.496 -4.088,-0.921l1.903,-6.798l1.41,-3.4c-2.521,3.245 -5.303,6.277 -8.318,9.065c-0.681,-4.358 -1.034,-8.761 -1.057,-13.172l-3.947,10.623l-3.524,-1.771l2.889,-6.02l3.384,-8.215c1.367,0.792 2.779,1.501 4.229,2.125m15.366,14.589c1.646,0.039 3.293,-0.008 4.935,-0.142l-0.705,-0.566l-0.917,-5.666l-1.127,0.354l-2.186,6.02m2.045,-10.198c0.919,-0.067 1.835,-0.161 2.749,-0.284c1.544,5.349 3.524,10.56 5.921,15.581c-1.288,0.165 -2.581,0.283 -3.877,0.354l-0.564,-2.903c-2.39,0.217 -4.793,0.265 -7.19,0.141l-0.211,-0.779l-1.692,3.329l-4.088,-0.921c1.573,-1.968 3.032,-4.025 4.37,-6.161c1.297,-2.843 2.45,-5.751 3.454,-8.711l1.128,0.354m8.951,-0.213c1.179,1.897 2.474,3.718 3.877,5.453l-0.141,1.559c1.216,-2.748 2.206,-5.59 2.961,-8.499l2.819,-0.708c-0.624,3.502 -1.567,6.94 -2.819,10.269l1.621,6.09c-1.535,0.367 -3.087,0.651 -4.652,0.85l-0.776,-5.311l0.987,0.283c-2.674,-2.804 -5.037,-5.891 -7.048,-9.207l3.171,-0.708m16.776,6.091c1.528,-0.789 3.011,-1.664 4.441,-2.621c-0.352,0 -0.564,0 -0.846,-0.141c-1.409,-1.771 -1.973,-2.692 -3.242,-4.533l-0.916,0.779c0.282,2.62 0.423,3.895 0.563,6.516m-2.396,-10.128l2.326,-1.629c3.637,4.009 7.623,7.683 11.912,10.978l-3.313,2.266l-1.762,-2.337c-2.048,1.379 -4.191,2.61 -6.414,3.683l-0.493,-0.709l-0.212,3.895c-1.551,0.496 -2.397,0.709 -4.018,1.063c0.606,-2.499 1.077,-5.028 1.41,-7.578c-0.141,-3.754 -0.211,-5.666 -0.634,-9.419l1.198,-0.213"
          style="fill:#e4e1df;fill-rule:nonzero;"/>
    <path d="M48.213,65.51l0.071,0.425c2.306,0.051 4.613,-0.044 6.908,-0.283l0,-0.355c-2.342,0.232 -4.697,0.303 -7.049,0.213m5.498,-12.89c1.594,5.204 3.598,10.272 5.991,15.156l-3.524,0.354l0.071,0.354c1.297,-0.091 2.59,-0.232 3.876,-0.425c-2.476,-4.971 -4.55,-10.134 -6.203,-15.439l-0.282,0m-10.079,-0.849l-2.397,7.79l-0.634,7.082l-3.736,-0.708l-0.071,0.283l4.159,0.921l0.564,-7.224c1.057,-3.187 1.551,-4.816 2.467,-8.074l-0.352,0m2.537,16.148l-3.524,-0.709c-0.141,0 -0.141,0.142 -0.212,0.213c1.622,0.425 2.397,0.566 4.089,0.85c0.522,-0.977 1.016,-1.969 1.48,-2.975l-0.141,-0.708l-1.692,3.329m31.015,-21.459c-0.094,0 -0.165,0.047 -0.212,0.141c3.611,3.877 7.55,7.431 11.772,10.624c-0.989,0.715 -2,1.4 -3.031,2.053c0.078,0.089 0.148,0.184 0.211,0.284c1.41,-0.921 2.044,-1.346 3.313,-2.337c-4.345,-3.228 -8.401,-6.83 -12.124,-10.765m0.353,14.306c0.064,0.098 0.135,0.193 0.211,0.283c2.147,-1.035 4.22,-2.218 6.203,-3.541l-0.211,-0.354c-1.976,1.357 -4.049,2.565 -6.203,3.612m-7.472,-10.553c-0.211,0 -0.282,0 -0.493,0.142c-0.649,3.382 -1.593,6.699 -2.82,9.915l1.692,6.091c-1.692,0.425 -2.538,0.637 -4.229,0.92c0.008,0.118 0.008,0.237 0,0.354l4.722,-0.991l-1.691,-6.091c1.252,-3.352 2.196,-6.814 2.819,-10.34m6.555,14.023c-1.409,0.425 -2.114,0.708 -3.524,0.991l0,0.355l4.018,-1.204l0.141,-3.4l-0.494,-0.566c0,1.487 0,2.266 -0.141,3.824m4.723,-8.64l-0.423,-0.071l0.423,0.071m-29.887,1.487l0.917,-0.212c-0.008,-0.142 -0.008,-0.284 0,-0.425l-1.199,0.354l-2.185,6.02l0.494,0c0.717,-1.868 1.376,-3.757 1.973,-5.666m25.305,-5.241l0.705,-0.708c-0.064,-0.122 -0.135,-0.24 -0.211,-0.354l-0.917,0.92l0.635,6.374l0.423,-0.141c-0.212,-2.479 -0.353,-3.683 -0.705,-6.091m-22.627,10.623l-0.352,-0.283c-0.006,0.023 -0.006,0.048 0,0.071l0.282,0.212l0.07,0m-23.683,-10.906l-3.807,10.623c-1.268,-0.567 -1.973,-0.85 -3.242,-1.558c-0.041,0.097 -0.088,0.192 -0.141,0.283c1.41,0.708 2.115,1.133 3.665,1.771l3.525,-10.199l0,-0.92m9.515,3.966c-2.491,3.138 -5.225,6.075 -8.176,8.782l0.07,0.708c2.718,-2.47 5.218,-5.171 7.472,-8.074l0.634,-1.558"
          style="fill:#e4e1df;fill-rule:nonzero;"/>
    <path d="M32.988,47.805l-0.564,0.495c0.104,3.136 0.434,6.261 0.987,9.349c2.072,-2.468 3.98,-5.07 5.71,-7.791c1.386,0.46 2.798,0.839 4.229,1.134c-0.811,2.71 -1.68,5.401 -2.608,8.073l-0.705,7.153c-1.621,-0.283 -2.397,-0.496 -4.088,-0.921l1.903,-6.798l1.41,-3.4c-2.499,3.242 -5.258,6.274 -8.248,9.065c-0.681,-4.358 -1.034,-8.761 -1.057,-13.172l-3.947,10.623l-3.524,-1.771l2.889,-6.02l3.384,-8.215c1.367,0.792 2.779,1.501 4.229,2.125m15.366,14.589c1.646,0.039 3.293,-0.008 4.935,-0.142l-0.705,-0.566l-0.917,-5.666l-1.127,0.354l-2.186,6.02m2.045,-10.198c0.919,-0.067 1.835,-0.161 2.749,-0.284c1.544,5.349 3.524,10.56 5.921,15.581c-1.288,0.165 -2.581,0.283 -3.877,0.354l-0.564,-2.903c-2.39,0.217 -4.793,0.265 -7.19,0.141l-0.211,-0.779l-1.692,3.329l-4.088,-0.921c1.573,-1.968 3.032,-4.025 4.37,-6.161c1.297,-2.843 2.45,-5.751 3.454,-8.711l1.128,0.354m8.951,-0.213c1.179,1.897 2.474,3.718 3.877,5.453l-0.141,1.559c1.216,-2.748 2.206,-5.59 2.961,-8.499l2.819,-0.708c-0.624,3.502 -1.567,6.94 -2.819,10.269l1.621,6.09c-1.535,0.367 -3.087,0.651 -4.652,0.85l-0.776,-5.311l0.987,0.283c-2.674,-2.804 -5.037,-5.891 -7.048,-9.207l3.171,-0.708m16.776,6.091c1.528,-0.789 3.011,-1.664 4.441,-2.621c-0.352,0 -0.564,0 -0.846,-0.141c-1.409,-1.771 -1.973,-2.692 -3.242,-4.533l-0.916,0.779c0.282,2.62 0.423,3.895 0.563,6.516m-2.396,-10.128l2.326,-1.629c3.637,4.009 7.623,7.683 11.912,10.978l-3.313,2.266l-1.762,-2.337c-2.048,1.379 -4.191,2.61 -6.414,3.683l-0.493,-0.709l-0.212,3.895c-1.551,0.496 -2.397,0.709 -4.018,1.063c0.606,-2.499 1.077,-5.028 1.41,-7.578c-0.141,-3.754 -0.211,-5.666 -0.634,-9.419l1.198,-0.213"
          style="fill:#e4e1df;fill-rule:nonzero;"/>
    <path d="M19.384,41.076l2.749,0l0,2.763l-2.749,0l0,-2.763Zm-2.749,-2.762l2.82,0l0,2.762l-2.82,0l0,-2.762Zm0,5.525l2.82,0l0,2.691l-2.82,0l0,-2.691Zm-2.678,-8.216l2.678,0l0,2.621l-2.678,0l0,-2.621Zm0,10.907l2.678,0l0,2.833l-2.678,0l0,-2.833Zm-2.82,-8.216l2.82,0l0,2.762l-2.82,0l0,-2.762Zm0,5.525l2.82,0l0,2.691l-2.82,0l0,-2.691Zm-2.679,-2.763l2.82,0l0,2.763l-2.82,0l0,-2.763Z"
          style="fill:#f28d00;"/>
    <path d="M75.845,40.652c-3.536,-0.956 -7.2,-1.339 -10.856,-1.134c-3.754,0.234 -7.495,0.66 -11.207,1.275c-3.736,0.992 -7.401,1.7 -11.278,2.196c-3.925,-0.388 -7.686,-1.777 -10.926,-4.037c3.637,1.065 7.424,1.52 11.208,1.345c3.736,-0.495 7.26,-1.204 11.066,-2.053c3.731,-0.712 7.495,-1.232 11.278,-1.558c3.787,0.638 7.421,1.983 10.715,3.966"
          style="fill:#f28d00;fill-rule:nonzero;"/>
    <path d="M13.957,41.076l2.749,0l0,2.763l-2.749,0l0,-2.763Zm82.681,0l2.679,0l0,2.763l-2.679,0l0,-2.763Zm-2.819,-2.762l2.819,0l0,2.762l-2.819,0l0,-2.762Zm0,5.525l2.819,0l0,2.691l-2.819,0l0,-2.691Zm-2.679,-8.216l2.749,0l0,2.621l-2.749,0l0,-2.621Zm0,10.907l2.749,0l0,2.762l-2.749,0l0,-2.762Zm-2.749,-8.216l2.82,0l0,2.762l-2.82,0l0,-2.762Zm0,5.525l2.82,0l0,2.691l-2.82,0l0,-2.691Zm-2.678,-2.763l2.678,0l0,2.763l-2.678,0l0,-2.763Zm5.427,0l2.82,0l0,2.763l-2.82,0l0,-2.763Z"
          style="fill:#f28d00;"/></svg>