<svg viewBox="0 0 150 93" xmlns="http://www.w3.org/2000/svg" fill-rule="evenodd" clip-rule="evenodd"
     stroke-linejoin="round" stroke-miterlimit="1.414">
    <path fill="#ff5f00" fill-rule="nonzero" d="M54.696 9.917h40.558v72.891H54.696z"/>
    <path d="M57.294 46.357c0-14.786 6.923-27.958 17.704-36.446A46.16 46.16 0 0 0 46.351 0C20.751 0 0 20.754 0 46.357c0 25.602 20.751 46.357 46.351 46.357a46.154 46.154 0 0 0 28.647-9.912c-10.781-8.488-17.704-21.659-17.704-36.445"
          fill="#eb001b" fill-rule="nonzero"/>
    <path d="M149.954 46.357c0 25.602-20.751 46.357-46.35 46.357a46.165 46.165 0 0 1-28.65-9.912c10.784-8.488 17.707-21.659 17.707-36.445 0-14.786-6.923-27.958-17.707-36.446A46.17 46.17 0 0 1 103.604 0c25.599 0 46.35 20.754 46.35 46.357"
          fill="#f79e1b" fill-rule="nonzero"/>
</svg>