<svg viewBox="0 0 1260.82 630.168" xmlns="http://www.w3.org/2000/svg"><g transform="translate(-330.645 -225.978)"><path d="m1591.465 856.147h-1260.82v-630.169h1260.82zm-531.232-315.258h-.055c0 49.894.18 99.79-.176 149.682-.06 8.34 1.848 11.6 10.814 11.574q124.079-.411 248.158-.009c8.11.023 10.076-3.2 9.906-10.538-.366-15.747-.633-31.532.092-47.254.449-9.731-3.118-12.137-12.4-12.056-47.265.41-94.535.2-141.8.165-15.64-.013-17.253-1.71-17.3-17.688q-.045-16.248 0-32.5c.029-16.616 1.442-18.079 17.918-18.07q61.546.03 123.093.123c14.249 0 14.249-.077 14.26-13.81q.015-18.217.028-36.436c0-13.678-.014-13.8-13.433-13.61-42.643.61-85.284 1.4-127.928 1.943-11.293.144-13.779-2.484-14.08-13.883-.208-7.873-.094-15.756-.063-23.633.067-17.116 1.963-19.2 19.316-19.243 46.611-.125 93.222-.042 139.833-.078 12.375-.01 12.326-.069 12.254-12.755-.076-13.13-.028-26.26-.061-39.39-.033-12.641-.669-13.327-13.4-13.327q-121.125 0-242.25.071c-11.94.008-12.7.824-12.71 13.008q-.038 73.859-.016 147.714zm-326.513-73.029c-1.493-7.534-2.864-13.243-3.729-19.028-4.045-27.052-18.159-46.4-43.13-57.991-61.672-28.621-122.661-29.041-182.945 3.943-45.664 24.988-56.1 87.239-21.383 126.12 12.62 14.136 28.27 23.438 45.876 29.434 26.343 8.972 52.963 17.13 79.339 26.009 8.328 2.8 16.706 6.028 24.256 10.438 11.7 6.837 17.873 21.149 14.987 31.621-5.427 19.694-30.239 34.533-50.16 30.532-25.232-5.068-41.7-19.719-49.117-44.2-2.494-8.234-6.676-11.551-15.535-10.805-20.584 1.734-41.245 2.537-61.863 3.892-18.689 1.228-18.581 1.311-15.346 19.266 7.9 43.848 32.234 72.759 75.848 84.789 41.266 11.381 82.7 12.687 124.223 2.35 43.185-10.752 75.915-33.393 87.726-79.288 9.311-36.185-.594-85.512-46.183-107.311a299.1 299.1 0 0 0 -40.2-15.7c-29.067-9.027-58.537-16.751-87.614-25.748-14.432-4.466-18.608-25.711-6.94-35.092 14.047-11.292 46.412-17.208 62.661 3.029a183.233 183.233 0 0 1 15.263 21.7c3.932 6.692 8.994 8.413 16.317 7.755 17.6-1.583 35.26-2.56 52.892-3.815 7.773-.555 15.544-1.191 24.757-1.9zm24.34 73.981c0 50.863.191 101.728-.181 152.589-.065 8.919 2.342 12.147 11.6 11.938 24.928-.565 49.875-.2 74.815-.273 12.45-.036 13.4-.969 13.421-13.5.056-33.8.352-67.6-.176-101.4-.147-9.387 3.263-11.65 11.93-11.674 26.553-.073 53.188.262 79.635-1.683 35.966-2.645 63.011-19.687 78.753-53.425 10.807-23.161 10.077-47.352 7.509-71.468-4.152-38.988-30.029-65.548-68.715-71.5a308.1 308.1 0 0 0 -44.006-3.679c-50.531-.45-101.069-.211-151.605-.19-12.447.006-12.957.519-12.964 12.664q-.043 75.798-.016 151.601zm710.837 22.4-2.55-1.184-50.764 72.36-3.206-.906c-.954-3.539-2.621-7.056-2.731-10.621-.355-11.477-.041-22.972-.159-34.458-.237-23.156 3.419-20.565-21.165-20.684-13.732-.066-13.67.017-13.779 13.54q-.464 57.065-1.086 114.128c-.077 6.18 2.848 7.969 8.435 7.93q38.892-.269 77.785-.257c6.954 0 9.633-2.873 9.376-10.134-.523-14.751-.156-29.533-.156-44.3zm-2.781-62.378 2.781-1.39c0-36.662-.286-73.328.2-109.984.122-9.217-3.824-11.16-11.7-11.1-24.6.2-49.214.314-73.813-.089-9.011-.148-12.458 3.612-12.428 12.186q.162 47.242-.011 94.484c-.03 7.089 2.931 10.016 10.016 9.661a208 208 0 0 1 21.64-.046c7.38.4 9.73-2.936 9.6-9.886-.285-14.756-.163-29.521-.079-44.282a84.137 84.137 0 0 1 .936-8.771l3.552-1.363z" fill="#fff"/><path d="m1060.233 540.889q0-73.855.008-147.711c.005-12.184.77-13 12.71-13.008q121.125-.072 242.25-.071c12.733 0 13.369.686 13.4 13.327.033 13.13-.015 26.26.061 39.39.072 12.686.121 12.745-12.254 12.755-46.611.036-93.222-.047-139.833.078-17.353.046-19.249 2.127-19.316 19.243-.031 7.877-.145 15.76.063 23.633.3 11.4 2.787 14.027 14.08 13.883 42.644-.544 85.285-1.333 127.928-1.943 13.419-.192 13.43-.068 13.433 13.61q0 18.219-.028 36.436c-.011 13.733-.011 13.812-14.26 13.81q-61.547-.011-123.093-.123c-16.476-.009-17.889 1.454-17.918 18.07q-.028 16.248 0 32.5c.045 15.978 1.658 17.675 17.3 17.688 47.268.038 94.538.245 141.8-.165 9.287-.081 12.854 2.325 12.4 12.056-.725 15.722-.458 31.507-.092 47.254.17 7.34-1.8 10.561-9.906 10.538q-124.078-.358-248.158.009c-8.966.03-10.874-3.234-10.814-11.574.356-49.892.176-99.788.176-149.682z" fill="#ff9400"/><g fill="#343085"><path d="m733.72 467.86c-9.213.709-16.984 1.345-24.762 1.9-17.632 1.255-35.289 2.232-52.892 3.815-7.323.658-12.385-1.063-16.317-7.755a183.233 183.233 0 0 0 -15.263-21.7c-16.249-20.237-48.614-14.321-62.661-3.029-11.668 9.381-7.492 30.626 6.94 35.092 29.077 9 58.547 16.721 87.614 25.748a299.1 299.1 0 0 1 40.2 15.7c45.589 21.8 55.494 71.126 46.183 107.311-11.811 45.895-44.541 68.536-87.726 79.288-41.524 10.337-82.957 9.031-124.223-2.35-43.614-12.03-67.95-40.941-75.848-84.789-3.235-17.955-3.343-18.038 15.346-19.266 20.618-1.355 41.279-2.158 61.863-3.892 8.859-.746 13.041 2.571 15.535 10.805 7.414 24.48 23.885 39.131 49.117 44.2 19.921 4 44.733-10.838 50.16-30.532 2.886-10.472-3.284-24.784-14.987-31.621-7.55-4.41-15.928-7.635-24.256-10.438-26.376-8.879-53-17.037-79.339-26.009-17.606-6-33.256-15.3-45.876-29.434-34.714-38.881-24.281-101.132 21.383-126.12 60.289-32.984 121.278-32.564 182.95-3.943 24.971 11.589 39.085 30.939 43.13 57.991.865 5.785 2.236 11.494 3.729 19.028z"/><path d="m758.061 541.841q0-75.8.012-151.607c.007-12.145.517-12.658 12.964-12.664 50.536-.021 101.074-.26 151.605.19a308.1 308.1 0 0 1 44.006 3.679c38.686 5.957 64.563 32.517 68.715 71.505 2.568 24.116 3.3 48.307-7.509 71.468-15.742 33.738-42.787 50.78-78.753 53.425-26.447 1.945-53.082 1.61-79.635 1.683-8.667.024-12.077 2.287-11.93 11.674.528 33.792.232 67.6.176 101.4-.02 12.536-.971 13.469-13.421 13.5-24.94.072-49.887-.292-74.815.273-9.255.209-11.662-3.019-11.6-11.938.375-50.86.184-101.729.185-152.588zm99.712-62.051h.047c0 9.187.333 18.39-.1 27.555-.358 7.5 2.186 11.086 10.065 10.531 12.413-.876 24.932-.745 37.255-2.264 19.869-2.449 31.872-16.385 31.466-35.1-.441-20.324-14.338-36.771-33.584-38.379-12.049-1.006-24.235-.268-36.352-.593-7.012-.187-9.092 3.221-8.875 9.709.314 9.504.078 19.026.078 28.541z"/><path d="m1468.9 564.245v85.411c0 14.77-.367 29.552.156 44.3.257 7.261-2.422 10.13-9.376 10.134q-38.892.018-77.785.257c-5.587.039-8.512-1.75-8.435-7.93q.715-57.063 1.086-114.128c.109-13.523.047-13.606 13.779-13.54 24.584.119 20.928-2.472 21.165 20.684.118 11.486-.2 22.981.159 34.458.11 3.565 1.777 7.082 2.731 10.621l3.206.906 50.764-72.36z"/><path d="m1466.116 501.867-49.316-70.576-3.552 1.363a84.137 84.137 0 0 0 -.936 8.771c-.084 14.761-.206 29.526.079 44.282.135 6.95-2.215 10.286-9.6 9.886a208 208 0 0 0 -21.64.046c-7.085.355-10.046-2.572-10.016-9.661q.2-47.241.011-94.484c-.03-8.574 3.417-12.334 12.428-12.186 24.6.4 49.209.286 73.813.089 7.881-.064 11.827 1.879 11.7 11.1-.486 36.656-.2 73.322-.2 109.984z"/></g><path d="m857.773 479.79c0-9.515.236-19.037-.082-28.542-.217-6.488 1.863-9.9 8.875-9.709 12.117.325 24.3-.413 36.352.593 19.246 1.608 33.143 18.055 33.584 38.379.406 18.716-11.6 32.652-31.466 35.1-12.323 1.519-24.842 1.388-37.255 2.264-7.879.555-10.423-3.033-10.065-10.531.437-9.165.1-18.368.1-27.555z" fill="#fff"/></g></svg>