<svg clip-rule="evenodd" fill-rule="evenodd" stroke-linejoin="round" stroke-miterlimit="1.414" viewBox="0 0 1001 324"
     xmlns="http://www.w3.org/2000/svg">
    <g fill-rule="nonzero">
        <path d="m433.352 318.984h-81.01l50.669-313.305h81.007zm293.671-305.645c-15.978-6.34-41.322-13.339-72.66-13.339-80.001 0-136.336 42.66-136.682 103.652-.664 45 40.335 69.994 70.999 84.998 31.342 15.332 41.996 25.339 41.996 39.006-.319 20.989-25.363 29.342-48.65 30.664-33.329 1.892-87.92-19.285-86.676-21.671l-11.337 70.33c19 8.656 54.006 16.337 90.349 16.674 85.003 0 140.342-42 140.997-106.997.324-35.666-21.326-62.994-68-85.325-28.334-14.336-45.686-24.002-45.686-38.67.332-13.334 14.677-26.991 46.661-26.991 31.974-.812 67.672 15.323 67.672 15.323l11.017-67.654zm107.671 194.652c6.671-17.999 39.001-105.991 43.001-117.655 0 0 21.003 101.991 24.334 117.655zm99.997-202.312h-62.662c-19.323 0-34.004 5.662-42.341 25.995l-120.331 287.305h85.002s13.994-38.669 17.002-46.997h104.011c2.326 10.999 9.666 46.997 9.666 46.997h75.008l-65.355-313.3zm-650.013 0-79.336 213.644-34.66-165.425-86.012-9.231 72.669 273.985h85.667l127.334-312.973z"
              fill="#00579f"/>
        <path d="m131.672 5.679h-130.339l-1.333 6.331c101.672 25.999 169.008 88.67 196.673 163.997l-28.334-143.992c-4.665-20.01-19.001-25.676-36.667-26.336z"
              fill="#faa61a"/>
    </g>
</svg>