<svg height="64.983" viewBox="0 0 20.489 64.983" width="20.489" xmlns="http://www.w3.org/2000/svg" xmlns:xlink="http://www.w3.org/1999/xlink"><clipPath id="a"><path d="m0 0h20.489v20.489h-20.489z"/></clipPath><clipPath id="b"><path d="m0 0h16.649v16.649h-16.649z"/></clipPath><g fill="#fffef5"><g clip-path="url(#a)"><path d="m0 0h20.489v20.489h-20.489z" opacity="0" transform="matrix(-1 0 0 -1 20.489 20.489)"/><path d="m9.925 1.387a8.537 8.537 0 1 0 8.537 8.537 8.537 8.537 0 0 0 -8.537-8.537zm0 15.367a6.83 6.83 0 1 1 6.83-6.83 6.83 6.83 0 0 1 -6.83 6.83z" transform="translate(.32 .32)"/><path d="m8.885 4.162a2.988 2.988 0 0 0 -2.985 2.988.854.854 0 0 0 1.707 0 1.281 1.281 0 1 1 1.278 1.281.854.854 0 0 0 -.854.854v1.707a.854.854 0 1 0 1.707 0v-.992a2.979 2.979 0 0 0 -.854-5.839z" transform="translate(1.36 .96)"/><circle cx=".854" cy=".854" r=".854" transform="translate(9.391 13.66)"/></g><g clip-path="url(#b)" transform="translate(2 48.334)"><path d="m18.462 20.083h7.592l-1.745 1.789 1.2 1.2 3.842-3.842-3.842-3.842-1.241 1.2 1.789 1.789h-7.595z" transform="translate(-12.698 -10.902)"/><path d="m12.928 19.556a6.616 6.616 0 1 1 4.663-11.3l1.209-1.215a8.846 8.846 0 0 0 -1.109-.929 8.331 8.331 0 1 0 1.1 12.723l-1.209-1.209a6.551 6.551 0 0 1 -4.663 1.929zm7.7-6.582-.034-.034.034-.034.034.034z" transform="translate(-4.615 -4.615)"/></g></g></svg>