<svg height="113.572" viewBox="0 0 26.391 113.572" width="26.391" xmlns="http://www.w3.org/2000/svg" xmlns:xlink="http://www.w3.org/1999/xlink"><clipPath id="a"><path d="m23.902 7.447h26.391v26.391h-26.391z"/></clipPath><clipPath id="b"><path d="m0 0h19.979v19.979h-19.979z"/></clipPath><g clip-path="url(#a)" transform="translate(-23.902 -7.447)"><g fill="#eba00c" transform="translate(23.902 7.447)"><path d="m0 0h26.391v26.391h-26.391z" opacity="0"/><path d="m9.9 12.1a4.4 4.4 0 1 0 -4.4-4.4 4.4 4.4 0 0 0 4.4 4.4z"/><path d="m18.694 14.3a3.3 3.3 0 1 0 -3.3-3.3 3.3 3.3 0 0 0 3.3 3.3z"/><path d="m23.092 21.993a1.1 1.1 0 0 0 1.1-1.1 5.5 5.5 0 0 0 -8.863-4.344 7.7 7.7 0 0 0 -13.129 5.444 1.1 1.1 0 0 0 1.1 1.1h13.2a1.1 1.1 0 0 0 1.1-1.1"/></g></g><g clip-path="url(#b)" transform="translate(2.968 47.149)"><path d="m4.037 5.7v16.651a1.667 1.667 0 0 0 1.663 1.666h16.651a1.667 1.667 0 0 0 1.666-1.666v-16.651a1.667 1.667 0 0 0 -1.666-1.666h-16.651a1.664 1.664 0 0 0 -1.663 1.666zm4.288 14.269a.959.959 0 1 1 .826-.826.956.956 0 0 1 -.826.826zm0-4.994a.959.959 0 1 1 .826-.826.956.956 0 0 1 -.826.826zm0-4.994a.959.959 0 1 1 .826-.826.956.956 0 0 1 -.826.827zm11.875 9.709h-8.639a.672.672 0 1 1 0-1.344h8.639a.672.672 0 1 1 0 1.344zm0-4.994h-8.639a.672.672 0 0 1 0-1.344h8.639a.672.672 0 1 1 0 1.344zm0-4.994h-8.639a.672.672 0 0 1 0-1.344h8.639a.672.672 0 1 1 0 1.344z" fill="#eba00c" transform="translate(-4.037 -4.037)"/></g><path d="m17.483 19.98v-19.98h2.5v19.98zm-17.483 0v-19.98h2.5v19.98zm13.736-2.627v-17.353h2.5v17.353zm-6.244 0v-17.353h5v17.353zm-3.746 0v-17.353h2.5v17.353z" fill="#eba00c" transform="translate(3.341 93.592)"/></svg>