<svg height="112.572" viewBox="0 0 26.811 112.572" width="26.811" xmlns="http://www.w3.org/2000/svg" xmlns:xlink="http://www.w3.org/1999/xlink"><clipPath id="a"><path d="m0 0h25.983v25.983h-25.983z"/></clipPath><clipPath id="b"><path d="m0 0h26.391v26.391h-26.391z"/></clipPath><g fill="#fffef5"><g clip-path="url(#a)" transform="translate(.828 43.312)"><path d="m0 0h25.983v25.983h-25.983z" opacity="0" transform="matrix(-1 0 0 -1 25.983 25.983)"/><circle cx="1.083" cy="1.083" r="1.083" transform="translate(3.248 6.496)"/><circle cx="1.083" cy="1.083" r="1.083" transform="translate(3.248 11.909)"/><circle cx="1.083" cy="1.083" r="1.083" transform="translate(3.248 17.322)"/><rect height="2.165" rx=".784" transform="translate(7.579 11.909)" width="15.157"/><rect height="2.165" rx=".784" transform="translate(7.579 17.322)" width="15.157"/><rect height="2.165" rx=".784" transform="translate(7.579 6.496)" width="15.157"/></g><g clip-path="url(#b)"><path d="m0 0h26.391v26.391h-26.391z" opacity="0"/><path d="m9.255 11.711a4.4 4.4 0 1 0 -4.4-4.4 4.4 4.4 0 0 0 4.4 4.4zm0-6.6a2.2 2.2 0 1 1 -2.2 2.2 2.2 2.2 0 0 1 2.2-2.198z" transform="translate(.642 .385)"/><path d="m16.9 13.4a3.3 3.3 0 1 0 -3.3-3.3 3.3 3.3 0 0 0 3.3 3.3zm0-4.4a1.1 1.1 0 1 1 -1.1 1.1 1.1 1.1 0 0 1 1.1-1.1z" transform="translate(1.798 .899)"/><path d="m18.437 13.724a5.5 5.5 0 0 0 -3.365 1.155 7.7 7.7 0 0 0 -13.13 5.443 1.1 1.1 0 1 0 2.2 0 5.5 5.5 0 0 1 11 0 1.1 1.1 0 1 0 2.2 0 7.587 7.587 0 0 0 -.946-3.684 3.3 3.3 0 0 1 5.344 2.584 1.1 1.1 0 1 0 2.2 0 5.5 5.5 0 0 0 -5.503-5.498z" transform="translate(.257 1.671)"/></g><path d="m17.483 19.98v-19.98h2.5v19.98zm-17.483 0v-19.98h2.5v19.98zm13.736-2.627v-17.353h2.5v17.353zm-6.244 0v-17.353h5v17.353zm-3.746 0v-17.353h2.5v17.353z" transform="translate(4.341 92.592)"/></g></svg>