<svg height="113.348" viewBox="0 0 26.563 113.348" width="26.563" xmlns="http://www.w3.org/2000/svg" xmlns:xlink="http://www.w3.org/1999/xlink"><clipPath id="a"><path d="m23.902 7.447h26.391v26.391h-26.391z"/></clipPath><clipPath id="b"><path d="m0 0h25.983v25.983h-25.983z"/></clipPath><clipPath id="c"><path d="m0 0h23.349v23.349h-23.349z"/></clipPath><g clip-path="url(#a)" transform="translate(-23.73 -7.447)"><g fill="#fffef5" transform="translate(23.902 7.447)"><path d="m0 0h26.391v26.391h-26.391z" opacity="0"/><path d="m9.9 12.1a4.4 4.4 0 1 0 -4.4-4.4 4.4 4.4 0 0 0 4.4 4.4z"/><path d="m18.694 14.3a3.3 3.3 0 1 0 -3.3-3.3 3.3 3.3 0 0 0 3.3 3.3z"/><path d="m23.092 21.993a1.1 1.1 0 0 0 1.1-1.1 5.5 5.5 0 0 0 -8.863-4.344 7.7 7.7 0 0 0 -13.129 5.444 1.1 1.1 0 0 0 1.1 1.1h13.2a1.1 1.1 0 0 0 1.1-1.1"/></g></g><g fill="#fffef5"><g clip-path="url(#b)" transform="translate(0 44.312)"><path d="m0 0h25.983v25.983h-25.983z" opacity="0" transform="matrix(-1 0 0 -1 25.983 25.983)"/><circle cx="1.083" cy="1.083" r="1.083" transform="translate(3.248 6.496)"/><circle cx="1.083" cy="1.083" r="1.083" transform="translate(3.248 11.909)"/><circle cx="1.083" cy="1.083" r="1.083" transform="translate(3.248 17.322)"/><rect height="2.165" rx=".784" transform="translate(7.579 11.909)" width="15.157"/><rect height="2.165" rx=".784" transform="translate(7.579 17.322)" width="15.157"/><rect height="2.165" rx=".784" transform="translate(7.579 6.496)" width="15.157"/></g><g clip-path="url(#c)" transform="translate(1.902 89.999)"><path d="m19.068 9.986c-1.9-.439-3.67-.823-2.813-2.438 2.608-4.918.691-7.548-2.064-7.548-2.809 0-4.679 2.731-2.063 7.548.882 1.625-.953 2.009-2.813 2.438-1.537.355-1.735 1.078-1.755 2.3a.95.95 0 0 0 .954.954h11.354a.949.949 0 0 0 .955-.954c-.023-1.222-.223-1.946-1.755-2.3z" transform="translate(-2.517 5.053)"/><path d="m4.751 11.375a2.829 2.829 0 0 1 1.887-1.135l.116-.027c.2-.046.4-.092.593-.139-.739-.274-1.157-.674-.734-1.474 1.987-3.741.526-5.741-1.569-5.741-2.136 0-3.558 2.077-1.569 5.741.672 1.236-.725 1.528-2.14 1.854-1.169.269-1.32.82-1.335 1.752a.722.722 0 0 0 .726.725h3.612a3.023 3.023 0 0 1 .413-1.557z" transform="translate(0 4.101)"/><path d="m29.891 10.454c-1.446-.334-2.792-.625-2.14-1.854 1.984-3.741.526-5.741-1.569-5.741-2.136 0-3.558 2.077-1.569 5.741.432.8.006 1.2-.731 1.475.2.05.415.1.63.148l.075.017a2.83 2.83 0 0 1 1.887 1.134 3.023 3.023 0 0 1 .413 1.557h3.613a.722.722 0 0 0 .726-.725c-.015-.932-.166-1.483-1.335-1.752z" transform="translate(-7.876 4.101)"/></g></g></svg>