<?xml version="1.0" encoding="utf-8"?>
<!-- Generator: Adobe Illustrator 24.1.3, SVG Export Plug-In . SVG Version: 6.00 Build 0)  -->
<svg version="1.1" id="Layer_1" xmlns="http://www.w3.org/2000/svg" xmlns:xlink="http://www.w3.org/1999/xlink" x="0px" y="0px"
	 viewBox="0 0 512 512" style="enable-background:new 0 0 512 512;" xml:space="preserve">
<style type="text/css">
	.st0{fill:#FFFEF5;}
</style>
<path class="st0" d="M69.9,88.9c0-11,8.9-20,20-20s20,8.9,20,20c0,11-8.9,20-20,20S69.9,100,69.9,88.9z M159.9,108.9
	c11,0,20-8.9,20-20c0-11-8.9-20-20-20s-20,8.9-20,20C139.9,100,148.8,108.9,159.9,108.9z M512,418.6l-84.9,85.1l-138-134.2
	c-7.7-7.7-13.6-17.3-17.1-27.7l-0.3-0.9l-21.4-95.4l95.1,21.6l0.9,0.3c10.3,3.4,19.8,9.3,27.6,17L512,418.6z M455.1,419L345.8,312.7
	c-0.8-0.8-1.6-1.5-2.4-2.2l-28.2,28.2c0.7,0.8,1.4,1.6,2.1,2.4l109.4,106.4L455.1,419z M310.7,448.6l41.1,40H59.9
	C26.9,488.6,0,461.7,0,428.6V68.9C0,35.9,26.9,9,59.9,9h391.6c33.1,0,59.9,26.9,59.9,59.9v291.4l-40-38.9V168.9H40v259.8
	c0,11,9,20,20,20H310.7z M40,68.9v59.9h431.6V68.9c0-11-9-20-20-20H59.9C48.9,49,40,57.9,40,68.9z"/>
</svg>
