<svg viewBox="0 0 186.015 185.412" xmlns="http://www.w3.org/2000/svg"><g transform="translate(-870.628 -452.26)"><path d="m1056.643 499.038c-.141 7.9-3.511 14.728-9.244 20.481q-27.663 27.759-55.363 55.48c-13.292 13.3-26.646 26.541-39.894 39.886a22.621 22.621 0 0 1 -11.793 6.452c-16.015 3.652-31.792 8.351-47.659 12.65-4.326 1.172-8.618 2.492-12.983 3.492-5.335 1.223-10.228-3.584-8.841-8.807q8.5-32 17.341-63.9c.626-2.243 2.469-4.333 4.187-6.057q48.084-48.261 96.313-96.379c13.659-13.6 29.952-13.369 43.579.274 5.411 5.418 10.892 10.77 16.182 16.3a28.536 28.536 0 0 1 8.175 20.128zm-70.869-12.35c-2.035 1.624-3.136 2.343-4.047 3.253q-36.577 36.552-73.161 73.1c-2.308 2.3-2.365 3.755-.012 6.071 10.8 10.626 21.423 21.425 32.141 32.131a20.531 20.531 0 0 0 2.98 1.96c1.585-1.84 2.99-3.7 4.622-5.331q35.438-35.46 70.982-70.81c2.446-2.424 2.25-3.874-.1-6.019-3.31-3.029-6.412-6.291-9.533-9.521-7.941-8.222-15.846-16.482-23.872-24.834zm45.984 27.548c2.34-2.232 3.688-3.423 4.928-4.716 7.421-7.738 7.352-14.358-.2-21.969q-7.188-7.249-14.383-14.494c-8.047-8.129-16.9-7.884-24.33.959a5 5 0 0 0 -.017 4.763c2.21 2.874 5.077 5.233 7.609 7.869 8.735 9.094 17.435 18.218 26.393 27.588zm-105.275 95.574-27.925-27.93-10.24 38.193z"/><g fill="#fff"><path d="m985.774 486.688c8.025 8.352 15.931 16.611 23.876 24.833 3.121 3.23 6.223 6.492 9.533 9.521 2.346 2.145 2.542 3.595.1 6.019q-35.607 35.286-70.982 70.81c-1.632 1.632-3.037 3.491-4.622 5.331a20.531 20.531 0 0 1 -2.98-1.96c-10.718-10.706-21.344-21.5-32.141-32.131-2.353-2.316-2.3-3.774.012-6.071q36.652-36.478 73.161-73.1c.907-.909 2.008-1.628 4.043-3.252zm-1.38 26.986c-15.78 15.964-30.375 30.686-44.857 45.52a3.472 3.472 0 0 0 -.144 3.385c2.629 2.926 5.573 5.57 8.946 8.84 14.95-15.092 29.472-29.7 43.859-44.442.647-.663.589-2.884-.026-3.753-2.194-3.099-4.772-5.924-7.778-9.55z"/><path d="m1031.758 514.236c-8.958-9.37-17.657-18.494-26.389-27.588-2.532-2.636-5.4-5-7.609-7.869a5 5 0 0 1 .017-4.763c7.428-8.843 16.283-9.088 24.33-.959q7.184 7.255 14.383 14.494c7.548 7.611 7.617 14.231.2 21.969-1.244 1.293-2.59 2.48-4.932 4.716z"/><path d="m926.483 609.81-38.165 10.263 10.24-38.193z"/></g><path d="m984.394 513.674c3.006 3.623 5.584 6.451 7.778 9.55.615.869.673 3.09.026 3.753-14.387 14.741-28.909 29.35-43.859 44.442-3.373-3.27-6.317-5.914-8.946-8.84a3.472 3.472 0 0 1 .144-3.385c14.482-14.834 29.077-29.556 44.857-45.52z"/></g></svg>