<svg xmlns="http://www.w3.org/2000/svg" width="1120" height="712.589" viewBox="0 0 1120 712.589">
  <path id="Union_10" data-name="Union 10" d="M0,712.589V38.626H265.6A19.979,19.979,0,0,0,285.5,20.5l.121-.1a20.477,20.477,0,0,1,5.9-14.428,20.072,20.072,0,0,1,6.4-4.373A19.809,19.809,0,0,1,305.768,0h144.4a19.937,19.937,0,0,1,13.781,5.518A20.426,20.426,0,0,1,470.269,19c.005.343.021.689.044,1.031,0,.127,0,.254,0,.377l.028.018a19.982,19.982,0,0,0,19.9,18.2H1120V712.589Z" transform="translate(0)" fill="#f2f2f2"/>
</svg>
