<svg height="70.669" viewBox="0 0 271.061 70.669" width="271.061" xmlns="http://www.w3.org/2000/svg" xmlns:xlink="http://www.w3.org/1999/xlink"><filter id="a" filterUnits="userSpaceOnUse" height="70.669" width="271.061" x="0" y="0"><feOffset dy="5"/><feGaussianBlur result="blur" stdDeviation="5"/><feFlood flood-opacity=".102"/><feComposite in2="blur" operator="in"/><feComposite in="SourceGraphic"/></filter><g filter="url(#a)"><path d="m241.061 40.669h-241.061l2.557-2.043h2.792a19.98 19.98 0 0 0 19.894-18.126l.122-.1a20.47 20.47 0 0 1 5.9-14.428 20.067 20.067 0 0 1 6.405-4.372 19.805 19.805 0 0 1 7.843-1.6h144.4a19.939 19.939 0 0 1 13.781 5.518 20.424 20.424 0 0 1 6.32 13.482c.006.343.021.69.044 1.032v.377l.027.018a19.981 19.981 0 0 0 19.9 18.2h7.946l3.122 2.041z" fill="#f2f2f2" transform="translate(15 10)"/></g></svg>