<svg xmlns="http://www.w3.org/2000/svg" width="241.061" height="40.669" viewBox="0 0 241.061 40.669">
  <path id="Subtraction_4" data-name="Subtraction 4" d="M241.061,40.669H0l2.557-2.043H5.389a19.982,19.982,0,0,0,19.9-18.16l.078-.062a20.47,20.47,0,0,1,5.9-14.428A20.067,20.067,0,0,1,37.67,1.6,19.805,19.805,0,0,1,45.513,0h144.4a19.807,19.807,0,0,1,7.843,1.6,20.069,20.069,0,0,1,6.4,4.373,20.469,20.469,0,0,1,5.9,14.428l.062.041A19.979,19.979,0,0,0,230.1,39.958h9.876l1.085.709,0,0h0Z" fill="#e6e6e6"/>
</svg>
