<svg height="70.669" viewBox="0 0 271.061 70.669" width="271.061" xmlns="http://www.w3.org/2000/svg" xmlns:xlink="http://www.w3.org/1999/xlink"><filter id="a" filterUnits="userSpaceOnUse" height="70.669" width="271.061" x="0" y="0"><feOffset dy="5"/><feGaussianBlur result="blur" stdDeviation="5"/><feFlood flood-opacity=".102"/><feComposite in2="blur" operator="in"/><feComposite in="SourceGraphic"/></filter><g filter="url(#a)"><path d="m241.061 40.669h-241.061l2.557-2.043h2.832a19.982 19.982 0 0 0 19.9-18.16l.078-.062a20.47 20.47 0 0 1 5.9-14.428 20.067 20.067 0 0 1 6.403-4.376 19.805 19.805 0 0 1 7.843-1.6h144.4a19.807 19.807 0 0 1 7.843 1.6 20.069 20.069 0 0 1 6.4 4.373 20.469 20.469 0 0 1 5.9 14.428l.062.041a19.979 19.979 0 0 0 19.982 19.516h9.876l1.085.709z" fill="#e6e6e6" transform="translate(15 10)"/></g></svg>