<svg height="538.716" viewBox="0 0 1183.396 538.716" width="1183.396" xmlns="http://www.w3.org/2000/svg">
    <g fill="none" stroke="#707070">
        <path d="m10459 12258.06v537.716h1182.394" stroke-width="2" transform="translate(-10458.001 -12258.06)"/>
        <path d="m10459 12798.905s8.667-149.191 158.388-214.057 673.238-86.561 1024.006-86.561"
              transform="translate(-10457.999 -12261.188)"/>
        <path d="m186.059 201.778v110.541" stroke-width="2"/>
    </g>
    <ellipse cx="186.059" cy="313.306" rx="5.428" ry="5.428"/>
    <path d="m0 0v110.541" fill="none" stroke="#707070" stroke-width="2" transform="matrix(-1 0 0 -1 378.52 387.823)"/>
    <ellipse cx="5.428" cy="5.428" rx="5.428" ry="5.428" transform="matrix(-1 0 0 -1 383.948 281.723)"/>
    <path d="m590.718 168.221v86.854" fill="none" stroke="#707070" stroke-width="2"/>
    <ellipse cx="590.718" cy="256.061" rx="5.428" ry="5.428"/>
    <path d="m0 0v110.541" fill="none" stroke="#707070" stroke-width="2" transform="matrix(-1 0 0 -1 823.645 355.252)"/>
    <ellipse cx="5.428" cy="5.428" rx="5.428" ry="5.428" transform="matrix(-1 0 0 -1 829.073 249.152)"/>
    <path d="m1041.765 160.325v76.984" fill="none" stroke="#707070" stroke-width="2"/>
    <ellipse cx="1041.765" cy="238.296" rx="5.428" ry="5.428"/>
</svg>