<svg xmlns="http://www.w3.org/2000/svg" width="1183.396" height="538.716" viewBox="0 0 1183.396 538.716">
  <g id="Group_183" data-name="Group 183" transform="translate(-208.599 -4551.858)">
    <g id="Group_182" data-name="Group 182" transform="translate(173.576 4551.858)">
      <path id="Path_89" data-name="Path 89" d="M10459,12258.06v537.716h1182.394" transform="translate(-10422.978 -12258.06)" fill="none" stroke="#707070" stroke-width="2"/>
      <path id="Path_90" data-name="Path 90" d="M10459,12798.905s8.667-149.191,158.388-214.057,673.238-86.561,1024.006-86.561" transform="translate(-10422.976 -12261.188)" fill="none" stroke="#707070" stroke-width="1"/>
    </g>
    <g id="Group_57" data-name="Group 57" transform="translate(389.23 4753.636)">
      <line id="Line_36" data-name="Line 36" y2="110.541" transform="translate(5.428)" fill="none" stroke="#707070" stroke-width="2"/>
      <ellipse id="Ellipse_17" data-name="Ellipse 17" cx="5.428" cy="5.428" rx="5.428" ry="5.428" transform="translate(0 106.1)"/>
    </g>
    <g id="Group_60" data-name="Group 60" transform="translate(592.547 4939.681) rotate(180)">
      <line id="Line_36-2" data-name="Line 36" y2="110.541" transform="translate(5.428)" fill="none" stroke="#707070" stroke-width="2"/>
      <ellipse id="Ellipse_17-2" data-name="Ellipse 17" cx="5.428" cy="5.428" rx="5.428" ry="5.428" transform="translate(0 106.1)"/>
    </g>
    <g id="Group_58" data-name="Group 58" transform="translate(793.889 4720.079)">
      <line id="Line_36-3" data-name="Line 36" y2="86.854" transform="translate(5.428 0)" fill="none" stroke="#707070" stroke-width="2"/>
      <ellipse id="Ellipse_17-3" data-name="Ellipse 17" cx="5.428" cy="5.428" rx="5.428" ry="5.428" transform="translate(0 82.412)"/>
    </g>
    <g id="Group_61" data-name="Group 61" transform="translate(1037.672 4907.11) rotate(180)">
      <line id="Line_36-4" data-name="Line 36" y2="110.541" transform="translate(5.428)" fill="none" stroke="#707070" stroke-width="2"/>
      <ellipse id="Ellipse_17-4" data-name="Ellipse 17" cx="5.428" cy="5.428" rx="5.428" ry="5.428" transform="translate(0 106.1)"/>
    </g>
    <g id="Group_59" data-name="Group 59" transform="translate(1244.936 4712.183)">
      <line id="Line_36-5" data-name="Line 36" y2="76.984" transform="translate(5.428 0)" fill="none" stroke="#707070" stroke-width="2"/>
      <ellipse id="Ellipse_17-5" data-name="Ellipse 17" cx="5.428" cy="5.428" rx="5.428" ry="5.428" transform="translate(0 72.543)"/>
    </g>
  </g>
</svg>
