<?xml version="1.0" encoding="UTF-8" standalone="no"?><!DOCTYPE svg PUBLIC "-//W3C//DTD SVG 1.1//EN"
        "http://www.w3.org/Graphics/SVG/1.1/DTD/svg11.dtd">
<svg width="100%" height="100%" viewBox="0 0 24 24" version="1.1" xmlns="http://www.w3.org/2000/svg"
     xml:space="preserve"
     style="fill-rule:evenodd;clip-rule:evenodd;stroke-linejoin:round;stroke-miterlimit:1.41421;"><g><rect x="0" y="0" width="24" height="24" style="fill:none;"/><path
        d="M12,14.5c-0.266,0.002 -0.521,-0.103 -0.71,-0.29l-4,-4c-0.188,-0.188 -0.294,-0.444 -0.294,-0.71c0,-0.551 0.453,-1.004 1.004,-1.004c0.266,0 0.522,0.106 0.71,0.294l3.29,3.31l3.3,-3.18c0.19,-0.211 0.46,-0.331 0.744,-0.331c0.548,0 1,0.451 1,1c0,0.298 -0.134,0.581 -0.364,0.771l-4,3.86c-0.183,0.176 -0.426,0.276 -0.68,0.28Z"
        style="fill-rule:nonzero;"/></g></svg>