<?xml version="1.0" encoding="utf-8"?>
<!-- Generator: Adobe Illustrator 23.0.2, SVG Export Plug-In . SVG Version: 6.00 Build 0)  -->
<svg version="1.1" id="Layer_1" xmlns="http://www.w3.org/2000/svg" xmlns:xlink="http://www.w3.org/1999/xlink" x="0px" y="0px"
	 viewBox="0 0 1920 1080" style="enable-background:new 0 0 1920 1080;" xml:space="preserve">
<style type="text/css">
	.st0{fill-rule:evenodd;clip-rule:evenodd;fill:#EA9A07;}
</style>
<path class="st0" d="M1475.4,222.9c0-2.6-0.3-5.2-1-7.7c-0.1-0.5-0.3-1-0.5-1.5c-0.6-2-1.3-3.9-2.2-5.7c-0.4-0.8-0.8-1.5-1.3-2.2
	c-0.9-1.5-1.9-3-3-4.4c-0.5-0.7-1.1-1.3-1.7-1.9c-1.3-1.4-2.9-2.7-4.5-4c-0.4-0.3-0.7-0.7-1.1-1c-0.1-0.1-0.3-0.1-0.4-0.2
	c-2.1-1.4-4.4-2.7-6.8-3.6L964.9,2.3c-8.1-3.1-17.1-3.1-25.2,0L451.9,190.5h0l-0.3,0.1c-2.5,1-4.7,2.2-6.8,3.6
	c-0.1,0.1-0.2,0.1-0.4,0.2c-0.4,0.3-0.7,0.7-1.1,1c-1.6,1.2-3.1,2.5-4.5,4c-0.6,0.6-1.1,1.3-1.6,1.9c-1.1,1.4-2.1,2.9-3,4.4
	c-0.4,0.8-0.9,1.5-1.3,2.2c-0.9,1.8-1.6,3.8-2.2,5.7c-0.1,0.5-0.4,1-0.5,1.5c-0.6,2.5-0.9,5.1-1,7.7c0,0.1-0.1,0.3-0.1,0.4v622.5
	c0,14.5,8.9,27.5,22.4,32.7l488.1,188.3c1,0.4,2.1,0.6,3.2,0.9c0.9,0.3,1.8,0.6,2.7,0.8c2.2,0.4,4.5,0.7,6.7,0.7
	c2.2,0,4.5-0.3,6.7-0.7c1-0.2,1.8-0.5,2.7-0.8c1.1-0.3,2.1-0.5,3.2-0.9L1453,878.5c13.5-5.2,22.4-18.2,22.4-32.7V223.3
	C1475.5,223.2,1475.4,223,1475.4,222.9L1475.4,222.9z M952.3,374.1l-146.7-56.6l390.8-150.8l146.7,56.6L952.3,374.1L952.3,374.1z
	 M952.3,72.6l146.7,56.6L708.3,279.9l-146.8-56.6L952.3,72.6L952.3,72.6z M499.2,274.4l174,67.1v271.3c0,19.3,15.7,35,35,35
	c19.3,0,35-15.7,35-35V368.5l174,67.1v547.4L499.2,821.8L499.2,274.4L499.2,274.4z M1405.4,821.8L987.3,983.1V435.7l418.1-161.3
	V821.8z"/>
</svg>
