<?xml version="1.0" encoding="UTF-8" standalone="no"?><!DOCTYPE svg PUBLIC "-//W3C//DTD SVG 1.1//EN"
        "http://www.w3.org/Graphics/SVG/1.1/DTD/svg11.dtd">
<svg width="100%" height="100%" viewBox="0 0 58 59" version="1.1" xmlns="http://www.w3.org/2000/svg"
     xml:space="preserve"
     style="fill-rule:evenodd;clip-rule:evenodd;stroke-linejoin:round;stroke-miterlimit:1.41421;"><path d="M57.156,12.176c-0.001,-0.144 -0.018,-0.285 -0.052,-0.423c-0.006,-0.028 -0.018,-0.053 -0.027,-0.08c-0.031,-0.109 -0.07,-0.213 -0.119,-0.314c-0.021,-0.042 -0.045,-0.081 -0.069,-0.122c-0.048,-0.083 -0.103,-0.163 -0.164,-0.239c-0.03,-0.036 -0.059,-0.072 -0.092,-0.106c-0.073,-0.079 -0.156,-0.15 -0.244,-0.216c-0.022,-0.017 -0.038,-0.038 -0.061,-0.054c-0.006,-0.004 -0.014,-0.006 -0.02,-0.01c-0.116,-0.077 -0.239,-0.146 -0.374,-0.197l-26.666,-10.287c-0.443,-0.171 -0.934,-0.171 -1.377,0l-26.646,10.279c0,0 -0.001,0 -0.001,0l-0.019,0.008c-0.135,0.052 -0.258,0.12 -0.374,0.197c-0.006,0.004 -0.013,0.006 -0.02,0.01c-0.022,0.016 -0.038,0.037 -0.059,0.053c-0.089,0.066 -0.172,0.138 -0.247,0.217c-0.032,0.034 -0.06,0.07 -0.09,0.106c-0.062,0.076 -0.116,0.156 -0.165,0.239c-0.024,0.041 -0.048,0.08 -0.069,0.122c-0.049,0.1 -0.088,0.205 -0.119,0.314c-0.008,0.027 -0.02,0.052 -0.027,0.08c-0.033,0.138 -0.05,0.279 -0.052,0.423c0,0.008 -0.003,0.016 -0.003,0.024l0,34.009c0,0.791 0.487,1.501 1.225,1.785l26.666,10.287c0.057,0.021 0.116,0.032 0.174,0.049c0.05,0.014 0.097,0.032 0.148,0.042c0.121,0.023 0.244,0.037 0.367,0.037c0.122,0 0.245,-0.014 0.365,-0.037c0.052,-0.01 0.099,-0.028 0.149,-0.042c0.058,-0.017 0.117,-0.028 0.174,-0.049l26.666,-10.287c0.738,-0.284 1.225,-0.994 1.225,-1.785l0,-34.009c0,-0.008 -0.003,-0.016 -0.003,-0.024Zm-28.576,8.26l-8.016,-3.092l21.349,-8.236l8.016,3.092l-21.349,8.236Zm0,-16.472l8.016,3.092l-21.349,8.236l-8.017,-3.092l21.35,-8.236Zm-24.753,11.025l9.506,3.667l0,14.82c0,1.056 0.857,1.913 1.914,1.913c1.056,0 1.913,-0.857 1.913,-1.913l0,-13.343l9.506,3.667l0,29.906l-22.839,-8.81l0,-29.907Zm49.505,29.907l-22.839,8.81l0,-29.906l22.839,-8.811l0,29.907Z"/></svg>