<svg enable-background="new 0 0 1920 1080" viewBox="0 0 1920 1080" xmlns="http://www.w3.org/2000/svg">
    <path clip-rule="evenodd"
          d="m1475.4 222.9c0-2.6-.3-5.2-1-7.7-.1-.5-.3-1-.5-1.5-.6-2-1.3-3.9-2.2-5.7-.4-.8-.8-1.5-1.3-2.2-.9-1.5-1.9-3-3-4.4-.5-.7-1.1-1.3-1.7-1.9-1.3-1.4-2.9-2.7-4.5-4-.4-.3-.7-.7-1.1-1-.1-.1-.3-.1-.4-.2-2.1-1.4-4.4-2.7-6.8-3.6l-488-188.4c-8.1-3.1-17.1-3.1-25.2 0l-487.8 188.2-.3.1c-2.5 1-4.7 2.2-6.8 3.6-.1.1-.2.1-.4.2-.4.3-.7.7-1.1 1-1.6 1.2-3.1 2.5-4.5 4-.6.6-1.1 1.3-1.6 1.9-1.1 1.4-2.1 2.9-3 4.4-.4.8-.9 1.5-1.3 2.2-.9 1.8-1.6 3.8-2.2 5.7-.1.5-.4 1-.5 1.5-.6 2.5-.9 5.1-1 7.7 0 .1-.1.3-.1.4v622.5c0 14.5 8.9 27.5 22.4 32.7l488.1 188.3c1 .4 2.1.6 3.2.9.9.3 1.8.6 2.7.8 2.2.4 4.5.7 6.7.7s4.5-.3 6.7-.7c1-.2 1.8-.5 2.7-.8 1.1-.3 2.1-.5 3.2-.9l488.2-188.2c13.5-5.2 22.4-18.2 22.4-32.7v-622.5c.1-.1 0-.3 0-.4zm-523.1 151.2-146.7-56.6 390.8-150.8 146.7 56.6zm0-301.5 146.7 56.6-390.7 150.7-146.8-56.6zm-453.1 201.8 174 67.1v271.3c0 19.3 15.7 35 35 35s35-15.7 35-35v-244.3l174 67.1v547.4l-418-161.2zm906.2 547.4-418.1 161.3v-547.4l418.1-161.3z"
          fill="#ea9a07" fill-rule="evenodd"/>
</svg>