<svg height="62.35" viewBox="0 0 66.688 62.35" width="66.688" xmlns="http://www.w3.org/2000/svg">
    <path d="m1.94 42.474 32.856 9.7z" fill="none" stroke="#000" stroke-miterlimit="10"
          transform="translate(-1.452 -32.283)"/>
    <g fill="#3e280a">
        <path d="m65.36 45.49-7.09 2.092 32.856 9.7 7.09-2.092z" transform="translate(-43.619 -41.57)"/>
        <path d="m196.04 99.523v-15.473l-7.09 2.092v15.473z" transform="translate(-141.443 -70.435)"/>
        <path d="m50.05 112.665 16.282 4.8v-2.205l-16.282-4.8z" transform="translate(-37.466 -90.204)"/>
        <path d="m50.05 126.885 16.282 4.8v-2.205l-16.282-4.8z" transform="translate(-37.466 -100.849)"/>
    </g>
    <path d="m150.731 152.3a.525.525 0 0 1 -.138-.02l-32.856-9.705a.49.49 0 0 1 0-.938l32.856-9.7a.47.47 0 0 1 .277 0l32.856 9.693a.49.49 0 0 1 0 .938l-32.856 9.705a.524.524 0 0 1 -.139.027zm-31.131-10.179 31.132 9.177 31.132-9.185-31.132-9.19z"
          fill="#2d2d2d" transform="translate(-117.387 -131.917)"/>
    <path d="m150.724 223.159a.44.44 0 0 1 -.138-.02l-32.856-9.7a.488.488 0 0 1 -.349-.468v-41.971a.49.49 0 0 1 .626-.47l32.856 9.7a.5.5 0 0 1 .349.468v41.986a.485.485 0 0 1 -.488.478zm-32.369-10.535 31.881 9.408v-40.97l-31.881-9.408z"
          fill="#2d2d2d" transform="translate(-117.38 -160.81)"/>
    <path d="m248.548 223.152a.485.485 0 0 1 -.488-.488v-41.978a.5.5 0 0 1 .349-.468l32.856-9.7a.49.49 0 0 1 .626.47v41.976a.488.488 0 0 1 -.349.468l-32.857 9.7a.44.44 0 0 1 -.137.02zm.488-42.1v40.957l31.881-9.4v-40.97z"
          fill="#2d2d2d" transform="translate(-215.203 -160.802)"/>
    <path d="m314.167 239.7a.636.636 0 0 0 0-1.272.636.636 0 0 0 0 1.272z" fill="#eceff1"
          transform="translate(-264.229 -211.65)"/>
    <path d="m315.547 222.472a.636.636 0 0 0 0-1.272.636.636 0 0 0 0 1.272z" fill="#eceff1"
          transform="translate(-265.262 -198.752)"/>
    <path d="m301.167 183.7a.636.636 0 0 0 0-1.272.636.636 0 0 0 0 1.272z" fill="#eceff1"
          transform="translate(-254.497 -169.73)"/>
</svg>