<svg xmlns="http://www.w3.org/2000/svg" width="66.688" height="62.35" viewBox="0 0 66.688 62.35">
  <g id="_384491-PC3XJU-531" data-name="384491-PC3XJU-531" transform="translate(0 -8.222)">
    <path id="Path_770" data-name="Path 770" d="M1.94,42.474l32.856,9.7Z" transform="translate(-1.452 -24.061)" fill="none" stroke="#000" stroke-miterlimit="10" stroke-width="1"/>
    <path id="Path_772" data-name="Path 772" d="M65.36,45.49l-7.09,2.092,32.856,9.7,7.09-2.092Z" transform="translate(-43.619 -33.348)" fill="#3e280a"/>
    <path id="Path_773" data-name="Path 773" d="M196.04,99.523V84.05l-7.09,2.092v15.473Z" transform="translate(-141.443 -62.213)" fill="#3e280a"/>
    <path id="Path_774" data-name="Path 774" d="M50.05,112.665l16.282,4.8v-2.205l-16.282-4.8Z" transform="translate(-37.466 -81.982)" fill="#3e280a"/>
    <path id="Path_775" data-name="Path 775" d="M50.05,126.885l16.282,4.8v-2.205l-16.282-4.8Z" transform="translate(-37.466 -92.627)" fill="#3e280a"/>
    <path id="Path_776" data-name="Path 776" d="M150.731,152.3a.525.525,0,0,1-.138-.02l-32.856-9.705a.49.49,0,0,1,0-.938l32.856-9.7a.47.47,0,0,1,.277,0l32.856,9.693a.49.49,0,0,1,0,.938l-32.856,9.705A.524.524,0,0,1,150.731,152.3ZM119.6,142.121l31.132,9.177,31.132-9.185-31.132-9.19Z" transform="translate(-117.387 -123.695)" fill="#2d2d2d"/>
    <path id="Path_777" data-name="Path 777" d="M150.724,223.159a.44.44,0,0,1-.138-.02l-32.856-9.7a.488.488,0,0,1-.349-.468V171a.49.49,0,0,1,.626-.47l32.856,9.7a.5.5,0,0,1,.349.468v41.986a.485.485,0,0,1-.488.478Zm-32.369-10.535,31.881,9.408v-40.97l-31.881-9.408Z" transform="translate(-117.38 -152.588)" fill="#2d2d2d"/>
    <path id="Path_778" data-name="Path 778" d="M248.548,223.152a.485.485,0,0,1-.488-.488V180.686a.5.5,0,0,1,.349-.468l32.856-9.7a.49.49,0,0,1,.626.47v41.976a.488.488,0,0,1-.349.468l-32.857,9.7A.44.44,0,0,1,248.548,223.152Zm.488-42.1v40.957l31.881-9.4v-40.97Z" transform="translate(-215.203 -152.58)" fill="#2d2d2d"/>
    <path id="Path_781" data-name="Path 781" d="M314.167,239.7a.636.636,0,0,0,0-1.272A.636.636,0,0,0,314.167,239.7Z" transform="translate(-264.229 -203.428)" fill="#eceff1"/>
    <path id="Path_782" data-name="Path 782" d="M315.547,222.472a.636.636,0,0,0,0-1.272A.636.636,0,0,0,315.547,222.472Z" transform="translate(-265.262 -190.53)" fill="#eceff1"/>
    <path id="Path_783" data-name="Path 783" d="M301.167,183.7a.636.636,0,0,0,0-1.272A.636.636,0,0,0,301.167,183.7Z" transform="translate(-254.497 -161.508)" fill="#eceff1"/>
  </g>
</svg>
