<svg viewBox="0 0 1046.3 1069.19" xmlns="http://www.w3.org/2000/svg">
    <path d="m1475.4 222.88a33.47 33.47 0 0 0 -1-7.74 12.56 12.56 0 0 0 -.5-1.46 34.91 34.91 0 0 0 -2.18-5.75c-.38-.77-.82-1.49-1.26-2.24a34.55 34.55 0 0 0 -3-4.37c-.55-.66-1.08-1.32-1.69-1.94a31.81 31.81 0 0 0 -4.46-3.95c-.4-.32-.7-.7-1.12-1-.11-.08-.25-.11-.36-.19a34.34 34.34 0 0 0 -6.85-3.6l-488.07-188.3a35 35 0 0 0 -25.21 0l-487.76 188.16-.34.15a35.12 35.12 0 0 0 -6.85 3.6c-.11.08-.24.11-.37.19-.4.29-.69.67-1.08 1a34.26 34.26 0 0 0 -4.52 4c-.58.62-1.1 1.28-1.64 1.94a34.79 34.79 0 0 0 -3 4.37c-.43.75-.87 1.47-1.26 2.24a34.24 34.24 0 0 0 -2.18 5.75c-.14.49-.36.95-.49 1.46a35.18 35.18 0 0 0 -1 7.74c0 .15-.06.3-.06.44v622.48a35 35 0 0 0 22.43 32.67l488.12 188.31c1 .38 2.12.58 3.18.9s1.78.58 2.71.76a35.38 35.38 0 0 0 6.72.68 34.8 34.8 0 0 0 6.68-.68c1-.18 1.82-.51 2.73-.76s2.14-.52 3.19-.9l488.09-188.31a35 35 0 0 0 22.42-32.67v-622.54c0-.14 0-.29 0-.44zm-523.09 151.2-146.73-56.6 390.79-150.76 146.74 56.6zm0-301.52 146.74 56.6-390.8 150.76-146.75-56.6zm-453.1 201.81 174 67.13v271.28a35 35 0 0 0 70.06 0v-244.24l174 67.12v547.43l-418.06-161.27zm906.19 547.46-418.07 161.26v-547.43l418.07-161.29z"
          fill="#ea9a07" fill-rule="evenodd" transform="translate(-429.15)"/>
</svg>