<?xml version="1.0" encoding="utf-8"?>
<!-- Generator: Adobe Illustrator 24.1.2, SVG Export Plug-In . SVG Version: 6.00 Build 0)  -->
<svg version="1.1" id="Layer_1" xmlns="http://www.w3.org/2000/svg" xmlns:xlink="http://www.w3.org/1999/xlink" x="0px" y="0px"
	 viewBox="0 0 1300.2 635.3" style="enable-background:new 0 0 1300.2 635.3;" xml:space="preserve">
<style type="text/css">
	.st0{fill:#FEF9DC;}
	.st1{fill:none;stroke:#B84D24;stroke-width:4;stroke-linecap:round;stroke-miterlimit:10;}
	.st2{fill:#B84D24;stroke:#B84D24;stroke-width:0.7069;stroke-linecap:round;stroke-miterlimit:10;}
</style>
<g transform="translate(-58.13 -119.59)">
	<path class="st0" d="M373.9,271.3C386,263.2,376.2,284.9,373.9,271.3z M364,272.1c3.3,0,5.1-2,4.6-4.5
		C367.5,268.1,358.5,272.1,364,272.1L364,272.1z M383.7,205.8c2.5-1.2,4.1-2.7,7.2-3.1c-4.6-4.3-10.8-3.5-16.7-3.4
		C374.3,205,378.1,207.3,383.7,205.8z M956.1,497.1c-2.1,2.7-0.6,17.7,5,12.6C964.4,506.8,957.2,498.2,956.1,497.1z M1189.5,689.6
		c1.4,4.5,5,9.8,9.2,11c0.3-0.8,0.3-1.8,0-2.6h3.1c0.2-3.8,1.2-4.6,1.2-8.2C1200.2,690.6,1189.2,687.6,1189.5,689.6
		C1189.7,690.2,1189.5,689.3,1189.5,689.6L1189.5,689.6z M1201.3,684.1c0.1,1.8,1.5,3.3,3.2,3.5
		C1204.5,684.8,1203.3,684.1,1201.3,684.1C1201.3,684.3,1201.5,684.1,1201.3,684.1z M1187.5,683.1c-2.1,1-0.8,2.7,0.7,3.2
		C1188.3,686,1188.7,682.6,1187.5,683.1C1187.1,683.3,1187.7,683.1,1187.5,683.1L1187.5,683.1z M1278.2,714.2c6.1,0,7.6-11.5,15-13
		c-3.2-6.8,9.1-5.8,0.2-11.1c-7-4.2-4.2,3-8.4,7.6c-3.7,4.1-10.6,5.1-13.3,9.8C1269.8,711.1,1270.4,715.1,1278.2,714.2L1278.2,714.2
		z M1273.4,716c-0.5,0.4-1,0.9-1.3,1.4h3C1275.3,716.5,1275,714.9,1273.4,716C1273.2,716.3,1273.7,715.9,1273.4,716L1273.4,716z
		 M1297.5,673.8c0,1.9,0.2,6.7,0.2,7.1c0-0.4-3-0.2-3,2c0,2.9,2.2-0.2,2.7,1.6c-0.1-0.2,3.1,6.8,4.9,6.3c0.7-0.2,2.5-3.6,3.6-4.7
		c5.6-5.3,9.5-11.7-1.9-9.7c0-3.1-1.3-7.9-3.5-3.2c-2.3-1.5-2.7-6.3-5.4-9.1C1290.1,659.1,1297.5,671.9,1297.5,673.8L1297.5,673.8z
		 M1260,606.6c2.9,4.4,5.4,8,11.5,8.7C1271,612.6,1262.5,606.5,1260,606.6z M1137.8,572.9c-4.8,0.8,2.4,1.9,4.2,1.7v-1.5
		C1140.9,573,1136.4,573,1137.8,572.9L1137.8,572.9z M1180.6,574.8c-5.7,7,2,24.1-10.6,20.7c0.1,0-11.5-7.4-11.7-8
		c-2.2-4.7,2.3-7.2,3.7-11c-6.4-0.8-12.6-4.1-18.8-4.1c1.2,1.1,1.1,1.9,3.2,3.2c-1.1-0.7-7.6,3.6-9.3,4.7c-5.1,3.2,2.8,3.9-5.7,5.5
		c-2.8,0.5-4.1-3.4-8.7-1.7c-3.8,1.4-4.3,6.4-8.6,6.4c0.6,1.4,0.8,3.6,1.6,5h-3.3v-2.6c-5-0.3-6.7,10.4-12.4,13.1
		c-4.3,2.1-11,2.7-15.7,4.6c-2.1,0.7-3.5,7.6-5.9,1.9c-2.1,6.3-2.6,10.1,1,16.3c-7.6-3.4,0.6,8.3,2.2,12.4
		c3.2,8.4,6.3,13.9-0.1,19.4c4.4,0,6.9,4.8,12.5,3.9c3.2-0.4,4.8-4.3,8.4-5c2.8-0.7,5.8,2,8.2,1.4s2.6-2.8,4.7-3.6s4.3-3.1,6.6-4
		c1.6-0.7,3,1.7,4.9,1c6.8-2.6,14.4-6.5,22.4-2.3c4.7,2.6,9.3,20.7,14.4,4.4c3.6,1.2-0.2,3.7,0.4,6.8c4.5-2.7,2.8,1.1,2.4,5.1
		c7.4-1.4,4,5.1,9.5,9.5c2.8,1.2,5.7,2.1,8.7,2.7c3.7,0.1,2.6-3.7,4.9-3.8s2.4,4.4,3.9,4.1c7.6-1.6,15.5-4.5,18.3-11.5
		c1.8-4.6,2.2-9.3,5.1-14.2c5.8-9.8,6.8-20.1,1.5-30.6c-1.2-2.5-2.7-3.2-4.5-5.1c-1.2-1.3-1.2-3.7-2.1-4.7c-0.3-0.3-4.2-1.4-5.1-2.3
		c-1.2-1.2-1.1-4-2.4-5.3c-1.8-1.7-6.3-3-7.7-4.7c-3.4-4.2-4.4-12.5-6.9-16.5c-0.8-1.3-3.1-2.2-4.4-4.2c-1.4-2.3-0.7-8.1-4.2-9
		C1180.8,573.3,1180.7,574,1180.6,574.8L1180.6,574.8z M1244.3,567.4c1.1,1.7,2.2,1.1,3.6,0.6C1247.2,566.1,1243.2,565,1244.3,567.4
		z M1225.7,554.7c0,1.6,3.7,3.6,4.7,3.4c-0.9-2.3-3.6-3.8-3.6-6c-0.5-0.1-1,0-1.5,0.2C1225.6,553,1225.8,553.8,1225.7,554.7
		L1225.7,554.7z M1203.9,552.4c0.4,4.8,14.3,2.5,13-5.1C1216.2,547.4,1203.9,554.2,1203.9,552.4C1204,553,1203.9,552.1,1203.9,552.4
		L1203.9,552.4z M1140.5,561.9c0,0.7,5.4,1.6,2.8-3.6C1141.1,558.6,1140.1,559.8,1140.5,561.9L1140.5,561.9z M1121,559.6
		c0.4,2,2.4,1.5,4.2,0.8C1123.7,559.2,1123,560.1,1121,559.6L1121,559.6z M1153,552.1c-1.4,1-2.2,2.5-2.3,4.2
		C1150.7,559.4,1157.8,548.8,1153,552.1L1153,552.1z M1147.6,546c3.5-1.5,7.8,1.5,11.2,3c2.8,1.3,5.6,0.5,7.6,4
		c2.7,4.6-0.4,3.4,0.2,6.1c0.2,0.7-3.7,0.6-2.1,3.7c0.7,1.4,5.1-1.8,6.6-1.4c4.7,1.3,6.6,5.6,12.5,3.8c3.6-1.1,3.5-6.3,9.4-4.2
		c2.3,0.8,2.9,3.7,5,4.9c4,2.3,2,1.6,7.4,2.9c8.2,1.9,5.5,2.5,1.4-3.2c-0.6-0.9-4.6-0.4-5.3-1c0.4,0.3-2.2-6.6-1.7-4.8
		c-0.2-0.6-5.1-4.2,1.3-3.6c-1.2-2.3-7.1-6.5-10-8.2c-5.5-3.2-9.9-4.3-16-6.1c-8.7-2.8-8.2-1.1-15.2,0c-4.3,0.7-9-1.3-15,0.2
		c0.7,2.3,1.6,4.6,2.7,4C1147.9,545.9,1147.5,546.1,1147.6,546L1147.6,546z M1117.5,537.8c-3.3,0.7,3,1.5,4.2,1.3
		C1121.7,537,1119.4,537.5,1117.5,537.8L1117.5,537.8z M1156.7,535c0.3,1.3,0.4,2.7,0.4,4h3.8c-0.6-1.8-1.6-1-1.6-4H1156.7
		C1156.8,535.2,1157.7,534.9,1156.7,535L1156.7,535z M1140.8,535.2c-0.9-0.1-1.8,0.2-2.4,0.8c3.9,2.3,8.2,5.6,13.4,3.2
		C1147.5,531.1,1144.8,536.7,1140.8,535.2L1140.8,535.2z M1139.9,533.9C1145.1,528.7,1131,532.2,1139.9,533.9
		C1140.5,533.3,1139.6,533.8,1139.9,533.9L1139.9,533.9z M1136.1,538.6c1.4,0.6,2,4.2,2.6-0.3
		C1136.7,538.6,1136.5,538.7,1136.1,538.6L1136.1,538.6z M1129.3,543c0,1.4,7.9,2.7,10.2,2.7C1139.1,541.3,1130,542.5,1129.3,543
		L1129.3,543z M1126.3,543.5c-1-0.2-2-0.5-3.1-0.7C1125,547.2,1127.1,544,1126.3,543.5C1125.8,543.3,1126.6,543.6,1126.3,543.5
		L1126.3,543.5z M1131,522.9c-2.7,3.7-4.6,4.3-4.4,9.6c0.4,7.5,2.2-1.6,6.7-0.9c0.3-2.5-1-4.7-3.2-4.5
		C1130.6,525.8,1131,524.4,1131,522.9C1130.6,523.5,1131,523.3,1131,522.9L1131,522.9z M1095.4,543.2c0,0,3.9,4.9,3.4,4.4
		c0.1,1.6,0.4,3.3,0.7,4.9c2.7-1.8,2.1-7.2,2.1-10.2h2.3c0.3,1.2,4.4,10.4,6,9.7c2.9-1.3-2.4-11.3-4.1-13.5
		C1123.3,538.4,1095.4,528.1,1095.4,543.2L1095.4,543.2z M1117.3,527.1c-2.9,1.1-19.7-1.2-18.9,5.8c5.5-2.5,7-2,12.8-3.2
		c1.8-0.4,2.4,1.7,4.6,0.8C1117,529.9,1121.4,525.4,1117.3,527.1L1117.3,527.1z M1113.4,567.8c0,3.3,12.8-3,14.2-4.4
		C1122.6,560.9,1114.3,566.3,1113.4,567.8L1113.4,567.8z M1111.9,571c-1.5,0.2-1.9,0.8-1.1,1.9h2.3
		C1113.2,571.9,1113.2,570.5,1111.9,571L1111.9,571z M1099.9,563.2c3.3,3.3,13.6,0.6,17.4-1C1114.3,561.7,1101.4,561.7,1099.9,563.2
		L1099.9,563.2z M1098.6,565.7c-4.8,1.4,3.9,3.8,5.5,3.7C1103.4,568.6,1100.2,565.4,1098.6,565.7z M1089.1,562.5
		c-2.7,0.2,6.8,0.8,8.7,0.8c-0.6,0.2-0.7-0.2-0.4-1C1094.3,562.2,1092.1,561.9,1089.1,562.5L1089.1,562.5z M1048,556
		c4.3,3.4,10.4,4.4,17.8,5.2c5.9,0.6,13.2,3.7,19.4,2.8c-1.8-3.5-5.4-4.5-9.4-3.7c0.3-2.7,2.2-1.4,4.2-2.6
		C1069.2,556,1059.3,555.7,1048,556L1048,556z M1036.5,550.6C1035.7,552.3,1036.2,553.2,1036.5,550.6z M1063.4,524.8
		c-5,3.5-1.9,9.9,1,13.6c4.1,5.6,5.8,5,13.6,6.3s5.4,3.4,9.9-3.2c0.2-0.3,1-5.5,1.9-7c1.2-1.9,5.5-2.8,6.8-5.7
		c-5-3.2-3.6-4.1-4.7-11.3c3.8,0.2,2.7-2.3,6.4-3.7c0.3,0.9-9.1-6.5-8.3-6.7c-3,0.2-5.2,5.3-7.5,7.4
		C1077.2,519.2,1068.1,528.3,1063.4,524.8L1063.4,524.8z M1023.4,536c0.2,2.5,4.4,8.7,6.8,9.2C1029.7,541.8,1023.4,536.2,1023.4,536
		C1023.5,536.6,1023.4,535.6,1023.4,536L1023.4,536z M1017.3,527.6c1,1.8,2.8,2.3,3.6,4.2c0-2.3-0.6-4-3-5
		C1017.3,528.7,1017.9,527.8,1017.3,527.6L1017.3,527.6z M1014.5,522.6c0-0.6-1.2-2.2-1.2-0.5c-0.1,1.3,1,2.4,2.3,2.5l0,0
		C1016.1,523.7,1015.8,523,1014.5,522.6L1014.5,522.6z M1015.8,513.9c-2.1,0-3.3-2.1-5.3-1.9c0.9,4.4,7.9,8.8,10.2,11.8
		c3.7,4.5,6.7,11.2,10.6,16.3c2.7,3.3,9,12.6,12.5,12.6c7.9,0.2,3.4-7.4,9.7-9.3c-0.7-4.9-5.2-6.7-9.1-4
		C1043.9,533.9,1023.3,514.7,1015.8,513.9C1015.5,514,1016.7,514.1,1015.8,513.9L1015.8,513.9z M1113.7,500.8
		c-4.1,0.4-7.7,3.2-5.5,7.8c3.3-8,8.2,1.2,13.4,3.5c-1.9-4,1.5-4.9,1.5-5c0.1-0.7,1.7-10.4-1.7-10.4S1117.5,503.3,1113.7,500.8
		C1113.2,501,1114.1,501.1,1113.7,500.8L1113.7,500.8z M1102.5,483.3c-0.1,1.4,4.3,12.1,7.4,11.6c-1.6,3.5,4.1,5.9,2.7-1
		C1112,490.9,1105.7,483.7,1102.5,483.3C1102.5,483.8,1102.8,483.4,1102.5,483.3L1102.5,483.3z M1108,482.7c4.7,3.3,7.9,9.6,13,10.7
		c0-5.8-5.4-7.1-5.4-12.3C1112.6,481.1,1111,482.7,1108,482.7C1108.7,483.2,1108.7,482.8,1108,482.7L1108,482.7z M1100.8,486.1
		c-2.8,5.4-10.1,10.9-11.6,15.3C1095.6,501.5,1100.8,492.4,1100.8,486.1C1100.8,486.4,1100.9,486.8,1100.8,486.1L1100.8,486.1z
		 M1103.8,463.9c-5.6,3-4.2,14.4,2.2,16.5C1105.7,476.8,1113.8,464,1103.8,463.9L1103.8,463.9z M1107.5,440c0-1.8-7.5,4.3-6.4,11.3
		h2.2C1103.3,446.6,1107.5,444.3,1107.5,440z M1204.1,355.2c-3.8,0.7-6.2,3.8-11.2,4.2c-5.4,0.4-7.9-0.6-13.6-3.8
		c-0.2,1.7-2.4,14.6-4.7,9.9c-1,1.8-4.4,10,1.1,7.4v1.9c-3.4,0.6-5,11.4-8.7,15.6c0-1.2,0.1-1.8,0-3c-2.2,2.1-2.8,2.9-3.8,5.6
		c-0.8-1.2-2.2,0.9-1.7-2.5c-2.4,1.8-3.4,4.2-3.7,7.8c-7.6-3.3-21.7,3-23,11.3c1.4,0.1,3.5,0,4.4,0c0,3.7-4.1,5.3,1.5,6.9
		c0-3.9,6.2-9.5,0-10c1.3-4,10.8-4,14.8-4.6c-4.3,2.7-11.2,0.1-9.6,7.4c3.5-1.5,6.9-3.1,9.3-5.3c1.8,4,6.6,0.9,5.9-2.6
		c15-1.7,12.2-2.5,15.7-15c2-6.9,4.3-12.4-2.2-17.8c4.4-0.9,11.8,3.3,11.6-1.5C1189.2,367.7,1204.1,359.4,1204.1,355.2
		C1203.9,355.3,1204.1,355.5,1204.1,355.2L1204.1,355.2z M1211.1,351.6c-1.6,0.3-2.4,1.4-3.8,2.1
		C1209.6,355.1,1210.3,353.6,1211.1,351.6C1210.9,351.7,1210.8,352.4,1211.1,351.6L1211.1,351.6z M1229.7,331.4
		c-0.5,1.6-1.3,3-2.3,4.4C1230.5,334.5,1229.7,332,1229.7,331.4L1229.7,331.4z M1275,311.5c-0.4,0-1.1-1.9-2.1-1.1
		c-0.2,0.7-0.3,1.5-0.2,2.2C1273.3,312.7,1275.7,313,1275,311.5L1275,311.5z M1269.9,312.1c-0.8-2.1-0.5-3.5-2.5-5
		c0,2,0.4,3.8,0.6,5.8C1269.3,313.2,1270.3,313.3,1269.9,312.1L1269.9,312.1z M1260,291.5c1.4,0,2.4-1.7,2.5-2.7
		c-3.3-1.3-3.6,0.7-4.9,2.7C1258.4,291.7,1259.2,291.7,1260,291.5z M1347.5,265.1c3.2,0.5,7.6,1.9,10.8,1.5
		C1355.6,261.3,1349.8,265.4,1347.5,265.1C1348.1,265.2,1347.2,265,1347.5,265.1L1347.5,265.1z M1314,218.7
		c4.1,0.9,9.2-0.9,13.4-0.9c-1.1-1.7-4.6-4.1-7.4-4C1319,213.8,1310.8,217.9,1314,218.7L1314,218.7z M1195.6,189.7
		c3.7,1.5,16,5.9,16-1c-5.3-0.3-13.3,0.5-15.5-3.2C1195.8,185.9,1194.4,189.2,1195.6,189.7C1195.8,189.8,1195.3,189.5,1195.6,189.7
		L1195.6,189.7z M1172.9,201.8c4.6,0.7,8.7-0.2,13.1,1.3C1184.4,196.7,1177.3,198.4,1172.9,201.8L1172.9,201.8z M1176.7,197
		c2.5,0-2.1-2.1-3.6-2.1C1173.1,197.3,1174.6,197.1,1176.7,197L1176.7,197z M1162.5,188.5c4.1,6,27.2,4.4,28.8-3.2
		c-3.7-0.7-8.3-2.9-8.3,3.1c-0.8-0.1-1.5-0.1-2.3,0c4-8.4-4.8-3.6-7.7-3.7C1167.1,184.6,1165.6,181.8,1162.5,188.5L1162.5,188.5z
		 M1158.5,187c-0.3-0.7-0.3-1.5,0-2.3C1154.3,184.1,1156.4,188.6,1158.5,187C1158.4,186.8,1158.1,187.3,1158.5,187L1158.5,187z
		 M1156.4,195.1c1.3,3.1,1.1,4.9,4.9,4.4C1159.9,197.9,1158.2,196.4,1156.4,195.1L1156.4,195.1z M1055.6,167.3
		c-1.1-2-4.3-2.5-6.4-1.5C1049.8,166.4,1056.5,169.6,1055.6,167.3C1055.4,167,1055.7,167.6,1055.6,167.3L1055.6,167.3z
		 M1011.5,176.2c1.3-0.4,2.7,0,4,0C1015,171.5,1013,175.2,1011.5,176.2L1011.5,176.2z M1028,169.4c0.8,0,18.7-3.8,19.1-4.3
		c4.4-5.8-8.8-5.2-9.8-5.7c0.9-0.9,1.3-1,1.5-2.1C1031,156,1027.1,169.4,1028,169.4L1028,169.4z M1015.9,150.7
		c-13.2,1.9-11.3,9.4,0.8,10.5c9.2,0.9,9.9,1.1,9.4-4.4c-0.6-7.5,0-3.8-7-3.8c0.5-0.6,0.9-1.4,1-2.2
		C1018.6,150.7,1017.3,150.7,1015.9,150.7L1015.9,150.7z M1004.5,151.4c5.3,2.8,12.7-4.5,15.7-6.4c-6.9-3.3-16.3-3.7-21.8,3.6
		C998.7,149.2,1003.2,150.8,1004.5,151.4C1004.7,151.6,1004.3,151.3,1004.5,151.4L1004.5,151.4z M1003,153.1c-2.5,0-4.3-1.4-6.9-1
		C996.4,159.9,1006.4,153.2,1003,153.1L1003,153.1z M995.2,140.8c-5.7,0-1.3,2.4-1.7,3C992.4,145.7,1000.8,140.8,995.2,140.8
		L995.2,140.8z M847.4,229.7c-3.3-0.6-8.8-4.4-6.4,3.4C843.2,233.1,847,232,847.4,229.7C847.2,229.6,847.4,229.9,847.4,229.7z
		 M862,202.2c-3.4-0.3-10.3,8.4-10.3,13.1c2-0.4,3.3-1.6,4.4,0.8c0.6-0.2,1-0.8,0.8-1.4c0,0,0,0,0-0.1c4.3,2.2,1.3,4.6,3.7,5.7
		c3,1.3,8.9,0.9,12.3,0.9c-0.4-4.6-5.5-6.1-5.9-10.3c-0.4-5.3,4-8.3,7.2-11.6c7.6-7.5,14.6-11.7,25.7-14.4c3.2-0.8,17-3.6,15.5-7.2
		c-2.1-5.2-10.1,0.6-12.9,1.5c-6.9,2.2-29.7,2.8-29.7,11.2c-1.4-0.2-2.8-0.2-4.2,0c3.5,6-8.9,5.8-7.8,9.9c1.3-0.3,1.7-0.8,3-0.6
		C863.2,201.3,865,202.5,862,202.2C861.5,202.2,862.6,202.3,862,202.2L862,202.2z M919,203.9c3,0,4.6-1.9,5.4-2.3
		C926.1,200.8,914.3,203.9,919,203.9z M892,143.9c4.3,6.4,7.1,0.3,11.9-0.6C899.5,140.8,896.1,145.2,892,143.9z M882.7,143.9
		c0,2.2-1.5,1.6-2.7,3.4c3.4,1,7.1,1.2,10.6,0.5C887.5,143.8,887.8,140.9,882.7,143.9L882.7,143.9z M881.4,150.7c-1,0.3-2,0.5-3,0.6
		c0.5,2.6,2.2,1.1,4.4,0.8C882.6,151,882.7,150.4,881.4,150.7C881,150.8,881.6,150.7,881.4,150.7L881.4,150.7z M868.1,149.6
		c1.8,1.5,2,3.9,4.7,0.4c0,4.2,5.5,0.3,6.2-0.4c0.1-0.5,0-1-0.2-1.5C875.5,147.4,870.2,148.9,868.1,149.6L868.1,149.6z M857.3,149.9
		c3.1-3.2,9.8-4.6,14.6-3.4c-1.1-6.8,6.2,2.4,7.2-3.9c-1.6,0.1-3.2,0.1-4.7,0c0.6-0.9,1.9-3.1,2.3-3.6c-2.6,0-4.3,1.6-5.7,2.1
		c-1.7,0.4-3.4,0.9-5.1,1.5c-1.4,0.9-1.9,2.8-3.8,4.2C859.4,148.6,858.1,147.1,857.3,149.9L857.3,149.9z M842.2,144.8
		c-5.6,0-7,2-12.3,0.9c0.3,4.1,7.2,1.3,10.5,1.3c-6.6,4.8,4.5,6,7.8,1.7C853.3,141.8,848.3,144.8,842.2,144.8L842.2,144.8z
		 M733.7,151.3c1.2,3.1,8.1-1.1,9.4,2.4c-1.9-0.1-3.8,0.1-5.7,0c3.5,9.6,22.4,1,26.7-1.5c-4.3-4.7-10.2-0.8-14-1.9
		c0.7-1.4,1.7-1.1,1.3-2.8c-4.5,1.8-3.3,0.2-5.9,4.7C743.9,147.9,731.7,146.9,733.7,151.3C733.7,151.6,733.4,150.8,733.7,151.3
		L733.7,151.3z M726,165.7c0,1-10.1,0.4-11.3,4.6c2.5-0.5,10.1-2.3,11.1-1c-1.5,1-9.8,2.4-9.9,3c-0.2,1.3,7.2,4.9,8.8,7
		c4.9-3.7,9.6-10.9,9.6-16c1.8-0.2,3.6-0.2,5.4,0c-0.6,4.6,0.5,1.3,2.5,4c1.4,1.9-1.5,3.6-1.5,5.6c5.2-3.2,5.7,1.1,7.8,0.8
		s5.8-2.6,7.9-3c-2.3-3-4.6,0.5-4.6-4c-2.2,0.3-17.3-8.7-17.7-10.1c-0.9,0.5-2.1,0.5-3,0c0.6-1,1-2,1.4-3c-5.7-2.7-5.9,0.4-8.5,1.2
		c1.3-0.4-2,3.2-2.4,3.3c0.8-0.3-1.4-4.5-1.8-4.6c0.5,0.2-6.3,2.7-6.2,2.6c0.7-1.2,1.1-2.4,1.7-3.4c-3.3,0.7-17.5,4.1-6.2,5.7
		c0,1.4,0.3,5.1-0.2,6.3c-2.1-1-1.8-2.9-4.4-3.4c1,2,5.1,8.7,5.1,2.7c2.4,0.2,2.5,3.8,5.9,2.6c1.3-0.4,2.1-2.9,3.4-3
		C718.7,163.3,725.6,162.7,726,165.7C726,165.8,725.9,165,726,165.7L726,165.7z M1194.6,288.3c9.5,0,11.1-4,17.6-2.7
		c3.6,0.7-0.7,3.2,3,4.1c5.4,1.3,3.6-4,8.3-0.4c0.4-2.5,2-0.5,4.2-0.8c-1.2-4.7-3-0.5-1.1-5.5c0.8-2.2,5.8-7.1,7.5-8
		c6.1-3.4,11.3-2.1,11.3,4.9c8.2-1.5,10.3-12.8,18.2-11.2c-5.2,4.3-7,11-12.8,15.8c-7.3,6.1-16.7,9.4-19.3,17.4
		c-1.9,5.8-1.7,14-0.6,19.3c1.6,7.3,0.8,8.5,6.2,5.6c5.8-3,6.3-16.2,15.4-13.9c-2.4-4.6-0.6-10.9,4.7-7.6c-1.7-3.8-0.3-7.3-0.8-9.6
		c-0.3-1.2-2.5-0.3-3.4,0c0.2-1.9,3.2-9.2,4.4-10.2c3.1-2.9,3.5-1.2,7.5-2.1c2.1-0.4,1.3,1.5,2.8,1.4c2-0.2,2.5-3.4,4.2-3.5
		c2-0.1,3.9,0.6,6,0.4c4.7-0.5,0.9,2.9,4.6,3.6c0-9,21.4-14.5,27.5-16.3c5.5-1.5,6.1,4.9,4.2-3.4c-1.7-7.4-5.5-4.4-10.2-7.6
		c-2.7-2,11.2-1.5,11.2-1.5c4-1.6,5.3-3.8,3.4-8c2.8-0.2,3.2,2.8,4.2,2.9c2.4,0.4,4.8,0.9,7.2,1.5c3.8,1.8,2.9,3,7.8,4.2
		c6.7,1.7,1.6,1.2,5.1-0.2c2.9-1.1,0.6-4,2.3-5.4c1.5-1.4,11.7,3,7.6-4.4c-1.5-2.6-12-4.4-14.6-3.4c2.3,1.6,2.9,5.4-1,2.6
		c-1.4-1,0.6-4.8-1.2-6.3c-1-0.8-2.8-0.1-3.6-0.8c-2.2-1.6-4.5-3.1-6.9-4.4c-4-2.1-6.4-3.6-10.6-5.6c-8.5-4.2-26.9-7.4-32.4-1.7
		c9.5,3.9-15,7.3-1.9-1.1c-3.9-3-7.2,1.1-11.2,1.6c-4.8,0.6-13.2,1.2-17.4-0.9c-0.1,1.5-0.1,2.9,0,4.4c-6-6.7-5.7-14.4-18.2-13.7
		c-4.6,0.3-9.1,1.8-13.8,0.8c-6.1-1.3-7.3-4.4-12.7-5c1.1-1.4-0.9-0.9,1.9-2.3c-8-4.5-17.3,6.9-13.8-2.4c-4,0-8-2.2-12.2-2.3
		c-8-0.2-6.1,1.1-13.5,2.3c0,3.3,3.8,3.1,3.8,6.6c-2.9-0.7-5.9-1.2-8.9-1.4c0.7,1,2.6,2.4,1.9,4.1c-3.6-0.7-4.3-3.5-7.7-4.1
		c0.2,0-9-0.1-9.5,0c-4.9,1.3-4.1,6.2-7.9,6.2c0.1,0-7.1-6.2-7.6-7.6c-0.6-1.6,2.1-7,0-9.5c-3.2-3.8-5.9,0.3-9.3-0.6
		c-7.5-2-9.9-7.1-9.9,3.2c-5.9,0-9.2,0.6-14.4-1.5c-1.9-0.8-3-3.4-5.4-4c-4.6-1.2-12.8,1-17.7,1v-2.9c-1.8,0.6-4.6,2.3-6.2,0.7
		c0.4-0.1,8.5-3.9,4.7-4.9c-4.2-1.1-6.6,5.5-12.1,4.6c0.8,4.9-7.5,4.5-12,4.5c4.8-0.5,25.9-13.3,26.4-15.9
		c2-11.4-19.6-10.4-24.4-8.6c1-1.2,1.7-1.4,1.7-3.2c-2.8,0.3-5.6-0.6-8.3-0.6c0.9-1.5,2-2.9,3.2-4.1c-11-0.9-11.4,2.9-18.2,6.4
		c0.9,1.1,0.7,0.8,1,2.1c-7.5-1.8-8.1,3.4-14.4,4.1c-2.3,0.2-6.4-2.5-9.8-2.1c-0.6,0.1-7.7,4.4-10.8,5.1c-3.2,0.6-6.4,1.4-9.6,2.4
		c-1.2,0.5-7.9,2.8-8.6,3.9c-3.1,4.7,5.8,1.5,0.3,5.6c-6.1,4.4-17.4-1.3-23.6,4.2c1.7,3.9,12.6,10.3,6.5,10.8
		c-1.8,0.1-4-3.2-5.1-3.6c-4-1.6-8.5-1.9-12.7-0.8c1.8,0.9,4,0.7,4,3.2c-14.1-0.9,2.3,2.4,1.7,6.8c-2.3-3.5-8.4-1.2-11.1-4.7
		c-1-1.2,0.2-7.2-1-9.5c-0.4,0.4-1,0.5-1.5,0.4c0,7-4.2,4.2-4.9,8.3c0,0,1.2,11.6,1.4,12c4,6.6,2.9,0.6,7.9,2.6
		c6.1,2.4,5.8,5.6,5.8,9.6c0,1.4,4.8,2.2,5.5,2.3c-7.9,5.2-6.3-14.4-17-5.7c0,0,0.4,5.2-0.4,6.5c-1.2,2-3,3.5-5.2,4.4
		c-5.8,3.2-5.6,1.9-13,1.4c1.6-2.3,7.6-1.9,10.6-4.5c2.8-2.4,4.7-5.2,4.7-9.2c-4.4,0.4-5.9-16.9-5.5-21.8h2.5
		c1.3-6.3-9.1-7.9-13.6-4.6c-0.6,0.5-7.8,12.1-7.9,12.6c1.2-3.4,1.3,8.2,0.2,6.1c1,2,2.8,1.5,4.2,4.3c0.8,1.8,4.9,1.7,4.2,4.6
		c-1.3,4.9-6.2-1.8-6.5-1.9c-5.5-1.5-9.8-3.5-15.1-5.3c-2.8-0.9-12.8-6.1-14.4-5.9c-7,1.1,13.2,9.1-0.3,14.4c0-10.6-22,7.6-17.9-4.3
		c-5.8,3.4-12.4,3.5-18.3,7.5c-1,0.7-13.6,12.2-12.8,0.6c9.6,0.3-1.6-6.1-7-6.1c2.4,2.4,4.1,14.4,1.7,15.9c0.6-0.3-5.6-1.8-7.4-1.4
		c-1.4,0.3-5.2,4.6-7.9,4.8c0.7,1.1,2.8,4.3,2.7,5.9c-3.9-2-8.5-0.1-11.7-4.2c-7.8,4.2,4,4.7,4,7.2c0,1.9-5.9,1-6.4,0.7
		c-5.9-2.8-2.9-2.1-5.5-6.4c-2.2-3.8-6.9-8.5-10.4-13.1c3.2,0.6,36.3,13.7,32.4-1.7c-1-3.7-10-7.1-13.4-8.4c-5.4-2-13.5-0.6-15.9-2
		c2.8-5.8-8.4-3.9-11-6.3c4.3,0,2.1-2-0.1-3.1c-5.5-2.9-3.2,0.8-7.1,0.8c0.5-1.2,0.9-2.4,1.2-3.7c-1.7-0.3-3.5-0.3-5.2,0
		c0.1,1.9-0.3,3,0,4.7c-1-2.4-1.8-1.9-3.7-3.6c-0.7,4.2-2.6,5.9-2.6,0.6c0.9-0.1,1.8-0.1,2.7,0v-2.4c-1.6,0.2-11.9,5.7-8.2,1.7
		c-7.9-0.8-7.2,3.5-3,5.9c-2.3-0.9-5.3-0.1-7.7-0.9c0,2.2,0.4,2.8-1.2,4c0-2.7-3.9-5.2-6.6-4.9c1.1,3.8-2.5,9.6-3.2,4.2
		c-4.6,4.6-0.3,1.3-1.9,6.3c-3.9-1.6-3-0.5-4.2-4.4c-1.6,0.6-2.5,2.3-5,3.4c0.7,1.2,0.6,0.7,0.6,1.9c-3.6,0-5.7,1.7-7.6,4.1
		c4-1.2,9.8-4.9,14-2.8c-5.6,1.3-13.8,10.8-14.9,17.6c-1.9,0.2-4.7,2-6.3,3.6h3c-0.4,3.7-9.1,7.5-11.7,6.9c0,1.5-0.3,0.9,0.4,2.8
		c-10.3,2.1-11.6,8.1-13.6,15.6c8.5-0.3-3,5.1,4.7,5.8c-0.2,2.1-1.2,2.5-1,4.5c8.4,0,11.5,1,17-6.1c3.7,0.6,6.5,13.8,9.7,17.4
		c0.9,1.1-2.1,2.9,0.3,3.8c5.4,2.1,3.1-1.8,5.4-2.7c4.1-1.4,6.3-2.9,9.9-3.7c0.3-0.6,0.3-1.3,0-1.9c-2,0.2-2.6,0.2-3.8-0.7
		c1.2-1.9,6.1-8,6.4-9c1.2-3.1,5.9-5.9-1.1-5.9c0-5-4.3-9.7,0.9-15.7c2.6-3.1,7.5-3.2,9.9-6.4c1.6-2.1,1.7-8.1,5.4-10.4
		c2.9-1.8,9.5,1.2,10,4.7c1.1,7.3-22.6,11.5-11.7,24.1c7.7,8.9,21.1-1.9,30.1,3.2c-5,5.1-12.2,2.9-18.2,3.6
		c-3.6,0.9-7.2,1.9-10.7,3.2c0.9,0.3,1.5,0.8,2.3,1.1c-1.8,0-3,0.6-4.7,1.2c2.1,5.4,6-0.9,7.4-0.2c2.6,1.3,2.8,2.7,5.1,4.2
		c-6.5,8.3-6.1-1.4-9.8,0c-4.6,1.6-4.3,11.6-4.4,14c-3.9,0-8.9-2.1-5.7,3.2c-5.9-6-9.1,0.4-15.5,1c-2.2,0.2-11.6-5.3-12.2,0.7
		c-2.2-0.1-4.3-0.8-6.2-2.1c0.7-6.5,10.1,2.8,9.1-8.9c-1.4,0.6-6,2.2-6.8,1.9c0.2-1.4,0.6-2.7,1.1-4c-0.7,0.3-1.5,0.3-2.2,0
		c0.8-6.2-0.7-7.3-5.5-2.4c-3.3,3.4-0.9,7.1-1.1,10.4c-0.4,8.5,2.1,3.8-4.5,7.7c-3.4,2-9.2,3.9-13,3.9c4.8,6.2-4.6,5.6-8.2,8.3
		c-0.4,0.3-3.3,7-4.4,7.4c-3.6,1.1-5.8-2.1-8.1-1.9c5.5,9.5-5.4,2.9-8.7,5.4c-4,3.1,1.1,2,2.3,3.9c1.9,2.6,4,3.7,6,7.6
		c10.8,21.5-15.3,8.2-26,12.7c2,6.9-1,14.9,0.8,21.6c1.5,6-0.5,2.3,4.7,5.6c3.3,2.1,5,0.1,8.2,4c0.7-0.8,0.6-1.2-0.4-1.1
		c5.4-1.9,12.2-4.1,16.5-8.1c1.8-1.6,2.6,0.4,4-1.4c0.8-1.1-1.6-3-1.5-3.1c0.7-0.9,1.1-4.7,2.5-6.3c1.8-2.1,9.4-4.4,10.8-5.5
		c1.6-1.3-1.1-4.1,1.8-5.9c2.4-1.5,6.8,1.9,9.4,1.4c1-0.1,6-6.2,8.7-5.8c3.7,0.6,7.3,7.6,10.4,10.1c9.2,7.1,25.4,16.9,2.5,16.9
		c6.1,10.7,15.8-0.4,18.4-6.8h-3.2c0-0.7,0-1.3,0.2-2c2.2,0.7,4.5,1.1,6.9,1.3c-2.3-4.5-8.9-9.8-14.6-10.6c0.6-3.6-5.3-8-8-7.8
		c0.8-11.9,8.5-1.3,14.3,2.9c4,2.9,9.2,5,11.5,9c1.4,2.6,3.3,9.4,4.8,12.1c-1.5-0.5-2-0.8-3.4-0.5c1.2,3.2,2.9,4.8,5.1,2.2
		c2.3,11.7,10.1-0.9,14.4-1.5c-0.7-1.2-1.6-2.2-3-2.2c0.3,0.7,0.3,1.5,0,2.2c-2.2,0-6.9-7-6.2-8.5c2.3,1.3,3.6,2,6.1,0.9
		c-0.2-0.6-0.7-1-1.3-0.9c8.6-12.6,13.3,20.1,14.7,20.1c1.5,0,1.2-4.3,1.2-4.8c3.3,2.9,6,2.3,8.6,2.7c-2.7-0.4,4.4-1.8,4.2-1.8
		c2.7-0.1,3.9,3.3,8.4,2.2c-0.1-1.1-0.1-2.2,0-3.3c8.3,1.7,9,4.6,5.9,13.4c-1,3.1-4.9,8.1-7.6,9.3c-3.2,1.4-6.3-1.9-9.3-0.3
		c4.7,2.2,8,16.5,13.4,11c8,8.4,10,19.9,15.3,28.8c3.4,5.5,10.2,9.9,13.1,16.3c3.9,8.6-1.3,13.9,9.6,14.1c4.9,0,10.7-4.7,15.5-6.7
		c5.5-2.2,8.3-4.6,12.7-6.6c5.7-2.6,9.1-1.5,13-6.1c1.9-2,5.7-7.2,8.2-6.2c0-5.3,0.1-5.5,4-7.2c-0.4-2.6-4.8-5.4-6.7-7
		c-3.4-2.9,0-6-4.9-1.1c-0.5-2.3-1.2-7.3-3-8.7c-2.1,2.6-2.7,2.8-3,6.8c-7.6-0.6-19.4-0.4-5.5-2.9c-0.2-0.9-10.9-3.8-11.4-4.1
		c-1.7-1.2-6.7-6.8-7.2-9.3c-1.4-8.7,2.8-5.9,7.9-2.2c6.4,4.4,8.6,6.4,16.1,8.9c1.3,0.4,4.3-0.4,6.1,0c1.3,0.4,1.6,3.4,3.5,4.1
		c3.4,1.6,11.7,2.3,15.7,2.5c9.1,0.3,11.7-0.5,19,3.7c4,2.2,4.3,5.1,10.2,6.2c-10.4,0,1.5,5.4,4,6.2c3.9,1.3,1.9-5.3,6.1,0.6
		c2.1,2.8,0.4,6.4,1,9.5c1.1,6.1,3.2,10.9,5.5,16.6c1.5,3.8,4.2,16.4,7.9,18.6c3.9,2.2,7.9-1.8,10.1-6.3c1.5-3,1.5-6.5,1.9-10
		c0.2-1.8-0.5-5.1,0.1-6.6c2-5.1,1.5-0.1,5.2-3.7c7.1-6.8,15.5-17.1,22-20.8c2.5-1.4,13.6-3.7,13.8-3.6c2.1,1.4,7,12.4,7,14.9
		c6.5,0-1,5.4,3.8,9.2c3.2,2.5,6.8-2.8,7.4-2.7c5.1,1.4,8.6,14.7,8.5,20.2c0,2.9-4.5,6-2.6,11c1.2,3,5.8,5.8,7.4,9.5
		c2,4.6,6.1,21,14.9,16.8c-3-5.2-3-14.3-6-18.1c-4.4-5.3-9.6-5-10.8-12.7c-0.3-1.8-2-9.4,0.9-11.8c4.6-3.8,0.8-0.9,5.3,1.5
		c3.9,2.1,3.6,2,7.1,6.4c0.8,1,3.7,1.8,4.1,2.5c1.3,2.1-0.4,4,1.5,7.2c3.8-5.3,9.5-6.7,12.5-10.8c5.5-7.6,2.1-13.9-2.4-19.8
		c-6.9-9-8.7-19.8,7.2-19.8c1,4.6-5.9,9.6-3.2,11.9c6.5,5.8,7.9-11.1,7.7-11c2.8-2.5,9-2.7,12.2-3.7c4.7-1.5,6.2-2.5,10.2-5.5
		c5.5-4.1,15.6-13.1,16.9-20.5c1-5.4-1.9-2.1-2.5-5.8c-0.3-2,1.7-1.6,1-5.2c-0.8-4.4-6.9-9.8-6.8-13c0.2-6,6.3-4,8.5-7.2
		c1.9-2.8,1.9-2.7-3.7-4.7c-2.5-0.9-1.9,2.9-5.1,2.9c0.9-7.1-8.4-2.1-4.3-8.7c-0.3,0.5,7.4-2.9,7.8-3.1c8.3-3.1,5.9-4.2,2.4,4.6
		c2.5-1.4,9-4.9,11.8-3.6c5.8,2.6,1.2,3.5,1.7,8.3c9-3.7,6.2,10.5,5.3,14.8c6.4,0.7,13.6-3.6,13.5-9.8c-0.1-5.5-7.2-6.2-5.7-13.9
		c0.3-1.5,3.2-0.4,3.4-1.1c0.1-0.2,1-6.2,1.6-6.9c1.3-1.8,3.4-5.3,5.8-6.4c1.4-0.6,6.4,0.5,8.9-0.2c3.4-1,4.3-1.8,7-4.1
		c4.3-3.7,9.8-10.5,12.7-15c3.4-5.1,2.4-9.1,4.7-14.3c7.4-17.3,4.1,16.8,4.1,21.5c1.4-1.4,2.4-0.6,3.7-3.4c1.7,1.6,0.2,2.9,3.8,3
		c-1-6.9-8.4-13.1,1.9-13.1c0.3,0-4.9-23.5-5.1-26.3h-1.5c0.3,5.6-1.5,5.2-1.5,10.4c-4.3-2.6-3.5-8.1-11.3-10.4
		c-0.9,5.8-3.7,3.8-6.1,0c0.2,1,0.2,2,0,3c-3.3-0.5,0.1-2.6-2.4-4.7c-5.3,5.3-0.1-2.7,1.9-4.9c3-3.3,6.1-5.5,9.4-9.6
		C1178.2,288.8,1184.4,288.3,1194.6,288.3L1194.6,288.3z M642.5,291.8c-1.9,0.8-3.4,2.4-4,4.4C640.1,295.7,645.3,291.2,642.5,291.8
		C641.8,292,642.7,291.8,642.5,291.8L642.5,291.8z M646.5,334.2c3.8,0,6.7-2.7,8.9-3c3.3-0.5,8.1,1.1,10.8-0.2
		c4.4-1.8,6.6-6.7,5.1-11.2c-0.8-2.8-2.9,1.7-3,1.5c-1.3-1.3-1.1-3.5-2.1-4.4c-1.7-1.5-4-5-6.3-7.6c-3.4-4-3.8-3-4.4-6.2
		c-0.3-2.1,8.4-10.4-4.5-6.6c1.1-1.9,1.2-3.4,3.2-4.6c-4.3-4.3-6.1,2.4-7.7,3.6c-0.3,0.2-8.9,3.1-2.1,4.3c-0.6,2-2.8,4.9-2.7,6.1
		c2.2,0.3,5.1,2.1,5.7-0.4c-0.5,7.4,3.3,3.3,6.1,9.3c3.1,6.9-3.3,2.2-6.7,6.3c1.2,0.2,2.5,0.3,3.8,0.4c0,2.1-5.1,2.9-3.4,4.9
		c1.1,1.2,6.4-0.6,8.2,1.1C654.7,328.2,644.1,334.2,646.5,334.2L646.5,334.2z M643.2,314.7c8.4-1.2-13.4-12-8.3-1.9
		c-4,0.8-9.4,6.3-2.8,6c-8.5,12.4,3.3,4.2,10.6,5.8C643,321.3,643.2,318,643.2,314.7L643.2,314.7z M845.9,603.2
		c0-7.3,5.2-22.3-3.4-25.7c0,2.6-3.3,8.5-4.9,9.9c-3.2,2.9-8.2,1.7-11.4,4.8c-2.5,2.5,0.3,10.1,0,12.1c-0.6,3.8-2.2,4.3-3,9.1
		c-1,6.2,0.4,15.5,8.7,13.6c8-1.8,5.4-4.2,6.8-11.3c0.1-0.8,2.1-9,2.3-9.1C841.7,605.7,845.9,604.4,845.9,603.2L845.9,603.2z
		 M783,422.5c-3.6-8.6-5.7-5.3-13.6-6.3c-11.5-1.4-20.3-5.1-31.1-7.5c0,10.4,0.2,8.5-6.8,8.6c1.4-0.1-6.2-2.2-5.4-1.9h-5.5
		c-0.6-0.9-1-1.9-1.1-3c-3.3-1.1-13.5-2.8-15.6-5.6c-3.9-5.2,4.4-6.2-2.7-10.7c1.9-1.5,1.7-1.8,4.2-2.3c-3.6-6.1-13.4-0.4-18.6-0.3
		c-5.5,0.1-11.5-2.4-18.5,0.8c-4.8,2-8,4.9-14.4,4.7c-7.7-0.1-11.8-5.4-11.8,4.5h-5.7c2.6,9.2-4.2,3.2-5.7,6.3
		c-2.4,4.8-1.6,10.6-3.8,13.7c-1.3,1.8-6.3,4.3-8.4,6.8c-2.2,2.6-4.8,7-7.2,10.5s-11.9,12.5-10.6,17.8c0.4,1.5,5.8-0.6,6.6,1.2
		c0.8,1.4-1.1,2.1-0.7,3c1.5,4-1,10.5-1.3,14.4c-0.4,4.9-0.8,9,4.6,14.5c5.5,5.8,11.3,11.3,17.4,16.5c2.2,1.9,3.2,6.3,7.9,7.2
		c5.3,1,6-1.3,11-1.9c4.4-0.5,7.7,1.4,10.7,1.3c6.3-0.2,5.9-2.6,11-4.4c4.2-1.4,13.1-1,15.5,0c3.8,1.7,2.8,4.5,8.4,5.8
		c9.7,2.1,9.2-2.7,9.4,7.6c0.1,4.8-1.8,10.9-4.5,13.6c12.2,3.8,20.1,28.7,18.2,40.5s-9.1,12.4-3,25c3.8,7.9,5,12.6,7.2,21.2
		c2.2,9,9.2,15,11.7,23.1c2.2,6.9-1.2,9.1,2.3,12.9c9.2,10,33.4-1.8,40.5-9.5c2.8-3,7.5-8.2,9.1-11.7s-0.5-8.5,0.4-10.7
		c0.8-1.7,6.8-2.8,8.7-5.3c5.2-6.7-2.6-9.6-1.1-16.6c1.2-5.7,11.7-8.6,14.8-11.4c7.5-6.7,7.9-14.2,6.1-24.3
		c-1.1-5.7-6.3-14.2-4.2-21.1c2.9-9.3,14.8-18.3,22-24.6c5.3-4.6,10.5-10,14-16.3c2.4-4.2,3.9-4.6,4.5-10.2c1-8.9,2.4-6.8-5.3-6.8
		c-10.7-0.1-13.8,4-21.2-4.1c-4.3-4.8-11.1-9.2-15.2-14.4s-8.2-17-10.6-23.1C791.9,440.4,789.8,430.8,783,422.5
		C782.7,421.8,783.4,423,783,422.5L783,422.5z M397.7,712.5c-1.5-0.3-1.4-2.7-2.5-2.7c0.5,0-3.4,4.5-3.4,4.4c0,0.7,7,6.1,7.6,6.4
		c-0.3,0.4-0.5,1-0.4,1.5c-12.1,0-2.5,10.7-4.4,15.1c1-0.2,2-0.2,3,0c0,1.1-0.5,1.7-1.7,1.8c2,2.1,1,0.8,2.9,1.3
		c-0.6-0.2,8,10.8,9.4,11.7c7.2,4.5,14.1,2.3,21,1.8c-0.3-2.2-9-4.7-10.8-9.1c-1.7-4.2-5.6-14.9,1.3-14.2c0-4.4,8.8-9.3,8.1-12.4
		c-0.7-3.7-9.5-1.5-6.5-8.9c1-2.3,5.8-1.1,6.8-2.3c0.9-1.2-0.3-3.1,1-4.5c-0.9,1,4.5-8.3,3.8-4.9c1.2-6.1-4.5,0.2-3.2-8.8
		c8.9,3.6,10.6,0.3,9.3-7.9c7.4,0.2,16.2,0.5,19.5-6.7c3.6-7.6-3.3-5.9-4.6-12.5c8.2,1.1,11.3,4,17.6-1.7c3-2.7,5.3-13.4,8.7-12.9
		c-0.5,1.5-0.8,1.7-0.4,3c9.8-4.8,7-18.6,12.4-25c3.5-4.2,8.2-6.2,13.2-7.6c7.8-2.2,9.9-1.7,14.3-9.3c5.2-9,3-22.6,7.2-29.9
		c3-5.3,9.7-8.4,11.5-14.5c1.2-4,1-3.8-0.1-7.5c-2.2-8.1-2.1-2.8-7.2-6.8c-5.5-4.3-7.7-5.2-14.5-6.5c-3.7-0.8-16.7,0.2-11.2-2.7
		c-2-1.4-5.3-3.4-7.9-3.9c-6.7-1.3-5.2,0.2-9.9,2.2c0.9-1.8,1.7-3.6,2.5-5.4c-2-0.4-4-0.9-5.9-1.6c-1.7-0.5-0.7,3.8-4.3,3.4
		c0.7-1.6,7.6-10.3,1.1-10.3c1.1-11.5-9.5-12.1-16.6-13.9c-5.8-1.4-18.5-7.2-18.5-13.7c-3.2,1.1-9.1-0.4-4-2.7
		c-3.4-4.3-10.3,1.8-12.3,1.7c-7.2-0.3-10.7-6.3-17.6-7.6c0,3.7-2.6,2.9-4.8,5.1c-0.3,0.3,0.6,5.4,0.4,6.3c-3.9-3.2-2.9-10,1.1-12.5
		c-6.4-1.8-24.3,10.1-25.4,18.1c-0.6,4.5,4.1,9.2,1.1,15.3c-1.6,3.4-8.6,10.5-12.3,11.7c0.6,5.8-1.8,6.8,4.1,7.2
		c-2.5,4.3-8.2,6.8-4.9,13.8c0.8,1.8,4.5,2.1,6.1,4.3c1.6,2.5,2.9,5.1,4,7.8c2.1,5.1,4,13.6,7.3,17.5c4.5,5.2,10,6.7,15.6,11.1
		c9.5,7.5,6,23.5,4.5,35.2c-0.9,6.4-3.2,12.5-4,18.4c-0.9,7,0,14.4-2.8,21c-3.1,7.3-2.9,11.7-4.9,19.9c0.1-0.5-0.1,5.4,0,4
		c-0.1,1.3-2.6,2.6-2,4.2c2.7,7.9,5-3.9,7.7-4.2c-1.8,5.3-3,10.9-3.5,16.5c-1.5-2.5-1.9-1.1-2.4-4.6
		C395.2,705.9,397.9,711,397.7,712.5L397.7,712.5z M407.2,467.9c6.6-1.5,16.1-0.4,22.8-2.7c-2.9-3.6-11.9-2.5-17.5-3.2
		c-3.5-0.4-10.8-4.6-11.3,1C400.8,466.6,404,468.6,407.2,467.9C408,467.8,406.7,468,407.2,467.9L407.2,467.9z M389.4,466.8
		c-1.5-2.4-4.7-3.2-7.9-2.7C383.5,466.8,387.1,469,389.4,466.8C389.1,466.3,388.8,467.4,389.4,466.8L389.4,466.8z M396.2,458.3
		c-2.9-4.6-14.7-7.4-19.7-9.3c-3.2-1.2-10.7-4.2-14.7-1.9c-4.5,2.6-3.4,3,1.4,5.3c2.1,1.1,3.3-2.2,5.3-1.8c2.8,0.4,4.5,2.8,6,3.4
		C382.5,456.7,387.4,458.3,396.2,458.3L396.2,458.3z M579.2,252.8c3.5-0.6,4.7-0.5,5.7,3c-2.5-0.5-5.1-0.5-7.6,0
		c0.1,0.8,0.3,1.5,0.4,2.3c7.7-1.3,1.8,3.1,5.7,4.5c0.8,0.3,9.8,1.2,10.2,1.1c6.8-0.3,7.4-1.8,13.3-4.9c5-2.7,7.1,1.1,8.7-4.2
		c0.6-2.1-3-2.1-3.8-2.3c1.7-9.4-11.2-1-17.5-1.9c-1-0.1-6.6-0.9-5.6-0.8c-2.7-0.2,0.2-4.3-2.7-0.8
		C579.1,246.6,577.4,253.1,579.2,252.8C579.8,252.7,578.7,252.9,579.2,252.8L579.2,252.8z M462.5,328.5c-1.5,1-10.3,15.1-9.6,16.2
		c1.3,2.2,6,0.1,8.6,0.9c3.9,1.2,4.7,2.8,8.6,4.6c5.9-9,0.4-12-8.3-14.8C461.8,335.5,467.1,326,462.5,328.5
		C462,328.8,463,328.3,462.5,328.5z M442.1,336.9c-3.8-1.2-5.4-2.8-9.1-2.3C436.4,336.7,438.7,341.8,442.1,336.9
		C441.5,336.7,441.9,337.2,442.1,336.9z M549,235c1.1-0.4,2.2,1.1,3.1,1.4c6.7,2.2,6.7-0.4,12.2-2.6c4.9-1.9,17-4.5,18.8-9.1
		c-6.6,5.2-22.2-6.9-5.6-6.2c-0.7,0,7.4,8.5,9.3,1.1c0.7-2.7-6.1-9.3-8.2-10.4c1.2-1,8.6,4.4,6.4-2.6c-1.1-3.3-3-3.4-7.4-1.9
		c0.9-1.3,1.7-1.2,2.2-2.4c-0.8-0.2-1.5-0.6-2.2-1c2.4,0,9.3,3.3,12.5,1.2c7.3-4.9-4.5-3.1-4.5-5.5c0-0.6,11.2-1.1,11.9-2.4
		c-2.3-2.3-8.5-6.3-1.1-6.9c0.2-6.1-9-6.1-8-9.6c0.4-1.4,4.9-1.9,6.1-1.5c4.8,1.9,0.8,2.3,3,6.6c1.3-7.9,4.4-9.8-5.1-9.8
		c2.6-2.9,0.1-0.8,4.5-2.9c-2.7-4.1-9.2-0.2-9.3-0.2c-6.8-5.5,17.1-20.2,19.3-23.1c-3,0.2-6-0.3-9-0.4c6.2-1.3,9.7-1.1,15-4.6
		c1.4-0.9,9.1,0,5.7-5.1c-0.6-0.9-8.5-0.5-9.3-0.4c-5.1,0.6-10.2,1.5-15.2,2.8c-2.9,0.8-14.8,7.1-16.5,6.8
		c6.8-8.6,10.5-9.8-1.9-11.7c0,5-3.6,4.4-8.4,5.2c0.8-4,3.6-2.4,6.4-3.8c-7-5.2-19.9,2.9-27.7,1.7c2.1-6.2,33.7-6.7,40.9-7.5v-1.7
		c-7.2,0-10.5-1.1-16.1-2.1c-8.4-1.4-16.6,0.6-24.8-0.3c6-4.1,18.3-2.3,26.9-2.3c-1-6.7-38.8-3.9-43.7-2.4c-5.2,1.7-0.5,3.5-7.1,4.2
		c-3.8,0.4-7-1.8-11-2c-3.6-0.2-10.8,0.6-14.9,2.1c1.2,2.4,4.1,1.4,4.1,4.8c-1.5-1.2-8.4-4.1-6.2,0.2c-0.5-1,12,6.4,8.5,6.4
		c-8,0-14-6.4-22.5-6.4c0,1.8,5.2,4.9,6,7.6c-5.1-1.4-8.5-6.1-13.9-6.6c1.4,2.8,1.8,9.4-2.7,6.7c0,0,2.1-5.5-0.9-7.1
		c-3.6-2-14.9,5-17.3,3.8c2.6,1,7,2.4,9.1,4.6c-3.6,0-6.7-2.5-10.5-3c-2.5-0.4-1.8-2.3-5.1-0.7s-0.6,3.8-1.5,4.3
		c-3,1.7-9.2,2.4-14.8,5.4c-2.2,1.2-7.7,1.1-7.4,5c3.2,0.9,4.9,0,7.9,0c2.2,0-0.1,7.1-0.5,7.5c-1,0.9-5.8,0.6-7.2,1
		c-3.9,1-10.9,0.6-14.8,2.9c-12.8,7.5,10.9,8.2,17.9,8.2c-1.3,5.8-15.7,1.5-15.7,4.9c0,1.6,6.2,3.4,7.6,3.7c-1.1,0-1.2,0-1.5,0.8
		c1.9,1.5,5.6,4.7,8.4,3.7c-0.2-0.4-1.4-1.5-0.8-1.9c4.3-2.6,22.6-0.6,27.6,2.6c7.3,4.7,12.9,14.3,13.6,23.1h1.8
		c-7.2,13,10.2,2.3,15.1,14c-4.7,0.1-9.1-3.1-13.4-1.3c1.1,3.2-2.8,8.5,3.8,8.6c5.8,0.1,7.6-4,0.9-5c9.5-1.1,7.2,2.6,9.9,9.3
		c-4.3-0.2-7.6,0.5-7.5,4.7c-9.5-1.2,0.5,11.2,1.1,13.2c-0.2-0.5,2.8-1.3,3.4-0.1c0.4,1-3.1,2.2-2.1,3.1c-1.5-1.4,1.7,5.3,1.3,4.4
		c1.3-1,2.8-1.7,4.4-2.1c-2.9,6,0,16,6.5,20.9c2.9,2.2,17,7.7,19.3,6.4c3.1-1.7,2.3-8.2,3.6-11.1c0.8-1.8-1.9-2.3-0.9-4.4
		c0.5-1.1,3.4-0.4,4.3-2.1c3.8-7,1.5-13.8,11.1-14.6c-0.3-4.6,0.2-1.3,2.7-2.9C528.5,260.2,548.9,235,549,235L549,235z M342.2,176.4
		c4,6.2,22.3,4,29,2.9c1.8,4.6,12.6,1.7,12.1-4.2c-1,0.5-2,0.9-3,1.3c-0.3-0.9-0.6-1.9-1-2.8c4.3-0.8,4.1-1.9,3-5.7
		c5.4,1.5,10,0.7,6.2-4.3c-0.6-0.8,5.7-0.2,5.7-1c0-5.2-9.6-3.6-12.1-1.4c-0.3-0.6-0.5-1.2-0.8-1.9c6.2-4.3,12.9,1.7,18.7-3.6
		c-1.1-0.8-2.2-1.6-3.4-2.4c3.9,1,7.6,1.9,11.9,0.2c-1.9-1.4-1.6-2.6-4-3.6c9,2.2,19.5-7.6,27.8-9.8c-2.7-2.7-9.8-0.1-14.4-0.6
		c3.7-4.8,24.5-0.2,25.8-6.8c0.9-4.5-18-5.3-22.5-4.2c-1.8-1.8-9-3.7-13.5-4.2c-1.8,6.3-22.1-2.9-20.6,4.4
		c-5.7-2.1-18.3-3.3-22.6,2.8c4.8-0.3,10,0.7,12.4,4.6c-4.8-1.3-11.2-4.3-15.3-5.1c-4.4-0.9-7.9,1.5-9.2,1.6
		c-4.6,0.6-13.8,3.1-19.3,4.2c0,0.6-0.1,1.1-0.2,1.7c4.7,1.5,5,4.2,10.2,5.8c7.5,2.3,7.7-1.7,14.2-2.6c-12.9,7.6,7.1,4.9,10.7,4.1
		c7.2-1.8,12.2-6,19.9-5.8c-3.1,0.4-6,1.7-8.4,3.8c2.8-0.5,5.1,0.4,7.8,0.4c-3.8,2.9-16,3.8-21.6,4.1v1.9c3.7,1.5,5.9,4.3,10.2,4.2
		c-6.4,1.8-16.1-4.6-23.3-5.5c0.6,6.2,11.6,11.1,17.9,10.8c-1.4,1.7-2.1,2.9-3.2,4.3c-10.8-10.6-27,5.9-7,2.3
		c-1.1,0.6-2.1,1.1-3.2,1.7c2.3,3.8,6.7,2.6,9.9-0.8c-3.7,9.8-14.5,0.5-21.2,1.4C348.6,173,346,174.8,342.2,176.4L342.2,176.4z
		 M343.9,164.1c1.1-1.3,3-0.5,2.5-4c12.1,1.8,9.3-5.6,1.8-10.3c0.4,0.3-24.5-12.2-23.9-8.6c1.8,0.4,3.4-0.9,3.8,1.3
		c0,0.3-6.7,1.2-7.4,1.1c1.5,1,2,2.6,2.7,3.2c-1.8-0.3-3.4,0.3-5.1,0.2c-0.7,1.9-1.2,3.9-1.3,5.9c4.5,4.6,11.2,0.7,16.1,4.7
		c-2.9,0.2-5.9,1.6-8.7,2.1C329.9,164.8,337.3,166.7,343.9,164.1L343.9,164.1z M334.1,170.6c-0.5,0.9-1.1,1.8-1.7,2.7
		c2.8,1,5.9,0.8,8.5-0.6C339.1,169.3,337.4,169.9,334.1,170.6z M337.1,193.5c3.7-0.8,45.6,2.7,39.4-7c-3.7-5.8-20.2,0.4-25.3,0.3
		c-10.6-0.2-12-11.2-21.5-8.4C333.3,184.4,329.6,190.9,337.1,193.5L337.1,193.5z M310.8,194.2h2.7
		C312.3,191.4,312.3,193.7,310.8,194.2L310.8,194.2z M316.6,189.5c2,1.7,12.2,6.5,11.2-0.2C327,183.9,318.4,186.5,316.6,189.5
		L316.6,189.5z M326,181.4c4.2-4.4-2-7.5-6.5-6.8C310.3,176,321.7,181.4,326,181.4L326,181.4z M318.2,172.3c3.4-0.1,6.7-0.5,10-1.3
		v-1.9C324,168.5,319.5,168.1,318.2,172.3L318.2,172.3z M318.9,167.5c9.5-2.3-6.3-6.6-9.3-5.7C311,166.4,314.1,169.1,318.9,167.5
		L318.9,167.5z M308.3,153.4c-1.4-2.6-2.4-4.1-5.9-3.4v2.3C305,153.3,306,153.8,308.3,153.4L308.3,153.4z M305.9,169.6
		c2.8-9.5-15.9-14-23-11.4c2.7,1.1,4.1,3.2,6.1,5h-3.2C288.6,167,300.5,167.6,305.9,169.6L305.9,169.6z M298.7,170
		c-2.4-0.9-3.1-2.3-6.1-1.5C293.8,171.7,295.6,170.7,298.7,170L298.7,170z M297,186.5c3.9-1.9,6.2-0.4,7,4c5.1-0.2,8.8-2,8.3-7.4
		c-0.7-5.9-6.7-3.4-12-5.5c2,1.4,3.7,3.2,5,5.3c-2.9-1.4-5.9-2.5-9-3.4c0.4,1.6,0.4,3.1,1,4.7c-3.5-2.7-5.1-7.1-10-7.6
		C286.6,182.3,291.8,185.2,297,186.5L297,186.5z M286,188c0.4,0.3,4.2,4.6,4.2,0.2C290.1,185.7,286.5,188,286,188z M287.3,173.8
		c-1.2-2.2-3.2-3.9-5.5-4.9C282,172.7,283.9,174.8,287.3,173.8L287.3,173.8z M386,241.8c2.7,0.8,10.2-0.2,7.6-4.4
		C391.2,233.5,382.8,236.4,386,241.8L386,241.8z M324.8,209.8c1.1-2,3-1.3,2.9-4.4c5.3,1.9,7.5-2.8,10.2-6.6
		c-3.9-1.4-12.1-4.2-15.5-1.7C319.3,199.4,318,211.7,324.8,209.8L324.8,209.8z M308.2,215.7c8.7,0,10.5-7.9,2.1-11.7
		c6.4-2,1.4-5.9-2.2-7.1c-0.6-0.2-5.8,2.6-8.7,2c5.3,5.6,1.2,9.1-4.7,5.9C294.8,208.5,304.6,213.8,308.2,215.7L308.2,215.7z
		 M287,203.7c1.6-5.2-5-6.2-8.1-3.4C281.8,203.1,283.8,205,287,203.7L287,203.7z M274.4,199.4C274.8,199.7,276.8,202.1,274.4,199.4z
		 M256,164.9h13.5C267.2,159.9,259.7,161.3,256,164.9L256,164.9z M259.8,173.2c3.8,0,8.6-0.5,5.3-4.2c1.6-0.7,2.2-0.1,3.2-1.9
		c-4.4-0.4-8.8-0.2-12.5,2.2C256.6,172,258,172.3,259.8,173.2L259.8,173.2z M253.2,169.8c-1.2-2.4-1.5-4.1-5.1-3.4
		C249,169.5,250.6,169.2,253.2,169.8L253.2,169.8z M249.4,179.3c-5.4,1.6-10.8,7.1-7,10.1c3.4,2.7,15.7-0.1,19.9,0.3
		c-1.4,1.7-10.3,0.1-9.7,3.1c0.8,3.5,7.4,1.3,9.6,0.9c4.6-0.9,22-3.1,20.7-9.6c0.5,2.5-11.4-6.6-10.4-6.3c-5.5-1.6-7.6,1.6-4.7,6.6
		c1.1,0.4,2.8-0.2,3.1,1.1C271.5,187.7,252.3,180.3,249.4,179.3L249.4,179.3z M250.5,175.7c1.2,0.5,1.6,2.5,4.6,1.9
		c-0.1-0.6-0.2-1.3-0.2-1.9C253.5,176.1,252,176.1,250.5,175.7L250.5,175.7z M235.4,183.8c-0.6,0.7-1.3,1.5-1.9,2.3
		c4.1,0,3.4,0.7,5.5-3.2L235.4,183.8z M241.5,179.1c3.1-1.1,4.8-3.6,5.3-7.2c-11.4-2.8-15.1,7.7-25.6,8.9c4.9,7.5,12.2,0.7,16.7-3.4
		C239,180.7,240.3,178.3,241.5,179.1L241.5,179.1z M244.1,228.5c8.2-0.7,8.4,3.6,14.8,5.3s11.2-2.7,16.8-3.8
		c3.4-0.6,25.9,3.1,18-3.2c3.1,0,4.1-1.6,6.1-2.5c-7-4.8-9.9-4.8-13.4-11.4c-1.3-2.6-7.2-15.1-12-9.2c-2.2,2.8,5.9,9.3-0.2,8.9
		c-3-0.3-2.8-8.4-8.5-8.7c0.7,1.2,1.2,2.6,1.9,3.8c-1.9,0.8-3.9,1.5-6,1.9c0.5-1.2,0.9-2.5,1.3-3.8c-3.5-1.4-7.4-1.1-10.6,0.7
		c1.9-7.1-4.9-3.7-8.3-2.2c-6.2,2.8-6.4,4.2-9.3,9c4.2,1.6,8.6-1,12.5,1.9c-3,0.3-5.9,1.4-8.3,3.2c4.2,2.3,17.8-1.2,20.1,2.6
		c0.8,1.4-15,2.1-17.4,3.6C242.3,226,243.3,227.3,244.1,228.5L244.1,228.5z M275.7,235.9c3.4-0.9,5.5-1.6,6.3-4.5
		c-3.5,0.6-6.9,1.9-10,3.8C273.2,235.4,274.5,235.7,275.7,235.9L275.7,235.9z M222.9,215.5c6.7,1,9.4-7.9,15.2-10.9
		c9.4-4.8,11.7-6.3-0.4-8.8c-3.1-0.6-18.7-4.3-22-1.6c-1.8,1.5-2.3,12.7-6.3,17.1c4.4,0.1,8.4,2.8,10.2,6.8
		C220.8,217.2,221.8,216.3,222.9,215.5L222.9,215.5z M666.2,464.5C666,464.1,665.7,464.5,666.2,464.5z M128.8,279.9
		c0.9-6,8.9,1.4,13.1,2.6c5.4,1.6,10.5,0.4,15.7,2.1c9.2,3,15.6,11.4,24.8,13c0.9,1.9,1.5,3.8,3,5.3c0.5,0.5,4.5,2.3,5,3.2
		c3.2,4.8,5.1,9.5,7.8,13.2c4.9,6.6,6.8,7.2,13.7,11.4c5,3,11,8,10.2,15.1c-5.6-6.9-11.6-16.5-21.2-15.3c4.5,5.4,11.2,7.4,14.1,14.2
		c2.9,7-0.9,13.9-0.9,19.7c-0.1,10.9,5.4,26.1,12.9,34.3c4.3,4.8,11,5,14.9,11.1c3.2,4.9,5.9,11,8.9,16c1,1.6-1.2,2.4,1.1,5.8
		c1.4,2,5.2,3.8,7.1,5.8c1.3,1.3,7.5,8.6,8,11.4c5.9-6-17-26.9-17.6-35.4c6.4-0.8,13.7,13.8,18.4,18.9c6,6.4,11.5,15.2,17.6,22.2
		c-9,6.1,26.6,19.3,32.4,20.1c1.8,0.3,3.7-1.9,7-1c3.7,1.1,5.4,5,8.4,6.8s12.7,3.5,13,3c5.2,3.6,7.8,10.7,10.5,13.3
		c3.9,3.6,12.9,6.4,18.5,8.9c-1.5-9.6,9-0.9,9.4-4c0.9-6.3-13.2-2.4-17-4.9c-9.4-6.3,0.6-13.3-4.1-20.3c-4.1-5.9-14.5-1.2-19.6-3.5
		c4.5-4.9,11.1-20.5,1.5-19.9c-8.7,0.6-4.5,6.7-9.9,10.9c-5,3.9-13,1.4-16.8-2c-8.5-7.5-8.2-28.2-3.1-35.8c7-10.3,18.2-0.3,26-2.8
		c-1.9-6.5,5.5-5.5,10.1-5.2c-0.4,0,10.4,2,9.1,1.1c3.4,2.4,9,20.2,12.5,19.9c4.3-0.4-3.3-24.1,2.5-30.7c3.7-4.3,11.6-5.4,13.8-10.5
		c1.9-4.4-0.9-6.5-2.1-11.9c3.2,0.9,1.5-1.8,4.9,1.7c1.2-2.7,3.9-9.7,5.8-11.6c2.4-2.1,8.6-2.5,12.6-3.7
		c-5.8-11,16.2-18.9,24.5-16.9c-1.1-0.2-7.9,2.5-8.9,4.4c-2.9,5.9,5.1,0.9,5.4,0.8c6.8-0.8,14.5-6,16.6-12.1
		c-5.4,2.6-7,6.9-13.6,3.4c-8.9-4.8-0.3-9.1-2.4-12.2c-5.6-8.6-19.7,7-25.5,10.8c1.5-2.9,3.6-5.4,6.1-7.5c-1.4-0.3-2.9-0.7-4.4-1.1
		c7.4,1.6,11.7-7.6,18-9.4c4.2-1.2,10.1,0.3,14.3,0c6.6-0.6,6-1.4,11.6-3.8c5.2-2.1,13.4-2.9,10.9-9.5s-11.3-2-16.6-1.4
		c2.5-4.3,7.6-3.4,11.5-6.6c-6.7-1.1-12.7-3.6-16.5-9.5c4.1-2.5-7.6-15.1-9.6-19.7c-3.4,3.7-3.4,9.8-8.7,11
		c-5.2,1.1-4.5-4.3-10.4-2.8c3.7-12.7-6.5-17-16.4-19.5c-11.2-2.9-18.6,2.8-10.7,14.4h-2.7c-0.9,2-0.3,3.2-1.5,5.3
		c10.5,4.4,8.1,20.3-4,19.9c3.5,3.7,6.6,17.6-1.1,18.3c-7.5,0.5-9.2-14-8.5-19.4c-8.6-1.4-13.9-2.7-21.3-6.5
		c-3.3-1.6-7.2-2.9-10.1-4c-2.6-1.1-3.2,1.3-5.5-0.1c-1.7-1-2-4.8-3.1-6.2c-3.8-4.7-5.8-2-5.1-9.8c0.3-3.2,3.5-8.2,5.8-10.6
		c2.5-2.5,8.2-3.1,7.6-6.7c-0.4-2.3-9.8-3.7-11.7-4.4c4.9,0.5,14,5.1,15.3-1.1c5.8,3.5,8.5-0.5,10-5.3c-5.2,0.3-9.2-2.2-13.6-4.4
		c3.4,0.1,23,4.9,15-3.6c8.7-0.7,2.8,13.3-1.1,14.8c3.2,3.4,4.4,4.3,9.3,4.2c1.9-1,3.8-1.9,5.9-2.5c1.7-0.3,3.6,1.8,5,1.5
		c10.9-1.9-10.5-9.4-12.3-13.3c4.9-0.2,1.9-0.1,3.9-2.6c7.5-0.6,10.9-6.9,5.9-13.1c10.2-1.7-2.4-8.4-6-10c6.2-1,12.9,2,19.5-0.4
		c-1-0.9-2-1.9-3-2.9c6.9,2,11.7,6.2,17.8,10.8c2.6,1.9,7.3,4.8,7.5,8.6c0.2,5.2-9.5,5-5.2,11.5c-3.6,0.8-16.5-2-15.9,4.4
		c0.6,6.2,10-0.6,12.4-0.3c7.6,1,8.2,6.2,13,10.2c4.8,3.8,12.4,3.3,18.1,6.4c0.2-4.8-7.1-7.2-9.9-11.4c5,2.5,10,5,14.8,7.8
		c0.8-2.1,1.5-4.3,2.1-6.5c-4.8-4.3-10.2-8.3-14.7-14.3c3.5-5.1,4.8-1.5,8.8,0.6c6.5,3.4,3.7,5.4,8.8,4c-0.4,0.1,6.4-5.4,6.3-5.3
		c2.2-4.1,2.6-1-0.4-4.8s-31.9-11.8-17.4-14.8c-1.4-0.4-2.9-0.8-4.4-1.1c0.8-0.8,1.7-1.3,2.7-1.7c-2.2-0.9-3.1-2.6-5.9-3.2
		c0.4-0.7,0.9-1.4,1.3-2.1c-5.3-1.1-7.8-2.3-12.7-3.6l2.6-1.7c-9.6-0.2-10.2-5.7-16.8-7.8c-5.1-1.6-15,4.1-17.2,3
		c-3.4-1.8,0.9-3.6-1.3-6.7c-3.7-5.4-3.2-4.7-9.3-3.6c-9.2,1.7-8.7,9.1-4,15.1c-9.6,1.2-8.3-13.1-1.4-16.5c-7.3-0.3-14.1,0.5-17,8.3
		c-3.9,10.6,3.9,5.8,7.8,11.4c-2.8-0.7-4.4,0.4-7,0.4c2.3,3.4,12.9,4.5,17.4,5.9c-2.8,1.1-4.2,19.7-11.6,15.9c-3.3-1.7,0.1-6.9,0-7
		c-2.9-3.3-5.6-2-6.6-2.6c-1.2-0.7-6.8-2.5-9-5.8c-3-4.5-3.8-16.8-13.1-10.4c-8.7,6.1,9.4,17-0.9,14.9c1.5,4.3,4.7,4,8.4,0.8
		c-0.1,6.5-8.6,4.3-6.1,11.8c-4.3-2.9-3.2-1.7-3-6.1c-4-1.1-0.8-0.2-2.8-3.2h2.5c0.2-4.2-2.6-6.8-6.8-7.6c-1.1,1.1-3.6,3.8-4.5,4.9
		c2,0.8,3.5,2.8,5.5,3.6c-4.5,8.2-13.3,4.5-20.8,2.7c-4.9-1.1-5.5-3-10.2-1.1c-7,3-3.7,3.4-4.7,10.4c-3.1-11-17.7-7.3-26.5-8.1
		c0.8-0.4,1.6-2.3,4.2-3.2c-4.4-3.5-19.1-7.7-24.2-8.7c-6.4-1.2-12.7,5.4-15.1-2.4c-1.9,6.3-3.2,2.3-6.2,2.2c-1,0-2-4.3-4.3-4.6
		c-3-0.4-1.1,1.9-2.8,2.2c-3.3,0.7-12.4,5.7-16.4,7.9c3.5-4.6,9.1-3.9,12.5-8c-6.4,0-14,3.5-20.4,4.9c-10.8,2.2-15.1-2.2-26.1-3.4
		c-8.3-0.9-15.8-2.6-24.4-3.3c-9.1-0.8-13.7-4-23.1-2.9l1-2.1c-5.8-1.1-13.5,2.6-18.7,4.2c-7,2.1-7.5,6.4-12.4,9.4
		c-7,4.2-11.9-0.3-6.3,7.1c3.5,4.7,11.1,5.3,13.7,11.4c-4,1.3-8.3,1.1-8.5-3.4c-4.5,3.2-9.6,2.1-13.4,6.6c4.9,2,4.8,6,9.1,7.1
		c4.8,1.2,11.2-2.1,15.8-2.5c0.6,13.9-15.4,4-17.8,16.3c-0.6,3.3,7,17.1,11.9,9c2.6,2.2,3.5,5.9,2.2,9.1c4.8-1,10.2,0.7,12.5-2.2
		c1.5,0,3.5,0.4,5.5,0.4c-3.6,15.9-21.6,13.3-30.1,23c12.3,3,32.6-15.7,43.2-21.6c-1-1.4-1.9-2.8-2.8-4.2c6.4-2.1,8.8-12.8,16.3-8
		c-5.3,0.6-8.2,3.7-6.7,8.7c3.8-2.3,8.2-4.3,12.7-4.6C129.5,281.5,129.1,280.7,128.8,279.9L128.8,279.9z M113.3,295.4V292
		c-3.8,2.8-9.4,3.5-6.3,8.5C109.5,299.5,111.7,297.7,113.3,295.4L113.3,295.4z"/>
</g>
<path class="st1" d="M578.9,257.1c-212.1-66.6-316.5,90.3-316.5,90.3"/>
<path class="st1" d="M229.1,276.6c40.2,25.4,33.4,70.8,33.4,70.8"/>
<path class="st2" d="M581.8,250.9l-6.9,11.9c-0.2,0.3,0,0.7,0.4,0.7h13.8c0.3,0,0.5-0.4,0.4-0.7l-6.9-11.9
	C582.4,250.6,582,250.6,581.8,250.9z"/>
<path class="st2" d="M234.9,271.4l-13.2-3.8c-0.3-0.1-0.7,0.2-0.6,0.6l3.3,13.4c0.1,0.3,0.5,0.4,0.8,0.2l9.9-9.6
	C235.3,271.9,235.2,271.5,234.9,271.4z"/>
</svg>
