<svg id="Layer_1" data-name="Layer 1" xmlns="http://www.w3.org/2000/svg" viewBox="0 0 1300.18 635.27"><defs><style>.cls-1{fill:#fef9dc;}.cls-2{fill:none;stroke:#b84d24;stroke-linecap:round;stroke-miterlimit:10;stroke-width:4px;}</style></defs><title>6409</title><path class="cls-1" d="M373.88,271.31c12.15-8.1,2.35,13.59,0,0Zm-9.85.8c3.3,0,5.11-2,4.58-4.53C367.49,268.12,358.49,272.11,364,272.11Zm19.71-66.27c2.55-1.2,4.1-2.74,7.19-3.06-4.58-4.29-10.82-3.49-16.68-3.41C374.31,205,378.14,207.33,383.74,205.84ZM956.15,497.08c-2.12,2.72-.64,17.74,5,12.58C964.36,506.83,957.22,498.2,956.15,497.08Zm233.39,192.48c1.39,4.47,5,9.8,9.17,11a3.67,3.67,0,0,0,0-2.61h3.14c.16-3.78,1.22-4.58,1.22-8.15-2.87.8-13.85-2.24-13.53-.21C1189.7,690.2,1189.49,689.34,1189.54,689.56Zm11.72-5.44a3.81,3.81,0,0,0,3.25,3.52c0-2.88-1.22-3.52-3.25-3.52C1201.26,684.34,1201.53,684.12,1201.26,684.12Zm-13.79-1c-2.08,1-.75,2.67.74,3.2.11-.32.48-3.68-.74-3.2C1187.15,683.27,1187.68,683.06,1187.47,683.16Zm90.72,31.07c6.12,0,7.56-11.46,15-13-3.25-6.82,9.06-5.75.21-11.14-7-4.2-4.21,3-8.36,7.57-3.68,4.1-10.6,5.11-13.27,9.85-2,3.68-1.38,7.67,6.45,6.67Zm-4.74,1.86a5.75,5.75,0,0,0-1.34,1.44h3c.16-1-.11-2.62-1.7-1.44C1273.18,716.3,1273.71,715.87,1273.45,716.09Zm24.07-42.3c0,1.86.17,6.71.17,7.14,0-.43-3-.22-3,2,0,2.88,2.18-.21,2.66,1.6-.1-.21,3.1,6.82,4.91,6.28.69-.21,2.5-3.62,3.62-4.68,5.64-5.33,9.53-11.72-1.87-9.7,0-3.09-1.33-7.88-3.46-3.19-2.34-1.5-2.66-6.34-5.38-9.06C1290.07,659.08,1297.52,671.87,1297.52,673.79ZM1260,606.61c2.88,4.43,5.39,8,11.51,8.69C1271.05,612.63,1262.48,606.5,1260,606.61Zm-122.15-33.72c-4.8.85,2.45,1.86,4.15,1.71v-1.5C1140.9,573,1136.43,573,1137.87,572.89Zm42.78,1.92c-5.65,7,2,24.08-10.61,20.67.06,0-11.5-7.4-11.71-8-2.19-4.74,2.29-7.25,3.72-11-6.39-.85-12.62-4.1-18.75-4.1,1.22,1.07,1.07,1.86,3.25,3.15-1.12-.7-7.56,3.62-9.27,4.68-5.11,3.25,2.83,3.89-5.7,5.54-2.82.53-4.1-3.41-8.68-1.7-3.79,1.38-4.27,6.44-8.58,6.44.64,1.39.8,3.63,1.55,5h-3.31v-2.56c-5-.27-6.71,10.39-12.41,13.11-4.31,2.07-11,2.71-15.71,4.58-2.08.74-3.47,7.56-5.92,1.86-2.08,6.34-2.56,10.07,1,16.3-7.56-3.41.64,8.26,2.19,12.42,3.19,8.41,6.28,13.9-.11,19.39,4.37,0,6.92,4.84,12.52,3.94,3.19-.43,4.79-4.26,8.36-5,2.82-.74,5.81,2,8.21,1.39s2.61-2.78,4.74-3.63,4.26-3.08,6.55-4c1.6-.7,3,1.65,4.9,1,6.77-2.56,14.44-6.51,22.38-2.35,4.74,2.56,9.32,20.67,14.38,4.37,3.62,1.22-.16,3.73.37,6.82,4.48-2.67,2.77,1.06,2.45,5.11,7.36-1.39,4,5.06,9.48,9.49a42.5,42.5,0,0,0,8.69,2.66c3.73.1,2.56-3.68,4.9-3.79s2.4,4.43,3.94,4.11c7.57-1.6,15.5-4.48,18.27-11.51,1.82-4.58,2.24-9.32,5.12-14.22,5.75-9.8,6.82-20.09,1.49-30.64-1.17-2.45-2.72-3.19-4.53-5.11-1.22-1.33-1.22-3.73-2.08-4.74-.26-.27-4.15-1.38-5.11-2.29-1.22-1.17-1.12-4-2.45-5.33-1.81-1.7-6.29-3-7.67-4.69-3.41-4.21-4.37-12.46-6.93-16.51-.8-1.28-3.14-2.24-4.36-4.16-1.44-2.34-.7-8.1-4.16-8.95A12,12,0,0,0,1180.65,574.81Zm63.65-7.41c1.07,1.65,2.25,1.12,3.63.59-.69-1.87-4.74-3-3.63-.59Zm-18.53-12.73c0,1.6,3.67,3.63,4.68,3.41-.9-2.34-3.62-3.78-3.62-6a3.62,3.62,0,0,0-1.49.16A6.78,6.78,0,0,1,1225.77,554.67Zm-21.84-2.24c.42,4.85,14.33,2.46,13-5.11-.69.1-13,6.92-13,5.11C1204,553,1203.93,552.12,1203.93,552.43Zm-63.45,9.49c0,.74,5.43,1.6,2.82-3.62C1141.07,558.61,1140.11,559.84,1140.48,561.92Zm-19.5-2.29c.37,2,2.45,1.54,4.16.79C1123.7,559.15,1123,560.05,1121,559.63Zm32-7.57a5.51,5.51,0,0,0-2.29,4.21C1150.71,559.36,1157.85,548.81,1153,552.06Zm-5.33-6.07c3.46-1.55,7.83,1.49,11.19,3,2.82,1.33,5.59.54,7.56,4,2.66,4.63-.37,3.41.21,6.07.17.7-3.72.59-2.07,3.68.74,1.44,5.11-1.81,6.6-1.44,4.74,1.33,6.61,5.6,12.52,3.78,3.62-1.06,3.47-6.29,9.43-4.15,2.34.85,2.88,3.72,5,4.9,4,2.34,2,1.59,7.45,2.88,8.21,1.86,5.49,2.45,1.44-3.2-.59-.86-4.58-.38-5.27-1,.37.32-2.24-6.61-1.71-4.85-.16-.58-5.11-4.21,1.28-3.62-1.22-2.29-7.08-6.55-10-8.21-5.54-3.19-9.86-4.26-16-6.12-8.73-2.82-8.25-1.12-15.18,0-4.32.74-9-1.33-15,.21.65,2.35,1.55,4.58,2.67,4C1147.88,545.93,1147.51,546.09,1147.67,546Zm-30.1-8.15c-3.3.74,3,1.54,4.16,1.33C1121.73,537,1119.38,537.52,1117.57,537.84Zm39.21-2.88a15.69,15.69,0,0,1,.37,4h3.78c-.58-1.81-1.59-1-1.59-4h-2.56C1156.83,535.23,1157.74,534.86,1156.78,535Zm-15.93.21a2.92,2.92,0,0,0-2.45.8c3.94,2.29,8.2,5.59,13.42,3.2C1147.46,531.12,1144.85,536.72,1140.85,535.17Zm-.9-1.28c5.16-5.22-8.9-1.7,0,0C1140.53,533.26,1139.63,533.84,1140,533.89Zm-3.84,4.69c1.38.64,2,4.16,2.56-.32C1136.75,538.58,1136.54,538.74,1136.11,538.58Zm-6.77,4.37c0,1.39,7.94,2.66,10.23,2.66C1139.09,541.35,1130,542.52,1129.34,543Zm-3,.54c-1-.22-2-.48-3.09-.7,1.81,4.42,3.89,1.18,3.09.7C1125.83,543.27,1126.57,543.64,1126.31,543.49Zm4.69-20.57c-2.72,3.73-4.64,4.26-4.43,9.59.38,7.51,2.24-1.6,6.72-.91.26-2.5-1-4.68-3.25-4.52a11.91,11.91,0,0,0,1-4.16C1130.62,523.45,1131,523.3,1131,522.92Zm-35.59,20.24s3.89,4.91,3.41,4.37a41.22,41.22,0,0,0,.74,4.9c2.72-1.81,2.08-7.24,2.08-10.23h2.29c.27,1.23,4.37,10.4,6,9.65,2.88-1.28-2.45-11.35-4.1-13.48C1123.33,538.37,1095.41,528.14,1095.41,543.16Zm21.95-16.08c-2.93,1.06-19.71-1.18-18.91,5.85,5.48-2.55,7-2,12.84-3.19,1.81-.43,2.39,1.65,4.58.75,1.17-.54,5.59-5.12,1.49-3.41Zm-3.95,40.7c0,3.3,12.79-3,14.18-4.37C1122.58,560.9,1114.27,566.28,1113.41,567.78Zm-1.54,3.19c-1.54.22-1.91.8-1.12,1.92H1113c.21-1,.16-2.34-1.12-1.92Zm-11.93-7.72c3.3,3.3,13.64.58,17.42-1C1114.32,561.71,1101.37,561.71,1099.94,563.25Zm-1.33,2.45c-4.75,1.44,3.94,3.78,5.48,3.68-.64-.75-3.83-4-5.48-3.68Zm-9.49-3.25c-2.71.21,6.82.8,8.74.8-.59.16-.69-.16-.38-1-3.14,0-5.37-.31-8.36.22Zm-41.07-6.4c4.32,3.41,10.44,4.43,17.84,5.18,5.87.63,13.17,3.67,19.45,2.76-1.75-3.51-5.43-4.47-9.43-3.67.27-2.67,2.19-1.39,4.16-2.56C1069.25,556,1059.29,555.74,1048.05,556.05Zm-11.56-5.48c-.8,1.76-.27,2.61,0,0Zm26.9-25.79c-5,3.52-1.86,9.86,1,13.59,4.1,5.6,5.81,5,13.64,6.29s5.38,3.41,9.86-3.2c.21-.32,1-5.54,1.86-7,1.17-1.92,5.49-2.77,6.82-5.65-5-3.25-3.62-4.1-4.74-11.29,3.83.21,2.66-2.35,6.44-3.68.32.9-9.11-6.55-8.31-6.66-3,.22-5.17,5.33-7.51,7.41C1077.19,519.19,1068.08,528.3,1063.39,524.78Zm-40,11.19c.21,2.51,4.37,8.69,6.82,9.22-.53-3.41-6.82-9-6.82-9.22C1023.49,536.56,1023.44,535.6,1023.44,536Zm-6.07-8.36c1,1.81,2.77,2.34,3.62,4.21,0-2.29-.64-4-3-5C1017.26,528.67,1017.9,527.77,1017.37,527.61Zm-2.83-5c0-.58-1.17-2.18-1.17-.48a2.36,2.36,0,0,0,2.29,2.46C1016.14,523.67,1015.77,523,1014.54,522.65Zm1.33-8.68c-2.13,0-3.3-2.13-5.32-1.86.9,4.42,7.88,8.79,10.22,11.77,3.68,4.53,6.71,11.24,10.6,16.3,2.67,3.35,9,12.57,12.52,12.63,7.89.21,3.41-7.41,9.65-9.32-.69-4.91-5.22-6.72-9.11-4-.43-5.59-21.1-24.72-28.56-25.57C1015.55,514,1016.73,514.08,1015.87,514Zm97.92-13.11c-4.1.43-7.67,3.2-5.49,7.78,3.3-8,8.15,1.18,13.43,3.47-1.87-4,1.49-4.85,1.54-5,.11-.74,1.65-10.44-1.71-10.44s-4,6.71-7.77,4.15C1113.2,501,1114.06,501.08,1113.79,500.86Zm-11.19-17.57c-.11,1.38,4.26,12.14,7.4,11.56-1.59,3.51,4.06,5.91,2.67-1-.64-2.93-6.87-10.07-10.07-10.6C1102.55,483.82,1102.81,483.39,1102.6,483.29Zm5.49-.54c4.74,3.3,7.88,9.64,13,10.66,0-5.81-5.38-7.14-5.38-12.31-3.09,0-4.64,1.65-7.62,1.65C1108.67,483.18,1108.67,482.75,1108.09,482.75Zm-7.2,3.41c-2.82,5.44-10.06,10.87-11.56,15.34,6.29,0,11.56-9.11,11.56-15.34C1100.79,486.43,1100.89,486.8,1100.89,486.16Zm2.94-22.21c-5.6,3-4.21,14.43,2.18,16.46C1105.74,476.79,1113.84,464,1103.83,464ZM1107.5,440c0-1.81-7.51,4.31-6.39,11.29h2.24C1103.35,446.63,1107.5,444.34,1107.5,440Zm96.64-84.76c-3.78.69-6.23,3.78-11.19,4.16-5.43.42-7.94-.64-13.64-3.84-.21,1.7-2.45,14.65-4.74,9.91-1,1.76-4.42,10,1.12,7.35v1.92c-3.36.58-5,11.35-8.68,15.56,0-1.18.1-1.82,0-3-2.19,2.13-2.83,2.87-3.79,5.64-.85-1.17-2.23.86-1.7-2.45-2.45,1.76-3.36,4.16-3.73,7.78-7.56-3.3-21.68,3-23,11.3,1.44.1,3.46,0,4.37,0,0,3.67-4.05,5.32,1.54,6.92,0-3.89,6.23-9.48,0-10,1.33-4,10.76-4,14.76-4.64-4.32,2.72-11.24.11-9.64,7.4,3.51-1.49,6.87-3.08,9.26-5.32,1.76,4,6.61.91,5.86-2.61,15-1.71,12.15-2.45,15.72-15,2-6.93,4.31-12.36-2.24-17.79,4.43-.86,11.83,3.3,11.56-1.55,3.25.69,18.17-7.56,18.17-11.72C1203.87,355.27,1204.14,355.48,1204.14,355.27Zm7-3.62c-1.6.26-2.39,1.38-3.83,2.13,2.34,1.38,3-.11,3.83-2.13C1210.9,351.7,1210.85,352.39,1211.17,351.65Zm18.54-20.25a15.91,15.91,0,0,1-2.29,4.37C1230.51,334.49,1229.66,332,1229.71,331.4ZM1275,311.48c-.37,0-1.06-1.92-2.07-1.12a5.93,5.93,0,0,0-.22,2.19C1273.34,312.71,1275.74,313,1275,311.48Zm-5.11.59c-.75-2.13-.54-3.47-2.51-5,0,2,.43,3.78.59,5.76,1.33.37,2.29.42,1.92-.8ZM1260,291.5c1.44,0,2.4-1.7,2.51-2.71-3.31-1.28-3.63.74-4.91,2.71A6.06,6.06,0,0,0,1260,291.5Zm87.53-26.37c3.19.54,7.61,1.92,10.81,1.49-2.72-5.32-8.57-1.22-10.81-1.49C1348.08,265.19,1347.18,265,1347.5,265.13ZM1314,218.68c4.1.93,9.16-.91,13.42-.91-1.11-1.73-4.58-4.15-7.45-4-1,0-9.17,4.1-6,4.9Zm-118.37-29c3.72,1.46,16,5.93,16-1-5.28-.27-13.32.48-15.5-3.2-.37.38-1.71,3.68-.53,4.19C1195.83,189.78,1195.3,189.54,1195.62,189.73Zm-22.75,12.11c4.58.72,8.68-.24,13.05,1.31C1184.43,196.7,1177.29,198.36,1172.87,201.84Zm3.78-4.76c2.5,0-2.13-2.13-3.57-2.08C1173.08,197.29,1174.63,197.08,1176.65,197.08Zm-14.17-8.53c4.1,6,27.22,4.37,28.77-3.19-3.68-.7-8.32-2.91-8.32,3.11a6.71,6.71,0,0,0-2.28,0c4-8.36-4.75-3.59-7.68-3.67C1167.11,184.61,1165.63,181.76,1162.48,188.55Zm-4-1.52a2.78,2.78,0,0,1,0-2.26c-4.2-.59-2.07,3.84,0,2.26C1158.43,186.79,1158.11,187.33,1158.48,187Zm-2.07,8.16c1.28,3.08,1.11,4.95,4.9,4.44A25.15,25.15,0,0,0,1156.41,195.19Zm-100.79-27.84c-1.07-2-4.27-2.5-6.4-1.49.53.61,7.3,3.78,6.4,1.49C1055.45,167,1055.72,167.62,1055.62,167.35Zm-44.11,8.9c1.27-.43,2.71,0,4,0C1015,171.48,1013,175.23,1011.51,176.25Zm16.45-6.82c.75,0,18.7-3.84,19.13-4.34,4.42-5.81-8.84-5.22-9.85-5.68.9-.93,1.27-1,1.54-2.1C1031,156,1027.11,169.43,1028,169.43Zm-12.09-18.73c-13.21,1.92-11.35,9.35.8,10.47,9.22.88,9.86,1.09,9.38-4.42-.59-7.49,0-3.78-7-3.78a4.57,4.57,0,0,0,1-2.24C1018.59,150.7,1017.26,150.68,1015.87,150.7Zm-11.4.75c5.27,2.79,12.68-4.53,15.72-6.45-6.87-3.3-16.3-3.67-21.79,3.6.32.61,4.79,2.24,6.07,2.85C1004.74,151.61,1004.31,151.31,1004.47,151.45Zm-1.49,1.7c-2.5,0-4.31-1.44-6.92-1C996.37,159.89,1006.44,153.15,1003,153.15Zm-7.78-12.33c-5.69,0-1.28,2.37-1.7,3C992.38,145.72,1000.85,140.82,995.2,140.82ZM847.43,229.65c-3.31-.56-8.8-4.45-6.4,3.41,2.13,0,6-1.09,6.4-3.41C847.21,229.63,847.37,229.89,847.43,229.65ZM862,202.22c-3.36-.32-10.28,8.44-10.28,13.05,2-.4,3.3-1.65,4.42.75a1.15,1.15,0,0,0,.75-1.5c4.31,2.19,1.33,4.64,3.67,5.68,3,1.33,8.9.85,12.26.85-.43-4.61-5.55-6.07-5.86-10.34-.43-5.27,4-8.33,7.19-11.56,7.56-7.53,14.64-11.69,25.73-14.38,3.25-.8,17-3.65,15.55-7.19-2.13-5.2-10.06.64-12.89,1.49-6.87,2.21-29.72,2.8-29.72,11.19a13.5,13.5,0,0,0-4.16,0c3.52,6-8.9,5.83-7.78,9.88,1.28-.27,1.65-.75,3-.59-.69,1.79,1.17,2.91-1.92,2.67C861.49,202.16,862.61,202.27,862,202.22Zm57,1.7c3,0,4.63-1.86,5.43-2.29C926.06,200.78,914.28,203.92,919,203.92ZM892,143.86c4.26,6.42,7.14.32,11.93-.56C899.47,140.79,896.11,145.24,892,143.86Zm-9.27,0c0,2.21-1.55,1.57-2.66,3.41a21.88,21.88,0,0,0,10.6.48C887.48,143.78,887.81,140.87,882.69,143.86Zm-1.33,6.84a10.47,10.47,0,0,1-3,.56c.53,2.61,2.24,1.15,4.37.75-.21-1-.05-1.63-1.33-1.31C881,150.78,881.63,150.65,881.36,150.7Zm-13.26-1.14c1.75,1.52,2,3.86,4.74.37,0,4.24,5.48.27,6.23-.37a2.93,2.93,0,0,0-.22-1.52C875.5,147.4,870.17,148.89,868.1,149.56Zm-10.82.37c3.14-3.2,9.8-4.58,14.6-3.44-1.12-6.81,6.23,2.4,7.19-3.94a27.79,27.79,0,0,1-4.74,0c.63-.93,1.86-3.11,2.29-3.59-2.61,0-4.32,1.65-5.7,2.07a45.41,45.41,0,0,0-5.11,1.52c-1.39.85-1.87,2.77-3.79,4.16C859.36,148.62,858.08,147.13,857.28,149.93Zm-15.13-5.11c-5.6,0-7,2-12.31.93.27,4.07,7.25,1.33,10.45,1.33-6.61,4.79,4.52,6,7.77,1.7C853.29,141.78,848.33,144.82,842.15,144.82Zm-108.52,6.44c1.23,3.12,8.1-1.06,9.43,2.45-1.86-.1-3.78.08-5.7,0,3.47,9.62,22.38,1,26.74-1.52-4.26-4.71-10.22-.79-14-1.91.69-1.42,1.65-1.15,1.33-2.83-4.48,1.76-3.31.24-5.92,4.74-1.65-4.31-13.85-5.3-11.88-.93C733.74,151.61,733.42,150.84,733.63,151.26ZM726,165.65c0,1-10.13.42-11.35,4.55,2.45-.53,10.12-2.29,11.13-1-1.54,1-9.8,2.35-9.91,3-.21,1.28,7.2,4.87,8.8,7,4.89-3.7,9.58-10.89,9.58-16a20.61,20.61,0,0,1,5.38,0c-.63,4.61.53,1.34,2.51,4,1.43,1.94-1.54,3.6-1.54,5.59,5.22-3.25,5.74,1.07,7.77.75s5.81-2.56,7.94-3c-2.3-3-4.64.46-4.64-4-2.23.3-17.31-8.68-17.74-10.06a3.4,3.4,0,0,1-3,0,17.3,17.3,0,0,0,1.38-3c-5.7-2.69-5.86.42-8.52,1.17,1.28-.37-2,3.19-2.4,3.3.85-.29-1.44-4.5-1.81-4.61.53.16-6.34,2.67-6.23,2.59.74-1.18,1.06-2.43,1.7-3.41-3.35.72-17.47,4.1-6.23,5.67,0,1.44.26,5.06-.22,6.26-2.07-1-1.81-2.85-4.36-3.41,1,2,5.06,8.68,5.06,2.66,2.4.22,2.55,3.79,5.91,2.64,1.33-.42,2.08-2.88,3.36-3,.16,0,7.08-.66,7.46,2.27C726,165.78,725.91,165,726,165.65Zm468.64,122.6c9.48,0,11.08-4.05,17.63-2.66,3.62.69-.69,3.2,3,4.15,5.38,1.28,3.62-4,8.31-.42.37-2.51,2-.53,4.15-.75-1.17-4.74-3-.53-1.12-5.48.81-2.19,5.76-7.09,7.46-8,6.13-3.41,11.3-2.08,11.3,4.85,8.25-1.55,10.33-12.79,18.16-11.24-5.22,4.26-7,11-12.84,15.77-7.35,6.07-16.67,9.43-19.28,17.36-1.87,5.81-1.71,14-.59,19.29,1.55,7.3.75,8.47,6.18,5.59,5.81-3,6.29-16.19,15.4-13.85-2.45-4.63-.59-10.92,4.69-7.56-1.71-3.79-.27-7.3-.75-9.65-.32-1.17-2.51-.32-3.41,0,.16-1.86,3.2-9.16,4.37-10.22,3.14-2.88,3.52-1.23,7.46-2.13,2.13-.43,1.33,1.49,2.77,1.38,2-.16,2.5-3.36,4.15-3.46,2-.06,3.94.64,6,.37,4.74-.53.86,2.88,4.58,3.62,0-9,21.42-14.54,27.49-16.3,5.49-1.54,6.07,4.85,4.16-3.41-1.71-7.35-5.49-4.42-10.23-7.56-2.72-2,11.24-1.55,11.19-1.49,4-1.63,5.32-3.84,3.41-8,2.82-.18,3.24,2.75,4.15,2.85a66.38,66.38,0,0,1,7.19,1.49c3.84,1.81,2.88,3,7.78,4.16,6.71,1.7,1.55,1.17,5.12-.21,2.92-1.07.58-4,2.29-5.44,1.49-1.36,11.71,3,7.56-4.39-1.49-2.61-12-4.43-14.6-3.39,2.35,1.6,2.93,5.38-1,2.64-1.38-1,.59-4.77-1.22-6.26-1-.77-2.77-.13-3.57-.82a62.37,62.37,0,0,0-6.92-4.37c-4-2.11-6.45-3.55-10.61-5.57-8.52-4.16-26.9-7.35-32.38-1.73,9.53,3.86-15,7.32-1.93-1.15-3.93-3-7.24,1.1-11.18,1.65-4.79.64-13.21,1.23-17.42-.87a23.52,23.52,0,0,0,0,4.36c-6-6.68-5.7-14.41-18.17-13.66-4.63.29-9.11,1.76-13.85.8-6.12-1.28-7.3-4.37-12.68-5,1.12-1.38-.9-.85,1.87-2.26-8-4.53-17.31,6.87-13.8-2.45-4,0-8-2.21-12.25-2.29-8-.16-6.13,1.12-13.48,2.29,0,3.28,3.78,3.09,3.78,6.61a49.76,49.76,0,0,0-8.9-1.42c.7,1,2.56,2.45,1.87,4.08-3.62-.69-4.31-3.49-7.72-4.13.15,0-9-.11-9.49,0-4.95,1.31-4.1,6.16-7.94,6.16.11,0-7.08-6.21-7.61-7.57-.64-1.65,2.08-7,0-9.48-3.25-3.84-5.92.32-9.27-.56-7.51-2-9.86-7.09-9.86,3.25-5.86,0-9.16.61-14.43-1.54-1.92-.8-3-3.36-5.44-4-4.58-1.18-12.78,1-17.74,1v-2.93c-1.76.56-4.58,2.32-6.18.74.43-.05,8.47-3.94,4.74-4.9-4.21-1.12-6.55,5.49-12.09,4.56.8,4.95-7.51,4.53-12,4.53,4.8-.46,25.89-13.3,26.37-15.91,2-11.4-19.55-10.41-24.45-8.55,1-1.17,1.71-1.41,1.71-3.19-2.83.29-5.55-.59-8.32-.59a26.28,26.28,0,0,1,3.25-4.13c-11-.85-11.4,2.93-18.22,6.42.91,1.15.7.83,1,2.05-7.51-1.75-8.09,3.36-14.38,4.05-2.29.21-6.44-2.53-9.85-2.13-.64.08-7.68,4.37-10.82,5.14a75.81,75.81,0,0,0-9.59,2.43c-1.22.48-7.88,2.82-8.58,3.91-3.14,4.66,5.81,1.52.27,5.57-6.07,4.45-17.42-1.28-23.6,4.18,1.66,3.92,12.63,10.31,6.45,10.79-1.76.13-4.05-3.22-5.12-3.57a20.54,20.54,0,0,0-12.67-.8c1.75.85,4,.67,4,3.22-14.12-.9,2.29,2.35,1.65,6.82-2.29-3.54-8.36-1.22-11.13-4.71-1-1.2.16-7.22-1-9.49a1.73,1.73,0,0,1-1.55.38c0,7-4.15,4.18-4.89,8.33,0,0,1.16,11.62,1.43,12,4,6.61,2.93.64,7.88,2.56,6.13,2.43,5.81,5.62,5.81,9.64,0,1.44,4.8,2.19,5.54,2.29-7.88,5.2-6.29-14.43-17-5.72,0,0,.37,5.19-.43,6.47a11.56,11.56,0,0,1-5.17,4.45c-5.75,3.25-5.64,1.92-13,1.41,1.59-2.34,7.56-1.94,10.59-4.53,2.78-2.45,4.7-5.22,4.7-9.21-4.37.37-5.92-16.92-5.49-21.77h2.45c1.28-6.34-9.11-7.93-13.64-4.55-.58.48-7.78,12.07-7.94,12.6,1.23-3.44,1.28,8.23.22,6.12,1,2,2.82,1.52,4.15,4.29.85,1.81,4.9,1.73,4.16,4.56-1.28,4.95-6.24-1.81-6.45-1.89-5.54-1.5-9.8-3.52-15.13-5.3-2.77-.94-12.78-6.13-14.38-5.86-7,1.06,13.16,9.08-.32,14.38,0-10.55-21.95,7.64-17.9-4.34-5.81,3.41-12.41,3.54-18.28,7.46-1,.69-13.63,12.25-12.78.58,9.59.32-1.6-6.12-7-6.12,2.4,2.37,4.1,14.41,1.7,15.87.59-.32-5.64-1.76-7.4-1.41-1.39.27-5.22,4.61-7.94,4.82.74,1.09,2.82,4.32,2.66,5.91-3.88-2-8.47-.1-11.72-4.2-7.83,4.2,3.95,4.74,3.95,7.19,0,1.91-5.92,1-6.4.74-5.86-2.77-2.93-2.08-5.53-6.39-2.19-3.76-6.88-8.5-10.4-13.1,3.15.58,36.33,13.74,32.4-1.71-1-3.7-10-7.14-13.43-8.42-5.43-2-13.53-.56-15.93-2,2.77-5.81-8.42-3.94-11-6.31,4.26,0,2.07-2-.11-3.12-5.49-2.9-3.25.75-7.14.75a22.48,22.48,0,0,0,1.17-3.71,15.77,15.77,0,0,0-5.22,0c.11,1.92-.26,3,0,4.66-1-2.37-1.81-1.91-3.67-3.62-.7,4.16-2.56,5.91-2.56.59a8.28,8.28,0,0,1,2.72,0v-2.45c-1.6.24-11.88,5.73-8.15,1.71-7.94-.8-7.25,3.51-3,5.86-2.29-.91-5.33-.14-7.72-.94,0,2.19.37,2.77-1.18,4,0-2.72-3.94-5.2-6.6-4.93,1.06,3.78-2.51,9.64-3.2,4.16-4.63,4.63-.32,1.33-1.92,6.26-3.89-1.58-3-.48-4.15-4.37-1.6.56-2.5,2.26-5,3.41.69,1.25.59.66.59,1.89-3.57,0-5.7,1.68-7.57,4.15,3.95-1.25,9.75-4.92,14-2.82-5.59,1.28-13.85,10.79-14.92,17.63-1.86.16-4.68,2-6.28,3.55h3c-.43,3.72-9.06,7.45-11.72,6.87,0,1.54-.27.9.37,2.82-10.28,2.13-11.56,8.1-13.64,15.56,8.53-.27-3,5.11,4.74,5.75-.16,2.13-1.22,2.45-1,4.48,8.37,0,11.45.95,17.05-6.08,3.68.64,6.45,13.75,9.7,17.42.9,1.07-2.08,2.93.26,3.78,5.44,2.14,3.09-1.81,5.38-2.66,4.1-1.44,6.34-2.88,9.86-3.73a2.38,2.38,0,0,0,0-1.92c-2,.22-2.61.16-3.78-.74,1.17-1.87,6.07-8,6.44-8.95,1.23-3.14,5.87-5.86-1.12-5.86,0-5-4.31-9.7.91-15.72,2.61-3.09,7.46-3.25,9.86-6.44,1.59-2.08,1.65-8.07,5.37-10.42,2.89-1.78,9.49,1.25,10,4.66,1.11,7.35-22.64,11.46-11.72,24.14,7.67,8.89,21.09-1.92,30.1,3.25-5,5.11-12.2,2.87-18.17,3.62a110.33,110.33,0,0,0-10.66,3.19c.86.32,1.5.75,2.3,1.07-1.82,0-3,.64-4.74,1.17,2.07,5.44,6-.85,7.4-.21,2.61,1.28,2.82,2.66,5.11,4.21-6.49,8.26-6.07-1.39-9.85,0-4.58,1.65-4.26,11.56-4.37,14-3.89,0-8.89-2.13-5.65,3.19-5.86-6-9.1.43-15.55,1-2.19.16-11.56-5.33-12.2.69a12.31,12.31,0,0,1-6.18-2.08c.69-6.55,10.07,2.77,9.11-8.89-1.38.63-6,2.23-6.82,1.91a18.71,18.71,0,0,1,1.12-4.05,2.73,2.73,0,0,1-2.24,0c.85-6.18-.74-7.29-5.54-2.39-3.35,3.41-.9,7.08-1.06,10.39-.38,8.52,2.13,3.83-4.48,7.67-3.36,2-9.21,3.94-13,3.94,4.85,6.23-4.58,5.59-8.15,8.31-.37.27-3.3,7-4.36,7.35-3.58,1.12-5.76-2.13-8.11-1.92,5.55,9.54-5.43,2.88-8.73,5.44-4,3.09,1.06,2,2.34,3.89,1.87,2.61,4,3.67,6,7.61,10.76,21.47-15.34,8.21-26,12.68,2,6.88-1,14.92.75,21.58,1.55,6-.48,2.29,4.74,5.64,3.31,2.14,5,.11,8.15,4,.69-.8.59-1.17-.37-1.12,5.43-1.92,12.2-4.15,16.51-8.15,1.76-1.65,2.62.43,4-1.44.79-1.12-1.6-3-1.5-3.09.65-.9,1.13-4.68,2.46-6.28,1.75-2.13,9.42-4.37,10.76-5.49,1.59-1.33-1.12-4.1,1.76-5.86,2.39-1.49,6.76,1.86,9.42,1.39,1-.11,6-6.19,8.74-5.76,3.67.64,7.35,7.62,10.39,10.07,9.16,7.14,25.36,16.89,2.5,16.89,6.13,10.7,15.77-.43,18.38-6.77h-3.25a9.18,9.18,0,0,1,.16-2,36.41,36.41,0,0,0,6.87,1.33c-2.34-4.53-8.89-9.75-14.59-10.6.58-3.57-5.33-8.05-8-7.83.79-11.94,8.47-1.34,14.33,2.93,4,2.93,9.21,4.95,11.45,9.05,1.38,2.56,3.3,9.38,4.75,12.15-1.55-.48-2-.8-3.41-.53,1.22,3.24,2.92,4.79,5.11,2.24,2.29,11.71,10.07-.86,14.38-1.55-.69-1.23-1.6-2.24-3-2.24a2.66,2.66,0,0,1,0,2.24c-2.23,0-6.92-7-6.23-8.47,2.29,1.28,3.57,2,6.08.9a1.29,1.29,0,0,0-1.34-.9c8.58-12.63,13.32,20.13,14.65,20.13,1.5,0,1.17-4.26,1.17-4.84,3.31,2.93,6,2.34,8.58,2.72-2.72-.38,4.37-1.81,4.21-1.81,2.72-.11,3.94,3.3,8.36,2.23a22.71,22.71,0,0,1,0-3.3c8.31,1.7,9,4.58,5.92,13.42-1,3.09-4.9,8.1-7.57,9.27-3.24,1.39-6.28-1.91-9.32-.32,4.74,2.24,8,16.46,13.42,11,8,8.42,10,19.92,15.29,28.76,3.36,5.55,10.23,9.91,13.11,16.3,3.89,8.63-1.28,13.85,9.64,14.07,4.9,0,10.71-4.69,15.55-6.71,5.55-2.24,8.26-4.58,12.69-6.61,5.7-2.61,9.11-1.49,13-6.07,1.86-2,5.7-7.24,8.15-6.24,0-5.32.11-5.53,4-7.18-.43-2.56-4.75-5.44-6.67-7-3.41-2.93,0-6-4.89-1.11-.54-2.3-1.23-7.3-3-8.69-2.08,2.56-2.72,2.77-3,6.82-7.56-.64-19.39-.37-5.48-2.88-.22-.85-10.88-3.84-11.4-4.15-1.66-1.18-6.72-6.77-7.15-9.27-1.44-8.74,2.78-5.86,7.94-2.24,6.39,4.37,8.58,6.39,16.09,8.85,1.28.42,4.31-.44,6.08,0,1.33.37,1.64,3.35,3.45,4.15,3.36,1.6,11.73,2.34,15.67,2.5,9.11.32,11.66-.48,19,3.68,3.95,2.23,4.32,5.06,10.23,6.18-10.44,0,1.55,5.43,3.95,6.23,3.93,1.28,1.86-5.33,6.07.59,2.08,2.77.42,6.39,1,9.48,1.06,6.07,3.24,10.92,5.49,16.62,1.48,3.84,4.2,16.41,7.93,18.59,3.94,2.19,7.89-1.76,10.07-6.28,1.49-3,1.49-6.55,1.86-10,.22-1.82-.48-5.12.11-6.61,2-5.06,1.55-.11,5.22-3.73,7.09-6.82,15.45-17.15,22-20.77,2.51-1.44,13.64-3.74,13.8-3.63,2.13,1.38,7,12.41,7,14.92,6.5,0-.95,5.43,3.79,9.16,3.19,2.51,6.82-2.82,7.4-2.67,5.06,1.39,8.58,14.71,8.47,20.19-.05,2.94-4.53,6-2.56,11,1.18,3,5.76,5.76,7.41,9.54,2,4.58,6.07,21,14.86,16.83-3-5.16-3-14.33-6-18.11-4.42-5.27-9.59-5-10.81-12.68-.27-1.76-2-9.43.9-11.83,4.64-3.78.8-.9,5.33,1.55,3.94,2.13,3.57,2,7.09,6.4.79,1,3.67,1.81,4.1,2.45,1.28,2.12-.38,4,1.49,7.24,3.78-5.33,9.53-6.72,12.52-10.82,5.54-7.56,2.08-13.9-2.45-19.76-6.87-8.95-8.69-19.81,7.19-19.81,1,4.57-5.86,9.58-3.2,11.93,6.51,5.75,7.89-11.08,7.73-11,2.82-2.55,9-2.72,12.15-3.73,4.68-1.49,6.23-2.5,10.17-5.48,5.49-4.11,15.61-13.11,16.89-20.52,1-5.43-1.92-2.07-2.46-5.75-.31-2,1.66-1.59,1-5.22-.85-4.37-6.92-9.8-6.81-12.95.21-6,6.33-4,8.52-7.19,1.92-2.82,1.92-2.66-3.73-4.74-2.5-.85-1.87,2.93-5.11,2.93.9-7.08-8.37-2.13-4.27-8.73-.26.48,7.36-2.88,7.78-3.09,8.32-3.15,5.86-4.16,2.45,4.58,2.46-1.39,9-4.85,11.78-3.62,5.8,2.61,1.22,3.51,1.7,8.3,9-3.72,6.24,10.45,5.28,14.76,6.39.69,13.63-3.57,13.48-9.75-.11-5.53-7.15-6.18-5.71-13.9.32-1.55,3.15-.37,3.41-1.12.11-.21,1-6.18,1.55-6.87,1.27-1.76,3.41-5.33,5.8-6.39,1.39-.59,6.4.53,8.95-.22,3.41-1,4.32-1.81,7-4.15,4.32-3.68,9.8-10.55,12.73-15,3.41-5.06,2.45-9.11,4.74-14.33,7.36-17.26,4.06,16.78,4.06,21.52,1.38-1.39,2.45-.64,3.67-3.41,1.71,1.6.21,2.88,3.83,3-1-6.93-8.41-13.06,1.87-13.06.27,0-4.9-23.54-5.11-26.31h-1.5c.27,5.64-1.54,5.22-1.54,10.44-4.32-2.56-3.46-8.1-11.35-10.44-.9,5.75-3.67,3.83-6.07,0a7.37,7.37,0,0,1,0,3c-3.35-.48.06-2.61-2.45-4.74-5.33,5.33-.11-2.71,1.86-4.9,3-3.3,6.13-5.54,9.38-9.59C1178.25,288.79,1184.37,288.25,1194.66,288.25Zm-552.18,3.52a7,7,0,0,0-4,4.37c1.6-.43,6.87-4.9,4-4.37C641.79,292,642.7,291.77,642.48,291.77Zm4,42.46c3.84,0,6.71-2.67,8.9-3,3.35-.53,8.09,1.07,10.81-.16a9,9,0,0,0,5.06-11.19c-.8-2.77-2.88,1.66-3,1.55-1.28-1.33-1.07-3.52-2.08-4.37-1.71-1.49-4.05-5-6.28-7.62-3.41-4-3.84-3-4.37-6.23-.33-2.13,8.41-10.44-4.53-6.61,1.06-1.86,1.22-3.41,3.24-4.58-4.26-4.26-6.12,2.35-7.72,3.62-.26.22-8.89,3.15-2.13,4.32-.59,2-2.77,4.85-2.66,6.07,2.24.27,5.06,2.08,5.65-.37-.54,7.4,3.35,3.3,6.12,9.27,3.14,6.92-3.3,2.18-6.66,6.29a26.75,26.75,0,0,0,3.78.37c0,2.08-5.11,2.93-3.41,4.9,1.07,1.22,6.4-.59,8.16,1.12C654.69,328.21,644.14,334.23,646.48,334.23Zm-3.25-19.5c8.42-1.23-13.37-12-8.31-1.92-4,.75-9.38,6.34-2.82,6-8.53,12.36,3.35,4.16,10.6,5.75A93.24,93.24,0,0,0,643.23,314.73ZM845.93,603.2c0-7.3,5.22-22.32-3.41-25.73,0,2.56-3.35,8.53-4.9,9.91-3.19,2.93-8.15,1.7-11.4,4.85-2.5,2.45.32,10.07,0,12.09-.59,3.84-2.23,4.32-3,9.11-1,6.24.43,15.45,8.74,13.64,8-1.76,5.44-4.21,6.82-11.35.11-.85,2.13-9,2.29-9.11C841.67,605.71,845.93,604.43,845.93,603.2ZM783,422.45c-3.62-8.63-5.7-5.33-13.64-6.29-11.46-1.38-20.3-5.06-31.06-7.51,0,10.39.22,8.47-6.82,8.58,1.44-.11-6.18-2.24-5.43-1.92h-5.54a8,8,0,0,1-1.12-3c-3.35-1.12-13.48-2.77-15.56-5.59-3.89-5.22,4.37-6.18-2.66-10.71,1.87-1.55,1.65-1.76,4.21-2.29-3.57-6.08-13.37-.42-18.59-.32-5.54.11-11.45-2.35-18.54.75-4.8,2-8,4.85-14.39,4.68-7.67-.1-11.77-5.43-11.77,4.53h-5.7c2.56,9.22-4.16,3.25-5.65,6.29-2.4,4.84-1.59,10.6-3.78,13.69-1.33,1.81-6.34,4.26-8.36,6.82-2.19,2.61-4.8,7-7.19,10.55s-11.94,12.46-10.6,17.79c.37,1.49,5.75-.64,6.6,1.17.75,1.44-1.07,2.13-.74,3,1.49,3.95-1,10.45-1.34,14.44-.37,4.85-.8,9,4.58,14.55a233.71,233.71,0,0,0,17.43,16.51c2.18,1.92,3.24,6.29,7.93,7.24,5.28,1,6-1.27,11-1.91,4.36-.54,7.67,1.38,10.65,1.27,6.29-.21,5.86-2.6,11-4.36,4.16-1.39,13.11-1,15.51,0,3.78,1.7,2.82,4.47,8.41,5.75,9.7,2.13,9.17-2.66,9.38,7.57.1,4.79-1.81,10.92-4.53,13.63,12.15,3.84,20.14,28.67,18.17,40.49s-9.11,12.41-3,25c3.79,7.88,5,12.57,7.19,21.2,2.19,9,9.17,15,11.73,23.12,2.18,6.93-1.18,9.11,2.29,12.9,9.16,10,33.4-1.82,40.54-9.49,2.77-3,7.46-8.15,9.06-11.72s-.54-8.52.37-10.65c.79-1.7,6.82-2.77,8.74-5.33,5.16-6.71-2.62-9.59-1.13-16.62,1.18-5.7,11.73-8.63,14.76-11.4,7.51-6.72,7.94-14.23,6.08-24.35-1.07-5.7-6.34-14.17-4.16-21.09,2.87-9.32,14.81-18.33,22-24.62,5.27-4.63,10.49-10,14-16.3,2.39-4.21,3.94-4.58,4.53-10.22,1-8.9,2.39-6.77-5.28-6.82-10.65-.06-13.79,4-21.2-4.1-4.26-4.75-11.14-9.17-15.18-14.44s-8.15-17-10.6-23.12c-3.68-9.38-5.81-19-12.52-27.33C782.75,421.81,783.44,423,783,422.45Zm-385.27,290c-1.49-.31-1.39-2.66-2.45-2.66.48,0-3.41,4.47-3.41,4.43,0,.68,7,6.12,7.56,6.38a2,2,0,0,0-.37,1.55c-12.15,0-2.45,10.71-4.37,15.13a9.69,9.69,0,0,1,3,0c.05,1.06-.53,1.65-1.71,1.76,2,2.07,1,.85,2.88,1.33-.64-.22,8,10.82,9.43,11.72,7.24,4.47,14.12,2.29,21,1.76-.32-2.24-9-4.74-10.81-9.06-1.71-4.16-5.6-14.91,1.33-14.22,0-4.37,8.79-9.27,8.15-12.42-.69-3.72-9.48-1.49-6.45-8.89,1-2.34,5.76-1.07,6.82-2.34.91-1.18-.32-3.1,1-4.48-.85,1,4.48-8.31,3.78-4.9,1.23-6.07-4.52.16-3.24-8.84,8.89,3.56,10.65.31,9.32-7.94,7.35.21,16.19.48,19.55-6.66,3.62-7.57-3.3-5.86-4.64-12.47,8.21,1.07,11.3,4,17.64-1.7,3-2.67,5.32-13.37,8.68-12.89-.48,1.49-.75,1.65-.37,3,9.75-4.85,7-18.64,12.36-25,3.46-4.16,8.25-6.18,13.16-7.57,7.77-2.23,9.9-1.7,14.27-9.32,5.17-9,3-22.64,7.19-29.89,3-5.27,9.7-8.42,11.46-14.49,1.22-4,1-3.78-.06-7.51-2.23-8.09-2.13-2.77-7.19-6.76-5.48-4.26-7.72-5.22-14.54-6.5-3.68-.75-16.67.16-11.24-2.67-2-1.38-5.27-3.41-7.94-3.94-6.66-1.28-5.17.22-9.85,2.24a54.39,54.39,0,0,0,2.45-5.43,40.2,40.2,0,0,1-5.92-1.6c-1.7-.54-.74,3.83-4.31,3.41.69-1.6,7.62-10.29,1.12-10.29,1.12-11.5-9.54-12.09-16.62-13.9-5.76-1.39-18.49-7.24-18.49-13.69-3.25,1.12-9.06-.37-4-2.66-3.35-4.32-10.33,1.75-12.3,1.7-7.25-.26-10.71-6.34-17.63-7.62,0,3.73-2.56,2.88-4.75,5.12-.32.32.64,5.43.38,6.28-3.89-3.19-2.88-10,1.12-12.46-6.4-1.81-24.3,10.06-25.36,18.11-.59,4.47,4.1,9.16,1.06,15.34-1.65,3.41-8.63,10.45-12.3,11.72.64,5.76-1.76,6.82,4.15,7.25-2.45,4.26-8.2,6.82-4.9,13.79.8,1.76,4.53,2.14,6.07,4.32a46.87,46.87,0,0,1,4.05,7.78c2.08,5.11,4,13.63,7.3,17.47,4.53,5.22,10,6.71,15.61,11.13,9.54,7.52,6,23.5,4.48,35.22-.86,6.39-3.25,12.52-4,18.43-.85,7,0,14.38-2.82,21-3.15,7.35-2.93,11.67-4.9,19.92.1-.48-.06,5.44,0,4-.06,1.27-2.56,2.56-2,4.15,2.66,7.94,5-3.94,7.67-4.15a67.77,67.77,0,0,0-3.46,16.51c-1.49-2.5-1.86-1.12-2.4-4.58C395.24,705.86,397.91,711,397.75,712.46Zm9.48-244.52c6.61-1.49,16.14-.37,22.75-2.66-2.93-3.62-11.94-2.45-17.48-3.2-3.51-.42-10.76-4.58-11.34,1-.38,3.52,2.82,5.54,6.07,4.9C408,467.78,406.75,468.05,407.23,467.94Zm-17.79-1.17c-1.55-2.4-4.69-3.2-7.94-2.66,2,2.66,5.65,4.95,7.94,2.66C389.12,466.34,388.85,467.41,389.44,466.77Zm6.82-8.47c-2.88-4.63-14.71-7.41-19.71-9.33-3.25-1.16-10.66-4.2-14.71-1.86-4.47,2.61-3.35,3,1.44,5.27,2.08,1.07,3.3-2.18,5.33-1.81,2.77.43,4.53,2.83,6,3.36C382.46,456.75,387.36,458.3,396.26,458.3Zm183-205.53c3.46-.56,4.69-.48,5.65,3a20.08,20.08,0,0,0-7.57,0c.11.75.27,1.54.37,2.29,7.73-1.28,1.76,3.09,5.7,4.53.85.26,9.75,1.17,10.23,1.12,6.82-.32,7.41-1.76,13.27-4.9,5-2.72,7.13,1.06,8.68-4.19.64-2.07-3-2.13-3.78-2.26,1.65-9.43-11.19-1-17.53-1.86-.95-.08-6.61-.88-5.59-.78-2.72-.24.21-4.26-2.66-.77-6.93-2.32-8.63,4.16-6.77,3.78C579.78,252.69,578.72,252.88,579.25,252.77ZM462.53,328.53c-1.49,1-10.28,15.13-9.64,16.19,1.33,2.24,6,.11,8.57.85,3.89,1.18,4.74,2.77,8.63,4.59,5.92-9,.38-12-8.31-14.81,0,.16,5.28-9.38.75-6.82C462.05,328.85,463,328.31,462.53,328.53Zm-20.46,8.36c-3.78-1.22-5.43-2.82-9.11-2.29,3.46,2.08,5.7,7.19,9.11,2.29C441.54,336.73,441.91,337.16,442.07,336.89ZM549,235c1.07-.4,2.24,1.14,3.09,1.38,6.71,2.16,6.71-.4,12.2-2.56,4.9-1.89,17-4.52,18.75-9.1-6.6,5.16-22.16-6.9-5.59-6.21-.7,0,7.4,8.5,9.27,1.12.69-2.72-6.08-9.27-8.21-10.44,1.18-1,8.63,4.39,6.4-2.64-1.07-3.3-3-3.36-7.36-1.89.86-1.33,1.71-1.23,2.24-2.45a9.37,9.37,0,0,1-2.24-1c2.4,0,9.27,3.33,12.47,1.17,7.35-4.9-4.53-3.14-4.53-5.51,0-.59,11.19-1.12,11.94-2.45-2.35-2.32-8.53-6.31-1.13-6.93.17-6.12-9-6.1-8-9.56.42-1.41,4.9-1.94,6.07-1.52,4.85,1.87.85,2.27,3,6.64,1.33-7.86,4.36-9.75-5.12-9.75,2.61-2.91.11-.8,4.53-2.93-2.66-4.08-9.22-.16-9.27-.19-6.76-5.46,17.1-20.24,19.34-23.07-3,.19-6-.34-8.95-.42,6.18-1.28,9.7-1.1,15-4.56,1.44-.93,9.11,0,5.65-5.09-.59-.9-8.52-.48-9.27-.39a114,114,0,0,0-15.18,2.82c-2.88.82-14.76,7.11-16.47,6.82,6.82-8.55,10.55-9.83-1.86-11.67,0,5-3.57,4.45-8.36,5.25.79-4,3.56-2.43,6.44-3.78-7-5.23-19.92,2.87-27.65,1.67,2.08-6.2,33.67-6.71,40.92-7.53v-1.74c-7.25,0-10.5-1.11-16.09-2.07-8.42-1.39-16.62.58-24.83-.27,6-4.13,18.28-2.29,26.9-2.29-1-6.71-38.83-3.94-43.73-2.37-5.22,1.73-.53,3.46-7.09,4.18-3.83.43-7-1.84-11-2-3.62-.16-10.82.56-14.86,2.11,1.22,2.42,4.1,1.38,4.1,4.82-1.55-1.2-8.37-4.05-6.18.16-.53-1,12,6.39,8.47,6.39-8,0-14-6.42-22.48-6.42,0,1.81,5.22,4.93,6,7.65-5.06-1.44-8.47-6.05-13.9-6.56,1.38,2.75,1.81,9.41-2.66,6.74,0,0,2.13-5.48-.86-7.11-3.57-2-14.91,5-17.31,3.78,2.61,1,7,2.43,9.06,4.64-3.63,0-6.66-2.51-10.45-3-2.45-.35-1.81-2.29-5.06-.74s-.64,3.83-1.49,4.31c-3,1.73-9.16,2.42-14.81,5.43-2.23,1.2-7.67,1.1-7.35,5,3.25.85,4.9,0,7.94,0,2.18,0-.11,7.11-.53,7.51-1,.88-5.76.64-7.25,1-3.89,1-10.87.59-14.81,2.93-12.84,7.54,10.87,8.18,17.85,8.18C423.37,176.3,409,172,409,175.34c0,1.63,6.23,3.38,7.57,3.68-1.07,0-1.18,0-1.5.77,1.92,1.54,5.6,4.74,8.42,3.7-.21-.4-1.44-1.52-.8-1.92,4.27-2.63,22.59-.61,27.65,2.64,7.3,4.69,12.89,14.28,13.59,23.09h1.81c-7.25,13,10.17,2.32,15.13,14-4.69.14-9.11-3.14-13.43-1.33,1.07,3.22-2.82,8.47,3.78,8.63,5.76.13,7.62-4,.91-5,9.54-1.14,7.25,2.56,9.91,9.27-4.26-.21-7.62.54-7.51,4.72-9.48-1.23.48,11.16,1.06,13.16-.21-.54,2.83-1.31,3.41-.11.43,1-3.09,2.18-2.13,3.06-1.49-1.38,1.71,5.33,1.33,4.37a14.12,14.12,0,0,1,4.37-2.13c-2.93,6,0,16,6.45,20.88,2.87,2.19,17.05,7.67,19.34,6.4,3.14-1.71,2.29-8.21,3.56-11.14.8-1.76-1.91-2.29-.85-4.37.54-1.12,3.36-.37,4.26-2.07,3.84-7,1.5-13.75,11.09-14.57-.27-4.59.21-1.31,2.66-2.85C528.53,260.18,548.88,235,549,235ZM342.24,176.43c4.05,6.24,22.27,4,29,2.85,1.81,4.56,12.57,1.73,12.14-4.18-1,.48-2,.91-3,1.33-.32-.93-.64-1.89-1-2.82,4.31-.8,4.1-1.92,3-5.7,5.43,1.49,10,.69,6.23-4.32-.59-.77,5.7-.18,5.7-1,0-5.25-9.64-3.55-12.09-1.36-.27-.62-.54-1.25-.75-1.87,6.18-4.34,12.89,1.68,18.7-3.62-1.12-.83-2.24-1.62-3.36-2.42,3.89,1,7.62,1.89,11.94.16-1.87-1.44-1.6-2.56-4-3.6,9,2.16,19.5-7.62,27.81-9.83-2.66-2.66-9.8-.08-14.39-.61,3.73-4.82,24.46-.16,25.79-6.82.85-4.53-18-5.33-22.54-4.16-1.75-1.75-8.95-3.7-13.47-4.18-1.76,6.32-22.11-2.9-20.62,4.4-5.7-2.13-18.27-3.33-22.59,2.82,4.8-.27,10,.72,12.36,4.56-4.79-1.26-11.19-4.29-15.34-5.12-4.37-.85-7.94,1.47-9.16,1.63-4.59.64-13.75,3.06-19.29,4.23,0,.56-.11,1.15-.16,1.73,4.69,1.47,5,4.19,10.23,5.76,7.46,2.29,7.72-1.71,14.17-2.56-12.94,7.56,7.14,4.95,10.66,4.07,7.24-1.78,12.25-6,19.87-5.75a15.37,15.37,0,0,0-8.37,3.76c2.77-.48,5.12.42,7.78.4-3.84,2.85-16,3.78-21.58,4.12v1.9c3.68,1.54,5.86,4.26,10.23,4.18-6.44,1.76-16.09-4.58-23.33-5.49.58,6.18,11.61,11.14,17.85,10.82-1.44,1.67-2.08,2.93-3.25,4.31-10.82-10.6-27,5.86-7,2.29-1.07.59-2.13,1.15-3.25,1.71,2.34,3.83,6.66,2.58,9.85-.75-3.67,9.8-14.54.51-21.2,1.36C348.63,173,346,174.76,342.24,176.43Zm1.7-12.33c1.07-1.28,3-.48,2.45-4,12.1,1.84,9.27-5.62,1.76-10.33.43.29-24.45-12.23-23.87-8.58,1.76.37,3.36-.91,3.79,1.33.05.32-6.66,1.17-7.41,1.12,1.55,1,2,2.58,2.67,3.22-1.82-.29-3.41.3-5.12.19a20.1,20.1,0,0,0-1.33,5.89c4.53,4.55,11.19.66,16.09,4.74-2.93.18-5.91,1.65-8.69,2.08C329.88,164.79,337.34,166.68,343.94,164.1Zm-9.85,6.47c-.54.88-1.12,1.76-1.71,2.67a10.75,10.75,0,0,0,8.53-.59C339.15,169.32,337.39,169.93,334.09,170.57Zm3,22.91c3.73-.77,45.6,2.66,39.43-7-3.68-5.8-20.2.43-25.26.29-10.6-.23-12-11.21-21.52-8.44C333.29,184.4,329.61,190.87,337.12,193.48Zm-26.31.77h2.66C312.3,191.4,312.3,193.67,310.81,194.25Zm5.86-4.74c2,1.73,12.25,6.5,11.18-.18C327,183.86,318.42,186.48,316.67,189.51Zm9.32-8.15c4.21-4.39-2-7.51-6.45-6.82C310.33,176,321.73,181.41,326,181.36Zm-7.78-9.08a44,44,0,0,0,10-1.31v-1.89C324,168.5,319.49,168.15,318.21,172.28Zm.75-4.74c9.48-2.32-6.34-6.61-9.27-5.68C311,166.36,314.06,169.11,319,167.54Zm-10.6-14.17c-1.39-2.64-2.35-4.08-5.86-3.44v2.26C305.05,153.29,306,153.79,308.36,153.37Zm-2.45,16.24c2.77-9.48-15.93-14-23-11.37,2.72,1.12,4.11,3.25,6.08,5h-3.2C288.59,167,300.53,167.56,305.91,169.61Zm-7.2.4c-2.39-.93-3.14-2.31-6.07-1.51C293.76,171.75,295.62,170.68,298.71,170ZM297,186.5c3.88-1.92,6.23-.42,7,4,5.06-.21,8.84-2,8.26-7.38-.7-5.94-6.66-3.43-12-5.51a16.6,16.6,0,0,1,5,5.3,52.73,52.73,0,0,0-9-3.38c.37,1.59.43,3.09,1,4.71-3.52-2.69-5.06-7.08-10-7.59C286.57,182.35,291.79,185.22,297,186.5ZM286,188c.43.29,4.16,4.58,4.16.16C290.14,185.68,286.51,188,286,188Zm1.33-14.22a11.46,11.46,0,0,0-5.48-4.9C282,172.68,283.9,174.81,287.31,173.8Zm98.72,68c2.71.8,10.23-.16,7.56-4.45C391.25,233.54,382.78,236.42,386,241.8Zm-61.21-32c1.12-2,3-1.28,2.87-4.35,5.28,1.89,7.46-2.79,10.23-6.6-3.89-1.44-12.09-4.16-15.55-1.68C319.28,199.37,318,211.7,324.82,209.76Zm-16.68,5.88c8.74,0,10.5-7.88,2.08-11.72,6.39-2,1.39-5.94-2.24-7.11-.64-.19-5.75,2.58-8.73,2,5.32,5.56,1.22,9.11-4.69,5.86C294.83,208.48,304.63,213.8,308.14,215.64Zm-21.2-11.93c1.6-5.2-5-6.23-8.15-3.38C281.77,203.12,283.85,205,286.94,203.71Zm-12.52-4.34c.32.32,2.4,2.71,0,0ZM256,164.9h13.48C267.18,159.87,259.72,161.33,256,164.9Zm3.84,8.34c3.78,0,8.58-.46,5.27-4.16,1.6-.72,2.19-.05,3.25-1.89-4.42-.43-8.79-.24-12.52,2.24C256.63,172,258,172.33,259.88,173.24Zm-6.66-3.41c-1.17-2.45-1.49-4.08-5.12-3.44C249,169.51,250.56,169.21,253.22,169.83Zm-3.78,9.45c-5.38,1.58-10.76,7.12-7,10.15,3.35,2.72,15.66-.08,19.87.3-1.44,1.67-10.28.05-9.7,3.11.8,3.54,7.41,1.33,9.59.93,4.64-.85,22-3.11,20.72-9.56.48,2.48-11.4-6.55-10.38-6.26-5.54-1.62-7.62,1.6-4.74,6.63,1.06.43,2.77-.24,3.14,1.07C271.49,187.7,252.26,180.27,249.44,179.28Zm1.12-3.59c1.22.53,1.59,2.53,4.58,1.89-.06-.61-.16-1.28-.22-1.89A8.7,8.7,0,0,1,250.56,175.69Zm-15.13,8.15c-.64.74-1.28,1.52-1.92,2.26,4.15,0,3.35.72,5.54-3.22Zm6.07-4.77c3.14-1.09,4.79-3.57,5.27-7.16-11.45-2.8-15.13,7.72-25.57,8.86,4.9,7.46,12.25.7,16.68-3.38C239,180.7,240.27,178.35,241.5,179.07Zm2.61,49.44c8.2-.67,8.42,3.62,14.81,5.32s11.19-2.74,16.83-3.8c3.41-.62,25.89,3.06,18-3.2,3.14,0,4.15-1.63,6.07-2.48-7-4.79-9.85-4.77-13.37-11.42-1.33-2.59-7.24-15.13-12-9.17-2.18,2.8,5.86,9.33-.16,8.87-3-.26-2.82-8.39-8.52-8.71.69,1.17,1.22,2.56,1.86,3.78a30.79,30.79,0,0,1-6,1.9,28.2,28.2,0,0,0,1.28-3.76,12.1,12.1,0,0,0-10.6.72c1.86-7.09-4.85-3.7-8.31-2.19-6.23,2.78-6.45,4.16-9.27,9,4.16,1.62,8.63-1,12.47,1.89a16.12,16.12,0,0,0-8.31,3.25c4.2,2.26,17.84-1.17,20.08,2.64.8,1.41-15,2.13-17.42,3.57C242.35,226,243.26,227.26,244.11,228.51Zm31.64,7.4c3.41-.9,5.54-1.62,6.29-4.53A29.48,29.48,0,0,0,272,235.17C273.25,235.41,274.53,235.67,275.75,235.91Zm-52.84-20.45c6.71,1,9.43-7.94,15.23-10.93,9.43-4.84,11.72-6.28-.37-8.76-3.09-.64-18.7-4.31-22-1.6-1.81,1.52-2.34,12.68-6.34,17.13a11.6,11.6,0,0,1,10.23,6.82C220.78,217.24,221.84,216.33,222.91,215.46Zm443.34,249c-.25-.34-.52,0,0,0ZM128.77,279.89c.91-6,8.95,1.38,13.11,2.61,5.38,1.6,10.49.43,15.71,2.13,9.22,3,15.56,11.4,24.83,13,.85,1.92,1.54,3.83,3,5.33.48.53,4.48,2.34,5,3.19,3.19,4.8,5.06,9.49,7.83,13.21,4.9,6.61,6.76,7.2,13.74,11.35,5,3,11,8.05,10.23,15.08-5.65-6.93-11.56-16.46-21.2-15.34,4.53,5.43,11.24,7.35,14.12,14.17,2.93,7-.86,13.85-.86,19.71-.1,10.92,5.44,26.15,12.89,34.3,4.32,4.75,11,5,14.92,11.08,3.2,4.85,5.91,11,8.9,16,1,1.6-1.23,2.4,1.06,5.75,1.39,2,5.22,3.84,7.09,5.76,1.28,1.27,7.51,8.63,8,11.4,5.86-6-17-26.85-17.63-35.43,6.39-.8,13.69,13.8,18.38,18.86,6,6.44,11.45,15.18,17.63,22.21-8.95,6.08,26.58,19.29,32.39,20.14,1.76.27,3.73-1.92,7-1,3.73,1.07,5.38,5,8.36,6.77s12.73,3.46,13.05,3c5.17,3.62,7.78,10.7,10.5,13.31,3.94,3.63,12.89,6.4,18.48,8.85-1.54-9.59,9-.85,9.38-4.05.85-6.29-13.16-2.35-17-4.91-9.37-6.28.64-13.31-4.15-20.29-4.1-5.91-14.55-1.23-19.61-3.46,4.48-4.9,11.14-20.46,1.49-19.88-8.73.59-4.47,6.66-9.85,10.93-5,3.94-12.95,1.38-16.84-2-8.52-7.52-8.2-28.19-3.09-35.75,7-10.33,18.22-.32,26-2.77-1.86-6.5,5.49-5.54,10.07-5.22-.43-.05,10.44,2,9.06,1.07,3.41,2.39,8.95,20.24,12.52,19.92,4.31-.37-3.31-24.08,2.5-30.74,3.73-4.32,11.56-5.38,13.8-10.5,1.92-4.36-.85-6.49-2.08-11.93,3.2.85,1.54-1.76,4.9,1.7,1.23-2.66,3.89-9.74,5.81-11.61,2.4-2.13,8.57-2.55,12.57-3.67-5.81-11,16.25-18.86,24.45-16.94-1.12-.22-7.94,2.45-8.89,4.36-2.88,5.87,5.11.86,5.38.8,6.82-.8,14.49-6,16.56-12.09-5.43,2.56-7,6.93-13.63,3.41-8.85-4.79-.32-9.06-2.35-12.25-5.59-8.63-19.66,7-25.52,10.76a24.94,24.94,0,0,1,6.08-7.46c-1.44-.32-2.93-.74-4.37-1.12,7.4,1.65,11.67-7.62,18-9.43,4.2-1.22,10.06.32,14.33,0,6.65-.64,6-1.38,11.61-3.83,5.17-2.13,13.37-2.93,10.92-9.54s-11.29-2-16.57-1.44c2.51-4.26,7.62-3.35,11.51-6.6-6.66-1.07-12.68-3.63-16.46-9.49,4.1-2.5-7.57-15.07-9.64-19.71-3.36,3.73-3.36,9.75-8.74,11-5.22,1.12-4.53-4.32-10.39-2.77,3.68-12.68-6.55-17-16.41-19.55-11.18-2.93-18.64,2.77-10.71,14.38h-2.66c-.85,2-.27,3.2-1.49,5.33,10.49,4.37,8.1,20.29-4,19.87,3.47,3.73,6.56,17.63-1.11,18.32-7.46.54-9.22-13.95-8.53-19.44-8.63-1.44-13.85-2.72-21.31-6.55-3.3-1.65-7.19-2.88-10.12-4.05-2.61-1.12-3.25,1.28-5.49-.11-1.7-1-2-4.79-3.09-6.18-3.83-4.74-5.8-2-5.06-9.75.27-3.19,3.47-8.25,5.76-10.6,2.45-2.45,8.2-3.14,7.61-6.71-.42-2.34-9.8-3.68-11.66-4.37,4.9.48,14,5.06,15.34-1.12,5.75,3.46,8.47-.48,10-5.32-5.23.34-9.17-2.22-13.64-4.35,3.41.14,23,4.9,15-3.62,8.73-.66,2.77,13.29-1.12,14.78,3.19,3.41,4.42,4.27,9.27,4.21a31.7,31.7,0,0,1,5.86-2.5c1.7-.27,3.57,1.76,4.95,1.54,10.87-1.86-10.49-9.37-12.3-13.29,4.9-.18,1.91-.1,3.94-2.63,7.46-.56,10.87-6.88,5.86-13.08,10.17-1.73-2.4-8.37-6-10,6.23-1,12.89,2,19.5-.39-1-.94-2-1.87-3-2.85,6.93,2,11.72,6.23,17.79,10.78,2.56,1.89,7.3,4.8,7.46,8.63.21,5.17-9.53,5-5.17,11.48-3.62.83-16.51-2-15.92,4.37.58,6.23,10-.58,12.41-.32,7.62,1,8.2,6.23,13.05,10.23,4.79,3.84,12.41,3.3,18.11,6.39.22-4.79-7.14-7.19-9.85-11.4,5,2.45,10,5,14.75,7.78a52.42,52.42,0,0,0,2.08-6.45C428.33,259,423,255,418.42,249c3.46-5.06,4.79-1.54,8.84.59,6.5,3.43,3.68,5.38,8.84,4-.37.08,6.4-5.36,6.34-5.3,2.19-4.08,2.56-1-.37-4.75s-31.86-11.77-17.42-14.78c-1.44-.4-2.88-.77-4.37-1.14a7.59,7.59,0,0,1,2.67-1.71c-2.24-.91-3.09-2.64-5.86-3.2.42-.71.85-1.38,1.33-2.1-5.33-1.12-7.83-2.32-12.68-3.6l2.61-1.7c-9.59-.24-10.18-5.67-16.83-7.78-5.12-1.6-15,4.13-17.16,3-3.35-1.76.85-3.57-1.33-6.71-3.73-5.41-3.2-4.72-9.27-3.6-9.16,1.7-8.68,9.06-4.05,15.13-9.59,1.25-8.26-13.08-1.38-16.46-7.3-.3-14.12.5-17.05,8.28-3.94,10.63,3.94,5.81,7.78,11.43-2.77-.69-4.42.45-7,.35,2.34,3.35,12.89,4.47,17.42,5.86-2.77,1.11-4.21,19.73-11.56,15.92-3.3-1.7.1-6.9,0-7-2.93-3.28-5.6-2-6.61-2.56-1.22-.69-6.82-2.5-9-5.78-3-4.47-3.84-16.83-13.11-10.36-8.73,6.07,9.38,17-.85,14.89,1.55,4.26,4.74,4,8.37.77-.11,6.5-8.63,4.29-6.08,11.75-4.26-2.9-3.25-1.71-3-6.07-4-1.1-.75-.19-2.83-3.23h2.45c.22-4.23-2.61-6.82-6.82-7.56-1.06,1.06-3.57,3.78-4.52,4.9,2,.77,3.51,2.82,5.48,3.62-4.53,8.18-13.32,4.48-20.83,2.74-4.9-1.11-5.48-3-10.23-1.06-7,3-3.72,3.41-4.74,10.44-3.09-11-17.68-7.32-26.53-8.15.75-.43,1.6-2.32,4.16-3.2-4.37-3.54-19.07-7.72-24.24-8.73-6.45-1.23-12.73,5.4-15.13-2.43-1.86,6.32-3.2,2.32-6.18,2.16-1,0-2-4.29-4.26-4.55-3-.35-1.12,1.89-2.77,2.21-3.3.74-12.41,5.67-16.36,7.93,3.47-4.55,9.11-3.91,12.47-8-6.39,0-14,3.52-20.35,4.85-10.76,2.24-15.08-2.21-26.05-3.44-8.26-.9-15.82-2.61-24.4-3.3-9.06-.75-13.74-4-23.12-2.85l1-2.08c-5.76-1.06-13.53,2.61-18.65,4.16-7,2.1-7.51,6.36-12.41,9.37-7,4.24-11.93-.26-6.34,7.11,3.52,4.67,11.13,5.31,13.69,11.35-4,1.33-8.31,1.12-8.52-3.38-4.53,3.22-9.64,2.08-13.43,6.6,4.9,2,4.85,6,9.06,7.09,4.85,1.22,11.24-2.08,15.77-2.5.64,13.85-15.45,4-17.79,16.3-.59,3.3,7,17.15,11.93,9.05a8.09,8.09,0,0,1,2.24,9.06c4.79-1,10.17.69,12.52-2.24,1.49,0,3.46.43,5.48.38-3.57,15.87-21.63,13.26-30.1,23,12.26,3,32.61-15.72,43.15-21.63-1-1.39-1.86-2.77-2.82-4.16,6.45-2.13,8.84-12.84,16.3-8-5.27.64-8.2,3.73-6.66,8.74,3.84-2.29,8.15-4.26,12.68-4.58C129.52,281.54,129.15,280.69,128.77,279.89Zm-15.5,15.5V292c-3.83,2.77-9.43,3.52-6.28,8.53A14.11,14.11,0,0,0,113.27,295.39Z" transform="translate(-58.13 -119.59)"/><path class="cls-2" d="M1170,388.33C630,211.35,320.62,467,320.62,467" transform="translate(-58.13 -119.59)"/></svg>