<svg xmlns:xlink="http://www.w3.org/1999/xlink" clip-rule="evenodd" fill-rule="evenodd" stroke-miterlimit="10"
     viewBox="0 0 1301 636" xmlns="http://www.w3.org/2000/svg">
    <linearGradient id="a">
        <stop offset="0" stop-color="#4d4d4d" stop-opacity=".698039"/>
        <stop offset=".01" stop-color="#4f4f4f" stop-opacity=".698039"/>
        <stop offset=".2" stop-color="#848484" stop-opacity=".698039"/>
        <stop offset=".38" stop-color="#b0b0b0" stop-opacity=".698039"/>
        <stop offset=".56" stop-color="#d2d2d2" stop-opacity=".698039"/>
        <stop offset=".72" stop-color="#ebebeb" stop-opacity=".698039"/>
        <stop offset=".87" stop-color="#fafafa" stop-opacity=".698039"/>
        <stop offset="1" stop-color="#fff" stop-opacity=".698039"/>
    </linearGradient>
    <radialGradient id="b" cx="0" cy="0" gradientTransform="matrix(3.95009 0 0 1.57474 1113.7 270.137)"
                    gradientUnits="userSpaceOnUse" r="1" xlink:href="#a"/>
    <radialGradient id="c" cx="0" cy="0" gradientTransform="matrix(12.5275 0 0 2.50536 260.85 349.23)"
                    gradientUnits="userSpaceOnUse" r="1" xlink:href="#a"/>
    <g fill-rule="nonzero">
        <path d="m315.77 151.752c12.15-8.1 2.34 13.58 0 0zm-9.85.8c3.3 0 5.11-1.97 4.58-4.53-1.12.53-10.12 4.53-4.58 4.53zm19.71-66.28c2.56-1.2 4.1-2.74 7.19-3.06-4.58-4.29-10.81-3.49-16.67-3.41.05 5.68 3.88 7.97 9.48 6.47zm572.41 291.25c-2.13 2.72-.64 17.74 5.01 12.57 3.2-2.82-3.94-11.45-5.01-12.57zm233.39 192.47c1.39 4.47 4.96 9.8 9.16 10.98.32-.91.32-1.81 0-2.61h3.14c.16-3.78 1.23-4.58 1.23-8.15-2.87.8-13.85-2.24-13.53-.22.16.64-.05-.21 0 0zm11.72-5.43c0 1.92 1.7 3.25 3.25 3.51-.05-2.87-1.22-3.51-3.25-3.51 0 .21.27 0 0 0zm-13.79-.96c-2.08 1.01-.75 2.66.74 3.2.11-.32.48-3.68-.74-3.2-.33.11.21-.1 0 0zm90.72 31.06c6.13 0 7.57-11.46 14.97-12.95-3.25-6.82 9.06-5.75.21-11.13-7.03-4.21-4.21 2.98-8.37 7.57-3.67 4.1-10.6 5.12-13.26 9.86-2.02 3.67-1.38 7.66 6.45 6.65zm-4.74 1.86c-.64.48-.85.8-1.33 1.44h3.04c.15-1.01-.12-2.61-1.71-1.44-.27.21.26-.21 0 0zm24.07-42.3c0 1.87.16 6.72.16 7.14 0-.43-2.98-.21-3.04 2.02 0 2.87 2.18-.21 2.66 1.6-.1-.21 3.09 6.82 4.9 6.28.69-.21 2.5-3.62 3.62-4.69 5.65-5.33 9.54-11.72-1.87-9.69-.05-3.09-1.33-7.89-3.46-3.2-2.34-1.49-2.66-6.34-5.38-9.06-5.04-5.1 2.41 7.69 2.41 9.6zm-37.5-67.17c2.88 4.42 5.38 8.05 11.51 8.68-.48-2.67-9.06-8.79-11.51-8.68zm-122.15-33.73c-4.79.86 2.45 1.87 4.15 1.71v-1.49c-1.12-.11-5.59-.11-4.15-.22zm42.78 1.92c-5.65 6.98 1.97 24.08-10.6 20.67.05 0-11.5-7.4-11.72-7.99-2.19-4.74 2.29-7.24 3.73-10.98-6.39-.85-12.62-4.1-18.75-4.1 1.22 1.07 1.06 1.87 3.25 3.15-1.12-.69-7.57 3.62-9.27 4.69-5.11 3.25 2.83 3.89-5.7 5.54-2.82.53-4.1-3.41-8.68-1.71-3.79 1.39-4.27 6.45-8.58 6.45.64 1.39.8 3.62 1.55 4.95h-3.31v-2.56c-5.01-.27-6.71 10.39-12.41 13.11-4.31 2.07-10.98 2.72-15.72 4.58-2.08.75-3.46 7.57-5.91 1.87-2.08 6.34-2.56 10.07.96 16.3-7.57-3.41.64 8.26 2.18 12.42 3.2 8.42 6.28 13.91-.1 19.39 4.36 0 6.92 4.84 12.51 3.94 3.2-.43 4.8-4.26 8.37-5.01 2.82-.74 5.8 2.02 8.2 1.39 2.55-.75 2.61-2.77 4.74-3.62 2.02-.8 4.26-3.09 6.55-4.05 1.6-.69 2.98 1.65 4.9.96 6.77-2.56 14.44-6.5 22.38-2.35 4.74 2.56 9.32 20.67 14.39 4.37 3.62 1.22-.16 3.73.37 6.82 4.47-2.67 2.77 1.06 2.45 5.11 7.35-1.39 4.05 5.06 9.48 9.49.64.53 7.35 2.61 8.68 2.66 3.73.1 2.56-3.68 4.9-3.79 2.34-.05 2.39 4.42 3.94 4.1 7.57-1.6 15.5-4.47 18.27-11.5 1.81-4.58 2.24-9.32 5.11-14.22 5.76-9.8 6.82-20.09 1.49-30.64-1.17-2.45-2.72-3.2-4.53-5.11-1.23-1.33-1.23-3.73-2.08-4.74-.27-.27-4.16-1.39-5.12-2.29-1.22-1.17-1.12-4-2.45-5.33-1.81-1.7-6.28-2.98-7.67-4.69-3.41-4.21-4.37-12.46-6.93-16.51-.8-1.28-3.14-2.24-4.36-4.16-1.44-2.35-.69-8.1-4.16-8.95-.19.8-.3 1.54-.35 2.34zm63.65-7.4c1.07 1.65 2.24 1.12 3.63.59-.69-1.87-4.74-2.99-3.63-.59.17.26-.1-.16 0 0zm-18.53-12.74c0 1.6 3.68 3.63 4.69 3.41-.91-2.34-3.62-3.78-3.62-6.02-.48-.05-1.01 0-1.49.16.31 1.12.42 1.39.42 2.45zm-21.85-2.23c.43 4.85 14.33 2.45 13.05-5.11-.68.1-13.05 6.92-13.05 5.11.06.59 0-.32 0 0zm-63.44 9.48c0 .74 5.43 1.6 2.83-3.62-2.24.32-3.21 1.54-2.83 3.62zm-19.5-2.29c.37 1.97 2.45 1.54 4.16.8-1.44-1.28-2.19-.37-4.16-.8zm32.02-7.56c-1.22.8-2.29 2.61-2.29 4.21-.01 3.08 7.14-7.47 2.29-4.21zm-5.33-6.08c3.46-1.55 7.83 1.49 11.18 3.03 2.83 1.33 5.6.53 7.57 4 2.66 4.63-.37 3.41.21 6.07.16.69-3.73.58-2.08 3.68.75 1.44 5.12-1.81 6.61-1.44 4.74 1.33 6.61 5.6 12.52 3.79 3.62-1.07 3.46-6.29 9.43-4.16 2.34.85 2.87 3.73 4.95 4.9 3.99 2.35 2.02 1.6 7.46 2.88 8.2 1.86 5.49 2.45 1.44-3.2-.59-.86-4.58-.38-5.28-.96.37.32-2.24-6.61-1.71-4.85-.16-.58-5.11-4.21 1.28-3.62-1.23-2.29-7.09-6.55-10.02-8.2-5.54-3.2-9.86-4.26-16.04-6.13-8.73-2.82-8.25-1.12-15.18 0-4.31.75-9-1.33-15.02.21.66 2.35 1.56 4.59 2.68 4 .21-.05-.16.11 0 0zm-30.1-8.15c-3.3.74 2.98 1.54 4.16 1.33 0-2.18-2.35-1.65-4.16-1.33zm39.21-2.88c.21 1.71.47 2.08.37 4.05h3.78c-.58-1.81-1.6-.95-1.6-4.05h-2.55c.05.27.96-.1 0 0zm-15.93.22c-.91-.1-1.71.11-2.45.8 3.94 2.29 8.2 5.59 13.43 3.2-4.37-8.05-6.98-2.46-10.98-4zm-.9-1.28c5.16-5.22-8.9-1.71 0 0 .58-.64-.33-.05 0 0zm-3.84 4.69c1.38.64 1.97 4.16 2.55-.32-1.91.32-2.12.48-2.55.32zm-6.77 4.37c0 1.39 7.94 2.66 10.23 2.66-.48-4.26-9.54-3.09-10.23-2.66zm-3.03.53c-1.01-.21-2.02-.48-3.09-.69 1.81 4.42 3.89 1.17 3.09.69-.48-.21.26.16 0 0zm4.68-20.57c-2.72 3.73-4.64 4.26-4.42 9.59.38 7.51 2.24-1.6 6.72-.91.27-2.5-1.01-4.69-3.25-4.53.53-1.48.95-2.65.95-4.15-.37.54 0 .38 0 0zm-35.58 20.25s3.88 4.9 3.41 4.37c-.16-.21.58 4.37.74 4.9 2.72-1.81 2.08-7.24 2.08-10.23h2.29c.27 1.23 4.37 10.39 5.97 9.64 2.87-1.28-2.45-11.35-4.1-13.48 17.52 0-10.39-10.23-10.39 4.8zm21.95-16.09c-2.93 1.06-19.71-1.17-18.91 5.86 5.49-2.56 6.98-2.02 12.84-3.2 1.81-.43 2.39 1.65 4.58.75 1.17-.53 5.59-5.12 1.49-3.41-.22.1.74-.32 0 0zm-3.95 40.7c0 3.3 12.79-2.98 14.17-4.37-5-2.5-13.31 2.88-14.17 4.37zm-1.54 3.2c-1.54.21-1.91.8-1.12 1.91h2.24c.21-.95.16-2.34-1.12-1.91-.54.21.27-.11 0 0zm-11.93-7.73c3.3 3.3 13.64.58 17.42-1.01-3.04-.53-15.99-.53-17.42 1.01zm-1.33 2.45c-4.75 1.44 3.94 3.78 5.48 3.68-.64-.75-3.83-4-5.48-3.68-.59.16.21-.05 0 0zm-9.49-3.25c-2.72.21 6.82.8 8.74.8-.59.16-.69-.16-.38-1.01-3.14 0-5.37-.32-8.36.21-.48.06.59-.05 0 0zm-41.07-6.39c4.31 3.41 10.44 4.42 17.84 5.17 5.86.64 13.16 3.67 19.45 2.77-1.76-3.51-5.43-4.47-9.43-3.67.27-2.67 2.19-1.39 4.16-2.56-10.82-1.82-20.78-2.03-32.02-1.71zm-11.56-5.48c-.8 1.75-.27 2.6 0 0-.11.31 0 0 0 0zm26.9-25.79c-5.01 3.51-1.86 9.86.96 13.58 4.1 5.6 5.81 5.01 13.64 6.29 7.89 1.38 5.38 3.41 9.86-3.2.21-.32 1.01-5.54 1.87-7.03 1.17-1.92 5.49-2.77 6.82-5.65-5.01-3.25-3.62-4.1-4.74-11.29 3.83.21 2.66-2.35 6.44-3.68.32.91-9.11-6.55-8.31-6.66-2.98.21-5.17 5.32-7.51 7.4-5.23 4.65-14.34 13.75-19.03 10.24zm-39.95 11.19c.21 2.5 4.37 8.68 6.82 9.21-.53-3.41-6.82-8.94-6.82-9.21.05.58 0-.38 0 0zm-6.08-8.36c.96 1.81 2.77 2.34 3.62 4.21 0-2.29-.64-3.94-3.04-4.95-.68 1.8-.04.89-.58.74zm-2.82-4.96c0-.58-1.17-2.18-1.17-.48 0 1.55.95 2.24 2.29 2.45.48-.96.11-1.6-1.12-1.97zm1.33-8.68c-2.13 0-3.3-2.13-5.32-1.87.91 4.42 7.88 8.79 10.23 11.77 3.68 4.53 6.71 11.24 10.6 16.3 2.67 3.35 8.95 12.57 12.52 12.63 7.89.21 3.41-7.41 9.64-9.32-.69-4.9-5.22-6.72-9.11-3.94-.43-5.6-21.1-24.72-28.56-25.57-.32 0 .86.1 0 0zm97.92-13.11c-4.1.43-7.68 3.2-5.49 7.78 3.3-7.99 8.15 1.17 13.43 3.46-1.87-4 1.49-4.85 1.54-4.95.11-.75 1.65-10.45-1.71-10.45-3.41 0-3.99 6.72-7.77 4.16-.59.11.27.21 0 0zm-11.19-17.58c-.11 1.38 4.26 12.14 7.4 11.56-1.6 3.51 4.05 5.91 2.67-.96-.64-2.93-6.87-10.07-10.07-10.6-.05.53.21.11 0 0zm5.49-.53c4.74 3.3 7.88 9.64 13 10.65 0-5.8-5.38-7.14-5.38-12.31-3.09 0-4.64 1.66-7.62 1.66.58.42.58 0 0 0zm-7.2 3.41c-2.82 5.43-10.06 10.87-11.56 15.34 6.29 0 11.56-9.11 11.56-15.34-.1.26 0 .64 0 0zm2.94-22.22c-5.6 3.03-4.21 14.43 2.18 16.46-.27-3.62 7.83-16.46-2.18-16.46zm3.67-23.92c0-1.81-7.51 4.32-6.39 11.29h2.24c0-4.68 4.15-6.97 4.15-11.29zm96.64-84.76c-3.78.69-6.23 3.78-11.19 4.16-5.43.43-7.94-.64-13.64-3.84-.21 1.7-2.45 14.65-4.74 9.91-1.01 1.76-4.42 9.96 1.12 7.35v1.92c-3.35.59-4.95 11.35-8.68 15.56 0-1.17.1-1.82 0-3.04-2.19 2.13-2.83 2.87-3.79 5.65-.85-1.17-2.24.85-1.7-2.45-2.45 1.76-3.36 4.16-3.73 7.78-7.57-3.31-21.68 2.98-23.02 11.29 1.44.1 3.46 0 4.37 0 0 3.68-4.05 5.32 1.54 6.92 0-3.88 6.24-9.48 0-10.01 1.33-3.94 10.76-3.94 14.76-4.64-4.32 2.72-11.24.1-9.64 7.4 3.51-1.49 6.87-3.09 9.27-5.32 1.76 4.05 6.61.91 5.86-2.61 14.97-1.7 12.15-2.45 15.72-14.97 1.97-6.92 4.32-12.36-2.24-17.79 4.42-.85 11.83 3.3 11.56-1.54 3.25.69 18.17-7.57 18.17-11.73-.27 0 0 .22 0 0zm7.03-3.62c-1.6.27-2.39 1.39-3.83 2.13 2.34 1.39 2.98-.1 3.83-2.13-.27.06-.32.75 0 0zm18.54-20.24c-.43 1.54-1.39 2.98-2.29 4.37 3.09-1.28 2.24-3.73 2.29-4.37zm45.28-19.93c-.37 0-1.06-1.92-2.07-1.12-.21.69-.27 1.44-.21 2.18.63.17 3.03.44 2.28-1.06zm-5.11.59c-.75-2.13-.53-3.46-2.5-4.95 0 2.02.43 3.78.58 5.75 1.33.37 2.29.43 1.92-.8-.11-.27.11.27 0 0zm-9.91-20.56c1.43 0 2.39-1.7 2.5-2.72-3.31-1.28-3.62.75-4.9 2.72.8.16 1.6.16 2.4 0zm87.53-26.37c3.19.53 7.62 1.92 10.81 1.49-2.72-5.33-8.57-1.23-10.81-1.49.58.05-.32-.11 0 0zm-33.51-46.46c4.1.93 9.16-.91 13.43-.91-1.12-1.73-4.58-4.16-7.46-4-1.02.04-9.17 4.11-5.97 4.91.21.06-.37-.08 0 0zm-118.37-28.95c3.73 1.46 16.03 5.94 16.03-.99-5.28-.27-13.32.48-15.5-3.2-.38.38-1.71 3.68-.53 4.19.21.05-.33-.19 0 0zm-22.75 12.12c4.58.72 8.68-.24 13.05 1.31-1.49-6.45-8.63-4.8-13.05-1.31zm3.78-4.77c2.5 0-2.13-2.13-3.57-2.08 0 2.29 1.55 2.08 3.57 2.08zm-14.17-8.52c4.1 5.99 27.23 4.37 28.77-3.2-3.68-.69-8.31-2.9-8.31 3.12-.758-.13-1.532-.13-2.29 0 3.99-8.36-4.75-3.6-7.68-3.68-5.86-.18-7.35-3.03-10.49 3.76zm-4-1.52c-.32-.69-.32-1.49 0-2.26-4.2-.59-2.08 3.83 0 2.26-.05-.24-.37.29 0 0zm-2.08 8.15c1.28 3.09 1.12 4.95 4.9 4.45-1.01-1.39-3.51-3.52-4.9-4.45zm-100.78-27.83c-1.07-2-4.27-2.5-6.39-1.49.52.61 7.29 3.78 6.39 1.49-.17-.32.1.26 0 0zm-44.11 8.89c1.28-.43 2.72 0 3.99 0-.48-4.77-2.51-1.01-3.99 0zm16.45-6.82c.75 0 18.7-3.84 19.13-4.34 4.42-5.81-8.84-5.22-9.85-5.67.91-.93 1.28-.96 1.54-2.1-7.83-1.37-11.67 12.11-10.82 12.11zm-12.09-18.72c-13.21 1.92-11.35 9.35.8 10.47 9.21.88 9.86 1.09 9.38-4.42-.59-7.48-.05-3.78-6.98-3.78.75-1.25.69-.96.96-2.24-1.44-.03-2.77-.06-4.16-.03zm-11.4.74c5.27 2.8 12.68-4.53 15.72-6.45-6.87-3.3-16.31-3.68-21.79 3.6.32.62 4.79 2.24 6.07 2.85.27.16-.16-.13 0 0zm-1.49 1.71c-2.5 0-4.31-1.44-6.92-.96.31 7.7 10.38.96 6.92.96zm-7.78-12.33c-5.7 0-1.28 2.37-1.7 3.04-1.12 1.86 7.35-3.04 1.7-3.04zm-147.77 88.83c-3.31-.56-8.79-4.45-6.39 3.41 2.12 0 6.01-1.09 6.39-3.41-.22-.03-.06.24 0 0zm14.59-27.44c-3.35-.32-10.28 8.44-10.28 13.05 1.97-.4 3.3-1.65 4.42.75.69-.32.96-.83.75-1.49 4.32 2.18 1.33 4.63 3.68 5.67 3.03 1.33 8.9.85 12.25.85-.43-4.61-5.54-6.07-5.86-10.33-.43-5.27 3.99-8.34 7.19-11.56 7.57-7.54 14.65-11.69 25.73-14.38 3.25-.8 16.99-3.65 15.55-7.19-2.13-5.19-10.06.64-12.89 1.49-6.87 2.21-29.73 2.8-29.73 11.19-1.44-.19-2.72-.24-4.16 0 3.52 6.05-8.9 5.83-7.78 9.88 1.28-.27 1.65-.75 3.04-.59-.68 1.78 1.18 2.9-1.91 2.66-.53-.05.59.06 0 0zm57 1.71c2.98 0 4.63-1.86 5.43-2.29 1.61-.86-10.17 2.29-5.43 2.29zm-27.06-60.07c4.26 6.42 7.14.32 11.93-.56-4.42-2.5-7.78 1.95-11.93.56zm-9.27 0c0 2.21-1.54 1.57-2.66 3.41 3.31 1.07 6.82 1.15 10.6.48-3.15-3.97-2.83-6.87-7.94-3.89zm-1.33 6.85c-1.01.29-1.97.56-3.03.56.53 2.61 2.24 1.15 4.36.75-.22-1.05-.05-1.63-1.33-1.31-.32.08.26-.06 0 0zm-13.26-1.15c1.76 1.52 2.02 3.86 4.74.37 0 4.24 5.49.27 6.23-.37.05-.53 0-1.01-.21-1.52-3.36-.64-8.69.86-10.76 1.52zm-10.82.37c3.14-3.2 9.8-4.58 14.6-3.44-1.12-6.82 6.24 2.4 7.19-3.94-1.65 0-3.09.27-4.74 0 .64-.93 1.87-3.12 2.29-3.6-2.61 0-4.31 1.65-5.7 2.08.91-.29-4.58 1.17-5.11 1.52-1.39.85-1.87 2.77-3.79 4.16-2.66 1.92-3.94.43-4.74 3.22zm-15.13-5.11c-5.6 0-6.98 1.97-12.31.93.27 4.08 7.24 1.33 10.44 1.33-6.61 4.79 4.53 5.99 7.78 1.7 5.22-7 .27-3.96-5.91-3.96zm-108.52 6.45c1.23 3.12 8.1-1.07 9.43 2.45-1.87-.11-3.79.08-5.7 0 3.46 9.62 22.37 1.04 26.74-1.52-4.26-4.71-10.23-.8-14.01-1.92.69-1.41 1.65-1.15 1.33-2.82-4.47 1.76-3.31.24-5.91 4.74-1.65-4.32-13.85-5.3-11.88-.93.11.34-.21-.43 0 0zm-7.61 14.38c0 1.04-10.12.43-11.35 4.56 2.45-.53 10.12-2.29 11.13-.96-1.55 1.01-9.8 2.34-9.91 3.04-.21 1.28 7.2 4.87 8.79 7.01 4.9-3.7 9.58-10.89 9.58-16.01 1.44-.21 4-.27 5.38 0-.64 4.61.53 1.33 2.5 4 1.43 1.94-1.54 3.6-1.54 5.59 5.22-3.25 5.75 1.07 7.77.75 2.08-.32 5.81-2.56 7.94-3.04-2.29-3.04-4.63.45-4.63-3.97-2.24.29-17.31-8.68-17.74-10.07-.64.29-1.81.64-3.04 0 .48-1.12 1.12-1.84 1.39-3.01-5.7-2.69-5.86.43-8.52 1.17 1.28-.37-2.03 3.2-2.4 3.3.85-.29-1.44-4.5-1.81-4.61.53.16-6.34 2.66-6.23 2.58.74-1.17 1.06-2.42 1.7-3.41-3.35.72-17.47 4.1-6.24 5.67 0 1.44.27 5.06-.21 6.26-2.07-1.04-1.81-2.85-4.36-3.41 1.01 2.02 5.06 8.68 5.06 2.66 2.4.21 2.56 3.78 5.91 2.64 1.33-.43 2.08-2.88 3.36-3.01.17-.02 7.09-.66 7.47 2.27 0 .13-.11-.67 0 0zm468.64 122.61c9.48 0 11.08-4.05 17.63-2.66 3.62.69-.69 3.2 3.04 4.16 5.38 1.28 3.62-4.05 8.31-.43.38-2.5 2.03-.53 4.16-.75-1.17-4.74-2.98-.53-1.12-5.49.8-2.18 5.76-7.09 7.46-8.04 6.13-3.41 11.3-2.08 11.3 4.85 8.25-1.54 10.33-12.79 18.17-11.24-5.22 4.26-7.03 10.97-12.84 15.77-7.35 6.07-16.68 9.43-19.28 17.37-1.87 5.81-1.71 13.96-.58 19.29 1.54 7.3.74 8.47 6.18 5.59 5.81-3.04 6.29-16.2 15.4-13.85-2.45-4.63-.59-10.92 4.69-7.56-1.7-3.78-.27-7.3-.75-9.64-.32-1.17-2.5-.32-3.41 0 .16-1.86 3.2-9.16 4.37-10.23 3.14-2.88 3.52-1.23 7.46-2.13 2.13-.43 1.33 1.49 2.77 1.39 1.97-.16 2.5-3.36 4.16-3.46 2.02-.05 3.94.64 6.02.37 4.74-.53.86 2.88 4.58 3.62 0-9 21.42-14.54 27.49-16.3 5.49-1.54 6.07 4.85 4.16-3.41-1.71-7.35-5.49-4.42-10.23-7.56-2.72-2.02 11.24-1.54 11.19-1.49 4.05-1.62 5.32-3.84 3.41-7.96 2.82-.19 3.25 2.74 4.15 2.85.53.05 6.45 1.12 7.2 1.49 3.83 1.81 2.87 2.98 7.78 4.16 6.71 1.7 1.54 1.17 5.11-.21 2.93-1.07.58-3.94 2.29-5.43 1.49-1.36 11.72 2.96 7.57-4.39-1.49-2.61-12.04-4.42-14.6-3.38 2.35 1.6 2.93 5.38-.96 2.64-1.39-.99.59-4.77-1.22-6.26-.96-.77-2.77-.13-3.57-.83-1.43-1.23-5.49-3.57-6.92-4.37-3.94-2.1-6.45-3.54-10.6-5.57-8.52-4.16-26.9-7.35-32.39-1.73 9.54 3.86-14.97 7.32-1.92-1.15-3.94-2.96-7.24 1.09-11.18 1.65-4.8.64-13.21 1.23-17.42-.88-.1 1.36-.16 2.96 0 4.37-6.02-6.69-5.7-14.41-18.17-13.66-4.64.29-9.11 1.76-13.85.8-6.13-1.28-7.3-4.37-12.68-4.95 1.12-1.39-.91-.85 1.87-2.26-8.05-4.53-17.31 6.87-13.8-2.45-3.99 0-8.04-2.21-12.25-2.29-7.99-.16-6.13 1.12-13.48 2.29 0 3.28 3.79 3.09 3.79 6.61-3.09-.75-5.86-1.23-8.9-1.41.69.99 2.56 2.45 1.87 4.07-3.62-.69-4.31-3.49-7.72-4.13.16 0-9.01-.11-9.49.05-4.95 1.3-4.1 6.15-7.94 6.15.11 0-7.08-6.21-7.62-7.56-.64-1.65 2.08-7.01 0-9.48-3.25-3.84-5.91.32-9.27-.56-7.51-1.97-9.86-7.09-9.86 3.25-5.86.05-9.16.61-14.43-1.54-1.92-.8-3.04-3.36-5.44-3.97-4.58-1.17-12.78 1.01-17.73 1.01v-2.93c-1.76.56-4.58 2.32-6.18.75.43-.05 8.47-3.94 4.74-4.9-4.21-1.12-6.55 5.49-12.09 4.56.8 4.95-7.51 4.53-11.98 4.53 4.8-.45 25.89-13.29 26.37-15.9 2.02-11.4-19.55-10.41-24.46-8.55.96-1.17 1.71-1.41 1.71-3.2-2.83.29-5.54-.59-8.31-.59.43-.91 2.72-3.68 3.25-4.13-10.98-.85-11.4 2.93-18.22 6.42.91 1.15.69.83.96 2.05-7.51-1.76-8.1 3.36-14.39 4.05-2.29.21-6.44-2.53-9.85-2.13-.64.08-7.68 4.37-10.82 5.14-3.14.72-5.75 1.09-9.59 2.42-1.22.48-7.88 2.82-8.58 3.92-3.14 4.66 5.81 1.52.27 5.57-6.07 4.45-17.42-1.28-23.6 4.18 1.65 3.92 12.62 10.31 6.45 10.79-1.76.13-4.05-3.22-5.12-3.57-4.74-1.68-7.99-1.81-12.68-.8 1.76.85 3.99.67 3.99 3.22-14.12-.91 2.29 2.34 1.65 6.82-2.29-3.54-8.36-1.23-11.13-4.71-.96-1.2.16-7.22-.96-9.48-.48.37-.96.51-1.54.37 0 7-4.16 4.18-4.9 8.34 0 .03 1.17 11.61 1.43 12.04 4.05 6.61 2.93.64 7.88 2.56 6.13 2.42 5.81 5.62 5.81 9.64 0 1.44 4.79 2.18 5.54 2.29-7.89 5.19-6.29-14.44-17-5.73 0 0 .38 5.19-.43 6.47-1.49 2.42-3.09 3.33-5.17 4.45-5.76 3.25-5.65 1.92-13 1.41 1.6-2.34 7.57-1.94 10.6-4.53 2.77-2.45 4.69-5.22 4.69-9.22-4.37.37-5.91-16.91-5.49-21.76h2.45c1.28-6.34-9.11-7.94-13.64-4.56-.58.48-7.78 12.07-7.94 12.6 1.23-3.44 1.28 8.23.21 6.13.96 2.02 2.83 1.52 4.16 4.29.85 1.81 4.9 1.73 4.16 4.55-1.28 4.95-6.24-1.81-6.45-1.89-5.54-1.49-9.8-3.52-15.13-5.3-2.77-.93-12.79-6.13-14.39-5.86-6.98 1.07 13.16 9.08-.32 14.38 0-10.55-21.95 7.64-17.9-4.34-5.8 3.41-12.41 3.54-18.27 7.46-1.01.69-13.64 12.25-12.78.59 9.58.32-1.6-6.13-7.03-6.13 2.39 2.37 4.1 14.41 1.7 15.88.59-.32-5.65-1.76-7.4-1.41-1.39.27-5.22 4.61-7.94 4.82.74 1.09 2.82 4.32 2.66 5.91-3.89-2.02-8.47-.11-11.72-4.21-7.83 4.21 3.94 4.74 3.94 7.19 0 1.92-5.91 1.01-6.39.75-5.86-2.77-2.93-2.08-5.54-6.39-2.19-3.76-6.87-8.5-10.39-13.1 3.14.59 36.33 13.74 32.39-1.7-.96-3.7-9.96-7.14-13.43-8.42-5.43-2.02-13.53-.56-15.93-2.02 2.77-5.81-8.42-3.94-10.98-6.31 4.26 0 2.08-1.97-.1-3.12-5.49-2.9-3.25.75-7.14.75.43-.83.96-2.82 1.17-3.7-1.23-.29-4.05-.29-5.22 0 .1 1.92-.27 2.96 0 4.66-.96-2.37-1.81-1.92-3.68-3.62-.69 4.16-2.56 5.91-2.56.59.64-.29 2.08-.03 2.72-.03v-2.45c-1.6.24-11.88 5.73-8.15 1.7-7.94-.8-7.24 3.52-3.03 5.86-2.29-.91-5.33-.13-7.72-.93 0 2.18.37 2.77-1.17 4 0-2.72-3.94-5.19-6.61-4.93 1.06 3.78-2.5 9.64-3.2 4.16-4.64 4.63-.32 1.33-1.92 6.26-3.89-1.57-2.98-.48-4.15-4.37-1.6.56-2.5 2.26-4.96 3.41.69 1.25.59.67.59 1.89-3.57 0-5.7 1.68-7.57 4.16 3.94-1.25 9.75-4.93 13.96-2.82-5.6 1.28-13.85 10.79-14.92 17.63-1.87.16-4.69 2-6.28 3.54h3.04c-.43 3.73-9.06 7.46-11.72 6.87 0 1.54-.27.91.38 2.82-10.28 2.13-11.56 8.1-13.64 15.56 8.52-.27-3.04 5.11 4.74 5.75-.16 2.13-1.23 2.45-.96 4.47 8.36 0 11.45.96 17.05-6.07 3.68.64 6.45 13.74 9.69 17.42.91 1.07-2.08 2.93.27 3.78 5.43 2.13 3.09-1.81 5.38-2.66 4.1-1.44 6.34-2.88 9.86-3.73.27-.69.27-1.28 0-1.92-2.02.21-2.61.16-3.78-.75 1.17-1.86 6.07-7.99 6.44-8.95 1.23-3.14 5.86-5.86-1.12-5.86 0-5.01-4.32-9.7.91-15.72 2.61-3.09 7.46-3.25 9.86-6.45 1.6-2.08 1.65-8.07 5.38-10.41 2.88-1.78 9.48 1.25 9.96 4.66 1.12 7.35-22.64 11.45-11.72 24.13 7.67 8.9 21.09-1.92 30.1 3.25-5.01 5.11-12.2 2.88-18.17 3.62-2.29.37-10.54 3.09-10.65 3.2.86.32 1.49.75 2.29 1.07-1.81 0-3.03.64-4.74 1.17 2.08 5.43 6.02-.85 7.41-.21 2.61 1.28 2.82 2.66 5.11 4.21-6.5 8.26-6.07-1.39-9.86 0-4.58 1.65-4.26 11.56-4.36 14.01-3.89 0-8.9-2.13-5.65 3.2-5.86-5.97-9.1.43-15.55 1.01-2.19.16-11.56-5.33-12.2.69-2.45-.16-4.85-1.07-6.18-2.08.69-6.55 10.06 2.77 9.11-8.9-1.39.64-5.97 2.24-6.82 1.92.05-1.07.74-2.98 1.12-4.05-.75.32-1.54.32-2.24 0 .85-6.18-.75-7.3-5.54-2.4-3.35 3.41-.91 7.09-1.06 10.39-.38 8.52 2.13 3.84-4.48 7.67-3.35 1.97-9.21 3.94-12.99 3.94 4.84 6.23-4.58 5.59-8.16 8.31-.37.27-3.3 7.03-4.36 7.35-3.57 1.12-5.76-2.13-8.1-1.92 5.54 9.54-5.43 2.88-8.73 5.43-4 3.09 1.06 2.02 2.34 3.89 1.87 2.61 4.05 3.68 5.97 7.62 10.76 21.47-15.34 8.2-25.94 12.68 2.02 6.87-.96 14.92.75 21.58 1.54 5.97-.48 2.29 4.74 5.65 3.31 2.13 5.01.11 8.15 4 .69-.8.59-1.17-.37-1.12 5.43-1.92 12.2-4.16 16.51-8.16 1.76-1.65 2.61.43 3.94-1.43.8-1.12-1.6-2.98-1.49-3.09.64-.91 1.12-4.69 2.45-6.29 1.76-2.13 9.43-4.37 10.76-5.49 1.6-1.33-1.12-4.1 1.76-5.86 2.39-1.49 6.76 1.86 9.43 1.39 1.01-.11 6.02-6.18 8.74-5.75 3.67.64 7.35 7.62 10.39 10.07 9.16 7.14 25.36 16.89 2.5 16.89 6.13 10.7 15.77-.43 18.38-6.77h-3.25c-.05-.69.05-1.33.16-2.02 1.6.53 5.65 1.33 6.87 1.33-2.34-4.53-8.89-9.75-14.59-10.6.58-3.57-5.33-8.04-7.99-7.83.8-11.93 8.47-1.33 14.33 2.93 3.99 2.93 9.21 4.95 11.45 9.06 1.39 2.56 3.31 9.38 4.75 12.14-1.55-.48-1.97-.8-3.41-.53 1.22 3.25 2.93 4.8 5.11 2.24 2.29 11.72 10.07-.85 14.39-1.54-.69-1.23-1.6-2.24-3.04-2.24.32.75.32 1.55 0 2.24-2.24 0-6.92-6.98-6.23-8.47 2.29 1.28 3.57 2.02 6.07.91-.21-.64-.69-.91-1.33-.91 8.58-12.63 13.32 20.14 14.65 20.14 1.49 0 1.17-4.26 1.17-4.84 3.31 2.93 5.97 2.34 8.58 2.72-2.72-.38 4.37-1.81 4.21-1.81 2.72-.11 3.94 3.3 8.36 2.24-.05-1.12-.11-2.13 0-3.31 8.31 1.71 8.95 4.58 5.91 13.43-1.01 3.09-4.9 8.1-7.57 9.27-3.25 1.39-6.28-1.91-9.32-.32 4.74 2.24 8.05 16.46 13.43 10.98 8.05 8.42 10.02 19.92 15.29 28.76 3.35 5.54 10.23 9.91 13.1 16.3 3.89 8.63-1.28 13.85 9.64 14.06 4.9 0 10.71-4.69 15.55-6.71 5.54-2.24 8.26-4.58 12.68-6.61 5.7-2.61 9.11-1.49 13.05-6.07 1.87-2.02 5.7-7.24 8.15-6.24 0-5.32.11-5.54 4-7.19-.43-2.56-4.74-5.43-6.66-7.03-3.41-2.93 0-5.97-4.9-1.12-.53-2.29-1.23-7.3-3.04-8.68-2.08 2.56-2.72 2.77-3.04 6.82-7.56-.64-19.39-.37-5.48-2.87-.22-.86-10.87-3.84-11.4-4.16-1.65-1.17-6.72-6.76-7.14-9.27-1.44-8.74 2.77-5.86 7.94-2.24 6.39 4.37 8.58 6.39 16.09 8.85 1.28.43 4.32-.43 6.08 0 1.33.37 1.65 3.35 3.46 4.15 3.36 1.6 11.72 2.35 15.67 2.5 9.1.32 11.66-.48 18.96 3.68 3.94 2.24 4.31 5.06 10.23 6.18-10.44 0 1.54 5.43 3.94 6.23 3.94 1.28 1.87-5.32 6.07.59 2.08 2.77.43 6.39.96 9.48 1.06 6.07 3.25 10.92 5.49 16.62 1.49 3.83 4.21 16.41 7.94 18.59 3.94 2.19 7.88-1.76 10.06-6.28 1.49-3.04 1.49-6.55 1.87-9.96.21-1.81-.48-5.12.11-6.61 1.97-5.06 1.54-.11 5.22-3.73 7.09-6.82 15.45-17.15 22-20.77 2.5-1.44 13.64-3.73 13.8-3.62 2.13 1.38 7.03 12.41 7.03 14.91 6.5 0-.95 5.43 3.79 9.16 3.2 2.5 6.82-2.83 7.4-2.67 5.06 1.39 8.58 14.71 8.47 20.19-.05 2.93-4.53 6.02-2.56 11.03 1.17 2.98 5.76 5.76 7.41 9.54 1.97 4.58 6.07 21.04 14.86 16.83-2.98-5.17-2.98-14.33-6.02-18.11-4.42-5.28-9.59-5.01-10.82-12.68-.27-1.76-1.97-9.43.91-11.83 4.64-3.78.8-.91 5.33 1.55 3.94 2.13 3.57 2.02 7.09 6.39.8 1.01 3.67 1.81 4.1 2.45 1.28 2.13-.38 3.99 1.49 7.24 3.78-5.33 9.54-6.72 12.52-10.82 5.54-7.56 2.08-13.9-2.45-19.76-6.87-8.95-8.68-19.81 7.19-19.81 1.01 4.58-5.86 9.58-3.2 11.93 6.5 5.76 7.88-11.08 7.72-10.98 2.83-2.55 8.95-2.72 12.15-3.73 4.69-1.49 6.23-2.5 10.17-5.49 5.49-4.1 15.61-13.1 16.89-20.51.95-5.43-1.92-2.08-2.45-5.76-.32-2.02 1.65-1.59.96-5.22-.85-4.36-6.92-9.8-6.82-12.95.21-6.02 6.34-3.99 8.53-7.19 1.91-2.83 1.91-2.66-3.73-4.74-2.5-.85-1.87 2.93-5.11 2.93.91-7.09-8.37-2.13-4.27-8.74-.26.48 7.35-2.88 7.78-3.09 8.31-3.14 5.86-4.16 2.45 4.58 2.45-1.39 9.01-4.85 11.78-3.62 5.8 2.61 1.22 3.52 1.7 8.31 8.95-3.73 6.24 10.44 5.28 14.76 6.39.69 13.64-3.57 13.48-9.75-.11-5.54-7.14-6.18-5.7-13.9.32-1.54 3.14-.37 3.41-1.12.1-.21 1.01-6.18 1.54-6.87 1.28-1.76 3.41-5.33 5.8-6.39 1.39-.59 6.39.53 8.95-.21 3.41-.96 4.31-1.81 6.98-4.16 4.31-3.68 9.8-10.55 12.73-14.97 3.41-5.06 2.45-9.11 4.74-14.33 7.35-17.26 4.05 16.78 4.05 21.52 1.38-1.39 2.45-.64 3.67-3.41 1.71 1.6.21 2.88 3.83 3.04-1.01-6.93-8.41-13.05 1.87-13.05.27 0-4.9-23.55-5.11-26.32h-1.49c.27 5.65-1.54 5.22-1.54 10.44-4.32-2.56-3.46-8.1-11.35-10.44-.91 5.75-3.68 3.84-6.07 0 .21 1.12.21 1.92 0 3.04-3.35-.48.05-2.61-2.45-4.74-5.33 5.33-.11-2.72 1.86-4.9 2.98-3.3 6.13-5.54 9.38-9.59 6.74-8.5 12.86-9.03 23.15-9.03zm-552.18 3.51c-1.76.64-3.62 2.66-3.99 4.37 1.6-.42 6.87-4.9 3.99-4.37-.69.22.21 0 0 0zm4 42.46c3.83 0 6.71-2.66 8.9-3.04 3.35-.53 8.1 1.07 10.81-.16 4.8-2.18 6.34-6.87 5.06-11.19-.8-2.77-2.88 1.65-2.98 1.54-1.28-1.33-1.07-3.52-2.08-4.37-1.71-1.49-4.05-5.01-6.28-7.62-3.41-4-3.84-3.04-4.37-6.23-.32-2.13 8.42-10.44-4.53-6.61 1.06-1.86 1.22-3.41 3.25-4.58-4.26-4.26-6.13 2.34-7.72 3.62-.26.21-8.89 3.14-2.13 4.32-.59 1.97-2.77 4.85-2.66 6.07 2.24.27 5.06 2.08 5.65-.37-.53 7.4 3.35 3.3 6.13 9.27 3.14 6.93-3.31 2.18-6.66 6.29 1.28.32 2.29.21 3.78.37 0 2.08-5.11 2.93-3.41 4.9 1.07 1.23 6.39-.59 8.16 1.12-.72.65-11.27 6.67-8.92 6.67zm-3.25-19.5c8.42-1.23-13.37-12.04-8.31-1.92-4 .75-9.38 6.34-2.83 6.02-8.53 12.36 3.35 4.16 10.6 5.75.27-2.97.59-6.17.54-9.85zm202.7 288.48c0-7.3 5.22-22.32-3.41-25.73 0 2.56-3.35 8.53-4.9 9.91-3.2 2.93-8.15 1.7-11.4 4.84-2.5 2.45.32 10.07 0 12.09-.59 3.83-2.24 4.32-3.04 9.11-1.01 6.24.43 15.45 8.74 13.64 7.99-1.76 5.43-4.21 6.82-11.35.1-.85 2.13-8.95 2.29-9.11.64-.9 4.9-2.18 4.9-3.4zm-62.91-180.76c-3.62-8.63-5.7-5.32-13.64-6.28-11.46-1.39-20.3-5.06-31.06-7.51 0 10.39.21 8.47-6.82 8.58 1.43-.1-6.18-2.24-5.44-1.91h-5.54c-.59-.96-.96-1.97-1.12-3.04-3.35-1.12-13.48-2.77-15.56-5.59-3.89-5.22 4.37-6.18-2.66-10.71 1.87-1.55 1.65-1.76 4.21-2.29-3.57-6.08-13.37-.43-18.59-.32-5.54.11-11.45-2.35-18.54.75-4.8 2.02-8.05 4.85-14.39 4.69-7.67-.1-11.77-5.43-11.77 4.53h-5.7c2.56 9.22-4.16 3.25-5.65 6.29-2.4 4.84-1.6 10.6-3.79 13.69-1.33 1.81-6.34 4.27-8.36 6.82-2.18 2.61-4.8 7.04-7.19 10.55-2.35 3.52-11.94 12.46-10.6 17.79.37 1.49 5.75-.64 6.6 1.17.75 1.43-1.06 2.13-.74 2.98 1.49 3.94-1.01 10.45-1.33 14.44-.38 4.85-.8 9 4.58 14.54 5.7 6.02 11.03 10.98 17.42 16.51 2.18 1.92 3.25 6.29 7.94 7.24 5.28.96 5.97-1.28 10.98-1.91 4.36-.53 7.67 1.39 10.65 1.28 6.28-.21 5.86-2.61 10.97-4.37 4.16-1.38 13.11-1.01 15.5 0 3.79 1.71 2.83 4.48 8.42 5.76 9.7 2.13 9.16-2.66 9.38 7.57.1 4.8-1.81 10.92-4.53 13.64 12.14 3.83 20.13 28.66 18.17 40.49-1.92 11.93-9.11 12.41-2.98 25.04 3.78 7.88 5.01 12.57 7.19 21.2 2.19 8.95 9.16 15.02 11.72 23.12 2.18 6.92-1.17 9.11 2.29 12.89 9.16 10.02 33.4-1.81 40.54-9.48 2.77-2.98 7.46-8.16 9.06-11.72 1.6-3.51-.53-8.52.37-10.65.8-1.7 6.82-2.77 8.74-5.33 5.17-6.71-2.61-9.58-1.12-16.62 1.17-5.7 11.72-8.63 14.76-11.4 7.51-6.72 7.94-14.23 6.07-24.35-1.07-5.7-6.34-14.17-4.16-21.1 2.87-9.32 14.81-18.33 21.95-24.61 5.27-4.64 10.49-9.96 14.01-16.3 2.39-4.21 3.94-4.58 4.53-10.23.96-8.9 2.39-6.77-5.28-6.82-10.65-.05-13.8 3.99-21.2-4.1-4.26-4.74-11.13-9.16-15.18-14.44-3.99-5.17-8.15-16.99-10.6-23.12-3.67-9.41-5.8-19.05-12.51-27.36-.27-.64.42.54 0 0zm-385.27 290.02c-1.49-.32-1.39-2.66-2.45-2.66.48 0-3.41 4.47-3.41 4.42 0 .69 7.03 6.13 7.56 6.39-.32.48-.48 1.01-.37 1.55-12.15 0-2.45 10.7-4.37 15.13 1.12-.16 1.92-.16 3.04 0 .05 1.06-.53 1.65-1.7 1.76 1.97 2.08.96.86 2.88 1.33-.64-.21 7.99 10.82 9.43 11.72 7.24 4.47 14.12 2.29 21.04 1.76-.32-2.24-9-4.74-10.81-9.06-1.7-4.16-5.59-14.91 1.33-14.22 0-4.37 8.79-9.27 8.15-12.42-.69-3.73-9.48-1.49-6.45-8.9.96-2.34 5.75-1.06 6.82-2.34.91-1.17-.32-3.09.96-4.48-.85.96 4.47-8.31 3.78-4.9 1.23-6.07-4.53.16-3.25-8.84 8.9 3.57 10.65.32 9.32-7.94 7.35.21 16.19.48 19.55-6.66 3.62-7.57-3.3-5.86-4.63-12.47 8.2 1.06 11.29 3.94 17.63-1.71 2.98-2.66 5.33-13.37 8.68-12.89-.48 1.49-.75 1.65-.37 3.04 9.75-4.85 7.03-18.65 12.36-24.98 3.46-4.16 8.26-6.18 13.16-7.57 7.78-2.24 9.91-1.71 14.28-9.32 5.17-9 3.04-22.64 7.19-29.89 3.04-5.27 9.7-8.42 11.45-14.49 1.23-4.05.96-3.78-.05-7.51-2.24-8.1-2.13-2.77-7.19-6.76-5.49-4.26-7.73-5.22-14.54-6.5-3.68-.75-16.67.16-11.24-2.67-2.02-1.39-5.27-3.41-7.94-3.94-6.66-1.28-5.17.21-9.86 2.24.43-.64 2.4-5.06 2.45-5.43-1.76-.21-4.21-1.07-5.91-1.6s-.75 3.83-4.32 3.41c.69-1.6 7.62-10.28 1.12-10.28 1.12-11.5-9.54-12.09-16.62-13.91-5.75-1.39-18.49-7.24-18.49-13.69-3.25 1.12-9.06-.37-4-2.66-3.36-4.32-10.33 1.76-12.31 1.71-7.24-.27-10.71-6.34-17.63-7.62 0 3.73-2.56 2.87-4.74 5.12-.32.32.64 5.43.37 6.28-3.89-3.2-2.88-10.02 1.12-12.47-6.39-1.81-24.29 10.06-25.36 18.11-.59 4.47 4.1 9.16 1.07 15.35-1.65 3.41-8.63 10.44-12.31 11.72.64 5.76-1.76 6.82 4.16 7.24-2.45 4.26-8.2 6.82-4.9 13.8.8 1.76 4.53 2.13 6.07 4.32 1.49 2.19 3.09 5.44 4.05 7.78 2.08 5.12 4 13.64 7.3 17.47 4.53 5.22 9.96 6.72 15.61 11.13 9.54 7.51 6.02 23.5 4.47 35.21-.85 6.39-3.25 12.52-4 18.43-.85 7.03 0 14.39-2.82 20.99-3.14 7.35-2.93 11.67-4.9 19.92.11-.48-.05 5.43 0 3.94-.05 1.28-2.56 2.56-2.02 4.16 2.66 7.94 4.95-3.94 7.67-4.16-1.97 5.54-2.77 10.23-3.46 16.51-1.49-2.5-1.86-1.12-2.4-4.58-1.76.97.91 6.14.75 7.58zm9.48-244.52c6.61-1.49 16.14-.37 22.75-2.66-2.93-3.62-11.93-2.45-17.47-3.2-3.52-.43-10.76-4.58-11.35.96-.38 3.51 2.82 5.54 6.07 4.9.75-.16-.48.11 0 0zm-17.79-1.18c-1.54-2.39-4.69-3.2-7.94-2.66 1.97 2.66 5.65 4.96 7.94 2.66-.32-.42-.59.64 0 0zm6.82-8.47c-2.88-4.63-14.7-7.4-19.71-9.32-3.25-1.17-10.65-4.21-14.7-1.86-4.47 2.61-3.36 2.98 1.44 5.27 2.08 1.07 3.3-2.18 5.33-1.81 2.77.43 4.53 2.83 6.02 3.36 7.82 2.82 12.72 4.36 21.62 4.36zm182.99-205.52c3.46-.56 4.69-.48 5.65 3.04-2.61-.48-4.96-.48-7.57 0 .1.75.27 1.54.37 2.29 7.72-1.28 1.76 3.09 5.7 4.53.85.27 9.75 1.17 10.23 1.12 6.82-.32 7.41-1.76 13.27-4.9 4.95-2.72 7.14 1.07 8.68-4.18.64-2.08-2.98-2.13-3.79-2.26 1.65-9.43-11.19-1.04-17.53-1.86-.95-.08-6.61-.88-5.59-.77-2.72-.24.21-4.26-2.66-.77-6.92-2.34-8.62 4.13-6.76 3.76.53-.08-.53.1 0 0zm-116.72 75.75c-1.49.96-10.28 15.13-9.64 16.19 1.33 2.24 6.02.11 8.58.85 3.89 1.17 4.74 2.77 8.63 4.58 5.91-8.95.37-12.04-8.31-14.81-.06.17 5.27-9.37.74-6.81-.48.32.48-.21 0 0zm-20.46 8.37c-3.78-1.23-5.43-2.82-9.11-2.29 3.46 2.07 5.7 7.19 9.11 2.29-.53-.16-.16.26 0 0zm106.92-101.89c1.07-.4 2.24 1.15 3.09 1.39 6.71 2.16 6.71-.4 12.2-2.56 4.9-1.89 17.05-4.53 18.75-9.11-6.61 5.17-22.16-6.9-5.6-6.21-.69-.03 7.41 8.5 9.27 1.12.69-2.72-6.08-9.27-8.2-10.44 1.17-1.04 8.63 4.4 6.39-2.64-1.07-3.3-2.98-3.36-7.35-1.89.85-1.33 1.7-1.23 2.24-2.45-.8-.24-1.54-.56-2.24-.99 2.39-.03 9.27 3.33 12.47 1.17 7.35-4.9-4.53-3.14-4.53-5.51 0-.59 11.19-1.12 11.94-2.45-2.35-2.32-8.53-6.31-1.12-6.93.16-6.13-9.06-6.1-7.99-9.56.43-1.41 4.9-1.94 6.07-1.52 4.85 1.86.85 2.26 3.04 6.63 1.33-7.86 4.36-9.75-5.12-9.75 2.61-2.9.11-.8 4.53-2.93-2.66-4.07-9.21-.16-9.27-.19-6.76-5.46 17.1-20.24 19.34-23.07-3.04.19-5.97-.35-8.95-.43 6.18-1.28 9.7-1.09 15.02-4.55 1.44-.93 9.11.03 5.65-5.09-.58-.91-8.52-.48-9.27-.4-5.49.67-10.6 1.62-15.18 2.82-2.88.83-14.76 7.11-16.46 6.82 6.82-8.55 10.55-9.83-1.87-11.67 0 4.95-3.57 4.45-8.36 5.25.8-4.02 3.57-2.42 6.45-3.78-7.03-5.22-19.92 2.88-27.65 1.68 2.08-6.21 33.67-6.71 40.92-7.54v-1.73c-7.25-.03-10.5-1.12-16.09-2.08-8.42-1.39-16.62.59-24.83-.27 6.02-4.13 18.27-2.29 26.9-2.29-.96-6.71-38.84-3.94-43.74-2.37-5.22 1.73-.53 3.46-7.09 4.18-3.84.43-7.03-1.84-10.97-2-3.62-.16-10.81.56-14.86 2.1 1.23 2.42 4.1 1.39 4.1 4.82-1.54-1.2-8.36-4.05-6.18.16-.53-1.04 12.04 6.39 8.47 6.39-7.99 0-14.01-6.42-22.48-6.42 0 1.81 5.22 4.93 5.97 7.64-5.06-1.44-8.47-6.05-13.9-6.55 1.38 2.74 1.81 9.4-2.66 6.74 0-.03 2.13-5.49-.85-7.11-3.57-2.02-14.92 4.98-17.31 3.78 2.61 1.01 7.03 2.42 9.06 4.63-3.62-.03-6.66-2.5-10.44-2.96-2.45-.35-1.81-2.29-5.06-.75-3.14 1.47-.64 3.84-1.49 4.32-2.98 1.73-9.16 2.42-14.81 5.43-2.24 1.2-7.67 1.09-7.35 4.95 3.25.85 4.9 0 7.94 0 2.18 0-.11 7.11-.53 7.51-1.01.88-5.75.64-7.24 1.01-3.89 1.01-10.87.59-14.81 2.93-12.84 7.54 10.87 8.18 17.85 8.18-1.39 5.78-15.72 1.52-15.72 4.82 0 1.62 6.23 3.38 7.56 3.68-1.07 0-1.17 0-1.49.77 1.92 1.54 5.59 4.74 8.42 3.7-.21-.4-1.44-1.52-.8-1.92 4.26-2.64 22.59-.61 27.65 2.64 7.3 4.69 12.89 14.28 13.58 23.09h1.81c-7.24 13 10.18 2.32 15.13 14.04-4.69.13-9.11-3.14-13.43-1.33 1.07 3.22-2.82 8.47 3.78 8.63 5.75.13 7.62-3.97.91-5.01 9.54-1.15 7.24 2.56 9.91 9.27-4.26-.21-7.62.53-7.51 4.71-9.48-1.23.48 11.16 1.07 13.16-.21-.53 2.82-1.31 3.41-.11.43 1.01-3.09 2.18-2.13 3.06-1.49-1.39 1.7 5.33 1.33 4.37-.05-.21 3.68-2.18 4.37-2.13-2.93 5.97 0 16.04 6.45 20.88 2.88 2.18 17.05 7.67 19.34 6.39 3.14-1.7 2.29-8.2 3.57-11.13.8-1.76-1.92-2.29-.85-4.37.53-1.12 3.36-.37 4.26-2.08 3.84-7.03 1.49-13.74 11.08-14.57-.27-4.58.21-1.31 2.66-2.85-.63 12 19.72-13.14 19.83-13.17zm-206.75-58.57c4.05 6.23 22.27 3.97 28.98 2.85 1.81 4.55 12.57 1.73 12.15-4.18-1.01.48-2.02.91-3.04 1.33-.32-.93-.64-1.89-.96-2.82 4.32-.8 4.1-1.92 3.04-5.7 5.43 1.49 10.02.69 6.23-4.31-.59-.77 5.7-.19 5.7-.96 0-5.25-9.64-3.54-12.09-1.36-.27-.61-.53-1.25-.75-1.86 6.18-4.34 12.89 1.68 18.7-3.62-1.12-.83-2.24-1.63-3.36-2.42 3.89 1.04 7.62 1.89 11.93.16-1.86-1.44-1.6-2.56-4-3.6 8.95 2.16 19.5-7.62 27.81-9.83-2.66-2.66-9.8-.08-14.38-.61 3.73-4.82 24.45-.16 25.78-6.82.85-4.53-18.01-5.33-22.53-4.16-1.76-1.76-8.95-3.7-13.48-4.18-1.76 6.31-22.11-2.9-20.62 4.39-5.7-2.13-18.27-3.33-22.59 2.82 4.79-.27 10.02.72 12.36 4.55-4.79-1.25-11.19-4.29-15.34-5.11-4.37-.85-7.94 1.46-9.16 1.62-4.58.64-13.74 3.06-19.29 4.24-.05.56-.11 1.15-.16 1.73 4.69 1.46 5.01 4.18 10.23 5.75 7.46 2.29 7.72-1.7 14.17-2.56-12.95 7.56 7.14 4.95 10.65 4.08 7.24-1.78 12.25-5.99 19.87-5.75-3.04.32-5.97 1.68-8.36 3.76 2.77-.48 5.11.43 7.78.4-3.84 2.85-16.03 3.78-21.58 4.13v1.89c3.68 1.54 5.86 4.26 10.23 4.18-6.45 1.76-16.09-4.58-23.33-5.49.59 6.18 11.61 11.13 17.85 10.81-1.44 1.68-2.08 2.93-3.25 4.32-10.81-10.6-27.01 5.86-6.98 2.29-1.07.59-2.13 1.15-3.25 1.7 2.34 3.84 6.66 2.58 9.86-.75-3.68 9.8-14.54.51-21.2 1.36 2.77 4.29.16 6.05-3.62 7.73zm1.7-12.33c1.07-1.28 2.98-.48 2.45-3.97 12.09 1.84 9.27-5.62 1.76-10.34.43.29-24.45-12.23-23.87-8.58 1.76.37 3.36-.91 3.78 1.33.05.32-6.66 1.17-7.4 1.12 1.54 1.04 2.02 2.58 2.66 3.22-1.81-.29-3.41.29-5.11.19-.59 1.3-1.28 4.18-1.33 5.89 4.53 4.55 11.19.67 16.09 4.74-2.93.19-5.91 1.65-8.68 2.08 5.59 5.01 13.05 6.9 19.65 4.32zm-9.85 6.47c-.53.88-1.12 1.76-1.7 2.66 3.3.99 5.65.77 8.52-.59-1.76-3.32-3.52-2.71-6.82-2.07zm3.03 22.91c3.73-.77 45.6 2.66 39.42-6.98-3.68-5.81-20.19.43-25.25.29-10.6-.24-12.04-11.21-21.52-8.44 3.52 6.04-.16 12.51 7.35 15.13zm-26.31.77h2.66c-1.17-2.85-1.17-.59-2.66 0zm5.86-4.74c1.97 1.73 12.25 6.5 11.19-.19-.86-5.46-9.44-2.85-11.19.19zm9.32-8.15c4.21-4.4-1.97-7.51-6.45-6.82-9.21 1.46 2.19 6.87 6.45 6.82zm-7.78-9.09c3.41-.05 6.71-.48 10.02-1.3v-1.89c-4.21-.59-8.74-.94-10.02 3.19zm.75-4.74c9.48-2.32-6.34-6.61-9.27-5.67 1.28 4.5 4.37 7.24 9.27 5.67zm-10.6-14.17c-1.39-2.64-2.34-4.08-5.86-3.44v2.26c2.55 1.1 3.51 1.61 5.86 1.18zm-2.46 16.25c2.77-9.48-15.93-14.01-22.96-11.37 2.72 1.12 4.1 3.25 6.07 4.95h-3.2c2.78 3.84 14.71 4.37 20.09 6.42zm-7.19.4c-2.4-.93-3.14-2.32-6.07-1.52 1.12 3.25 2.98 2.18 6.07 1.52zm-1.76 16.49c3.89-1.92 6.23-.43 7.03 3.97 5.06-.21 8.84-1.97 8.26-7.38-.69-5.94-6.66-3.44-12.04-5.51 1.86 1.31 3.89 3.28 4.95 5.3-.21-.35-7.56-3.2-8.95-3.38.37 1.6.43 3.09.96 4.71-3.52-2.69-5.06-7.09-10.02-7.59-.57 5.72 4.65 8.6 9.81 9.88zm-10.97 1.52c.43.29 4.16 4.58 4.16.16 0-2.51-3.63-.16-4.16-.16zm1.33-14.23c-1.39-2.24-3.04-3.86-5.49-4.9.22 3.78 2.08 5.91 5.49 4.9zm98.72 68c2.72.8 10.23-.16 7.56-4.45-2.34-3.8-10.81-.93-7.56 4.45zm-61.21-32.04c1.12-2.02 2.98-1.28 2.88-4.34 5.27 1.89 7.46-2.8 10.23-6.61-3.89-1.44-12.09-4.16-15.56-1.68-3.09 2.24-4.43 14.57 2.45 12.63zm-16.68 5.89c8.74 0 10.49-7.88 2.08-11.72 6.39-2.05 1.39-5.94-2.24-7.11-.64-.19-5.75 2.58-8.74 2 5.33 5.57 1.23 9.11-4.69 5.86.27 3.8 10.08 9.13 13.59 10.97zm-21.2-11.94c1.6-5.19-5.01-6.23-8.15-3.38 2.98 2.8 5.06 4.69 8.15 3.38zm-12.52-4.34c.32.32 2.4 2.72 0 0zm-18.38-34.47h13.48c-2.34-5.03-9.8-3.56-13.48 0zm3.84 8.34c3.78-.03 8.58-.45 5.27-4.16 1.6-.72 2.18-.05 3.25-1.89-4.42-.43-8.79-.24-12.52 2.24.75 2.56 2.08 2.91 4 3.81zm-6.66-3.41c-1.17-2.45-1.49-4.08-5.11-3.44.85 3.12 2.44 2.83 5.11 3.44zm-3.78 9.46c-5.38 1.57-10.76 7.11-6.98 10.15 3.36 2.72 15.66-.08 19.87.29-1.44 1.68-10.28.05-9.7 3.12.8 3.54 7.4 1.33 9.59.93 4.63-.85 22-3.12 20.72-9.56.48 2.48-11.4-6.55-10.39-6.26-5.54-1.63-7.62 1.6-4.74 6.63 1.07.43 2.77-.24 3.14 1.07.54 2.05-18.69-5.39-21.51-6.37zm1.11-3.6c1.23.53 1.6 2.53 4.58 1.89-.05-.61-.16-1.28-.21-1.89-1.44.38-2.87.38-4.37 0zm-15.13 8.15c-.64.75-1.28 1.52-1.92 2.26 4.16-.05 3.36.72 5.54-3.22-1.22.32-2.39.64-3.62.96zm6.08-4.77c3.14-1.09 4.79-3.57 5.27-7.16-11.45-2.8-15.13 7.72-25.57 8.87 4.9 7.46 12.25.69 16.67-3.38 1.12 3.3 2.4.96 3.63 1.67zm2.61 49.44c8.2-.67 8.42 3.62 14.81 5.33 6.34 1.73 11.19-2.74 16.83-3.81 3.41-.61 25.89 3.06 18.01-3.2 3.14.05 4.16-1.62 6.07-2.48-6.98-4.79-9.86-4.77-13.37-11.43-1.33-2.58-7.25-15.13-12.04-9.16-2.18 2.8 5.86 9.32-.16 8.87-3.04-.27-2.82-8.39-8.52-8.71.69 1.17 1.23 2.56 1.86 3.78-2.34.96-3.52 1.33-6.02 1.89.59-1.07.85-2.61 1.28-3.76-4.21-1.6-8.2-.8-10.6.72 1.86-7.09-4.85-3.7-8.31-2.18-6.23 2.77-6.45 4.16-9.27 9 4.16 1.62 8.63-1.04 12.47 1.89-3.09.32-6.02 1.44-8.31 3.25 4.21 2.26 17.85-1.17 20.08 2.64.8 1.41-14.97 2.13-17.42 3.57.85 1.29 1.76 2.54 2.61 3.79zm31.64 7.41c3.41-.91 5.54-1.63 6.29-4.53-3.52.64-7.03 1.92-10.07 3.78 1.28.24 2.56.51 3.78.75zm-52.84-20.46c6.71 1.01 9.43-7.94 15.24-10.92 9.43-4.85 11.72-6.29-.37-8.76-3.09-.64-18.7-4.32-21.95-1.6-1.81 1.52-2.34 12.68-6.34 17.13 4.37.27 8.47 2.64 10.23 6.82 1.05-.88 2.12-1.79 3.19-2.67zm443.34 248.99c-.25-.33-.52.05 0 0zm-537.48-184.56c.91-6.02 8.95 1.39 13.1 2.61 5.38 1.6 10.5.43 15.72 2.13 9.22 2.98 15.56 11.4 24.83 13 .85 1.92 1.54 3.84 2.98 5.33.48.53 4.47 2.34 4.95 3.2 3.2 4.79 5.06 9.48 7.83 13.21 4.9 6.61 6.77 7.19 13.74 11.35 5.01 2.98 10.97 8.04 10.23 15.08-5.65-6.93-11.56-16.46-21.2-15.34 4.53 5.43 11.24 7.35 14.12 14.17 2.93 7.03-.85 13.85-.85 19.71-.11 10.92 5.43 26.16 12.89 34.31 4.32 4.74 10.97 4.95 14.92 11.08 3.2 4.85 5.91 11.03 8.9 16.04 1.01 1.6-1.23 2.39 1.07 5.75 1.39 2.02 5.22 3.83 7.09 5.76 1.28 1.28 7.51 8.63 7.99 11.4 5.86-5.97-16.99-26.85-17.63-35.43 6.39-.8 13.69 13.8 18.38 18.86 6.02 6.44 11.45 15.18 17.63 22.21-8.95 6.07 26.58 19.28 32.39 20.13 1.76.27 3.73-1.91 6.98-.95 3.73 1.06 5.38 5.01 8.36 6.76 2.98 1.87 12.73 3.46 13.05 3.04 5.17 3.62 7.78 10.7 10.49 13.32 3.94 3.62 12.89 6.39 18.49 8.84-1.54-9.59 8.95-.85 9.38-4.05.85-6.28-13.16-2.35-17.05-4.9-9.38-6.28.64-13.32-4.16-20.29-4.1-5.91-14.54-1.23-19.6-3.46 4.47-4.9 11.13-20.46 1.49-19.87-8.74.59-4.47 6.66-9.86 10.92-4.95 3.94-12.95 1.39-16.83-1.97-8.52-7.51-8.2-28.18-3.09-35.75 7.03-10.33 18.22-.32 26-2.77-1.86-6.5 5.49-5.54 10.07-5.22-.43-.05 10.44 2.03 9.06 1.07 3.41 2.39 8.95 20.24 12.52 19.92 4.32-.37-3.3-24.08 2.5-30.74 3.73-4.32 11.56-5.38 13.8-10.5 1.92-4.36-.85-6.5-2.08-11.93 3.2.85 1.54-1.76 4.9 1.7 1.23-2.66 3.89-9.75 5.81-11.61 2.4-2.13 8.58-2.56 12.57-3.68-5.81-10.97 16.25-18.86 24.45-16.94-1.12-.21-7.94 2.45-8.9 4.37-2.88 5.86 5.11.85 5.38.8 6.82-.8 14.49-6.02 16.57-12.09-5.43 2.56-6.98 6.93-13.64 3.41-8.84-4.79-.32-9.06-2.34-12.25-5.59-8.63-19.66 7.03-25.52 10.76 1.54-2.88 3.57-5.38 6.07-7.46-1.44-.32-2.93-.75-4.37-1.12 7.4 1.65 11.67-7.62 18.01-9.43 4.21-1.23 10.07.32 14.33 0 6.66-.64 5.97-1.39 11.61-3.84 5.17-2.13 13.37-2.93 10.92-9.54-2.5-6.77-11.29-1.97-16.57-1.44 2.5-4.26 7.62-3.36 11.51-6.61-6.66-1.07-12.68-3.62-16.46-9.48 4.1-2.5-7.56-15.08-9.64-19.71-3.36 3.73-3.36 9.75-8.74 10.97-5.22 1.12-4.53-4.32-10.39-2.77 3.68-12.68-6.55-17.05-16.41-19.55-11.19-2.93-18.65 2.77-10.71 14.38h-2.66c-.85 1.97-.27 3.2-1.49 5.33 10.49 4.37 8.1 20.3-4 19.87 3.46 3.73 6.55 17.63-1.12 18.33-7.46.53-9.22-13.96-8.52-19.44-8.63-1.44-13.85-2.72-21.31-6.55-3.3-1.65-7.19-2.88-10.12-4.05-2.61-1.12-3.25 1.28-5.49-.11-1.7-1.01-1.97-4.79-3.09-6.18-3.84-4.74-5.81-2.02-5.06-9.75.27-3.2 3.46-8.26 5.75-10.6 2.45-2.45 8.2-3.14 7.62-6.71-.43-2.34-9.8-3.68-11.67-4.37 4.9.48 14.01 5.06 15.34-1.12 5.75 3.46 8.47-.48 10.02-5.33-5.22.35-9.16-2.21-13.64-4.34 3.41.13 23.01 4.9 14.97-3.62 8.74-.67 2.77 13.29-1.12 14.78 3.2 3.41 4.42 4.26 9.27 4.21-.27 0 4.47-2.24 5.86-2.5 1.7-.27 3.57 1.76 4.95 1.54 10.87-1.86-10.49-9.38-12.31-13.29 4.9-.19 1.92-.11 3.94-2.64 7.46-.56 10.87-6.87 5.86-13.08 10.17-1.73-2.4-8.36-6.02-10.04 6.23-.96 12.89 2 19.5-.4-1.01-.93-2.02-1.86-3.04-2.85 6.93 2.02 11.72 6.23 17.79 10.79 2.56 1.89 7.3 4.8 7.46 8.63.21 5.17-9.54 4.95-5.17 11.48-3.62.83-16.51-2.02-15.93 4.37.59 6.23 10.02-.59 12.41-.32 7.62.96 8.2 6.23 13.05 10.23 4.79 3.84 12.41 3.3 18.11 6.39.21-4.79-7.14-7.19-9.86-11.4 5.01 2.45 10.02 4.95 14.76 7.78.64-1.17 1.65-5.01 2.08-6.45-4.63-4.42-10.02-8.42-14.54-14.38 3.46-5.06 4.79-1.54 8.84.59 6.5 3.44 3.68 5.38 8.84 3.97-.37.08 6.39-5.35 6.34-5.3 2.18-4.08 2.56-1.04-.37-4.74-2.93-3.76-31.86-11.77-17.42-14.78-1.44-.4-2.88-.77-4.37-1.15 1.23-.91.96-1.01 2.66-1.7-2.24-.91-3.09-2.64-5.86-3.2.43-.72.85-1.39 1.33-2.1-5.33-1.12-7.83-2.32-12.68-3.6.85-.56 1.76-1.15 2.61-1.7-9.59-.24-10.17-5.67-16.83-7.78-5.11-1.6-14.97 4.13-17.15 2.96-3.36-1.76.85-3.57-1.33-6.71-3.73-5.41-3.2-4.71-9.27-3.6-9.16 1.7-8.68 9.06-4.05 15.13-9.59 1.25-8.26-13.08-1.39-16.46-7.3-.29-14.12.51-17.05 8.28-3.94 10.63 3.94 5.81 7.78 11.43-2.77-.69-4.42.45-6.98.35 2.34 3.36 12.89 4.47 17.42 5.86-2.77 1.12-4.21 19.74-11.56 15.93-3.3-1.7.11-6.9 0-7.01-2.93-3.28-5.59-2-6.61-2.56-1.23-.69-6.82-2.5-9-5.78-3.04-4.47-3.84-16.83-13.11-10.36-8.74 6.07 9.38 17.02-.85 14.89 1.54 4.26 4.74 4.05 8.36.77-.11 6.5-8.63 4.29-6.07 11.75-4.26-2.9-3.25-1.7-3.04-6.07-4-1.09-.75-.19-2.82-3.22h2.45c.21-4.24-2.61-6.82-6.82-7.56-1.07 1.07-3.57 3.78-4.53 4.9 1.97.77 3.52 2.82 5.49 3.62-4.53 8.18-13.32 4.47-20.83 2.74-4.9-1.12-5.49-3.04-10.23-1.07-6.98 2.96-3.73 3.41-4.74 10.44-3.09-11.03-17.69-7.33-26.53-8.15.75-.43 1.6-2.32 4.16-3.2-4.37-3.54-19.07-7.72-24.24-8.74-6.45-1.23-12.73 5.41-15.13-2.42-1.86 6.31-3.2 2.32-6.18 2.16-.96-.05-2.02-4.29-4.26-4.56-2.98-.35-1.12 1.89-2.77 2.21-3.3.75-12.41 5.67-16.35 7.94 3.46-4.56 9.11-3.92 12.47-7.96-6.39.03-13.96 3.52-20.35 4.85-10.76 2.24-15.08-2.21-26.05-3.44-8.26-.91-15.82-2.61-24.4-3.3-9.06-.75-13.74-3.97-23.12-2.85.32-.69.64-1.39.96-2.08-5.75-1.07-13.53 2.61-18.65 4.16-7.03 2.1-7.51 6.37-12.41 9.38-6.98 4.23-11.93-.27-6.34 7.11 3.52 4.66 11.13 5.3 13.69 11.35-4 1.33-8.31 1.12-8.52-3.38-4.53 3.22-9.64 2.08-13.42 6.61 4.9 2 4.85 6.02 9.06 7.09 4.85 1.23 11.24-2.08 15.77-2.5.64 13.85-15.45 4.05-17.79 16.3-.59 3.3 7.03 17.15 11.93 9.06 2.66 2.56 3.41 5.54 2.24 9.06 4.79-.96 10.18.69 12.52-2.24 1.49 0 3.46.43 5.49.37-3.57 15.88-21.63 13.27-30.1 22.96 12.25 2.98 32.6-15.72 43.15-21.63-.96-1.39-1.86-2.77-2.82-4.16 6.45-2.13 8.84-12.84 16.3-7.99-5.27.64-8.2 3.73-6.66 8.74 3.84-2.29 8.15-4.26 12.68-4.58-.36-.78-.73-1.64-1.11-2.44zm-15.5 15.51v-3.41c-3.84 2.77-9.43 3.52-6.29 8.52 2.51-1.06 4.8-2.82 6.29-5.11z"
              fill="#fef9e7"/>
        <path d="m274.97 313.622c.06-7.37-6.33-13.88-14.13-14.11-7.79.24-14.17 6.74-14.11 14.11.02 2.23.61 4.45 1.5 6.74-.04 0-.06-.02-.1-.02 3.9 9.3 8.14 19.53 12.71 28.21 4.63-8.67 8.85-18.9 12.71-28.21l-.06.02c.89-2.28 1.48-4.51 1.48-6.74z"
              fill="#ea9a07"/>
        <path d="m271.74 313.092c0 6.01-4.87 10.88-10.9 10.88-5.99 0-10.84-4.87-10.84-10.88 0-5.99 4.85-10.86 10.84-10.86 6.03 0 10.9 4.87 10.9 10.86z"
              fill="#fef8db"/>
        <path d="m1117.65 270.132c0 .87-1.77 1.58-3.95 1.58s-3.95-.71-3.95-1.58 1.77-1.57 3.95-1.57 3.95.71 3.95 1.57z"
              fill="url(#b)"/>
        <path d="m273.38 349.222c0 1.39-5.61 2.51-12.52 2.51-6.93 0-12.53-1.12-12.53-2.51 0-1.38 5.61-2.5 12.53-2.5 6.91 0 12.52 1.12 12.52 2.5z"
              fill="url(#c)"/>
        <path d="m1127.81 234.262c.06-7.45-6.39-14.02-14.28-14.26-7.87.24-14.32 6.81-14.26 14.26.02 2.25.62 4.5 1.51 6.81-.04 0-.06-.02-.1-.02 3.94 9.4 8.23 19.74 12.85 28.51 4.68-8.77 8.94-19.1 12.85-28.51l-.06.02c.89-2.31 1.49-4.56 1.49-6.81z"
              fill="#ea9a07"/>
        <path d="m1124.54 233.722c0 6.08-4.92 11-11.02 11-6.06 0-10.96-4.92-10.96-11 0-6.06 4.9-10.98 10.96-10.98 6.1.01 11.02 4.93 11.02 10.98z"
              fill="#fef8db"/>
    </g>
    <path d="m1113.69 270.082c-444.9-204.46-851.62 78.06-851.62 78.06" fill="none" stroke="#b84d24" stroke-width="4"/>
    <path d="m1113.69 270.082c-444.9-204.46-851.62 78.06-851.62 78.06" fill="none" stroke="#b84d24"
          stroke-linecap="round" stroke-width="4"/>
</svg>