<svg xmlns:serif="http://www.serif.com/" viewBox="0 0 570 380" xmlns="http://www.w3.org/2000/svg" fill-rule="evenodd"
     clip-rule="evenodd" stroke-linejoin="round" stroke-miterlimit="1.414">
    <g serif:id="Capa 1">
        <path d="M522.62 188.82l-.207.73-17.074 58.939-.18.667-.144.486-.371.324-.477.533s-44.37 41.585-44.398 41.585l-.162.162-.162.099-.135.108-.216.144-51.303 32.201-.216.163-.163.098-.188.081s-.208.117-.181.117l-57.793 21.591-.298.135-.189.054h-.216l-.316.054-61.706 7.528-.396.098-.271.028-.27-.028-.397-.098-61.038-11.233-.108-.018s-.109-.027-.19-.054l-.108-.027-58.965-16.614-.325-.135-.18-.054-.216-.136-.297-.162-52.998-30.587-.325-.225-.216-.126-.126-.135-.298-.298-42.973-43.965-.459-.486-.316-.343-.135-.406-.19-.667-16.208-59.515-.189-.667-.135-.45.135-.452.162-.703 15.884-59.641.27-1.208.379-.315.505-.505 43.27-43.784.216-.18.136-.145.162-.108.262-.153 51.735-33.715.379-.262.27-.189.343-.081.46-.108 60.443-12.666.135-.054s.027 0 .135-.063h.081l60.841-8.032.27-.028.189-.053.18.053.325.028 61.462 4.796.271.027h.216l.235.081.27.081 58.541 18.913.324.135h.164l.134.162.235.109 53.511 30.09.342.154.244.108.189.234.262.28 42.468 44.632.514.459.297.379.099.37.163.693 16.154 59.506.162.703.162.452-.162.504zm2.362-2.38l-16.073-59.533-.487-1.694-1.235-1.281-42.513-44.658-.757-.695-.911-.568-53.502-30.09-.586-.316-.703-.243-58.569-18.949-.802-.235-.829-.081-61.49-4.822-.721-.055-.757.108-60.84 8.059h-.271l-.27.109-60.389 12.701-1.307.262-1.155.73-51.708 33.706-.613.451-.568.54-43.324 43.758-1.343 1.334-.478 1.848-15.866 59.641-.478 1.849.532 1.82 16.191 59.506.477 1.767 1.316 1.316 42.946 43.965.694.731.857.423 53.024 30.65.749.432.838.262 59.019 16.641.297.108.316.055 61.038 11.223 1.019.216 1.127-.108 61.67-7.581.838-.136.775-.315 57.793-21.573.641-.243.612-.424 51.339-32.236.559-.343.54-.432 44.281-41.603 1.452-1.38.514-1.847 17.091-58.966.505-1.902-.505-1.902z"
              fill="#604500" fill-rule="nonzero"/>
        <path d="M518.148 188.3l-17.065 58.947-44.316 41.603-51.312 32.209-57.739 21.645-61.724 7.617-61.011-11.277-58.992-16.677-52.998-30.642-43-43.91-16.19-59.515 15.811-59.695 43.379-43.784L164.7 51.124l60.416-12.729 60.876-8.059 61.516 4.796 58.515 18.993 53.529 30.055 42.495 44.569 16.101 59.551z"
              fill="#604500" fill-rule="nonzero"/>
        <path d="M294.884 61.012c-8.979-.352-13.477-.271-22.537.261.379 10.755.622 16.128 1.127 26.936 2.281 11.674 3.381 17.57 5.31 29.307-5.148.424-7.771.73-12.919 1.523.055.677.082 1.019.19 1.695 5.49-.919 8.275-1.208 13.82-1.614-1.848-11.782-2.885-17.605-5.058-29.387-.514-10.8-.667-16.137-.992-26.954 8.952-.433 13.451-.451 22.348-.055a743.799 743.799 0 0 1 2.109-13.107c-.667 0-.982 0-1.685.054-.722 4.562-1.073 6.779-1.713 11.341m56.964 38.475a887.285 887.285 0 0 1-3.3 13.206c-4.931 3.164-7.31 4.823-11.809 8.249-7.239-.668-10.88-.794-17.958-.668-5.759-2.515-8.761-3.615-14.846-5.571-.181.514-.316.748-.505 1.262 6.59 2.164 9.781 3.372 15.937 6.085 7.05-.081 10.638.1 17.85.767 4.444-3.426 6.779-5.112 11.737-8.249 1.496-5.634 2.254-8.438 3.588-14.063-.27-.46-.396-.622-.694-1.018M213.707 124.43c.477.532.721.775 1.226 1.316 8.221-4.723 12.485-6.779 21.274-10.376a21.452 21.452 0 0 0-.883-1.559c-8.952 3.678-13.261 5.796-21.617 10.619m-4.237-60.633c16.452 17.66 31.028 36.969 43.162 57.848-4.21 1.172-6.355 1.847-10.502 3.344l.802 1.56c4.399-1.587 6.617-2.308 11.098-3.57-12.279-21.464-27.09-41.369-43.92-59.452-.244.135-.397.216-.64.27m5.012 73.758c-4.183 1.695-6.274 2.597-10.394 4.607.153.64.261.919.451 1.559 4.633-2.226 6.941-3.263 11.656-5.147-1.578-5.706-2.308-8.627-3.57-14.468-.821-.857-1.172-1.262-2.029-2.11 1.362 6.32 2.173 9.375 3.886 15.559m218.065 34.752c-.216-.297-.378-.433-.54-.748-3.534 2.948-5.274 4.363-8.817 7.284-11.223-12.648-17.444-18.138-30.596-27.297-.505.451-.748.749-1.226 1.262 13.37 9.267 19.634 14.839 30.993 27.784 4.101-3.282 6.112-4.958 10.186-8.285M396.029 72.001c-.271 2.461-.406 3.696-.785 6.13-3.452 2.551-5.165 3.858-8.437 6.508-5.111.641-7.555 1.019-12.377 1.875-.126.893-.162 1.344-.271 2.173 5.093-.965 7.69-1.37 12.999-2.01 3.3-2.651 5.039-3.94 8.519-6.455.433-3.029.641-4.471.992-7.5-.27-.297-.37-.406-.64-.721m29.875 18.534c-.514-.325-.785-.478-1.29-.83-7.5 8.754-11.205 13.207-18.597 22.104-6.932 12.405-10.583 18.508-18.111 30.623-5.922-2.542-8.915-3.669-14.874-5.544-.451.613-.667.884-1.09 1.551 6.292 2.019 9.456 3.182 15.721 5.842 7.672-12.035 11.314-18.111 18.381-30.416 7.852-9.402 11.819-14.054 19.86-23.33m-16.218 56.243c2.786 0 4.156.054 7.022.126 12.73-12.531 25.486-25.079 38.205-37.691-.532-.306-.775-.513-1.254-.802-14.576 14.703-21.86 21.987-36.545 36.564-3.966-.153-5.869-.181-9.753-.1.91.721 1.415 1.127 2.325 1.903m-147.94-83.305c-11.872 1.343-17.822 2.389-29.505 5.174.108.667.162.965.297 1.686 10.34-2.515 15.542-3.488 26.017-4.823a50.076 50.076 0 0 1 3.191-2.037m-82.259 57.55c4.417 4.182 6.617 6.274 10.935 10.556.405 6.319.748 9.465 1.739 15.73-4.66 3.372-7.022 5.193-11.439 8.997-7.392 7.374-10.881 11.368-17.146 19.877.505.433.856.731 1.415 1.182 6.509-8.808 10.052-12.91 17.714-20.464 4.445-3.75 6.725-5.553 11.359-8.87-.911-6.185-1.316-9.322-1.659-15.704-4.562-4.58-6.887-6.833-11.602-11.277-.478 0-.748-.027-1.316-.027m145.109-48.382c.082-2.461.082-3.777.136-6.301 3.381-.533 5.084-.857 8.546-1.317 6.941 2.308 10.286 3.624 16.876 6.491 2.226 2.758 3.271 4.183 5.254 7.04 2.813-4.705 4.265-7.04 7.266-11.683-.514-.414-.811-.613-1.315-1.009a460.672 460.672 0 0 0-6.645 10.691c-2.037-2.794-3.083-4.21-5.309-6.968-6.725-2.786-10.124-4.102-17.092-6.464-3.452.541-5.229.803-8.655 1.479 0 2.893 0 4.399-.026 7.338.369.27.64.405.964.703M205.828 86.487c1.496-1.154 2.326-1.74 3.831-2.92-.406-.695-.667-.983-1.127-1.659-1.902 1.424-2.785 2.118-4.66 3.561 1.766 11.142 2.839 16.641 5.516 27.495.541-.298.83-.433 1.362-.776-2.38-10.159-3.318-15.307-4.922-25.701m126.485 6.996c2.461 4.228 3.588 6.4 5.652 10.718.081-.108.136-.108.243-.162-2.38-5.012-3.695-7.509-6.616-12.386-7.527-3.579-11.467-5.22-19.616-8.059.243.667.351.991.558 1.613 8.204 2.948 12.198 4.571 19.779 8.276m-163.112 23.762c-2.677-4.903-3.912-7.364-6.49-12.295-.794-.181-1.226-.235-2.083-.46 2.488 4.876 3.804 7.319 6.374 12.088-2.146 3.138-3.21 4.742-5.229 7.934 1.695-1.127 2.578-1.668 4.318-2.741 1.154-1.848 1.767-2.732 3.11-4.526m57.252-12.99c-.883-.324-1.361-.595-2.298-.892.18.279.27.405.45.703.514.189.731.27 1.236.451.27-.082.369-.181.612-.262m-86.595 34.157c-5.165-3.858-7.798-5.76-12.99-9.609 5.039-4.86 7.662-7.158 12.963-11.612 2.687-.099 3.994-.18 6.653-.207-.297-.171-.433-.27-.649-.406-3.317.027-4.949.081-8.303.289-5.327 4.534-7.96 6.833-13.017 11.791 5.806 4.21 8.7 6.329 14.469 10.592.342-.351.532-.541.874-.838m23.475 20.824c.378-.379.505-.541.856-.829-5.094-5.013-7.636-7.51-12.675-12.522 5.229-5.427 7.933-8.041 13.558-12.945 2.867.433 4.264.676 7.077 1.235l-.298-.261c-3.506-.694-5.3-.974-8.924-1.443-5.626 4.977-8.356 7.582-13.603 13.125 5.544 5.518 8.383 8.222 14.009 13.64"
              fill="#f6a800" fill-rule="nonzero"/>
        <path d="M424.4 176.918c3.994-3.372 6.059-5.039 10.052-8.483-9.7-11.421-15.036-16.587-26.341-25.62 3.804-.081 5.787-.026 9.754.055a4999.178 4999.178 0 0 0 37.51-38.16c-3.642-2.271-5.58-3.317-9.276-5.381-2.191-2.38-3.318-3.534-5.571-5.869-10.205 12.891-15.298 19.291-25.72 32.047-9.059 9.267-13.504 13.964-22.374 23.366 13.747 9.402 20.256 15.001 31.966 28.045m1.361-90.769c-6.986-4.661-10.529-6.806-17.867-10.881-6.238 12.828-9.51 19.265-16.099 31.912-7.96 10.881-11.819 16.317-19.427 27.36 6.454 1.956 9.699 3.155 16.099 5.833 7.429-12.134 10.962-18.273 17.823-30.732 7.716-9.456 11.602-14.144 19.471-23.492m-35.31-23.42c-4.553.378-6.824.613-11.278 1.181-1.469 3.155-2.226 4.741-3.722 7.933 1.127 2.226 1.685 3.317 2.758 5.544 2.245.18 3.399.315 5.707.541-4.102 1.126-6.104 1.74-10.124 3.002-.135 1.469-.19 2.217-.352 3.614 5.139-.946 7.771-1.397 13.126-2.091 3.326-2.65 5.039-3.939 8.5-6.572.37-2.965.56-4.444.884-7.419-2.172-2.353-3.245-3.48-5.499-5.733m-48.355 21.545c-7.131-6.004-11.015-8.924-19.264-14.279v-7.401c3.398-.64 5.111-.911 8.681-1.416 7.049 2.272 10.502 3.561 17.308 6.32 2.218 2.785 3.317 4.155 5.409 6.995 2.759-4.715 4.21-7.068 7.131-11.737-6.996-5.067-10.691-7.554-18.3-12.17-10.367-.577-15.542-.613-25.746-.207-5.418 6.211-7.987 9.348-12.702 15.811 2.65 6.13 3.886 9.16 6.13 15.326 8.447 2.884 12.54 4.525 20.338 8.14 2.974 4.904 4.308 7.374 6.778 12.377-3.083 2.704-4.525 4.048-7.446 6.887-4.688-1.388-7.049-1.983-11.845-3.083-4.579-2.164-7.022-3.155-11.872-4.985-2.029 4.607-2.94 6.887-4.715 11.584 6.778 2.001 10.106 3.236 16.425 5.859 7.184-.054 10.853 0 18.191.667 4.534-3.452 6.861-5.111 11.819-8.329 1.397-5.598 2.09-8.438 3.38-14.117-3.57-4.985-5.526-7.419-9.7-12.242m-115.397-28.64c.91 4.787 1.361 7.203 2.299 12.026 12.386-3.11 18.624-4.264 31.217-5.787-2.785 1.775-4.182 2.731-6.914 4.525 3.138 8.978 4.607 13.477 7.447 22.537 1 11.493 1.559 17.172 2.974 28.639 5.626-.91 8.438-1.289 14.154-1.767-2.065-11.737-3.192-17.597-5.58-29.306a1791.28 1791.28 0 0 1-1.362-26.937c9.105-.558 13.694-.639 22.772-.378.748-5.273 1.153-7.843 1.956-13.071-13.207.595-19.779 1.289-32.688 3.515-14.604 1.362-21.887 2.543-36.275 6.004m-19.129 56.234c-2.659-10.881-3.858-16.371-5.679-27.495 1.875-1.497 2.812-2.19 4.687-3.588 6.112 8.204 8.997 12.414 14.622 20.842 1.478.541 2.173.775 3.624 1.316-7.131 3.192-10.556 5.067-17.254 8.925M191.893 68.76c-2.623.613-3.966.991-6.617 1.713 2.651 16.451 4.472 24.484 9.078 40.295 1.749 12.729 3.029 18.949 6.437 31.137 4.796-2.38 7.149-3.489 11.971-5.463-1.739-6.139-2.542-9.249-3.966-15.577 1.1 1.099 1.613 1.667 2.659 2.713 8.618-5.066 13.153-7.293 22.42-11.142 2.497 4.552 3.75 6.824 6.166 11.403 4.498-1.685 6.779-2.406 11.359-3.75-12.748-21.319-28.027-41.035-45.282-58.857-5.814 2.786-8.627 4.336-14.225 7.528m-18.11 78.635c-5.256 4.426-7.798 6.644-12.702 11.521-5.706-5.364-8.546-8.096-14.144-13.531 5.31-5.653 8.005-8.303 13.747-13.423 3.642.504 5.463.757 8.997 1.397 1.956 1.731 2.975 2.623 4.904 4.417-.487 3.886-.613 5.815-.802 9.619m-38.745-30.776c3.353-.225 5.012-.334 8.365-.433 1.848 1.226 2.759 1.848 4.634 3.029.054 3.931.153 5.832.424 9.664-4.841 3.894-7.257 5.895-11.945 10.268-5.842-4.237-8.735-6.329-14.604-10.485 5.093-5.003 7.717-7.473 13.126-12.043m30.893 3.263a237.487 237.487 0 0 0-6.427 4.156c1.983-3.272 3.083-4.877 5.273-8.078-2.704-4.813-3.994-7.274-6.563-12.178-5.03-1.028-7.662-1.425-12.891-2.173-7.202 1.452-10.79 2.326-18.137 4.391-5.328 5.201-7.96 7.905-12.909 13.503-5.733 5.977-8.519 9.087-13.829 15.587 12.783 7.184 19.076 10.881 31.615 18.354 11.232 9.655 16.911 14.369 28.54 23.582 6.563-9.132 10.205-13.396 18.03-21.248 4.498-3.93 6.806-5.778 11.575-9.267-.965-6.193-1.344-9.348-1.767-15.811-4.634-4.499-7.023-6.662-11.791-11.089-4.237-.026-6.374 0-10.719.271M194.151 236.393c-.992.83-1.523 1.235-2.515 2.064.775 16.534 1.659 24.854 4.498 41.639 11.007-13.35 16.073-20.309 25.475-34.679 7.51 2.415 11.26 3.435 18.869 5.093-4.372 14.442-6.671 21.626-11.576 35.933-1.289 12.756-1.929 19.048-2.974 31.831-7.419-1.398-11.097-2.281-18.408-4.237 3.38-12.062 5.039-18.066 8.392-30.136 2.651-6.004 3.985-9.06 6.59-15.145a335.788 335.788 0 0 1-37.645 40.278c-2.894-19.246-4.417-38.692-4.417-58.253-7.185 18.858-10.701 28.369-17.552 47.372-6.437-3.056-9.619-4.67-15.974-8.095 5.282-10.638 7.933-15.92 13.189-26.575 5.868-14.794 8.915-22.105 15.108-36.736 7.419 4.255 11.223 6.185 18.94 9.646M262.783 301.301c8.952.117 13.396-.027 22.293-.694a104.708 104.708 0 0 0-3.164-2.516c-1.794-9.997-2.65-15.027-4.129-25.078-2.109.559-3.136.856-5.228 1.315-3.633 10.872-5.598 16.335-9.772 26.973m9.159-45.407c4.958-.406 7.419-.722 12.386-1.389 6.905 23.781 15.803 46.985 26.521 69.332-6.86.83-10.295 1.154-17.2 1.587-1.072-5.156-1.577-7.698-2.604-12.864-12.829 1.037-19.283 1.235-32.201.748-.352-1.469-.514-2.227-.884-3.669-2.921 5.977-4.534 8.97-7.743 14.865-7.338-1.415-10.926-2.226-18.138-4.101 8.329-10.611 12.269-16.1 19.427-27.27 6.851-15.352 9.934-23.068 15.406-38.771 2.01.612 3.02.918 5.03 1.532M312.074 254.784c6.382 9.942 9.916 14.865 17.47 24.304a316.428 316.428 0 0 1-.54 6.94c6.328-14.919 8.87-22.563 12.999-37.726 5.246-1.207 7.905-1.875 13.052-3.38-3.65 18.353-6.247 27.63-12.918 45.866 2.84 10.908 4.202 16.299 7.123 27.143-8.249 1.993-12.423 2.741-20.842 3.994-1.335-9.7-2.038-14.577-3.381-24.294 1.749.505 2.659.694 4.372 1.172-14.36-15.65-20.761-23.998-31.614-41.279 5.733-.973 8.599-1.451 14.279-2.74M387.325 281.889c8.113-4.209 12.025-6.481 19.742-11.439-1.551-.271-2.326-.378-3.858-.704-5.896-8.086-8.754-12.151-14.307-20.409-1.685 1.532-2.461 2.227-4.21 3.697 1.37 11.493 1.885 17.281 2.633 28.855m-10.936-45.118c4.319-2.759 6.411-4.183 10.584-7.238 16.236 17.902 34.058 34.408 53.214 49.12-5.841 4.156-8.816 6.157-14.875 9.907a645.514 645.514 0 0 1-7.788-10.24c-11.151 7.212-16.885 10.403-28.694 16.19-.946-1.154-1.397-1.767-2.334-2.893-.163 6.805-.298 10.204-.694 17.073-7.185 2.218-10.747 3.21-18.012 4.976 3.029-13.504 4.21-20.283 5.976-33.733-.341-16.992-.829-25.395-2.514-42.089 2.064-.379 3.11-.613 5.137-1.073"
              fill="#e4e1df" fill-rule="nonzero"/>
        <path d="M262.18 315.255c.135.577.244.937.424 1.605 12.467.207 18.705.053 31.055-1.046-.107-.676-.216-.964-.369-1.604-12.305 1.125-18.597 1.306-31.11 1.044m24.43-57.478a457.498 457.498 0 0 0 26.72 67.495c-6.248.856-9.439 1.154-15.732 1.659.109.612.19.891.352 1.505 6.933-.541 10.395-.893 17.255-1.875-11.07-22.159-20.338-45.254-27.702-68.864-.325.027-.514.055-.893.08m-45.011-3.802c-4.173 13.909-6.319 20.823-10.925 34.588-1.262 12.73-1.794 19.13-2.732 31.832-6.724-1.2-10.078-1.974-16.722-3.561-.189.558-.27.856-.46 1.414 7.474 1.849 11.206 2.688 18.652 3.993.937-12.781 1.415-19.155 2.542-31.91 4.742-14.306 6.968-21.536 11.205-36.005-.649-.189-.91-.216-1.56-.351m10.827 72.505c-6.427-1.127-9.564-1.794-15.856-3.354-.379.487-.569.721-.911 1.208 7.311 1.793 10.98 2.569 18.372 3.805 2.849-5.248 4.237-7.925 6.833-13.343-.325-1.279-.451-1.93-.748-3.272-2.975 6.058-4.553 9.033-7.69 14.956m138.763-95.593a9.606 9.606 0 0 0-.729.505c16.108 17.281 33.732 33.137 52.591 47.391-5.328 3.839-8.059 5.688-13.549 9.221.396.424.613.694.937 1.145 6.076-3.875 9.051-5.887 14.866-10.168a416.553 416.553 0 0 1-54.116-48.094m1.47 63.734c.379.541.595.749 1.019 1.236 11.358-5.707 16.876-8.898 27.576-15.92-.379-.514-.569-.802-.974-1.289-10.683 7.086-16.263 10.322-27.621 15.974m-33.57-47.769c-.83.234-1.236.396-2.092.64-3.561 17.822-6.049 26.765-12.404 44.479 2.92 10.817 4.344 16.289 7.32 27.116-7.618 1.82-11.441 2.596-19.13 3.857.1.641.153.875.181 1.515 8.491-1.442 12.674-2.289 21.031-4.363a4166.04 4166.04 0 0 1-7.527-27.053c6.589-18.408 9.05-27.675 12.621-46.191m29.495 62.535c-6.211 1.974-9.321 2.974-15.595 4.553-.126.586-.189.91-.315 1.504 7.283-1.856 10.898-2.957 18.083-5.282.324-6.138.406-9.195.532-15.271-.848-1.019-1.253-1.532-2.109-2.551-.082 6.779-.217 10.214-.596 17.047m21.194-38.475c-.775-.117-1.208-.162-1.93-.324.028.081.028.107.109.207.649.09.965.171 1.613.279.072-.053.127-.081.208-.162m-133.86 6.78c1.668-.433 2.444-.614 4.102-1.101-.162-.721-.207-1.045-.315-1.848-2.092.614-3.165.884-5.256 1.443-3.534 10.881-5.436 16.271-9.619 27.035.857 0 1.289.027 2.146 0 3.858-10.124 5.652-15.271 8.942-25.529m113.225-23.232c1.317-1.208 1.965-1.794 3.245-3.002-.369-.595-.585-.91-1.037-1.523-1.64 1.55-2.469 2.299-4.129 3.831 1.416 11.404 1.958 17.227 2.759 28.829.748-.405 1.127-.612 1.903-1.045-.803-10.908-1.371-16.38-2.741-27.09m-101.857 47.832c-.676-.514-.992-.757-1.614-1.234 0 .081.028.152.054.234.515.405.785.595 1.289 1.019.136 0 .163-.019.271-.019m-105.643-49.04c-7.077 18.922-10.475 28.397-17.2 47.481-5.815-2.651-8.735-4.057-14.469-7.077-.216.532-.351.802-.649 1.343 6.41 3.345 9.646 4.985 16.245 7.843 6.292-18.264 9.474-27.296 16.1-45.488 0-1.631-.027-2.461-.027-4.102m42.414 17.66c-11.124 14.252-23.393 27.567-36.654 39.89.216 1.073.289 1.64.451 2.786 14.495-13.478 21.166-20.662 33.255-35.662 1.199-2.813 1.74-4.201 2.948-7.014"
              fill="#e4e1df" fill-rule="nonzero"/>
        <path d="M194.151 236.393c-.992.83-1.523 1.235-2.515 2.064.775 16.534 1.659 24.854 4.498 41.639 11.007-13.35 16.073-20.309 25.475-34.679 7.51 2.415 11.26 3.435 18.869 5.093-4.372 14.442-6.671 21.626-11.576 35.933-1.289 12.756-1.929 19.048-2.974 31.831-7.419-1.398-11.097-2.281-18.408-4.237 3.38-12.062 5.039-18.066 8.392-30.136 2.651-6.004 3.985-9.06 6.59-15.145a335.788 335.788 0 0 1-37.645 40.278c-2.894-19.246-4.417-38.692-4.417-58.253-7.185 18.858-10.701 28.369-17.552 47.372-6.437-3.056-9.619-4.67-15.974-8.095 5.282-10.638 7.933-15.92 13.189-26.575 5.868-14.794 8.915-22.105 15.108-36.736 7.419 4.255 11.223 6.185 18.94 9.646M262.783 301.301c8.952.117 13.396-.027 22.293-.694a104.708 104.708 0 0 0-3.164-2.516c-1.794-9.997-2.65-15.027-4.129-25.078-2.109.559-3.136.856-5.228 1.315-3.633 10.872-5.598 16.335-9.772 26.973m9.159-45.407c4.958-.406 7.419-.722 12.386-1.389 6.905 23.781 15.803 46.985 26.521 69.332-6.86.83-10.295 1.154-17.2 1.587-1.072-5.156-1.577-7.698-2.604-12.864-12.829 1.037-19.283 1.235-32.201.748-.352-1.469-.514-2.227-.884-3.669-2.921 5.977-4.534 8.97-7.743 14.865-7.338-1.415-10.926-2.226-18.138-4.101 8.329-10.611 12.269-16.1 19.427-27.27 6.851-15.352 9.934-23.068 15.406-38.771 2.01.612 3.02.918 5.03 1.532M312.074 254.784c6.382 9.942 9.916 14.865 17.47 24.304a316.428 316.428 0 0 1-.54 6.94c6.328-14.919 8.87-22.563 12.999-37.726 5.246-1.207 7.905-1.875 13.052-3.38-3.65 18.353-6.247 27.63-12.918 45.866 2.84 10.908 4.202 16.299 7.123 27.143-8.249 1.993-12.423 2.741-20.842 3.994-1.335-9.7-2.038-14.577-3.381-24.294 1.749.505 2.659.694 4.372 1.172-14.36-15.65-20.761-23.998-31.614-41.279 5.733-.973 8.599-1.451 14.279-2.74M387.325 281.889c8.113-4.209 12.025-6.481 19.742-11.439-1.551-.271-2.326-.378-3.858-.704-5.896-8.086-8.754-12.151-14.307-20.409-1.685 1.532-2.461 2.227-4.21 3.697 1.37 11.493 1.885 17.281 2.633 28.855m-10.936-45.118c4.319-2.759 6.411-4.183 10.584-7.238 16.236 17.902 34.058 34.408 53.214 49.12-5.841 4.156-8.816 6.157-14.875 9.907a645.514 645.514 0 0 1-7.788-10.24c-11.151 7.212-16.885 10.403-28.694 16.19-.946-1.154-1.397-1.767-2.334-2.893-.163 6.805-.298 10.204-.694 17.073-7.185 2.218-10.747 3.21-18.012 4.976 3.029-13.504 4.21-20.283 5.976-33.733-.341-16.992-.829-25.395-2.514-42.089 2.064-.379 3.11-.613 5.137-1.073"
              fill="#e4e1df" fill-rule="nonzero"/>
        <path fill="#f28d00"
              d="M133.24 206.251h12.215v12.215H133.24zM121.025 194.054h12.215v12.196h-12.215zM121.025 218.465h12.215v12.197h-12.215zM108.837 181.821h12.197v12.233h-12.197zM108.837 230.663h12.197v12.215h-12.197zM96.595 194.054h12.242v12.196H96.595zM96.595 218.465h12.242v12.197H96.595zM84.425 206.251h12.17v12.215h-12.17z"/>
        <path d="M385.938 204.367c-17.416-4.363-30.623-5.706-48.598-4.904-17.01.992-33.328 2.894-50.077 5.571-16.749 4.075-33.12 7.401-50.293 9.89-17.921-1.768-35.067-8.168-49.373-18.274 17.867 4.986 31.344 6.59 49.941 6.104 17.065-2.191 33.409-5.274 50.158-9.051 16.74-3.183 33.03-5.571 50.067-7.077 18.941 3.489 31.805 8.339 48.175 17.741"
              fill="#f28d00" fill-rule="nonzero"/>
        <path fill="#f28d00"
              d="M108.909 206.197h12.17v12.215h-12.17zM478.945 206.251h12.196v12.215h-12.196zM466.703 194.054h12.242v12.196h-12.242zM466.703 218.465h12.242v12.197h-12.242zM454.542 181.821h12.17v12.233h-12.17zM454.542 230.663h12.17v12.215h-12.17zM442.318 194.054h12.215v12.196h-12.215zM442.318 218.465h12.215v12.197h-12.215zM430.13 206.251h12.188v12.215H430.13z"/>
        <path fill="#f28d00" d="M454.569 206.197h12.242v12.215h-12.242z"/>
    </g>
</svg>