<?xml version="1.0" encoding="UTF-8" standalone="no"?><!DOCTYPE svg PUBLIC "-//W3C//DTD SVG 1.1//EN"
        "http://www.w3.org/Graphics/SVG/1.1/DTD/svg11.dtd">
<svg width="100%" height="100%" viewBox="0 0 661 747" version="1.1" xmlns="http://www.w3.org/2000/svg"
     xml:space="preserve"
     style="fill-rule:evenodd;clip-rule:evenodd;stroke-miterlimit:10;"><ellipse cx="325.566" cy="439.381" rx="205.35" ry="38.925" style="fill:none;stroke:#40290a;stroke-width:2.44px;"/>
    <path d="M525.516,440.506c0,16.8 -90.225,32.7 -199.725,32.7c-67.35,0 -128.775,-7.575 -164.625,-15.375c-22.425,-4.875 -35.625,-10.875 -35.625,-17.325c0,-16.8 88.8,-30.525 198.3,-30.525c109.5,0 201.675,13.725 201.675,30.525Z"
          style="fill:#40290a;fill-rule:nonzero;stroke:#40290a;stroke-width:0.75px;"/>
    <path d="M562.641,587.131c-14.925,-4.35 -31.425,-8.25 -49.275,-11.625"
          style="fill:none;stroke:#40290a;stroke-width:1.95px;"/>
    <path d="M140.991,576.781c-79.5,16.05 -131.175,42 -131.175,71.325c0,48.825 143.55,88.425 320.625,88.425c177.075,0 320.625,-39.675 320.625,-88.5c0,-18.45 -20.55,-35.625 -55.725,-49.8"
          style="fill:none;stroke:#40290a;stroke-width:1.95px;"/>
    <path d="M119.841,439.306c-3.375,41.775 0.825,83.7 14.25,123.45c11.775,35.025 29.925,68.175 54.3,96c6.675,7.575 13.8,14.7 21.525,21.15c7.125,5.85 14.85,11.925 23.475,15.225c1.125,0.45 1.65,-1.275 0.825,-1.875c-7.05,-5.025 -14.475,-9.375 -21.15,-14.925c-6.675,-5.475 -12.975,-11.55 -18.825,-17.925c-12.45,-13.5 -23.175,-28.575 -32.4,-44.4c-19.2,-32.85 -31.725,-69.675 -37.35,-107.25c-3.45,-23.025 -4.35,-46.275 -3.45,-69.525c0,-0.75 -1.125,-0.675 -1.2,0.075Z"
          style="fill:#40290a;fill-rule:nonzero;"/>
    <path d="M530.541,439.306c1.575,40.95 -1.275,82.05 -13.8,121.275c-11.025,34.575 -29.025,67.575 -52.875,95.025c-6.375,7.35 -13.2,14.325 -20.55,20.625c-7.5,6.45 -15.75,11.4 -23.775,17.1c-0.9,0.6 -0.375,2.325 0.825,1.875c7.65,-2.925 14.475,-8.025 20.85,-13.125c6.9,-5.475 13.35,-11.55 19.425,-18c12.6,-13.425 23.55,-28.5 33,-44.325c19.95,-33.45 32.7,-70.575 37.425,-109.275c2.925,-23.625 2.625,-47.55 0.75,-71.25c-0.15,-0.675 -1.275,-0.75 -1.275,0.075Z"
          style="fill:#40290a;fill-rule:nonzero;"/>
    <path d="M535.641,461.731c23.7,-7.8 51.825,-8.7 74.7,2.55c21.9,10.8 29.925,36.075 30.225,59.025c0.225,22.8 -8.325,44.475 -25.725,59.475c-9.15,7.875 -19.725,14.025 -30.075,20.025c-9.825,5.7 -19.875,11.175 -30.15,15.975c-11.325,5.25 -23.025,9.525 -35.175,12.375c-12.975,3.075 -26.175,3.975 -39.45,4.8c-1.875,0.15 -1.8,2.7 0,2.85c23.925,2.475 48.45,-3.975 70.35,-13.35c11.325,-4.8 22.2,-10.575 32.85,-16.65c10.95,-6.3 22.05,-12.6 31.95,-20.55c18.825,-15.075 29.025,-36.9 29.775,-60.975c0.675,-22.05 -6.075,-47.925 -25.2,-60.975c-11.625,-7.95 -26.625,-11.25 -40.5,-12.225c-15,-1.05 -29.7,0.9 -43.725,6.225c-0.975,0.45 -0.675,1.725 0.15,1.425Z"
          style="fill:#40290a;fill-rule:nonzero;"/>
    <path d="M531.591,499.531c6.75,-4.2 13.275,-8.325 20.85,-10.875c7.65,-2.55 15.75,-3.675 23.85,-3.225c8.025,0.45 16.8,2.325 23.325,7.35c5.775,4.425 9.6,10.95 11.55,17.775c9.15,32.25 -22.65,61.575 -48.825,73.875c-16.125,7.575 -34.875,13.125 -50.775,2.325c-1.575,-1.125 -3.45,1.35 -2.025,2.625c13.2,12.75 32.4,8.175 47.625,2.175c17.1,-6.675 32.775,-17.475 44.4,-31.725c10.65,-13.05 17.925,-29.625 14.475,-46.725c-3.3,-16.275 -15.375,-27 -31.575,-29.7c-17.85,-2.85 -40.65,1.8 -52.875,16.125c-0.075,0 0,0 0,0Z"
          style="fill:#40290a;fill-rule:nonzero;"/>
    <path d="M271.341,705.031c6.45,2.25 13.65,2.925 20.4,3.75c6.675,0.825 13.5,1.275 20.25,1.575c13.65,0.6 27.3,0.225 40.875,-0.9c13.125,-1.05 26.325,-2.625 39.15,-5.475c12.375,-2.7 25.8,-6.15 36.75,-12.75c1.05,-0.675 0.375,-2.55 -0.9,-2.1c-6,2.1 -11.775,4.8 -17.85,6.825c-6.15,2.1 -12.45,3.825 -18.75,5.25c-13.05,2.925 -26.475,4.5 -39.825,5.775c-13.125,1.2 -26.325,1.725 -39.45,1.35c-6.75,-0.225 -13.5,-0.675 -20.25,-1.275c-6.75,-0.675 -13.575,-2.025 -20.325,-2.175c-0.225,-0.075 -0.225,0.15 -0.075,0.15Z"
          style="fill:#40290a;fill-rule:nonzero;"/>
    <path d="M212.616,680.506c9.375,9.675 22.8,16.05 35.325,20.625c12.9,4.65 27.675,8.4 41.475,7.275c1.275,-0.075 1.275,-1.8 0,-1.95c-13.725,-1.725 -27,-3.075 -40.2,-7.575c-13.2,-4.575 -24.45,-11.775 -36.6,-18.375c0,-0.075 -0.075,-0.075 0,0Z"
          style="fill:#40290a;fill-rule:nonzero;"/>
    <path d="M289.641,708.256c7.65,1.35 15.375,1.95 23.1,1.2c0.825,-0.075 0.9,-1.425 0,-1.35c-7.725,0.15 -15.375,0.375 -23.1,-0.075c-0.075,0 -0.075,0.225 0,0.225Z"
          style="fill:#40290a;fill-rule:nonzero;"/>
    <path d="M277.341,706.981c5.025,2.175 11.4,2.325 16.8,2.775c6.525,0.525 13.2,0.9 19.725,0.45c0.825,-0.075 0.825,-1.2 0,-1.275c-6.075,-0.45 -12.225,-0.45 -18.3,-0.9c-5.85,-0.45 -12.3,-1.95 -18.15,-1.275c-0.15,0 -0.225,0.225 -0.075,0.225Z"
          style="fill:#40290a;fill-rule:nonzero;"/>
    <path d="M61.116,682.981c-0.975,-0.375 -1.95,-0.75 -2.925,-1.2c0,0 -0.075,0 0,0.075l2.925,1.125c0.075,0 0.075,0 0,0Z"
          style="fill:#40290a;fill-rule:nonzero;"/>
    <path d="M33.891,666.106c27.45,22.425 62.925,33.6 96.975,41.7c35.775,8.55 72.45,12.675 109.05,15.225c21.375,1.425 42.825,2.325 64.2,3.075c0.375,0 0.375,-0.6 0,-0.6c-73.125,-3.9 -147.9,-7.125 -217.35,-32.4c-18.6,-6.75 -36.975,-15.075 -52.8,-27.15c-0.075,0 -0.15,0.15 -0.075,0.15Z"
          style="fill:#40290a;fill-rule:nonzero;"/>
    <path d="M550.266,607.081c20.55,-5.175 39.375,-15.3 54.675,-30c0.45,-0.45 -0.225,-1.125 -0.675,-0.675c-15.45,14.1 -33.975,24.675 -54.075,30.375c-0.3,0 -0.225,0.375 0.075,0.3Z"
          style="fill:#40290a;fill-rule:nonzero;"/>
    <path d="M569.991,594.031c17.925,-8.7 33.15,-21.525 44.625,-37.8c0.225,-0.3 -0.225,-0.525 -0.45,-0.225c-11.85,15.6 -27.225,28.425 -44.7,37.2c-0.525,0.3 0,1.125 0.525,0.825Z"
          style="fill:#40290a;fill-rule:nonzero;"/>
    <path d="M628.416,513.781c5.7,19.95 -2.325,42.525 -19.5,54.15c-0.75,0.525 -0.075,1.65 0.675,1.2c18.375,-11.175 26.85,-35.25 19.05,-55.425c0,-0.15 -0.225,-0.075 -0.225,0.075Z"
          style="fill:#40290a;fill-rule:nonzero;"/>
    <path d="M538.716,475.756c2.85,-3.975 9.3,-5.4 13.8,-6.525c4.725,-1.275 9.525,-1.95 14.4,-2.1c9.75,-0.375 18.825,1.8 28.05,4.8c0.525,0.15 0.825,-0.6 0.375,-0.825c-9.75,-4.875 -21.525,-6.15 -32.25,-5.025c-5.4,0.525 -10.65,1.725 -15.75,3.525c-3.075,1.125 -8.25,2.325 -8.85,6.15c-0.075,0.075 0.15,0.15 0.225,0Z"
          style="fill:#40290a;fill-rule:nonzero;"/>
    <path d="M551.541,479.806c8.7,-1.65 16.8,-3.9 25.8,-3.525c8.775,0.375 17.25,2.475 25.35,5.775c0.6,0.225 0.975,-0.75 0.45,-0.975c-8.025,-3.9 -16.8,-6.075 -25.8,-6.3c-8.4,-0.225 -18.45,0.6 -25.95,4.8c-0.075,0.075 0,0.225 0.15,0.225Z"
          style="fill:#40290a;fill-rule:nonzero;"/>
    <path d="M544.866,465.556c5.4,-0.525 10.575,-2.175 15.975,-2.475c5.85,-0.375 11.7,0.225 17.4,1.35c0.75,0.15 1.125,-0.975 0.3,-1.2c-5.85,-1.35 -11.775,-1.95 -17.775,-1.575c-5.25,0.3 -11.4,1.05 -16.05,3.75c0.075,0 0.075,0.15 0.15,0.15Z"
          style="fill:#40290a;fill-rule:nonzero;"/>
    <path d="M563.991,471.706c9.525,-0.075 18.6,0.075 27.975,1.95c0.675,0.15 0.975,-0.825 0.3,-1.05c-9.15,-2.025 -19.05,-2.85 -28.275,-0.9Z"
          style="fill:#40290a;fill-rule:nonzero;"/>
    <path d="M631.341,551.356c-6.3,18.075 -23.325,29.775 -38.4,40.2c-0.675,0.45 -0.075,1.65 0.675,1.125c16.125,-10.575 32.175,-21.975 37.725,-41.325Z"
          style="fill:#40290a;fill-rule:nonzero;"/>
    <path d="M533.916,492.781c2.1,-0.675 3.825,-1.95 5.7,-3c2.775,-1.5 5.625,-2.775 8.475,-3.9c4.95,-1.95 10.125,-3.15 15.375,-4.05c0.75,-0.15 0.6,-1.5 -0.225,-1.425c-5.55,0.6 -11.025,2.025 -16.2,4.05c-4.425,1.725 -10.425,4.05 -13.425,7.8c-0.15,0.3 0,0.6 0.3,0.525Z"
          style="fill:#40290a;fill-rule:nonzero;"/>
    <path d="M533.091,483.481c4.125,-1.35 7.875,-3.6 12,-5.025c4.125,-1.425 8.4,-2.55 12.75,-3.225c0.75,-0.15 0.6,-1.425 -0.15,-1.35c-8.25,0.975 -18.525,3.375 -24.75,9.375c-0.15,0.075 0,0.225 0.15,0.225Z"
          style="fill:#40290a;fill-rule:nonzero;"/>
    <path d="M534.891,471.406c2.4,-0.45 4.575,-1.65 6.825,-2.475c2.325,-0.825 4.725,-1.425 7.125,-1.875c0.675,-0.15 0.375,-1.2 -0.3,-1.05c-4.5,0.675 -10.5,1.875 -13.725,5.325c0,0.075 0,0.075 0.075,0.075Z"
          style="fill:#40290a;fill-rule:nonzero;"/>
    <path d="M534.516,465.481c8.625,-2.85 16.875,-5.475 25.95,-6c0.6,0 0.6,-0.975 0,-0.975c-8.925,0.45 -18.3,2.1 -26.1,6.675c-0.15,0.15 -0.075,0.375 0.15,0.3Z"
          style="fill:#40290a;fill-rule:nonzero;"/>
    <path d="M500.241,618.556c1.5,2.55 4.05,3.075 6.9,3.3c5.025,0.375 10.125,0.15 15.075,-0.3c9.675,-0.9 19.125,-3.375 28.125,-7.125c1.05,-0.45 0.6,-2.175 -0.45,-1.8c-7.725,3 -15.6,5.175 -23.775,6.45c-4.2,0.675 -8.475,0.975 -12.75,1.125c-4.05,0.075 -9.45,0.675 -12.825,-1.95c-0.225,-0.075 -0.375,0.15 -0.3,0.3Z"
          style="fill:#40290a;fill-rule:nonzero;"/>
    <path d="M501.366,609.481c2.4,3.075 7.5,1.875 10.875,1.575c5.7,-0.525 11.25,-1.575 16.725,-3.075c0.525,-0.15 0.3,-0.975 -0.225,-0.825c-4.125,1.05 -8.25,1.95 -12.45,2.625c-3.6,0.525 -11.925,2.775 -14.85,-0.3c0,-0.15 -0.075,-0.075 -0.075,0Z"
          style="fill:#40290a;fill-rule:nonzero;"/>
    <path d="M491.616,631.006c8.7,0 17.175,-1.125 25.575,-3.45c0.45,-0.15 0.225,-0.75 -0.15,-0.675c-8.325,2.175 -16.8,3.45 -25.35,3.6c-0.375,0.075 -0.375,0.525 -0.075,0.525Z"
          style="fill:#40290a;fill-rule:nonzero;"/>
    <path d="M128.391,460.756c-2.85,27.9 1.425,57 9,83.85c7.65,27.225 19.65,53.325 35.475,76.725c8.925,13.125 18.9,25.725 30.375,36.675c0.9,0.825 2.1,-0.45 1.35,-1.35c-18.75,-20.775 -35.025,-43.2 -47.4,-68.475c-12.3,-25.2 -20.85,-52.275 -24.975,-79.95c-2.325,-15.825 -3.075,-31.575 -3.45,-47.55c0,-0.15 -0.375,-0.15 -0.375,0.075Z"
          style="fill:#40290a;fill-rule:nonzero;"/>
    <path d="M138.366,498.931c-1.725,19.35 4.575,39.975 11.775,57.675c7.65,18.825 17.7,36.45 28.35,53.7c0.525,0.825 1.8,0.075 1.35,-0.75c-9.45,-17.475 -19.575,-34.725 -27.3,-53.025c-3.75,-8.925 -6.975,-18.15 -9.375,-27.6c-2.55,-9.9 -3.45,-19.875 -4.5,-30c0,-0.15 -0.225,-0.15 -0.3,0Z"
          style="fill:#40290a;fill-rule:nonzero;"/>
    <path d="M136.341,463.906c-2.55,8.4 -0.975,18.75 0.675,27.3c0.225,1.05 1.725,0.6 1.575,-0.45c-0.675,-4.575 -1.125,-9.225 -1.275,-13.95c-0.15,-4.275 0.45,-8.55 0.15,-12.75c-0.15,-0.6 -0.975,-0.75 -1.125,-0.15Z"
          style="fill:#40290a;fill-rule:nonzero;"/>
    <path d="M153.066,508.531c-0.375,7.05 1.875,14.7 3.675,21.45c1.875,7.425 4.275,14.7 7.125,21.825c5.4,13.5 12.675,26.7 21.975,37.875c0.675,0.825 2.1,-0.225 1.5,-1.2c-8.1,-12.075 -15.525,-24.3 -21.3,-37.65c-2.925,-6.75 -5.4,-13.65 -7.5,-20.7c-2.025,-7.05 -2.85,-14.7 -5.25,-21.675c-0.075,-0.075 -0.225,-0.075 -0.225,0.075Z"
          style="fill:#40290a;fill-rule:nonzero;"/>
    <path d="M188.916,615.931c-0.075,-0.6 -0.15,-1.2 -0.225,-1.8c0.075,-1.05 -1.725,-0.975 -1.5,0.225c1.275,5.625 4.05,11.1 6.675,16.275c2.7,5.325 5.7,10.5 9.075,15.45c6.75,9.825 14.7,18.675 24,26.175c1.125,0.9 2.7,-0.6 1.575,-1.575c-8.7,-7.95 -16.8,-16.725 -23.55,-26.475c-3.3,-4.725 -6.375,-9.675 -9.075,-14.775c-2.7,-5.1 -4.65,-10.575 -7.35,-15.6c-0.375,0.3 -0.75,0.6 -1.2,0.9c0.375,0.525 0.675,0.975 1.05,1.5c0.15,0.15 0.6,0 0.525,-0.3Z"
          style="fill:#40290a;fill-rule:nonzero;"/>
    <path d="M163.716,562.231c4.5,14.775 10.65,29.025 19.2,41.85c0.525,0.75 1.725,0.075 1.2,-0.75c-8.175,-13.05 -15.225,-26.625 -20.175,-41.25c0,-0.075 -0.3,-0.075 -0.225,0.15Z"
          style="fill:#40290a;fill-rule:nonzero;"/>
    <path d="M198.516,614.281c7.65,25.35 24.525,48.75 44.325,66c0.9,0.75 2.175,-0.45 1.35,-1.35c-9.675,-9.3 -18.45,-19.5 -26.1,-30.6c-7.425,-10.875 -13.2,-22.575 -18.75,-34.425c-0.225,-0.45 -0.975,-0.15 -0.825,0.375Z"
          style="fill:#40290a;fill-rule:nonzero;"/>
    <path d="M525.966,461.731c-2.25,14.4 -3.825,28.875 -6.75,43.2c-2.925,14.325 -6.675,28.5 -11.25,42.375c-9.225,28.125 -21.3,55.2 -36.375,80.7c-8.4,14.175 -17.775,27.9 -27.75,41.025c-0.6,0.825 0.75,1.95 1.425,1.125c37.2,-45.825 62.55,-101.4 74.4,-159.15c3.3,-16.125 6.225,-32.775 6.45,-49.275c0.075,-0.075 -0.075,-0.15 -0.15,0Z"
          style="fill:#40290a;fill-rule:nonzero;"/>
    <path d="M513.441,481.006c-8.025,54.825 -28.275,106.5 -57.225,153.6c-0.45,0.75 0.675,1.35 1.125,0.675c31.5,-45.375 50.25,-99.45 56.25,-154.2c0.075,-0.15 -0.15,-0.225 -0.15,-0.075Z"
          style="fill:#40290a;fill-rule:nonzero;"/>
    <path d="M457.491,639.031c-14.55,20.625 -32.325,38.7 -52.5,53.85c-0.6,0.45 -0.075,1.5 0.6,1.05c20.925,-14.475 38.625,-33.225 52.125,-54.75c0.15,-0.15 -0.075,-0.3 -0.225,-0.15Z"
          style="fill:#40290a;fill-rule:nonzero;"/>
    <path d="M498.816,500.881c-6.15,27.675 -16.2,54.6 -29.4,79.65c-0.525,1.05 0.975,1.95 1.575,0.9c13.8,-25.2 23.025,-52.2 28.125,-80.475c0,-0.15 -0.3,-0.225 -0.3,-0.075Z"
          style="fill:#40290a;fill-rule:nonzero;"/>
    <path d="M518.991,464.956c-0.75,5.55 -0.225,11.175 -0.75,16.8c-0.6,6.375 -1.875,12.675 -3.6,18.9c-0.375,1.275 1.575,1.8 1.95,0.525c1.725,-5.925 3,-11.925 3.6,-18c0.525,-5.85 1.125,-12.45 -0.675,-18.15c-0.075,-0.3 -0.525,-0.375 -0.525,-0.075Z"
          style="fill:#40290a;fill-rule:nonzero;"/>
    <path d="M507.516,470.656c-2.775,16.35 -5.025,32.775 -8.55,49.05c-3.525,16.2 -7.95,32.325 -12.975,48.075c-0.225,0.825 0.975,1.125 1.2,0.375c5.775,-15.9 10.35,-32.1 13.875,-48.6c3.45,-16.05 6.3,-32.4 6.9,-48.825c0.15,-0.3 -0.375,-0.45 -0.45,-0.075Z"
          style="fill:#40290a;fill-rule:nonzero;"/>
    <path d="M512.991,552.331c-8.175,26.55 -20.55,51.075 -35.1,74.7c-0.3,0.45 0.45,0.825 0.675,0.45c15.75,-22.725 26.85,-48.75 34.425,-75.15Z"
          style="fill:#40290a;fill-rule:nonzero;"/>
    <path d="M496.641,476.281c-7.725,45.3 -22.05,89.025 -43.8,129.525c-6.15,11.4 -12.825,22.5 -19.95,33.3c-0.375,0.6 0.525,1.05 0.9,0.525c26.325,-37.875 45.525,-80.85 56.475,-125.625c3.075,-12.45 5.4,-24.975 7.05,-37.65c0,-0.375 -0.6,-0.45 -0.675,-0.075Z"
          style="fill:#40290a;fill-rule:nonzero;"/>
    <path d="M209.091,660.631c-0.45,3.525 2.175,6.825 4.35,9.375c3.15,3.75 6.825,6.975 10.575,10.125c7.5,6.15 15.6,11.325 24.525,15.15c0.6,0.225 1.125,-0.525 0.525,-0.9c-8.025,-4.2 -15.75,-9 -22.8,-14.625c-3.225,-2.55 -6.3,-5.325 -9.225,-8.175c-1.65,-1.65 -3.3,-3.375 -4.575,-5.325c-1.2,-1.8 -1.875,-3.825 -3.15,-5.625c0,-0.15 -0.225,-0.075 -0.225,0Z"
          style="fill:#40290a;fill-rule:nonzero;"/>
    <path d="M491.091,642.706c-4.65,3.375 -8.775,7.725 -13.05,11.55c-4.8,4.35 -9.6,8.7 -14.475,13.05c-9.525,8.475 -19.275,16.65 -28.575,25.35c-0.45,0.45 0.225,1.05 0.675,0.675c9.825,-7.725 19.125,-16.2 28.425,-24.525c4.65,-4.2 9.3,-8.325 13.95,-12.6c4.575,-4.125 9.6,-8.25 13.575,-12.975c0.3,-0.225 -0.075,-0.825 -0.525,-0.525Z"
          style="fill:#40290a;fill-rule:nonzero;"/>
    <path d="M511.191,641.656c-11.625,8.175 -22.725,16.95 -34.125,25.275c-5.55,4.05 -11.025,8.1 -16.575,12.15c-5.55,4.05 -11.4,7.8 -16.575,12.3c-0.375,0.3 0.075,0.825 0.45,0.6c6.3,-3.6 12.15,-8.325 18.075,-12.6c5.55,-4.05 11.1,-8.1 16.575,-12.225c10.95,-8.25 22.05,-16.425 32.475,-25.35c0,0 -0.15,-0.3 -0.3,-0.15Z"
          style="fill:#40290a;fill-rule:nonzero;"/>
    <path d="M534.141,636.331c-13.8,7.5 -26.775,17.025 -39.675,25.95c-12.675,8.7 -25.35,17.55 -37.35,27.15c-0.6,0.45 0.15,1.5 0.825,1.05c12.75,-8.85 25.2,-18.3 37.95,-27.225c12.75,-8.925 26.175,-17.025 38.55,-26.4c0.3,-0.225 0,-0.75 -0.3,-0.525Z"
          style="fill:#40290a;fill-rule:nonzero;"/>
    <path d="M551.541,631.531c-13.575,10.575 -26.925,21.3 -40.425,31.95c-13.5,10.575 -27.375,20.7 -40.65,31.5c-0.525,0.45 0.15,1.35 0.75,0.975c13.95,-9.6 27.225,-20.325 40.5,-30.9c13.65,-10.8 27.15,-21.75 40.2,-33.15c0.15,-0.225 -0.15,-0.525 -0.375,-0.375Z"
          style="fill:#40290a;fill-rule:nonzero;"/>
    <path d="M573.066,625.306c-13.8,9.975 -27.225,20.25 -40.8,30.6c-13.125,10.05 -26.775,19.725 -39.225,30.675c-0.45,0.375 0.15,1.125 0.675,0.825c13.725,-9.15 26.55,-19.95 39.675,-30.075c13.425,-10.425 26.85,-20.85 39.975,-31.575c0.3,-0.15 0,-0.6 -0.3,-0.45Z"
          style="fill:#40290a;fill-rule:nonzero;"/>
    <path d="M576.591,631.831c-15.3,13.575 -31.275,25.95 -48.15,37.5c-0.75,0.525 -0.075,1.65 0.675,1.2c17.4,-10.65 33.6,-23.7 47.775,-38.325c0.3,-0.225 0,-0.6 -0.3,-0.375Z"
          style="fill:#40290a;fill-rule:nonzero;"/>
    <path d="M589.116,631.981c-10.2,8.85 -20.7,17.325 -31.125,26.025c-0.375,0.3 0.15,1.05 0.525,0.75c10.875,-8.1 21.075,-17.1 30.975,-26.25c0.45,-0.375 0,-0.75 -0.375,-0.525Z"
          style="fill:#40290a;fill-rule:nonzero;"/>
    <path d="M599.766,631.306c-9.975,7.575 -19.8,15.225 -29.7,22.875c-0.825,0.675 0.375,1.875 1.2,1.2c9.75,-7.725 19.425,-15.45 29.1,-23.325c0.45,-0.375 -0.15,-1.125 -0.6,-0.75Z"
          style="fill:#40290a;fill-rule:nonzero;"/>
    <path d="M609.816,633.031c-9.225,6.525 -18.375,13.275 -27.45,19.95c-1.125,0.825 0,2.7 1.05,1.875c9.075,-6.9 18.15,-13.875 27.075,-20.925c0.45,-0.375 -0.15,-1.2 -0.675,-0.9Z"
          style="fill:#40290a;fill-rule:nonzero;"/>
    <path d="M621.591,634.756c-9.9,5.85 -20.85,11.925 -29.1,19.95c-0.525,0.525 0.15,1.425 0.825,1.05c5.025,-2.925 9.6,-6.75 14.325,-10.05c4.8,-3.375 9.675,-6.6 14.625,-9.75c0.75,-0.45 0.075,-1.65 -0.675,-1.2Z"
          style="fill:#40290a;fill-rule:nonzero;"/>
    <path d="M628.641,636.256c-7.5,5.925 -16.2,11.4 -22.8,18.375c-0.675,0.675 0.15,1.875 1.05,1.35c8.325,-4.8 15.45,-12.525 22.35,-19.125c0.525,-0.375 -0.15,-0.975 -0.6,-0.6Z"
          style="fill:#40290a;fill-rule:nonzero;"/>
    <path d="M639.816,638.956c-7.5,5.4 -15.075,10.8 -22.425,16.35c-0.6,0.45 0,1.5 0.6,1.05c7.575,-5.4 14.925,-10.95 22.275,-16.575c0.525,-0.375 0.075,-1.2 -0.45,-0.825Z"
          style="fill:#40290a;fill-rule:nonzero;"/>
    <path d="M276.816,439.906c-4.125,-4.575 -8.325,-8.775 -11.7,-13.95c-3.3,-4.95 -6,-10.275 -8.1,-15.9c-4.5,-11.925 -6.525,-24.525 -8.55,-37.05c-2.175,-13.5 -4.725,-27.15 -10.125,-39.75c-5.625,-13.05 -15.15,-23.775 -21.525,-36.375c-7.125,-14.1 -11.775,-29.775 -14.25,-45.375c-0.3,-1.95 -3.525,-1.5 -3.375,0.45c0.825,14.1 3.975,27.525 9.525,40.575c2.85,6.675 6.15,13.125 9.9,19.275c3.9,6.375 8.325,12.525 11.775,19.2c13.05,25.125 10.95,54.975 21.6,80.925c4.65,11.4 12,24.45 23.925,29.4c0.975,0.525 1.5,-0.825 0.9,-1.425Z"
          style="fill:#778a17;fill-rule:nonzero;"/>
    <path d="M255.216,406.756c-7.2,-19.725 15.075,-33.3 28.275,-42.9c7.35,-5.4 14.775,-10.8 22.575,-15.525c8.25,-4.95 16.725,-8.25 26.025,-10.35c1.05,-0.225 0.825,-1.95 -0.225,-1.875c-9.6,0.825 -18.75,5.4 -26.85,10.425c-9.45,5.775 -18.225,12.6 -27.075,19.2c-12.3,9.15 -31.8,23.325 -22.725,41.025c-0.075,0.075 0,0.075 0,0Z"
          style="fill:#778a17;fill-rule:nonzero;"/>
    <path d="M258.741,383.806c-1.125,-3.525 -3.9,-5.325 -6.3,-7.95c-1.125,-1.2 -2.55,-3.225 -2.325,-4.95c0.525,-0.825 0.975,-1.65 1.5,-2.475c0.15,0.15 0.225,0.3 0.375,0.45c0.525,0 0.975,0.75 1.8,0.6c0.975,-0.15 1.125,-0.825 1.725,-1.35c2.1,-1.8 -5.025,-2.925 4.425,-2.85c0.825,0 1.65,0.45 2.475,0.525c2.25,0.375 4.125,0 5.925,-1.425c2.325,-1.8 3.75,-4.425 5.925,-6.3c3.45,-3.15 7.35,-0.6 11.175,-2.325c3.45,-1.5 5.475,-4.65 9.3,-5.625c3.6,-0.9 7.275,-0.525 10.35,-2.775c1.05,-0.825 0.15,-2.475 -1.05,-1.8c-3.825,2.025 -8.25,1.425 -12.15,3.15c-1.65,0.75 -2.925,1.875 -4.275,3.075c-2.55,2.1 -4.2,2.7 -7.575,2.55c-3.15,-0.075 -5.325,0.825 -7.5,3.15c-2.7,2.925 -4.65,7.425 -9.3,7.2c-2.475,-0.15 -5.625,-1.8 -7.65,0.45c-0.975,1.125 -0.3,1.425 -1.875,1.725c-2.025,0.375 -0.45,-0.225 -1.65,-0.3c-0.975,-0.075 -0.825,-0.525 -1.95,0.225c-2.175,1.575 -1.725,4.95 -0.825,6.975c1.95,4.425 6.75,6.225 9.3,10.125c0,0.15 0.225,0.075 0.15,-0.075Z"
          style="fill:#778a17;fill-rule:nonzero;"/>
    <path d="M279.441,355.531c2.775,-4.2 7.2,-6.075 10.2,-9.9c1.5,-1.875 2.85,-3.9 4.275,-5.85c2.625,-3.525 4.275,-7.35 9.375,-7.2c2.625,0.075 4.275,0.525 6.3,2.25c1.2,0.975 2.025,1.725 3.525,2.325c4.35,1.65 9.9,2.85 14.325,1.05c1.125,-0.45 1.125,-2.325 -0.3,-2.25c-3.9,0.225 -7.425,0.225 -11.25,-0.675c-1.95,-0.45 -3.375,-0.975 -4.875,-2.475c-0.525,-0.6 -0.75,-1.275 -1.425,-1.725c-1.8,-1.275 -4.275,-0.525 -6.375,-0.825c-1.95,-0.3 -3.45,-0.375 -5.175,0.825c-1.8,1.275 -3.075,3.525 -4.275,5.25c-1.875,2.7 -3.75,5.475 -5.775,8.1c-3.225,4.2 -8.175,5.175 -8.775,11.025c0.075,0.075 0.225,0.075 0.225,0.075Z"
          style="fill:#778a17;fill-rule:nonzero;"/>
    <path d="M240.591,350.956c-1.125,-19.875 15.675,-33 23.25,-49.65c1.575,-3.375 2.625,-6.9 3.375,-10.575c0.825,-3.975 1.425,-8.175 3.525,-11.7c2.025,-3.45 5.85,-4.95 8.1,-8.1c0.75,-1.05 1.275,-2.175 1.575,-3.45c0.225,-0.825 0.075,-2.325 0.525,-3.075c1.05,-0.825 2.1,-1.65 3.15,-2.475c1.8,0.75 2.925,1.95 3.45,3.6c0.375,0.975 1.95,1.2 2.175,0c0.675,-3.375 -2.175,-6.525 -5.625,-6.6c-4.125,-0.075 -5.7,3.225 -6.45,6.675c-1.2,5.325 -6.675,6.9 -9.525,11.25c-2.625,3.975 -3.45,8.85 -4.425,13.425c-2.475,11.55 -9.225,20.4 -15.525,30.15c-5.85,9.075 -10.875,19.65 -8.1,30.6c0.15,0.225 0.525,0.15 0.525,-0.075Z"
          style="fill:#778a17;fill-rule:nonzero;"/>
    <path d="M265.341,296.806c1.875,-2.475 2.85,-5.55 4.65,-8.1c2.25,-3.225 5.1,-5.925 8.475,-7.95c2.55,-1.575 5.4,-2.925 7.275,-5.4c0.75,-0.975 1.35,-2.1 1.65,-3.3c0.375,-1.5 -0.75,-6 0.975,-6.675c1.275,-0.525 0.825,-2.25 -0.525,-2.025c-3.3,0.45 -3.225,3.3 -3.225,6c-0.075,5.775 -6.225,7.65 -10.125,10.65c-4.65,3.6 -10.275,10.5 -9.45,16.8c0,0.15 0.225,0.15 0.3,0Z"
          style="fill:#778a17;fill-rule:nonzero;"/>
    <path d="M239.691,353.731c2.55,-4.275 5.7,-7.8 9.45,-11.025c0.75,-0.6 -0.225,-1.725 -0.975,-1.275c-4.65,2.475 -7.8,7.05 -8.775,12.15c-0.075,0.225 0.225,0.375 0.3,0.15Z"
          style="fill:#778a17;fill-rule:nonzero;"/>
    <path d="M247.941,345.706c1.95,-4.65 2.7,-9.225 6.15,-13.2c2.775,-3.225 6.675,-5.025 9.75,-7.95c3.075,-2.925 4.35,-8.025 8.1,-10.05c3.9,-2.1 8.775,-0.9 12.825,-2.325c1.575,-0.525 2.55,-1.575 3.9,-2.325c2.775,-1.575 4.425,0.075 6.9,1.05c1.275,0.45 2.4,0.75 3.675,0.6c1.875,-0.15 3.225,-1.35 5.25,-0.3c0.975,0.525 1.875,1.725 2.7,2.475c7.05,6.75 13.35,13.575 19.35,21.3c1.2,1.575 3.525,-0.45 2.625,-2.025c-2.7,-5.175 -6.75,-9.225 -10.875,-13.275c-3.6,-3.6 -7.275,-7.5 -11.25,-10.575c-1.65,-1.275 -3.225,-1.875 -5.325,-1.5c-1.65,0.3 -2.475,0.975 -4.275,0.675c-1.2,-0.225 -2.325,-1.05 -3.45,-1.575c-1.35,-0.6 -2.7,-1.05 -4.2,-0.825c-2.55,0.375 -4.05,2.775 -6.45,3.6c-4.275,1.425 -9,0.3 -13.05,2.55c-4.5,2.475 -5.7,8.1 -9.45,11.325c-3.6,3.15 -7.5,5.475 -10.2,9.6c-2.325,3.45 -4.425,8.625 -3.375,12.825c0.15,0.225 0.6,0.15 0.675,-0.075Z"
          style="fill:#778a17;fill-rule:nonzero;"/>
    <path d="M245.466,346.306c0.225,2.4 1.5,4.95 3.75,6.15c3.225,1.8 6.225,-0.075 9.3,-1.125c4.725,-1.65 8.925,1.2 13.575,0.45c1.35,-0.225 2.325,-0.9 3.6,-1.275c3.225,-1.05 5.55,0.45 8.7,0.15c0.975,-0.075 1.05,-1.65 0,-1.575c-3.15,0.225 -5.7,-1.575 -8.85,-0.45c-2.325,0.825 -4.05,1.575 -6.6,1.125c-1.8,-0.3 -3.45,-0.975 -5.25,-1.2c-2.925,-0.45 -5.25,0.3 -7.95,1.35c-2.25,0.825 -4.575,1.5 -6.6,-0.225c-1.2,-1.05 -1.875,-2.475 -3,-3.6c-0.225,-0.225 -0.675,-0.15 -0.675,0.225Z"
          style="fill:#778a17;fill-rule:nonzero;"/>
    <path d="M184.716,412.531c4.65,1.875 8.85,-1.275 12.675,-3.75c4.95,-3.225 10.125,-6.225 15.525,-8.625c5.7,-2.55 11.7,-4.5 17.85,-5.55c6.45,-1.125 12.525,-0.6 18.975,-0.6c1.65,0 2.1,-2.55 0.375,-2.925c-10.65,-2.4 -23.325,1.35 -33.15,5.325c-5.175,2.1 -10.2,4.575 -14.925,7.5c-5.25,3.15 -10.875,8.925 -17.325,8.55c-0.075,-0.075 -0.075,0.075 0,0.075Z"
          style="fill:#778a17;fill-rule:nonzero;"/>
    <path d="M186.891,413.806c-2.925,-2.85 3,-7.125 5.025,-8.85c2.1,-1.8 4.275,-3.675 5.55,-6.15c1.5,-2.85 1.125,-6 1.35,-9.15c0.225,-2.925 1.05,-5.25 4.2,-6.15c1.875,-0.525 3.9,-0.525 5.775,-1.275c3.225,-1.35 3.675,-4.425 6.075,-6.6c2.775,-2.55 7.05,-1.05 10.35,-2.25c3.225,-1.2 2.85,-4.5 5.475,-6.225c4.575,-3 9.675,2.025 13.425,4.05c1.5,0.825 2.7,-1.275 1.35,-2.25c-5.475,-3.825 -14.4,-8.4 -18.6,-0.525c-1.5,2.85 -2.925,3.15 -5.925,3.375c-1.65,0.15 -3.3,0.075 -4.875,0.6c-4.275,1.425 -4.725,6.675 -8.925,8.025c-3.45,1.125 -7.275,0.6 -9.45,4.125c-1.95,3.225 -0.825,7.2 -1.575,10.725c-1.5,7.275 -10.8,9.675 -11.55,17.325c0,0.15 0.075,0.3 0.225,0.375l1.8,1.125c0.3,0.15 0.45,-0.15 0.3,-0.3Z"
          style="fill:#778a17;fill-rule:nonzero;"/>
    <path d="M124.341,407.206c0.675,-2.475 1.275,-5.175 2.55,-7.35c2.025,-3.45 5.325,-3.825 8.925,-3.525c4.35,0.375 8.1,0.9 11.475,-2.4c1.8,-1.8 3,-4.35 5.25,-5.625c3.075,-1.725 6.45,-0.15 9.675,-0.3c4.8,-0.225 6.825,-3.75 10.05,-6.75c4.275,-3.975 10.8,-2.775 15.6,-6c4.125,-2.775 6.9,-6.9 10.575,-10.2c4.35,-3.9 9.675,-6.675 15.375,-8.1c6.075,-1.5 11.175,-0.3 17.25,-0.3c1.5,0 2.4,-2.4 0.825,-3.075c-4.875,-2.175 -11.025,-1.5 -16.125,-0.525c-5.775,1.125 -11.4,3.45 -16.125,6.9c-4.425,3.225 -7.5,7.575 -11.475,11.25c-2.85,2.625 -5.775,3.6 -9.45,4.425c-2.55,0.6 -4.95,1.2 -7.05,2.925c-2.1,1.65 -3.375,4.125 -5.4,5.775c-3.375,2.775 -7.2,0.825 -11.025,1.275c-5.1,0.525 -6.375,4.875 -9.9,7.8c-4.95,4.05 -11.775,-0.9 -17.025,2.625c-3.675,2.475 -4.275,7.2 -4.275,11.25c-0.075,0.15 0.225,0.15 0.3,-0.075Z"
          style="fill:#778a17;fill-rule:nonzero;"/>
    <path d="M128.616,395.206c1.5,-6 0.45,-11.7 0.525,-17.775c0.075,-7.275 4.05,-11.85 9.3,-16.425c5.4,-4.725 11.4,-8.625 17.325,-12.675c3,-2.025 5.4,-3.975 9.15,-3.825c2.925,0.15 5.7,1.05 8.625,0.6c5.775,-0.9 9.225,-6.825 15.6,-5.475c2.85,0.6 5.4,2.025 8.1,2.85c2.85,0.9 6.225,0.6 8.85,2.025c2.55,1.425 4.275,4.05 6.45,5.925c1.8,1.575 3.825,2.85 6.075,3.9c4.575,2.1 9.6,2.55 14.325,0.9c0.9,-0.3 0.75,-1.575 -0.225,-1.575c-6.675,-0.225 -13.425,-1.8 -18.525,-6.45c-1.95,-1.8 -3.6,-3.975 -5.85,-5.475c-2.475,-1.575 -5.025,-1.575 -7.8,-2.025c-5.7,-0.975 -11.1,-4.65 -17.1,-2.7c-2.475,0.825 -4.425,2.55 -6.6,3.825c-3.375,1.95 -6.3,1.575 -10.05,1.125c-6.6,-0.75 -10.575,2.7 -15.75,6.3c-5.7,3.975 -11.475,7.95 -16.5,12.75c-4.05,3.9 -7.275,8.175 -7.8,14.025c-0.6,6.825 2.175,13.425 1.8,20.25c-0.075,0 0.075,0 0.075,-0.075Z"
          style="fill:#778a17;fill-rule:nonzero;"/>
    <path d="M228.966,346.006c-14.4,-7.275 -30.15,-11.25 -45.525,-15.75c-8.025,-2.325 -15.975,-5.025 -23.475,-8.7c-6.225,-3.075 -12.675,-8.025 -20.025,-6.9c-0.45,0.075 -0.3,0.75 0.075,0.75c8.25,-0.075 15.3,6 22.575,9.225c6.75,3 13.875,5.325 20.925,7.5c15.15,4.5 30.675,7.65 45.15,14.325c0.375,0.075 0.6,-0.375 0.3,-0.45Z"
          style="fill:#778a17;fill-rule:nonzero;"/>
    <path d="M158.541,316.456c-0.375,1.2 -0.3,0.675 -0.225,1.875c0.075,0.6 0.975,0.6 0.9,0c-0.3,-4.275 -0.225,-7.5 1.875,-11.325c1.35,-2.55 3.15,-4.8 4.725,-7.2c3.075,-4.65 4.05,-9.45 5.925,-14.7c1.35,-3.675 3.375,-5.7 6.675,-7.725c1.95,-1.2 3.675,-2.475 5.1,-4.425c2.7,-3.6 5.025,-8.55 6.675,-12.675c0.3,-0.75 -0.75,-1.575 -1.425,-1.125c-4.575,3.3 -4.725,10.05 -8.775,13.95c-2.1,2.025 -5.025,3.075 -7.05,5.25c-1.8,1.875 -2.85,4.275 -3.6,6.675c-0.975,3.15 -1.5,6.45 -2.925,9.45c-1.35,3 -3.375,5.625 -5.1,8.4c-2.7,4.2 -5.925,10.875 -2.925,15.675c0.225,-0.15 0.525,-0.3 0.75,-0.45c-0.15,-0.6 -0.375,-1.125 -0.6,-1.65c0.075,-0.075 0,-0.075 0,0Z"
          style="fill:#778a17;fill-rule:nonzero;"/>
    <path d="M131.166,306.931c-0.075,-4.2 0.9,-8.625 4.275,-11.4c1.875,-1.575 4.95,-2.55 5.25,-5.4c0.225,-2.025 -0.825,-3.9 -0.525,-6c0.375,-2.25 1.725,-4.35 2.85,-6.3c1.8,-3.225 3.75,-6.45 6.375,-9.225c3.075,-3.225 6.75,-5.1 11.25,-5.25c3.9,-0.15 7.725,0.6 11.625,-0.075c7.8,-1.275 15.45,-9.45 23.4,-4.5c1.35,0.825 3,-1.2 1.725,-2.25c-7.2,-6.3 -15.75,0.525 -22.95,2.925c-5.1,1.725 -10.35,0.375 -15.6,1.05c-4.2,0.525 -7.8,2.475 -10.725,5.475c-2.925,2.925 -5.1,6.525 -7.125,10.125c-1.875,3.375 -4.05,7.05 -3.375,11.025c0.6,3.675 -0.9,4.35 -3.375,6.375c-1.425,1.2 -2.55,2.625 -3.375,4.275c-1.425,3 -1.65,6.225 -0.075,9.225c0.15,0.15 0.375,0.075 0.375,-0.075Z"
          style="fill:#778a17;fill-rule:nonzero;"/>
    <path d="M75.591,323.731c-0.45,2.4 1.8,3.75 3.9,4.2c1.875,0.45 3.825,-0.075 5.7,-0.075c2.4,-0.075 4.35,0.6 6.45,1.8c5.85,3.525 10.425,8.4 17.25,3.975c2.4,-1.575 4.425,-3.075 7.425,-3.3c2.25,-0.225 4.575,0.075 6.825,-0.225c3.75,-0.45 6.525,-2.325 9.45,-4.575c4.35,-3.375 7.725,-4.725 13.2,-3.15c3.675,1.05 7.5,2.7 11.1,0.9c1.275,-0.6 0.6,-2.7 -0.75,-2.625c-4.2,0 -7.65,-1.275 -11.775,-2.1c-2.925,-0.6 -5.775,-0.525 -8.475,0.9c-2.925,1.575 -5.1,4.125 -7.8,6.075c-4.125,3 -8.55,1.875 -13.2,2.7c-3.75,0.675 -6,3.6 -9.45,4.8c-3.825,1.35 -7.05,-1.2 -10.05,-3.3c-2.325,-1.575 -4.725,-3.3 -7.575,-3.75c-4.65,-0.75 -8.175,1.725 -11.85,-2.325c-0.075,-0.15 -0.3,-0.075 -0.375,0.075Z"
          style="fill:#778a17;fill-rule:nonzero;"/>
    <path d="M85.791,325.156c5.025,-0.15 8.1,-6.9 10.875,-10.2c3,-3.6 5.775,-3.75 10.275,-3.75c3.225,0 5.625,-0.9 8.25,-2.85c2.55,-1.875 5.1,-5.025 8.4,-5.475c4.125,-0.6 7.35,3.675 11.1,4.8c4.2,1.275 8.175,2.1 11.925,4.425c3.9,2.4 7.125,5.7 9.975,9.225c0.9,1.125 2.7,-0.3 1.95,-1.5c-4.425,-6.825 -11.7,-11.55 -19.5,-13.725c-2.625,-0.75 -5.025,-1.2 -7.35,-2.775c-1.65,-1.05 -3.225,-2.325 -5.175,-2.85c-2.925,-0.825 -5.625,0.225 -8.025,1.95c-3,2.1 -5.475,5.4 -9.225,6.225c-4.125,0.9 -7.725,-0.675 -11.4,2.025c-2.325,1.65 -3.825,4.125 -5.325,6.45c-1.95,3.15 -4.05,5.325 -6.9,7.65c-0.225,0.075 -0.075,0.375 0.15,0.375Z"
          style="fill:#778a17;fill-rule:nonzero;"/>
    <path d="M232.941,355.306c1.275,0.45 2.325,1.05 3.3,1.875c0.825,0.675 1.575,1.575 2.4,2.25c0.375,0.3 0.9,-0.075 0.675,-0.525c-1.125,-2.25 -4.05,-3.375 -6.3,-3.825c-0.15,-0.075 -0.225,0.15 -0.075,0.225Z"
          style="fill:#778a17;fill-rule:nonzero;"/>
    <path d="M221.166,353.431c3.45,1.35 7.425,1.35 10.95,2.475c3.75,1.125 6.675,3.15 9.975,5.1c0.675,0.375 1.275,-0.375 0.975,-0.975c-1.575,-3.525 -5.55,-5.1 -9,-6.225c-3.975,-1.275 -8.925,-2.55 -12.975,-0.9c-0.15,0.15 -0.225,0.45 0.075,0.525Z"
          style="fill:#778a17;fill-rule:nonzero;"/>
    <path d="M207.291,338.731c6.525,2.475 13.125,4.875 19.425,7.875c6.075,2.85 10.65,7.125 16.05,10.95c0.6,0.45 1.35,-0.375 0.975,-0.975c-3.225,-5.7 -10.125,-9.375 -15.9,-12c-6.6,-3 -13.5,-4.65 -20.55,-6.15c-0.15,0 -0.225,0.3 0,0.3Z"
          style="fill:#778a17;fill-rule:nonzero;"/>
    <path d="M180.516,244.906c-0.3,-2.25 0.825,-2.85 3.45,-1.875c2.1,-1.05 3.225,-0.825 3.45,0.75c0.3,0.45 0.375,0.975 0.675,1.425c0.525,0.75 1.2,1.275 2.175,1.35c1.875,0.15 2.7,-1.575 3.45,-3.075c3,-6.225 6.6,-0.525 10.125,1.575c1.2,0.675 2.475,1.125 3.9,0.975c1.95,-0.15 3.675,-1.8 5.625,-1.8c3.225,0.075 5.7,3.675 8.7,4.725c3.6,1.2 5.85,-0.9 9.15,-1.725c4.875,-1.125 9.375,3.375 14.025,4.275c3.225,0.675 6.075,0.075 8.55,-2.025c0.45,-0.375 0.75,-1.275 0.525,-1.875c-1.125,-2.775 -1.575,-5.625 -0.975,-8.625c0.6,-2.85 2.25,-4.575 3.6,-6.975c1.725,-3 1.425,-5.85 0.15,-8.925c-0.825,-1.875 -2.1,-3.675 -2.625,-5.7c-0.675,-2.475 0.75,-3.975 0.825,-6.3c0.15,-3.225 -2.55,-5.85 -5.325,-6.975c-8.175,-3.3 -15.675,3.9 -21.6,8.55c-7.875,6.3 -15.225,12.825 -20.1,21.75c-0.75,1.35 1.275,2.55 2.1,1.2c4.875,-7.425 11.475,-13.65 18.225,-19.275c3.3,-2.775 6.6,-5.775 10.35,-8.025c3.3,-2.025 10.575,-4.05 12.675,0.9c0.825,1.95 -0.45,3.675 -0.675,5.7c-0.075,1.275 0.15,2.475 0.525,3.675c1.05,3.15 4.2,6.6 3.3,10.125c-0.525,1.875 -2.325,3.375 -3.3,5.025c-0.825,1.425 -1.5,3.075 -1.875,4.725c-0.825,3.675 -0.225,7.125 1.2,10.575c0.075,-0.75 0.225,-1.575 0.3,-2.325c-4.275,3.75 -10.65,-1.65 -14.925,-2.925c-1.95,-0.525 -3.975,-0.75 -5.925,-0.225c-2.325,0.6 -4.35,2.7 -6.9,2.175c-3.375,-0.675 -5.55,-4.125 -9.15,-4.5c-1.725,-0.225 -2.85,0.525 -4.425,0.975c-2.25,0.6 -4.125,0.825 -6.075,-0.75c-0.825,-0.675 -1.575,-1.425 -2.475,-2.1c-2.175,-1.575 -5.325,-2.625 -7.575,-0.675c-0.825,0.675 -1.275,1.65 -1.725,2.625c-0.225,0.525 -0.675,2.325 -1.05,2.475c-0.9,0.3 -1.875,-2.1 -2.325,-2.55c-1.575,-1.875 -3.75,-3.3 -6.3,-2.1c-2.325,1.05 -2.925,3.6 -2.025,5.775c0.15,0.15 0.3,0.075 0.3,0Z"
          style="fill:#778a17;fill-rule:nonzero;"/>
    <path d="M188.916,239.881c3.525,-1.95 7.275,-2.775 11.25,-2.775c3.75,0 6.75,1.35 10.275,2.325c0.675,0.225 1.425,-0.825 0.75,-1.35c-6.45,-5.1 -16.425,-3.075 -22.5,1.5c-0.15,0.15 0,0.45 0.225,0.3Z"
          style="fill:#778a17;fill-rule:nonzero;"/>
    <path d="M202.116,265.306c-1.35,-9 -7.05,-17.775 -15.45,-21.75c-0.975,-0.45 -1.725,0.825 -0.825,1.425c7.5,5.25 13.05,11.625 16.05,20.4c0.075,0.15 0.3,0.075 0.225,-0.075Z"
          style="fill:#778a17;fill-rule:nonzero;"/>
    <path d="M190.866,244.531c2.7,1.35 5.25,2.025 7.425,4.275c2.25,2.325 3.6,5.325 5.475,8.025c0.525,0.675 1.875,0.3 1.5,-0.6c-1.875,-4.875 -7.8,-14.325 -14.325,-12.075c-0.15,0 -0.225,0.3 -0.075,0.375Z"
          style="fill:#778a17;fill-rule:nonzero;"/>
    <path d="M204.891,257.731c0.6,-2.625 0.6,-5.25 1.425,-7.875c0.9,-2.85 2.55,-5.25 4.2,-7.725c0.75,-1.2 -0.9,-2.175 -1.8,-1.425c-4.425,3.45 -7.35,11.85 -4.275,17.025c0.15,0.225 0.45,0.15 0.45,0Z"
          style="fill:#778a17;fill-rule:nonzero;"/>
    <path d="M184.491,243.406c-7.2,-0.825 -12.975,-3.075 -17.85,-8.7c-3.6,-4.05 -5.925,-9.675 -11.925,-10.725c-0.3,-0.075 -0.525,0.3 -0.225,0.525c3.45,2.625 6,5.025 8.55,8.55c1.725,2.475 3.75,4.725 6.15,6.675c4.125,3.3 10.125,5.925 15.375,3.9c0.15,0 0.075,-0.225 -0.075,-0.225Z"
          style="fill:#778a17;fill-rule:nonzero;"/>
    <path d="M156.366,223.381c2.925,0.675 6,0.675 8.925,1.35c3.075,0.75 6,2.1 8.625,3.825c5.475,3.6 9.15,9 14.1,13.125c0.45,0.375 1.2,-0.075 0.9,-0.675c-3.3,-5.55 -8.55,-10.65 -13.95,-14.1c-5.775,-3.75 -11.7,-4.875 -18.45,-4.125c-0.375,0.15 -0.45,0.525 -0.15,0.6Z"
          style="fill:#778a17;fill-rule:nonzero;"/>
    <path d="M191.316,240.781c2.475,-8.925 -4.65,-20.55 -12.6,-24.375c-0.675,-0.3 -1.425,0.525 -0.825,1.05c3.45,3.15 6.75,6.15 8.925,10.35c2.25,4.2 2.925,8.475 4.275,12.975c0.075,0.15 0.225,0.15 0.225,0Z"
          style="fill:#778a17;fill-rule:nonzero;"/>
    <path d="M127.041,176.806c-1.5,1.35 -0.375,2.625 0.675,3.975c2.775,3.375 3.75,6.6 4.5,10.875c1.275,6.825 3.225,12.225 9.225,16.275c2.7,1.8 5.775,3.075 8.775,4.35c4.05,1.725 7.95,3.675 12,5.55c6,2.85 13.8,5.025 19.35,0.15c1.125,-0.975 -0.3,-2.775 -1.575,-2.025c-7.05,4.425 -13.95,0.975 -20.625,-2.325c-5.325,-2.625 -11.175,-4.35 -16.275,-7.5c-5.925,-3.75 -7.5,-9.075 -8.775,-15.6c-0.45,-2.4 -0.975,-4.875 -2.1,-7.05c-1.05,-2.1 -4.8,-4.5 -5.025,-6.6c0,-0.075 -0.075,-0.15 -0.15,-0.075Z"
          style="fill:#778a17;fill-rule:nonzero;"/>
    <path d="M185.166,218.881c-0.375,-1.575 -1.05,-3 -1.275,-4.65c-0.225,-1.725 -0.225,-3.525 -0.375,-5.25c-0.3,-2.85 -0.9,-5.475 -2.4,-7.95c-1.575,-2.55 -3.825,-4.65 -5.775,-6.9c-2.4,-2.925 -3.45,-6.525 -5.775,-9.45c-4.125,-5.175 -12.15,-6.225 -18.15,-7.275c-7.8,-1.425 -16.2,-2.7 -24.075,-1.275c-1.5,0.3 -0.975,2.325 0.3,2.4c8.175,0.825 16.2,0.45 24.375,2.025c3.45,0.675 7.05,1.35 10.35,2.775c4.05,1.725 5.475,4.575 7.35,8.325c2.7,5.25 8.325,8.85 10.05,14.625c1.125,3.9 0.45,11.1 5.175,12.9c0.15,0 0.225,-0.15 0.225,-0.3Z"
          style="fill:#778a17;fill-rule:nonzero;"/>
    <path d="M201.141,235.156c0.6,-2.7 0.45,-5.475 0.825,-8.25c0.375,-2.775 1.125,-5.475 1.275,-8.25c0.075,-0.75 -1.125,-1.125 -1.5,-0.375c-2.25,4.575 -3.075,12.075 -1.35,16.875c0.075,0.3 0.6,0.375 0.75,0Z"
          style="fill:#778a17;fill-rule:nonzero;"/>
    <path d="M201.216,224.056c4.425,-4.35 8.25,-9.975 7.5,-16.5c-0.675,-5.775 -3.825,-13.05 -8.1,-17.025c-0.75,-0.675 -2.025,0.225 -1.425,1.05c3.075,4.35 5.475,9.825 6.75,15.075c1.5,6.375 -2.25,11.7 -4.95,17.175c-0.15,0.15 0.075,0.375 0.225,0.225Z"
          style="fill:#778a17;fill-rule:nonzero;"/>
    <path d="M200.391,221.356c-0.3,-7.725 -3.375,-15.375 -3.3,-23.025c0.075,-5.925 3.15,-12 -1.35,-17.1c-0.75,-0.825 -1.8,0.225 -1.425,1.05c1.65,3.825 0.45,7.8 -0.15,11.7c-0.375,2.7 -0.375,5.25 0.075,7.875c1.05,6.525 3.15,13.5 5.85,19.5c0.075,0.15 0.3,0.075 0.3,0Z"
          style="fill:#778a17;fill-rule:nonzero;"/>
    <path d="M189.441,223.156c-1.725,-5.625 -0.9,-11.625 1.05,-17.1c1.8,-5.25 4.875,-10.2 5.7,-15.675c0.15,-1.2 -1.5,-2.175 -2.1,-0.9c-4.725,9.6 -12.525,23.85 -4.875,33.75c0,0.15 0.3,0.075 0.225,-0.075Z"
          style="fill:#778a17;fill-rule:nonzero;"/>
    <path d="M181.341,213.181c-0.9,-5.925 -2.625,-12 -2.025,-18.075c0.6,-6.225 4.275,-10.875 8.55,-15.15c6,-5.925 14.1,-13.2 11.925,-22.65c-0.3,-1.2 -2.25,-0.975 -2.175,0.3c0.75,12.375 -11.25,17.925 -17.325,26.925c-5.925,8.775 -3.525,19.875 0.675,28.8c0.075,0.3 0.375,0.15 0.375,-0.15Z"
          style="fill:#778a17;fill-rule:nonzero;"/>
    <path d="M197.916,161.056c-0.45,4.2 -0.45,8.325 -1.275,12.525c-0.75,3.825 -2.1,7.35 -3.525,10.95c-0.3,0.675 0.825,1.125 1.2,0.525c3.75,-6.9 6.075,-16.275 3.825,-24c-0.075,-0.15 -0.225,-0.075 -0.225,0Z"
          style="fill:#778a17;fill-rule:nonzero;"/>
    <path d="M203.616,192.556c-0.15,-3 4.275,-5.85 5.475,-8.55c1.125,-2.625 1.125,-5.4 0.375,-8.1c-0.3,-1.05 -2.025,-0.9 -1.95,0.3c0.225,4.275 -1.275,7.275 -3.675,10.65c-1.5,2.175 -1.95,3.6 -0.6,5.925c0,0.075 0.375,0 0.375,-0.225Z"
          style="fill:#778a17;fill-rule:nonzero;"/>
    <path d="M207.291,175.906c0.45,3.6 0.825,7.125 1.575,10.65c0.825,4.2 1.425,8.775 -1.875,12.15c-0.825,0.9 0.225,2.325 1.275,1.725c8.7,-5.175 2.25,-17.7 -0.3,-24.675c-0.15,-0.3 -0.75,-0.3 -0.675,0.15Z"
          style="fill:#778a17;fill-rule:nonzero;"/>
    <path d="M367.641,427.456c3.375,-32.1 39.675,-41.4 63.45,-54.675c13.125,-7.35 26.025,-15.75 37.425,-25.575c11.1,-9.675 18.6,-21.75 25.725,-34.425c7.725,-13.725 16.575,-27.6 31.125,-34.875c2.325,-1.125 0.675,-5.175 -1.8,-4.275c-28.875,11.175 -34.875,46.5 -55.65,66.45c-11.55,11.175 -25.575,20.175 -39.525,28.125c-13.575,7.725 -28.575,13.275 -41.325,22.35c-11.55,8.25 -22.125,21.975 -20.175,36.975c0.075,0.375 0.675,0.375 0.75,-0.075Z"
          style="fill:#778a17;fill-rule:nonzero;"/>
    <path d="M499.266,299.731c7.35,-8.175 16.875,-15.9 27,-20.325c5.4,-2.325 11.175,-3.75 17.1,-3.675c6.675,0.075 12.975,2.325 19.425,3.825c6.3,1.425 12,1.05 18.375,0.9c6.975,-0.15 12.525,3.525 19.275,4.575c6.075,0.9 12.375,0.75 18.6,0.975c6.45,0.225 13.575,1.2 20.025,0.3c1.575,-0.225 1.5,-2.85 0,-3.15c-6.6,-1.275 -13.95,-0.6 -20.7,-0.75c-7.05,-0.15 -14.7,0.375 -21.45,-1.65c-3,-0.9 -5.775,-2.325 -8.775,-3c-3.45,-0.75 -6.975,-0.525 -10.5,-0.375c-7.125,0.45 -13.575,-0.825 -20.475,-2.475c-11.175,-2.625 -21.525,-2.4 -32.025,2.475c-10.8,5.025 -18.675,13.05 -25.875,22.35c-0.075,0 0,0 0,0Z"
          style="fill:#778a17;fill-rule:nonzero;"/>
    <path d="M529.716,276.181c7.425,0.15 11.175,-5.85 15,-11.4c2.175,-3.15 4.35,-6.6 7.5,-8.7c4.35,-3 9.825,-1.5 14.7,-2.625c4.95,-1.125 8.925,-4.575 13.65,-6.3c5.925,-2.175 11.475,1.725 17.4,2.1c6.15,0.45 12.225,-0.9 18.3,-0.525c5.55,0.375 11.1,1.875 15.825,4.725c5.4,3.225 8.475,8.1 11.55,13.425c2.55,4.425 5.25,9.6 10.275,11.55c1.275,0.525 2.7,-1.275 1.875,-2.4c-3.075,-4.125 -6.15,-7.875 -8.775,-12.375c-2.625,-4.5 -5.475,-8.7 -9.675,-11.925c-8.925,-6.9 -20.025,-7.875 -30.9,-7.05c-3.225,0.225 -6.45,0.525 -9.675,0.15c-3.375,-0.375 -6.375,-1.95 -9.75,-2.55c-4.8,-0.825 -9.075,1.125 -13.125,3.375c-2.475,1.35 -4.875,2.85 -7.65,3.6c-3.075,0.825 -6.375,0.45 -9.525,0.825c-3.825,0.45 -7.05,2.25 -9.75,4.95c-6,6.075 -8.85,17.025 -17.475,20.175c-0.3,0.3 -0.225,0.975 0.225,0.975Z"
          style="fill:#778a17;fill-rule:nonzero;"/>
    <path d="M634.341,283.456c4.575,0.375 8.775,0.75 13.275,-0.675c4.05,-1.275 7.65,-3.45 10.575,-6.45c0.825,-0.825 -0.225,-2.25 -1.275,-1.65c-6.675,3.675 -14.775,7.65 -22.575,7.8c-0.6,0.075 -0.6,0.9 0,0.975Z"
          style="fill:#778a17;fill-rule:nonzero;"/>
    <path d="M459.516,205.081c0,6.975 12.15,10.275 17.1,12.525c9.15,4.2 19.125,7.875 26.925,14.325c13.575,11.175 18.225,29.625 14.475,46.425c-0.3,1.275 1.5,1.725 1.95,0.525c5.025,-15.225 0.15,-32.625 -10.575,-44.325c-6.375,-6.975 -14.925,-11.1 -23.4,-14.925c-4.95,-2.25 -9.9,-4.5 -14.85,-6.75c-2.1,-0.975 -4.275,-1.875 -6.15,-3.15c-2.025,-1.35 -3.3,-3.15 -4.875,-4.95c-0.15,-0.225 -0.6,0 -0.6,0.3Z"
          style="fill:#778a17;fill-rule:nonzero;"/>
    <path d="M521.766,280.831c2.25,-6.675 3.525,-14.325 4.2,-21.3c0.675,-6.6 -1.05,-12.675 -4.125,-18.525c-2.7,-5.25 -5.85,-10.725 -9.675,-15.225c-1.65,-1.95 -3.6,-3.75 -5.85,-5.025c-2.7,-1.5 -6.75,-1.5 -8.925,-3.75c-1.875,-1.95 -1.95,-5.25 -3.15,-7.575c-1.05,-2.025 -2.475,-3.375 -4.575,-4.35c-2.7,-1.275 -5.475,-1.425 -7.2,-4.275c-1.05,-1.8 -1.275,-4.125 -2.7,-5.775c-3,-3.45 -7.2,-1.2 -9.375,1.95c-0.975,1.425 -1.575,3.075 -2.775,4.35c-1.275,1.275 -2.85,1.65 -4.5,2.175c-2.025,0.6 -3.825,1.2 -5.25,2.925c-0.975,1.125 0.525,2.775 1.65,1.65c3.225,-3.075 8.175,-1.95 11.025,-5.85c1.8,-2.475 4.875,-9.825 8.175,-3.675c0.75,1.425 0.975,3.075 1.8,4.425c2.475,3.975 8.325,3.225 10.575,7.125c2.025,3.6 1.5,8.025 5.4,10.425c2.025,1.275 4.425,1.35 6.6,2.175c2.7,1.05 4.95,3 6.9,5.175c3.6,4.125 6.375,9.225 8.85,14.025c3.225,6.15 4.5,12.075 3.9,18.975c-0.6,6.6 -2.1,13.2 -1.95,19.8c0.075,0.6 0.825,0.675 0.975,0.15Z"
          style="fill:#778a17;fill-rule:nonzero;"/>
    <path d="M462.966,350.131c3.9,-3.9 8.7,-8.4 14.175,-9.75c6.75,-1.725 13.35,2.775 19.2,5.475c4.725,2.1 9.3,4.875 14.175,2.1c5.475,-3.15 11.4,-0.75 17.25,-1.2c4.2,-0.3 8.4,-2.4 9.6,-6.675c1.125,-4.125 -1.575,-7.35 -5.1,-9.075c-2.175,-1.05 -4.725,-1.575 -6.675,-3.075c-3.225,-2.55 -0.375,-4.95 -0.3,-8.1c0.075,-3.9 -3.825,-5.4 -7.125,-5.55c-6.75,-0.225 -13.2,2.775 -20.025,2.4c-4.5,-0.225 -9.375,-1.575 -12.375,2.625c-0.9,1.275 1.05,2.625 2.1,1.575c2.325,-2.25 5.85,-1.275 8.7,-0.975c3.075,0.375 6.075,0.225 9.15,-0.225c3.3,-0.45 6.525,-1.275 9.825,-1.5c1.2,-0.075 4.125,-0.525 5.025,0.45c1.35,1.425 -0.225,3.075 -0.6,4.5c-1.35,4.5 2.175,7.875 5.925,9.525c2.325,1.05 6.825,1.8 7.575,4.725c1.275,5.175 -6.45,5.475 -9.525,5.325c-2.925,-0.15 -5.85,-0.375 -8.7,-0.075c-2.775,0.375 -4.5,1.5 -6.975,2.7c-3.45,1.725 -7.425,-0.675 -10.725,-2.1c-2.925,-1.275 -5.775,-2.775 -8.7,-3.975c-4.875,-1.95 -10.05,-2.7 -14.925,-0.525c-5.1,2.25 -8.175,6.75 -11.475,11.025c0.15,0.375 0.375,0.525 0.525,0.375Z"
          style="fill:#778a17;fill-rule:nonzero;"/>
    <path d="M463.941,346.081c7.275,-8.625 1.65,-23.325 -3.15,-31.725c-0.525,-0.975 -2.1,-0.3 -1.8,0.75c1.575,4.875 3.675,9.675 4.875,14.7c1.35,5.7 0.675,10.425 -0.375,16.05c0,0.225 0.3,0.45 0.45,0.225Z"
          style="fill:#778a17;fill-rule:nonzero;"/>
    <path d="M464.091,321.106c-1.95,-4.125 -5.025,-7.5 -6.9,-11.775c-1.95,-4.575 -3.6,-9.525 -4.5,-14.4c-2.025,-10.95 3.75,-20.325 9.675,-29.025c2.85,-4.2 6.15,-8.175 10.275,-11.1c3.825,-2.775 8.175,-4.8 12.15,-7.35c6.3,-4.125 12.45,-10.575 10.725,-18.675c-0.225,-1.125 -1.725,-0.75 -1.875,0.225c-1.35,11.775 -12.6,15.975 -21.225,21.75c-8.175,5.4 -13.425,13.65 -18.075,22.05c-2.175,3.975 -4.2,8.175 -4.875,12.75c-0.75,5.025 0.3,10.05 1.8,14.925c2.1,6.675 5.475,18 12.675,20.85c0.15,0 0.15,-0.15 0.15,-0.225Z"
          style="fill:#778a17;fill-rule:nonzero;"/>
    <path d="M495.141,227.806c-5.025,5.025 -2.625,12.825 -0.225,18.525c1.95,4.575 4.575,9.825 3.675,14.925c-0.75,4.05 -3.9,6.9 -3.9,11.175c0,2.1 0.6,4.2 0.6,6.3c0,2.775 -0.825,5.475 -1.575,8.1c-1.35,4.725 -2.85,9.375 -4.425,14.1c-3.15,9.525 -7.05,18.75 -10.875,28.125c-0.45,1.125 1.425,1.875 1.95,0.825c4.575,-8.325 8.175,-17.1 11.4,-26.025c1.65,-4.65 3.225,-9.3 4.575,-14.025c1.2,-4.2 2.625,-8.475 2.175,-12.9c-0.3,-2.625 -0.9,-5.025 0.225,-7.575c0.675,-1.65 1.725,-3 2.4,-4.65c1.35,-3.6 0.9,-7.5 -0.225,-11.175c-2.625,-8.4 -8.775,-16.125 -5.325,-25.275c0.075,-0.45 -0.225,-0.6 -0.45,-0.45Z"
          style="fill:#778a17;fill-rule:nonzero;"/>
    <path d="M327.666,60.256c-28.575,47.7 -35.775,112.125 -4.35,160.2c7.875,12 17.325,23.025 23.7,36c6.525,13.35 9.6,28.35 9.075,43.275c-1.05,29.475 -16.35,55.95 -27.45,82.5c-11.25,26.925 -19.35,59.25 -4.65,86.475c1.05,1.95 3.9,0.225 3,-1.725c-12.225,-25.2 -5.775,-54.6 4.05,-79.425c10.2,-25.875 24.75,-50.55 28.35,-78.525c1.725,-13.575 0.6,-27.45 -3.375,-40.5c-4.05,-13.275 -11.25,-24.675 -19.35,-35.85c-8.4,-11.625 -16.575,-23.175 -21.825,-36.675c-5.025,-12.9 -7.875,-26.7 -8.7,-40.5c-1.95,-33.525 8.4,-64.725 22.125,-94.8c0.15,-0.45 -0.375,-0.75 -0.6,-0.45Z"
          style="fill:#778a17;fill-rule:nonzero;"/>
    <path d="M361.041,303.706c3.6,-6.975 12.375,-1.575 17.1,0.525c2.4,1.125 4.95,2.025 7.65,1.8c1.275,-0.075 2.4,-0.675 3.675,-0.825c3.9,-0.45 3.675,0.975 5.7,2.925c3.15,3 6.675,2.025 10.275,0.6c3.45,-1.425 6.75,-3.15 10.425,-1.35c2.625,1.275 4.725,3.375 7.2,4.875c4.95,2.925 10.35,2.475 15.75,1.2c2.775,-0.6 5.475,-1.5 8.25,-1.875c3.9,-0.6 7.35,0.075 11.1,1.2c5.4,1.65 10.8,3.525 16.5,2.1c4.2,-1.05 7.725,-3.825 8.175,-8.325c0.15,-1.725 -2.325,-2.25 -3.15,-0.825c-3.3,5.7 -9.6,5.85 -15.375,4.275c-5.775,-1.575 -11.025,-3.45 -17.1,-2.55c-6.375,0.975 -13.275,4.95 -19.8,3.075c-5.175,-1.5 -8.625,-6.675 -14.25,-6.9c-5.1,-0.15 -12,6.675 -16.35,2.85c-1.8,-1.575 -2.55,-3.675 -5.25,-3.975c-2.7,-0.3 -5.175,1.275 -7.95,0.825c-5.55,-0.975 -9.825,-5.4 -15.675,-5.325c-3.6,0.075 -6.975,1.575 -7.575,5.4c-0.15,0.45 0.45,0.75 0.675,0.3Z"
          style="fill:#778a17;fill-rule:nonzero;"/>
    <path d="M362.616,298.981c4.35,-3.525 7.8,-8.025 12.075,-11.625c4.5,-3.825 9.225,-7.35 14.25,-10.5c4.95,-3.225 10.125,-6.075 15.3,-9c5.55,-3.075 11.1,-6.375 17.25,-8.25c6.525,-1.95 12.225,-1.05 18.45,1.275c4.95,1.875 10.05,4.125 15.525,3.75c5.625,-0.375 13.65,-4.65 15.75,3.075c1.35,4.875 2.325,8.4 5.55,12.45c1.8,2.175 3.825,4.275 5.025,6.9c1.65,3.675 0.45,7.5 -0.075,11.25c-0.75,4.875 -0.375,9.75 3.9,12.75c1.575,1.125 2.85,-1.2 1.875,-2.4c-4.275,-5.325 0.225,-12.9 -0.3,-18.9c-0.525,-5.25 -4.05,-8.925 -7.2,-12.825c-1.725,-2.175 -3,-4.425 -3.675,-7.125c-0.6,-2.625 -0.975,-5.4 -2.625,-7.65c-3.15,-4.35 -8.475,-3.825 -13.125,-2.85c-3.3,0.675 -6.375,1.2 -9.75,0.525c-3.15,-0.6 -6.15,-1.95 -9.075,-3.075c-5.85,-2.25 -11.4,-3.525 -17.625,-2.325c-6.525,1.2 -12.525,4.575 -18.225,7.875c-5.325,3 -10.575,6.075 -15.75,9.375c-5.55,3.525 -11.1,7.35 -15.975,11.775c-4.65,4.125 -9.975,9.225 -12,15.3c-0.225,0.3 0.225,0.45 0.45,0.225Z"
          style="fill:#778a17;fill-rule:nonzero;"/>
    <path d="M360.966,290.056c1.8,-12.525 4.725,-25.5 14.625,-34.2c9.15,-8.025 21.525,-11.175 32.55,-15.825c11.475,-4.8 20.85,-12.075 29.1,-21.3c8.4,-9.375 15.45,-19.95 23.85,-29.325c9.675,-10.875 21,-19.95 35.475,-23.4c2.025,-0.45 1.65,-3.975 -0.525,-3.75c-27,2.85 -42.225,29.1 -57.675,48.225c-8.55,10.65 -18.15,19.65 -30.675,25.275c-11.25,5.025 -23.775,8.175 -33.3,16.425c-10.65,9.225 -15.15,24 -13.575,37.8c0,0.15 0.15,0.15 0.15,0.075Z"
          style="fill:#778a17;fill-rule:nonzero;"/>
    <path d="M472.641,180.706c5.85,-3.3 10.5,-7.2 17.325,-8.85c7.125,-1.725 13.875,-0.75 21,0.15c6.525,0.825 12.075,0.45 18.375,-1.5c3.375,-1.05 6.825,-2.1 10.425,-1.8c3.375,0.3 6.525,1.5 9.6,2.7c5.85,2.25 11.475,4.5 17.85,3.6c6.525,-0.9 12.6,-4.05 18.6,-6.525c7.425,-3.075 27.975,-8.4 23.625,-20.4c-0.375,-0.975 -1.8,-0.825 -1.875,0.225c-0.6,8.475 -7.875,11.175 -14.625,14.025c-6.45,2.775 -12.9,5.775 -19.575,8.175c-7.125,2.55 -13.05,2.1 -19.95,-0.525c-4.95,-1.875 -9.975,-4.2 -15.375,-4.2c-6.15,0.075 -11.625,3.375 -17.775,3.825c-6.75,0.525 -13.35,-1.425 -20.025,-1.65c-9.525,-0.375 -22.95,3.45 -27.75,12.525c-0.075,0.15 0,0.3 0.15,0.225Z"
          style="fill:#778a17;fill-rule:nonzero;"/>
    <path d="M495.741,167.056c8.55,0.225 12.975,-7.5 18.9,-12.375c4.575,-3.75 10.275,-4.8 15.825,-6.3c5.25,-1.35 9.525,-3.45 14.1,-6.45c11.475,-7.725 23.4,-3.75 35.7,-0.525c5.4,1.425 10.5,2.1 16.05,2.325c3.675,0.15 4.275,1.8 6.675,4.05c1.2,1.125 2.4,1.65 4.05,1.875c1.65,0.15 2.025,-2.55 0.375,-2.925c-2.4,-0.525 -3.15,-3.375 -4.95,-4.8c-1.5,-1.2 -3.15,-1.65 -5.1,-1.725c-6.525,-0.3 -12.45,-1.05 -18.825,-2.7c-10.125,-2.7 -21.45,-5.775 -31.425,-0.825c-5.325,2.625 -9.3,6.375 -15.15,8.1c-4.95,1.425 -10.125,2.325 -14.7,4.8c-7.95,4.275 -12.225,15.6 -21.6,17.175c-0.225,0 -0.15,0.3 0.075,0.3Z"
          style="fill:#778a17;fill-rule:nonzero;"/>
    <path d="M494.316,161.356c4.575,-7.725 1.875,-16.65 -3.3,-23.4c-2.475,-3.225 -5.475,-6 -8.925,-8.1c-4.05,-2.4 -8.625,-3.45 -12.975,-5.325c-8.475,-3.75 -10.35,-12.675 -14.325,-20.175c-1.875,-3.45 -4.2,-6.375 -7.2,-8.775c-1.425,-1.125 -2.925,-2.175 -4.275,-3.45c-1.95,-1.8 -2.475,-3.3 -3.375,-5.7c-0.525,-1.275 -2.4,-1.5 -2.85,0c-1.875,6.825 8.1,11.4 11.4,15.825c4.65,6.15 5.7,14.175 10.425,20.25c5.625,7.2 14.925,7.65 22.2,12.45c7.95,5.25 15.75,16.2 12.375,26.175c-0.15,0.375 0.525,0.675 0.825,0.225Z"
          style="fill:#778a17;fill-rule:nonzero;"/>
    <path d="M440.616,85.906c2.625,2.85 5.775,1.875 9.375,1.875c5.85,0 8.55,3.975 10.575,9c1.5,3.675 2.7,7.575 5.55,10.5c2.4,2.4 5.475,3.675 8.625,4.875c3.75,1.425 8.175,2.625 10.5,6.225c1.35,2.025 1.65,4.575 2.625,6.75c0.825,1.875 2.025,3.225 3.45,4.65c4.275,4.125 5.1,9.525 5.7,15.15c0.6,5.475 0.6,11.025 0.075,16.5c-0.225,2.55 3.6,2.475 3.9,0c0.75,-5.7 0.825,-11.4 0.075,-17.1c-0.6,-4.575 -1.35,-9.9 -3.975,-13.8c-1.425,-2.1 -3.6,-3.375 -5.1,-5.4c-1.65,-2.25 -2.1,-5.025 -3.3,-7.425c-1.65,-3.3 -4.575,-5.25 -7.875,-6.75c-3.75,-1.65 -8.025,-2.475 -11.325,-4.95c-4.125,-3.075 -5.175,-8.4 -7.425,-12.825c-1.575,-3.075 -3.975,-6.225 -7.425,-7.275c-4.5,-1.425 -9.225,1.2 -13.725,-0.45c-0.3,-0.075 -0.45,0.3 -0.3,0.45Z"
          style="fill:#778a17;fill-rule:nonzero;"/>
    <path d="M439.716,213.181c-3,-7.35 -6.525,-14.7 -7.65,-22.65c-1.275,-8.475 -0.375,-17.25 2.625,-25.35c3.3,-9 9.45,-15.15 17.25,-20.475c6.075,-4.05 12.825,-9.225 12.9,-17.175c0,-2.025 -3.15,-2.55 -3.6,-0.45c-2.25,10.05 -11.925,13.125 -18.75,19.425c-6.15,5.625 -10.05,13.8 -12.225,21.675c-3.975,14.475 -2.55,34.575 9.075,45.225c0.15,0.075 0.45,0 0.375,-0.225Z"
          style="fill:#778a17;fill-rule:nonzero;"/>
    <path d="M465.441,128.881c1.575,3.525 4.125,6.15 5.175,9.975c1.2,4.725 0.3,9 -1.875,13.275c-1.65,3.225 -3.45,6.3 -3.825,9.975c-0.525,4.275 2.55,11.325 -1.8,14.475c-1.65,1.2 -0.225,3.825 1.65,2.775c4.2,-2.325 4.575,-6.75 4.2,-11.175c-0.375,-3.825 -0.375,-6.75 1.125,-10.275c1.05,-2.4 2.325,-4.725 3.225,-7.2c1.575,-4.35 1.575,-9.3 -0.075,-13.65c-1.275,-3.45 -3.675,-7.575 -7.575,-8.4c-0.15,0 -0.225,0.075 -0.225,0.225Z"
          style="fill:#778a17;fill-rule:nonzero;"/>
    <path d="M299.466,184.606c-2.7,2.7 -8.175,1.5 -11.7,2.25c-3,0.675 -6,2.1 -7.8,4.65c-2.55,3.6 -2.4,12 -9.075,7.95c-3.45,-2.1 -5.25,-5.55 -9.15,-6.975c-0.75,-0.225 -1.575,0.3 -1.8,0.975c-1.425,5.475 3.225,9.3 7.425,12c5.175,3.375 11.475,6.675 17.85,5.475c3.675,-0.75 6.675,-2.625 10.575,-2.625c3.825,0 7.95,0.675 11.7,1.5c4.05,0.9 12.375,4.95 13.5,-2.025c0.3,-1.725 -1.8,-2.7 -2.85,-1.2c-1.725,2.475 -5.4,0.6 -7.725,0c-2.1,-0.525 -4.2,-0.75 -6.3,-0.975c-4.425,-0.45 -9.225,-1.125 -13.575,0.15c-2.475,0.75 -4.5,2.025 -7.125,2.325c-3.075,0.3 -6.075,-0.525 -8.85,-1.8c-4.125,-1.875 -13.275,-6.45 -11.775,-12.075c-0.6,0.3 -1.2,0.675 -1.8,0.975c4.8,1.725 6.9,7.575 12.3,8.25c4.05,0.525 6.225,-2.4 7.425,-5.775c0.975,-2.775 1.8,-5.175 4.425,-6.675c2.55,-1.425 5.475,-1.725 8.325,-1.95c3,-0.3 6.225,-0.825 6.675,-4.275c0.075,-0.225 -0.45,-0.375 -0.675,-0.15Z"
          style="fill:#778a17;fill-rule:nonzero;"/>
    <path d="M299.316,185.806c0.975,-0.3 2.1,-0.075 3.15,-0.3c1.05,-0.225 2.1,-0.75 2.925,-1.425c1.65,-1.2 3.45,-3.6 2.7,-5.775c-0.45,-1.125 -1.725,-1.275 -2.475,-0.3c-0.525,0.675 -0.675,1.575 -1.125,2.325c-0.525,0.825 -1.275,1.575 -2.175,1.95c-1.5,0.675 -3.3,0.375 -4.125,1.95c-0.525,0.825 0.225,1.875 1.125,1.575Z"
          style="fill:#778a17;fill-rule:nonzero;"/>
    <path d="M337.566,232.231c3.45,-9.9 15.225,-14.175 13.95,-25.95c-0.375,-3.375 -1.35,-6.75 -0.15,-10.125c1.05,-3 3.075,-5.475 2.7,-8.85c-0.6,-5.475 -5.925,-7.425 -8.325,-11.775c-1.2,-2.1 -1.2,-4.725 -2.775,-6.675c-2.1,-2.55 -5.85,-1.5 -7.65,-3.825c-1.725,-2.325 0.6,-4.875 -0.375,-7.425c-0.75,-2.025 -2.85,-3.15 -4.875,-2.25c-2.025,0.9 -2.7,3.375 -3.525,5.25c-1.125,2.7 -2.55,5.7 -2.775,8.625c-0.225,3.375 2.475,5.775 2.625,9.075c0.15,4.275 -2.4,8.1 -4.65,11.55c-3.6,5.55 -6.6,11.325 -4.5,18.075c2.1,6.675 7.35,11.625 10.875,17.55c1.05,1.725 3.525,0.225 2.7,-1.575c-2.25,-4.8 -5.7,-8.85 -8.1,-13.575c-3.375,-6.525 -1.425,-11.925 2.325,-17.85c2.85,-4.425 5.925,-9.3 5.4,-14.775c-0.225,-2.775 -2.025,-4.875 -2.325,-7.575c-0.225,-1.8 0.375,-3.15 1.05,-4.875c0.375,-0.975 2.625,-4.575 2.325,-5.325c-0.75,-1.875 -1.65,3.375 -1.5,4.2c0.3,2.1 1.425,4.05 3.075,5.4c1.95,1.575 5.325,1.2 6.6,3.375c1.05,1.8 1.125,4.05 2.325,5.85c2.85,4.2 8.775,6.3 6.75,12.3c-0.9,2.55 -1.95,4.725 -2.025,7.5c-0.075,2.625 0.675,5.1 1.2,7.65c1.35,6.825 -2.4,10.65 -6.45,15.525c-2.625,3.15 -4.875,6.3 -3.9,10.5c-0.15,0.075 -0.075,0.075 0,0Z"
          style="fill:#778a17;fill-rule:nonzero;"/>
    <path d="M305.166,154.606c4.725,-5.775 10.5,-8.175 17.7,-9.525c3.825,-0.675 7.725,-1.2 11.475,-2.4c3.375,-1.125 6.6,-2.775 9.9,-4.125c7.8,-3.225 16.125,-1.65 24.375,-2.1c3.975,-0.225 8.025,-0.6 12,-1.05c3.525,-0.45 7.725,-0.375 10.425,-2.85c1.125,-1.05 0.375,-2.7 -0.825,-3.15c-3.525,-1.425 -8.775,0.45 -12.375,0.825c-4.425,0.525 -8.925,0.825 -13.425,1.05c-4.35,0.225 -8.775,0.075 -13.125,0.6c-3.75,0.45 -7.2,1.875 -10.575,3.525c-3.825,1.875 -7.5,3.675 -11.7,4.725c-3.975,0.975 -8.025,1.65 -11.85,3c-5.325,1.8 -11.325,5.1 -12.675,11.025c-0.225,0.375 0.375,0.825 0.675,0.45Z"
          style="fill:#778a17;fill-rule:nonzero;"/>
    <path d="M306.666,144.781c2.7,-0.15 2.325,-3.225 1.35,-4.95c-0.45,-0.675 -1.65,-1.5 -1.8,-2.25c-0.675,-2.55 2.4,-2.175 3.825,-2.25c3.225,-0.15 6.225,0.675 9.375,0.9c5.4,0.3 9.675,-3.6 15,-3.525c5.325,0.075 10.35,3.3 15.6,1.5c1.875,-0.675 1.65,-3.6 -0.45,-3.6c-5.55,0 -10.8,-2.55 -16.275,-2.1c-2.325,0.15 -4.425,1.05 -6.525,2.025c-3.225,1.425 -5.85,2.1 -9.375,1.725c-3.6,-0.375 -10.8,-1.65 -13.725,1.35c-4.125,4.2 4.725,7.2 2.925,10.8c-0.15,0.225 -0.075,0.375 0.075,0.375Z"
          style="fill:#778a17;fill-rule:nonzero;"/>
    <path d="M336.216,130.606c1.95,-1.2 3.525,-2.85 5.55,-3.9c2.475,-1.35 5.175,-1.8 7.95,-1.875c4.65,-0.15 7.8,-0.45 11.4,-3.525c1.2,-1.05 1.95,-2.025 3.675,-1.95c1.575,0.075 3.075,1.125 4.35,1.95c2.1,1.275 4.125,2.7 6.225,3.975c4.35,2.775 8.625,5.175 13.725,6c2.175,0.375 3.15,-2.7 0.9,-3.375c-6.15,-1.8 -11.325,-5.55 -16.575,-9.075c-3.825,-2.55 -8.85,-6 -13.35,-2.775c-2.55,1.8 -3.45,3.975 -6.825,4.425c-2.85,0.375 -5.775,0 -8.55,0.825c-3.975,1.125 -8.775,4.2 -9.675,8.475c-0.15,0.6 0.6,1.275 1.2,0.825Z"
          style="fill:#778a17;fill-rule:nonzero;"/>
    <path d="M309.891,114.256c3.975,-16.65 18.75,-23.475 31.875,-32.025c5.7,-3.675 11.175,-7.875 15.15,-13.5c4.05,-5.775 7.2,-14.625 5.775,-21.675c-0.3,-1.425 -2.25,-1.2 -2.625,0c-1.35,4.125 -1.275,8.625 -2.7,12.825c-1.35,3.9 -3.6,7.425 -6.45,10.425c-5.175,5.475 -11.85,9.375 -18.225,13.275c-10.425,6.45 -24.375,16.725 -23.175,30.6c0,0.225 0.3,0.3 0.375,0.075Z"
          style="fill:#778a17;fill-rule:nonzero;"/>
    <path d="M326.241,89.506c-4.35,4.8 -6.9,11.1 -7.425,17.55c-0.3,3.75 -0.075,11.4 5.925,9.075c7.2,-2.85 11.7,-29.025 0,-25.575c-1.2,0.375 -0.675,2.175 0.525,1.8c7.05,-2.1 4.575,9.375 3.6,12.45c-0.6,1.95 -1.275,3.9 -2.325,5.7c-0.375,0.9 -0.9,1.65 -1.575,2.4c-2.925,0.15 -4.275,-0.825 -4.05,-2.925c-0.75,-3.15 0.375,-7.5 1.275,-10.5c0.975,-3.45 2.625,-6.675 4.425,-9.75c0.15,-0.15 -0.15,-0.45 -0.375,-0.225Z"
          style="fill:#eba00c;fill-rule:nonzero;"/>
    <path d="M330.366,90.406c5.925,-0.375 8.85,5.325 11.1,9.975c1.05,2.175 1.2,2.925 0.375,5.025c-0.525,1.5 -1.35,2.925 -1.875,4.425c-0.45,1.35 -1.05,3.45 0.6,4.275c1.35,0.75 2.85,-0.375 3.375,-1.575c0.225,-0.45 0,-1.2 -0.375,-1.5c-1.2,-1.05 -2.55,-0.225 -4.05,-0.9c-2.85,-1.35 -4.5,-5.625 -5.325,-8.4c-0.45,-1.425 -2.625,-0.825 -2.25,0.6c0.75,3.075 2.025,6.15 4.2,8.475c0.825,0.9 1.8,1.65 2.925,2.175c0.45,0.225 3.15,0.975 2.325,0.15c-0.075,-0.6 -0.15,-1.2 -0.225,-1.875c0.975,0.975 1.575,1.05 1.725,0.3c0.075,-0.225 0.15,-0.45 0.225,-0.6c0.45,-0.525 0.675,-1.65 0.975,-2.325c0.525,-1.2 1.05,-2.4 1.425,-3.675c0.825,-2.85 -0.375,-4.875 -1.725,-7.425c-2.4,-4.425 -7.875,-12.225 -13.575,-7.725c-0.225,0.225 -0.075,0.6 0.15,0.6Z"
          style="fill:#bf451d;fill-rule:nonzero;"/>
    <path d="M338.841,87.031c0.075,0 0.075,-0.075 0,-0.075c-0.075,0 -0.075,0.075 0,0.075Z" style="fill-rule:nonzero;"/>
    <path d="M343.191,96.181c0.3,0 0.3,-0.525 0,-0.525c-0.3,0 -0.3,0.525 0,0.525Z" style="fill-rule:nonzero;"/>
    <path d="M338.916,87.181c0.3,0 0.3,-0.525 0,-0.525c-0.3,0.075 -0.3,0.525 0,0.525Z" style="fill-rule:nonzero;"/>
    <path d="M343.116,101.206c6.15,4.425 12.525,-2.925 12.9,-9.15c0.375,-6.825 -5.7,-13.5 -12.75,-12.6c-0.9,0.075 -1.275,1.425 -0.225,1.65c4.95,1.2 9.375,4.2 9.375,9.825c0,5.1 -3.975,9.675 -9.225,9.975c-0.15,0 -0.225,0.15 -0.075,0.3Z"
          style="fill:#eba00c;fill-rule:nonzero;"/>
    <path d="M351.666,75.331c11.25,-1.8 20.85,-10.5 19.35,-22.425c-0.825,-6.45 -4.425,-13.5 -2.7,-20.025c0.975,-3.75 3.975,-6.45 5.925,-9.675c1.65,-2.775 2.7,-6 3.075,-9.225c0.45,-3.375 0.825,-13.275 -3.975,-13.95c-2.55,-0.375 -5.1,2.7 -6.75,4.125c-2.4,2.025 -4.725,4.275 -6.525,6.9c-1.8,2.55 -2.85,5.4 -3.45,8.475c-0.6,3.3 -0.6,6.9 -2.1,9.975c-2.7,5.625 -10.5,6.15 -11.325,13.05c-0.375,3.15 0.75,6.15 1.5,9.15c0.525,2.025 1.05,4.2 0.525,6.3c-0.45,1.875 -1.725,3.45 -2.325,5.25c-2.175,6.75 3.675,12 8.925,15c1.5,0.825 3.375,-1.35 1.95,-2.475c-1.95,-1.5 -4.05,-3.075 -5.625,-4.95c-2.925,-3.45 -1.875,-6.075 -0.225,-9.825c2.025,-4.575 0.525,-8.7 -0.6,-13.35c-0.825,-3.225 -0.975,-6.075 1.65,-8.475c1.8,-1.65 4.125,-2.55 5.925,-4.2c3.675,-3.375 4.125,-8.175 4.875,-12.825c0.9,-6.15 3.825,-10.65 8.475,-14.775c0.9,-0.75 1.95,-2.1 3.075,-2.55c1.875,-0.75 2.175,0.6 2.475,2.25c0.6,3.3 0.375,6.825 -0.6,10.05c-1.725,5.55 -6.75,9.3 -8.25,14.925c-1.125,4.425 -0.15,9 1.05,13.275c1.65,6.225 3.825,12.75 0.075,18.675c-3.45,5.325 -9.6,7.5 -14.475,11.1c-0.15,0 -0.075,0.225 0.075,0.225Z"
          style="fill:#778a17;fill-rule:nonzero;"/>
    <path d="M307.941,175.831c-1.95,-8.625 -6.6,-15.75 -13.65,-21.075c-7.35,-5.55 -16.2,-6.975 -24.375,-10.725c-4.725,-2.175 -8.7,-5.325 -10.875,-10.125c-2.475,-5.475 -3.3,-12.075 -3.675,-18.075c-0.675,-11.7 1.5,-23.175 6,-34.05c0.525,-1.35 -1.725,-2.325 -2.325,-0.975c-4.5,10.35 -6.6,21.675 -6.15,33c0.375,9.375 1.65,21.15 9.3,27.675c6.9,5.925 16.5,6.9 24.6,10.575c9.9,4.575 17.325,13.575 21.075,23.7c-0.075,0.225 0.15,0.225 0.075,0.075Z"
          style="fill:#778a17;fill-rule:nonzero;"/>
    <path d="M285.591,150.106c-3.225,4.35 -1.725,9.825 0.975,14.1c1.65,2.55 4.65,5.475 4.8,8.7c0.075,3 -3,3.675 -3.075,6.45c0,0.6 0.45,1.425 1.125,1.5c5.925,0.9 11.025,-3.3 11.925,-9.15c1.05,-6.975 -3.3,-15.15 -8.925,-19.2c-1.125,-0.825 -2.325,0.75 -1.8,1.8c2.025,4.05 5.625,7.05 6.975,11.55c1.5,5.1 -0.6,12.975 -7.425,12c0.375,0.525 0.75,0.975 1.125,1.5c0,-0.75 1.725,-1.8 2.1,-2.4c0.45,-0.75 0.75,-1.575 0.825,-2.4c0.225,-1.875 -0.375,-3.825 -1.2,-5.475c-2.925,-5.925 -10.5,-11.175 -6.9,-18.6c0.375,-0.375 -0.225,-0.75 -0.525,-0.375Z"
          style="fill:#778a17;fill-rule:nonzero;"/>
    <path d="M269.541,144.631c-5.85,2.175 -7.575,11.55 -5.925,16.875c1.5,4.875 8.4,13.5 14.175,9.075c1.5,-1.2 2.4,-2.925 1.5,-4.725c-0.45,-0.975 -1.5,-1.575 -2.175,-2.4c-1.425,-1.725 -1.725,-3.525 -1.875,-5.7c-0.375,-5.1 0.75,-12.45 -4.275,-15.675c-1.125,-0.75 -2.175,1.05 -1.05,1.8c6.3,4.125 0.9,15.3 5.325,20.925c0.375,0.525 1.2,0.975 1.5,1.575c1.35,3.15 -3.15,2.25 -4.95,1.125c-2.4,-1.5 -4.2,-4.2 -5.175,-6.9c-0.9,-2.55 -1.125,-5.325 -0.525,-8.025c0.75,-3 2.625,-4.8 3.825,-7.5c0.15,-0.15 -0.075,-0.525 -0.375,-0.45Z"
          style="fill:#bf451d;fill-rule:nonzero;"/>
    <path d="M262.866,142.756c-3,-3.075 -8.1,-1.35 -10.875,1.35c-3.675,3.525 -5.175,9.225 -5.475,14.25c-0.825,12.225 13.65,10.725 19.8,4.05c0.9,-0.975 -0.3,-2.775 -1.5,-1.95c-2.925,1.95 -6.15,3.675 -9.75,3.975c-5.1,0.375 -5.925,-3.375 -5.475,-7.5c0.375,-3.225 1.125,-6.75 3.075,-9.45c2.55,-3.525 6.075,-4.275 10.125,-4.65c0.075,0.075 0.075,0 0.075,-0.075Z"
          style="fill:#eba00c;fill-rule:nonzero;"/>
    <path d="M254.616,128.506c-6.15,-9.975 -18.375,9.9 -20.4,14.4c-1.8,3.9 -3.45,9.225 0.825,12.225c3.975,2.775 8.7,-0.15 11.925,-2.625c0.75,-0.6 -0.225,-1.575 -0.9,-1.2c-3.3,1.5 -10.65,3.9 -9.675,-2.85c0.375,-2.775 2.1,-5.625 3.525,-8.025c2.625,-4.575 7.95,-13.05 14.25,-11.025c0.225,0 0.675,-0.525 0.45,-0.9Z"
          style="fill:#bf451d;fill-rule:nonzero;"/>
    <path d="M257.766,118.681c0.375,-3.15 -0.525,-5.85 0.9,-9c1.5,-3.3 4.35,-5.775 6.9,-8.25c3.825,-3.75 7.95,-8.175 8.025,-13.875c0.075,-2.925 -0.975,-5.775 -1.875,-8.55c-1.2,-3.6 -2.25,-7.275 -3.525,-10.875c-0.75,-1.95 -1.65,-3.9 -3.375,-5.1c-2.325,-1.575 -5.025,-1.2 -7.725,-1.425c-4.425,-0.45 -9.45,-1.95 -11.625,3.3c-0.9,2.1 -0.675,4.425 -1.2,6.6c-0.75,2.925 -2.925,3.75 -5.7,4.275c-4.05,0.825 -8.7,0.825 -11.775,3.9c-3.375,3.45 -2.925,8.85 -0.45,12.675c3.525,5.55 10.425,8.1 15,12.6c5.25,5.175 8.925,11.85 11.4,18.675c0.825,2.325 4.2,1.425 3.75,-1.05c-1.95,-9.75 -7.725,-18.225 -15.525,-24.3c-4.125,-3.225 -10.95,-5.85 -11.925,-11.625c-0.975,-5.925 6.3,-6 10.2,-6.75c3.15,-0.6 6.375,-1.8 8.1,-4.725c0.825,-1.5 1.05,-3.225 1.275,-4.95c0.15,-0.975 0.15,-2.025 0.45,-3c0.825,-2.625 3.225,-2.325 5.475,-2.025c2.175,0.3 5.4,-0.3 7.35,0.45c3,1.2 3.9,6.6 4.8,9.3c2.325,6.75 5.475,12.975 0.825,19.5c-3.375,4.8 -8.7,7.95 -11.25,13.35c-1.425,3.075 -2.925,9.075 0.9,11.025c0.375,0.225 0.525,0.075 0.6,-0.15Z"
          style="fill:#778a17;fill-rule:nonzero;"/>
    <path d="M429.441,222.031c-4.5,5.025 -6.825,12.3 -3.45,18.6c2.85,5.4 9.6,8.85 15.525,6.525c5.475,-2.175 8.4,-8.625 7.65,-14.25c-0.9,-6.9 -6.375,-12 -12.375,-14.775c-1.275,-0.6 -2.4,1.275 -1.125,1.875c4.5,2.1 8.7,5.4 10.5,10.2c1.875,4.95 0.45,11.325 -4.275,14.175c-5.025,3 -11.4,-0.075 -13.95,-4.95c-2.85,-5.4 -1.275,-12.15 1.65,-17.25c0.15,-0.075 -0.075,-0.225 -0.15,-0.15Z"
          style="fill:#eba00c;fill-rule:nonzero;"/>
    <path d="M443.241,208.306c3.375,-5.475 9.225,-0.15 10.35,3.975c0.6,2.025 0.45,4.125 0,6.15c-0.9,4.125 -2.85,7.95 -5.025,11.55c-0.825,1.425 -3.15,3.825 -3.225,5.475c-0.075,1.725 1.35,1.8 2.55,0.975c1.2,-0.825 0.075,-2.85 -1.2,-2.025c-0.9,0.675 0.225,1.65 0.975,1.35c0.3,-0.075 0.75,-1.2 0.9,-1.425c0.9,-1.5 1.875,-3 2.7,-4.5c2.175,-3.75 4.2,-7.95 4.65,-12.3c0.45,-4.125 -0.825,-8.85 -4.275,-11.475c-2.925,-2.25 -7.65,-1.95 -8.55,2.1c0,0.225 0.075,0.225 0.15,0.15Z"
          style="fill:#bf451d;fill-rule:nonzero;"/>
    <path d="M541.566,274.531c11.175,-14.25 29.55,-8.85 44.775,-7.95c8.925,0.525 17.1,-2.325 25.875,-2.625c8.7,-0.3 16.725,2.775 23.625,7.875c1.2,0.9 2.775,-1.125 1.65,-2.1c-6.375,-5.4 -14.475,-8.475 -22.8,-8.775c-4.8,-0.15 -9.525,0.825 -14.25,1.65c-5.4,0.975 -10.725,1.2 -16.2,0.75c-13.65,-1.125 -36.225,-5.475 -42.9,11.025c-0.075,0.15 0.075,0.3 0.225,0.15Z"
          style="fill:#778a17;fill-rule:nonzero;"/>
    <path d="M501.066,164.056c25.125,-6.675 54.075,-2.025 76.575,-16.95c0.6,-0.375 0.075,-1.35 -0.6,-0.975c-22.65,14.85 -51.3,9.3 -76.125,17.7c-0.075,0 0,0.3 0.15,0.225Z"
          style="fill:#778a17;fill-rule:nonzero;"/>
    <path d="M445.641,198.181c-4.8,-10.2 3.075,-21.6 7.125,-30.75c3.975,-9.075 7.275,-18.675 9.525,-28.425c0.3,-1.2 -1.5,-1.65 -1.8,-0.525c-3.525,11.7 -7.425,23.175 -12.3,34.35c-3.45,8.025 -7.425,17.025 -2.7,25.425c0,0.15 0.225,0 0.15,-0.075Z"
          style="fill:#778a17;fill-rule:nonzero;"/>
    <path d="M468.516,277.156c-5.625,16.425 -1.425,34.95 10.875,47.25c1.125,1.125 2.925,-0.6 1.8,-1.8c-11.25,-12.15 -16.05,-29.25 -12.675,-45.45c0.075,-0.075 0,-0.075 0,0Z"
          style="fill:#778a17;fill-rule:nonzero;"/>
    <path d="M372.516,294.256c18.975,-18 48.15,2.625 69,-10.8c1.425,-0.9 0.15,-3.075 -1.35,-2.25c-20.625,11.7 -50.55,-6.6 -67.875,12.825c-0.075,0.15 0.15,0.375 0.225,0.225Z"
          style="fill:#778a17;fill-rule:nonzero;"/>
    <path d="M209.466,351.031c-5.25,-1.425 -10.8,-1.725 -16.125,-0.45c-5.1,1.275 -9.15,4.05 -13.275,7.275c-4.65,3.675 -9.6,6.15 -15,8.55c-4.875,2.175 -9.75,4.425 -13.275,8.55c-0.45,0.45 0.225,1.125 0.675,0.675c7.725,-6.225 17.475,-8.625 25.425,-14.325c4.125,-2.925 7.65,-6.3 12.3,-8.4c6.225,-2.775 12.675,-3.375 19.275,-1.875Z"
          style="fill:#778a17;fill-rule:nonzero;"/>
    <path d="M153.966,309.931c-7.8,-5.55 -0.525,-14.625 3.675,-19.575c3.975,-4.725 8.1,-9.375 11.625,-14.4c0.525,-0.75 -0.6,-1.575 -1.2,-0.9c-3.225,3.45 -6.075,7.125 -9,10.8c-2.55,3.225 -5.55,6.525 -7.5,10.2c-2.475,4.65 -2.7,11.025 2.25,14.1c0.15,0 0.3,-0.15 0.15,-0.225Z"
          style="fill:#778a17;fill-rule:nonzero;"/>
    <path d="M330.291,221.656c3.975,-4.725 6.525,-10.425 6.6,-16.65c0.075,-7.5 -3.45,-15.6 0.45,-22.65c0.525,-1.05 -0.975,-1.95 -1.575,-0.9c-3,5.4 -1.875,11.175 -0.9,17.025c1.35,8.325 0.45,16.125 -4.725,23.025c-0.15,0.075 0.075,0.225 0.15,0.15Z"
          style="fill:#778a17;fill-rule:nonzero;"/>
    <path d="M309.741,196.756c-4.8,0.15 -9.375,0.45 -14.175,1.125c-3.825,0.525 -10.2,2.85 -13.35,-0.375c-0.975,-0.975 -2.325,0.45 -1.5,1.5c2.55,3.15 6.525,2.7 10.2,2.175c6.45,-0.9 12.6,-2.25 18.825,-3.975c0.3,-0.15 0.225,-0.525 0,-0.45Z"
          style="fill:#778a17;fill-rule:nonzero;"/>
    <path d="M138.891,185.056c18.225,-0.975 30.075,15.3 40.05,27.975c0.525,0.675 1.725,-0.225 1.2,-0.9c-9.975,-13.875 -22.725,-27.975 -41.25,-27.075c-0.075,-0.075 -0.075,0 0,0Z"
          style="fill:#778a17;fill-rule:nonzero;"/>
    <path d="M114.591,320.056c11.7,-5.4 24.15,-7.95 36.9,-5.85c1.2,0.225 1.725,-1.575 0.525,-1.8c-12.9,-2.55 -26.85,-0.375 -37.575,7.425c-0.15,0.15 0,0.3 0.15,0.225Z"
          style="fill:#778a17;fill-rule:nonzero;"/>
    <path d="M208.566,244.231c-0.525,-0.825 1.2,-3.3 1.8,-3.975c0.6,-0.675 1.425,-1.275 2.175,-1.8c1.2,-0.9 2.55,-1.65 3.975,-2.325c3.075,-1.425 6.45,-2.325 9.825,-2.625c6.3,-0.6 12.6,1.125 18,4.425c0.675,0.45 1.575,-0.6 0.9,-1.125c-6.45,-5.475 -15.6,-7.05 -23.775,-4.8c-3,0.825 -18.45,7.725 -13.125,12.525c0.075,0.075 0.375,-0.15 0.225,-0.3Z"
          style="fill:#778a17;fill-rule:nonzero;"/>
    <path d="M248.391,346.606c8.25,0.75 14.025,-5.7 19.65,-10.65c8.4,-7.425 18.975,-10.725 30.075,-10.875c0.825,0 0.825,-1.2 0,-1.275c-9.375,-0.975 -18.75,1.8 -26.475,7.2c-7.275,5.1 -13.425,15.675 -23.325,15.375c-0.075,0 -0.075,0.15 0.075,0.225Z"
          style="fill:#778a17;fill-rule:nonzero;"/>
    <path d="M256.866,435.481c-3.15,-0.075 -4.875,3.525 -4.725,6.375c0.15,3.9 3.15,6.975 6.45,8.625c10.125,4.875 23.625,3.3 34.35,1.95c0.6,-0.075 0.6,-0.975 0,-0.9c-8.025,0.375 -15.975,0.675 -24,-0.45c-3.825,-0.525 -7.95,-1.2 -11.175,-3.45c-1.95,-1.35 -3.675,-3.3 -3.975,-5.775c-0.225,-2.85 1.35,-4.5 3.075,-6.375Z"
          style="fill:#fffef5;fill-rule:nonzero;"/>
    <path d="M279.516,431.656c4.725,0.525 9.225,0.675 13.65,2.625c4.35,1.95 7.65,5.025 10.95,8.4c0.375,0.375 0.975,-0.075 0.75,-0.525c-4.425,-7.725 -16.5,-13.65 -25.275,-10.65c-0.15,0.075 -0.15,0.15 -0.075,0.15Z"
          style="fill:#fffef5;fill-rule:nonzero;"/>
    <path d="M384.066,420.181c-2.775,10.65 -13.125,13.2 -21.075,18.975c-0.525,0.375 -0.075,1.275 0.525,0.9c8.025,-4.425 20.925,-8.85 21.45,-19.725c0,-0.525 -0.75,-0.675 -0.9,-0.15Z"
          style="fill:#fffef5;fill-rule:nonzero;"/>
    <path d="M359.466,418.756c-5.775,1.95 -18.075,9.3 -14.475,17.1c0.15,0.375 0.825,0.15 0.675,-0.3c-2.4,-7.575 8.1,-14.1 13.95,-16.2c0.45,-0.15 0.3,-0.75 -0.15,-0.6Z"
          style="fill:#fffef5;fill-rule:nonzero;"/>
    <path d="M336.591,460.831c-1.2,1.35 -2.325,2.7 -3.15,4.35c-0.15,0.375 0.3,0.825 0.6,0.45c1.2,-1.425 2.025,-2.925 2.775,-4.65c0.15,-0.15 -0.075,-0.3 -0.225,-0.15Z"
          style="fill:#fffef5;fill-rule:nonzero;"/>
    <path d="M310.866,461.731c-0.6,2.175 0.225,4.05 1.95,5.4c1.95,1.575 4.35,1.8 6.75,2.1c0.375,0.075 0.45,-0.525 0.075,-0.6c-3.525,-0.825 -8.4,-2.4 -8.4,-6.825c-0.075,-0.225 -0.3,-0.225 -0.375,-0.075Z"
          style="fill:#fffef5;fill-rule:nonzero;"/>
    <path d="M389.241,422.956c-3.15,5.925 -7.8,10.5 -13.5,13.95c-0.6,0.375 -0.075,1.275 0.6,0.975c6.15,-3 10.95,-8.175 13.875,-14.325c0.3,-0.675 -0.6,-1.275 -0.975,-0.6Z"
          style="fill:#fffef5;fill-rule:nonzero;"/>
    <path d="M358.791,424.831c-1.95,1.725 -3.15,4.05 -3.3,6.675c0,0.15 0.3,0.15 0.3,0c0.075,-2.55 1.2,-4.875 3.075,-6.525c0.075,-0.075 -0.075,-0.225 -0.075,-0.15Z"
          style="fill:#fffef5;fill-rule:nonzero;"/>
    <path d="M377.841,421.231c-1.125,1.35 -2.475,2.625 -3.375,4.125c-0.15,0.3 0.225,0.6 0.525,0.375c1.2,-1.2 2.175,-2.85 3.15,-4.275c0.075,-0.225 -0.15,-0.375 -0.3,-0.225Z"
          style="fill:#fffef5;fill-rule:nonzero;"/>
    <path d="M280.791,435.106c3.675,0.525 6.9,2.55 8.85,5.7c0.075,0.15 0.225,0 0.15,-0.075c-2.025,-3.15 -5.25,-5.25 -9,-5.625c-0.075,-0.075 -0.075,0 0,0Z"
          style="fill:#fffef5;fill-rule:nonzero;"/>
    <path d="M264.741,441.631c5.7,8.475 17.85,6.225 26.1,4.125c0.6,-0.15 0.375,-1.05 -0.225,-0.975c-9.15,1.875 -17.85,3.15 -25.425,-3.525c-0.225,-0.15 -0.675,0.075 -0.45,0.375Z"
          style="fill:#fffef5;fill-rule:nonzero;"/>
    <path d="M382.116,440.881c6.675,-3.225 13.8,-7.05 15.225,-15.075c0.075,-0.375 -0.45,-0.525 -0.525,-0.15c-1.575,7.5 -8.625,11.475 -14.925,14.775c-0.3,0.15 -0.075,0.525 0.225,0.45Z"
          style="fill:#fffef5;fill-rule:nonzero;"/>
    <path d="M355.491,417.031c-4.65,0.15 -9.525,3.675 -12.825,6.675c-3.9,3.6 -6.75,7.95 -8.325,13.05c-0.15,0.45 0.525,0.6 0.675,0.15c1.95,-4.65 4.8,-9 8.55,-12.375c3.675,-3.375 7.95,-4.725 12,-7.275c0.15,0 0.075,-0.225 -0.075,-0.225Z"
          style="fill:#fffef5;fill-rule:nonzero;"/>
    <path d="M328.416,454.456c3,-0.15 5.925,0.75 8.4,2.4c0.6,0.375 1.125,-0.525 0.525,-0.9c-2.7,-1.8 -5.7,-2.4 -9,-1.875c-0.225,0 -0.225,0.375 0.075,0.375Z"
          style="fill:#fffef5;fill-rule:nonzero;"/>
    <path d="M254.016,454.006c11.25,8.4 26.175,7.5 39.15,4.05c0.75,-0.225 0.45,-1.275 -0.3,-1.125c-13.125,2.1 -26.7,4.425 -38.775,-3c-0.15,-0.075 -0.15,0.075 -0.075,0.075Z"
          style="fill:#fffef5;fill-rule:nonzero;"/>
    <path d="M272.166,428.281c7.65,-0.15 14.4,-0.075 21.675,2.85c0.525,0.225 0.9,-0.675 0.375,-0.9c-6.45,-3.525 -15.15,-5.175 -22.05,-2.175c-0.15,0.075 -0.075,0.225 0,0.225Z"
          style="fill:#fffef5;fill-rule:nonzero;"/>
    <path d="M258.441,428.581c-6.525,-0.75 -12.15,6.45 -15.675,10.875c-0.375,0.525 0.3,1.275 0.75,0.75c1.95,-2.325 3.9,-4.8 6.15,-6.75c2.7,-2.325 5.55,-3.225 8.775,-4.5c0.225,-0.075 0.15,-0.3 0,-0.375Z"
          style="fill:#fffef5;fill-rule:nonzero;"/></svg>