<svg enable-background="new 0 0 1920 1080" viewBox="0 0 1920 1080" xmlns="http://www.w3.org/2000/svg"><ellipse cx="968" cy="607.9" fill="none" rx="273.8" ry="51.9" stroke="#40290a" stroke-miterlimit="10" stroke-width="3.2558"/><path d="m1234.6 609.4c0 22.4-120.3 43.6-266.3 43.6-89.8 0-171.7-10.1-219.5-20.5-29.9-6.5-47.5-14.5-47.5-23.1 0-22.4 118.4-40.7 264.4-40.7s268.9 18.3 268.9 40.7z" fill="#40290a" stroke="#40290a" stroke-miterlimit="10"/><path d="m1284.1 804.9c-19.9-5.8-41.9-11-65.7-15.5" fill="none" stroke="#40290a" stroke-miterlimit="10" stroke-width="2.6047"/><path d="m721.9 791.1c-106 21.4-174.9 56-174.9 95.1 0 65.1 191.4 117.9 427.5 117.9s427.5-52.9 427.5-118c0-24.6-27.4-47.5-74.3-66.4" fill="none" stroke="#40290a" stroke-miterlimit="10" stroke-width="2.6047"/><path d="m693.7 607.8c-4.5 55.7 1.1 111.6 19 164.6 15.7 46.7 39.9 90.9 72.4 128 8.9 10.1 18.4 19.6 28.7 28.2 9.5 7.8 19.8 15.9 31.3 20.3 1.5.6 2.2-1.7 1.1-2.5-9.4-6.7-19.3-12.5-28.2-19.9-8.9-7.3-17.3-15.4-25.1-23.9-16.6-18-30.9-38.1-43.2-59.2-25.6-43.8-42.3-92.9-49.8-143-4.6-30.7-5.8-61.7-4.6-92.7 0-1-1.5-.9-1.6.1z" fill="#40290a"/><path d="m1241.3 607.8c2.1 54.6-1.7 109.4-18.4 161.7-14.7 46.1-38.7 90.1-70.5 126.7-8.5 9.8-17.6 19.1-27.4 27.5-10 8.6-21 15.2-31.7 22.8-1.2.8-.5 3.1 1.1 2.5 10.2-3.9 19.3-10.7 27.8-17.5 9.2-7.3 17.8-15.4 25.9-24 16.8-17.9 31.4-38 44-59.1 26.6-44.6 43.6-94.1 49.9-145.7 3.9-31.5 3.5-63.4 1-95-.2-.9-1.7-1-1.7.1z" fill="#40290a"/><path d="m1248.1 637.7c31.6-10.4 69.1-11.6 99.6 3.4 29.2 14.4 39.9 48.1 40.3 78.7.3 30.4-11.1 59.3-34.3 79.3-12.2 10.5-26.3 18.7-40.1 26.7-13.1 7.6-26.5 14.9-40.2 21.3-15.1 7-30.7 12.7-46.9 16.5-17.3 4.1-34.9 5.3-52.6 6.4-2.5.2-2.4 3.6 0 3.8 31.9 3.3 64.6-5.3 93.8-17.8 15.1-6.4 29.6-14.1 43.8-22.2 14.6-8.4 29.4-16.8 42.6-27.4 25.1-20.1 38.7-49.2 39.7-81.3.9-29.4-8.1-63.9-33.6-81.3-15.5-10.6-35.5-15-54-16.3-20-1.4-39.6 1.2-58.3 8.3-1.3.6-.9 2.3.2 1.9z" fill="#40290a"/><path d="m1242.7 688.1c9-5.6 17.7-11.1 27.8-14.5 10.2-3.4 21-4.9 31.8-4.3 10.7.6 22.4 3.1 31.1 9.8 7.7 5.9 12.8 14.6 15.4 23.7 12.2 43-30.2 82.1-65.1 98.5-21.5 10.1-46.5 17.5-67.7 3.1-2.1-1.5-4.6 1.8-2.7 3.5 17.6 17 43.2 10.9 63.5 2.9 22.8-8.9 43.7-23.3 59.2-42.3 14.2-17.4 23.9-39.5 19.3-62.3-4.4-21.7-20.5-36-42.1-39.6-23.8-3.8-54.2 2.4-70.5 21.5-.1 0 0 0 0 0z" fill="#40290a"/><path d="m895.7 962.1c8.6 3 18.2 3.9 27.2 5 8.9 1.1 18 1.7 27 2.1 18.2.8 36.4.3 54.5-1.2 17.5-1.4 35.1-3.5 52.2-7.3 16.5-3.6 34.4-8.2 49-17 1.4-.9.5-3.4-1.2-2.8-8 2.8-15.7 6.4-23.8 9.1-8.2 2.8-16.6 5.1-25 7-17.4 3.9-35.3 6-53.1 7.7-17.5 1.6-35.1 2.3-52.6 1.8-9-.3-18-.9-27-1.7-9-.9-18.1-2.7-27.1-2.9-.3-.1-.3.2-.1.2z" fill="#40290a"/><path d="m817.4 929.4c12.5 12.9 30.4 21.4 47.1 27.5 17.2 6.2 36.9 11.2 55.3 9.7 1.7-.1 1.7-2.4 0-2.6-18.3-2.3-36-4.1-53.6-10.1-17.6-6.1-32.6-15.7-48.8-24.5 0-.1-.1-.1 0 0z" fill="#40290a"/><path d="m920.1 966.4c10.2 1.8 20.5 2.6 30.8 1.6 1.1-.1 1.2-1.9 0-1.8-10.3.2-20.5.5-30.8-.1-.1 0-.1.3 0 .3z" fill="#40290a"/><path d="m903.7 964.7c6.7 2.9 15.2 3.1 22.4 3.7 8.7.7 17.6 1.2 26.3.6 1.1-.1 1.1-1.6 0-1.7-8.1-.6-16.3-.6-24.4-1.2-7.8-.6-16.4-2.6-24.2-1.7-.2 0-.3.3-.1.3z" fill="#40290a"/><path d="m615.4 932.7c-1.3-.5-2.6-1-3.9-1.6 0 0-.1 0 0 .1l3.9 1.5c.1 0 .1 0 0 0z" fill="#40290a"/><path d="m579.1 910.2c36.6 29.9 83.9 44.8 129.3 55.6 47.7 11.4 96.6 16.9 145.4 20.3 28.5 1.9 57.1 3.1 85.6 4.1.5 0 .5-.8 0-.8-97.5-5.2-197.2-9.5-289.8-43.2-24.8-9-49.3-20.1-70.4-36.2-.1 0-.2.2-.1.2z" fill="#40290a"/><path d="m1267.6 831.5c27.4-6.9 52.5-20.4 72.9-40 .6-.6-.3-1.5-.9-.9-20.6 18.8-45.3 32.9-72.1 40.5-.4 0-.3.5.1.4z" fill="#40290a"/><path d="m1293.9 814.1c23.9-11.6 44.2-28.7 59.5-50.4.3-.4-.3-.7-.6-.3-15.8 20.8-36.3 37.9-59.6 49.6-.7.4 0 1.5.7 1.1z" fill="#40290a"/><path d="m1371.8 707.1c7.6 26.6-3.1 56.7-26 72.2-1 .7-.1 2.2.9 1.6 24.5-14.9 35.8-47 25.4-73.9 0-.2-.3-.1-.3.1z" fill="#40290a"/><path d="m1252.2 656.4c3.8-5.3 12.4-7.2 18.4-8.7 6.3-1.7 12.7-2.6 19.2-2.8 13-.5 25.1 2.4 37.4 6.4.7.2 1.1-.8.5-1.1-13-6.5-28.7-8.2-43-6.7-7.2.7-14.2 2.3-21 4.7-4.1 1.5-11 3.1-11.8 8.2-.1.1.2.2.3 0z" fill="#40290a"/><path d="m1269.3 661.8c11.6-2.2 22.4-5.2 34.4-4.7 11.7.5 23 3.3 33.8 7.7.8.3 1.3-1 .6-1.3-10.7-5.2-22.4-8.1-34.4-8.4-11.2-.3-24.6.8-34.6 6.4-.1.1 0 .3.2.3z" fill="#40290a"/><path d="m1260.4 642.8c7.2-.7 14.1-2.9 21.3-3.3 7.8-.5 15.6.3 23.2 1.8 1 .2 1.5-1.3.4-1.6-7.8-1.8-15.7-2.6-23.7-2.1-7 .4-15.2 1.4-21.4 5 .1 0 .1.2.2.2z" fill="#40290a"/><path d="m1285.9 651c12.7-.1 24.8.1 37.3 2.6.9.2 1.3-1.1.4-1.4-12.2-2.7-25.4-3.8-37.7-1.2z" fill="#40290a"/><path d="m1375.7 757.2c-8.4 24.1-31.1 39.7-51.2 53.6-.9.6-.1 2.2.9 1.5 21.5-14.1 42.9-29.3 50.3-55.1z" fill="#40290a"/><path d="m1245.8 679.1c2.8-.9 5.1-2.6 7.6-4 3.7-2 7.5-3.7 11.3-5.2 6.6-2.6 13.5-4.2 20.5-5.4 1-.2.8-2-.3-1.9-7.4.8-14.7 2.7-21.6 5.4-5.9 2.3-13.9 5.4-17.9 10.4-.2.4 0 .8.4.7z" fill="#40290a"/><path d="m1244.7 666.7c5.5-1.8 10.5-4.8 16-6.7s11.2-3.4 17-4.3c1-.2.8-1.9-.2-1.8-11 1.3-24.7 4.5-33 12.5-.2.1 0 .3.2.3z" fill="#40290a"/><path d="m1247.1 650.6c3.2-.6 6.1-2.2 9.1-3.3 3.1-1.1 6.3-1.9 9.5-2.5.9-.2.5-1.6-.4-1.4-6 .9-14 2.5-18.3 7.1 0 .1 0 .1.1.1z" fill="#40290a"/><path d="m1246.6 642.7c11.5-3.8 22.5-7.3 34.6-8 .8 0 .8-1.3 0-1.3-11.9.6-24.4 2.8-34.8 8.9-.2.2-.1.5.2.4z" fill="#40290a"/><path d="m1200.9 846.8c2 3.4 5.4 4.1 9.2 4.4 6.7.5 13.5.2 20.1-.4 12.9-1.2 25.5-4.5 37.5-9.5 1.4-.6.8-2.9-.6-2.4-10.3 4-20.8 6.9-31.7 8.6-5.6.9-11.3 1.3-17 1.5-5.4.1-12.6.9-17.1-2.6-.3-.1-.5.2-.4.4z" fill="#40290a"/><path d="m1202.4 834.7c3.2 4.1 10 2.5 14.5 2.1 7.6-.7 15-2.1 22.3-4.1.7-.2.4-1.3-.3-1.1-5.5 1.4-11 2.6-16.6 3.5-4.8.7-15.9 3.7-19.8-.4 0-.2-.1-.1-.1 0z" fill="#40290a"/><path d="m1189.4 863.4c11.6 0 22.9-1.5 34.1-4.6.6-.2.3-1-.2-.9-11.1 2.9-22.4 4.6-33.8 4.8-.5.1-.5.7-.1.7z" fill="#40290a"/><path d="m705.1 636.4c-3.8 37.2 1.9 76 12 111.8 10.2 36.3 26.2 71.1 47.3 102.3 11.9 17.5 25.2 34.3 40.5 48.9 1.2 1.1 2.8-.6 1.8-1.8-25-27.7-46.7-57.6-63.2-91.3-16.4-33.6-27.8-69.7-33.3-106.6-3.1-21.1-4.1-42.1-4.6-63.4 0-.2-.5-.2-.5.1z" fill="#40290a"/><path d="m718.4 687.3c-2.3 25.8 6.1 53.3 15.7 76.9 10.2 25.1 23.6 48.6 37.8 71.6.7 1.1 2.4.1 1.8-1-12.6-23.3-26.1-46.3-36.4-70.7-5-11.9-9.3-24.2-12.5-36.8-3.4-13.2-4.6-26.5-6-40 0-.2-.3-.2-.4 0z" fill="#40290a"/><path d="m715.7 640.6c-3.4 11.2-1.3 25 .9 36.4.3 1.4 2.3.8 2.1-.6-.9-6.1-1.5-12.3-1.7-18.6-.2-5.7.6-11.4.2-17-.2-.8-1.3-1-1.5-.2z" fill="#40290a"/><path d="m738 700.1c-.5 9.4 2.5 19.6 4.9 28.6 2.5 9.9 5.7 19.6 9.5 29.1 7.2 18 16.9 35.6 29.3 50.5.9 1.1 2.8-.3 2-1.6-10.8-16.1-20.7-32.4-28.4-50.2-3.9-9-7.2-18.2-10-27.6-2.7-9.4-3.8-19.6-7-28.9-.1-.1-.3-.1-.3.1z" fill="#40290a"/><path d="m785.8 843.3c-.1-.8-.2-1.6-.3-2.4.1-1.4-2.3-1.3-2 .3 1.7 7.5 5.4 14.8 8.9 21.7 3.6 7.1 7.6 14 12.1 20.6 9 13.1 19.6 24.9 32 34.9 1.5 1.2 3.6-.8 2.1-2.1-11.6-10.6-22.4-22.3-31.4-35.3-4.4-6.3-8.5-12.9-12.1-19.7s-6.2-14.1-9.8-20.8c-.5.4-1 .8-1.6 1.2.5.7.9 1.3 1.4 2 .2.2.8 0 .7-.4z" fill="#40290a"/><path d="m752.2 771.7c6 19.7 14.2 38.7 25.6 55.8.7 1 2.3.1 1.6-1-10.9-17.4-20.3-35.5-26.9-55 0-.1-.4-.1-.3.2z" fill="#40290a"/><path d="m798.6 841.1c10.2 33.8 32.7 65 59.1 88 1.2 1 2.9-.6 1.8-1.8-12.9-12.4-24.6-26-34.8-40.8-9.9-14.5-17.6-30.1-25-45.9-.3-.6-1.3-.2-1.1.5z" fill="#40290a"/><path d="m1235.2 637.7c-3 19.2-5.1 38.5-9 57.6s-8.9 38-15 56.5c-12.3 37.5-28.4 73.6-48.5 107.6-11.2 18.9-23.7 37.2-37 54.7-.8 1.1 1 2.6 1.9 1.5 49.6-61.1 83.4-135.2 99.2-212.2 4.4-21.5 8.3-43.7 8.6-65.7.1-.1-.1-.2-.2 0z" fill="#40290a"/><path d="m1218.5 663.4c-10.7 73.1-37.7 142-76.3 204.8-.6 1 .9 1.8 1.5.9 42-60.5 67-132.6 75-205.6.1-.2-.2-.3-.2-.1z" fill="#40290a"/><path d="m1143.9 874.1c-19.4 27.5-43.1 51.6-70 71.8-.8.6-.1 2 .8 1.4 27.9-19.3 51.5-44.3 69.5-73 .2-.2-.1-.4-.3-.2z" fill="#40290a"/><path d="m1199 689.9c-8.2 36.9-21.6 72.8-39.2 106.2-.7 1.4 1.3 2.6 2.1 1.2 18.4-33.6 30.7-69.6 37.5-107.3 0-.2-.4-.3-.4-.1z" fill="#40290a"/><path d="m1225.9 642c-1 7.4-.3 14.9-1 22.4-.8 8.5-2.5 16.9-4.8 25.2-.5 1.7 2.1 2.4 2.6.7 2.3-7.9 4-15.9 4.8-24 .7-7.8 1.5-16.6-.9-24.2-.1-.4-.7-.5-.7-.1z" fill="#40290a"/><path d="m1210.6 649.6c-3.7 21.8-6.7 43.7-11.4 65.4-4.7 21.6-10.6 43.1-17.3 64.1-.3 1.1 1.3 1.5 1.6.5 7.7-21.2 13.8-42.8 18.5-64.8 4.6-21.4 8.4-43.2 9.2-65.1.2-.4-.5-.6-.6-.1z" fill="#40290a"/><path d="m1217.9 758.5c-10.9 35.4-27.4 68.1-46.8 99.6-.4.6.6 1.1.9.6 21-30.3 35.8-65 45.9-100.2z" fill="#40290a"/><path d="m1196.1 657.1c-10.3 60.4-29.4 118.7-58.4 172.7-8.2 15.2-17.1 30-26.6 44.4-.5.8.7 1.4 1.2.7 35.1-50.5 60.7-107.8 75.3-167.5 4.1-16.6 7.2-33.3 9.4-50.2 0-.5-.8-.6-.9-.1z" fill="#40290a"/><path d="m812.7 902.9c-.6 4.7 2.9 9.1 5.8 12.5 4.2 5 9.1 9.3 14.1 13.5 10 8.2 20.8 15.1 32.7 20.2.8.3 1.5-.7.7-1.2-10.7-5.6-21-12-30.4-19.5-4.3-3.4-8.4-7.1-12.3-10.9-2.2-2.2-4.4-4.5-6.1-7.1-1.6-2.4-2.5-5.1-4.2-7.5 0-.2-.3-.1-.3 0z" fill="#40290a"/><path d="m1188.7 879c-6.2 4.5-11.7 10.3-17.4 15.4-6.4 5.8-12.8 11.6-19.3 17.4-12.7 11.3-25.7 22.2-38.1 33.8-.6.6.3 1.4.9.9 13.1-10.3 25.5-21.6 37.9-32.7 6.2-5.6 12.4-11.1 18.6-16.8 6.1-5.5 12.8-11 18.1-17.3.4-.3-.1-1.1-.7-.7z" fill="#40290a"/><path d="m1215.5 877.6c-15.5 10.9-30.3 22.6-45.5 33.7-7.4 5.4-14.7 10.8-22.1 16.2s-15.2 10.4-22.1 16.4c-.5.4.1 1.1.6.8 8.4-4.8 16.2-11.1 24.1-16.8 7.4-5.4 14.8-10.8 22.1-16.3 14.6-11 29.4-21.9 43.3-33.8 0 0-.2-.4-.4-.2z" fill="#40290a"/><path d="m1246.1 870.5c-18.4 10-35.7 22.7-52.9 34.6-16.9 11.6-33.8 23.4-49.8 36.2-.8.6.2 2 1.1 1.4 17-11.8 33.6-24.4 50.6-36.3s34.9-22.7 51.4-35.2c.4-.3 0-1-.4-.7z" fill="#40290a"/><path d="m1269.3 864.1c-18.1 14.1-35.9 28.4-53.9 42.6-18 14.1-36.5 27.6-54.2 42-.7.6.2 1.8 1 1.3 18.6-12.8 36.3-27.1 54-41.2 18.2-14.4 36.2-29 53.6-44.2.2-.3-.2-.7-.5-.5z" fill="#40290a"/><path d="m1298 855.8c-18.4 13.3-36.3 27-54.4 40.8-17.5 13.4-35.7 26.3-52.3 40.9-.6.5.2 1.5.9 1.1 18.3-12.2 35.4-26.6 52.9-40.1 17.9-13.9 35.8-27.8 53.3-42.1.4-.2 0-.8-.4-.6z" fill="#40290a"/><path d="m1302.7 864.5c-20.4 18.1-41.7 34.6-64.2 50-1 .7-.1 2.2.9 1.6 23.2-14.2 44.8-31.6 63.7-51.1.4-.3 0-.8-.4-.5z" fill="#40290a"/><path d="m1319.4 864.7c-13.6 11.8-27.6 23.1-41.5 34.7-.5.4.2 1.4.7 1 14.5-10.8 28.1-22.8 41.3-35 .6-.5 0-1-.5-.7z" fill="#40290a"/><path d="m1333.6 863.8c-13.3 10.1-26.4 20.3-39.6 30.5-1.1.9.5 2.5 1.6 1.6 13-10.3 25.9-20.6 38.8-31.1.6-.5-.2-1.5-.8-1z" fill="#40290a"/><path d="m1347 866.1c-12.3 8.7-24.5 17.7-36.6 26.6-1.5 1.1 0 3.6 1.4 2.5 12.1-9.2 24.2-18.5 36.1-27.9.6-.5-.2-1.6-.9-1.2z" fill="#40290a"/><path d="m1362.7 868.4c-13.2 7.8-27.8 15.9-38.8 26.6-.7.7.2 1.9 1.1 1.4 6.7-3.9 12.8-9 19.1-13.4 6.4-4.5 12.9-8.8 19.5-13 1-.6.1-2.2-.9-1.6z" fill="#40290a"/><path d="m1372.1 870.4c-10 7.9-21.6 15.2-30.4 24.5-.9.9.2 2.5 1.4 1.8 11.1-6.4 20.6-16.7 29.8-25.5.7-.5-.2-1.3-.8-.8z" fill="#40290a"/><path d="m1387 874c-10 7.2-20.1 14.4-29.9 21.8-.8.6 0 2 .8 1.4 10.1-7.2 19.9-14.6 29.7-22.1.7-.5.1-1.6-.6-1.1z" fill="#40290a"/><g fill="#778a17"><path d="m903 608.6c-5.5-6.1-11.1-11.7-15.6-18.6-4.4-6.6-8-13.7-10.8-21.2-6-15.9-8.7-32.7-11.4-49.4-2.9-18-6.3-36.2-13.5-53-7.5-17.4-20.2-31.7-28.7-48.5-9.5-18.8-15.7-39.7-19-60.5-.4-2.6-4.7-2-4.5.6 1.1 18.8 5.3 36.7 12.7 54.1 3.8 8.9 8.2 17.5 13.2 25.7 5.2 8.5 11.1 16.7 15.7 25.6 17.4 33.5 14.6 73.3 28.8 107.9 6.2 15.2 16 32.6 31.9 39.2 1.3.7 2-1.1 1.2-1.9z"/><path d="m874.2 564.4c-9.6-26.3 20.1-44.4 37.7-57.2 9.8-7.2 19.7-14.4 30.1-20.7 11-6.6 22.3-11 34.7-13.8 1.4-.3 1.1-2.6-.3-2.5-12.8 1.1-25 7.2-35.8 13.9-12.6 7.7-24.3 16.8-36.1 25.6-16.4 12.2-42.4 31.1-30.3 54.7-.1.1 0 .1 0 0z"/><path d="m878.9 533.8c-1.5-4.7-5.2-7.1-8.4-10.6-1.5-1.6-3.4-4.3-3.1-6.6.7-1.1 1.3-2.2 2-3.3.2.2.3.4.5.6.7 0 1.3 1 2.4.8 1.3-.2 1.5-1.1 2.3-1.8 2.8-2.4-6.7-3.9 5.9-3.8 1.1 0 2.2.6 3.3.7 3 .5 5.5 0 7.9-1.9 3.1-2.4 5-5.9 7.9-8.4 4.6-4.2 9.8-.8 14.9-3.1 4.6-2 7.3-6.2 12.4-7.5 4.8-1.2 9.7-.7 13.8-3.7 1.4-1.1.2-3.3-1.4-2.4-5.1 2.7-11 1.9-16.2 4.2-2.2 1-3.9 2.5-5.7 4.1-3.4 2.8-5.6 3.6-10.1 3.4-4.2-.1-7.1 1.1-10 4.2-3.6 3.9-6.2 9.9-12.4 9.6-3.3-.2-7.5-2.4-10.2.6-1.3 1.5-.4 1.9-2.5 2.3-2.7.5-.6-.3-2.2-.4-1.3-.1-1.1-.7-2.6.3-2.9 2.1-2.3 6.6-1.1 9.3 2.6 5.9 9 8.3 12.4 13.5 0 .2.3.1.2-.1z"/><path d="m906.5 496.1c3.7-5.6 9.6-8.1 13.6-13.2 2-2.5 3.8-5.2 5.7-7.8 3.5-4.7 5.7-9.8 12.5-9.6 3.5.1 5.7.7 8.4 3 1.6 1.3 2.7 2.3 4.7 3.1 5.8 2.2 13.2 3.8 19.1 1.4 1.5-.6 1.5-3.1-.4-3-5.2.3-9.9.3-15-.9-2.6-.6-4.5-1.3-6.5-3.3-.7-.8-1-1.7-1.9-2.3-2.4-1.7-5.7-.7-8.5-1.1-2.6-.4-4.6-.5-6.9 1.1-2.4 1.7-4.1 4.7-5.7 7-2.5 3.6-5 7.3-7.7 10.8-4.3 5.6-10.9 6.9-11.7 14.7.1.1.3.1.3.1z"/><path d="m854.7 490c-1.5-26.5 20.9-44 31-66.2 2.1-4.5 3.5-9.2 4.5-14.1 1.1-5.3 1.9-10.9 4.7-15.6 2.7-4.6 7.8-6.6 10.8-10.8 1-1.4 1.7-2.9 2.1-4.6.3-1.1.1-3.1.7-4.1 1.4-1.1 2.8-2.2 4.2-3.3 2.4 1 3.9 2.6 4.6 4.8.5 1.3 2.6 1.6 2.9 0 .9-4.5-2.9-8.7-7.5-8.8-5.5-.1-7.6 4.3-8.6 8.9-1.6 7.1-8.9 9.2-12.7 15-3.5 5.3-4.6 11.8-5.9 17.9-3.3 15.4-12.3 27.2-20.7 40.2-7.8 12.1-14.5 26.2-10.8 40.8.2.3.7.2.7-.1z"/><path d="m887.7 417.8c2.5-3.3 3.8-7.4 6.2-10.8 3-4.3 6.8-7.9 11.3-10.6 3.4-2.1 7.2-3.9 9.7-7.2 1-1.3 1.8-2.8 2.2-4.4.5-2-1-8 1.3-8.9 1.7-.7 1.1-3-.7-2.7-4.4.6-4.3 4.4-4.3 8-.1 7.7-8.3 10.2-13.5 14.2-6.2 4.8-13.7 14-12.6 22.4 0 .2.3.2.4 0z"/><path d="m853.5 493.7c3.4-5.7 7.6-10.4 12.6-14.7 1-.8-.3-2.3-1.3-1.7-6.2 3.3-10.4 9.4-11.7 16.2-.1.3.3.5.4.2z"/><path d="m864.5 483c2.6-6.2 3.6-12.3 8.2-17.6 3.7-4.3 8.9-6.7 13-10.6s5.8-10.7 10.8-13.4c5.2-2.8 11.7-1.2 17.1-3.1 2.1-.7 3.4-2.1 5.2-3.1 3.7-2.1 5.9.1 9.2 1.4 1.7.6 3.2 1 4.9.8 2.5-.2 4.3-1.8 7-.4 1.3.7 2.5 2.3 3.6 3.3 9.4 9 17.8 18.1 25.8 28.4 1.6 2.1 4.7-.6 3.5-2.7-3.6-6.9-9-12.3-14.5-17.7-4.8-4.8-9.7-10-15-14.1-2.2-1.7-4.3-2.5-7.1-2-2.2.4-3.3 1.3-5.7.9-1.6-.3-3.1-1.4-4.6-2.1-1.8-.8-3.6-1.4-5.6-1.1-3.4.5-5.4 3.7-8.6 4.8-5.7 1.9-12 .4-17.4 3.4-6 3.3-7.6 10.8-12.6 15.1-4.8 4.2-10 7.3-13.6 12.8-3.1 4.6-5.9 11.5-4.5 17.1.2.3.8.2.9-.1z"/><path d="m861.2 483.8c.3 3.2 2 6.6 5 8.2 4.3 2.4 8.3-.1 12.4-1.5 6.3-2.2 11.9 1.6 18.1.6 1.8-.3 3.1-1.2 4.8-1.7 4.3-1.4 7.4.6 11.6.2 1.3-.1 1.4-2.2 0-2.1-4.2.3-7.6-2.1-11.8-.6-3.1 1.1-5.4 2.1-8.8 1.5-2.4-.4-4.6-1.3-7-1.6-3.9-.6-7 .4-10.6 1.8-3 1.1-6.1 2-8.8-.3-1.6-1.4-2.5-3.3-4-4.8-.3-.3-.9-.2-.9.3z"/><path d="m780.2 572.1c6.2 2.5 11.8-1.7 16.9-5 6.6-4.3 13.5-8.3 20.7-11.5 7.6-3.4 15.6-6 23.8-7.4 8.6-1.5 16.7-.8 25.3-.8 2.2 0 2.8-3.4.5-3.9-14.2-3.2-31.1 1.8-44.2 7.1-6.9 2.8-13.6 6.1-19.9 10-7 4.2-14.5 11.9-23.1 11.4-.1-.1-.1.1 0 .1z"/><path d="m783.1 573.8c-3.9-3.8 4-9.5 6.7-11.8 2.8-2.4 5.7-4.9 7.4-8.2 2-3.8 1.5-8 1.8-12.2.3-3.9 1.4-7 5.6-8.2 2.5-.7 5.2-.7 7.7-1.7 4.3-1.8 4.9-5.9 8.1-8.8 3.7-3.4 9.4-1.4 13.8-3 4.3-1.6 3.8-6 7.3-8.3 6.1-4 12.9 2.7 17.9 5.4 2 1.1 3.6-1.7 1.8-3-7.3-5.1-19.2-11.2-24.8-.7-2 3.8-3.9 4.2-7.9 4.5-2.2.2-4.4.1-6.5.8-5.7 1.9-6.3 8.9-11.9 10.7-4.6 1.5-9.7.8-12.6 5.5-2.6 4.3-1.1 9.6-2.1 14.3-2 9.7-14.4 12.9-15.4 23.1 0 .2.1.4.3.5l2.4 1.5c.4.2.6-.2.4-.4z"/><path d="m699.7 565c.9-3.3 1.7-6.9 3.4-9.8 2.7-4.6 7.1-5.1 11.9-4.7 5.8.5 10.8 1.2 15.3-3.2 2.4-2.4 4-5.8 7-7.5 4.1-2.3 8.6-.2 12.9-.4 6.4-.3 9.1-5 13.4-9 5.7-5.3 14.4-3.7 20.8-8 5.5-3.7 9.2-9.2 14.1-13.6 5.8-5.2 12.9-8.9 20.5-10.8 8.1-2 14.9-.4 23-.4 2 0 3.2-3.2 1.1-4.1-6.5-2.9-14.7-2-21.5-.7-7.7 1.5-15.2 4.6-21.5 9.2-5.9 4.3-10 10.1-15.3 15-3.8 3.5-7.7 4.8-12.6 5.9-3.4.8-6.6 1.6-9.4 3.9-2.8 2.2-4.5 5.5-7.2 7.7-4.5 3.7-9.6 1.1-14.7 1.7-6.8.7-8.5 6.5-13.2 10.4-6.6 5.4-15.7-1.2-22.7 3.5-4.9 3.3-5.7 9.6-5.7 15-.1.2.3.2.4-.1z"/><path d="m705.4 549c2-8 .6-15.6.7-23.7.1-9.7 5.4-15.8 12.4-21.9 7.2-6.3 15.2-11.5 23.1-16.9 4-2.7 7.2-5.3 12.2-5.1 3.9.2 7.6 1.4 11.5.8 7.7-1.2 12.3-9.1 20.8-7.3 3.8.8 7.2 2.7 10.8 3.8 3.8 1.2 8.3.8 11.8 2.7 3.4 1.9 5.7 5.4 8.6 7.9 2.4 2.1 5.1 3.8 8.1 5.2 6.1 2.8 12.8 3.4 19.1 1.2 1.2-.4 1-2.1-.3-2.1-8.9-.3-17.9-2.4-24.7-8.6-2.6-2.4-4.8-5.3-7.8-7.3-3.3-2.1-6.7-2.1-10.4-2.7-7.6-1.3-14.8-6.2-22.8-3.6-3.3 1.1-5.9 3.4-8.8 5.1-4.5 2.6-8.4 2.1-13.4 1.5-8.8-1-14.1 3.6-21 8.4-7.6 5.3-15.3 10.6-22 17-5.4 5.2-9.7 10.9-10.4 18.7-.8 9.1 2.9 17.9 2.4 27-.1 0 .1 0 .1-.1z"/><path d="m839.2 483.4c-19.2-9.7-40.2-15-60.7-21-10.7-3.1-21.3-6.7-31.3-11.6-8.3-4.1-16.9-10.7-26.7-9.2-.6.1-.4 1 .1 1 11-.1 20.4 8 30.1 12.3 9 4 18.5 7.1 27.9 10 20.2 6 40.9 10.2 60.2 19.1.5.1.8-.5.4-.6z"/><path d="m745.3 444c-.5 1.6-.4.9-.3 2.5.1.8 1.3.8 1.2 0-.4-5.7-.3-10 2.5-15.1 1.8-3.4 4.2-6.4 6.3-9.6 4.1-6.2 5.4-12.6 7.9-19.6 1.8-4.9 4.5-7.6 8.9-10.3 2.6-1.6 4.9-3.3 6.8-5.9 3.6-4.8 6.7-11.4 8.9-16.9.4-1-1-2.1-1.9-1.5-6.1 4.4-6.3 13.4-11.7 18.6-2.8 2.7-6.7 4.1-9.4 7-2.4 2.5-3.8 5.7-4.8 8.9-1.3 4.2-2 8.6-3.9 12.6-1.8 4-4.5 7.5-6.8 11.2-3.6 5.6-7.9 14.5-3.9 20.9.3-.2.7-.4 1-.6-.2-.8-.5-1.5-.8-2.2.1-.1 0-.1 0 0z"/><path d="m708.8 431.3c-.1-5.6 1.2-11.5 5.7-15.2 2.5-2.1 6.6-3.4 7-7.2.3-2.7-1.1-5.2-.7-8 .5-3 2.3-5.8 3.8-8.4 2.4-4.3 5-8.6 8.5-12.3 4.1-4.3 9-6.8 15-7 5.2-.2 10.3.8 15.5-.1 10.4-1.7 20.6-12.6 31.2-6 1.8 1.1 4-1.6 2.3-3-9.6-8.4-21 .7-30.6 3.9-6.8 2.3-13.8.5-20.8 1.4-5.6.7-10.4 3.3-14.3 7.3-3.9 3.9-6.8 8.7-9.5 13.5-2.5 4.5-5.4 9.4-4.5 14.7.8 4.9-1.2 5.8-4.5 8.5-1.9 1.6-3.4 3.5-4.5 5.7-1.9 4-2.2 8.3-.1 12.3.2.2.5.1.5-.1z"/><path d="m634.7 453.7c-.6 3.2 2.4 5 5.2 5.6 2.5.6 5.1-.1 7.6-.1 3.2-.1 5.8.8 8.6 2.4 7.8 4.7 13.9 11.2 23 5.3 3.2-2.1 5.9-4.1 9.9-4.4 3-.3 6.1.1 9.1-.3 5-.6 8.7-3.1 12.6-6.1 5.8-4.5 10.3-6.3 17.6-4.2 4.9 1.4 10 3.6 14.8 1.2 1.7-.8.8-3.6-1-3.5-5.6 0-10.2-1.7-15.7-2.8-3.9-.8-7.7-.7-11.3 1.2-3.9 2.1-6.8 5.5-10.4 8.1-5.5 4-11.4 2.5-17.6 3.6-5 .9-8 4.8-12.6 6.4-5.1 1.8-9.4-1.6-13.4-4.4-3.1-2.1-6.3-4.4-10.1-5-6.2-1-10.9 2.3-15.8-3.1-.1-.2-.4-.1-.5.1z"/><path d="m648.3 455.6c6.7-.2 10.8-9.2 14.5-13.6 4-4.8 7.7-5 13.7-5 4.3 0 7.5-1.2 11-3.8 3.4-2.5 6.8-6.7 11.2-7.3 5.5-.8 9.8 4.9 14.8 6.4 5.6 1.7 10.9 2.8 15.9 5.9 5.2 3.2 9.5 7.6 13.3 12.3 1.2 1.5 3.6-.4 2.6-2-5.9-9.1-15.6-15.4-26-18.3-3.5-1-6.7-1.6-9.8-3.7-2.2-1.4-4.3-3.1-6.9-3.8-3.9-1.1-7.5.3-10.7 2.6-4 2.8-7.3 7.2-12.3 8.3-5.5 1.2-10.3-.9-15.2 2.7-3.1 2.2-5.1 5.5-7.1 8.6-2.6 4.2-5.4 7.1-9.2 10.2-.3.1-.1.5.2.5z"/><path d="m844.5 495.8c1.7.6 3.1 1.4 4.4 2.5 1.1.9 2.1 2.1 3.2 3 .5.4 1.2-.1.9-.7-1.5-3-5.4-4.5-8.4-5.1-.2-.1-.3.2-.1.3z"/><path d="m828.8 493.3c4.6 1.8 9.9 1.8 14.6 3.3 5 1.5 8.9 4.2 13.3 6.8.9.5 1.7-.5 1.3-1.3-2.1-4.7-7.4-6.8-12-8.3-5.3-1.7-11.9-3.4-17.3-1.2-.2.2-.3.6.1.7z"/><path d="m810.3 473.7c8.7 3.3 17.5 6.5 25.9 10.5 8.1 3.8 14.2 9.5 21.4 14.6.8.6 1.8-.5 1.3-1.3-4.3-7.6-13.5-12.5-21.2-16-8.8-4-18-6.2-27.4-8.2-.2 0-.3.4 0 .4z"/><path d="m774.6 348.6c-.4-3 1.1-3.8 4.6-2.5 2.8-1.4 4.3-1.1 4.6 1 .4.6.5 1.3.9 1.9.7 1 1.6 1.7 2.9 1.8 2.5.2 3.6-2.1 4.6-4.1 4-8.3 8.8-.7 13.5 2.1 1.6.9 3.3 1.5 5.2 1.3 2.6-.2 4.9-2.4 7.5-2.4 4.3.1 7.6 4.9 11.6 6.3 4.8 1.6 7.8-1.2 12.2-2.3 6.5-1.5 12.5 4.5 18.7 5.7 4.3.9 8.1.1 11.4-2.7.6-.5 1-1.7.7-2.5-1.5-3.7-2.1-7.5-1.3-11.5.8-3.8 3-6.1 4.8-9.3 2.3-4 1.9-7.8.2-11.9-1.1-2.5-2.8-4.9-3.5-7.6-.9-3.3 1-5.3 1.1-8.4.2-4.3-3.4-7.8-7.1-9.3-10.9-4.4-20.9 5.2-28.8 11.4-10.5 8.4-20.3 17.1-26.8 29-1 1.8 1.7 3.4 2.8 1.6 6.5-9.9 15.3-18.2 24.3-25.7 4.4-3.7 8.8-7.7 13.8-10.7 4.4-2.7 14.1-5.4 16.9 1.2 1.1 2.6-.6 4.9-.9 7.6-.1 1.7.2 3.3.7 4.9 1.4 4.2 5.6 8.8 4.4 13.5-.7 2.5-3.1 4.5-4.4 6.7-1.1 1.9-2 4.1-2.5 6.3-1.1 4.9-.3 9.5 1.6 14.1.1-1 .3-2.1.4-3.1-5.7 5-14.2-2.2-19.9-3.9-2.6-.7-5.3-1-7.9-.3-3.1.8-5.8 3.6-9.2 2.9-4.5-.9-7.4-5.5-12.2-6-2.3-.3-3.8.7-5.9 1.3-3 .8-5.5 1.1-8.1-1-1.1-.9-2.1-1.9-3.3-2.8-2.9-2.1-7.1-3.5-10.1-.9-1.1.9-1.7 2.2-2.3 3.5-.3.7-.9 3.1-1.4 3.3-1.2.4-2.5-2.8-3.1-3.4-2.1-2.5-5-4.4-8.4-2.8-3.1 1.4-3.9 4.8-2.7 7.7.2.2.4.1.4 0z"/><path d="m785.8 341.9c4.7-2.6 9.7-3.7 15-3.7 5 0 9 1.8 13.7 3.1.9.3 1.9-1.1 1-1.8-8.6-6.8-21.9-4.1-30 2-.2.2 0 .6.3.4z"/><path d="m803.4 375.8c-1.8-12-9.4-23.7-20.6-29-1.3-.6-2.3 1.1-1.1 1.9 10 7 17.4 15.5 21.4 27.2.1.2.4.1.3-.1z"/><path d="m788.4 348.1c3.6 1.8 7 2.7 9.9 5.7 3 3.1 4.8 7.1 7.3 10.7.7.9 2.5.4 2-.8-2.5-6.5-10.4-19.1-19.1-16.1-.2 0-.3.4-.1.5z"/><path d="m807.1 365.7c.8-3.5.8-7 1.9-10.5 1.2-3.8 3.4-7 5.6-10.3 1-1.6-1.2-2.9-2.4-1.9-5.9 4.6-9.8 15.8-5.7 22.7.2.3.6.2.6 0z"/><path d="m779.9 346.6c-9.6-1.1-17.3-4.1-23.8-11.6-4.8-5.4-7.9-12.9-15.9-14.3-.4-.1-.7.4-.3.7 4.6 3.5 8 6.7 11.4 11.4 2.3 3.3 5 6.3 8.2 8.9 5.5 4.4 13.5 7.9 20.5 5.2.2 0 .1-.3-.1-.3z"/><path d="m742.4 319.9c3.9.9 8 .9 11.9 1.8 4.1 1 8 2.8 11.5 5.1 7.3 4.8 12.2 12 18.8 17.5.6.5 1.6-.1 1.2-.9-4.4-7.4-11.4-14.2-18.6-18.8-7.7-5-15.6-6.5-24.6-5.5-.5.2-.6.7-.2.8z"/><path d="m789 343.1c3.3-11.9-6.2-27.4-16.8-32.5-.9-.4-1.9.7-1.1 1.4 4.6 4.2 9 8.2 11.9 13.8 3 5.6 3.9 11.3 5.7 17.3.1.2.3.2.3 0z"/><path d="m703.3 257.8c-2 1.8-.5 3.5.9 5.3 3.7 4.5 5 8.8 6 14.5 1.7 9.1 4.3 16.3 12.3 21.7 3.6 2.4 7.7 4.1 11.7 5.8 5.4 2.3 10.6 4.9 16 7.4 8 3.8 18.4 6.7 25.8.2 1.5-1.3-.4-3.7-2.1-2.7-9.4 5.9-18.6 1.3-27.5-3.1-7.1-3.5-14.9-5.8-21.7-10-7.9-5-10-12.1-11.7-20.8-.6-3.2-1.3-6.5-2.8-9.4-1.4-2.8-6.4-6-6.7-8.8 0-.1-.1-.2-.2-.1z"/><path d="m780.8 313.9c-.5-2.1-1.4-4-1.7-6.2-.3-2.3-.3-4.7-.5-7-.4-3.8-1.2-7.3-3.2-10.6-2.1-3.4-5.1-6.2-7.7-9.2-3.2-3.9-4.6-8.7-7.7-12.6-5.5-6.9-16.2-8.3-24.2-9.7-10.4-1.9-21.6-3.6-32.1-1.7-2 .4-1.3 3.1.4 3.2 10.9 1.1 21.6.6 32.5 2.7 4.6.9 9.4 1.8 13.8 3.7 5.4 2.3 7.3 6.1 9.8 11.1 3.6 7 11.1 11.8 13.4 19.5 1.5 5.2.6 14.8 6.9 17.2.2 0 .3-.2.3-.4z"/><path d="m802.1 335.6c.8-3.6.6-7.3 1.1-11s1.5-7.3 1.7-11c.1-1-1.5-1.5-2-.5-3 6.1-4.1 16.1-1.8 22.5.1.4.8.5 1 0z"/><path d="m802.2 320.8c5.9-5.8 11-13.3 10-22-.9-7.7-5.1-17.4-10.8-22.7-1-.9-2.7.3-1.9 1.4 4.1 5.8 7.3 13.1 9 20.1 2 8.5-3 15.6-6.6 22.9-.2.2.1.5.3.3z"/><path d="m801.1 317.2c-.4-10.3-4.5-20.5-4.4-30.7.1-7.9 4.2-16-1.8-22.8-1-1.1-2.4.3-1.9 1.4 2.2 5.1.6 10.4-.2 15.6-.5 3.6-.5 7 .1 10.5 1.4 8.7 4.2 18 7.8 26 .1.2.4.1.4 0z"/><path d="m786.5 319.6c-2.3-7.5-1.2-15.5 1.4-22.8 2.4-7 6.5-13.6 7.6-20.9.2-1.6-2-2.9-2.8-1.2-6.3 12.8-16.7 31.8-6.5 45 0 .2.4.1.3-.1z"/><path d="m775.7 306.3c-1.2-7.9-3.5-16-2.7-24.1.8-8.3 5.7-14.5 11.4-20.2 8-7.9 18.8-17.6 15.9-30.2-.4-1.6-3-1.3-2.9.4 1 16.5-15 23.9-23.1 35.9-7.9 11.7-4.7 26.5.9 38.4.1.4.5.2.5-.2z"/><path d="m797.8 236.8c-.6 5.6-.6 11.1-1.7 16.7-1 5.1-2.8 9.8-4.7 14.6-.4.9 1.1 1.5 1.6.7 5-9.2 8.1-21.7 5.1-32-.1-.2-.3-.1-.3 0z"/><path d="m805.4 278.8c-.2-4 5.7-7.8 7.3-11.4 1.5-3.5 1.5-7.2.5-10.8-.4-1.4-2.7-1.2-2.6.4.3 5.7-1.7 9.7-4.9 14.2-2 2.9-2.6 4.8-.8 7.9 0 .1.5 0 .5-.3z"/><path d="m810.3 256.6c.6 4.8 1.1 9.5 2.1 14.2 1.1 5.6 1.9 11.7-2.5 16.2-1.1 1.2.3 3.1 1.7 2.3 11.6-6.9 3-23.6-.4-32.9-.2-.4-1-.4-.9.2z"/><path d="m1024.1 592c4.5-42.8 52.9-55.2 84.6-72.9 17.5-9.8 34.7-21 49.9-34.1 14.8-12.9 24.8-29 34.3-45.9 10.3-18.3 22.1-36.8 41.5-46.5 3.1-1.5.9-6.9-2.4-5.7-38.5 14.9-46.5 62-74.2 88.6-15.4 14.9-34.1 26.9-52.7 37.5-18.1 10.3-38.1 17.7-55.1 29.8-15.4 11-29.5 29.3-26.9 49.3.1.5.9.5 1-.1z"/><path d="m1199.6 421.7c9.8-10.9 22.5-21.2 36-27.1 7.2-3.1 14.9-5 22.8-4.9 8.9.1 17.3 3.1 25.9 5.1 8.4 1.9 16 1.4 24.5 1.2 9.3-.2 16.7 4.7 25.7 6.1 8.1 1.2 16.5 1 24.8 1.3 8.6.3 18.1 1.6 26.7.4 2.1-.3 2-3.8 0-4.2-8.8-1.7-18.6-.8-27.6-1-9.4-.2-19.6.5-28.6-2.2-4-1.2-7.7-3.1-11.7-4-4.6-1-9.3-.7-14-.5-9.5.6-18.1-1.1-27.3-3.3-14.9-3.5-28.7-3.2-42.7 3.3-14.4 6.7-24.9 17.4-34.5 29.8-.1 0 0 0 0 0z"/><path d="m1240.2 390.3c9.9.2 14.9-7.8 20-15.2 2.9-4.2 5.8-8.8 10-11.6 5.8-4 13.1-2 19.6-3.5 6.6-1.5 11.9-6.1 18.2-8.4 7.9-2.9 15.3 2.3 23.2 2.8 8.2.6 16.3-1.2 24.4-.7 7.4.5 14.8 2.5 21.1 6.3 7.2 4.3 11.3 10.8 15.4 17.9 3.4 5.9 7 12.8 13.7 15.4 1.7.7 3.6-1.7 2.5-3.2-4.1-5.5-8.2-10.5-11.7-16.5s-7.3-11.6-12.9-15.9c-11.9-9.2-26.7-10.5-41.2-9.4-4.3.3-8.6.7-12.9.2-4.5-.5-8.5-2.6-13-3.4-6.4-1.1-12.1 1.5-17.5 4.5-3.3 1.8-6.5 3.8-10.2 4.8-4.1 1.1-8.5.6-12.7 1.1-5.1.6-9.4 3-13 6.6-8 8.1-11.8 22.7-23.3 26.9-.4.4-.3 1.3.3 1.3z"/><path d="m1379.7 400c6.1.5 11.7 1 17.7-.9 5.4-1.7 10.2-4.6 14.1-8.6 1.1-1.1-.3-3-1.7-2.2-8.9 4.9-19.7 10.2-30.1 10.4-.8.1-.8 1.2 0 1.3z"/><path d="m1146.6 295.5c0 9.3 16.2 13.7 22.8 16.7 12.2 5.6 25.5 10.5 35.9 19.1 18.1 14.9 24.3 39.5 19.3 61.9-.4 1.7 2 2.3 2.6.7 6.7-20.3.2-43.5-14.1-59.1-8.5-9.3-19.9-14.8-31.2-19.9-6.6-3-13.2-6-19.8-9-2.8-1.3-5.7-2.5-8.2-4.2-2.7-1.8-4.4-4.2-6.5-6.6-.2-.3-.8 0-.8.4z"/><path d="m1229.6 396.5c3-8.9 4.7-19.1 5.6-28.4.9-8.8-1.4-16.9-5.5-24.7-3.6-7-7.8-14.3-12.9-20.3-2.2-2.6-4.8-5-7.8-6.7-3.6-2-9-2-11.9-5-2.5-2.6-2.6-7-4.2-10.1-1.4-2.7-3.3-4.5-6.1-5.8-3.6-1.7-7.3-1.9-9.6-5.7-1.4-2.4-1.7-5.5-3.6-7.7-4-4.6-9.6-1.6-12.5 2.6-1.3 1.9-2.1 4.1-3.7 5.8-1.7 1.7-3.8 2.2-6 2.9-2.7.8-5.1 1.6-7 3.9-1.3 1.5.7 3.7 2.2 2.2 4.3-4.1 10.9-2.6 14.7-7.8 2.4-3.3 6.5-13.1 10.9-4.9 1 1.9 1.3 4.1 2.4 5.9 3.3 5.3 11.1 4.3 14.1 9.5 2.7 4.8 2 10.7 7.2 13.9 2.7 1.7 5.9 1.8 8.8 2.9 3.6 1.4 6.6 4 9.2 6.9 4.8 5.5 8.5 12.3 11.8 18.7 4.3 8.2 6 16.1 5.2 25.3-.8 8.8-2.8 17.6-2.6 26.4.1.8 1.1.9 1.3.2z"/><path d="m1151.2 488.9c5.2-5.2 11.6-11.2 18.9-13 9-2.3 17.8 3.7 25.6 7.3 6.3 2.8 12.4 6.5 18.9 2.8 7.3-4.2 15.2-1 23-1.6 5.6-.4 11.2-3.2 12.8-8.9 1.5-5.5-2.1-9.8-6.8-12.1-2.9-1.4-6.3-2.1-8.9-4.1-4.3-3.4-.5-6.6-.4-10.8.1-5.2-5.1-7.2-9.5-7.4-9-.3-17.6 3.7-26.7 3.2-6-.3-12.5-2.1-16.5 3.5-1.2 1.7 1.4 3.5 2.8 2.1 3.1-3 7.8-1.7 11.6-1.3 4.1.5 8.1.3 12.2-.3 4.4-.6 8.7-1.7 13.1-2 1.6-.1 5.5-.7 6.7.6 1.8 1.9-.3 4.1-.8 6-1.8 6 2.9 10.5 7.9 12.7 3.1 1.4 9.1 2.4 10.1 6.3 1.7 6.9-8.6 7.3-12.7 7.1-3.9-.2-7.8-.5-11.6-.1-3.7.5-6 2-9.3 3.6-4.6 2.3-9.9-.9-14.3-2.8-3.9-1.7-7.7-3.7-11.6-5.3-6.5-2.6-13.4-3.6-19.9-.7-6.8 3-10.9 9-15.3 14.7.2.5.5.7.7.5z"/><path d="m1152.5 483.5c9.7-11.5 2.2-31.1-4.2-42.3-.7-1.3-2.8-.4-2.4 1 2.1 6.5 4.9 12.9 6.5 19.6 1.8 7.6.9 13.9-.5 21.4 0 .3.4.6.6.3z"/><path d="m1152.7 450.2c-2.6-5.5-6.7-10-9.2-15.7-2.6-6.1-4.8-12.7-6-19.2-2.7-14.6 5-27.1 12.9-38.7 3.8-5.6 8.2-10.9 13.7-14.8 5.1-3.7 10.9-6.4 16.2-9.8 8.4-5.5 16.6-14.1 14.3-24.9-.3-1.5-2.3-1-2.5.3-1.8 15.7-16.8 21.3-28.3 29-10.9 7.2-17.9 18.2-24.1 29.4-2.9 5.3-5.6 10.9-6.5 17-1 6.7.4 13.4 2.4 19.9 2.8 8.9 7.3 24 16.9 27.8.2 0 .2-.2.2-.3z"/><path d="m1194.1 325.8c-6.7 6.7-3.5 17.1-.3 24.7 2.6 6.1 6.1 13.1 4.9 19.9-1 5.4-5.2 9.2-5.2 14.9 0 2.8.8 5.6.8 8.4 0 3.7-1.1 7.3-2.1 10.8-1.8 6.3-3.8 12.5-5.9 18.8-4.2 12.7-9.4 25-14.5 37.5-.6 1.5 1.9 2.5 2.6 1.1 6.1-11.1 10.9-22.8 15.2-34.7 2.2-6.2 4.3-12.4 6.1-18.7 1.6-5.6 3.5-11.3 2.9-17.2-.4-3.5-1.2-6.7.3-10.1.9-2.2 2.3-4 3.2-6.2 1.8-4.8 1.2-10-.3-14.9-3.5-11.2-11.7-21.5-7.1-33.7.1-.6-.3-.8-.6-.6z"/><path d="m970.8 102.4c-38.1 63.6-47.7 149.5-5.8 213.6 10.5 16 23.1 30.7 31.6 48 8.7 17.8 12.8 37.8 12.1 57.7-1.4 39.3-21.8 74.6-36.6 110-15 35.9-25.8 79-6.2 115.3 1.4 2.6 5.2.3 4-2.3-16.3-33.6-7.7-72.8 5.4-105.9 13.6-34.5 33-67.4 37.8-104.7 2.3-18.1.8-36.6-4.5-54-5.4-17.7-15-32.9-25.8-47.8-11.2-15.5-22.1-30.9-29.1-48.9-6.7-17.2-10.5-35.6-11.6-54-2.6-44.7 11.2-86.3 29.5-126.4.2-.6-.5-1-.8-.6z"/><path d="m1015.3 427c4.8-9.3 16.5-2.1 22.8.7 3.2 1.5 6.6 2.7 10.2 2.4 1.7-.1 3.2-.9 4.9-1.1 5.2-.6 4.9 1.3 7.6 3.9 4.2 4 8.9 2.7 13.7.8 4.6-1.9 9-4.2 13.9-1.8 3.5 1.7 6.3 4.5 9.6 6.5 6.6 3.9 13.8 3.3 21 1.6 3.7-.8 7.3-2 11-2.5 5.2-.8 9.8.1 14.8 1.6 7.2 2.2 14.4 4.7 22 2.8 5.6-1.4 10.3-5.1 10.9-11.1.2-2.3-3.1-3-4.2-1.1-4.4 7.6-12.8 7.8-20.5 5.7s-14.7-4.6-22.8-3.4c-8.5 1.3-17.7 6.6-26.4 4.1-6.9-2-11.5-8.9-19-9.2-6.8-.2-16 8.9-21.8 3.8-2.4-2.1-3.4-4.9-7-5.3s-6.9 1.7-10.6 1.1c-7.4-1.3-13.1-7.2-20.9-7.1-4.8.1-9.3 2.1-10.1 7.2-.2.6.6 1 .9.4z"/><path d="m1017.4 420.7c5.8-4.7 10.4-10.7 16.1-15.5 6-5.1 12.3-9.8 19-14 6.6-4.3 13.5-8.1 20.4-12 7.4-4.1 14.8-8.5 23-11 8.7-2.6 16.3-1.4 24.6 1.7 6.6 2.5 13.4 5.5 20.7 5 7.5-.5 18.2-6.2 21 4.1 1.8 6.5 3.1 11.2 7.4 16.6 2.4 2.9 5.1 5.7 6.7 9.2 2.2 4.9.6 10-.1 15-1 6.5-.5 13 5.2 17 2.1 1.5 3.8-1.6 2.5-3.2-5.7-7.1.3-17.2-.4-25.2-.7-7-5.4-11.9-9.6-17.1-2.3-2.9-4-5.9-4.9-9.5-.8-3.5-1.3-7.2-3.5-10.2-4.2-5.8-11.3-5.1-17.5-3.8-4.4.9-8.5 1.6-13 .7-4.2-.8-8.2-2.6-12.1-4.1-7.8-3-15.2-4.7-23.5-3.1-8.7 1.6-16.7 6.1-24.3 10.5-7.1 4-14.1 8.1-21 12.5-7.4 4.7-14.8 9.8-21.3 15.7-6.2 5.5-13.3 12.3-16 20.4-.3.4.3.6.6.3z"/><path d="m1015.2 408.8c2.4-16.7 6.3-34 19.5-45.6 12.2-10.7 28.7-14.9 43.4-21.1 15.3-6.4 27.8-16.1 38.8-28.4 11.2-12.5 20.6-26.6 31.8-39.1 12.9-14.5 28-26.6 47.3-31.2 2.7-.6 2.2-5.3-.7-5-36 3.8-56.3 38.8-76.9 64.3-11.4 14.2-24.2 26.2-40.9 33.7-15 6.7-31.7 10.9-44.4 21.9-14.2 12.3-20.2 32-18.1 50.4 0 .2.2.2.2.1z"/><path d="m1164.1 263c7.8-4.4 14-9.6 23.1-11.8 9.5-2.3 18.5-1 28 .2 8.7 1.1 16.1.6 24.5-2 4.5-1.4 9.1-2.8 13.9-2.4 4.5.4 8.7 2 12.8 3.6 7.8 3 15.3 6 23.8 4.8 8.7-1.2 16.8-5.4 24.8-8.7 9.9-4.1 37.3-11.2 31.5-27.2-.5-1.3-2.4-1.1-2.5.3-.8 11.3-10.5 14.9-19.5 18.7-8.6 3.7-17.2 7.7-26.1 10.9-9.5 3.4-17.4 2.8-26.6-.7-6.6-2.5-13.3-5.6-20.5-5.6-8.2.1-15.5 4.5-23.7 5.1-9 .7-17.8-1.9-26.7-2.2-12.7-.5-30.6 4.6-37 16.7-.1.2 0 .4.2.3z"/><path d="m1194.9 244.8c11.4.3 17.3-10 25.2-16.5 6.1-5 13.7-6.4 21.1-8.4 7-1.8 12.7-4.6 18.8-8.6 15.3-10.3 31.2-5 47.6-.7 7.2 1.9 14 2.8 21.4 3.1 4.9.2 5.7 2.4 8.9 5.4 1.6 1.5 3.2 2.2 5.4 2.5 2.2.2 2.7-3.4.5-3.9-3.2-.7-4.2-4.5-6.6-6.4-2-1.6-4.2-2.2-6.8-2.3-8.7-.4-16.6-1.4-25.1-3.6-13.5-3.6-28.6-7.7-41.9-1.1-7.1 3.5-12.4 8.5-20.2 10.8-6.6 1.9-13.5 3.1-19.6 6.4-10.6 5.7-16.3 20.8-28.8 22.9-.3 0-.2.4.1.4z"/><path d="m1193 237.2c6.1-10.3 2.5-22.2-4.4-31.2-3.3-4.3-7.3-8-11.9-10.8-5.4-3.2-11.5-4.6-17.3-7.1-11.3-5-13.8-16.9-19.1-26.9-2.5-4.6-5.6-8.5-9.6-11.7-1.9-1.5-3.9-2.9-5.7-4.6-2.6-2.4-3.3-4.4-4.5-7.6-.7-1.7-3.2-2-3.8 0-2.5 9.1 10.8 15.2 15.2 21.1 6.2 8.2 7.6 18.9 13.9 27 7.5 9.6 19.9 10.2 29.6 16.6 10.6 7 21 21.6 16.5 34.9-.2.5.7.9 1.1.3z"/><path d="m1121.4 136.6c3.5 3.8 7.7 2.5 12.5 2.5 7.8 0 11.4 5.3 14.1 12 2 4.9 3.6 10.1 7.4 14 3.2 3.2 7.3 4.9 11.5 6.5 5 1.9 10.9 3.5 14 8.3 1.8 2.7 2.2 6.1 3.5 9 1.1 2.5 2.7 4.3 4.6 6.2 5.7 5.5 6.8 12.7 7.6 20.2.8 7.3.8 14.7.1 22-.3 3.4 4.8 3.3 5.2 0 1-7.6 1.1-15.2.1-22.8-.8-6.1-1.8-13.2-5.3-18.4-1.9-2.8-4.8-4.5-6.8-7.2-2.2-3-2.8-6.7-4.4-9.9-2.2-4.4-6.1-7-10.5-9-5-2.2-10.7-3.3-15.1-6.6-5.5-4.1-6.9-11.2-9.9-17.1-2.1-4.1-5.3-8.3-9.9-9.7-6-1.9-12.3 1.6-18.3-.6-.4-.1-.6.4-.4.6z"/><path d="m1120.2 306.3c-4-9.8-8.7-19.6-10.2-30.2-1.7-11.3-.5-23 3.5-33.8 4.4-12 12.6-20.2 23-27.3 8.1-5.4 17.1-12.3 17.2-22.9 0-2.7-4.2-3.4-4.8-.6-3 13.4-15.9 17.5-25 25.9-8.2 7.5-13.4 18.4-16.3 28.9-5.3 19.3-3.4 46.1 12.1 60.3.2.1.6 0 .5-.3z"/><path d="m1154.5 193.9c2.1 4.7 5.5 8.2 6.9 13.3 1.6 6.3.4 12-2.5 17.7-2.2 4.3-4.6 8.4-5.1 13.3-.7 5.7 3.4 15.1-2.4 19.3-2.2 1.6-.3 5.1 2.2 3.7 5.6-3.1 6.1-9 5.6-14.9-.5-5.1-.5-9 1.5-13.7 1.4-3.2 3.1-6.3 4.3-9.6 2.1-5.8 2.1-12.4-.1-18.2-1.7-4.6-4.9-10.1-10.1-11.2-.2 0-.3.1-.3.3z"/><path d="m933.2 268.2c-3.6 3.6-10.9 2-15.6 3-4 .9-8 2.8-10.4 6.2-3.4 4.8-3.2 16-12.1 10.6-4.6-2.8-7-7.4-12.2-9.3-1-.3-2.1.4-2.4 1.3-1.9 7.3 4.3 12.4 9.9 16 6.9 4.5 15.3 8.9 23.8 7.3 4.9-1 8.9-3.5 14.1-3.5 5.1 0 10.6.9 15.6 2 5.4 1.2 16.5 6.6 18-2.7.4-2.3-2.4-3.6-3.8-1.6-2.3 3.3-7.2.8-10.3 0-2.8-.7-5.6-1-8.4-1.3-5.9-.6-12.3-1.5-18.1.2-3.3 1-6 2.7-9.5 3.1-4.1.4-8.1-.7-11.8-2.4-5.5-2.5-17.7-8.6-15.7-16.1-.8.4-1.6.9-2.4 1.3 6.4 2.3 9.2 10.1 16.4 11 5.4.7 8.3-3.2 9.9-7.7 1.3-3.7 2.4-6.9 5.9-8.9 3.4-1.9 7.3-2.3 11.1-2.6 4-.4 8.3-1.1 8.9-5.7.1-.3-.6-.5-.9-.2z"/><path d="m933 269.8c1.3-.4 2.8-.1 4.2-.4s2.8-1 3.9-1.9c2.2-1.6 4.6-4.8 3.6-7.7-.6-1.5-2.3-1.7-3.3-.4-.7.9-.9 2.1-1.5 3.1-.7 1.1-1.7 2.1-2.9 2.6-2 .9-4.4.5-5.5 2.6-.7 1.1.3 2.5 1.5 2.1z"/><path d="m984 331.7c4.6-13.2 20.3-18.9 18.6-34.6-.5-4.5-1.8-9-.2-13.5 1.4-4 4.1-7.3 3.6-11.8-.8-7.3-7.9-9.9-11.1-15.7-1.6-2.8-1.6-6.3-3.7-8.9-2.8-3.4-7.8-2-10.2-5.1-2.3-3.1.8-6.5-.5-9.9-1-2.7-3.8-4.2-6.5-3s-3.6 4.5-4.7 7c-1.5 3.6-3.4 7.6-3.7 11.5-.3 4.5 3.3 7.7 3.5 12.1.2 5.7-3.2 10.8-6.2 15.4-4.8 7.4-8.8 15.1-6 24.1 2.8 8.9 9.8 15.5 14.5 23.4 1.4 2.3 4.7.3 3.6-2.1-3-6.4-7.6-11.8-10.8-18.1-4.5-8.7-1.9-15.9 3.1-23.8 3.8-5.9 7.9-12.4 7.2-19.7-.3-3.7-2.7-6.5-3.1-10.1-.3-2.4.5-4.2 1.4-6.5.5-1.3 3.5-6.1 3.1-7.1-1-2.5-2.2 4.5-2 5.6.4 2.8 1.9 5.4 4.1 7.2 2.6 2.1 7.1 1.6 8.8 4.5 1.4 2.4 1.5 5.4 3.1 7.8 3.8 5.6 11.7 8.4 9 16.4-1.2 3.4-2.6 6.3-2.7 10-.1 3.5.9 6.8 1.6 10.2 1.8 9.1-3.2 14.2-8.6 20.7-3.5 4.2-6.5 8.4-5.2 14-.2.1-.1.1 0 0z"/><path d="m940.8 228.2c6.3-7.7 14-10.9 23.6-12.7 5.1-.9 10.3-1.6 15.3-3.2 4.5-1.5 8.8-3.7 13.2-5.5 10.4-4.3 21.5-2.2 32.5-2.8 5.3-.3 10.7-.8 16-1.4 4.7-.6 10.3-.5 13.9-3.8 1.5-1.4.5-3.6-1.1-4.2-4.7-1.9-11.7.6-16.5 1.1-5.9.7-11.9 1.1-17.9 1.4-5.8.3-11.7.1-17.5.8-5 .6-9.6 2.5-14.1 4.7-5.1 2.5-10 4.9-15.6 6.3-5.3 1.3-10.7 2.2-15.8 4-7.1 2.4-15.1 6.8-16.9 14.7-.3.5.5 1.1.9.6z"/><path d="m942.8 215.1c3.6-.2 3.1-4.3 1.8-6.6-.6-.9-2.2-2-2.4-3-.9-3.4 3.2-2.9 5.1-3 4.3-.2 8.3.9 12.5 1.2 7.2.4 12.9-4.8 20-4.7s13.8 4.4 20.8 2c2.5-.9 2.2-4.8-.6-4.8-7.4 0-14.4-3.4-21.7-2.8-3.1.2-5.9 1.4-8.7 2.7-4.3 1.9-7.8 2.8-12.5 2.3-4.8-.5-14.4-2.2-18.3 1.8-5.5 5.6 6.3 9.6 3.9 14.4-.2.3-.1.5.1.5z"/><path d="m982.2 196.2c2.6-1.6 4.7-3.8 7.4-5.2 3.3-1.8 6.9-2.4 10.6-2.5 6.2-.2 10.4-.6 15.2-4.7 1.6-1.4 2.6-2.7 4.9-2.6 2.1.1 4.1 1.5 5.8 2.6 2.8 1.7 5.5 3.6 8.3 5.3 5.8 3.7 11.5 6.9 18.3 8 2.9.5 4.2-3.6 1.2-4.5-8.2-2.4-15.1-7.4-22.1-12.1-5.1-3.4-11.8-8-17.8-3.7-3.4 2.4-4.6 5.3-9.1 5.9-3.8.5-7.7 0-11.4 1.1-5.3 1.5-11.7 5.6-12.9 11.3-.2.8.8 1.7 1.6 1.1z"/><path d="m947.1 174.4c5.3-22.2 25-31.3 42.5-42.7 7.6-4.9 14.9-10.5 20.2-18 5.4-7.7 9.6-19.5 7.7-28.9-.4-1.9-3-1.6-3.5 0-1.8 5.5-1.7 11.5-3.6 17.1-1.8 5.2-4.8 9.9-8.6 13.9-6.9 7.3-15.8 12.5-24.3 17.7-13.9 8.6-32.5 22.3-30.9 40.8 0 .3.4.4.5.1z"/></g><path d="m968.9 141.4c-5.8 6.4-9.2 14.8-9.9 23.4-.4 5-.1 15.2 7.9 12.1 9.6-3.8 15.6-38.7 0-34.1-1.6.5-.9 2.9.7 2.4 9.4-2.8 6.1 12.5 4.8 16.6-.8 2.6-1.7 5.2-3.1 7.6-.5 1.2-1.2 2.2-2.1 3.2-3.9.2-5.7-1.1-5.4-3.9-1-4.2.5-10 1.7-14 1.3-4.6 3.5-8.9 5.9-13 .2-.2-.2-.6-.5-.3z" fill="#eba00c"/><path d="m974.4 142.6c7.9-.5 11.8 7.1 14.8 13.3 1.4 2.9 1.6 3.9.5 6.7-.7 2-1.8 3.9-2.5 5.9-.6 1.8-1.4 4.6.8 5.7 1.8 1 3.8-.5 4.5-2.1.3-.6 0-1.6-.5-2-1.6-1.4-3.4-.3-5.4-1.2-3.8-1.8-6-7.5-7.1-11.2-.6-1.9-3.5-1.1-3 .8 1 4.1 2.7 8.2 5.6 11.3 1.1 1.2 2.4 2.2 3.9 2.9.6.3 4.2 1.3 3.1.2-.1-.8-.2-1.6-.3-2.5 1.3 1.3 2.1 1.4 2.3.4.1-.3.2-.6.3-.8.6-.7.9-2.2 1.3-3.1.7-1.6 1.4-3.2 1.9-4.9 1.1-3.8-.5-6.5-2.3-9.9-3.2-5.9-10.5-16.3-18.1-10.3-.3.3-.1.8.2.8z" fill="#bf451d"/><path d="m985.7 138.1c.1 0 .1-.1 0-.1s-.1.1 0 .1z"/><path d="m991.5 150.3c.4 0 .4-.7 0-.7s-.4.7 0 .7z"/><path d="m985.8 138.3c.4 0 .4-.7 0-.7-.4.1-.4.7 0 .7z"/><path d="m991.4 157c8.2 5.9 16.7-3.9 17.2-12.2.5-9.1-7.6-18-17-16.8-1.2.1-1.7 1.9-.3 2.2 6.6 1.6 12.5 5.6 12.5 13.1 0 6.8-5.3 12.9-12.3 13.3-.2 0-.3.2-.1.4z" fill="#eba00c"/><path d="m1002.8 122.5c15-2.4 27.8-14 25.8-29.9-1.1-8.6-5.9-18-3.6-26.7 1.3-5 5.3-8.6 7.9-12.9 2.2-3.7 3.6-8 4.1-12.3.6-4.5 1.1-17.7-5.3-18.6-3.4-.5-6.8 3.6-9 5.5-3.2 2.7-6.3 5.7-8.7 9.2-2.4 3.4-3.8 7.2-4.6 11.3-.8 4.4-.8 9.2-2.8 13.3-3.6 7.5-14 8.2-15.1 17.4-.5 4.2 1 8.2 2 12.2.7 2.7 1.4 5.6.7 8.4-.6 2.5-2.3 4.6-3.1 7-2.9 9 4.9 16 11.9 20 2 1.1 4.5-1.8 2.6-3.3-2.6-2-5.4-4.1-7.5-6.6-3.9-4.6-2.5-8.1-.3-13.1 2.7-6.1.7-11.6-.8-17.8-1.1-4.3-1.3-8.1 2.2-11.3 2.4-2.2 5.5-3.4 7.9-5.6 4.9-4.5 5.5-10.9 6.5-17.1 1.2-8.2 5.1-14.2 11.3-19.7 1.2-1 2.6-2.8 4.1-3.4 2.5-1 2.9.8 3.3 3 .8 4.4.5 9.1-.8 13.4-2.3 7.4-9 12.4-11 19.9-1.5 5.9-.2 12 1.4 17.7 2.2 8.3 5.1 17 .1 24.9-4.6 7.1-12.8 10-19.3 14.8-.2 0-.1.3.1.3z" fill="#778a17"/><path d="m944.5 256.5c-2.6-11.5-8.8-21-18.2-28.1-9.8-7.4-21.6-9.3-32.5-14.3-6.3-2.9-11.6-7.1-14.5-13.5-3.3-7.3-4.4-16.1-4.9-24.1-.9-15.6 2-30.9 8-45.4.7-1.8-2.3-3.1-3.1-1.3-6 13.8-8.8 28.9-8.2 44 .5 12.5 2.2 28.2 12.4 36.9 9.2 7.9 22 9.2 32.8 14.1 13.2 6.1 23.1 18.1 28.1 31.6-.1.3.2.3.1.1z" fill="#778a17"/><path d="m914.7 222.2c-4.3 5.8-2.3 13.1 1.3 18.8 2.2 3.4 6.2 7.3 6.4 11.6.1 4-4 4.9-4.1 8.6 0 .8.6 1.9 1.5 2 7.9 1.2 14.7-4.4 15.9-12.2 1.4-9.3-4.4-20.2-11.9-25.6-1.5-1.1-3.1 1-2.4 2.4 2.7 5.4 7.5 9.4 9.3 15.4 2 6.8-.8 17.3-9.9 16 .5.7 1 1.3 1.5 2 0-1 2.3-2.4 2.8-3.2.6-1 1-2.1 1.1-3.2.3-2.5-.5-5.1-1.6-7.3-3.9-7.9-14-14.9-9.2-24.8.5-.5-.3-1-.7-.5z" fill="#778a17"/><path d="m893.3 214.9c-7.8 2.9-10.1 15.4-7.9 22.5 2 6.5 11.2 18 18.9 12.1 2-1.6 3.2-3.9 2-6.3-.6-1.3-2-2.1-2.9-3.2-1.9-2.3-2.3-4.7-2.5-7.6-.5-6.8 1-16.6-5.7-20.9-1.5-1-2.9 1.4-1.4 2.4 8.4 5.5 1.2 20.4 7.1 27.9.5.7 1.6 1.3 2 2.1 1.8 4.2-4.2 3-6.6 1.5-3.2-2-5.6-5.6-6.9-9.2-1.2-3.4-1.5-7.1-.7-10.7 1-4 3.5-6.4 5.1-10 .2-.2-.1-.7-.5-.6z" fill="#bf451d"/><path d="m884.4 212.4c-4-4.1-10.8-1.8-14.5 1.8-4.9 4.7-6.9 12.3-7.3 19-1.1 16.3 18.2 14.3 26.4 5.4 1.2-1.3-.4-3.7-2-2.6-3.9 2.6-8.2 4.9-13 5.3-6.8.5-7.9-4.5-7.3-10 .5-4.3 1.5-9 4.1-12.6 3.4-4.7 8.1-5.7 13.5-6.2.1.1.1 0 .1-.1z" fill="#eba00c"/><path d="m873.4 193.4c-8.2-13.3-24.5 13.2-27.2 19.2-2.4 5.2-4.6 12.3 1.1 16.3 5.3 3.7 11.6-.2 15.9-3.5 1-.8-.3-2.1-1.2-1.6-4.4 2-14.2 5.2-12.9-3.8.5-3.7 2.8-7.5 4.7-10.7 3.5-6.1 10.6-17.4 19-14.7.3 0 .9-.7.6-1.2z" fill="#bf451d"/><path d="m877.6 180.3c.5-4.2-.7-7.8 1.2-12 2-4.4 5.8-7.7 9.2-11 5.1-5 10.6-10.9 10.7-18.5.1-3.9-1.3-7.7-2.5-11.4-1.6-4.8-3-9.7-4.7-14.5-1-2.6-2.2-5.2-4.5-6.8-3.1-2.1-6.7-1.6-10.3-1.9-5.9-.6-12.6-2.6-15.5 4.4-1.2 2.8-.9 5.9-1.6 8.8-1 3.9-3.9 5-7.6 5.7-5.4 1.1-11.6 1.1-15.7 5.2-4.5 4.6-3.9 11.8-.6 16.9 4.7 7.4 13.9 10.8 20 16.8 7 6.9 11.9 15.8 15.2 24.9 1.1 3.1 5.6 1.9 5-1.4-2.6-13-10.3-24.3-20.7-32.4-5.5-4.3-14.6-7.8-15.9-15.5-1.3-7.9 8.4-8 13.6-9 4.2-.8 8.5-2.4 10.8-6.3 1.1-2 1.4-4.3 1.7-6.6.2-1.3.2-2.7.6-4 1.1-3.5 4.3-3.1 7.3-2.7 2.9.4 7.2-.4 9.8.6 4 1.6 5.2 8.8 6.4 12.4 3.1 9 7.3 17.3 1.1 26-4.5 6.4-11.6 10.6-15 17.8-1.9 4.1-3.9 12.1 1.2 14.7.5.3.7.1.8-.2z" fill="#778a17"/><path d="m1106.5 318.1c-6 6.7-9.1 16.4-4.6 24.8 3.8 7.2 12.8 11.8 20.7 8.7 7.3-2.9 11.2-11.5 10.2-19-1.2-9.2-8.5-16-16.5-19.7-1.7-.8-3.2 1.7-1.5 2.5 6 2.8 11.6 7.2 14 13.6 2.5 6.6.6 15.1-5.7 18.9-6.7 4-15.2-.1-18.6-6.6-3.8-7.2-1.7-16.2 2.2-23 .2-.1-.1-.3-.2-.2z" fill="#eba00c"/><path d="m1124.9 299.8c4.5-7.3 12.3-.2 13.8 5.3.8 2.7.6 5.5 0 8.2-1.2 5.5-3.8 10.6-6.7 15.4-1.1 1.9-4.2 5.1-4.3 7.3-.1 2.3 1.8 2.4 3.4 1.3s.1-3.8-1.6-2.7c-1.2.9.3 2.2 1.3 1.8.4-.1 1-1.6 1.2-1.9 1.2-2 2.5-4 3.6-6 2.9-5 5.6-10.6 6.2-16.4.6-5.5-1.1-11.8-5.7-15.3-3.9-3-10.2-2.6-11.4 2.8 0 .3.1.3.2.2z" fill="#bf451d"/><path d="m1256 388.1c14.9-19 39.4-11.8 59.7-10.6 11.9.7 22.8-3.1 34.5-3.5 11.6-.4 22.3 3.7 31.5 10.5 1.6 1.2 3.7-1.5 2.2-2.8-8.5-7.2-19.3-11.3-30.4-11.7-6.4-.2-12.7 1.1-19 2.2-7.2 1.3-14.3 1.6-21.6 1-18.2-1.5-48.3-7.3-57.2 14.7-.1.2.1.4.3.2z" fill="#778a17"/><path d="m1202 240.8c33.5-8.9 72.1-2.7 102.1-22.6.8-.5.1-1.8-.8-1.3-30.2 19.8-68.4 12.4-101.5 23.6-.1 0 0 .4.2.3z" fill="#778a17"/><path d="m1128.1 286.3c-6.4-13.6 4.1-28.8 9.5-41 5.3-12.1 9.7-24.9 12.7-37.9.4-1.6-2-2.2-2.4-.7-4.7 15.6-9.9 30.9-16.4 45.8-4.6 10.7-9.9 22.7-3.6 33.9 0 .2.3 0 .2-.1z" fill="#778a17"/><path d="m1158.6 391.6c-7.5 21.9-1.9 46.6 14.5 63 1.5 1.5 3.9-.8 2.4-2.4-15-16.2-21.4-39-16.9-60.6.1-.1 0-.1 0 0z" fill="#778a17"/><path d="m1030.6 414.4c25.3-24 64.2 3.5 92-14.4 1.9-1.2.2-4.1-1.8-3-27.5 15.6-67.4-8.8-90.5 17.1-.1.2.2.5.3.3z" fill="#778a17"/><path d="m813.2 490.1c-7-1.9-14.4-2.3-21.5-.6-6.8 1.7-12.2 5.4-17.7 9.7-6.2 4.9-12.8 8.2-20 11.4-6.5 2.9-13 5.9-17.7 11.4-.6.6.3 1.5.9.9 10.3-8.3 23.3-11.5 33.9-19.1 5.5-3.9 10.2-8.4 16.4-11.2 8.3-3.7 16.9-4.5 25.7-2.5z" fill="#778a17"/><path d="m739.2 435.3c-10.4-7.4-.7-19.5 4.9-26.1 5.3-6.3 10.8-12.5 15.5-19.2.7-1-.8-2.1-1.6-1.2-4.3 4.6-8.1 9.5-12 14.4-3.4 4.3-7.4 8.7-10 13.6-3.3 6.2-3.6 14.7 3 18.8.2 0 .4-.2.2-.3z" fill="#778a17"/><path d="m974.3 317.6c5.3-6.3 8.7-13.9 8.8-22.2.1-10-4.6-20.8.6-30.2.7-1.4-1.3-2.6-2.1-1.2-4 7.2-2.5 14.9-1.2 22.7 1.8 11.1.6 21.5-6.3 30.7-.2.1.1.3.2.2z" fill="#778a17"/><path d="m946.9 284.4c-6.4.2-12.5.6-18.9 1.5-5.1.7-13.6 3.8-17.8-.5-1.3-1.3-3.1.6-2 2 3.4 4.2 8.7 3.6 13.6 2.9 8.6-1.2 16.8-3 25.1-5.3.4-.2.3-.7 0-.6z" fill="#778a17"/><path d="m719.1 268.8c24.3-1.3 40.1 20.4 53.4 37.3.7.9 2.3-.3 1.6-1.2-13.3-18.5-30.3-37.3-55-36.1-.1-.1-.1 0 0 0z" fill="#778a17"/><path d="m686.7 448.8c15.6-7.2 32.2-10.6 49.2-7.8 1.6.3 2.3-2.1.7-2.4-17.2-3.4-35.8-.5-50.1 9.9-.2.2 0 .4.2.3z" fill="#778a17"/><path d="m812 347.7c-.7-1.1 1.6-4.4 2.4-5.3s1.9-1.7 2.9-2.4c1.6-1.2 3.4-2.2 5.3-3.1 4.1-1.9 8.6-3.1 13.1-3.5 8.4-.8 16.8 1.5 24 5.9.9.6 2.1-.8 1.2-1.5-8.6-7.3-20.8-9.4-31.7-6.4-4 1.1-24.6 10.3-17.5 16.7.1.1.5-.2.3-.4z" fill="#778a17"/><path d="m865.1 484.2c11 1 18.7-7.6 26.2-14.2 11.2-9.9 25.3-14.3 40.1-14.5 1.1 0 1.1-1.6 0-1.7-12.5-1.3-25 2.4-35.3 9.6-9.7 6.8-17.9 20.9-31.1 20.5-.1 0-.1.2.1.3z" fill="#778a17"/><path d="m876.4 602.7c-4.2-.1-6.5 4.7-6.3 8.5.2 5.2 4.2 9.3 8.6 11.5 13.5 6.5 31.5 4.4 45.8 2.6.8-.1.8-1.3 0-1.2-10.7.5-21.3.9-32-.6-5.1-.7-10.6-1.6-14.9-4.6-2.6-1.8-4.9-4.4-5.3-7.7-.3-3.8 1.8-6 4.1-8.5z" fill="#fffef5"/><path d="m906.6 597.6c6.3.7 12.3.9 18.2 3.5 5.8 2.6 10.2 6.7 14.6 11.2.5.5 1.3-.1 1-.7-5.9-10.3-22-18.2-33.7-14.2-.2.1-.2.2-.1.2z" fill="#fffef5"/><path d="m1046 582.3c-3.7 14.2-17.5 17.6-28.1 25.3-.7.5-.1 1.7.7 1.2 10.7-5.9 27.9-11.8 28.6-26.3 0-.7-1-.9-1.2-.2z" fill="#fffef5"/><path d="m1013.2 580.4c-7.7 2.6-24.1 12.4-19.3 22.8.2.5 1.1.2.9-.4-3.2-10.1 10.8-18.8 18.6-21.6.6-.2.4-1-.2-.8z" fill="#fffef5"/><path d="m982.7 636.5c-1.6 1.8-3.1 3.6-4.2 5.8-.2.5.4 1.1.8.6 1.6-1.9 2.7-3.9 3.7-6.2.2-.2-.1-.4-.3-.2z" fill="#fffef5"/><path d="m948.4 637.7c-.8 2.9.3 5.4 2.6 7.2 2.6 2.1 5.8 2.4 9 2.8.5.1.6-.7.1-.8-4.7-1.1-11.2-3.2-11.2-9.1-.1-.3-.4-.3-.5-.1z" fill="#fffef5"/><path d="m1052.9 586c-4.2 7.9-10.4 14-18 18.6-.8.5-.1 1.7.8 1.3 8.2-4 14.6-10.9 18.5-19.1.4-.9-.8-1.7-1.3-.8z" fill="#fffef5"/><path d="m1012.3 588.5c-2.6 2.3-4.2 5.4-4.4 8.9 0 .2.4.2.4 0 .1-3.4 1.6-6.5 4.1-8.7.1-.1-.1-.3-.1-.2z" fill="#fffef5"/><path d="m1037.7 583.7c-1.5 1.8-3.3 3.5-4.5 5.5-.2.4.3.8.7.5 1.6-1.6 2.9-3.8 4.2-5.7.1-.3-.2-.5-.4-.3z" fill="#fffef5"/><path d="m908.3 602.2c4.9.7 9.2 3.4 11.8 7.6.1.2.3 0 .2-.1-2.7-4.2-7-7-12-7.5-.1-.1-.1 0 0 0z" fill="#fffef5"/><path d="m886.9 610.9c7.6 11.3 23.8 8.3 34.8 5.5.8-.2.5-1.4-.3-1.3-12.2 2.5-23.8 4.2-33.9-4.7-.3-.2-.9.1-.6.5z" fill="#fffef5"/><path d="m1043.4 609.9c8.9-4.3 18.4-9.4 20.3-20.1.1-.5-.6-.7-.7-.2-2.1 10-11.5 15.3-19.9 19.7-.4.2-.1.7.3.6z" fill="#fffef5"/><path d="m1007.9 578.1c-6.2.2-12.7 4.9-17.1 8.9-5.2 4.8-9 10.6-11.1 17.4-.2.6.7.8.9.2 2.6-6.2 6.4-12 11.4-16.5 4.9-4.5 10.6-6.3 16-9.7.2 0 .1-.3-.1-.3z" fill="#fffef5"/><path d="m971.8 628c4-.2 7.9 1 11.2 3.2.8.5 1.5-.7.7-1.2-3.6-2.4-7.6-3.2-12-2.5-.3 0-.3.5.1.5z" fill="#fffef5"/><path d="m872.6 627.4c15 11.2 34.9 10 52.2 5.4 1-.3.6-1.7-.4-1.5-17.5 2.8-35.6 5.9-51.7-4-.2-.1-.2.1-.1.1z" fill="#fffef5"/><path d="m896.8 593.1c10.2-.2 19.2-.1 28.9 3.8.7.3 1.2-.9.5-1.2-8.6-4.7-20.2-6.9-29.4-2.9-.2.1-.1.3 0 .3z" fill="#fffef5"/><path d="m878.5 593.5c-8.7-1-16.2 8.6-20.9 14.5-.5.7.4 1.7 1 1 2.6-3.1 5.2-6.4 8.2-9 3.6-3.1 7.4-4.3 11.7-6 .3-.1.2-.4 0-.5z" fill="#fffef5"/></svg>