<svg height="177.2" viewBox="0 0 478.437 177.2" width="478.437" xmlns="http://www.w3.org/2000/svg"><path d="m596.152-61.421a2.962 2.962 0 0 0 -5.667 0c-1.659 5.273-1.689 10.926-1.525 16.412.209 6.947-.759 14.079-.253 20.947.4 5.412 7.113 6.006 9.06 1.227 4.309-10.577 2.009-27.967-1.614-38.586" fill="#80523a" transform="translate(-181.577 196.797)"/><path d="m625.485-95.609c-9.2-1.971-18.112-4.628-25.143-11.172-7.491-6.97-7.933-16.273-10.217-25.492-1.595-6.443-6.646-9.657-13.221-8.241-13.568 2.926-25.4 1.139-38.506-2.993-3.556-1.12-5.742 2.186-5.274 5.038-2.292 8.7-10.582 16.85-16.919 22.618-8.329 7.584-20.095 8.737-28.2 16.138-2.284 2.086-1.292 6.71 1.923 7.278 9.745 1.722 19.651.165 29.116-2.794a33.885 33.885 0 0 0 -4.647 7.711c-2.6 6.315.344 12.265 7.306 12.952 6.284.622 12.975-5.1 17.527-8.633 1.557-1.209 3.061-2.488 4.542-3.793a33.734 33.734 0 0 0 6.5 15.644c3.663 4.65 9.632 7.069 14.526 2.9 3.858-3.29 4.609-9.821 5.207-14.595 6.149 9.186 15.628 17.078 25.293 14.03 6.9-2.175 6.445-10.149 4.349-15.66 9.666 2.7 19.618 2.854 27.323-3.218a3.531 3.531 0 0 0 1.5-2.8 3.817 3.817 0 0 0 -2.985-4.917" fill="#09694e" transform="translate(-150.171 221.543)"/><path d="m577.451-133.007a3.4 3.4 0 0 1 -2.128-.375 4.611 4.611 0 0 0 2.445-1.2c0 .187.007.376 0 .564a1.9 1.9 0 0 1 -.318 1.009m40.778-13.769c-15.841-.238-23.087-18.054-29.371-30.629.241-2.347-1.131-4.8-4.157-4.641-.046 0-.092.008-.138.012a4.141 4.141 0 0 0 -1.463.12c-5.36.511-10.508 2.014-15.9 2.386-5.184.359-10.394.573-15.427 1.976a11.871 11.871 0 0 0 -5.7 3.643 4.242 4.242 0 0 0 -2.579 1.857c-7.516 11.41-18.392 19.7-32.382 20.487a4.618 4.618 0 0 0 -1.606.389c-3.83-.153-6.415 5.672-2.332 8.16a40.012 40.012 0 0 0 22.865 5.533c-.094 5.679 3.025 10.671 9.707 12.381 8.414 2.15 14.786-6.613 19.046-13.046 3.657 3.013 5.927 7.656 9.754 10.558s9.224 4.35 13.663 2.01c4.928-2.6 4.937-8.856 3.892-14.609 10.347 6.048 23.865 9.966 33.891 2.834a4.364 4.364 0 0 0 1.758-2.541c1.579-2.536.409-6.822-3.521-6.879" fill="#00a651" transform="translate(-155.83 233.366)"/><path d="m612.636-200.428c-9.494-2.535-19.62-9.529-27.028-15.938-6.026-5.215-8.246-13.761-11.3-20.814-1.475-3.412-7.307-2.493-7.958 1.039-2.764 15.059-19 38.015-36.3 35.993a3.44 3.44 0 0 0 -3.347 1.292c-2.436 1.293-3.76 4.435-1.038 6.576 9.24 7.266 22.374 6.526 33.035 2.44a16.88 16.88 0 0 0 16.95 8.509c5.826-.755 9.511-4.311 10.253-8.761a28.408 28.408 0 0 0 21.8-1.312q.957-.269 1.887-.626c.1-.038.185-.091.278-.133.151.046.3.091.453.133 5.434 1.451 7.736-6.95 2.316-8.4" fill="#09694e" transform="translate(-161.708 251.032)"/><path d="m373.087-191.007a25.828 25.828 0 0 0 -9.087-20.736 20.127 20.127 0 0 0 -5.795-3.205 13.51 13.51 0 0 0 .091-2.371c-.388-7.006-4.664-13.357-10.228-17.385a27.144 27.144 0 0 0 -17.825-5.039 19.693 19.693 0 0 0 -1.38-2.276c-3.941-5.561-9.744-10.347-16.642-11.538-.257-.044-.517-.064-.775-.1a16.79 16.79 0 0 0 -7.455-2.543c-6.552-.517-12.634 2.431-17.265 6.851a29.307 29.307 0 0 0 -8.163 14.6c-.045.222-.074.44-.113.662a19.423 19.423 0 0 0 -4.209-.555c-7.555-.1-13.625 4.452-17.8 10.359-2.949 4.172-3.782 9.637-3.036 15.026-.836.063-1.645.167-2.365.267a12.177 12.177 0 0 0 -6.872 4.011 10.789 10.789 0 0 0 -2.2 9.557 6.749 6.749 0 0 0 .227.764 20.547 20.547 0 0 0 -5.568 5.03c-4 5.273-2.636 12.562-.047 18.028 2.541 5.362 8.1 8.769 13.47 10.658a23.4 23.4 0 0 0 8.052 1.174 18.732 18.732 0 0 0 -.372 2.173 29.287 29.287 0 0 0 4.6 18.8c3.377 5.264 8.873 9.729 15.184 10.657a21.412 21.412 0 0 0 14.617-3.344 26.839 26.839 0 0 0 9.65 4.929c7.524 2 15.655-.831 19.7-6.9a35.491 35.491 0 0 0 11.215 2.994 19.445 19.445 0 0 0 18.327-9.075c4.231-6.56 3.294-15.712-.971-22.278 12.272-2.379 22.4-16.978 23.033-29.2" fill="#09694e" transform="translate(-72.225 256.259)"/><g fill="#2bb673"><path d="m345.636-232.45a4.329 4.329 0 0 1 4.327 4.327 4.329 4.329 0 0 1 -4.327 4.327 4.329 4.329 0 0 1 -4.327-4.327 4.329 4.329 0 0 1 4.327-4.327z" fill-rule="evenodd" transform="translate(-105.298 248.914)"/><path d="m379.458-203.782c-.013-.092-.026-.186-.039-.277-.426-3.016-5.636-3.016-6.062 0-.012.091-.026.185-.04.277a3.486 3.486 0 0 0 .322 2.454 3.206 3.206 0 0 0 2.749 1.577 3.2 3.2 0 0 0 2.25-.931 3.364 3.364 0 0 0 .82-3.1" transform="translate(-115.148 240.853)"/><path d="m381.38-179.27a3.709 3.709 0 0 0 -3.544-2.7 3.7 3.7 0 0 0 -3.172 1.819 3.655 3.655 0 0 0 .573 4.452l.048.039a3.746 3.746 0 0 0 5.1 0c.015-.014.03-.026.048-.039a3.616 3.616 0 0 0 .945-3.574" transform="translate(-115.435 233.339)"/><path d="m306.322-196.163a1.734 1.734 0 0 0 -1.352.616 1.894 1.894 0 0 0 1.561 3.365 2.225 2.225 0 0 0 1.669-2.1 1.881 1.881 0 0 0 -1.877-1.878" transform="translate(-93.851 237.719)"/><path d="m285.122-176.634c-2.474 0-4.535 3.007-3 5.221.014.021.028.042.043.06a3.473 3.473 0 0 0 5.907 0c.014-.019.028-.039.043-.06 1.539-2.214-.522-5.221-3-5.221" transform="translate(-86.875 231.694)"/><path d="m294.2-134.387a4.657 4.657 0 0 0 -1.108-1.891 3.629 3.629 0 0 0 -6 1.585 3.6 3.6 0 0 0 3.611 4.507 3.307 3.307 0 0 0 2.637-.932 3.3 3.3 0 0 0 .863-3.269" transform="translate(-88.528 219.555)"/><path d="m343.183-190.731c-4.318 0-4.318 6.7 0 6.7s4.316-6.7 0-6.7" transform="translate(-104.877 236.043)"/><path d="m391.413-150.082c-1.925-1.926-6.042-1.263-6.549 1.729-.022.118-.041.236-.061.355a3.741 3.741 0 0 0 4.528 4.526c.118-.019.234-.039.353-.059 2.99-.516 3.657-4.621 1.729-6.55" transform="translate(-118.694 223.838)"/></g><path d="m282.962-167.62a1.536 1.536 0 0 1 2.787.364c3.07 12.272 11.685 23.4 24.806 22.765.151-12.427 1.315-24.874 6.4-35.381 1.057-2.189 4.9-1.2 4.667 1.263-1.84 18.941-.758 37.465-.309 56.349 7.03.624 15.756-5.606 20.821-9.818 8.331-6.923 5.891-15.783 8.581-24.735a1.569 1.569 0 0 1 2.835-.371c6.895 9.25.453 22.944-6.069 30.453-6.2 7.134-16.258 13.068-25.96 13.066q.342 15.651 1.016 31.287c.264 6.166 1.794 16.654-.908 22.906a4.908 4.908 0 0 1 -1.17 1.951c-.05.055-.1.108-.156.16a5.185 5.185 0 0 1 -7.279 0c-4.437-4.578-1.815-16.215-1.874-21.969-.133-12.971-.64-25.869-.42-38.852.1-5.739-.079-11.849-.158-18.069-7.117.43-14.088-2.944-19.695-7.588-6.4-5.293-11.794-15.621-7.913-23.782" fill="#80523a" transform="translate(-86.894 233.066)"/><path d="m80.032-61.421a2.962 2.962 0 0 0 -5.667 0c-1.658 5.273-1.689 10.921-1.525 16.412.209 6.947-.759 14.079-.254 20.947.4 5.412 7.114 6.006 9.061 1.227 4.309-10.577 2.009-27.967-1.614-38.585" fill="#80523a" transform="translate(-22.348 196.797)"/><path d="m60.555-163.094c-13.834-17.483-25.82.772-32.906 17.573-1.725 3.677-3.2 7.43-4.542 10.993-4.961 13.187-8.14 28.811-4.571 42.723 2.545 9.915 11.884 17.548 22.348 16.34 9.857-1.135 16.048-10.841 19.508-19.193 5.116-12.352 7.108-25.929 7.208-39.242.075-9.718-.79-21.281-7.049-29.193" fill="#09694e" transform="translate(-5.248 229.707)"/><path d="m111.8-126.661c-4.091-18.031-12.359-46.284-33.858-49.805-25.824-4.231-30.266 28.473-20.4 45.969 2.7 20.21 11.262 40.471 31.005 44.854 10.483 2.327 21.124-.92 25.261-11.484 3.43-8.756-.028-20.792-2.012-29.534" fill="#009344" transform="translate(-16.259 231.757)"/><path d="m41.873-200.162c-8.585-.692-15.422 3.477-20.74 9.414-11.009 9.993-19.605 25.065-20.957 39.023-1.376 14.214 5.282 26.988 21.051 24.753 18.461-2.617 30.7-23.6 35.09-39.769 3.309-12.2 1.95-32.1-14.444-33.422" fill="#2bb673" transform="translate(0 238.976)"/><path d="m104.959-197.91c-7.912-14.907-38.824-39.424-53.705-20.132-6.27 8.128-1.536 20.907 5.436 31.051 6.8 16.312 22.849 30.9 39.628 30.464 21.648-.559 14.909-29.578 8.642-41.383" fill="#2ca86a" transform="translate(-14.909 246.66)"/><path d="m70.83-232.505c-3.482-5.374-6.133-11.878-11.542-15.709-3.446-2.442-7.881-3.55-10.893-2.467a10.563 10.563 0 0 0 -6.439-.49c-14.64 3.627-22.351 19.176-25.046 34.386-3.664 10.929-3.977 22.083 3.74 29.064 13.874 12.55 30.313-8.022 34.532-19.474a72.744 72.744 0 0 0 3.61-13.558 13.047 13.047 0 0 0 4.849 2.8c4.159 1.221 9.554 1.467 11.466-3.126 1.488-3.576-2.522-8.722-4.276-11.428" fill="#009344" transform="translate(-4.446 254.78)"/></svg>